G04 EAGLE Gerber RS-274X export*
G75*
%MOMM*%
%FSLAX34Y34*%
%LPD*%
%INTop Copper*%
%IPPOS*%
%AMOC8*
5,1,8,0,0,1.08239X$1,22.5*%
G01*
%ADD10C,1.270000*%
%ADD11C,1.056400*%
%ADD12C,1.524000*%
%ADD13C,0.406400*%


D10*
X64770Y12700D02*
X77470Y12700D01*
D11*
X64770Y12700D03*
D12*
X5617210Y44450D03*
D10*
X78740Y12700D02*
X78740Y102870D01*
X83820Y102870D01*
X83820Y11430D01*
X77470Y11430D01*
X5529580Y101600D02*
X5537200Y101600D01*
X5537200Y12700D01*
X5529580Y12700D02*
X5529580Y100330D01*
X5617210Y86360D02*
X5617210Y69850D01*
D13*
X5617210Y86360D02*
X5597583Y107950D01*
X5572760Y107950D01*
X5566410Y101600D01*
X5538470Y101600D01*
D12*
X5617210Y69850D03*
D10*
X5537200Y12700D02*
X5529580Y12700D01*
X77470Y165100D02*
X64770Y165100D01*
D11*
X64770Y165100D03*
D12*
X5617210Y196850D03*
D10*
X78740Y165100D02*
X78740Y255270D01*
X83820Y255270D01*
X83820Y163830D01*
X77470Y163830D01*
X5529580Y254000D02*
X5537200Y254000D01*
X5537200Y165100D01*
X5529580Y165100D02*
X5529580Y252730D01*
X5617210Y238760D02*
X5617210Y222250D01*
D13*
X5617210Y238760D02*
X5597583Y260350D01*
X5572760Y260350D01*
X5566410Y254000D01*
X5538470Y254000D01*
D12*
X5617210Y222250D03*
D10*
X5537200Y165100D02*
X5529580Y165100D01*
X77470Y317500D02*
X64770Y317500D01*
D11*
X64770Y317500D03*
D12*
X5617210Y349250D03*
D10*
X78740Y317500D02*
X78740Y407670D01*
X83820Y407670D01*
X83820Y316230D01*
X77470Y316230D01*
X5529580Y406400D02*
X5537200Y406400D01*
X5537200Y317500D01*
X5529580Y317500D02*
X5529580Y405130D01*
X5617210Y391160D02*
X5617210Y374650D01*
D13*
X5617210Y391160D02*
X5597583Y412750D01*
X5572760Y412750D01*
X5566410Y406400D01*
X5538470Y406400D01*
D12*
X5617210Y374650D03*
D10*
X5537200Y317500D02*
X5529580Y317500D01*
X77470Y469900D02*
X64770Y469900D01*
D11*
X64770Y469900D03*
D12*
X5617210Y501650D03*
D10*
X78740Y469900D02*
X78740Y560070D01*
X83820Y560070D01*
X83820Y468630D01*
X77470Y468630D01*
X5529580Y558800D02*
X5537200Y558800D01*
X5537200Y469900D01*
X5529580Y469900D02*
X5529580Y557530D01*
X5617210Y543560D02*
X5617210Y527050D01*
D13*
X5617210Y543560D02*
X5597583Y565150D01*
X5572760Y565150D01*
X5566410Y558800D01*
X5538470Y558800D01*
D12*
X5617210Y527050D03*
D10*
X5537200Y469900D02*
X5529580Y469900D01*
X77470Y622300D02*
X64770Y622300D01*
D11*
X64770Y622300D03*
D12*
X5617210Y654050D03*
D10*
X78740Y622300D02*
X78740Y712470D01*
X83820Y712470D01*
X83820Y621030D01*
X77470Y621030D01*
X5529580Y711200D02*
X5537200Y711200D01*
X5537200Y622300D01*
X5529580Y622300D02*
X5529580Y709930D01*
X5617210Y695960D02*
X5617210Y679450D01*
D13*
X5617210Y695960D02*
X5597583Y717550D01*
X5572760Y717550D01*
X5566410Y711200D01*
X5538470Y711200D01*
D12*
X5617210Y679450D03*
D10*
X5537200Y622300D02*
X5529580Y622300D01*
X77470Y774700D02*
X64770Y774700D01*
D11*
X64770Y774700D03*
D12*
X5617210Y806450D03*
D10*
X78740Y774700D02*
X78740Y864870D01*
X83820Y864870D01*
X83820Y773430D01*
X77470Y773430D01*
X5529580Y863600D02*
X5537200Y863600D01*
X5537200Y774700D01*
X5529580Y774700D02*
X5529580Y862330D01*
X5617210Y848360D02*
X5617210Y831850D01*
D13*
X5617210Y848360D02*
X5597583Y869950D01*
X5572760Y869950D01*
X5566410Y863600D01*
X5538470Y863600D01*
D12*
X5617210Y831850D03*
D10*
X5537200Y774700D02*
X5529580Y774700D01*
M02*
