M48
;GenerationSoftware,Autodesk,EAGLE,9.2.2*%
;CreationDate,2020-11-28T19:21:37Z*%
FMAT,2
ICI,OFF
METRIC,TZ,000.000
T4C0.650
T3C1.016
T2C1.524
T1C3.048
%
G90
M71
T1
X3302Y81915
X558546Y81915
X3302Y66675
X558546Y66675
X3302Y51435
X558546Y51435
X3302Y36195
X558546Y36195
X3302Y20955
X558546Y20955
X3302Y5715
X558546Y5715
T2
X3302Y78740
X558546Y33020
X3302Y85090
X558546Y78740
X558546Y85090
X558546Y17780
X3302Y63500
X3302Y69850
X558546Y8890
X558546Y2540
X3302Y8890
X3302Y2540
X558546Y63500
X558546Y69850
X558546Y24130
X3302Y48260
X3302Y24130
X3302Y17780
X3302Y54610
X558546Y48260
X558546Y39370
X558546Y54610
X3302Y39370
X3302Y33020
T3
X561721Y22225
X561721Y19685
X561721Y65405
X561721Y34925
X561721Y6985
X561721Y37465
X561721Y50165
X561721Y52705
X561721Y4445
X561721Y83185
X561721Y80645
X561721Y67945
T4
X6477Y31750
X6477Y62230
X6477Y16510
X6477Y46990
X6477Y77470
X6477Y1270
M30