M48
;GenerationSoftware,Autodesk,EAGLE,9.6.2*%
;CreationDate,2021-08-04T20:37:36Z*%
FMAT,2
ICI,OFF
METRIC,TZ,000.000
T5C0.650
T4C1.016
T3C3.048
T2C4.318
T1C6.350
%
G90
M71
T1
X352806Y45974
X352806Y86360
X293624Y66040
X247650Y66040
X196596Y66040
X138938Y66040
T2
X548894Y66040
X534416Y66040
X509524Y86106
X509524Y45720
X479806Y66040
X456692Y66040
X431546Y66040
X402590Y66040
T3
X587816Y55885
X32572Y55885
X587806Y76195
X32562Y76195
X587846Y96565
X32602Y96565
X32552Y35565
X587796Y35565
T4
X591021Y97835
X591021Y95295
X590981Y77465
X590981Y74925
X590991Y57155
X590991Y54615
X590971Y36835
X590971Y34295
T5
X35777Y92120
X35737Y71750
X35747Y51440
X35727Y31120
M30