G04 EAGLE Gerber RS-274X export*
G75*
%MOMM*%
%FSLAX34Y34*%
%LPD*%
%INSolderpaste Top*%
%IPPOS*%
%AMOC8*
5,1,8,0,0,1.08239X$1,22.5*%
G01*
%ADD10R,1.000000X1.100000*%
%ADD11R,0.558800X1.600200*%
%ADD12R,1.100000X1.000000*%
%ADD13R,1.500000X2.000000*%
%ADD14R,2.000000X1.500000*%
%ADD15R,1.080000X1.050000*%
%ADD16C,0.150000*%
%ADD17R,1.400000X3.000000*%
%ADD18R,0.500000X1.000000*%
%ADD19R,0.720000X0.780000*%
%ADD20R,1.050000X1.080000*%
%ADD21R,1.050000X1.200000*%
%ADD22R,1.050000X2.390000*%
%ADD23R,2.910000X0.550000*%


D10*
X425060Y419100D03*
X408060Y419100D03*
X491100Y419100D03*
X474100Y419100D03*
D11*
X78867Y391160D03*
X98933Y391160D03*
D12*
X447040Y399660D03*
X447040Y382660D03*
D13*
X98820Y353060D03*
X68820Y353060D03*
X244080Y350520D03*
X274080Y350520D03*
X81520Y152400D03*
X111520Y152400D03*
D14*
X447040Y449340D03*
X447040Y419340D03*
D15*
X187960Y407530D03*
X187960Y390030D03*
D16*
X267060Y407380D02*
X285260Y407380D01*
X285260Y402880D01*
X267060Y402880D01*
X267060Y407380D01*
X267060Y404305D02*
X285260Y404305D01*
X285260Y405730D02*
X267060Y405730D01*
X267060Y407155D02*
X285260Y407155D01*
X285260Y420080D02*
X267060Y420080D01*
X285260Y420080D02*
X285260Y415580D01*
X267060Y415580D01*
X267060Y420080D01*
X267060Y417005D02*
X285260Y417005D01*
X285260Y418430D02*
X267060Y418430D01*
X267060Y419855D02*
X285260Y419855D01*
X285260Y432780D02*
X267060Y432780D01*
X285260Y432780D02*
X285260Y428280D01*
X267060Y428280D01*
X267060Y432780D01*
X267060Y429705D02*
X285260Y429705D01*
X285260Y431130D02*
X267060Y431130D01*
X267060Y432555D02*
X285260Y432555D01*
X285260Y445480D02*
X267060Y445480D01*
X285260Y445480D02*
X285260Y440980D01*
X267060Y440980D01*
X267060Y445480D01*
X267060Y442405D02*
X285260Y442405D01*
X285260Y443830D02*
X267060Y443830D01*
X267060Y445255D02*
X285260Y445255D01*
X235860Y445480D02*
X217660Y445480D01*
X235860Y445480D02*
X235860Y440980D01*
X217660Y440980D01*
X217660Y445480D01*
X217660Y442405D02*
X235860Y442405D01*
X235860Y443830D02*
X217660Y443830D01*
X217660Y445255D02*
X235860Y445255D01*
X235860Y432780D02*
X217660Y432780D01*
X235860Y432780D02*
X235860Y428280D01*
X217660Y428280D01*
X217660Y432780D01*
X217660Y429705D02*
X235860Y429705D01*
X235860Y431130D02*
X217660Y431130D01*
X217660Y432555D02*
X235860Y432555D01*
X235860Y420080D02*
X217660Y420080D01*
X235860Y420080D02*
X235860Y415580D01*
X217660Y415580D01*
X217660Y420080D01*
X217660Y417005D02*
X235860Y417005D01*
X235860Y418430D02*
X217660Y418430D01*
X217660Y419855D02*
X235860Y419855D01*
X235860Y407380D02*
X217660Y407380D01*
X235860Y407380D02*
X235860Y402880D01*
X217660Y402880D01*
X217660Y407380D01*
X217660Y404305D02*
X235860Y404305D01*
X235860Y405730D02*
X217660Y405730D01*
X217660Y407155D02*
X235860Y407155D01*
D15*
X307340Y430670D03*
X307340Y448170D03*
D10*
X169300Y454660D03*
X186300Y454660D03*
X183760Y515620D03*
X166760Y515620D03*
D12*
X139700Y499500D03*
X139700Y516500D03*
D17*
X236220Y534540D03*
X236220Y486540D03*
D12*
X169300Y429260D03*
X186300Y429260D03*
D10*
X414900Y139700D03*
X397900Y139700D03*
X496180Y139700D03*
X479180Y139700D03*
D12*
X444500Y127880D03*
X444500Y110880D03*
D14*
X444500Y180100D03*
X444500Y150100D03*
D10*
X1359780Y449580D03*
X1342780Y449580D03*
X1433440Y449580D03*
X1416440Y449580D03*
D12*
X1386840Y427600D03*
X1386840Y410600D03*
D14*
X1384300Y479820D03*
X1384300Y449820D03*
D10*
X1349620Y165100D03*
X1332620Y165100D03*
X1425820Y162560D03*
X1408820Y162560D03*
D12*
X1379220Y143120D03*
X1379220Y126120D03*
D14*
X1379220Y195340D03*
X1379220Y165340D03*
D10*
X2058280Y444500D03*
X2041280Y444500D03*
X2131940Y444500D03*
X2114940Y444500D03*
D12*
X2082800Y414900D03*
X2082800Y397900D03*
D14*
X2082800Y467120D03*
X2082800Y437120D03*
D10*
X2055740Y152400D03*
X2038740Y152400D03*
X2129400Y152400D03*
X2112400Y152400D03*
D12*
X2082800Y130420D03*
X2082800Y113420D03*
D14*
X2082800Y185180D03*
X2082800Y155180D03*
D13*
X185660Y350520D03*
X215660Y350520D03*
D12*
X599440Y554600D03*
X599440Y537600D03*
X574040Y554600D03*
X574040Y537600D03*
X650240Y445380D03*
X650240Y428380D03*
X828040Y445380D03*
X828040Y428380D03*
X853440Y445380D03*
X853440Y428380D03*
X751840Y445380D03*
X751840Y428380D03*
X726440Y445380D03*
X726440Y428380D03*
X777240Y445380D03*
X777240Y428380D03*
X802640Y445380D03*
X802640Y428380D03*
D18*
X1061780Y449320D03*
X1072780Y449320D03*
X1083780Y449320D03*
X1094780Y449320D03*
X1105780Y449320D03*
X1116780Y449320D03*
X1127780Y449320D03*
X1138780Y449320D03*
D19*
X1044180Y422520D03*
D20*
X1044030Y409820D03*
D21*
X1044030Y383720D03*
X1150530Y389420D03*
D22*
X1150530Y421270D03*
D23*
X1077420Y376970D03*
X1119320Y376970D03*
D12*
X802640Y537600D03*
X802640Y554600D03*
X777240Y537600D03*
X777240Y554600D03*
X751840Y537600D03*
X751840Y554600D03*
X853440Y537600D03*
X853440Y554600D03*
X828040Y537600D03*
X828040Y554600D03*
M02*
