G04 EAGLE Gerber RS-274X export*
G75*
%MOMM*%
%FSLAX34Y34*%
%LPD*%
%INSoldermask Bottom*%
%IPPOS*%
%AMOC8*
5,1,8,0,0,1.08239X$1,22.5*%
G01*
%ADD10C,3.378200*%
%ADD11R,2.082800X2.082800*%
%ADD12C,2.082800*%
%ADD13R,1.711200X1.711200*%
%ADD14C,1.711200*%
%ADD15C,1.727200*%
%ADD16R,1.511200X1.511200*%
%ADD17C,1.511200*%
%ADD18C,1.703200*%
%ADD19C,0.959600*%


D10*
X952500Y373380D03*
X2882900Y373380D03*
X104140Y440690D03*
X2905252Y50546D03*
X1094232Y37846D03*
X35052Y35306D03*
X2882900Y500380D03*
X1917700Y500380D03*
X952500Y500380D03*
D11*
X878840Y481330D03*
D12*
X853440Y483870D03*
X828040Y481330D03*
X802640Y483870D03*
X777240Y481330D03*
X751840Y483870D03*
X726440Y481330D03*
X701040Y483870D03*
X675640Y481330D03*
X650240Y483870D03*
X624840Y481330D03*
X599440Y483870D03*
X574040Y481330D03*
X548640Y483870D03*
X523240Y481330D03*
X497840Y483870D03*
X472440Y481330D03*
X447040Y483870D03*
X421640Y481330D03*
X396240Y483870D03*
X396240Y331470D03*
X421640Y328930D03*
X447040Y331470D03*
X472440Y328930D03*
X497840Y331470D03*
X523240Y328930D03*
X548640Y331470D03*
X574040Y328930D03*
X599440Y331470D03*
X624840Y328930D03*
X650240Y331470D03*
X675640Y328930D03*
X701040Y331470D03*
X726440Y328930D03*
X751840Y331470D03*
X777240Y328930D03*
X802640Y331470D03*
X828040Y328930D03*
X853440Y331470D03*
X878840Y328930D03*
X396240Y306070D03*
X421640Y303530D03*
X447040Y306070D03*
X472440Y303530D03*
X497840Y306070D03*
X523240Y303530D03*
X548640Y306070D03*
X574040Y303530D03*
X599440Y306070D03*
X624840Y303530D03*
X650240Y306070D03*
X675640Y303530D03*
X701040Y306070D03*
X726440Y303530D03*
X751840Y306070D03*
X777240Y303530D03*
X802640Y306070D03*
X828040Y303530D03*
X853440Y306070D03*
X878840Y303530D03*
D11*
X878840Y506730D03*
D12*
X853440Y509270D03*
X828040Y506730D03*
X802640Y509270D03*
X777240Y506730D03*
X751840Y509270D03*
X726440Y506730D03*
X701040Y509270D03*
X675640Y506730D03*
X650240Y509270D03*
X624840Y506730D03*
X599440Y509270D03*
X574040Y506730D03*
X548640Y509270D03*
X523240Y506730D03*
X497840Y509270D03*
X472440Y506730D03*
X447040Y509270D03*
X421640Y506730D03*
X396240Y509270D03*
D13*
X76200Y284660D03*
D14*
X101600Y284660D03*
X127000Y284660D03*
X177800Y284660D03*
X203200Y284660D03*
X228600Y284660D03*
X254000Y284660D03*
D15*
X104140Y520700D02*
X88900Y520700D01*
X88900Y495300D02*
X104140Y495300D01*
D16*
X45720Y543080D03*
D17*
X45720Y523080D03*
X45720Y503080D03*
X45720Y483080D03*
D14*
X127000Y50800D03*
X127000Y76200D03*
X152400Y50800D03*
X152400Y76200D03*
X177800Y50800D03*
X177800Y76200D03*
X203200Y50800D03*
X203200Y76200D03*
X228600Y50800D03*
X228600Y76200D03*
X254000Y50800D03*
X254000Y76200D03*
X279400Y50800D03*
X279400Y76200D03*
X304800Y50800D03*
X304800Y76200D03*
D11*
X878840Y214630D03*
D12*
X853440Y217170D03*
X828040Y214630D03*
X802640Y217170D03*
X777240Y214630D03*
X751840Y217170D03*
X726440Y214630D03*
X701040Y217170D03*
X675640Y214630D03*
X650240Y217170D03*
X624840Y214630D03*
X599440Y217170D03*
X574040Y214630D03*
X548640Y217170D03*
X523240Y214630D03*
X497840Y217170D03*
X472440Y214630D03*
X447040Y217170D03*
X421640Y214630D03*
X396240Y217170D03*
X396240Y64770D03*
X421640Y62230D03*
X447040Y64770D03*
X472440Y62230D03*
X497840Y64770D03*
X523240Y62230D03*
X548640Y64770D03*
X574040Y62230D03*
X599440Y64770D03*
X624840Y62230D03*
X650240Y64770D03*
X675640Y62230D03*
X701040Y64770D03*
X726440Y62230D03*
X751840Y64770D03*
X777240Y62230D03*
X802640Y64770D03*
X828040Y62230D03*
X853440Y64770D03*
X878840Y62230D03*
X396240Y39370D03*
X421640Y36830D03*
X447040Y39370D03*
X472440Y36830D03*
X497840Y39370D03*
X523240Y36830D03*
X548640Y39370D03*
X574040Y36830D03*
X599440Y39370D03*
X624840Y36830D03*
X650240Y39370D03*
X675640Y36830D03*
X701040Y39370D03*
X726440Y36830D03*
X751840Y39370D03*
X777240Y36830D03*
X802640Y39370D03*
X828040Y36830D03*
X853440Y39370D03*
X878840Y36830D03*
D11*
X878840Y240030D03*
D12*
X853440Y242570D03*
X828040Y240030D03*
X802640Y242570D03*
X777240Y240030D03*
X751840Y242570D03*
X726440Y240030D03*
X701040Y242570D03*
X675640Y240030D03*
X650240Y242570D03*
X624840Y240030D03*
X599440Y242570D03*
X574040Y240030D03*
X548640Y242570D03*
X523240Y240030D03*
X497840Y242570D03*
X472440Y240030D03*
X447040Y242570D03*
X421640Y240030D03*
X396240Y242570D03*
D11*
X1813560Y501650D03*
D12*
X1788160Y504190D03*
X1762760Y501650D03*
X1737360Y504190D03*
X1711960Y501650D03*
X1686560Y504190D03*
X1661160Y501650D03*
X1635760Y504190D03*
X1610360Y501650D03*
X1584960Y504190D03*
X1559560Y501650D03*
X1534160Y504190D03*
X1508760Y501650D03*
X1483360Y504190D03*
X1457960Y501650D03*
X1432560Y504190D03*
X1407160Y501650D03*
X1381760Y504190D03*
X1356360Y501650D03*
X1330960Y504190D03*
X1330960Y351790D03*
X1356360Y349250D03*
X1381760Y351790D03*
X1407160Y349250D03*
X1432560Y351790D03*
X1457960Y349250D03*
X1483360Y351790D03*
X1508760Y349250D03*
X1534160Y351790D03*
X1559560Y349250D03*
X1584960Y351790D03*
X1610360Y349250D03*
X1635760Y351790D03*
X1661160Y349250D03*
X1686560Y351790D03*
X1711960Y349250D03*
X1737360Y351790D03*
X1762760Y349250D03*
X1788160Y351790D03*
X1813560Y349250D03*
X1330960Y326390D03*
X1356360Y323850D03*
X1381760Y326390D03*
X1407160Y323850D03*
X1432560Y326390D03*
X1457960Y323850D03*
X1483360Y326390D03*
X1508760Y323850D03*
X1534160Y326390D03*
X1559560Y323850D03*
X1584960Y326390D03*
X1610360Y323850D03*
X1635760Y326390D03*
X1661160Y323850D03*
X1686560Y326390D03*
X1711960Y323850D03*
X1737360Y326390D03*
X1762760Y323850D03*
X1788160Y326390D03*
X1813560Y323850D03*
D11*
X1813560Y527050D03*
D12*
X1788160Y529590D03*
X1762760Y527050D03*
X1737360Y529590D03*
X1711960Y527050D03*
X1686560Y529590D03*
X1661160Y527050D03*
X1635760Y529590D03*
X1610360Y527050D03*
X1584960Y529590D03*
X1559560Y527050D03*
X1534160Y529590D03*
X1508760Y527050D03*
X1483360Y529590D03*
X1457960Y527050D03*
X1432560Y529590D03*
X1407160Y527050D03*
X1381760Y529590D03*
X1356360Y527050D03*
X1330960Y529590D03*
D11*
X1813560Y227330D03*
D12*
X1788160Y229870D03*
X1762760Y227330D03*
X1737360Y229870D03*
X1711960Y227330D03*
X1686560Y229870D03*
X1661160Y227330D03*
X1635760Y229870D03*
X1610360Y227330D03*
X1584960Y229870D03*
X1559560Y227330D03*
X1534160Y229870D03*
X1508760Y227330D03*
X1483360Y229870D03*
X1457960Y227330D03*
X1432560Y229870D03*
X1407160Y227330D03*
X1381760Y229870D03*
X1356360Y227330D03*
X1330960Y229870D03*
X1330960Y77470D03*
X1356360Y74930D03*
X1381760Y77470D03*
X1407160Y74930D03*
X1432560Y77470D03*
X1457960Y74930D03*
X1483360Y77470D03*
X1508760Y74930D03*
X1534160Y77470D03*
X1559560Y74930D03*
X1584960Y77470D03*
X1610360Y74930D03*
X1635760Y77470D03*
X1661160Y74930D03*
X1686560Y77470D03*
X1711960Y74930D03*
X1737360Y77470D03*
X1762760Y74930D03*
X1788160Y77470D03*
X1813560Y74930D03*
X1330960Y52070D03*
X1356360Y49530D03*
X1381760Y52070D03*
X1407160Y49530D03*
X1432560Y52070D03*
X1457960Y49530D03*
X1483360Y52070D03*
X1508760Y49530D03*
X1534160Y52070D03*
X1559560Y49530D03*
X1584960Y52070D03*
X1610360Y49530D03*
X1635760Y52070D03*
X1661160Y49530D03*
X1686560Y52070D03*
X1711960Y49530D03*
X1737360Y52070D03*
X1762760Y49530D03*
X1788160Y52070D03*
X1813560Y49530D03*
D11*
X1813560Y252730D03*
D12*
X1788160Y255270D03*
X1762760Y252730D03*
X1737360Y255270D03*
X1711960Y252730D03*
X1686560Y255270D03*
X1661160Y252730D03*
X1635760Y255270D03*
X1610360Y252730D03*
X1584960Y255270D03*
X1559560Y252730D03*
X1534160Y255270D03*
X1508760Y252730D03*
X1483360Y255270D03*
X1457960Y252730D03*
X1432560Y255270D03*
X1407160Y252730D03*
X1381760Y255270D03*
X1356360Y252730D03*
X1330960Y255270D03*
D11*
X2514600Y499110D03*
D12*
X2489200Y501650D03*
X2463800Y499110D03*
X2438400Y501650D03*
X2413000Y499110D03*
X2387600Y501650D03*
X2362200Y499110D03*
X2336800Y501650D03*
X2311400Y499110D03*
X2286000Y501650D03*
X2260600Y499110D03*
X2235200Y501650D03*
X2209800Y499110D03*
X2184400Y501650D03*
X2159000Y499110D03*
X2133600Y501650D03*
X2108200Y499110D03*
X2082800Y501650D03*
X2057400Y499110D03*
X2032000Y501650D03*
X2032000Y349250D03*
X2057400Y346710D03*
X2082800Y349250D03*
X2108200Y346710D03*
X2133600Y349250D03*
X2159000Y346710D03*
X2184400Y349250D03*
X2209800Y346710D03*
X2235200Y349250D03*
X2260600Y346710D03*
X2286000Y349250D03*
X2311400Y346710D03*
X2336800Y349250D03*
X2362200Y346710D03*
X2387600Y349250D03*
X2413000Y346710D03*
X2438400Y349250D03*
X2463800Y346710D03*
X2489200Y349250D03*
X2514600Y346710D03*
X2032000Y323850D03*
X2057400Y321310D03*
X2082800Y323850D03*
X2108200Y321310D03*
X2133600Y323850D03*
X2159000Y321310D03*
X2184400Y323850D03*
X2209800Y321310D03*
X2235200Y323850D03*
X2260600Y321310D03*
X2286000Y323850D03*
X2311400Y321310D03*
X2336800Y323850D03*
X2362200Y321310D03*
X2387600Y323850D03*
X2413000Y321310D03*
X2438400Y323850D03*
X2463800Y321310D03*
X2489200Y323850D03*
X2514600Y321310D03*
D11*
X2514600Y524510D03*
D12*
X2489200Y527050D03*
X2463800Y524510D03*
X2438400Y527050D03*
X2413000Y524510D03*
X2387600Y527050D03*
X2362200Y524510D03*
X2336800Y527050D03*
X2311400Y524510D03*
X2286000Y527050D03*
X2260600Y524510D03*
X2235200Y527050D03*
X2209800Y524510D03*
X2184400Y527050D03*
X2159000Y524510D03*
X2133600Y527050D03*
X2108200Y524510D03*
X2082800Y527050D03*
X2057400Y524510D03*
X2032000Y527050D03*
D11*
X2514600Y217170D03*
D12*
X2489200Y219710D03*
X2463800Y217170D03*
X2438400Y219710D03*
X2413000Y217170D03*
X2387600Y219710D03*
X2362200Y217170D03*
X2336800Y219710D03*
X2311400Y217170D03*
X2286000Y219710D03*
X2260600Y217170D03*
X2235200Y219710D03*
X2209800Y217170D03*
X2184400Y219710D03*
X2159000Y217170D03*
X2133600Y219710D03*
X2108200Y217170D03*
X2082800Y219710D03*
X2057400Y217170D03*
X2032000Y219710D03*
X2032000Y67310D03*
X2057400Y64770D03*
X2082800Y67310D03*
X2108200Y64770D03*
X2133600Y67310D03*
X2159000Y64770D03*
X2184400Y67310D03*
X2209800Y64770D03*
X2235200Y67310D03*
X2260600Y64770D03*
X2286000Y67310D03*
X2311400Y64770D03*
X2336800Y67310D03*
X2362200Y64770D03*
X2387600Y67310D03*
X2413000Y64770D03*
X2438400Y67310D03*
X2463800Y64770D03*
X2489200Y67310D03*
X2514600Y64770D03*
X2032000Y41910D03*
X2057400Y39370D03*
X2082800Y41910D03*
X2108200Y39370D03*
X2133600Y41910D03*
X2159000Y39370D03*
X2184400Y41910D03*
X2209800Y39370D03*
X2235200Y41910D03*
X2260600Y39370D03*
X2286000Y41910D03*
X2311400Y39370D03*
X2336800Y41910D03*
X2362200Y39370D03*
X2387600Y41910D03*
X2413000Y39370D03*
X2438400Y41910D03*
X2463800Y39370D03*
X2489200Y41910D03*
X2514600Y39370D03*
D11*
X2514600Y242570D03*
D12*
X2489200Y245110D03*
X2463800Y242570D03*
X2438400Y245110D03*
X2413000Y242570D03*
X2387600Y245110D03*
X2362200Y242570D03*
X2336800Y245110D03*
X2311400Y242570D03*
X2286000Y245110D03*
X2260600Y242570D03*
X2235200Y245110D03*
X2209800Y242570D03*
X2184400Y245110D03*
X2159000Y242570D03*
X2133600Y245110D03*
X2108200Y242570D03*
X2082800Y245110D03*
X2057400Y242570D03*
X2032000Y245110D03*
D15*
X365506Y537972D02*
X365506Y553212D01*
X320294Y553212D02*
X320294Y537972D01*
X365506Y488188D02*
X365506Y472948D01*
X320294Y472948D02*
X320294Y488188D01*
D18*
X194310Y128270D03*
X299720Y129540D03*
X373380Y264160D03*
D19*
X1155700Y449580D03*
X1026160Y411480D03*
X1135380Y515620D03*
X2164080Y271780D03*
X1584960Y414020D03*
X943610Y275590D03*
X901700Y307340D03*
X635000Y378460D03*
X713740Y256540D03*
X702310Y387350D03*
X1021080Y429260D03*
X673100Y104112D03*
X1226820Y520700D03*
X1757680Y171168D03*
X934720Y215900D03*
X2296160Y297180D03*
X2352040Y289560D03*
X1356360Y297180D03*
X977900Y276860D03*
X914400Y314960D03*
X327660Y431800D03*
X381000Y144780D03*
X1310736Y165196D03*
X2010636Y161290D03*
X388620Y419100D03*
X1315720Y449580D03*
X2021840Y429260D03*
X506730Y435610D03*
X1451610Y461010D03*
X2153920Y454660D03*
X337820Y233680D03*
X510540Y177800D03*
X1450340Y185420D03*
X2153920Y167640D03*
X383540Y444500D03*
X2062480Y396240D03*
X2001520Y124460D03*
X1338580Y124460D03*
X1310640Y414020D03*
X340360Y393700D03*
X154940Y441960D03*
X1866900Y88900D03*
X1868970Y109690D03*
X1559560Y208280D03*
X589280Y398780D03*
X1432560Y106680D03*
X1064260Y259080D03*
X645160Y411480D03*
X706120Y368300D03*
X906780Y444500D03*
X751840Y411480D03*
X1076960Y520700D03*
X726440Y401320D03*
X1104900Y513080D03*
M02*
