G04 EAGLE Gerber RS-274X export*
G75*
%MOMM*%
%FSLAX34Y34*%
%LPD*%
%INBottom Copper*%
%IPPOS*%
%AMOC8*
5,1,8,0,0,1.08239X$1,22.5*%
G01*
%ADD10P,2.089446X8X202.500000*%
%ADD11P,2.089446X8X22.500000*%
%ADD12R,2.781300X2.781300*%
%ADD13R,1.800000X1.800000*%
%ADD14P,1.649562X8X112.500000*%
%ADD15P,1.649562X8X22.500000*%
%ADD16C,2.400000*%
%ADD17C,1.879600*%
%ADD18R,1.308000X1.308000*%
%ADD19C,1.308000*%
%ADD20P,1.429621X8X22.500000*%
%ADD21C,1.524000*%
%ADD22R,1.397000X1.397000*%
%ADD23R,2.476500X2.476500*%
%ADD24P,1.649562X8X202.500000*%
%ADD25C,1.508000*%
%ADD26C,1.422400*%
%ADD27R,1.508000X1.508000*%
%ADD28C,2.700000*%
%ADD29R,1.524000X1.524000*%
%ADD30C,2.000000*%
%ADD31C,2.540000*%
%ADD32P,2.749271X8X112.500000*%
%ADD33P,1.649562X8X292.500000*%
%ADD34C,0.756400*%
%ADD35C,0.956400*%
%ADD36C,1.056400*%
%ADD37C,0.304800*%
%ADD38C,0.254000*%
%ADD39C,0.508000*%
%ADD40C,1.350000*%
%ADD41C,1.016000*%
%ADD42C,7.112000*%
%ADD43C,1.270000*%
%ADD44C,0.406400*%
%ADD45C,0.609600*%
%ADD46C,0.906400*%
%ADD47C,0.812800*%
%ADD48C,2.540000*%
%ADD49C,0.152400*%
%ADD50C,3.048000*%


D10*
X236220Y1018540D03*
D11*
X236220Y1043940D03*
D12*
X1494955Y2319020D03*
X1588605Y2319020D03*
D13*
X1516780Y2244020D03*
X1541780Y2244020D03*
X1566780Y2244020D03*
D12*
X1865795Y2324100D03*
X1959445Y2324100D03*
D13*
X1887620Y2249100D03*
X1912620Y2249100D03*
X1937620Y2249100D03*
D14*
X850900Y665480D03*
X825500Y665480D03*
X850900Y690880D03*
X825500Y690880D03*
X850900Y716280D03*
X825500Y716280D03*
X850900Y741680D03*
X825500Y741680D03*
X1661160Y668020D03*
X1635760Y668020D03*
X1661160Y693420D03*
X1635760Y693420D03*
X1661160Y718820D03*
X1635760Y718820D03*
X1661160Y744220D03*
X1635760Y744220D03*
X2026920Y1285240D03*
X2001520Y1285240D03*
X2026920Y1310640D03*
X2001520Y1310640D03*
X2026920Y1336040D03*
X2001520Y1336040D03*
X2026920Y1361440D03*
X2001520Y1361440D03*
X1511300Y589280D03*
X1485900Y589280D03*
X1511300Y614680D03*
X1485900Y614680D03*
X1511300Y640080D03*
X1485900Y640080D03*
X1511300Y665480D03*
X1485900Y665480D03*
X1511300Y690880D03*
X1485900Y690880D03*
X1511300Y716280D03*
X1485900Y716280D03*
X1511300Y741680D03*
X1485900Y741680D03*
X1511300Y767080D03*
X1485900Y767080D03*
X1511300Y792480D03*
X1485900Y792480D03*
X1511300Y817880D03*
X1485900Y817880D03*
X2321560Y591820D03*
X2296160Y591820D03*
X2321560Y617220D03*
X2296160Y617220D03*
X2321560Y642620D03*
X2296160Y642620D03*
X2321560Y668020D03*
X2296160Y668020D03*
X2321560Y693420D03*
X2296160Y693420D03*
X2321560Y718820D03*
X2296160Y718820D03*
X2321560Y744220D03*
X2296160Y744220D03*
X2321560Y769620D03*
X2296160Y769620D03*
X2321560Y795020D03*
X2296160Y795020D03*
X2321560Y820420D03*
X2296160Y820420D03*
X2687320Y1209040D03*
X2661920Y1209040D03*
X2687320Y1234440D03*
X2661920Y1234440D03*
X2687320Y1259840D03*
X2661920Y1259840D03*
X2687320Y1285240D03*
X2661920Y1285240D03*
X2687320Y1310640D03*
X2661920Y1310640D03*
X2687320Y1336040D03*
X2661920Y1336040D03*
X2687320Y1361440D03*
X2661920Y1361440D03*
X2687320Y1386840D03*
X2661920Y1386840D03*
X2687320Y1412240D03*
X2661920Y1412240D03*
X2687320Y1437640D03*
X2661920Y1437640D03*
D15*
X1079246Y474472D03*
X1079246Y499872D03*
X1104646Y474472D03*
X1104646Y499872D03*
X1130046Y474472D03*
X1130046Y499872D03*
X1155446Y474472D03*
X1155446Y499872D03*
X1180846Y474472D03*
X1180846Y499872D03*
X1206246Y474472D03*
X1206246Y499872D03*
X1231646Y474472D03*
X1231646Y499872D03*
X1257046Y474472D03*
X1257046Y499872D03*
X1282446Y474472D03*
X1282446Y499872D03*
X1307846Y474472D03*
X1307846Y499872D03*
X1333246Y474472D03*
X1333246Y499872D03*
X1358646Y474472D03*
X1358646Y499872D03*
X1384046Y474472D03*
X1384046Y499872D03*
X1409446Y474472D03*
X1409446Y499872D03*
X1434846Y474472D03*
X1434846Y499872D03*
X1889252Y477266D03*
X1889252Y502666D03*
X1914652Y477266D03*
X1914652Y502666D03*
X1940052Y477266D03*
X1940052Y502666D03*
X1965452Y477266D03*
X1965452Y502666D03*
X1990852Y477266D03*
X1990852Y502666D03*
X2016252Y477266D03*
X2016252Y502666D03*
X2041652Y477266D03*
X2041652Y502666D03*
X2067052Y477266D03*
X2067052Y502666D03*
X2092452Y477266D03*
X2092452Y502666D03*
X2117852Y477266D03*
X2117852Y502666D03*
X2143252Y477266D03*
X2143252Y502666D03*
X2168652Y477266D03*
X2168652Y502666D03*
X2194052Y477266D03*
X2194052Y502666D03*
X2219452Y477266D03*
X2219452Y502666D03*
X2244852Y477266D03*
X2244852Y502666D03*
X2254758Y1094486D03*
X2254758Y1119886D03*
X2280158Y1094486D03*
X2280158Y1119886D03*
X2305558Y1094486D03*
X2305558Y1119886D03*
X2330958Y1094486D03*
X2330958Y1119886D03*
X2356358Y1094486D03*
X2356358Y1119886D03*
X2381758Y1094486D03*
X2381758Y1119886D03*
X2407158Y1094486D03*
X2407158Y1119886D03*
X2432558Y1094486D03*
X2432558Y1119886D03*
X2457958Y1094486D03*
X2457958Y1119886D03*
X2483358Y1094486D03*
X2483358Y1119886D03*
X2508758Y1094486D03*
X2508758Y1119886D03*
X2534158Y1094486D03*
X2534158Y1119886D03*
X2559558Y1094486D03*
X2559558Y1119886D03*
X2584958Y1094486D03*
X2584958Y1119886D03*
X2610358Y1094486D03*
X2610358Y1119886D03*
D16*
X260000Y1713640D03*
X147000Y1713640D03*
X260000Y1776640D03*
X147000Y1776640D03*
X260000Y1650640D03*
X147000Y1650640D03*
D17*
X1384554Y2015744D03*
X1449578Y2015744D03*
X1384554Y1970532D03*
X1449578Y1970532D03*
X1546352Y2095500D03*
X1611376Y2095500D03*
X1546352Y2050288D03*
X1611376Y2050288D03*
X1730756Y2145792D03*
X1795780Y2145792D03*
X1730756Y2100580D03*
X1795780Y2100580D03*
X1933702Y2136394D03*
X1998726Y2136394D03*
X1933702Y2091182D03*
X1998726Y2091182D03*
X879602Y2270506D03*
X944626Y2270506D03*
X879602Y2225294D03*
X944626Y2225294D03*
X876808Y2122170D03*
X941832Y2122170D03*
X876808Y2076958D03*
X941832Y2076958D03*
X934212Y2195576D03*
X999236Y2195576D03*
X934212Y2150364D03*
X999236Y2150364D03*
X825246Y2196084D03*
X890270Y2196084D03*
X825246Y2150872D03*
X890270Y2150872D03*
X799592Y2002536D03*
X864616Y2002536D03*
X799592Y1957324D03*
X864616Y1957324D03*
X1123950Y2037334D03*
X1188974Y2037334D03*
X1123950Y1992122D03*
X1188974Y1992122D03*
X1163574Y2148840D03*
X1228598Y2148840D03*
X1163574Y2103628D03*
X1228598Y2103628D03*
D18*
X1531620Y1419380D03*
D19*
X1531620Y1399380D03*
X1531620Y1379380D03*
X1531620Y1359380D03*
D18*
X1600200Y1419380D03*
D19*
X1600200Y1399380D03*
X1600200Y1379380D03*
X1600200Y1359380D03*
D18*
X1668780Y1419380D03*
D19*
X1668780Y1399380D03*
X1668780Y1379380D03*
X1668780Y1359380D03*
D18*
X1737360Y1419380D03*
D19*
X1737360Y1399380D03*
X1737360Y1379380D03*
X1737360Y1359380D03*
D18*
X1805940Y1419380D03*
D19*
X1805940Y1399380D03*
X1805940Y1379380D03*
X1805940Y1359380D03*
D18*
X1231900Y1094740D03*
X1257300Y1094740D03*
X1308100Y1094740D03*
X1333500Y1094740D03*
X1358900Y1094740D03*
D20*
X1125220Y1115060D03*
X1137920Y1134110D03*
X1150620Y1115060D03*
X1132840Y1069340D03*
X1145540Y1088390D03*
X1158240Y1069340D03*
D21*
X914400Y1117600D02*
X914400Y1132840D01*
X939800Y1132840D02*
X939800Y1117600D01*
D19*
X492760Y1549400D03*
X467360Y1549400D03*
X441960Y1549400D03*
D22*
X181610Y331470D03*
X194310Y306070D03*
X207010Y331470D03*
X219710Y306070D03*
X232410Y331470D03*
X245110Y306070D03*
X257810Y331470D03*
X270510Y306070D03*
D23*
X147320Y356108D03*
X304800Y356108D03*
D15*
X160020Y723900D03*
X160020Y698500D03*
X111760Y541020D03*
X60960Y744220D03*
X58420Y688340D03*
X111760Y566420D03*
X276860Y728980D03*
X276860Y703580D03*
X154940Y614680D03*
X160020Y749300D03*
X160020Y673100D03*
X180340Y614680D03*
X381000Y741680D03*
X383540Y685800D03*
X264160Y612140D03*
X299720Y751840D03*
X299720Y690880D03*
X289560Y612140D03*
X492760Y744220D03*
X492760Y688340D03*
X436880Y548640D03*
X396240Y777240D03*
X411480Y716280D03*
X462280Y548640D03*
X612140Y795020D03*
X617220Y736600D03*
X508000Y548640D03*
X538480Y779780D03*
X538480Y754380D03*
X533400Y548640D03*
X612140Y828040D03*
X728980Y784860D03*
X589280Y548640D03*
X635000Y812800D03*
X647700Y787400D03*
X617220Y548640D03*
D11*
X144780Y942340D03*
X170180Y942340D03*
X142240Y1130300D03*
X142240Y1104900D03*
D18*
X624360Y1122680D03*
D19*
X604360Y1122680D03*
X584360Y1122680D03*
X564360Y1122680D03*
D18*
X629920Y879320D03*
D19*
X629920Y899320D03*
X629920Y919320D03*
X629920Y939320D03*
D18*
X2036600Y309880D03*
D19*
X2016600Y309880D03*
X1996600Y309880D03*
X1976600Y309880D03*
D18*
X2155980Y309880D03*
D19*
X2135980Y309880D03*
X2115980Y309880D03*
X2095980Y309880D03*
D18*
X954560Y1249680D03*
D19*
X934560Y1249680D03*
X914560Y1249680D03*
X894560Y1249680D03*
D18*
X1094260Y1249680D03*
D19*
X1074260Y1249680D03*
X1054260Y1249680D03*
X1034260Y1249680D03*
X1648460Y1023620D03*
X1648460Y1049020D03*
X1648460Y1074420D03*
D15*
X1455420Y1026160D03*
D24*
X1455420Y1000760D03*
D14*
X1234440Y1018540D03*
X1259840Y1018540D03*
D11*
X1798320Y223520D03*
D10*
X1917700Y127000D03*
D11*
X1798320Y198120D03*
X2174240Y132080D03*
X2148840Y132080D03*
D18*
X1686560Y245900D03*
D19*
X1686560Y225900D03*
X1686560Y205900D03*
X1686560Y185900D03*
D25*
X873760Y22860D03*
X873760Y48260D03*
X899160Y22860D03*
X899160Y48260D03*
X924560Y22860D03*
X924560Y48260D03*
X949960Y22860D03*
X949960Y48260D03*
X975360Y22860D03*
X975360Y48260D03*
X1000760Y22860D03*
X1000760Y48260D03*
X1026160Y22860D03*
X1026160Y48260D03*
X1051560Y22860D03*
X1051560Y48260D03*
X1076960Y22860D03*
X1076960Y48260D03*
X1102360Y22860D03*
X1102360Y48260D03*
D21*
X789940Y205740D02*
X774700Y205740D01*
X774700Y231140D02*
X789940Y231140D01*
X889000Y205740D02*
X904240Y205740D01*
X904240Y231140D02*
X889000Y231140D01*
X1358900Y205740D02*
X1374140Y205740D01*
X1374140Y231140D02*
X1358900Y231140D01*
X1018540Y205740D02*
X1003300Y205740D01*
X1003300Y231140D02*
X1018540Y231140D01*
D18*
X296700Y1120140D03*
D19*
X276700Y1120140D03*
X256700Y1120140D03*
X236700Y1120140D03*
D10*
X2085340Y264160D03*
X2059940Y264160D03*
D18*
X466880Y1231900D03*
D19*
X446880Y1231900D03*
X426880Y1231900D03*
X406880Y1231900D03*
D18*
X344960Y1231900D03*
D19*
X324960Y1231900D03*
X304960Y1231900D03*
X284960Y1231900D03*
D11*
X652180Y1363220D03*
X746160Y1342900D03*
X720760Y1342900D03*
X669960Y1416560D03*
X669960Y1441960D03*
D18*
X124460Y203680D03*
D19*
X124460Y223680D03*
X124460Y243680D03*
X124460Y263680D03*
D18*
X71600Y144780D03*
D19*
X91600Y144780D03*
X111600Y144780D03*
X131600Y144780D03*
D18*
X55880Y203680D03*
D19*
X55880Y223680D03*
X55880Y243680D03*
X55880Y263680D03*
D18*
X180820Y144780D03*
D19*
X200820Y144780D03*
X220820Y144780D03*
X240820Y144780D03*
D18*
X307340Y184940D03*
D19*
X307340Y164940D03*
X307340Y144940D03*
X307340Y124940D03*
D18*
X375920Y184940D03*
D19*
X375920Y164940D03*
X375920Y144940D03*
X375920Y124940D03*
D18*
X2199140Y2310920D03*
D19*
X2199140Y2290920D03*
X2199140Y2270920D03*
X2199140Y2250920D03*
D11*
X2166120Y2217420D03*
X2176280Y2344420D03*
D26*
X876440Y1749920D03*
X866240Y1724520D03*
X856040Y1749920D03*
X845840Y1724520D03*
X835640Y1749920D03*
X825440Y1724520D03*
X815240Y1749920D03*
X805040Y1724520D03*
D16*
X921990Y1724520D03*
X759490Y1724520D03*
D17*
X518500Y2357036D03*
X583524Y2357036D03*
X518500Y2311824D03*
X583524Y2311824D03*
D21*
X716280Y1706880D02*
X716280Y1691640D01*
X690880Y1691640D02*
X690880Y1706880D01*
X665480Y1706880D02*
X665480Y1691640D01*
X640080Y1691640D02*
X640080Y1706880D01*
X614680Y1706880D02*
X614680Y1691640D01*
X589280Y1691640D02*
X589280Y1706880D01*
X563880Y1706880D02*
X563880Y1691640D01*
X538480Y1691640D02*
X538480Y1706880D01*
X287020Y1513840D02*
X271780Y1513840D01*
X271780Y1539240D02*
X287020Y1539240D01*
D25*
X985520Y2319720D03*
X985520Y2345120D03*
X960120Y2319720D03*
X960120Y2345120D03*
X934720Y2319720D03*
X934720Y2345120D03*
X909320Y2319720D03*
X909320Y2345120D03*
X883920Y2319720D03*
X883920Y2345120D03*
X858520Y2319720D03*
X858520Y2345120D03*
X833120Y2319720D03*
X833120Y2345120D03*
X807720Y2319720D03*
X807720Y2345120D03*
X782320Y2319720D03*
X782320Y2345120D03*
X756920Y2319720D03*
X756920Y2345120D03*
X731520Y2319720D03*
X731520Y2345120D03*
X706120Y2319720D03*
X706120Y2345120D03*
X1140060Y2391560D03*
D27*
X1090060Y2391560D03*
D25*
X1090060Y2246560D03*
X1115060Y2246560D03*
X1140060Y2246560D03*
D28*
X1058060Y2308060D02*
X1058060Y2335060D01*
X1172060Y2335060D02*
X1172060Y2308060D01*
D25*
X1366980Y2229220D03*
X1366980Y2254620D03*
X1341580Y2229220D03*
X1341580Y2254620D03*
X1316180Y2229220D03*
X1316180Y2254620D03*
X1290780Y2229220D03*
X1290780Y2254620D03*
X1265380Y2229220D03*
X1265380Y2254620D03*
D21*
X522620Y2250420D02*
X522620Y2265660D01*
X548020Y2265660D02*
X548020Y2250420D01*
X573420Y2250420D02*
X573420Y2265660D01*
X598820Y2265660D02*
X598820Y2250420D01*
D29*
X746760Y1498600D03*
D15*
X746760Y1524000D03*
X772160Y1498600D03*
X772160Y1524000D03*
X797560Y1498600D03*
X797560Y1524000D03*
X822960Y1498600D03*
X822960Y1524000D03*
X848360Y1498600D03*
X848360Y1524000D03*
D29*
X1128344Y1589049D03*
D15*
X1128344Y1614449D03*
X1153744Y1589049D03*
X1153744Y1614449D03*
X1179144Y1589049D03*
X1179144Y1614449D03*
X1204544Y1589049D03*
X1204544Y1614449D03*
X1229944Y1589049D03*
X1229944Y1614449D03*
X1255344Y1589049D03*
X1255344Y1614449D03*
X1280744Y1589049D03*
X1280744Y1614449D03*
X1306144Y1589049D03*
X1306144Y1614449D03*
X1331544Y1589049D03*
X1331544Y1614449D03*
X1356944Y1589049D03*
X1356944Y1614449D03*
X1382344Y1589049D03*
X1382344Y1614449D03*
X1407744Y1589049D03*
X1407744Y1614449D03*
D21*
X193040Y1292860D02*
X177800Y1292860D01*
X177800Y1267460D02*
X193040Y1267460D01*
X193040Y1318260D02*
X177800Y1318260D01*
X180340Y1412240D02*
X195580Y1412240D01*
X195580Y1386840D02*
X180340Y1386840D01*
X180340Y1437640D02*
X195580Y1437640D01*
D18*
X2384560Y2313460D03*
D19*
X2384560Y2293460D03*
X2384560Y2273460D03*
X2384560Y2253460D03*
D11*
X2351540Y2219960D03*
X2361700Y2346960D03*
D18*
X2196600Y2067080D03*
D19*
X2196600Y2047080D03*
X2196600Y2027080D03*
X2196600Y2007080D03*
D11*
X2163580Y1973580D03*
X2173740Y2100580D03*
D18*
X2389640Y2067080D03*
D19*
X2389640Y2047080D03*
X2389640Y2027080D03*
X2389640Y2007080D03*
D11*
X2356620Y1973580D03*
X2366780Y2100580D03*
D18*
X2201680Y1820700D03*
D19*
X2201680Y1800700D03*
X2201680Y1780700D03*
X2201680Y1760700D03*
D11*
X2168660Y1727200D03*
X2178820Y1854200D03*
D18*
X2389640Y1820700D03*
D19*
X2389640Y1800700D03*
X2389640Y1780700D03*
X2389640Y1760700D03*
D11*
X2356620Y1727200D03*
X2366780Y1854200D03*
D18*
X2577600Y1823240D03*
D19*
X2577600Y1803240D03*
X2577600Y1783240D03*
X2577600Y1763240D03*
D11*
X2544580Y1729740D03*
X2554740Y1856740D03*
D18*
X2572520Y2069620D03*
D19*
X2572520Y2049620D03*
X2572520Y2029620D03*
X2572520Y2009620D03*
D11*
X2539500Y1976120D03*
X2549660Y2103120D03*
D18*
X2661420Y205260D03*
D19*
X2661420Y185260D03*
X2661420Y165260D03*
X2661420Y145260D03*
D11*
X2628400Y111760D03*
X2638560Y238760D03*
D18*
X2656340Y451640D03*
D19*
X2656340Y431640D03*
X2656340Y411640D03*
X2656340Y391640D03*
D11*
X2623320Y358140D03*
X2633480Y485140D03*
D18*
X622300Y1071400D03*
D19*
X622300Y1051400D03*
X622300Y1031400D03*
X622300Y1011400D03*
D18*
X1228880Y1259840D03*
D19*
X1208880Y1259840D03*
X1188880Y1259840D03*
X1168880Y1259840D03*
D30*
X446880Y1678940D02*
X426880Y1678940D01*
X484880Y1698940D02*
X484880Y1718940D01*
X446880Y1739940D02*
X426880Y1739940D01*
D31*
X612140Y1544320D03*
D32*
X612140Y1595120D03*
D16*
X2569560Y753520D03*
X2682560Y753520D03*
X2569560Y816520D03*
X2682560Y816520D03*
X2569560Y690520D03*
X2682560Y690520D03*
D18*
X135100Y1524000D03*
D19*
X155100Y1524000D03*
X175100Y1524000D03*
X195100Y1524000D03*
D18*
X998700Y1135380D03*
D19*
X1018700Y1135380D03*
X1038700Y1135380D03*
X1058700Y1135380D03*
D18*
X2519200Y617220D03*
D19*
X2499200Y617220D03*
X2479200Y617220D03*
X2459200Y617220D03*
D29*
X2476500Y342900D03*
D33*
X2501900Y342900D03*
X2476500Y317500D03*
X2501900Y317500D03*
X2476500Y292100D03*
X2501900Y292100D03*
X2476500Y266700D03*
X2501900Y266700D03*
X2476500Y241300D03*
X2501900Y241300D03*
X2476500Y215900D03*
X2501900Y215900D03*
X2476500Y190500D03*
X2501900Y190500D03*
X2476500Y165100D03*
X2501900Y165100D03*
X2476500Y139700D03*
X2501900Y139700D03*
X2476500Y114300D03*
X2501900Y114300D03*
D25*
X1747520Y1016000D03*
X1747520Y1041400D03*
X1772920Y1016000D03*
X1772920Y1041400D03*
X1798320Y1016000D03*
X1798320Y1041400D03*
X1823720Y1016000D03*
X1823720Y1041400D03*
X1849120Y1016000D03*
X1849120Y1041400D03*
X1874520Y1016000D03*
X1874520Y1041400D03*
X1899920Y1016000D03*
X1899920Y1041400D03*
X1925320Y1016000D03*
X1925320Y1041400D03*
X1320800Y1262380D03*
X1320800Y1287780D03*
X1346200Y1262380D03*
X1346200Y1287780D03*
X1371600Y1262380D03*
X1371600Y1287780D03*
X1397000Y1262380D03*
X1397000Y1287780D03*
X1422400Y1262380D03*
X1422400Y1287780D03*
X1447800Y1262380D03*
X1447800Y1287780D03*
X1473200Y1262380D03*
X1473200Y1287780D03*
X1498600Y1262380D03*
X1498600Y1287780D03*
D11*
X1074420Y1755140D03*
X1074420Y1729740D03*
D25*
X1313180Y1734820D03*
X1313180Y1760220D03*
X1287780Y1734820D03*
X1287780Y1760220D03*
X1262380Y1734820D03*
X1262380Y1760220D03*
X1236980Y1734820D03*
X1236980Y1760220D03*
X1211580Y1734820D03*
X1211580Y1760220D03*
X1186180Y1734820D03*
X1186180Y1760220D03*
X1160780Y1734820D03*
X1160780Y1760220D03*
X1135380Y1734820D03*
X1135380Y1760220D03*
X190500Y546100D03*
X190500Y571500D03*
X215900Y546100D03*
X215900Y571500D03*
X241300Y546100D03*
X241300Y571500D03*
X266700Y546100D03*
X266700Y571500D03*
X292100Y546100D03*
X292100Y571500D03*
X317500Y546100D03*
X317500Y571500D03*
X342900Y546100D03*
X342900Y571500D03*
X368300Y546100D03*
X368300Y571500D03*
D15*
X568960Y906780D03*
X594360Y947420D03*
X668020Y949960D03*
X695960Y1074420D03*
X721360Y1074420D03*
X358140Y1137920D03*
D11*
X975360Y1463040D03*
X975360Y1437640D03*
X970280Y1394460D03*
D34*
X347980Y906780D03*
X274320Y896620D03*
X93980Y858520D03*
X692432Y731520D03*
X576580Y723900D03*
X447040Y726440D03*
X337820Y728980D03*
X209804Y754479D03*
X101600Y723323D03*
X43180Y871220D03*
D35*
X129179Y983925D03*
D36*
X165100Y1010920D03*
D34*
X284480Y986940D03*
X307485Y939945D03*
X454660Y886460D03*
X467360Y878840D03*
X527272Y1052578D03*
X731520Y1033780D03*
X665480Y1051560D03*
X584200Y980440D03*
X589280Y924560D03*
X566420Y853440D03*
X342900Y845820D03*
D37*
X358140Y861060D01*
X358140Y934720D02*
X363220Y939800D01*
D34*
X363220Y939800D03*
D37*
X358140Y934720D02*
X358140Y861060D01*
D34*
X358140Y1109980D03*
X497840Y1099820D03*
X429311Y1090066D03*
X289560Y1087120D03*
D36*
X106680Y1036320D03*
D34*
X248920Y985520D03*
X309880Y962660D03*
X347980Y922020D03*
X444500Y835688D03*
X492760Y835660D03*
X538480Y855980D03*
X563880Y944880D03*
X563880Y1005840D03*
X558800Y1066800D03*
X480060Y1115060D03*
X411683Y1115136D03*
X335280Y1079500D03*
X347980Y1033780D03*
X726440Y960120D03*
X660400Y1003300D03*
D38*
X660400Y1028700D01*
X647700Y1041400D01*
X640080Y1041400D01*
X635000Y1036320D01*
X635000Y982980D01*
X624840Y972820D02*
X553720Y972820D01*
X505460Y1021080D01*
X505460Y1023620D01*
X495300Y1033780D01*
D34*
X495300Y1033780D03*
D38*
X624840Y972820D02*
X635000Y982980D01*
D34*
X657860Y982980D03*
D38*
X678180Y982980D01*
X680720Y985520D01*
X673100Y993140D01*
X652780Y1099820D02*
X566420Y1099820D01*
X541020Y1074420D01*
D34*
X541020Y1074420D03*
D38*
X673100Y1079500D02*
X673100Y993140D01*
X673100Y1079500D02*
X652780Y1099820D01*
D34*
X645160Y1026160D03*
D37*
X645160Y975360D01*
X635000Y965200D01*
D34*
X368300Y965200D03*
D37*
X635000Y965200D01*
D34*
X269240Y873760D03*
X309982Y916254D03*
X256540Y1005840D03*
D39*
X490220Y1005840D01*
X518160Y977900D01*
D34*
X518160Y977900D03*
D37*
X635000Y821345D02*
X635000Y812800D01*
X396240Y853440D02*
X396240Y896620D01*
D34*
X396240Y896620D03*
D37*
X613065Y843280D02*
X635000Y821345D01*
X613065Y843280D02*
X406400Y843280D01*
X396240Y853440D01*
X495300Y779780D02*
X538480Y779780D01*
X396240Y810260D02*
X386080Y820420D01*
X386080Y883920D01*
D34*
X386080Y883920D03*
D37*
X464820Y810260D02*
X495300Y779780D01*
X464820Y810260D02*
X396240Y810260D01*
X401320Y828040D02*
X612140Y828040D01*
X401320Y828040D02*
X396240Y833120D01*
X396240Y835660D01*
D34*
X396240Y835660D03*
D37*
X344678Y885160D02*
X334518Y875000D01*
X334518Y865378D01*
X327660Y858520D01*
X327660Y835891D01*
X307340Y822960D01*
X175260Y822960D01*
X144780Y792480D01*
X144780Y739140D01*
X160020Y723900D01*
D34*
X344678Y885160D03*
X312420Y838200D03*
D37*
X170180Y838200D01*
X144780Y812800D01*
X144780Y810260D01*
D34*
X144780Y810260D03*
X365760Y822960D03*
X365760Y883920D03*
D38*
X365760Y822960D01*
D37*
X375920Y797560D02*
X396240Y777240D01*
D34*
X375920Y896620D03*
D37*
X375920Y797560D01*
D34*
X2034540Y1813560D03*
X1986280Y1862993D03*
X1943100Y1813560D03*
X1894840Y1859280D03*
X1854200Y1808480D03*
X1805940Y1856740D03*
X1770380Y1808480D03*
X1722120Y1859280D03*
X1681480Y1808480D03*
X1630680Y1856740D03*
X1592580Y1813560D03*
X1541780Y1854200D03*
X1508760Y1811020D03*
X1460500Y1856740D03*
X1417320Y1813560D03*
X1369060Y1859280D03*
X1333500Y1816100D03*
X1280160Y1854200D03*
X1242060Y1811020D03*
X1196340Y1856740D03*
X1160780Y1813560D03*
X1107440Y1854200D03*
X1064260Y1808480D03*
X1043940Y1831340D03*
X1122680Y1788160D03*
X1084580Y1767840D03*
X1981200Y1805940D03*
X1894840Y1808480D03*
X1793240Y1793240D03*
X1699260Y1795780D03*
X1605280Y1795780D03*
X1544320Y1803400D03*
X1460500Y1803400D03*
X1366520Y1803400D03*
X1254760Y1800860D03*
X1196340Y1811020D03*
X1076960Y1808480D03*
X1043940Y1783080D03*
X1051560Y1800860D03*
X2019300Y1861820D03*
X1938020Y1861820D03*
X1851660Y1861820D03*
X1767840Y1861820D03*
X1676400Y1862993D03*
X1590040Y1861820D03*
X1503680Y1860453D03*
X1417320Y1859280D03*
X1330960Y1859280D03*
X1242060Y1861820D03*
X1153160Y1859280D03*
X1066800Y1859280D03*
X1130300Y1846580D03*
X1135380Y1859280D03*
D40*
X1206500Y1800742D03*
D41*
X1203090Y1797332D01*
X1194262Y1797332D01*
X1153160Y1838434D01*
X1153160Y1859280D01*
D42*
X563245Y146368D03*
X650558Y146368D03*
X737870Y146368D03*
X825183Y146368D03*
X912495Y146368D03*
X999808Y146368D03*
X1087120Y146368D03*
X1174433Y146368D03*
X1261745Y146368D03*
X1349058Y146368D03*
X1436370Y146368D03*
X1523683Y146368D03*
D34*
X965200Y1084580D03*
X1188720Y934720D03*
X1041400Y1076960D03*
X1030565Y965608D03*
X1041400Y942340D03*
X1019948Y1064260D03*
X1038860Y1021080D03*
D43*
X1066800Y1021080D01*
X1112520Y1102360D02*
X1125220Y1115060D01*
X1112520Y1066800D02*
X1066800Y1021080D01*
X1112520Y1066800D02*
X1112520Y1102360D01*
X1117600Y1043940D02*
X1150620Y1043940D01*
X1158240Y1051560D02*
X1158240Y1069340D01*
X1158240Y1051560D02*
X1150620Y1043940D01*
X1117600Y1043940D02*
X1071880Y998220D01*
D34*
X1038860Y998220D03*
D43*
X1071880Y998220D01*
D44*
X2092452Y477266D02*
X2092452Y464312D01*
X2075180Y447040D01*
X1859280Y447040D01*
X1805940Y500380D01*
X1793240Y513080D01*
X1592580Y513080D01*
X1541780Y462280D01*
X1536700Y467360D01*
X1493520Y467360D01*
X1490980Y469900D01*
X1485900Y469900D01*
D34*
X1485900Y469900D03*
D44*
X1813560Y1028700D02*
X1836420Y1028700D01*
X1813560Y1028700D02*
X1811020Y1026160D01*
X1811020Y848360D02*
X1750060Y787400D01*
X1750060Y612140D01*
X1788160Y574040D01*
D34*
X1788160Y574040D03*
X1805940Y500380D03*
D44*
X1811020Y848360D02*
X1811020Y1026160D01*
X2457958Y1081278D02*
X2457958Y1094486D01*
X2457958Y1081278D02*
X2446020Y1069340D01*
X2344420Y1069340D01*
X2286000Y1010920D01*
D34*
X2286000Y1010920D03*
D44*
X1849120Y1016000D02*
X1836420Y1028700D01*
X1307846Y474472D02*
X1307846Y467614D01*
X1323340Y452120D01*
X1546860Y452120D01*
X1597660Y502920D01*
X1785620Y502920D01*
X1851660Y436880D01*
X2100580Y436880D01*
X2120900Y457200D01*
X2117852Y460248D01*
X2117852Y477266D01*
X1785620Y492760D02*
X1785620Y502920D01*
D34*
X1785620Y492760D03*
X1795780Y604520D03*
D44*
X1889760Y698500D01*
X1889760Y949960D01*
X1887220Y952500D01*
D34*
X1887220Y952500D03*
D44*
X2483358Y1080262D02*
X2483358Y1094486D01*
X2483358Y1080262D02*
X2484120Y1079500D01*
X2466340Y1061720D01*
X2354323Y1061720D02*
X2250183Y957580D01*
X2354323Y1061720D02*
X2466340Y1061720D01*
X1892300Y957580D02*
X1887220Y952500D01*
X1892300Y957580D02*
X2250183Y957580D01*
D34*
X2059940Y525780D03*
D44*
X2062480Y525780D01*
X2094738Y525780D01*
X2117852Y502666D01*
X1831340Y1076960D02*
X1737360Y1076960D01*
X1711960Y1051560D01*
X1711960Y558800D01*
X1734820Y535940D01*
X2052320Y535940D01*
X2062480Y525780D01*
X2039620Y1031240D02*
X2009140Y1061720D01*
X2039620Y1031240D02*
X2105660Y1031240D01*
X2225040Y1150620D02*
X2468880Y1150620D01*
X2483358Y1136142D01*
X2483358Y1119886D01*
X2009140Y1061720D02*
X1894840Y1061720D01*
X2105660Y1031240D02*
X2225040Y1150620D01*
X1894840Y1061720D02*
X1874520Y1041400D01*
X1838960Y1076960D02*
X1831340Y1076960D01*
X1838960Y1076960D02*
X1874520Y1041400D01*
D45*
X1485900Y640080D02*
X1470660Y640080D01*
X1452880Y622300D01*
X1452880Y581660D01*
X1691640Y568960D02*
X1699260Y576580D01*
X1699260Y1061720D01*
D34*
X1925320Y1079500D03*
D45*
X1452880Y581660D02*
X1465580Y568960D01*
X1691640Y568960D01*
X1699260Y1061720D02*
X1729740Y1092200D01*
X1912620Y1092200D02*
X1925320Y1079500D01*
X1912620Y1092200D02*
X1729740Y1092200D01*
X2037080Y901700D02*
X2296160Y642620D01*
X2037080Y901700D02*
X2019300Y901700D01*
D34*
X2019300Y901700D03*
X1993900Y988060D03*
X1828800Y876300D03*
X1993900Y896620D03*
D45*
X2321560Y642620D02*
X2344420Y665480D01*
X2344420Y840740D01*
X2334260Y850900D02*
X2115820Y850900D01*
X2049780Y916940D01*
X2014220Y916940D01*
X1993900Y896620D01*
X2334260Y850900D02*
X2344420Y840740D01*
X2334260Y850900D02*
X2329180Y855980D01*
X2278380Y855980D01*
X2258060Y876300D01*
X2258060Y955040D02*
X2352040Y1049020D01*
X2611120Y1049020D01*
X2258060Y955040D02*
X2258060Y876300D01*
X2611120Y1049020D02*
X2672080Y1109980D01*
X2672080Y1155700D02*
X2702560Y1186180D01*
X2702560Y1247140D01*
X2689860Y1259840D01*
X2687320Y1259840D01*
X2672080Y1155700D02*
X2672080Y1109980D01*
D34*
X1795780Y777240D03*
X1871980Y1079500D03*
D45*
X1907540Y617220D02*
X2296160Y617220D01*
X1907540Y617220D02*
X1884680Y594360D01*
X1884680Y596900D01*
D34*
X1884680Y596900D03*
X1831340Y911860D03*
X1912620Y929640D03*
D45*
X2321560Y617220D02*
X2326640Y617220D01*
X2346960Y596900D01*
X2346960Y576580D01*
X2334260Y563880D01*
X1991360Y563880D01*
X1976120Y579120D01*
X1861820Y579120D01*
X1838960Y556260D01*
X1744980Y556260D01*
X1732280Y568960D01*
X1732280Y604520D01*
D34*
X1732280Y604520D03*
D44*
X2674495Y1221615D02*
X2687320Y1234440D01*
X2674495Y1221615D02*
X2644265Y1221740D01*
X2611245Y1188720D01*
X2184400Y1188720D01*
D34*
X2047240Y1051560D03*
X2034540Y982980D03*
D44*
X2047240Y1051560D02*
X2184400Y1188720D01*
D34*
X1968500Y556260D03*
X2004060Y1003300D03*
X1950720Y1013460D03*
X1750060Y576580D03*
X1758950Y486410D03*
X1755140Y457200D03*
D45*
X1767840Y469900D01*
X1795780Y469900D01*
D34*
X1795780Y469900D03*
X1826260Y579120D03*
X1844040Y500380D03*
D45*
X2330958Y1071118D02*
X2330958Y1094486D01*
X2330958Y1071118D02*
X2232660Y972820D01*
D46*
X1864360Y972820D03*
D45*
X2232660Y972820D01*
D34*
X1480820Y1833880D03*
D37*
X1480820Y1734820D01*
X1468120Y1722120D01*
X1249680Y1722120D01*
X1236980Y1734820D01*
D34*
X1391920Y1833880D03*
D37*
X1391920Y1772920D01*
X1366520Y1747520D01*
X1249680Y1747520D01*
X1236980Y1760220D01*
D34*
X1305560Y1836420D03*
D37*
X1244600Y1775460D01*
X1226820Y1775460D01*
X1224280Y1772920D01*
X1224280Y1747520D02*
X1211580Y1734820D01*
X1224280Y1747520D02*
X1224280Y1772920D01*
D34*
X1219200Y1836420D03*
D37*
X1219200Y1783080D01*
X1211580Y1775460D01*
X1211580Y1760220D01*
D34*
X1076960Y1828800D03*
D37*
X1122680Y1828800D01*
X1186180Y1765300D01*
X1186180Y1760220D01*
D34*
X269240Y632940D03*
D44*
X264160Y627860D01*
X264160Y612140D01*
D37*
X403860Y581660D02*
X436880Y548640D01*
X403860Y581660D02*
X403860Y604520D01*
D34*
X403860Y604520D03*
D44*
X304800Y553720D02*
X292100Y566420D01*
X292100Y571500D01*
X304800Y538480D02*
X312420Y530860D01*
X467360Y530860D01*
X500380Y563880D02*
X525780Y563880D01*
X533400Y556260D01*
X533400Y548640D01*
X304800Y553720D02*
X304800Y538480D01*
X467360Y530860D02*
X500380Y563880D01*
X317500Y571500D02*
X317500Y581660D01*
X325120Y589280D01*
X375920Y589280D02*
X401320Y614680D01*
X452120Y614680D01*
X584200Y574040D02*
X591820Y566420D01*
X612140Y566420D01*
X617220Y561340D01*
X617220Y548640D01*
X375920Y589280D02*
X325120Y589280D01*
X452120Y614680D02*
X492760Y574040D01*
X584200Y574040D01*
D34*
X436880Y878840D03*
D38*
X436880Y883920D01*
X368300Y952500D01*
X353060Y952500D01*
X335280Y934720D01*
X335280Y906780D01*
X344482Y897578D01*
X347718Y897578D01*
X353060Y892236D01*
X353060Y868680D01*
X334998Y850618D01*
X334998Y741398D01*
X314960Y721360D02*
X314960Y662940D01*
X314960Y721360D02*
X334998Y741398D01*
X314960Y662940D02*
X299720Y647700D01*
X299720Y635000D01*
X309880Y624840D01*
X355600Y624840D01*
X365760Y614680D01*
X365760Y612140D01*
X353060Y599440D01*
X309880Y599440D01*
X304800Y594360D01*
X304800Y566420D02*
X312420Y558800D01*
X358140Y558800D01*
X368300Y568960D01*
X368300Y571500D01*
X304800Y566420D02*
X304800Y594360D01*
D44*
X292100Y533400D02*
X304800Y520700D01*
X480060Y520700D01*
X508000Y548640D01*
X292100Y546100D02*
X292100Y533400D01*
D34*
X83820Y929640D03*
X331361Y717659D03*
X693420Y701040D03*
X576580Y703580D03*
X449580Y703580D03*
X217198Y701040D03*
X101628Y698500D03*
X69562Y656878D03*
D37*
X67022Y654338D01*
X67022Y641638D01*
X80160Y628500D02*
X80160Y624840D01*
X80160Y628500D02*
X67022Y641638D01*
D34*
X80160Y624840D03*
X99060Y642620D03*
X124460Y891540D03*
X111760Y596900D03*
X100261Y781340D03*
X102008Y817514D03*
X251460Y810260D03*
X215721Y778943D03*
X327660Y787400D03*
X347980Y637540D03*
X447040Y641740D03*
X445049Y802668D03*
X578206Y785978D03*
X603971Y637568D03*
X685876Y643687D03*
X690778Y786359D03*
X652540Y717160D03*
X261544Y651078D03*
X234569Y657606D03*
X523240Y787400D03*
D47*
X255016Y657606D02*
X234569Y657606D01*
X255016Y657606D02*
X261544Y651078D01*
D34*
X132080Y673100D03*
D37*
X134620Y673100D01*
X160020Y698500D01*
D34*
X147320Y596900D03*
D37*
X147320Y604520D01*
X109220Y642620D01*
X109220Y777240D01*
X114300Y782320D01*
D34*
X111760Y784860D03*
D37*
X114300Y782320D01*
X111760Y828040D02*
X106680Y833120D01*
X111760Y828040D02*
X111760Y784860D01*
D34*
X106680Y833120D03*
X76200Y764540D03*
D37*
X78740Y764540D01*
X78740Y728980D01*
X83820Y723900D01*
X83820Y706120D01*
D34*
X83820Y706120D03*
X180340Y632460D03*
D37*
X198120Y614680D01*
X213360Y614680D01*
X220980Y622300D01*
X220980Y640080D01*
X213360Y647700D01*
D34*
X213360Y647700D03*
X200660Y624840D03*
D37*
X193040Y632460D02*
X193040Y708660D01*
X193040Y632460D02*
X200660Y624840D01*
X200660Y716280D02*
X203200Y716280D01*
X200660Y716280D02*
X193040Y708660D01*
D34*
X203200Y716280D03*
X201168Y636270D03*
D37*
X203200Y638302D02*
X203200Y701040D01*
X203200Y638302D02*
X201168Y636270D01*
X211633Y709473D02*
X229921Y709473D01*
X211633Y709473D02*
X203200Y701040D01*
D34*
X229921Y709473D03*
X231140Y596900D03*
D37*
X204125Y596900D01*
X185766Y588010D02*
X181956Y591820D01*
X180340Y591820D01*
X195235Y588010D02*
X204125Y596900D01*
X195235Y588010D02*
X185766Y588010D01*
X180340Y593436D02*
X167640Y606136D01*
X167640Y660400D01*
X175260Y668020D01*
X175260Y751840D01*
X180340Y593436D02*
X180340Y591820D01*
X175260Y751840D02*
X182880Y759460D01*
X182880Y769620D01*
D34*
X182880Y769620D03*
X210820Y805180D03*
D37*
X199136Y793496D01*
X199136Y754634D01*
X198374Y753364D01*
X196596Y753336D01*
D34*
X199136Y754634D03*
X232197Y727775D03*
D37*
X196596Y753336D02*
X187170Y753336D01*
X180594Y746760D01*
X180594Y741426D01*
X187960Y734060D01*
X225911Y734060D01*
X232197Y727775D01*
D34*
X254000Y779780D03*
D37*
X269240Y764540D01*
X269240Y743915D01*
X243831Y718506D01*
X218754Y718506D01*
X210931Y726329D01*
D34*
X210931Y726329D03*
X251460Y741680D03*
D37*
X195834Y741680D01*
X191770Y745744D01*
D34*
X191770Y745744D03*
X368300Y681510D03*
D38*
X358140Y691670D01*
X358140Y703580D01*
X350520Y711200D01*
X335280Y711200D01*
X330200Y706120D01*
D34*
X330200Y706120D03*
X347980Y701040D03*
D38*
X347980Y675640D01*
X309880Y637540D01*
D34*
X309880Y637540D03*
X269240Y657860D03*
D38*
X314960Y612140D01*
X347980Y612140D01*
D34*
X347980Y612140D03*
X391160Y617220D03*
D38*
X391160Y662940D01*
X396240Y668020D01*
X396240Y695960D01*
X373380Y718820D02*
X345440Y718820D01*
D34*
X345440Y718820D03*
D38*
X373380Y718820D02*
X396240Y695960D01*
D34*
X386080Y759460D03*
D38*
X379476Y752856D01*
X376371Y752856D01*
X355600Y732085D01*
X355600Y728980D01*
D34*
X355600Y728980D03*
X358140Y792480D03*
D38*
X386080Y764540D01*
X386080Y759460D01*
D34*
X431800Y673100D03*
D37*
X474980Y629920D01*
X474980Y627380D01*
D34*
X474980Y627380D03*
X520700Y650240D03*
D37*
X500380Y670560D01*
X485140Y670560D01*
X467360Y688340D01*
X467360Y708660D01*
D34*
X467360Y708660D03*
X500380Y716280D03*
D37*
X477520Y716280D01*
X464820Y728980D01*
D34*
X464820Y728980D03*
X426720Y792480D03*
D37*
X434340Y784860D01*
X434340Y728980D01*
D34*
X434340Y728980D03*
X459740Y795020D03*
D37*
X441960Y795020D01*
X434340Y802640D01*
X408940Y802640D01*
X403860Y797560D01*
X406400Y797560D01*
D34*
X406400Y797560D03*
X556260Y668020D03*
D37*
X546100Y657860D01*
X546100Y609600D01*
X561340Y594360D01*
D34*
X561340Y594360D03*
X530860Y624840D03*
D37*
X530860Y655320D01*
X556260Y680720D01*
X563880Y673100D01*
X591820Y673100D01*
X591693Y672973D01*
D34*
X591693Y672973D03*
X614680Y655320D03*
D37*
X604520Y645160D01*
D34*
X556260Y645160D03*
D37*
X604520Y645160D01*
D34*
X596900Y576580D03*
D37*
X596900Y617220D01*
X627380Y647700D01*
X627380Y668020D01*
D34*
X589280Y706120D03*
D37*
X627380Y668020D01*
D34*
X617220Y711200D03*
D37*
X599440Y711200D01*
X589280Y721360D01*
X589280Y723900D01*
D34*
X589280Y723900D03*
X559272Y724154D03*
D37*
X546826Y736600D01*
X528320Y736600D01*
X525780Y739140D01*
X525780Y764540D01*
X525671Y764649D01*
X525671Y766971D01*
D34*
X525671Y766971D03*
X657860Y604520D03*
D37*
X657860Y668020D01*
X662940Y673100D01*
X662912Y673100D01*
D34*
X662912Y673100D03*
X706120Y721360D03*
D38*
X706120Y604520D01*
X662940Y561340D01*
D34*
X662940Y561340D03*
X718820Y723900D03*
D38*
X718820Y596900D01*
X706120Y584200D01*
D34*
X706120Y584200D03*
X317500Y755782D03*
D38*
X309880Y763402D01*
X309880Y800100D01*
D34*
X309880Y800100D03*
X673100Y728980D03*
D37*
X673100Y762000D01*
X647700Y787400D01*
D35*
X448980Y1398780D03*
X464220Y1342900D03*
X624840Y1501140D03*
X1425880Y1386650D03*
X1468120Y1462322D03*
D34*
X792480Y1381760D03*
X1104900Y1356360D03*
X1104900Y1285240D03*
X1112520Y1262380D03*
X1211580Y1336040D03*
X1178560Y1506220D03*
X1140460Y1539240D03*
X1104900Y1544320D03*
X1013460Y1483360D03*
X1049020Y1435100D03*
X1003300Y1333500D03*
X1160780Y1419860D03*
X1117722Y1465580D03*
X967740Y1295400D03*
X812800Y1676400D03*
X802640Y1612900D03*
X563880Y1597660D03*
X1201420Y965200D03*
D40*
X2189480Y1010920D03*
X2144685Y1096355D03*
X1173480Y972820D03*
D48*
X1193800Y993140D01*
X1414780Y993140D02*
X1430020Y977900D01*
X1564640Y977900D01*
X1610360Y1023620D02*
X1648460Y1023620D01*
X1414780Y993140D02*
X1193800Y993140D01*
X1564640Y977900D02*
X1610360Y1023620D01*
D36*
X1854200Y215900D03*
X1844040Y335280D03*
X2217420Y317500D03*
X2349500Y302260D03*
X2395474Y261926D03*
X2357120Y175260D03*
X2169160Y183336D03*
X2227580Y246380D03*
X1755140Y335280D03*
X2186940Y330200D03*
X2288540Y307340D03*
X2400300Y320040D03*
X2420061Y260425D03*
X2387600Y180002D03*
X2143760Y254000D03*
X2438400Y208280D03*
D41*
X2415878Y208280D01*
X2387600Y180002D01*
D36*
X2336800Y223520D03*
X1917700Y213360D03*
D34*
X1991360Y220980D03*
D35*
X2326437Y342900D03*
D36*
X2281058Y134504D03*
X2138680Y198120D03*
D34*
X2047240Y210820D03*
D36*
X2326640Y144780D03*
D38*
X1871980Y332740D02*
X1841500Y302260D01*
X1838960Y302260D01*
D36*
X1838960Y302260D03*
D34*
X2250440Y299720D03*
D38*
X2242820Y292100D01*
X1930400Y332740D02*
X1871980Y332740D01*
X1971040Y292100D02*
X2242820Y292100D01*
X1971040Y292100D02*
X1930400Y332740D01*
D36*
X2274368Y300799D03*
D38*
X2252969Y279400D01*
X1968500Y279400D02*
X1950720Y261620D01*
X1788160Y261620D01*
D34*
X1775460Y274320D03*
D38*
X1968500Y279400D02*
X2252969Y279400D01*
X1788160Y261620D02*
X1775460Y274320D01*
D36*
X2349500Y137160D03*
D38*
X2327656Y159004D01*
D36*
X2327656Y184658D03*
D38*
X2327656Y159004D01*
D36*
X2395220Y152400D03*
D38*
X2395220Y154940D01*
X2362200Y187960D01*
X2346960Y187960D01*
X2344420Y185420D01*
D36*
X2344420Y185420D03*
D34*
X2242820Y345440D03*
D38*
X1882140Y345440D01*
D34*
X1882140Y345440D03*
D36*
X2331720Y304800D03*
D38*
X2344420Y292100D01*
X2369820Y292100D02*
X2382520Y304800D01*
X2489200Y304800D01*
X2369820Y292100D02*
X2344420Y292100D01*
X2489200Y304800D02*
X2501900Y292100D01*
D36*
X2329180Y291950D03*
D38*
X2329330Y291950D01*
X2336800Y284480D01*
X2458720Y284480D01*
X2476500Y266700D01*
D36*
X2318258Y280416D03*
D38*
X2323084Y280416D01*
X2331720Y271780D01*
X2377440Y271780D01*
X2379980Y274320D01*
X2425700Y274320D01*
X2428524Y271496D01*
X2437384Y271496D01*
X2446528Y262128D01*
X2454656Y254000D01*
X2489200Y254000D01*
X2501900Y266700D01*
D36*
X2293620Y289560D03*
D38*
X2293620Y287020D01*
X2331720Y248920D01*
X2440940Y248920D02*
X2448560Y241300D01*
X2440940Y248920D02*
X2331720Y248920D01*
X2448560Y241300D02*
X2476500Y241300D01*
X2446020Y228600D02*
X2435860Y238760D01*
X2324100Y238760D01*
D36*
X2291080Y271780D03*
D38*
X2446020Y228600D02*
X2489200Y228600D01*
X2324100Y238760D02*
X2291080Y271780D01*
X2489200Y228600D02*
X2501900Y241300D01*
D44*
X1172464Y91440D02*
X1169391Y87599D01*
X1172464Y91440D02*
X1379220Y91440D01*
X1391920Y104140D01*
X1392174Y181356D01*
X1366520Y205740D01*
X1104652Y22860D02*
X1102360Y22860D01*
X1104652Y22860D02*
X1169391Y87599D01*
D35*
X2336800Y200660D03*
D38*
X2306320Y200660D01*
X2217420Y111760D02*
X2194560Y111760D01*
D35*
X2194560Y111760D03*
D38*
X2217420Y111760D02*
X2306320Y200660D01*
D44*
X1043940Y172720D02*
X1043940Y121920D01*
X1043940Y172720D02*
X1010920Y205740D01*
X1102360Y63500D02*
X1102360Y48260D01*
X1102360Y63500D02*
X1043940Y121920D01*
X891540Y99060D02*
X868680Y121920D01*
X868680Y177800D01*
X896620Y205740D01*
X891540Y99060D02*
X1043940Y99060D01*
X1076960Y66040D02*
X1076960Y48260D01*
X1076960Y66040D02*
X1043940Y99060D01*
X1038860Y83820D02*
X817880Y83820D01*
X782320Y119380D01*
X782320Y205740D01*
X1064260Y58420D02*
X1064260Y33020D01*
X1074420Y22860D01*
X1076960Y22860D01*
X1064260Y58420D02*
X1038860Y83820D01*
D35*
X2258060Y269240D03*
D38*
X2090420Y269240D01*
X2085340Y264160D01*
D35*
X2242820Y260902D03*
D38*
X2168442Y260902D01*
X2151380Y243840D01*
X2110740Y243840D01*
X2105660Y248920D01*
X2067560Y248920D01*
X2059940Y256540D01*
X2059940Y264160D01*
D35*
X1386840Y1371600D03*
D34*
X525780Y1328420D03*
X845820Y1569720D03*
X911860Y1597660D03*
X782320Y1407160D03*
X1033780Y1343660D03*
X1120140Y1303020D03*
X1455420Y1600200D03*
X1168400Y1475740D03*
X1107440Y1473200D03*
X1038860Y1483360D03*
X1178560Y1343660D03*
X1130300Y1452880D03*
D47*
X1107440Y1457960D02*
X1107440Y1473200D01*
X1112520Y1452880D02*
X1129376Y1452880D01*
X1129838Y1453342D01*
X1112520Y1452880D02*
X1107440Y1457960D01*
D49*
X1129376Y1452880D02*
X1130300Y1452880D01*
D41*
X758700Y1416560D02*
X669960Y1416560D01*
X758700Y1416560D02*
X816610Y1474470D01*
X822960Y1480820D01*
D34*
X1160780Y1407160D03*
D47*
X1117600Y1407160D01*
X1102360Y1422400D01*
X1000760Y1422400D01*
X995680Y1417320D01*
X955040Y1417320D01*
X932180Y1440180D01*
X850900Y1440180D01*
X816610Y1474470D01*
D41*
X822960Y1480820D02*
X822960Y1498600D01*
X797560Y1524000D02*
X797560Y1534160D01*
X670560Y1488440D02*
X670560Y1445260D01*
X669960Y1444660D01*
X669960Y1441960D01*
X792480Y1539240D02*
X797560Y1534160D01*
X792480Y1539240D02*
X721360Y1539240D01*
X670560Y1488440D01*
D34*
X1233170Y1416050D03*
D43*
X187960Y1437640D02*
X167640Y1437640D01*
X160020Y1430020D01*
X160020Y1325880D01*
X167640Y1318260D02*
X185420Y1318260D01*
X167640Y1318260D02*
X160020Y1325880D01*
D34*
X558800Y1300480D03*
D47*
X854147Y1537970D02*
X855417Y1536700D01*
X854147Y1537970D02*
X811530Y1537970D01*
X797560Y1524000D01*
X902354Y1536700D02*
X909692Y1529362D01*
X939518Y1529362D01*
X902354Y1536700D02*
X855417Y1536700D01*
X1211990Y1437230D02*
X1233170Y1416050D01*
X1211990Y1437230D02*
X1196595Y1437230D01*
X1170785Y1463040D01*
X1061720Y1463040D02*
X1005840Y1463040D01*
X1061720Y1463040D02*
X1089660Y1435100D01*
X1127760Y1435100D01*
X1155700Y1463040D01*
X1170785Y1463040D01*
X1005840Y1463040D02*
X939518Y1529362D01*
D40*
X911860Y1417320D03*
D38*
X911860Y1369060D01*
X896620Y1353820D01*
X886460Y1353820D01*
D40*
X886460Y1353820D03*
X1247140Y965200D03*
D35*
X540420Y1365760D03*
D34*
X746760Y1681480D03*
X769620Y1641828D03*
X886460Y1681480D03*
X919480Y1640840D03*
X857250Y1672590D03*
X175548Y188248D03*
D37*
X173325Y190472D02*
X170180Y193040D01*
X154940Y193040D01*
X152428Y190528D01*
X173325Y190472D02*
X175548Y188248D01*
X152428Y190528D02*
X152428Y173172D01*
X180820Y144780D01*
D34*
X162560Y182880D03*
D37*
X185420Y160020D01*
X200660Y160020D01*
X203200Y157480D01*
X203200Y147160D02*
X200820Y144780D01*
X203200Y147160D02*
X203200Y157480D01*
D35*
X289440Y243960D03*
X172805Y256625D03*
X209848Y194783D03*
X96520Y320040D03*
X363220Y279400D03*
X246380Y276860D03*
X195580Y276860D03*
X360680Y302260D03*
D34*
X230830Y256910D03*
D35*
X368300Y264160D03*
D44*
X381000Y251460D01*
X381000Y220980D02*
X292160Y220980D01*
X256230Y256910D01*
X230830Y256910D01*
X381000Y251460D02*
X381000Y220980D01*
D34*
X2224540Y2341880D03*
X2148340Y2331720D03*
X2186440Y2298700D03*
D39*
X2176280Y2308860D01*
X2176280Y2344420D01*
D35*
X365760Y231140D03*
D44*
X194056Y319024D02*
X181610Y331470D01*
X365760Y233680D02*
X365760Y231140D01*
X365760Y233680D02*
X280416Y319024D01*
X194056Y319024D01*
D35*
X368300Y248920D03*
D44*
X368300Y246380D01*
X269240Y345440D01*
X215900Y345440D01*
X207010Y336550D02*
X207010Y331470D01*
X207010Y336550D02*
X215900Y345440D01*
D35*
X312420Y243840D03*
D44*
X307340Y243840D01*
X264160Y287020D02*
X223520Y287020D01*
X219710Y290830D01*
X219710Y306070D01*
X264160Y287020D02*
X307340Y243840D01*
D35*
X271780Y220980D03*
D44*
X248920Y220980D02*
X228600Y241300D01*
D35*
X228600Y241300D03*
D44*
X248920Y220980D02*
X271780Y220980D01*
D35*
X363220Y332740D03*
X411480Y274320D03*
D43*
X396240Y289560D01*
X396240Y309880D01*
X373380Y332740D01*
X363220Y332740D01*
D49*
X194310Y306070D02*
X191179Y306070D01*
D40*
X494540Y1579880D03*
D38*
X1264920Y1259840D02*
X1280160Y1275080D01*
X1264920Y1259840D02*
X1228880Y1259840D01*
X1280160Y1275080D02*
X1409700Y1275080D01*
X1422400Y1287780D01*
X1077120Y1219200D02*
X1054260Y1242060D01*
X1054260Y1249680D01*
X1077120Y1219200D02*
X1478280Y1219200D01*
X1498600Y1239520D02*
X1498600Y1262380D01*
X1498600Y1239520D02*
X1478280Y1219200D01*
X1062200Y1214120D02*
X1034260Y1242060D01*
X1034260Y1249680D01*
X1062200Y1214120D02*
X1483360Y1214120D01*
X1515110Y1245870D01*
X1515110Y1271270D02*
X1498600Y1287780D01*
X1515110Y1271270D02*
X1515110Y1245870D01*
D35*
X1155700Y1353820D03*
D38*
X1211580Y1353820D01*
X1249680Y1315720D01*
X1445260Y1315720D01*
X1473200Y1287780D01*
X1442974Y1229614D02*
X1114326Y1229614D01*
X1094260Y1249680D01*
X1442974Y1229614D02*
X1460500Y1247140D01*
X1460500Y1275080D01*
X1473200Y1287780D01*
X1092040Y1224280D02*
X1074260Y1242060D01*
X1074260Y1249680D01*
X1092040Y1224280D02*
X1457960Y1224280D01*
X1473200Y1239520D02*
X1473200Y1262380D01*
X1473200Y1239520D02*
X1457960Y1224280D01*
D35*
X1056640Y1404620D03*
D38*
X1056640Y1338580D01*
X1132840Y1234440D02*
X1379220Y1234440D01*
X1397000Y1252220D02*
X1397000Y1262380D01*
X1397000Y1252220D02*
X1379220Y1234440D01*
X1094740Y1300480D02*
X1056640Y1338580D01*
X1094740Y1300480D02*
X1102360Y1300480D01*
X1120140Y1285240D01*
X1120140Y1247140D01*
X1132840Y1234440D01*
X1039020Y1404620D02*
X914560Y1280160D01*
X914560Y1249680D01*
X1039020Y1404620D02*
X1056640Y1404620D01*
X1272540Y1305560D02*
X1381760Y1305560D01*
X1272540Y1305560D02*
X1259840Y1292860D01*
X1181100Y1292860D01*
X1087120Y1386840D01*
X1082040Y1386840D01*
D35*
X1082040Y1386840D03*
D38*
X1071880Y1414780D02*
X1041400Y1414780D01*
X1071880Y1414780D02*
X1082040Y1404620D01*
X1082040Y1386840D01*
X1041400Y1414780D02*
X894560Y1267940D01*
X894560Y1249680D01*
X1397000Y1287780D02*
X1397000Y1290320D01*
X1381760Y1305560D01*
D35*
X1087120Y1366520D03*
D38*
X1089660Y1363980D01*
X1089660Y1356157D01*
X1163983Y1287780D01*
X1267460Y1287780D01*
X1280160Y1300480D01*
X1363980Y1300480D01*
X1008163Y1356360D02*
X954560Y1302758D01*
X954560Y1249680D01*
X1008163Y1356360D02*
X1041400Y1356360D01*
X1045101Y1352659D02*
X1045101Y1349901D01*
X1045101Y1352659D02*
X1041400Y1356360D01*
D34*
X1045101Y1349901D03*
D38*
X1371600Y1292860D02*
X1371600Y1287780D01*
X1371600Y1292860D02*
X1363980Y1300480D01*
D35*
X1066800Y1371600D03*
D38*
X1139312Y1250046D02*
X1150102Y1239520D01*
X1139312Y1250046D02*
X1140760Y1297640D01*
X1122680Y1315720D01*
X1100240Y1315720D01*
X1079500Y1336460D01*
X1079500Y1358900D02*
X1066800Y1371600D01*
X1079500Y1358900D02*
X1079500Y1336460D01*
X1150102Y1239520D02*
X1353820Y1239520D01*
X1371600Y1257300D02*
X1371600Y1262380D01*
X1371600Y1257300D02*
X1353820Y1239520D01*
X1010760Y1366520D02*
X934560Y1290320D01*
X934560Y1249680D01*
D34*
X1044222Y1366520D03*
D38*
X1010760Y1366520D01*
D34*
X802640Y2232660D03*
X896620Y1953260D03*
X1267460Y1958340D03*
X1303020Y2057400D03*
X1478280Y2098040D03*
X1638300Y2176780D03*
X1826260Y2225040D03*
X1988820Y2250440D03*
X535940Y2286000D03*
D45*
X960120Y2319720D02*
X1041400Y2238440D01*
X1041400Y1993900D02*
X1064260Y1971040D01*
X1351280Y1971040D01*
X1374140Y1993900D01*
X1460500Y1993900D01*
X1524411Y2057811D01*
X1524422Y2058998D01*
X1536700Y2072640D01*
X1653540Y2072640D01*
X1726692Y2145792D01*
X1730756Y2145792D01*
X1041400Y2238440D02*
X1041400Y1993900D01*
D34*
X1450340Y2306320D03*
D45*
X1450340Y2334260D01*
X1488440Y2372360D01*
X1955800Y2372360D01*
X1983740Y2344420D01*
X1983740Y2280920D01*
X1935480Y2204720D02*
X1935480Y2141220D01*
X1933702Y2139442D02*
X1933702Y2136394D01*
X1933702Y2139442D02*
X1935480Y2141220D01*
X1960880Y2258060D02*
X1983740Y2280920D01*
X1960880Y2258060D02*
X1960880Y2230120D01*
X1935480Y2204720D01*
D38*
X934720Y2319720D02*
X885506Y2270506D01*
X879602Y2270506D01*
X947420Y2332420D02*
X934720Y2345120D01*
X947420Y2332420D02*
X947420Y2308860D01*
X911860Y2273300D01*
X895350Y2122170D02*
X876808Y2122170D01*
X911860Y2138680D02*
X911860Y2273300D01*
X911860Y2138680D02*
X895350Y2122170D01*
X896620Y2329880D02*
X909320Y2342580D01*
X909320Y2345120D01*
X896620Y2329880D02*
X896620Y2306320D01*
X881380Y2291080D01*
X871220Y2291080D01*
X825246Y2245106D01*
X825246Y2196084D01*
X883920Y2345120D02*
X869380Y2359660D01*
X521124Y2359660D02*
X518500Y2357036D01*
X622723Y2359660D02*
X869380Y2359660D01*
X622723Y2359660D02*
X604943Y2374900D01*
X571500Y2374900D01*
X556260Y2359660D01*
X521124Y2359660D01*
D34*
X1056640Y2032000D03*
D38*
X1118616Y2032000D01*
X1123950Y2037334D01*
X871666Y2331974D02*
X858520Y2345120D01*
X871666Y2331974D02*
X889254Y2331974D01*
X896620Y2339340D01*
X896620Y2352040D02*
X904240Y2359660D01*
X1000760Y2359660D01*
X1148080Y2148840D02*
X1163574Y2148840D01*
X896620Y2339340D02*
X896620Y2352040D01*
X1000760Y2359660D02*
X1026160Y2334260D01*
X1026160Y2270760D01*
X1148080Y2148840D01*
D34*
X805180Y2092960D03*
D38*
X820420Y2077720D01*
X840740Y2077720D01*
D34*
X840740Y2077720D03*
D45*
X807720Y2296160D02*
X807720Y2319720D01*
X807720Y2296160D02*
X792480Y2280920D01*
X792480Y2181860D01*
X830580Y2100580D02*
X957580Y2100580D01*
X1026160Y2032000D01*
X1026160Y1988820D01*
X807720Y2166620D02*
X792480Y2181860D01*
X807720Y2166620D02*
X807720Y2123440D01*
X830580Y2100580D01*
X1026160Y1988820D02*
X1056640Y1958340D01*
D34*
X1148080Y1958340D03*
D45*
X1056640Y1958340D01*
D34*
X1226820Y2339340D03*
X1303020Y2156460D03*
X769620Y2369820D03*
D44*
X779780Y2379980D01*
X1061720Y2379980D01*
X1424940Y2204720D02*
X1434465Y2202815D01*
X1440180Y2197100D01*
D34*
X1440180Y2197100D03*
D44*
X1236980Y2204720D02*
X1061720Y2379980D01*
X1236980Y2204720D02*
X1424940Y2204720D01*
D34*
X784860Y2369820D03*
D45*
X1059180Y2369820D01*
X1473200Y2184400D02*
X1516380Y2141220D01*
X1524000Y2141220D01*
D34*
X1524000Y2141220D03*
D45*
X1244600Y2184400D02*
X1059180Y2369820D01*
X1244600Y2184400D02*
X1473200Y2184400D01*
D44*
X782320Y2294320D02*
X756920Y2319720D01*
X782320Y2294320D02*
X782320Y2179320D01*
X800100Y2161540D01*
X800100Y2118360D01*
X825500Y2092960D01*
X952500Y2092960D01*
X1016254Y2029206D02*
X1016254Y1973069D01*
X1043683Y1945640D01*
X1016254Y2029206D02*
X952500Y2092960D01*
X1633220Y1945640D02*
X1755140Y2067560D01*
X1755140Y2222500D01*
X1744980Y2232660D01*
X1737360Y2232660D01*
D34*
X1737360Y2232660D03*
D44*
X1633220Y1945640D02*
X1043683Y1945640D01*
D41*
X1912620Y2249100D02*
X1912620Y2263140D01*
X1902460Y2273300D01*
X1638300Y2273300D01*
X1468120Y2207260D02*
X1417320Y2258060D01*
X1370420Y2258060D01*
X1366980Y2254620D01*
X1572260Y2207260D02*
X1638300Y2273300D01*
X1572260Y2207260D02*
X1468120Y2207260D01*
D38*
X1107930Y2373690D02*
X1090060Y2391560D01*
X1107930Y2373690D02*
X1110700Y2369820D01*
X1198880Y2344420D02*
X1198880Y2324100D01*
X1231900Y2291080D01*
X1277620Y2291080D01*
X1303020Y2265680D01*
X1303020Y2242380D01*
X1316180Y2229220D01*
X1173480Y2369820D02*
X1110700Y2369820D01*
X1173480Y2369820D02*
X1198880Y2344420D01*
D41*
X1937620Y2271160D02*
X1937620Y2249100D01*
X1937620Y2271160D02*
X1920240Y2288540D01*
X1630680Y2288540D01*
X1586160Y2244020D02*
X1566780Y2244020D01*
X1586160Y2244020D02*
X1630680Y2288540D01*
X1566780Y2258460D02*
X1566780Y2244020D01*
X1566780Y2258460D02*
X1549400Y2275840D01*
X1328420Y2275840D01*
X1316180Y2263600D02*
X1316180Y2254620D01*
X1316180Y2263600D02*
X1328420Y2275840D01*
D44*
X706120Y2319720D02*
X678880Y2319720D01*
X645160Y2286000D01*
X573420Y2270140D02*
X573420Y2258040D01*
X589280Y2286000D02*
X645160Y2286000D01*
X589280Y2286000D02*
X573420Y2270140D01*
D34*
X657860Y2265680D03*
D47*
X622300Y2230120D01*
X522620Y2240900D02*
X522620Y2258040D01*
X533400Y2230120D02*
X622300Y2230120D01*
X533400Y2230120D02*
X522620Y2240900D01*
D34*
X810260Y2270760D03*
X802640Y2189480D03*
X922020Y1587500D03*
D38*
X944880Y1606075D02*
X982185Y1643380D01*
X944880Y1606075D02*
X940595Y1606075D01*
X922020Y1587500D01*
X982185Y1643380D02*
X1455420Y1643380D01*
X1496060Y1602740D01*
X1496060Y1524000D01*
X1478280Y1506220D01*
X1475740Y1506220D01*
D34*
X1475740Y1506220D03*
X835660Y1645920D03*
D38*
X835660Y1595120D01*
X911860Y1577340D02*
X922020Y1587500D01*
X853440Y1577340D02*
X835660Y1595120D01*
X853440Y1577340D02*
X911860Y1577340D01*
X957580Y1648460D02*
X1457960Y1648460D01*
X1501140Y1605280D01*
X1501140Y1501140D01*
X1496060Y1496060D01*
X1490980Y1496060D01*
D34*
X1490980Y1496060D03*
D38*
X957580Y1648460D02*
X919480Y1610360D01*
X894080Y1610360D01*
X889000Y1605280D01*
X886460Y1605280D01*
D34*
X886460Y1605280D03*
X1397000Y1516380D03*
D38*
X1346200Y1465580D01*
X1346200Y1432560D01*
D34*
X1346200Y1432560D03*
X980440Y1506220D03*
D39*
X990600Y1506220D01*
X993140Y1503680D01*
X1155700Y1503680D01*
X1203960Y1455420D01*
X1203332Y1454792D01*
X1203332Y1452442D01*
D34*
X1203332Y1452442D03*
X916940Y1546860D03*
D39*
X1092726Y1546860D01*
X1098794Y1552928D01*
X1162332Y1552928D01*
X1221740Y1493520D01*
D34*
X1221740Y1493520D03*
X1206500Y1473200D03*
D39*
X1196597Y1473200D01*
X1158751Y1511046D02*
X1082294Y1511046D01*
X1158751Y1511046D02*
X1196597Y1473200D01*
X913374Y1538252D02*
X904766Y1546860D01*
X913374Y1538252D02*
X1055088Y1538252D01*
X1082294Y1511046D01*
X798869Y1546860D02*
X796583Y1549146D01*
X708656Y1549146D01*
X798869Y1546860D02*
X904766Y1546860D01*
X708656Y1549146D02*
X566420Y1402080D01*
D45*
X289560Y1384300D02*
X246380Y1341120D01*
X246380Y1328420D01*
X210820Y1292860D01*
X185420Y1292860D01*
D39*
X548640Y1384300D02*
X566420Y1402080D01*
X548640Y1384300D02*
X289560Y1384300D01*
X187960Y1412240D02*
X558543Y1412240D01*
X702815Y1556512D02*
X799634Y1556512D01*
X702815Y1556512D02*
X558543Y1412240D01*
X1093203Y1560294D02*
X1170463Y1560294D01*
X1231646Y1499111D01*
X800678Y1555468D02*
X799634Y1556512D01*
X1088377Y1555468D02*
X1093203Y1560294D01*
X1088377Y1555468D02*
X800678Y1555468D01*
X1231646Y1499111D02*
X1231646Y1491252D01*
X1225306Y1484912D01*
X1212568Y1484912D01*
X1209040Y1488440D02*
X1206500Y1488440D01*
D34*
X1206500Y1488440D03*
D39*
X1209040Y1488440D02*
X1212568Y1484912D01*
D34*
X690880Y1564640D03*
D38*
X617220Y1638300D02*
X581660Y1638300D01*
D34*
X581660Y1638300D03*
D38*
X617220Y1638300D02*
X690880Y1564640D01*
D34*
X777240Y1460500D03*
D38*
X797560Y1480820D01*
X797560Y1498600D01*
D34*
X1046371Y1298049D03*
X1055261Y1312019D03*
X1066800Y1351562D03*
X988060Y1320800D03*
X1005840Y1524000D03*
X1036320Y1566616D03*
X928370Y1568450D03*
X922020Y1308100D03*
X909320Y1308100D03*
X904023Y1567398D03*
X899160Y1320800D03*
X1295400Y1346200D03*
D38*
X1300480Y1341120D02*
X1315720Y1341120D01*
X1300480Y1341120D02*
X1295400Y1346200D01*
X1315720Y1341120D02*
X1336040Y1361440D01*
X1336040Y1473200D01*
X1382344Y1519504D02*
X1382344Y1589049D01*
X1382344Y1519504D02*
X1336040Y1473200D01*
X1331214Y1364234D02*
X1318260Y1351280D01*
X1331214Y1364234D02*
X1331214Y1475199D01*
X1356944Y1610341D02*
X1356944Y1614449D01*
X1356944Y1610341D02*
X1370076Y1597209D01*
X1370076Y1514061D01*
X1331214Y1475199D01*
X1318260Y1351280D02*
X1308100Y1351280D01*
D34*
X1308100Y1351280D03*
D38*
X1356944Y1507754D02*
X1356944Y1589049D01*
X1356944Y1507754D02*
X1326388Y1477198D01*
X1326388Y1476248D01*
X1325880Y1475740D01*
X1325880Y1371600D01*
X1315829Y1361549D01*
X1315611Y1361549D01*
D34*
X1315611Y1361549D03*
D38*
X1343660Y1602334D02*
X1331544Y1614449D01*
X1321054Y1379474D02*
X1315720Y1374140D01*
X1321054Y1478689D02*
X1343660Y1501295D01*
X1321054Y1478689D02*
X1321054Y1379474D01*
X1343660Y1501295D02*
X1343660Y1602334D01*
X1315611Y1374249D02*
X1315720Y1374140D01*
D34*
X1315611Y1374249D03*
X1094740Y1460500D03*
X1094486Y1475740D03*
X1018540Y1566616D03*
X1033780Y1524000D03*
X1137920Y1468120D03*
D38*
X1080534Y1481854D02*
X1071880Y1475740D01*
X1130640Y1468120D02*
X1137920Y1468120D01*
X1130640Y1468120D02*
X1115682Y1483078D01*
X1091447Y1483078D01*
X1080534Y1481854D01*
X1071880Y1475740D02*
X1070211Y1474071D01*
D34*
X1070211Y1474071D03*
X1150366Y1430020D03*
X1152144Y1442720D03*
X1162304Y1449804D03*
X1140018Y1420085D03*
X2409960Y2344420D03*
X2333760Y2334260D03*
X2371860Y2301240D03*
D39*
X2361700Y2311400D01*
X2361700Y2346960D01*
D34*
X2222000Y2098040D03*
X2145800Y2087880D03*
X2183900Y2054860D03*
D39*
X2173740Y2065020D01*
X2173740Y2100580D01*
D34*
X2415040Y2098040D03*
X2338840Y2087880D03*
X2376940Y2054860D03*
D39*
X2366780Y2065020D01*
X2366780Y2100580D01*
D34*
X2227080Y1851660D03*
X2150880Y1841500D03*
X2188980Y1808480D03*
D39*
X2178820Y1818640D01*
X2178820Y1854200D01*
D34*
X2415040Y1851660D03*
X2338840Y1841500D03*
X2376940Y1808480D03*
D39*
X2366780Y1818640D01*
X2366780Y1854200D01*
D34*
X2603000Y1854200D03*
X2526800Y1844040D03*
X2564900Y1811020D03*
D39*
X2554740Y1821180D01*
X2554740Y1856740D01*
D34*
X2597920Y2100580D03*
X2521720Y2090420D03*
X2559820Y2057400D03*
D39*
X2549660Y2067560D01*
X2549660Y2103120D01*
D34*
X2686820Y236220D03*
X2610620Y226060D03*
X2648720Y193040D03*
D39*
X2638560Y203200D01*
X2638560Y238760D01*
D34*
X2681740Y482600D03*
X2605540Y472440D03*
X2643640Y439420D03*
D39*
X2633480Y449580D01*
X2633480Y485140D01*
D38*
X622300Y1011400D02*
X583720Y1011400D01*
X568546Y1026574D02*
X564261Y1026574D01*
X557055Y1033780D02*
X525780Y1033780D01*
X557055Y1033780D02*
X564261Y1026574D01*
X568546Y1026574D02*
X583720Y1011400D01*
X525780Y1033780D02*
X508000Y1051560D01*
X505460Y1051560D01*
X505460Y1054100D01*
D34*
X505460Y1054100D03*
D38*
X566260Y1031400D02*
X622300Y1031400D01*
X513080Y1084580D02*
X513080Y1112520D01*
X510540Y1112520D01*
D34*
X510540Y1112520D03*
D38*
X513080Y1084580D02*
X566260Y1031400D01*
D47*
X825500Y779780D02*
X825500Y741680D01*
X949960Y904240D02*
X1010920Y904240D01*
X1013460Y906780D01*
X949960Y904240D02*
X825500Y779780D01*
D34*
X1036320Y1099820D03*
D47*
X1005840Y1069340D01*
D34*
X1013460Y906780D03*
D47*
X1005840Y914400D02*
X1005840Y1069340D01*
X1005840Y914400D02*
X1013460Y906780D01*
D34*
X1087120Y894080D03*
D47*
X1071880Y894080D01*
X1060450Y905510D01*
X1059180Y906780D01*
X1056640Y906780D01*
D34*
X1056640Y906780D03*
D47*
X1060450Y905510D02*
X1109980Y955040D01*
X1109980Y975360D01*
X1109468Y975360D01*
X1093974Y990854D01*
X1082475Y990854D01*
X1077141Y985520D01*
X1031494Y985520D01*
X1023874Y993140D01*
X1023874Y1026414D01*
X1056640Y1059180D01*
X1056640Y1112520D01*
X1054100Y1115060D01*
X1056640Y1115060D01*
D34*
X1056640Y1115060D03*
D47*
X1981200Y1361440D02*
X2001520Y1361440D01*
X1981200Y1361440D02*
X1971040Y1351280D01*
X1971040Y1224280D01*
X1907540Y1153160D01*
X1897380Y1143000D01*
X1518920Y1143000D01*
X1513840Y1148080D01*
X1422400Y1148080D01*
X1407160Y1132840D01*
X1168400Y1132840D01*
X1150620Y1150620D01*
X1087120Y1150620D01*
X1079500Y1143000D01*
D46*
X1079500Y1143000D03*
D34*
X1493520Y1130300D03*
X980440Y1054100D03*
X1117600Y883920D03*
D47*
X1122680Y883920D01*
X1275080Y899160D02*
X1320800Y944880D01*
X1541780Y944880D01*
X1635760Y850900D01*
X1635760Y782320D02*
X1615440Y762000D01*
X1615440Y746760D01*
X1572260Y703580D01*
X1572260Y695960D01*
D34*
X1572260Y695960D03*
D47*
X1137920Y899160D02*
X1122680Y883920D01*
X1137920Y899160D02*
X1275080Y899160D01*
X1635760Y850900D02*
X1635760Y782320D01*
D34*
X1092200Y967740D03*
D47*
X1036320Y911860D01*
X1036320Y899160D01*
X1000760Y863600D01*
X982980Y863600D01*
X894080Y774700D01*
X894080Y632460D01*
X861060Y599440D01*
D34*
X848360Y599440D03*
D47*
X861060Y599440D01*
D34*
X2514600Y688340D03*
X2448560Y784860D03*
X2512060Y816384D03*
D45*
X2480536Y784860D01*
X2448560Y784860D01*
D34*
X2496820Y711200D03*
X2468372Y698500D03*
X2438400Y716280D03*
X2484120Y711200D03*
D45*
X2501040Y753520D02*
X2569560Y753520D01*
X2501040Y753520D02*
X2481580Y734060D01*
X2476500Y734060D01*
D34*
X2476500Y734060D03*
D45*
X2632560Y690520D02*
X2682560Y690520D01*
X2632560Y690520D02*
X2569560Y753520D01*
X2538720Y721360D02*
X2569560Y690520D01*
X2538720Y721360D02*
X2468880Y721360D01*
X2435860Y688340D01*
X2435860Y678180D01*
X2451100Y662940D01*
X2453640Y662940D01*
X2453736Y663036D01*
D34*
X2453736Y663036D03*
D50*
X1381760Y279400D03*
X1412240Y279400D03*
X1442720Y279400D03*
X1323340Y279400D03*
X1292860Y279400D03*
X1262380Y279400D03*
X1206500Y279400D03*
X1176020Y279400D03*
X1145540Y279400D03*
X1087120Y279400D03*
X1056640Y279400D03*
X1026160Y279400D03*
X980440Y279400D03*
X949960Y279400D03*
X916940Y279400D03*
X866140Y279400D03*
X835660Y279400D03*
X805180Y279400D03*
D35*
X1137920Y1353820D03*
D38*
X1181100Y1310640D01*
X1241342Y1310640D02*
X1247140Y1304842D01*
D35*
X1247140Y1304842D03*
D38*
X1241342Y1310640D02*
X1181100Y1310640D01*
D46*
X520700Y906780D03*
D38*
X538480Y906780D01*
X586740Y858520D02*
X662940Y858520D01*
X670560Y866140D01*
X670560Y947420D02*
X668020Y949960D01*
X586740Y858520D02*
X538480Y906780D01*
X670560Y866140D02*
X670560Y947420D01*
D46*
X521168Y952500D03*
D38*
X528788Y960120D01*
X680720Y960120D02*
X701040Y980440D01*
X663391Y961136D02*
X662375Y960120D01*
X663391Y961136D02*
X672649Y961136D01*
X673665Y960120D01*
X680720Y960120D01*
X662375Y960120D02*
X528788Y960120D01*
X701040Y980440D02*
X701040Y1069340D01*
X695960Y1074420D01*
D46*
X485140Y1046480D03*
D38*
X485140Y1102360D01*
X525780Y1125220D02*
X546100Y1104900D01*
X685800Y1104900D01*
X508000Y1125220D02*
X485140Y1102360D01*
X508000Y1125220D02*
X525780Y1125220D01*
X716280Y1074420D02*
X721360Y1074420D01*
X716280Y1074420D02*
X685800Y1104900D01*
D46*
X474980Y1054100D03*
D38*
X474980Y1099820D01*
X436880Y1137920D02*
X358140Y1137920D01*
X436880Y1137920D02*
X474980Y1099820D01*
D46*
X1991360Y927100D03*
M02*
