G04 EAGLE Gerber RS-274X export*
G75*
%MOMM*%
%FSLAX34Y34*%
%LPD*%
%IN*%
%IPPOS*%
%AMOC8*
5,1,8,0,0,1.08239X$1,22.5*%
G01*
%ADD10C,0.076200*%
%ADD11C,0.050000*%
%ADD12C,0.000100*%


D10*
X93980Y1816100D02*
X93980Y1193800D01*
X1744980Y1193800D01*
X1851660Y1252220D01*
X1851660Y1432560D01*
X1752600Y1544320D01*
X1595120Y1651000D01*
X1498600Y1666240D01*
X947420Y1666240D01*
X947420Y1795780D01*
X924560Y1818640D01*
X93980Y1816100D01*
X789940Y1168400D02*
X787400Y419100D01*
X2364740Y419100D01*
X2364740Y1033780D01*
X2725420Y1033780D01*
X2725420Y1610360D01*
X1920240Y1610360D01*
X1920240Y1247140D01*
X1838960Y1168400D01*
X789940Y1168400D01*
X2057400Y1709420D02*
X2057400Y1877060D01*
X998220Y1877060D01*
X998220Y1709420D01*
X2057400Y1709420D01*
X505460Y365760D02*
X505460Y58420D01*
X505460Y365760D02*
X1577340Y365760D01*
X1577340Y60960D01*
X1203960Y60960D01*
X1202732Y60945D01*
X1201506Y60901D01*
X1200280Y60827D01*
X1199057Y60723D01*
X1197837Y60590D01*
X1196620Y60427D01*
X1195407Y60235D01*
X1194200Y60014D01*
X1192998Y59763D01*
X1191803Y59484D01*
X1190614Y59176D01*
X1189434Y58839D01*
X1188262Y58474D01*
X1187099Y58080D01*
X1185946Y57659D01*
X1184804Y57210D01*
X1183672Y56733D01*
X1182553Y56229D01*
X1181446Y55698D01*
X1180352Y55141D01*
X1179272Y54558D01*
X1178206Y53948D01*
X1177156Y53313D01*
X1176121Y52653D01*
X1175102Y51968D01*
X1174101Y51258D01*
X1173116Y50525D01*
X1172150Y49767D01*
X1171202Y48987D01*
X1170273Y48184D01*
X1169364Y47359D01*
X1168476Y46512D01*
X1167608Y45644D01*
X1166761Y44756D01*
X1165936Y43847D01*
X1165133Y42918D01*
X1164353Y41970D01*
X1163595Y41004D01*
X1162862Y40019D01*
X1162152Y39018D01*
X1161467Y37999D01*
X1160807Y36964D01*
X1160172Y35914D01*
X1159562Y34848D01*
X1158979Y33768D01*
X1158422Y32674D01*
X1157891Y31567D01*
X1157387Y30448D01*
X1156910Y29316D01*
X1156461Y28174D01*
X1156040Y27021D01*
X1155646Y25858D01*
X1155281Y24686D01*
X1154944Y23506D01*
X1154636Y22317D01*
X1154357Y21122D01*
X1154106Y19920D01*
X1153885Y18713D01*
X1153693Y17500D01*
X1153530Y16283D01*
X1153397Y15063D01*
X1153293Y13840D01*
X1153219Y12614D01*
X1153175Y11388D01*
X1153160Y10160D01*
X1153160Y-12700D01*
X828040Y-12700D01*
X828040Y7620D01*
X828025Y8848D01*
X827981Y10074D01*
X827907Y11300D01*
X827803Y12523D01*
X827670Y13743D01*
X827507Y14960D01*
X827315Y16173D01*
X827094Y17380D01*
X826843Y18582D01*
X826564Y19777D01*
X826256Y20966D01*
X825919Y22146D01*
X825554Y23318D01*
X825160Y24481D01*
X824739Y25634D01*
X824290Y26776D01*
X823813Y27908D01*
X823309Y29027D01*
X822778Y30134D01*
X822221Y31228D01*
X821638Y32308D01*
X821028Y33374D01*
X820393Y34424D01*
X819733Y35459D01*
X819048Y36478D01*
X818338Y37479D01*
X817605Y38464D01*
X816847Y39430D01*
X816067Y40378D01*
X815264Y41307D01*
X814439Y42216D01*
X813592Y43104D01*
X812724Y43972D01*
X811836Y44819D01*
X810927Y45644D01*
X809998Y46447D01*
X809050Y47227D01*
X808084Y47985D01*
X807099Y48718D01*
X806098Y49428D01*
X805079Y50113D01*
X804044Y50773D01*
X802994Y51408D01*
X801928Y52018D01*
X800848Y52601D01*
X799754Y53158D01*
X798647Y53689D01*
X797528Y54193D01*
X796396Y54670D01*
X795254Y55119D01*
X794101Y55540D01*
X792938Y55934D01*
X791766Y56299D01*
X790586Y56636D01*
X789397Y56944D01*
X788202Y57223D01*
X787000Y57474D01*
X785793Y57695D01*
X784580Y57887D01*
X783363Y58050D01*
X782143Y58183D01*
X780920Y58287D01*
X779694Y58361D01*
X778468Y58405D01*
X777240Y58420D01*
X505460Y58420D01*
X2529840Y86360D02*
X2529840Y363220D01*
X2529840Y86360D02*
X1625600Y86360D01*
X1625600Y363220D01*
X2529840Y363220D01*
X751840Y1165860D02*
X25400Y1165860D01*
X751840Y1165860D02*
X751840Y505460D01*
X25400Y505460D01*
X25400Y1165860D01*
X2139196Y2384552D02*
X2139205Y2384985D01*
X2139223Y2385417D01*
X2139253Y2385849D01*
X2139292Y2386280D01*
X2139342Y2386709D01*
X2139403Y2387138D01*
X2139473Y2387565D01*
X2139554Y2387990D01*
X2139646Y2388413D01*
X2139747Y2388834D01*
X2139859Y2389252D01*
X2139980Y2389667D01*
X2140112Y2390079D01*
X2140254Y2390488D01*
X2140405Y2390893D01*
X2140566Y2391295D01*
X2140737Y2391693D01*
X2140918Y2392086D01*
X2141107Y2392475D01*
X2141307Y2392859D01*
X2141515Y2393238D01*
X2141732Y2393612D01*
X2141959Y2393981D01*
X2142194Y2394344D01*
X2142438Y2394702D01*
X2142691Y2395053D01*
X2142952Y2395398D01*
X2143221Y2395737D01*
X2143499Y2396069D01*
X2143784Y2396394D01*
X2144077Y2396713D01*
X2144378Y2397024D01*
X2144686Y2397328D01*
X2145001Y2397624D01*
X2145324Y2397912D01*
X2145653Y2398193D01*
X2145989Y2398466D01*
X2146332Y2398730D01*
X2146681Y2398986D01*
X2147035Y2399234D01*
X2147396Y2399473D01*
X2147763Y2399703D01*
X2148135Y2399924D01*
X2148512Y2400136D01*
X2148894Y2400339D01*
X2149281Y2400533D01*
X2149672Y2400718D01*
X2150068Y2400892D01*
X2150468Y2401057D01*
X2150872Y2401213D01*
X2151279Y2401359D01*
X2151690Y2401494D01*
X2152104Y2401620D01*
X2152521Y2401736D01*
X2152941Y2401842D01*
X2153363Y2401937D01*
X2153787Y2402022D01*
X2154213Y2402097D01*
X2154641Y2402162D01*
X2155071Y2402216D01*
X2155501Y2402260D01*
X2155933Y2402294D01*
X2156365Y2402317D01*
X2156797Y2402329D01*
X2157230Y2402332D01*
X2159516Y2402332D01*
X2159949Y2402329D01*
X2160381Y2402317D01*
X2160813Y2402294D01*
X2161245Y2402260D01*
X2161675Y2402216D01*
X2162105Y2402162D01*
X2162533Y2402097D01*
X2162959Y2402022D01*
X2163383Y2401937D01*
X2163805Y2401842D01*
X2164225Y2401736D01*
X2164642Y2401620D01*
X2165056Y2401494D01*
X2165467Y2401359D01*
X2165874Y2401213D01*
X2166278Y2401057D01*
X2166678Y2400892D01*
X2167074Y2400718D01*
X2167465Y2400533D01*
X2167852Y2400339D01*
X2168234Y2400136D01*
X2168611Y2399924D01*
X2168983Y2399703D01*
X2169350Y2399473D01*
X2169711Y2399234D01*
X2170065Y2398986D01*
X2170414Y2398730D01*
X2170757Y2398466D01*
X2171093Y2398193D01*
X2171422Y2397912D01*
X2171745Y2397624D01*
X2172060Y2397328D01*
X2172368Y2397024D01*
X2172669Y2396713D01*
X2172962Y2396394D01*
X2173247Y2396069D01*
X2173525Y2395737D01*
X2173794Y2395398D01*
X2174055Y2395053D01*
X2174308Y2394702D01*
X2174552Y2394344D01*
X2174787Y2393981D01*
X2175014Y2393612D01*
X2175231Y2393238D01*
X2175439Y2392859D01*
X2175639Y2392475D01*
X2175828Y2392086D01*
X2176009Y2391693D01*
X2176180Y2391295D01*
X2176341Y2390893D01*
X2176492Y2390488D01*
X2176634Y2390079D01*
X2176766Y2389667D01*
X2176887Y2389252D01*
X2176999Y2388834D01*
X2177100Y2388413D01*
X2177192Y2387990D01*
X2177273Y2387565D01*
X2177343Y2387138D01*
X2177404Y2386709D01*
X2177454Y2386280D01*
X2177493Y2385849D01*
X2177523Y2385417D01*
X2177541Y2384985D01*
X2177550Y2384552D01*
X2249686Y2384552D01*
X2249898Y2384553D01*
X2250110Y2384548D01*
X2250321Y2384538D01*
X2250532Y2384523D01*
X2250743Y2384503D01*
X2250954Y2384478D01*
X2251163Y2384448D01*
X2251372Y2384413D01*
X2251580Y2384373D01*
X2251787Y2384328D01*
X2251993Y2384278D01*
X2252197Y2384223D01*
X2252400Y2384162D01*
X2252602Y2384097D01*
X2252802Y2384028D01*
X2253000Y2383953D01*
X2253196Y2383874D01*
X2253391Y2383790D01*
X2253583Y2383701D01*
X2253773Y2383607D01*
X2253961Y2383509D01*
X2254146Y2383407D01*
X2254329Y2383300D01*
X2254509Y2383189D01*
X2254686Y2383073D01*
X2254861Y2382953D01*
X2255033Y2382829D01*
X2255201Y2382701D01*
X2255367Y2382569D01*
X2255529Y2382432D01*
X2255688Y2382292D01*
X2255843Y2382149D01*
X2255995Y2382001D01*
X2256143Y2381850D01*
X2256288Y2381695D01*
X2256429Y2381537D01*
X2256566Y2381375D01*
X2256699Y2381211D01*
X2256828Y2381043D01*
X2256953Y2380872D01*
X2257073Y2380698D01*
X2257190Y2380521D01*
X2257302Y2380341D01*
X2257410Y2380159D01*
X2257513Y2379974D01*
X2257612Y2379787D01*
X2257706Y2379597D01*
X2257796Y2379405D01*
X2257881Y2379211D01*
X2257962Y2379015D01*
X2258037Y2378817D01*
X2258108Y2378618D01*
X2258174Y2378416D01*
X2258235Y2378214D01*
X2258291Y2378009D01*
X2258342Y2377804D01*
X2258388Y2377597D01*
X2258430Y2377390D01*
X2258466Y2377181D01*
X2258497Y2376971D01*
X2258523Y2376761D01*
X2258544Y2376550D01*
X2258560Y2376339D01*
X2258570Y2376128D01*
X2258576Y2375916D01*
X2258576Y2309622D01*
X2258574Y2309553D01*
X2258569Y2309485D01*
X2258559Y2309417D01*
X2258546Y2309349D01*
X2258530Y2309282D01*
X2258510Y2309216D01*
X2258486Y2309152D01*
X2258459Y2309089D01*
X2258428Y2309027D01*
X2258394Y2308967D01*
X2258357Y2308909D01*
X2258317Y2308853D01*
X2258274Y2308800D01*
X2258228Y2308749D01*
X2258179Y2308700D01*
X2258128Y2308654D01*
X2258075Y2308611D01*
X2258019Y2308571D01*
X2257961Y2308534D01*
X2257901Y2308500D01*
X2257839Y2308469D01*
X2257776Y2308442D01*
X2257712Y2308418D01*
X2257646Y2308398D01*
X2257579Y2308382D01*
X2257511Y2308369D01*
X2257443Y2308359D01*
X2257375Y2308354D01*
X2257306Y2308352D01*
X2256743Y2308345D01*
X2256181Y2308324D01*
X2255620Y2308290D01*
X2255059Y2308242D01*
X2254500Y2308180D01*
X2253943Y2308104D01*
X2253387Y2308015D01*
X2252834Y2307912D01*
X2252283Y2307796D01*
X2251736Y2307666D01*
X2251192Y2307523D01*
X2250652Y2307367D01*
X2250115Y2307197D01*
X2249583Y2307014D01*
X2249056Y2306819D01*
X2248533Y2306610D01*
X2248016Y2306389D01*
X2247504Y2306155D01*
X2246998Y2305909D01*
X2246499Y2305650D01*
X2246006Y2305379D01*
X2245519Y2305096D01*
X2245040Y2304802D01*
X2244568Y2304495D01*
X2244104Y2304178D01*
X2243648Y2303849D01*
X2243199Y2303508D01*
X2242760Y2303157D01*
X2242329Y2302796D01*
X2241907Y2302424D01*
X2241494Y2302041D01*
X2241091Y2301649D01*
X2240698Y2301247D01*
X2240314Y2300835D01*
X2239941Y2300414D01*
X2239578Y2299984D01*
X2239226Y2299546D01*
X2238884Y2299099D01*
X2238554Y2298643D01*
X2238235Y2298180D01*
X2237927Y2297709D01*
X2237631Y2297230D01*
X2237347Y2296745D01*
X2237075Y2296253D01*
X2236815Y2295754D01*
X2236567Y2295249D01*
X2236331Y2294738D01*
X2236109Y2294221D01*
X2235899Y2293699D01*
X2235702Y2293172D01*
X2235517Y2292641D01*
X2235346Y2292105D01*
X2235188Y2291565D01*
X2235044Y2291021D01*
X2234912Y2290474D01*
X2234794Y2289924D01*
X2234690Y2289371D01*
X2234599Y2288816D01*
X2234522Y2288259D01*
X2234459Y2287700D01*
X2234409Y2287139D01*
X2234373Y2286578D01*
X2234351Y2286016D01*
X2234342Y2285453D01*
X2234347Y2284890D01*
X2234366Y2284328D01*
X2234399Y2283767D01*
X2234446Y2283206D01*
X2234453Y2282647D01*
X2234473Y2282089D01*
X2234507Y2281532D01*
X2234554Y2280975D01*
X2234615Y2280420D01*
X2234689Y2279866D01*
X2234776Y2279315D01*
X2234877Y2278765D01*
X2234991Y2278218D01*
X2235118Y2277674D01*
X2235258Y2277134D01*
X2235411Y2276597D01*
X2235577Y2276063D01*
X2235756Y2275534D01*
X2235948Y2275010D01*
X2236152Y2274490D01*
X2236369Y2273975D01*
X2236599Y2273466D01*
X2236840Y2272962D01*
X2237094Y2272464D01*
X2237359Y2271973D01*
X2237636Y2271488D01*
X2237925Y2271010D01*
X2238226Y2270539D01*
X2238538Y2270076D01*
X2238860Y2269620D01*
X2239194Y2269172D01*
X2239539Y2268732D01*
X2239894Y2268301D01*
X2240259Y2267879D01*
X2240634Y2267465D01*
X2241020Y2267061D01*
X2241415Y2266666D01*
X2241819Y2266280D01*
X2242233Y2265905D01*
X2242655Y2265540D01*
X2243086Y2265185D01*
X2243526Y2264840D01*
X2243974Y2264506D01*
X2244430Y2264184D01*
X2244893Y2263872D01*
X2245364Y2263571D01*
X2245842Y2263282D01*
X2246327Y2263005D01*
X2246818Y2262740D01*
X2247316Y2262486D01*
X2247820Y2262245D01*
X2248329Y2262015D01*
X2248844Y2261798D01*
X2249364Y2261594D01*
X2249888Y2261402D01*
X2250417Y2261223D01*
X2250951Y2261057D01*
X2251488Y2260904D01*
X2252028Y2260764D01*
X2252572Y2260637D01*
X2253119Y2260523D01*
X2253669Y2260422D01*
X2254220Y2260335D01*
X2254774Y2260261D01*
X2255329Y2260200D01*
X2255886Y2260153D01*
X2256443Y2260119D01*
X2257001Y2260099D01*
X2257560Y2260092D01*
X2257621Y2260090D01*
X2257682Y2260085D01*
X2257743Y2260075D01*
X2257803Y2260062D01*
X2257862Y2260046D01*
X2257920Y2260026D01*
X2257977Y2260002D01*
X2258032Y2259976D01*
X2258086Y2259945D01*
X2258137Y2259912D01*
X2258187Y2259876D01*
X2258234Y2259836D01*
X2258278Y2259794D01*
X2258320Y2259750D01*
X2258360Y2259703D01*
X2258396Y2259653D01*
X2258429Y2259602D01*
X2258460Y2259548D01*
X2258486Y2259493D01*
X2258510Y2259436D01*
X2258530Y2259378D01*
X2258546Y2259319D01*
X2258559Y2259259D01*
X2258569Y2259198D01*
X2258574Y2259137D01*
X2258576Y2259076D01*
X2258576Y2191830D01*
X2258577Y2191830D02*
X2258575Y2191638D01*
X2258568Y2191446D01*
X2258556Y2191255D01*
X2258540Y2191064D01*
X2258519Y2190873D01*
X2258494Y2190683D01*
X2258464Y2190494D01*
X2258429Y2190305D01*
X2258390Y2190117D01*
X2258346Y2189930D01*
X2258298Y2189745D01*
X2258246Y2189560D01*
X2258188Y2189377D01*
X2258127Y2189195D01*
X2258061Y2189015D01*
X2257991Y2188837D01*
X2257916Y2188660D01*
X2257838Y2188485D01*
X2257755Y2188312D01*
X2257668Y2188141D01*
X2257577Y2187972D01*
X2257481Y2187806D01*
X2257382Y2187642D01*
X2257279Y2187480D01*
X2257172Y2187321D01*
X2257061Y2187164D01*
X2256946Y2187010D01*
X2256828Y2186859D01*
X2256706Y2186711D01*
X2256581Y2186566D01*
X2256452Y2186424D01*
X2256319Y2186285D01*
X2256184Y2186150D01*
X2256045Y2186017D01*
X2255903Y2185888D01*
X2255758Y2185763D01*
X2255610Y2185641D01*
X2255459Y2185523D01*
X2255305Y2185408D01*
X2255148Y2185297D01*
X2254989Y2185190D01*
X2254827Y2185087D01*
X2254663Y2184988D01*
X2254497Y2184892D01*
X2254328Y2184801D01*
X2254157Y2184714D01*
X2253984Y2184631D01*
X2253809Y2184553D01*
X2253632Y2184478D01*
X2253454Y2184408D01*
X2253274Y2184342D01*
X2253092Y2184281D01*
X2252909Y2184223D01*
X2252724Y2184171D01*
X2252539Y2184123D01*
X2252352Y2184079D01*
X2252164Y2184040D01*
X2251975Y2184005D01*
X2251786Y2183975D01*
X2251596Y2183950D01*
X2251405Y2183929D01*
X2251214Y2183913D01*
X2251023Y2183901D01*
X2250831Y2183894D01*
X2250639Y2183892D01*
X2112780Y2183892D01*
X2113034Y2384298D01*
X2139196Y2384552D01*
X431800Y469900D02*
X20320Y469900D01*
X431800Y469900D02*
X431800Y93980D01*
X20320Y93980D01*
X20320Y469900D01*
X2024380Y2085340D02*
X2024380Y2364740D01*
X1991360Y2397760D01*
X1196340Y2397760D01*
X1183640Y2410460D01*
X1041400Y2410460D01*
X1031240Y2400300D01*
X632460Y2400300D01*
X513080Y2379980D01*
X370840Y2286000D01*
X320040Y2199640D01*
X320040Y1998980D01*
X368300Y1930400D01*
X1645920Y1930400D01*
X1828800Y1998980D01*
X2009140Y2067560D01*
X2024380Y2085340D01*
X2324616Y2387092D02*
X2324625Y2387525D01*
X2324643Y2387957D01*
X2324673Y2388389D01*
X2324712Y2388820D01*
X2324762Y2389249D01*
X2324823Y2389678D01*
X2324893Y2390105D01*
X2324974Y2390530D01*
X2325066Y2390953D01*
X2325167Y2391374D01*
X2325279Y2391792D01*
X2325400Y2392207D01*
X2325532Y2392619D01*
X2325674Y2393028D01*
X2325825Y2393433D01*
X2325986Y2393835D01*
X2326157Y2394233D01*
X2326338Y2394626D01*
X2326527Y2395015D01*
X2326727Y2395399D01*
X2326935Y2395778D01*
X2327152Y2396152D01*
X2327379Y2396521D01*
X2327614Y2396884D01*
X2327858Y2397242D01*
X2328111Y2397593D01*
X2328372Y2397938D01*
X2328641Y2398277D01*
X2328919Y2398609D01*
X2329204Y2398934D01*
X2329497Y2399253D01*
X2329798Y2399564D01*
X2330106Y2399868D01*
X2330421Y2400164D01*
X2330744Y2400452D01*
X2331073Y2400733D01*
X2331409Y2401006D01*
X2331752Y2401270D01*
X2332101Y2401526D01*
X2332455Y2401774D01*
X2332816Y2402013D01*
X2333183Y2402243D01*
X2333555Y2402464D01*
X2333932Y2402676D01*
X2334314Y2402879D01*
X2334701Y2403073D01*
X2335092Y2403258D01*
X2335488Y2403432D01*
X2335888Y2403597D01*
X2336292Y2403753D01*
X2336699Y2403899D01*
X2337110Y2404034D01*
X2337524Y2404160D01*
X2337941Y2404276D01*
X2338361Y2404382D01*
X2338783Y2404477D01*
X2339207Y2404562D01*
X2339633Y2404637D01*
X2340061Y2404702D01*
X2340491Y2404756D01*
X2340921Y2404800D01*
X2341353Y2404834D01*
X2341785Y2404857D01*
X2342217Y2404869D01*
X2342650Y2404872D01*
X2344936Y2404872D01*
X2345369Y2404869D01*
X2345801Y2404857D01*
X2346233Y2404834D01*
X2346665Y2404800D01*
X2347095Y2404756D01*
X2347525Y2404702D01*
X2347953Y2404637D01*
X2348379Y2404562D01*
X2348803Y2404477D01*
X2349225Y2404382D01*
X2349645Y2404276D01*
X2350062Y2404160D01*
X2350476Y2404034D01*
X2350887Y2403899D01*
X2351294Y2403753D01*
X2351698Y2403597D01*
X2352098Y2403432D01*
X2352494Y2403258D01*
X2352885Y2403073D01*
X2353272Y2402879D01*
X2353654Y2402676D01*
X2354031Y2402464D01*
X2354403Y2402243D01*
X2354770Y2402013D01*
X2355131Y2401774D01*
X2355485Y2401526D01*
X2355834Y2401270D01*
X2356177Y2401006D01*
X2356513Y2400733D01*
X2356842Y2400452D01*
X2357165Y2400164D01*
X2357480Y2399868D01*
X2357788Y2399564D01*
X2358089Y2399253D01*
X2358382Y2398934D01*
X2358667Y2398609D01*
X2358945Y2398277D01*
X2359214Y2397938D01*
X2359475Y2397593D01*
X2359728Y2397242D01*
X2359972Y2396884D01*
X2360207Y2396521D01*
X2360434Y2396152D01*
X2360651Y2395778D01*
X2360859Y2395399D01*
X2361059Y2395015D01*
X2361248Y2394626D01*
X2361429Y2394233D01*
X2361600Y2393835D01*
X2361761Y2393433D01*
X2361912Y2393028D01*
X2362054Y2392619D01*
X2362186Y2392207D01*
X2362307Y2391792D01*
X2362419Y2391374D01*
X2362520Y2390953D01*
X2362612Y2390530D01*
X2362693Y2390105D01*
X2362763Y2389678D01*
X2362824Y2389249D01*
X2362874Y2388820D01*
X2362913Y2388389D01*
X2362943Y2387957D01*
X2362961Y2387525D01*
X2362970Y2387092D01*
X2435106Y2387092D01*
X2435318Y2387093D01*
X2435530Y2387088D01*
X2435741Y2387078D01*
X2435952Y2387063D01*
X2436163Y2387043D01*
X2436374Y2387018D01*
X2436583Y2386988D01*
X2436792Y2386953D01*
X2437000Y2386913D01*
X2437207Y2386868D01*
X2437413Y2386818D01*
X2437617Y2386763D01*
X2437820Y2386702D01*
X2438022Y2386637D01*
X2438222Y2386568D01*
X2438420Y2386493D01*
X2438616Y2386414D01*
X2438811Y2386330D01*
X2439003Y2386241D01*
X2439193Y2386147D01*
X2439381Y2386049D01*
X2439566Y2385947D01*
X2439749Y2385840D01*
X2439929Y2385729D01*
X2440106Y2385613D01*
X2440281Y2385493D01*
X2440453Y2385369D01*
X2440621Y2385241D01*
X2440787Y2385109D01*
X2440949Y2384972D01*
X2441108Y2384832D01*
X2441263Y2384689D01*
X2441415Y2384541D01*
X2441563Y2384390D01*
X2441708Y2384235D01*
X2441849Y2384077D01*
X2441986Y2383915D01*
X2442119Y2383751D01*
X2442248Y2383583D01*
X2442373Y2383412D01*
X2442493Y2383238D01*
X2442610Y2383061D01*
X2442722Y2382881D01*
X2442830Y2382699D01*
X2442933Y2382514D01*
X2443032Y2382327D01*
X2443126Y2382137D01*
X2443216Y2381945D01*
X2443301Y2381751D01*
X2443382Y2381555D01*
X2443457Y2381357D01*
X2443528Y2381158D01*
X2443594Y2380956D01*
X2443655Y2380754D01*
X2443711Y2380549D01*
X2443762Y2380344D01*
X2443808Y2380137D01*
X2443850Y2379930D01*
X2443886Y2379721D01*
X2443917Y2379511D01*
X2443943Y2379301D01*
X2443964Y2379090D01*
X2443980Y2378879D01*
X2443990Y2378668D01*
X2443996Y2378456D01*
X2443996Y2312162D01*
X2443994Y2312093D01*
X2443989Y2312025D01*
X2443979Y2311957D01*
X2443966Y2311889D01*
X2443950Y2311822D01*
X2443930Y2311756D01*
X2443906Y2311692D01*
X2443879Y2311629D01*
X2443848Y2311567D01*
X2443814Y2311507D01*
X2443777Y2311449D01*
X2443737Y2311393D01*
X2443694Y2311340D01*
X2443648Y2311289D01*
X2443599Y2311240D01*
X2443548Y2311194D01*
X2443495Y2311151D01*
X2443439Y2311111D01*
X2443381Y2311074D01*
X2443321Y2311040D01*
X2443259Y2311009D01*
X2443196Y2310982D01*
X2443132Y2310958D01*
X2443066Y2310938D01*
X2442999Y2310922D01*
X2442931Y2310909D01*
X2442863Y2310899D01*
X2442795Y2310894D01*
X2442726Y2310892D01*
X2442163Y2310885D01*
X2441601Y2310864D01*
X2441040Y2310830D01*
X2440479Y2310782D01*
X2439920Y2310720D01*
X2439363Y2310644D01*
X2438807Y2310555D01*
X2438254Y2310452D01*
X2437703Y2310336D01*
X2437156Y2310206D01*
X2436612Y2310063D01*
X2436072Y2309907D01*
X2435535Y2309737D01*
X2435003Y2309554D01*
X2434476Y2309359D01*
X2433953Y2309150D01*
X2433436Y2308929D01*
X2432924Y2308695D01*
X2432418Y2308449D01*
X2431919Y2308190D01*
X2431426Y2307919D01*
X2430939Y2307636D01*
X2430460Y2307342D01*
X2429988Y2307035D01*
X2429524Y2306718D01*
X2429068Y2306389D01*
X2428619Y2306048D01*
X2428180Y2305697D01*
X2427749Y2305336D01*
X2427327Y2304964D01*
X2426914Y2304581D01*
X2426511Y2304189D01*
X2426118Y2303787D01*
X2425734Y2303375D01*
X2425361Y2302954D01*
X2424998Y2302524D01*
X2424646Y2302086D01*
X2424304Y2301639D01*
X2423974Y2301183D01*
X2423655Y2300720D01*
X2423347Y2300249D01*
X2423051Y2299770D01*
X2422767Y2299285D01*
X2422495Y2298793D01*
X2422235Y2298294D01*
X2421987Y2297789D01*
X2421751Y2297278D01*
X2421529Y2296761D01*
X2421319Y2296239D01*
X2421122Y2295712D01*
X2420937Y2295181D01*
X2420766Y2294645D01*
X2420608Y2294105D01*
X2420464Y2293561D01*
X2420332Y2293014D01*
X2420214Y2292464D01*
X2420110Y2291911D01*
X2420019Y2291356D01*
X2419942Y2290799D01*
X2419879Y2290240D01*
X2419829Y2289679D01*
X2419793Y2289118D01*
X2419771Y2288556D01*
X2419762Y2287993D01*
X2419767Y2287430D01*
X2419786Y2286868D01*
X2419819Y2286307D01*
X2419866Y2285746D01*
X2419873Y2285187D01*
X2419893Y2284629D01*
X2419927Y2284072D01*
X2419974Y2283515D01*
X2420035Y2282960D01*
X2420109Y2282406D01*
X2420196Y2281855D01*
X2420297Y2281305D01*
X2420411Y2280758D01*
X2420538Y2280214D01*
X2420678Y2279674D01*
X2420831Y2279137D01*
X2420997Y2278603D01*
X2421176Y2278074D01*
X2421368Y2277550D01*
X2421572Y2277030D01*
X2421789Y2276515D01*
X2422019Y2276006D01*
X2422260Y2275502D01*
X2422514Y2275004D01*
X2422779Y2274513D01*
X2423056Y2274028D01*
X2423345Y2273550D01*
X2423646Y2273079D01*
X2423958Y2272616D01*
X2424280Y2272160D01*
X2424614Y2271712D01*
X2424959Y2271272D01*
X2425314Y2270841D01*
X2425679Y2270419D01*
X2426054Y2270005D01*
X2426440Y2269601D01*
X2426835Y2269206D01*
X2427239Y2268820D01*
X2427653Y2268445D01*
X2428075Y2268080D01*
X2428506Y2267725D01*
X2428946Y2267380D01*
X2429394Y2267046D01*
X2429850Y2266724D01*
X2430313Y2266412D01*
X2430784Y2266111D01*
X2431262Y2265822D01*
X2431747Y2265545D01*
X2432238Y2265280D01*
X2432736Y2265026D01*
X2433240Y2264785D01*
X2433749Y2264555D01*
X2434264Y2264338D01*
X2434784Y2264134D01*
X2435308Y2263942D01*
X2435837Y2263763D01*
X2436371Y2263597D01*
X2436908Y2263444D01*
X2437448Y2263304D01*
X2437992Y2263177D01*
X2438539Y2263063D01*
X2439089Y2262962D01*
X2439640Y2262875D01*
X2440194Y2262801D01*
X2440749Y2262740D01*
X2441306Y2262693D01*
X2441863Y2262659D01*
X2442421Y2262639D01*
X2442980Y2262632D01*
X2443041Y2262630D01*
X2443102Y2262625D01*
X2443163Y2262615D01*
X2443223Y2262602D01*
X2443282Y2262586D01*
X2443340Y2262566D01*
X2443397Y2262542D01*
X2443452Y2262516D01*
X2443506Y2262485D01*
X2443557Y2262452D01*
X2443607Y2262416D01*
X2443654Y2262376D01*
X2443698Y2262334D01*
X2443740Y2262290D01*
X2443780Y2262243D01*
X2443816Y2262193D01*
X2443849Y2262142D01*
X2443880Y2262088D01*
X2443906Y2262033D01*
X2443930Y2261976D01*
X2443950Y2261918D01*
X2443966Y2261859D01*
X2443979Y2261799D01*
X2443989Y2261738D01*
X2443994Y2261677D01*
X2443996Y2261616D01*
X2443996Y2194370D01*
X2443997Y2194370D02*
X2443995Y2194178D01*
X2443988Y2193986D01*
X2443976Y2193795D01*
X2443960Y2193604D01*
X2443939Y2193413D01*
X2443914Y2193223D01*
X2443884Y2193034D01*
X2443849Y2192845D01*
X2443810Y2192657D01*
X2443766Y2192470D01*
X2443718Y2192285D01*
X2443666Y2192100D01*
X2443608Y2191917D01*
X2443547Y2191735D01*
X2443481Y2191555D01*
X2443411Y2191377D01*
X2443336Y2191200D01*
X2443258Y2191025D01*
X2443175Y2190852D01*
X2443088Y2190681D01*
X2442997Y2190512D01*
X2442901Y2190346D01*
X2442802Y2190182D01*
X2442699Y2190020D01*
X2442592Y2189861D01*
X2442481Y2189704D01*
X2442366Y2189550D01*
X2442248Y2189399D01*
X2442126Y2189251D01*
X2442001Y2189106D01*
X2441872Y2188964D01*
X2441739Y2188825D01*
X2441604Y2188690D01*
X2441465Y2188557D01*
X2441323Y2188428D01*
X2441178Y2188303D01*
X2441030Y2188181D01*
X2440879Y2188063D01*
X2440725Y2187948D01*
X2440568Y2187837D01*
X2440409Y2187730D01*
X2440247Y2187627D01*
X2440083Y2187528D01*
X2439917Y2187432D01*
X2439748Y2187341D01*
X2439577Y2187254D01*
X2439404Y2187171D01*
X2439229Y2187093D01*
X2439052Y2187018D01*
X2438874Y2186948D01*
X2438694Y2186882D01*
X2438512Y2186821D01*
X2438329Y2186763D01*
X2438144Y2186711D01*
X2437959Y2186663D01*
X2437772Y2186619D01*
X2437584Y2186580D01*
X2437395Y2186545D01*
X2437206Y2186515D01*
X2437016Y2186490D01*
X2436825Y2186469D01*
X2436634Y2186453D01*
X2436443Y2186441D01*
X2436251Y2186434D01*
X2436059Y2186432D01*
X2298200Y2186432D01*
X2298454Y2386838D01*
X2324616Y2387092D01*
X2154690Y2158492D02*
X2154257Y2158489D01*
X2153825Y2158477D01*
X2153393Y2158454D01*
X2152961Y2158420D01*
X2152531Y2158376D01*
X2152101Y2158322D01*
X2151673Y2158257D01*
X2151247Y2158182D01*
X2150823Y2158097D01*
X2150401Y2158002D01*
X2149981Y2157896D01*
X2149564Y2157780D01*
X2149150Y2157654D01*
X2148739Y2157519D01*
X2148332Y2157373D01*
X2147928Y2157217D01*
X2147528Y2157052D01*
X2147132Y2156878D01*
X2146741Y2156693D01*
X2146354Y2156499D01*
X2145972Y2156296D01*
X2145595Y2156084D01*
X2145223Y2155863D01*
X2144856Y2155633D01*
X2144495Y2155394D01*
X2144141Y2155146D01*
X2143792Y2154890D01*
X2143449Y2154626D01*
X2143113Y2154353D01*
X2142784Y2154072D01*
X2142461Y2153784D01*
X2142146Y2153488D01*
X2141838Y2153184D01*
X2141537Y2152873D01*
X2141244Y2152554D01*
X2140959Y2152229D01*
X2140681Y2151897D01*
X2140412Y2151558D01*
X2140151Y2151213D01*
X2139898Y2150862D01*
X2139654Y2150504D01*
X2139419Y2150141D01*
X2139192Y2149772D01*
X2138975Y2149398D01*
X2138767Y2149019D01*
X2138567Y2148635D01*
X2138378Y2148246D01*
X2138197Y2147853D01*
X2138026Y2147455D01*
X2137865Y2147053D01*
X2137714Y2146648D01*
X2137572Y2146239D01*
X2137440Y2145827D01*
X2137319Y2145412D01*
X2137207Y2144994D01*
X2137106Y2144573D01*
X2137014Y2144150D01*
X2136933Y2143725D01*
X2136863Y2143298D01*
X2136802Y2142869D01*
X2136752Y2142440D01*
X2136713Y2142009D01*
X2136683Y2141577D01*
X2136665Y2141145D01*
X2136656Y2140712D01*
X2154690Y2158492D02*
X2156976Y2158492D01*
X2157409Y2158489D01*
X2157841Y2158477D01*
X2158273Y2158454D01*
X2158705Y2158420D01*
X2159135Y2158376D01*
X2159565Y2158322D01*
X2159993Y2158257D01*
X2160419Y2158182D01*
X2160843Y2158097D01*
X2161265Y2158002D01*
X2161685Y2157896D01*
X2162102Y2157780D01*
X2162516Y2157654D01*
X2162927Y2157519D01*
X2163334Y2157373D01*
X2163738Y2157217D01*
X2164138Y2157052D01*
X2164534Y2156878D01*
X2164925Y2156693D01*
X2165312Y2156499D01*
X2165694Y2156296D01*
X2166071Y2156084D01*
X2166443Y2155863D01*
X2166810Y2155633D01*
X2167171Y2155394D01*
X2167525Y2155146D01*
X2167874Y2154890D01*
X2168217Y2154626D01*
X2168553Y2154353D01*
X2168882Y2154072D01*
X2169205Y2153784D01*
X2169520Y2153488D01*
X2169828Y2153184D01*
X2170129Y2152873D01*
X2170422Y2152554D01*
X2170707Y2152229D01*
X2170985Y2151897D01*
X2171254Y2151558D01*
X2171515Y2151213D01*
X2171768Y2150862D01*
X2172012Y2150504D01*
X2172247Y2150141D01*
X2172474Y2149772D01*
X2172691Y2149398D01*
X2172899Y2149019D01*
X2173099Y2148635D01*
X2173288Y2148246D01*
X2173469Y2147853D01*
X2173640Y2147455D01*
X2173801Y2147053D01*
X2173952Y2146648D01*
X2174094Y2146239D01*
X2174226Y2145827D01*
X2174347Y2145412D01*
X2174459Y2144994D01*
X2174560Y2144573D01*
X2174652Y2144150D01*
X2174733Y2143725D01*
X2174803Y2143298D01*
X2174864Y2142869D01*
X2174914Y2142440D01*
X2174953Y2142009D01*
X2174983Y2141577D01*
X2175001Y2141145D01*
X2175010Y2140712D01*
X2247146Y2140712D01*
X2247358Y2140713D01*
X2247570Y2140708D01*
X2247781Y2140698D01*
X2247992Y2140683D01*
X2248203Y2140663D01*
X2248414Y2140638D01*
X2248623Y2140608D01*
X2248832Y2140573D01*
X2249040Y2140533D01*
X2249247Y2140488D01*
X2249453Y2140438D01*
X2249657Y2140383D01*
X2249860Y2140322D01*
X2250062Y2140257D01*
X2250262Y2140188D01*
X2250460Y2140113D01*
X2250656Y2140034D01*
X2250851Y2139950D01*
X2251043Y2139861D01*
X2251233Y2139767D01*
X2251421Y2139669D01*
X2251606Y2139567D01*
X2251789Y2139460D01*
X2251969Y2139349D01*
X2252146Y2139233D01*
X2252321Y2139113D01*
X2252493Y2138989D01*
X2252661Y2138861D01*
X2252827Y2138729D01*
X2252989Y2138592D01*
X2253148Y2138452D01*
X2253303Y2138309D01*
X2253455Y2138161D01*
X2253603Y2138010D01*
X2253748Y2137855D01*
X2253889Y2137697D01*
X2254026Y2137535D01*
X2254159Y2137371D01*
X2254288Y2137203D01*
X2254413Y2137032D01*
X2254533Y2136858D01*
X2254650Y2136681D01*
X2254762Y2136501D01*
X2254870Y2136319D01*
X2254973Y2136134D01*
X2255072Y2135947D01*
X2255166Y2135757D01*
X2255256Y2135565D01*
X2255341Y2135371D01*
X2255422Y2135175D01*
X2255497Y2134977D01*
X2255568Y2134778D01*
X2255634Y2134576D01*
X2255695Y2134374D01*
X2255751Y2134169D01*
X2255802Y2133964D01*
X2255848Y2133757D01*
X2255890Y2133550D01*
X2255926Y2133341D01*
X2255957Y2133131D01*
X2255983Y2132921D01*
X2256004Y2132710D01*
X2256020Y2132499D01*
X2256030Y2132288D01*
X2256036Y2132076D01*
X2256036Y2065782D01*
X2256034Y2065713D01*
X2256029Y2065645D01*
X2256019Y2065577D01*
X2256006Y2065509D01*
X2255990Y2065442D01*
X2255970Y2065376D01*
X2255946Y2065312D01*
X2255919Y2065249D01*
X2255888Y2065187D01*
X2255854Y2065127D01*
X2255817Y2065069D01*
X2255777Y2065013D01*
X2255734Y2064960D01*
X2255688Y2064909D01*
X2255639Y2064860D01*
X2255588Y2064814D01*
X2255535Y2064771D01*
X2255479Y2064731D01*
X2255421Y2064694D01*
X2255361Y2064660D01*
X2255299Y2064629D01*
X2255236Y2064602D01*
X2255172Y2064578D01*
X2255106Y2064558D01*
X2255039Y2064542D01*
X2254971Y2064529D01*
X2254903Y2064519D01*
X2254835Y2064514D01*
X2254766Y2064512D01*
X2254203Y2064505D01*
X2253641Y2064484D01*
X2253080Y2064450D01*
X2252519Y2064402D01*
X2251960Y2064340D01*
X2251403Y2064264D01*
X2250847Y2064175D01*
X2250294Y2064072D01*
X2249743Y2063956D01*
X2249196Y2063826D01*
X2248652Y2063683D01*
X2248112Y2063527D01*
X2247575Y2063357D01*
X2247043Y2063174D01*
X2246516Y2062979D01*
X2245993Y2062770D01*
X2245476Y2062549D01*
X2244964Y2062315D01*
X2244458Y2062069D01*
X2243959Y2061810D01*
X2243466Y2061539D01*
X2242979Y2061256D01*
X2242500Y2060962D01*
X2242028Y2060655D01*
X2241564Y2060338D01*
X2241108Y2060009D01*
X2240659Y2059668D01*
X2240220Y2059317D01*
X2239789Y2058956D01*
X2239367Y2058584D01*
X2238954Y2058201D01*
X2238551Y2057809D01*
X2238158Y2057407D01*
X2237774Y2056995D01*
X2237401Y2056574D01*
X2237038Y2056144D01*
X2236686Y2055706D01*
X2236344Y2055259D01*
X2236014Y2054803D01*
X2235695Y2054340D01*
X2235387Y2053869D01*
X2235091Y2053390D01*
X2234807Y2052905D01*
X2234535Y2052413D01*
X2234275Y2051914D01*
X2234027Y2051409D01*
X2233791Y2050898D01*
X2233569Y2050381D01*
X2233359Y2049859D01*
X2233162Y2049332D01*
X2232977Y2048801D01*
X2232806Y2048265D01*
X2232648Y2047725D01*
X2232504Y2047181D01*
X2232372Y2046634D01*
X2232254Y2046084D01*
X2232150Y2045531D01*
X2232059Y2044976D01*
X2231982Y2044419D01*
X2231919Y2043860D01*
X2231869Y2043299D01*
X2231833Y2042738D01*
X2231811Y2042176D01*
X2231802Y2041613D01*
X2231807Y2041050D01*
X2231826Y2040488D01*
X2231859Y2039927D01*
X2231906Y2039366D01*
X2231913Y2038807D01*
X2231933Y2038249D01*
X2231967Y2037692D01*
X2232014Y2037135D01*
X2232075Y2036580D01*
X2232149Y2036026D01*
X2232236Y2035475D01*
X2232337Y2034925D01*
X2232451Y2034378D01*
X2232578Y2033834D01*
X2232718Y2033294D01*
X2232871Y2032757D01*
X2233037Y2032223D01*
X2233216Y2031694D01*
X2233408Y2031170D01*
X2233612Y2030650D01*
X2233829Y2030135D01*
X2234059Y2029626D01*
X2234300Y2029122D01*
X2234554Y2028624D01*
X2234819Y2028133D01*
X2235096Y2027648D01*
X2235385Y2027170D01*
X2235686Y2026699D01*
X2235998Y2026236D01*
X2236320Y2025780D01*
X2236654Y2025332D01*
X2236999Y2024892D01*
X2237354Y2024461D01*
X2237719Y2024039D01*
X2238094Y2023625D01*
X2238480Y2023221D01*
X2238875Y2022826D01*
X2239279Y2022440D01*
X2239693Y2022065D01*
X2240115Y2021700D01*
X2240546Y2021345D01*
X2240986Y2021000D01*
X2241434Y2020666D01*
X2241890Y2020344D01*
X2242353Y2020032D01*
X2242824Y2019731D01*
X2243302Y2019442D01*
X2243787Y2019165D01*
X2244278Y2018900D01*
X2244776Y2018646D01*
X2245280Y2018405D01*
X2245789Y2018175D01*
X2246304Y2017958D01*
X2246824Y2017754D01*
X2247348Y2017562D01*
X2247877Y2017383D01*
X2248411Y2017217D01*
X2248948Y2017064D01*
X2249488Y2016924D01*
X2250032Y2016797D01*
X2250579Y2016683D01*
X2251129Y2016582D01*
X2251680Y2016495D01*
X2252234Y2016421D01*
X2252789Y2016360D01*
X2253346Y2016313D01*
X2253903Y2016279D01*
X2254461Y2016259D01*
X2255020Y2016252D01*
X2255081Y2016250D01*
X2255142Y2016245D01*
X2255203Y2016235D01*
X2255263Y2016222D01*
X2255322Y2016206D01*
X2255380Y2016186D01*
X2255437Y2016162D01*
X2255492Y2016136D01*
X2255546Y2016105D01*
X2255597Y2016072D01*
X2255647Y2016036D01*
X2255694Y2015996D01*
X2255738Y2015954D01*
X2255780Y2015910D01*
X2255820Y2015863D01*
X2255856Y2015813D01*
X2255889Y2015762D01*
X2255920Y2015708D01*
X2255946Y2015653D01*
X2255970Y2015596D01*
X2255990Y2015538D01*
X2256006Y2015479D01*
X2256019Y2015419D01*
X2256029Y2015358D01*
X2256034Y2015297D01*
X2256036Y2015236D01*
X2256036Y1947990D01*
X2256037Y1947990D02*
X2256035Y1947798D01*
X2256028Y1947606D01*
X2256016Y1947415D01*
X2256000Y1947224D01*
X2255979Y1947033D01*
X2255954Y1946843D01*
X2255924Y1946654D01*
X2255889Y1946465D01*
X2255850Y1946277D01*
X2255806Y1946090D01*
X2255758Y1945905D01*
X2255706Y1945720D01*
X2255648Y1945537D01*
X2255587Y1945355D01*
X2255521Y1945175D01*
X2255451Y1944997D01*
X2255376Y1944820D01*
X2255298Y1944645D01*
X2255215Y1944472D01*
X2255128Y1944301D01*
X2255037Y1944132D01*
X2254941Y1943966D01*
X2254842Y1943802D01*
X2254739Y1943640D01*
X2254632Y1943481D01*
X2254521Y1943324D01*
X2254406Y1943170D01*
X2254288Y1943019D01*
X2254166Y1942871D01*
X2254041Y1942726D01*
X2253912Y1942584D01*
X2253779Y1942445D01*
X2253644Y1942310D01*
X2253505Y1942177D01*
X2253363Y1942048D01*
X2253218Y1941923D01*
X2253070Y1941801D01*
X2252919Y1941683D01*
X2252765Y1941568D01*
X2252608Y1941457D01*
X2252449Y1941350D01*
X2252287Y1941247D01*
X2252123Y1941148D01*
X2251957Y1941052D01*
X2251788Y1940961D01*
X2251617Y1940874D01*
X2251444Y1940791D01*
X2251269Y1940713D01*
X2251092Y1940638D01*
X2250914Y1940568D01*
X2250734Y1940502D01*
X2250552Y1940441D01*
X2250369Y1940383D01*
X2250184Y1940331D01*
X2249999Y1940283D01*
X2249812Y1940239D01*
X2249624Y1940200D01*
X2249435Y1940165D01*
X2249246Y1940135D01*
X2249056Y1940110D01*
X2248865Y1940089D01*
X2248674Y1940073D01*
X2248483Y1940061D01*
X2248291Y1940054D01*
X2248099Y1940052D01*
X2110240Y1940052D01*
X2110494Y2140458D01*
X2136656Y2140712D01*
X2329696Y2140712D02*
X2329705Y2141145D01*
X2329723Y2141577D01*
X2329753Y2142009D01*
X2329792Y2142440D01*
X2329842Y2142869D01*
X2329903Y2143298D01*
X2329973Y2143725D01*
X2330054Y2144150D01*
X2330146Y2144573D01*
X2330247Y2144994D01*
X2330359Y2145412D01*
X2330480Y2145827D01*
X2330612Y2146239D01*
X2330754Y2146648D01*
X2330905Y2147053D01*
X2331066Y2147455D01*
X2331237Y2147853D01*
X2331418Y2148246D01*
X2331607Y2148635D01*
X2331807Y2149019D01*
X2332015Y2149398D01*
X2332232Y2149772D01*
X2332459Y2150141D01*
X2332694Y2150504D01*
X2332938Y2150862D01*
X2333191Y2151213D01*
X2333452Y2151558D01*
X2333721Y2151897D01*
X2333999Y2152229D01*
X2334284Y2152554D01*
X2334577Y2152873D01*
X2334878Y2153184D01*
X2335186Y2153488D01*
X2335501Y2153784D01*
X2335824Y2154072D01*
X2336153Y2154353D01*
X2336489Y2154626D01*
X2336832Y2154890D01*
X2337181Y2155146D01*
X2337535Y2155394D01*
X2337896Y2155633D01*
X2338263Y2155863D01*
X2338635Y2156084D01*
X2339012Y2156296D01*
X2339394Y2156499D01*
X2339781Y2156693D01*
X2340172Y2156878D01*
X2340568Y2157052D01*
X2340968Y2157217D01*
X2341372Y2157373D01*
X2341779Y2157519D01*
X2342190Y2157654D01*
X2342604Y2157780D01*
X2343021Y2157896D01*
X2343441Y2158002D01*
X2343863Y2158097D01*
X2344287Y2158182D01*
X2344713Y2158257D01*
X2345141Y2158322D01*
X2345571Y2158376D01*
X2346001Y2158420D01*
X2346433Y2158454D01*
X2346865Y2158477D01*
X2347297Y2158489D01*
X2347730Y2158492D01*
X2350016Y2158492D01*
X2350449Y2158489D01*
X2350881Y2158477D01*
X2351313Y2158454D01*
X2351745Y2158420D01*
X2352175Y2158376D01*
X2352605Y2158322D01*
X2353033Y2158257D01*
X2353459Y2158182D01*
X2353883Y2158097D01*
X2354305Y2158002D01*
X2354725Y2157896D01*
X2355142Y2157780D01*
X2355556Y2157654D01*
X2355967Y2157519D01*
X2356374Y2157373D01*
X2356778Y2157217D01*
X2357178Y2157052D01*
X2357574Y2156878D01*
X2357965Y2156693D01*
X2358352Y2156499D01*
X2358734Y2156296D01*
X2359111Y2156084D01*
X2359483Y2155863D01*
X2359850Y2155633D01*
X2360211Y2155394D01*
X2360565Y2155146D01*
X2360914Y2154890D01*
X2361257Y2154626D01*
X2361593Y2154353D01*
X2361922Y2154072D01*
X2362245Y2153784D01*
X2362560Y2153488D01*
X2362868Y2153184D01*
X2363169Y2152873D01*
X2363462Y2152554D01*
X2363747Y2152229D01*
X2364025Y2151897D01*
X2364294Y2151558D01*
X2364555Y2151213D01*
X2364808Y2150862D01*
X2365052Y2150504D01*
X2365287Y2150141D01*
X2365514Y2149772D01*
X2365731Y2149398D01*
X2365939Y2149019D01*
X2366139Y2148635D01*
X2366328Y2148246D01*
X2366509Y2147853D01*
X2366680Y2147455D01*
X2366841Y2147053D01*
X2366992Y2146648D01*
X2367134Y2146239D01*
X2367266Y2145827D01*
X2367387Y2145412D01*
X2367499Y2144994D01*
X2367600Y2144573D01*
X2367692Y2144150D01*
X2367773Y2143725D01*
X2367843Y2143298D01*
X2367904Y2142869D01*
X2367954Y2142440D01*
X2367993Y2142009D01*
X2368023Y2141577D01*
X2368041Y2141145D01*
X2368050Y2140712D01*
X2440186Y2140712D01*
X2440398Y2140713D01*
X2440610Y2140708D01*
X2440821Y2140698D01*
X2441032Y2140683D01*
X2441243Y2140663D01*
X2441454Y2140638D01*
X2441663Y2140608D01*
X2441872Y2140573D01*
X2442080Y2140533D01*
X2442287Y2140488D01*
X2442493Y2140438D01*
X2442697Y2140383D01*
X2442900Y2140322D01*
X2443102Y2140257D01*
X2443302Y2140188D01*
X2443500Y2140113D01*
X2443696Y2140034D01*
X2443891Y2139950D01*
X2444083Y2139861D01*
X2444273Y2139767D01*
X2444461Y2139669D01*
X2444646Y2139567D01*
X2444829Y2139460D01*
X2445009Y2139349D01*
X2445186Y2139233D01*
X2445361Y2139113D01*
X2445533Y2138989D01*
X2445701Y2138861D01*
X2445867Y2138729D01*
X2446029Y2138592D01*
X2446188Y2138452D01*
X2446343Y2138309D01*
X2446495Y2138161D01*
X2446643Y2138010D01*
X2446788Y2137855D01*
X2446929Y2137697D01*
X2447066Y2137535D01*
X2447199Y2137371D01*
X2447328Y2137203D01*
X2447453Y2137032D01*
X2447573Y2136858D01*
X2447690Y2136681D01*
X2447802Y2136501D01*
X2447910Y2136319D01*
X2448013Y2136134D01*
X2448112Y2135947D01*
X2448206Y2135757D01*
X2448296Y2135565D01*
X2448381Y2135371D01*
X2448462Y2135175D01*
X2448537Y2134977D01*
X2448608Y2134778D01*
X2448674Y2134576D01*
X2448735Y2134374D01*
X2448791Y2134169D01*
X2448842Y2133964D01*
X2448888Y2133757D01*
X2448930Y2133550D01*
X2448966Y2133341D01*
X2448997Y2133131D01*
X2449023Y2132921D01*
X2449044Y2132710D01*
X2449060Y2132499D01*
X2449070Y2132288D01*
X2449076Y2132076D01*
X2449076Y2065782D01*
X2449074Y2065713D01*
X2449069Y2065645D01*
X2449059Y2065577D01*
X2449046Y2065509D01*
X2449030Y2065442D01*
X2449010Y2065376D01*
X2448986Y2065312D01*
X2448959Y2065249D01*
X2448928Y2065187D01*
X2448894Y2065127D01*
X2448857Y2065069D01*
X2448817Y2065013D01*
X2448774Y2064960D01*
X2448728Y2064909D01*
X2448679Y2064860D01*
X2448628Y2064814D01*
X2448575Y2064771D01*
X2448519Y2064731D01*
X2448461Y2064694D01*
X2448401Y2064660D01*
X2448339Y2064629D01*
X2448276Y2064602D01*
X2448212Y2064578D01*
X2448146Y2064558D01*
X2448079Y2064542D01*
X2448011Y2064529D01*
X2447943Y2064519D01*
X2447875Y2064514D01*
X2447806Y2064512D01*
X2447243Y2064505D01*
X2446681Y2064484D01*
X2446120Y2064450D01*
X2445559Y2064402D01*
X2445000Y2064340D01*
X2444443Y2064264D01*
X2443887Y2064175D01*
X2443334Y2064072D01*
X2442783Y2063956D01*
X2442236Y2063826D01*
X2441692Y2063683D01*
X2441152Y2063527D01*
X2440615Y2063357D01*
X2440083Y2063174D01*
X2439556Y2062979D01*
X2439033Y2062770D01*
X2438516Y2062549D01*
X2438004Y2062315D01*
X2437498Y2062069D01*
X2436999Y2061810D01*
X2436506Y2061539D01*
X2436019Y2061256D01*
X2435540Y2060962D01*
X2435068Y2060655D01*
X2434604Y2060338D01*
X2434148Y2060009D01*
X2433699Y2059668D01*
X2433260Y2059317D01*
X2432829Y2058956D01*
X2432407Y2058584D01*
X2431994Y2058201D01*
X2431591Y2057809D01*
X2431198Y2057407D01*
X2430814Y2056995D01*
X2430441Y2056574D01*
X2430078Y2056144D01*
X2429726Y2055706D01*
X2429384Y2055259D01*
X2429054Y2054803D01*
X2428735Y2054340D01*
X2428427Y2053869D01*
X2428131Y2053390D01*
X2427847Y2052905D01*
X2427575Y2052413D01*
X2427315Y2051914D01*
X2427067Y2051409D01*
X2426831Y2050898D01*
X2426609Y2050381D01*
X2426399Y2049859D01*
X2426202Y2049332D01*
X2426017Y2048801D01*
X2425846Y2048265D01*
X2425688Y2047725D01*
X2425544Y2047181D01*
X2425412Y2046634D01*
X2425294Y2046084D01*
X2425190Y2045531D01*
X2425099Y2044976D01*
X2425022Y2044419D01*
X2424959Y2043860D01*
X2424909Y2043299D01*
X2424873Y2042738D01*
X2424851Y2042176D01*
X2424842Y2041613D01*
X2424847Y2041050D01*
X2424866Y2040488D01*
X2424899Y2039927D01*
X2424946Y2039366D01*
X2424953Y2038807D01*
X2424973Y2038249D01*
X2425007Y2037692D01*
X2425054Y2037135D01*
X2425115Y2036580D01*
X2425189Y2036026D01*
X2425276Y2035475D01*
X2425377Y2034925D01*
X2425491Y2034378D01*
X2425618Y2033834D01*
X2425758Y2033294D01*
X2425911Y2032757D01*
X2426077Y2032223D01*
X2426256Y2031694D01*
X2426448Y2031170D01*
X2426652Y2030650D01*
X2426869Y2030135D01*
X2427099Y2029626D01*
X2427340Y2029122D01*
X2427594Y2028624D01*
X2427859Y2028133D01*
X2428136Y2027648D01*
X2428425Y2027170D01*
X2428726Y2026699D01*
X2429038Y2026236D01*
X2429360Y2025780D01*
X2429694Y2025332D01*
X2430039Y2024892D01*
X2430394Y2024461D01*
X2430759Y2024039D01*
X2431134Y2023625D01*
X2431520Y2023221D01*
X2431915Y2022826D01*
X2432319Y2022440D01*
X2432733Y2022065D01*
X2433155Y2021700D01*
X2433586Y2021345D01*
X2434026Y2021000D01*
X2434474Y2020666D01*
X2434930Y2020344D01*
X2435393Y2020032D01*
X2435864Y2019731D01*
X2436342Y2019442D01*
X2436827Y2019165D01*
X2437318Y2018900D01*
X2437816Y2018646D01*
X2438320Y2018405D01*
X2438829Y2018175D01*
X2439344Y2017958D01*
X2439864Y2017754D01*
X2440388Y2017562D01*
X2440917Y2017383D01*
X2441451Y2017217D01*
X2441988Y2017064D01*
X2442528Y2016924D01*
X2443072Y2016797D01*
X2443619Y2016683D01*
X2444169Y2016582D01*
X2444720Y2016495D01*
X2445274Y2016421D01*
X2445829Y2016360D01*
X2446386Y2016313D01*
X2446943Y2016279D01*
X2447501Y2016259D01*
X2448060Y2016252D01*
X2448121Y2016250D01*
X2448182Y2016245D01*
X2448243Y2016235D01*
X2448303Y2016222D01*
X2448362Y2016206D01*
X2448420Y2016186D01*
X2448477Y2016162D01*
X2448532Y2016136D01*
X2448586Y2016105D01*
X2448637Y2016072D01*
X2448687Y2016036D01*
X2448734Y2015996D01*
X2448778Y2015954D01*
X2448820Y2015910D01*
X2448860Y2015863D01*
X2448896Y2015813D01*
X2448929Y2015762D01*
X2448960Y2015708D01*
X2448986Y2015653D01*
X2449010Y2015596D01*
X2449030Y2015538D01*
X2449046Y2015479D01*
X2449059Y2015419D01*
X2449069Y2015358D01*
X2449074Y2015297D01*
X2449076Y2015236D01*
X2449076Y1947990D01*
X2449077Y1947990D02*
X2449075Y1947798D01*
X2449068Y1947606D01*
X2449056Y1947415D01*
X2449040Y1947224D01*
X2449019Y1947033D01*
X2448994Y1946843D01*
X2448964Y1946654D01*
X2448929Y1946465D01*
X2448890Y1946277D01*
X2448846Y1946090D01*
X2448798Y1945905D01*
X2448746Y1945720D01*
X2448688Y1945537D01*
X2448627Y1945355D01*
X2448561Y1945175D01*
X2448491Y1944997D01*
X2448416Y1944820D01*
X2448338Y1944645D01*
X2448255Y1944472D01*
X2448168Y1944301D01*
X2448077Y1944132D01*
X2447981Y1943966D01*
X2447882Y1943802D01*
X2447779Y1943640D01*
X2447672Y1943481D01*
X2447561Y1943324D01*
X2447446Y1943170D01*
X2447328Y1943019D01*
X2447206Y1942871D01*
X2447081Y1942726D01*
X2446952Y1942584D01*
X2446819Y1942445D01*
X2446684Y1942310D01*
X2446545Y1942177D01*
X2446403Y1942048D01*
X2446258Y1941923D01*
X2446110Y1941801D01*
X2445959Y1941683D01*
X2445805Y1941568D01*
X2445648Y1941457D01*
X2445489Y1941350D01*
X2445327Y1941247D01*
X2445163Y1941148D01*
X2444997Y1941052D01*
X2444828Y1940961D01*
X2444657Y1940874D01*
X2444484Y1940791D01*
X2444309Y1940713D01*
X2444132Y1940638D01*
X2443954Y1940568D01*
X2443774Y1940502D01*
X2443592Y1940441D01*
X2443409Y1940383D01*
X2443224Y1940331D01*
X2443039Y1940283D01*
X2442852Y1940239D01*
X2442664Y1940200D01*
X2442475Y1940165D01*
X2442286Y1940135D01*
X2442096Y1940110D01*
X2441905Y1940089D01*
X2441714Y1940073D01*
X2441523Y1940061D01*
X2441331Y1940054D01*
X2441139Y1940052D01*
X2303280Y1940052D01*
X2303534Y2140458D01*
X2329696Y2140712D01*
X2159770Y1912112D02*
X2159337Y1912109D01*
X2158905Y1912097D01*
X2158473Y1912074D01*
X2158041Y1912040D01*
X2157611Y1911996D01*
X2157181Y1911942D01*
X2156753Y1911877D01*
X2156327Y1911802D01*
X2155903Y1911717D01*
X2155481Y1911622D01*
X2155061Y1911516D01*
X2154644Y1911400D01*
X2154230Y1911274D01*
X2153819Y1911139D01*
X2153412Y1910993D01*
X2153008Y1910837D01*
X2152608Y1910672D01*
X2152212Y1910498D01*
X2151821Y1910313D01*
X2151434Y1910119D01*
X2151052Y1909916D01*
X2150675Y1909704D01*
X2150303Y1909483D01*
X2149936Y1909253D01*
X2149575Y1909014D01*
X2149221Y1908766D01*
X2148872Y1908510D01*
X2148529Y1908246D01*
X2148193Y1907973D01*
X2147864Y1907692D01*
X2147541Y1907404D01*
X2147226Y1907108D01*
X2146918Y1906804D01*
X2146617Y1906493D01*
X2146324Y1906174D01*
X2146039Y1905849D01*
X2145761Y1905517D01*
X2145492Y1905178D01*
X2145231Y1904833D01*
X2144978Y1904482D01*
X2144734Y1904124D01*
X2144499Y1903761D01*
X2144272Y1903392D01*
X2144055Y1903018D01*
X2143847Y1902639D01*
X2143647Y1902255D01*
X2143458Y1901866D01*
X2143277Y1901473D01*
X2143106Y1901075D01*
X2142945Y1900673D01*
X2142794Y1900268D01*
X2142652Y1899859D01*
X2142520Y1899447D01*
X2142399Y1899032D01*
X2142287Y1898614D01*
X2142186Y1898193D01*
X2142094Y1897770D01*
X2142013Y1897345D01*
X2141943Y1896918D01*
X2141882Y1896489D01*
X2141832Y1896060D01*
X2141793Y1895629D01*
X2141763Y1895197D01*
X2141745Y1894765D01*
X2141736Y1894332D01*
X2159770Y1912112D02*
X2162056Y1912112D01*
X2162489Y1912109D01*
X2162921Y1912097D01*
X2163353Y1912074D01*
X2163785Y1912040D01*
X2164215Y1911996D01*
X2164645Y1911942D01*
X2165073Y1911877D01*
X2165499Y1911802D01*
X2165923Y1911717D01*
X2166345Y1911622D01*
X2166765Y1911516D01*
X2167182Y1911400D01*
X2167596Y1911274D01*
X2168007Y1911139D01*
X2168414Y1910993D01*
X2168818Y1910837D01*
X2169218Y1910672D01*
X2169614Y1910498D01*
X2170005Y1910313D01*
X2170392Y1910119D01*
X2170774Y1909916D01*
X2171151Y1909704D01*
X2171523Y1909483D01*
X2171890Y1909253D01*
X2172251Y1909014D01*
X2172605Y1908766D01*
X2172954Y1908510D01*
X2173297Y1908246D01*
X2173633Y1907973D01*
X2173962Y1907692D01*
X2174285Y1907404D01*
X2174600Y1907108D01*
X2174908Y1906804D01*
X2175209Y1906493D01*
X2175502Y1906174D01*
X2175787Y1905849D01*
X2176065Y1905517D01*
X2176334Y1905178D01*
X2176595Y1904833D01*
X2176848Y1904482D01*
X2177092Y1904124D01*
X2177327Y1903761D01*
X2177554Y1903392D01*
X2177771Y1903018D01*
X2177979Y1902639D01*
X2178179Y1902255D01*
X2178368Y1901866D01*
X2178549Y1901473D01*
X2178720Y1901075D01*
X2178881Y1900673D01*
X2179032Y1900268D01*
X2179174Y1899859D01*
X2179306Y1899447D01*
X2179427Y1899032D01*
X2179539Y1898614D01*
X2179640Y1898193D01*
X2179732Y1897770D01*
X2179813Y1897345D01*
X2179883Y1896918D01*
X2179944Y1896489D01*
X2179994Y1896060D01*
X2180033Y1895629D01*
X2180063Y1895197D01*
X2180081Y1894765D01*
X2180090Y1894332D01*
X2252226Y1894332D01*
X2252438Y1894333D01*
X2252650Y1894328D01*
X2252861Y1894318D01*
X2253072Y1894303D01*
X2253283Y1894283D01*
X2253494Y1894258D01*
X2253703Y1894228D01*
X2253912Y1894193D01*
X2254120Y1894153D01*
X2254327Y1894108D01*
X2254533Y1894058D01*
X2254737Y1894003D01*
X2254940Y1893942D01*
X2255142Y1893877D01*
X2255342Y1893808D01*
X2255540Y1893733D01*
X2255736Y1893654D01*
X2255931Y1893570D01*
X2256123Y1893481D01*
X2256313Y1893387D01*
X2256501Y1893289D01*
X2256686Y1893187D01*
X2256869Y1893080D01*
X2257049Y1892969D01*
X2257226Y1892853D01*
X2257401Y1892733D01*
X2257573Y1892609D01*
X2257741Y1892481D01*
X2257907Y1892349D01*
X2258069Y1892212D01*
X2258228Y1892072D01*
X2258383Y1891929D01*
X2258535Y1891781D01*
X2258683Y1891630D01*
X2258828Y1891475D01*
X2258969Y1891317D01*
X2259106Y1891155D01*
X2259239Y1890991D01*
X2259368Y1890823D01*
X2259493Y1890652D01*
X2259613Y1890478D01*
X2259730Y1890301D01*
X2259842Y1890121D01*
X2259950Y1889939D01*
X2260053Y1889754D01*
X2260152Y1889567D01*
X2260246Y1889377D01*
X2260336Y1889185D01*
X2260421Y1888991D01*
X2260502Y1888795D01*
X2260577Y1888597D01*
X2260648Y1888398D01*
X2260714Y1888196D01*
X2260775Y1887994D01*
X2260831Y1887789D01*
X2260882Y1887584D01*
X2260928Y1887377D01*
X2260970Y1887170D01*
X2261006Y1886961D01*
X2261037Y1886751D01*
X2261063Y1886541D01*
X2261084Y1886330D01*
X2261100Y1886119D01*
X2261110Y1885908D01*
X2261116Y1885696D01*
X2261116Y1819402D01*
X2261114Y1819333D01*
X2261109Y1819265D01*
X2261099Y1819197D01*
X2261086Y1819129D01*
X2261070Y1819062D01*
X2261050Y1818996D01*
X2261026Y1818932D01*
X2260999Y1818869D01*
X2260968Y1818807D01*
X2260934Y1818747D01*
X2260897Y1818689D01*
X2260857Y1818633D01*
X2260814Y1818580D01*
X2260768Y1818529D01*
X2260719Y1818480D01*
X2260668Y1818434D01*
X2260615Y1818391D01*
X2260559Y1818351D01*
X2260501Y1818314D01*
X2260441Y1818280D01*
X2260379Y1818249D01*
X2260316Y1818222D01*
X2260252Y1818198D01*
X2260186Y1818178D01*
X2260119Y1818162D01*
X2260051Y1818149D01*
X2259983Y1818139D01*
X2259915Y1818134D01*
X2259846Y1818132D01*
X2259283Y1818125D01*
X2258721Y1818104D01*
X2258160Y1818070D01*
X2257599Y1818022D01*
X2257040Y1817960D01*
X2256483Y1817884D01*
X2255927Y1817795D01*
X2255374Y1817692D01*
X2254823Y1817576D01*
X2254276Y1817446D01*
X2253732Y1817303D01*
X2253192Y1817147D01*
X2252655Y1816977D01*
X2252123Y1816794D01*
X2251596Y1816599D01*
X2251073Y1816390D01*
X2250556Y1816169D01*
X2250044Y1815935D01*
X2249538Y1815689D01*
X2249039Y1815430D01*
X2248546Y1815159D01*
X2248059Y1814876D01*
X2247580Y1814582D01*
X2247108Y1814275D01*
X2246644Y1813958D01*
X2246188Y1813629D01*
X2245739Y1813288D01*
X2245300Y1812937D01*
X2244869Y1812576D01*
X2244447Y1812204D01*
X2244034Y1811821D01*
X2243631Y1811429D01*
X2243238Y1811027D01*
X2242854Y1810615D01*
X2242481Y1810194D01*
X2242118Y1809764D01*
X2241766Y1809326D01*
X2241424Y1808879D01*
X2241094Y1808423D01*
X2240775Y1807960D01*
X2240467Y1807489D01*
X2240171Y1807010D01*
X2239887Y1806525D01*
X2239615Y1806033D01*
X2239355Y1805534D01*
X2239107Y1805029D01*
X2238871Y1804518D01*
X2238649Y1804001D01*
X2238439Y1803479D01*
X2238242Y1802952D01*
X2238057Y1802421D01*
X2237886Y1801885D01*
X2237728Y1801345D01*
X2237584Y1800801D01*
X2237452Y1800254D01*
X2237334Y1799704D01*
X2237230Y1799151D01*
X2237139Y1798596D01*
X2237062Y1798039D01*
X2236999Y1797480D01*
X2236949Y1796919D01*
X2236913Y1796358D01*
X2236891Y1795796D01*
X2236882Y1795233D01*
X2236887Y1794670D01*
X2236906Y1794108D01*
X2236939Y1793547D01*
X2236986Y1792986D01*
X2236993Y1792427D01*
X2237013Y1791869D01*
X2237047Y1791312D01*
X2237094Y1790755D01*
X2237155Y1790200D01*
X2237229Y1789646D01*
X2237316Y1789095D01*
X2237417Y1788545D01*
X2237531Y1787998D01*
X2237658Y1787454D01*
X2237798Y1786914D01*
X2237951Y1786377D01*
X2238117Y1785843D01*
X2238296Y1785314D01*
X2238488Y1784790D01*
X2238692Y1784270D01*
X2238909Y1783755D01*
X2239139Y1783246D01*
X2239380Y1782742D01*
X2239634Y1782244D01*
X2239899Y1781753D01*
X2240176Y1781268D01*
X2240465Y1780790D01*
X2240766Y1780319D01*
X2241078Y1779856D01*
X2241400Y1779400D01*
X2241734Y1778952D01*
X2242079Y1778512D01*
X2242434Y1778081D01*
X2242799Y1777659D01*
X2243174Y1777245D01*
X2243560Y1776841D01*
X2243955Y1776446D01*
X2244359Y1776060D01*
X2244773Y1775685D01*
X2245195Y1775320D01*
X2245626Y1774965D01*
X2246066Y1774620D01*
X2246514Y1774286D01*
X2246970Y1773964D01*
X2247433Y1773652D01*
X2247904Y1773351D01*
X2248382Y1773062D01*
X2248867Y1772785D01*
X2249358Y1772520D01*
X2249856Y1772266D01*
X2250360Y1772025D01*
X2250869Y1771795D01*
X2251384Y1771578D01*
X2251904Y1771374D01*
X2252428Y1771182D01*
X2252957Y1771003D01*
X2253491Y1770837D01*
X2254028Y1770684D01*
X2254568Y1770544D01*
X2255112Y1770417D01*
X2255659Y1770303D01*
X2256209Y1770202D01*
X2256760Y1770115D01*
X2257314Y1770041D01*
X2257869Y1769980D01*
X2258426Y1769933D01*
X2258983Y1769899D01*
X2259541Y1769879D01*
X2260100Y1769872D01*
X2260161Y1769870D01*
X2260222Y1769865D01*
X2260283Y1769855D01*
X2260343Y1769842D01*
X2260402Y1769826D01*
X2260460Y1769806D01*
X2260517Y1769782D01*
X2260572Y1769756D01*
X2260626Y1769725D01*
X2260677Y1769692D01*
X2260727Y1769656D01*
X2260774Y1769616D01*
X2260818Y1769574D01*
X2260860Y1769530D01*
X2260900Y1769483D01*
X2260936Y1769433D01*
X2260969Y1769382D01*
X2261000Y1769328D01*
X2261026Y1769273D01*
X2261050Y1769216D01*
X2261070Y1769158D01*
X2261086Y1769099D01*
X2261099Y1769039D01*
X2261109Y1768978D01*
X2261114Y1768917D01*
X2261116Y1768856D01*
X2261116Y1701610D01*
X2261117Y1701610D02*
X2261115Y1701418D01*
X2261108Y1701226D01*
X2261096Y1701035D01*
X2261080Y1700844D01*
X2261059Y1700653D01*
X2261034Y1700463D01*
X2261004Y1700274D01*
X2260969Y1700085D01*
X2260930Y1699897D01*
X2260886Y1699710D01*
X2260838Y1699525D01*
X2260786Y1699340D01*
X2260728Y1699157D01*
X2260667Y1698975D01*
X2260601Y1698795D01*
X2260531Y1698617D01*
X2260456Y1698440D01*
X2260378Y1698265D01*
X2260295Y1698092D01*
X2260208Y1697921D01*
X2260117Y1697752D01*
X2260021Y1697586D01*
X2259922Y1697422D01*
X2259819Y1697260D01*
X2259712Y1697101D01*
X2259601Y1696944D01*
X2259486Y1696790D01*
X2259368Y1696639D01*
X2259246Y1696491D01*
X2259121Y1696346D01*
X2258992Y1696204D01*
X2258859Y1696065D01*
X2258724Y1695930D01*
X2258585Y1695797D01*
X2258443Y1695668D01*
X2258298Y1695543D01*
X2258150Y1695421D01*
X2257999Y1695303D01*
X2257845Y1695188D01*
X2257688Y1695077D01*
X2257529Y1694970D01*
X2257367Y1694867D01*
X2257203Y1694768D01*
X2257037Y1694672D01*
X2256868Y1694581D01*
X2256697Y1694494D01*
X2256524Y1694411D01*
X2256349Y1694333D01*
X2256172Y1694258D01*
X2255994Y1694188D01*
X2255814Y1694122D01*
X2255632Y1694061D01*
X2255449Y1694003D01*
X2255264Y1693951D01*
X2255079Y1693903D01*
X2254892Y1693859D01*
X2254704Y1693820D01*
X2254515Y1693785D01*
X2254326Y1693755D01*
X2254136Y1693730D01*
X2253945Y1693709D01*
X2253754Y1693693D01*
X2253563Y1693681D01*
X2253371Y1693674D01*
X2253179Y1693672D01*
X2115320Y1693672D01*
X2115574Y1894078D01*
X2141736Y1894332D01*
X2329696Y1894332D02*
X2329705Y1894765D01*
X2329723Y1895197D01*
X2329753Y1895629D01*
X2329792Y1896060D01*
X2329842Y1896489D01*
X2329903Y1896918D01*
X2329973Y1897345D01*
X2330054Y1897770D01*
X2330146Y1898193D01*
X2330247Y1898614D01*
X2330359Y1899032D01*
X2330480Y1899447D01*
X2330612Y1899859D01*
X2330754Y1900268D01*
X2330905Y1900673D01*
X2331066Y1901075D01*
X2331237Y1901473D01*
X2331418Y1901866D01*
X2331607Y1902255D01*
X2331807Y1902639D01*
X2332015Y1903018D01*
X2332232Y1903392D01*
X2332459Y1903761D01*
X2332694Y1904124D01*
X2332938Y1904482D01*
X2333191Y1904833D01*
X2333452Y1905178D01*
X2333721Y1905517D01*
X2333999Y1905849D01*
X2334284Y1906174D01*
X2334577Y1906493D01*
X2334878Y1906804D01*
X2335186Y1907108D01*
X2335501Y1907404D01*
X2335824Y1907692D01*
X2336153Y1907973D01*
X2336489Y1908246D01*
X2336832Y1908510D01*
X2337181Y1908766D01*
X2337535Y1909014D01*
X2337896Y1909253D01*
X2338263Y1909483D01*
X2338635Y1909704D01*
X2339012Y1909916D01*
X2339394Y1910119D01*
X2339781Y1910313D01*
X2340172Y1910498D01*
X2340568Y1910672D01*
X2340968Y1910837D01*
X2341372Y1910993D01*
X2341779Y1911139D01*
X2342190Y1911274D01*
X2342604Y1911400D01*
X2343021Y1911516D01*
X2343441Y1911622D01*
X2343863Y1911717D01*
X2344287Y1911802D01*
X2344713Y1911877D01*
X2345141Y1911942D01*
X2345571Y1911996D01*
X2346001Y1912040D01*
X2346433Y1912074D01*
X2346865Y1912097D01*
X2347297Y1912109D01*
X2347730Y1912112D01*
X2350016Y1912112D01*
X2350449Y1912109D01*
X2350881Y1912097D01*
X2351313Y1912074D01*
X2351745Y1912040D01*
X2352175Y1911996D01*
X2352605Y1911942D01*
X2353033Y1911877D01*
X2353459Y1911802D01*
X2353883Y1911717D01*
X2354305Y1911622D01*
X2354725Y1911516D01*
X2355142Y1911400D01*
X2355556Y1911274D01*
X2355967Y1911139D01*
X2356374Y1910993D01*
X2356778Y1910837D01*
X2357178Y1910672D01*
X2357574Y1910498D01*
X2357965Y1910313D01*
X2358352Y1910119D01*
X2358734Y1909916D01*
X2359111Y1909704D01*
X2359483Y1909483D01*
X2359850Y1909253D01*
X2360211Y1909014D01*
X2360565Y1908766D01*
X2360914Y1908510D01*
X2361257Y1908246D01*
X2361593Y1907973D01*
X2361922Y1907692D01*
X2362245Y1907404D01*
X2362560Y1907108D01*
X2362868Y1906804D01*
X2363169Y1906493D01*
X2363462Y1906174D01*
X2363747Y1905849D01*
X2364025Y1905517D01*
X2364294Y1905178D01*
X2364555Y1904833D01*
X2364808Y1904482D01*
X2365052Y1904124D01*
X2365287Y1903761D01*
X2365514Y1903392D01*
X2365731Y1903018D01*
X2365939Y1902639D01*
X2366139Y1902255D01*
X2366328Y1901866D01*
X2366509Y1901473D01*
X2366680Y1901075D01*
X2366841Y1900673D01*
X2366992Y1900268D01*
X2367134Y1899859D01*
X2367266Y1899447D01*
X2367387Y1899032D01*
X2367499Y1898614D01*
X2367600Y1898193D01*
X2367692Y1897770D01*
X2367773Y1897345D01*
X2367843Y1896918D01*
X2367904Y1896489D01*
X2367954Y1896060D01*
X2367993Y1895629D01*
X2368023Y1895197D01*
X2368041Y1894765D01*
X2368050Y1894332D01*
X2440186Y1894332D01*
X2440398Y1894333D01*
X2440610Y1894328D01*
X2440821Y1894318D01*
X2441032Y1894303D01*
X2441243Y1894283D01*
X2441454Y1894258D01*
X2441663Y1894228D01*
X2441872Y1894193D01*
X2442080Y1894153D01*
X2442287Y1894108D01*
X2442493Y1894058D01*
X2442697Y1894003D01*
X2442900Y1893942D01*
X2443102Y1893877D01*
X2443302Y1893808D01*
X2443500Y1893733D01*
X2443696Y1893654D01*
X2443891Y1893570D01*
X2444083Y1893481D01*
X2444273Y1893387D01*
X2444461Y1893289D01*
X2444646Y1893187D01*
X2444829Y1893080D01*
X2445009Y1892969D01*
X2445186Y1892853D01*
X2445361Y1892733D01*
X2445533Y1892609D01*
X2445701Y1892481D01*
X2445867Y1892349D01*
X2446029Y1892212D01*
X2446188Y1892072D01*
X2446343Y1891929D01*
X2446495Y1891781D01*
X2446643Y1891630D01*
X2446788Y1891475D01*
X2446929Y1891317D01*
X2447066Y1891155D01*
X2447199Y1890991D01*
X2447328Y1890823D01*
X2447453Y1890652D01*
X2447573Y1890478D01*
X2447690Y1890301D01*
X2447802Y1890121D01*
X2447910Y1889939D01*
X2448013Y1889754D01*
X2448112Y1889567D01*
X2448206Y1889377D01*
X2448296Y1889185D01*
X2448381Y1888991D01*
X2448462Y1888795D01*
X2448537Y1888597D01*
X2448608Y1888398D01*
X2448674Y1888196D01*
X2448735Y1887994D01*
X2448791Y1887789D01*
X2448842Y1887584D01*
X2448888Y1887377D01*
X2448930Y1887170D01*
X2448966Y1886961D01*
X2448997Y1886751D01*
X2449023Y1886541D01*
X2449044Y1886330D01*
X2449060Y1886119D01*
X2449070Y1885908D01*
X2449076Y1885696D01*
X2449076Y1819402D01*
X2449074Y1819333D01*
X2449069Y1819265D01*
X2449059Y1819197D01*
X2449046Y1819129D01*
X2449030Y1819062D01*
X2449010Y1818996D01*
X2448986Y1818932D01*
X2448959Y1818869D01*
X2448928Y1818807D01*
X2448894Y1818747D01*
X2448857Y1818689D01*
X2448817Y1818633D01*
X2448774Y1818580D01*
X2448728Y1818529D01*
X2448679Y1818480D01*
X2448628Y1818434D01*
X2448575Y1818391D01*
X2448519Y1818351D01*
X2448461Y1818314D01*
X2448401Y1818280D01*
X2448339Y1818249D01*
X2448276Y1818222D01*
X2448212Y1818198D01*
X2448146Y1818178D01*
X2448079Y1818162D01*
X2448011Y1818149D01*
X2447943Y1818139D01*
X2447875Y1818134D01*
X2447806Y1818132D01*
X2447243Y1818125D01*
X2446681Y1818104D01*
X2446120Y1818070D01*
X2445559Y1818022D01*
X2445000Y1817960D01*
X2444443Y1817884D01*
X2443887Y1817795D01*
X2443334Y1817692D01*
X2442783Y1817576D01*
X2442236Y1817446D01*
X2441692Y1817303D01*
X2441152Y1817147D01*
X2440615Y1816977D01*
X2440083Y1816794D01*
X2439556Y1816599D01*
X2439033Y1816390D01*
X2438516Y1816169D01*
X2438004Y1815935D01*
X2437498Y1815689D01*
X2436999Y1815430D01*
X2436506Y1815159D01*
X2436019Y1814876D01*
X2435540Y1814582D01*
X2435068Y1814275D01*
X2434604Y1813958D01*
X2434148Y1813629D01*
X2433699Y1813288D01*
X2433260Y1812937D01*
X2432829Y1812576D01*
X2432407Y1812204D01*
X2431994Y1811821D01*
X2431591Y1811429D01*
X2431198Y1811027D01*
X2430814Y1810615D01*
X2430441Y1810194D01*
X2430078Y1809764D01*
X2429726Y1809326D01*
X2429384Y1808879D01*
X2429054Y1808423D01*
X2428735Y1807960D01*
X2428427Y1807489D01*
X2428131Y1807010D01*
X2427847Y1806525D01*
X2427575Y1806033D01*
X2427315Y1805534D01*
X2427067Y1805029D01*
X2426831Y1804518D01*
X2426609Y1804001D01*
X2426399Y1803479D01*
X2426202Y1802952D01*
X2426017Y1802421D01*
X2425846Y1801885D01*
X2425688Y1801345D01*
X2425544Y1800801D01*
X2425412Y1800254D01*
X2425294Y1799704D01*
X2425190Y1799151D01*
X2425099Y1798596D01*
X2425022Y1798039D01*
X2424959Y1797480D01*
X2424909Y1796919D01*
X2424873Y1796358D01*
X2424851Y1795796D01*
X2424842Y1795233D01*
X2424847Y1794670D01*
X2424866Y1794108D01*
X2424899Y1793547D01*
X2424946Y1792986D01*
X2424953Y1792427D01*
X2424973Y1791869D01*
X2425007Y1791312D01*
X2425054Y1790755D01*
X2425115Y1790200D01*
X2425189Y1789646D01*
X2425276Y1789095D01*
X2425377Y1788545D01*
X2425491Y1787998D01*
X2425618Y1787454D01*
X2425758Y1786914D01*
X2425911Y1786377D01*
X2426077Y1785843D01*
X2426256Y1785314D01*
X2426448Y1784790D01*
X2426652Y1784270D01*
X2426869Y1783755D01*
X2427099Y1783246D01*
X2427340Y1782742D01*
X2427594Y1782244D01*
X2427859Y1781753D01*
X2428136Y1781268D01*
X2428425Y1780790D01*
X2428726Y1780319D01*
X2429038Y1779856D01*
X2429360Y1779400D01*
X2429694Y1778952D01*
X2430039Y1778512D01*
X2430394Y1778081D01*
X2430759Y1777659D01*
X2431134Y1777245D01*
X2431520Y1776841D01*
X2431915Y1776446D01*
X2432319Y1776060D01*
X2432733Y1775685D01*
X2433155Y1775320D01*
X2433586Y1774965D01*
X2434026Y1774620D01*
X2434474Y1774286D01*
X2434930Y1773964D01*
X2435393Y1773652D01*
X2435864Y1773351D01*
X2436342Y1773062D01*
X2436827Y1772785D01*
X2437318Y1772520D01*
X2437816Y1772266D01*
X2438320Y1772025D01*
X2438829Y1771795D01*
X2439344Y1771578D01*
X2439864Y1771374D01*
X2440388Y1771182D01*
X2440917Y1771003D01*
X2441451Y1770837D01*
X2441988Y1770684D01*
X2442528Y1770544D01*
X2443072Y1770417D01*
X2443619Y1770303D01*
X2444169Y1770202D01*
X2444720Y1770115D01*
X2445274Y1770041D01*
X2445829Y1769980D01*
X2446386Y1769933D01*
X2446943Y1769899D01*
X2447501Y1769879D01*
X2448060Y1769872D01*
X2448121Y1769870D01*
X2448182Y1769865D01*
X2448243Y1769855D01*
X2448303Y1769842D01*
X2448362Y1769826D01*
X2448420Y1769806D01*
X2448477Y1769782D01*
X2448532Y1769756D01*
X2448586Y1769725D01*
X2448637Y1769692D01*
X2448687Y1769656D01*
X2448734Y1769616D01*
X2448778Y1769574D01*
X2448820Y1769530D01*
X2448860Y1769483D01*
X2448896Y1769433D01*
X2448929Y1769382D01*
X2448960Y1769328D01*
X2448986Y1769273D01*
X2449010Y1769216D01*
X2449030Y1769158D01*
X2449046Y1769099D01*
X2449059Y1769039D01*
X2449069Y1768978D01*
X2449074Y1768917D01*
X2449076Y1768856D01*
X2449076Y1701610D01*
X2449077Y1701610D02*
X2449075Y1701418D01*
X2449068Y1701226D01*
X2449056Y1701035D01*
X2449040Y1700844D01*
X2449019Y1700653D01*
X2448994Y1700463D01*
X2448964Y1700274D01*
X2448929Y1700085D01*
X2448890Y1699897D01*
X2448846Y1699710D01*
X2448798Y1699525D01*
X2448746Y1699340D01*
X2448688Y1699157D01*
X2448627Y1698975D01*
X2448561Y1698795D01*
X2448491Y1698617D01*
X2448416Y1698440D01*
X2448338Y1698265D01*
X2448255Y1698092D01*
X2448168Y1697921D01*
X2448077Y1697752D01*
X2447981Y1697586D01*
X2447882Y1697422D01*
X2447779Y1697260D01*
X2447672Y1697101D01*
X2447561Y1696944D01*
X2447446Y1696790D01*
X2447328Y1696639D01*
X2447206Y1696491D01*
X2447081Y1696346D01*
X2446952Y1696204D01*
X2446819Y1696065D01*
X2446684Y1695930D01*
X2446545Y1695797D01*
X2446403Y1695668D01*
X2446258Y1695543D01*
X2446110Y1695421D01*
X2445959Y1695303D01*
X2445805Y1695188D01*
X2445648Y1695077D01*
X2445489Y1694970D01*
X2445327Y1694867D01*
X2445163Y1694768D01*
X2444997Y1694672D01*
X2444828Y1694581D01*
X2444657Y1694494D01*
X2444484Y1694411D01*
X2444309Y1694333D01*
X2444132Y1694258D01*
X2443954Y1694188D01*
X2443774Y1694122D01*
X2443592Y1694061D01*
X2443409Y1694003D01*
X2443224Y1693951D01*
X2443039Y1693903D01*
X2442852Y1693859D01*
X2442664Y1693820D01*
X2442475Y1693785D01*
X2442286Y1693755D01*
X2442096Y1693730D01*
X2441905Y1693709D01*
X2441714Y1693693D01*
X2441523Y1693681D01*
X2441331Y1693674D01*
X2441139Y1693672D01*
X2303280Y1693672D01*
X2303534Y1894078D01*
X2329696Y1894332D01*
X2517656Y1896872D02*
X2517665Y1897305D01*
X2517683Y1897737D01*
X2517713Y1898169D01*
X2517752Y1898600D01*
X2517802Y1899029D01*
X2517863Y1899458D01*
X2517933Y1899885D01*
X2518014Y1900310D01*
X2518106Y1900733D01*
X2518207Y1901154D01*
X2518319Y1901572D01*
X2518440Y1901987D01*
X2518572Y1902399D01*
X2518714Y1902808D01*
X2518865Y1903213D01*
X2519026Y1903615D01*
X2519197Y1904013D01*
X2519378Y1904406D01*
X2519567Y1904795D01*
X2519767Y1905179D01*
X2519975Y1905558D01*
X2520192Y1905932D01*
X2520419Y1906301D01*
X2520654Y1906664D01*
X2520898Y1907022D01*
X2521151Y1907373D01*
X2521412Y1907718D01*
X2521681Y1908057D01*
X2521959Y1908389D01*
X2522244Y1908714D01*
X2522537Y1909033D01*
X2522838Y1909344D01*
X2523146Y1909648D01*
X2523461Y1909944D01*
X2523784Y1910232D01*
X2524113Y1910513D01*
X2524449Y1910786D01*
X2524792Y1911050D01*
X2525141Y1911306D01*
X2525495Y1911554D01*
X2525856Y1911793D01*
X2526223Y1912023D01*
X2526595Y1912244D01*
X2526972Y1912456D01*
X2527354Y1912659D01*
X2527741Y1912853D01*
X2528132Y1913038D01*
X2528528Y1913212D01*
X2528928Y1913377D01*
X2529332Y1913533D01*
X2529739Y1913679D01*
X2530150Y1913814D01*
X2530564Y1913940D01*
X2530981Y1914056D01*
X2531401Y1914162D01*
X2531823Y1914257D01*
X2532247Y1914342D01*
X2532673Y1914417D01*
X2533101Y1914482D01*
X2533531Y1914536D01*
X2533961Y1914580D01*
X2534393Y1914614D01*
X2534825Y1914637D01*
X2535257Y1914649D01*
X2535690Y1914652D01*
X2537976Y1914652D01*
X2538409Y1914649D01*
X2538841Y1914637D01*
X2539273Y1914614D01*
X2539705Y1914580D01*
X2540135Y1914536D01*
X2540565Y1914482D01*
X2540993Y1914417D01*
X2541419Y1914342D01*
X2541843Y1914257D01*
X2542265Y1914162D01*
X2542685Y1914056D01*
X2543102Y1913940D01*
X2543516Y1913814D01*
X2543927Y1913679D01*
X2544334Y1913533D01*
X2544738Y1913377D01*
X2545138Y1913212D01*
X2545534Y1913038D01*
X2545925Y1912853D01*
X2546312Y1912659D01*
X2546694Y1912456D01*
X2547071Y1912244D01*
X2547443Y1912023D01*
X2547810Y1911793D01*
X2548171Y1911554D01*
X2548525Y1911306D01*
X2548874Y1911050D01*
X2549217Y1910786D01*
X2549553Y1910513D01*
X2549882Y1910232D01*
X2550205Y1909944D01*
X2550520Y1909648D01*
X2550828Y1909344D01*
X2551129Y1909033D01*
X2551422Y1908714D01*
X2551707Y1908389D01*
X2551985Y1908057D01*
X2552254Y1907718D01*
X2552515Y1907373D01*
X2552768Y1907022D01*
X2553012Y1906664D01*
X2553247Y1906301D01*
X2553474Y1905932D01*
X2553691Y1905558D01*
X2553899Y1905179D01*
X2554099Y1904795D01*
X2554288Y1904406D01*
X2554469Y1904013D01*
X2554640Y1903615D01*
X2554801Y1903213D01*
X2554952Y1902808D01*
X2555094Y1902399D01*
X2555226Y1901987D01*
X2555347Y1901572D01*
X2555459Y1901154D01*
X2555560Y1900733D01*
X2555652Y1900310D01*
X2555733Y1899885D01*
X2555803Y1899458D01*
X2555864Y1899029D01*
X2555914Y1898600D01*
X2555953Y1898169D01*
X2555983Y1897737D01*
X2556001Y1897305D01*
X2556010Y1896872D01*
X2628146Y1896872D01*
X2628358Y1896873D01*
X2628570Y1896868D01*
X2628781Y1896858D01*
X2628992Y1896843D01*
X2629203Y1896823D01*
X2629414Y1896798D01*
X2629623Y1896768D01*
X2629832Y1896733D01*
X2630040Y1896693D01*
X2630247Y1896648D01*
X2630453Y1896598D01*
X2630657Y1896543D01*
X2630860Y1896482D01*
X2631062Y1896417D01*
X2631262Y1896348D01*
X2631460Y1896273D01*
X2631656Y1896194D01*
X2631851Y1896110D01*
X2632043Y1896021D01*
X2632233Y1895927D01*
X2632421Y1895829D01*
X2632606Y1895727D01*
X2632789Y1895620D01*
X2632969Y1895509D01*
X2633146Y1895393D01*
X2633321Y1895273D01*
X2633493Y1895149D01*
X2633661Y1895021D01*
X2633827Y1894889D01*
X2633989Y1894752D01*
X2634148Y1894612D01*
X2634303Y1894469D01*
X2634455Y1894321D01*
X2634603Y1894170D01*
X2634748Y1894015D01*
X2634889Y1893857D01*
X2635026Y1893695D01*
X2635159Y1893531D01*
X2635288Y1893363D01*
X2635413Y1893192D01*
X2635533Y1893018D01*
X2635650Y1892841D01*
X2635762Y1892661D01*
X2635870Y1892479D01*
X2635973Y1892294D01*
X2636072Y1892107D01*
X2636166Y1891917D01*
X2636256Y1891725D01*
X2636341Y1891531D01*
X2636422Y1891335D01*
X2636497Y1891137D01*
X2636568Y1890938D01*
X2636634Y1890736D01*
X2636695Y1890534D01*
X2636751Y1890329D01*
X2636802Y1890124D01*
X2636848Y1889917D01*
X2636890Y1889710D01*
X2636926Y1889501D01*
X2636957Y1889291D01*
X2636983Y1889081D01*
X2637004Y1888870D01*
X2637020Y1888659D01*
X2637030Y1888448D01*
X2637036Y1888236D01*
X2637036Y1821942D01*
X2637034Y1821873D01*
X2637029Y1821805D01*
X2637019Y1821737D01*
X2637006Y1821669D01*
X2636990Y1821602D01*
X2636970Y1821536D01*
X2636946Y1821472D01*
X2636919Y1821409D01*
X2636888Y1821347D01*
X2636854Y1821287D01*
X2636817Y1821229D01*
X2636777Y1821173D01*
X2636734Y1821120D01*
X2636688Y1821069D01*
X2636639Y1821020D01*
X2636588Y1820974D01*
X2636535Y1820931D01*
X2636479Y1820891D01*
X2636421Y1820854D01*
X2636361Y1820820D01*
X2636299Y1820789D01*
X2636236Y1820762D01*
X2636172Y1820738D01*
X2636106Y1820718D01*
X2636039Y1820702D01*
X2635971Y1820689D01*
X2635903Y1820679D01*
X2635835Y1820674D01*
X2635766Y1820672D01*
X2635203Y1820665D01*
X2634641Y1820644D01*
X2634080Y1820610D01*
X2633519Y1820562D01*
X2632960Y1820500D01*
X2632403Y1820424D01*
X2631847Y1820335D01*
X2631294Y1820232D01*
X2630743Y1820116D01*
X2630196Y1819986D01*
X2629652Y1819843D01*
X2629112Y1819687D01*
X2628575Y1819517D01*
X2628043Y1819334D01*
X2627516Y1819139D01*
X2626993Y1818930D01*
X2626476Y1818709D01*
X2625964Y1818475D01*
X2625458Y1818229D01*
X2624959Y1817970D01*
X2624466Y1817699D01*
X2623979Y1817416D01*
X2623500Y1817122D01*
X2623028Y1816815D01*
X2622564Y1816498D01*
X2622108Y1816169D01*
X2621659Y1815828D01*
X2621220Y1815477D01*
X2620789Y1815116D01*
X2620367Y1814744D01*
X2619954Y1814361D01*
X2619551Y1813969D01*
X2619158Y1813567D01*
X2618774Y1813155D01*
X2618401Y1812734D01*
X2618038Y1812304D01*
X2617686Y1811866D01*
X2617344Y1811419D01*
X2617014Y1810963D01*
X2616695Y1810500D01*
X2616387Y1810029D01*
X2616091Y1809550D01*
X2615807Y1809065D01*
X2615535Y1808573D01*
X2615275Y1808074D01*
X2615027Y1807569D01*
X2614791Y1807058D01*
X2614569Y1806541D01*
X2614359Y1806019D01*
X2614162Y1805492D01*
X2613977Y1804961D01*
X2613806Y1804425D01*
X2613648Y1803885D01*
X2613504Y1803341D01*
X2613372Y1802794D01*
X2613254Y1802244D01*
X2613150Y1801691D01*
X2613059Y1801136D01*
X2612982Y1800579D01*
X2612919Y1800020D01*
X2612869Y1799459D01*
X2612833Y1798898D01*
X2612811Y1798336D01*
X2612802Y1797773D01*
X2612807Y1797210D01*
X2612826Y1796648D01*
X2612859Y1796087D01*
X2612906Y1795526D01*
X2612913Y1794967D01*
X2612933Y1794409D01*
X2612967Y1793852D01*
X2613014Y1793295D01*
X2613075Y1792740D01*
X2613149Y1792186D01*
X2613236Y1791635D01*
X2613337Y1791085D01*
X2613451Y1790538D01*
X2613578Y1789994D01*
X2613718Y1789454D01*
X2613871Y1788917D01*
X2614037Y1788383D01*
X2614216Y1787854D01*
X2614408Y1787330D01*
X2614612Y1786810D01*
X2614829Y1786295D01*
X2615059Y1785786D01*
X2615300Y1785282D01*
X2615554Y1784784D01*
X2615819Y1784293D01*
X2616096Y1783808D01*
X2616385Y1783330D01*
X2616686Y1782859D01*
X2616998Y1782396D01*
X2617320Y1781940D01*
X2617654Y1781492D01*
X2617999Y1781052D01*
X2618354Y1780621D01*
X2618719Y1780199D01*
X2619094Y1779785D01*
X2619480Y1779381D01*
X2619875Y1778986D01*
X2620279Y1778600D01*
X2620693Y1778225D01*
X2621115Y1777860D01*
X2621546Y1777505D01*
X2621986Y1777160D01*
X2622434Y1776826D01*
X2622890Y1776504D01*
X2623353Y1776192D01*
X2623824Y1775891D01*
X2624302Y1775602D01*
X2624787Y1775325D01*
X2625278Y1775060D01*
X2625776Y1774806D01*
X2626280Y1774565D01*
X2626789Y1774335D01*
X2627304Y1774118D01*
X2627824Y1773914D01*
X2628348Y1773722D01*
X2628877Y1773543D01*
X2629411Y1773377D01*
X2629948Y1773224D01*
X2630488Y1773084D01*
X2631032Y1772957D01*
X2631579Y1772843D01*
X2632129Y1772742D01*
X2632680Y1772655D01*
X2633234Y1772581D01*
X2633789Y1772520D01*
X2634346Y1772473D01*
X2634903Y1772439D01*
X2635461Y1772419D01*
X2636020Y1772412D01*
X2636081Y1772410D01*
X2636142Y1772405D01*
X2636203Y1772395D01*
X2636263Y1772382D01*
X2636322Y1772366D01*
X2636380Y1772346D01*
X2636437Y1772322D01*
X2636492Y1772296D01*
X2636546Y1772265D01*
X2636597Y1772232D01*
X2636647Y1772196D01*
X2636694Y1772156D01*
X2636738Y1772114D01*
X2636780Y1772070D01*
X2636820Y1772023D01*
X2636856Y1771973D01*
X2636889Y1771922D01*
X2636920Y1771868D01*
X2636946Y1771813D01*
X2636970Y1771756D01*
X2636990Y1771698D01*
X2637006Y1771639D01*
X2637019Y1771579D01*
X2637029Y1771518D01*
X2637034Y1771457D01*
X2637036Y1771396D01*
X2637036Y1704150D01*
X2637037Y1704150D02*
X2637035Y1703958D01*
X2637028Y1703766D01*
X2637016Y1703575D01*
X2637000Y1703384D01*
X2636979Y1703193D01*
X2636954Y1703003D01*
X2636924Y1702814D01*
X2636889Y1702625D01*
X2636850Y1702437D01*
X2636806Y1702250D01*
X2636758Y1702065D01*
X2636706Y1701880D01*
X2636648Y1701697D01*
X2636587Y1701515D01*
X2636521Y1701335D01*
X2636451Y1701157D01*
X2636376Y1700980D01*
X2636298Y1700805D01*
X2636215Y1700632D01*
X2636128Y1700461D01*
X2636037Y1700292D01*
X2635941Y1700126D01*
X2635842Y1699962D01*
X2635739Y1699800D01*
X2635632Y1699641D01*
X2635521Y1699484D01*
X2635406Y1699330D01*
X2635288Y1699179D01*
X2635166Y1699031D01*
X2635041Y1698886D01*
X2634912Y1698744D01*
X2634779Y1698605D01*
X2634644Y1698470D01*
X2634505Y1698337D01*
X2634363Y1698208D01*
X2634218Y1698083D01*
X2634070Y1697961D01*
X2633919Y1697843D01*
X2633765Y1697728D01*
X2633608Y1697617D01*
X2633449Y1697510D01*
X2633287Y1697407D01*
X2633123Y1697308D01*
X2632957Y1697212D01*
X2632788Y1697121D01*
X2632617Y1697034D01*
X2632444Y1696951D01*
X2632269Y1696873D01*
X2632092Y1696798D01*
X2631914Y1696728D01*
X2631734Y1696662D01*
X2631552Y1696601D01*
X2631369Y1696543D01*
X2631184Y1696491D01*
X2630999Y1696443D01*
X2630812Y1696399D01*
X2630624Y1696360D01*
X2630435Y1696325D01*
X2630246Y1696295D01*
X2630056Y1696270D01*
X2629865Y1696249D01*
X2629674Y1696233D01*
X2629483Y1696221D01*
X2629291Y1696214D01*
X2629099Y1696212D01*
X2491240Y1696212D01*
X2491494Y1896618D01*
X2517656Y1896872D01*
X2512576Y2143252D02*
X2512585Y2143685D01*
X2512603Y2144117D01*
X2512633Y2144549D01*
X2512672Y2144980D01*
X2512722Y2145409D01*
X2512783Y2145838D01*
X2512853Y2146265D01*
X2512934Y2146690D01*
X2513026Y2147113D01*
X2513127Y2147534D01*
X2513239Y2147952D01*
X2513360Y2148367D01*
X2513492Y2148779D01*
X2513634Y2149188D01*
X2513785Y2149593D01*
X2513946Y2149995D01*
X2514117Y2150393D01*
X2514298Y2150786D01*
X2514487Y2151175D01*
X2514687Y2151559D01*
X2514895Y2151938D01*
X2515112Y2152312D01*
X2515339Y2152681D01*
X2515574Y2153044D01*
X2515818Y2153402D01*
X2516071Y2153753D01*
X2516332Y2154098D01*
X2516601Y2154437D01*
X2516879Y2154769D01*
X2517164Y2155094D01*
X2517457Y2155413D01*
X2517758Y2155724D01*
X2518066Y2156028D01*
X2518381Y2156324D01*
X2518704Y2156612D01*
X2519033Y2156893D01*
X2519369Y2157166D01*
X2519712Y2157430D01*
X2520061Y2157686D01*
X2520415Y2157934D01*
X2520776Y2158173D01*
X2521143Y2158403D01*
X2521515Y2158624D01*
X2521892Y2158836D01*
X2522274Y2159039D01*
X2522661Y2159233D01*
X2523052Y2159418D01*
X2523448Y2159592D01*
X2523848Y2159757D01*
X2524252Y2159913D01*
X2524659Y2160059D01*
X2525070Y2160194D01*
X2525484Y2160320D01*
X2525901Y2160436D01*
X2526321Y2160542D01*
X2526743Y2160637D01*
X2527167Y2160722D01*
X2527593Y2160797D01*
X2528021Y2160862D01*
X2528451Y2160916D01*
X2528881Y2160960D01*
X2529313Y2160994D01*
X2529745Y2161017D01*
X2530177Y2161029D01*
X2530610Y2161032D01*
X2532896Y2161032D01*
X2533329Y2161029D01*
X2533761Y2161017D01*
X2534193Y2160994D01*
X2534625Y2160960D01*
X2535055Y2160916D01*
X2535485Y2160862D01*
X2535913Y2160797D01*
X2536339Y2160722D01*
X2536763Y2160637D01*
X2537185Y2160542D01*
X2537605Y2160436D01*
X2538022Y2160320D01*
X2538436Y2160194D01*
X2538847Y2160059D01*
X2539254Y2159913D01*
X2539658Y2159757D01*
X2540058Y2159592D01*
X2540454Y2159418D01*
X2540845Y2159233D01*
X2541232Y2159039D01*
X2541614Y2158836D01*
X2541991Y2158624D01*
X2542363Y2158403D01*
X2542730Y2158173D01*
X2543091Y2157934D01*
X2543445Y2157686D01*
X2543794Y2157430D01*
X2544137Y2157166D01*
X2544473Y2156893D01*
X2544802Y2156612D01*
X2545125Y2156324D01*
X2545440Y2156028D01*
X2545748Y2155724D01*
X2546049Y2155413D01*
X2546342Y2155094D01*
X2546627Y2154769D01*
X2546905Y2154437D01*
X2547174Y2154098D01*
X2547435Y2153753D01*
X2547688Y2153402D01*
X2547932Y2153044D01*
X2548167Y2152681D01*
X2548394Y2152312D01*
X2548611Y2151938D01*
X2548819Y2151559D01*
X2549019Y2151175D01*
X2549208Y2150786D01*
X2549389Y2150393D01*
X2549560Y2149995D01*
X2549721Y2149593D01*
X2549872Y2149188D01*
X2550014Y2148779D01*
X2550146Y2148367D01*
X2550267Y2147952D01*
X2550379Y2147534D01*
X2550480Y2147113D01*
X2550572Y2146690D01*
X2550653Y2146265D01*
X2550723Y2145838D01*
X2550784Y2145409D01*
X2550834Y2144980D01*
X2550873Y2144549D01*
X2550903Y2144117D01*
X2550921Y2143685D01*
X2550930Y2143252D01*
X2623066Y2143252D01*
X2623278Y2143253D01*
X2623490Y2143248D01*
X2623701Y2143238D01*
X2623912Y2143223D01*
X2624123Y2143203D01*
X2624334Y2143178D01*
X2624543Y2143148D01*
X2624752Y2143113D01*
X2624960Y2143073D01*
X2625167Y2143028D01*
X2625373Y2142978D01*
X2625577Y2142923D01*
X2625780Y2142862D01*
X2625982Y2142797D01*
X2626182Y2142728D01*
X2626380Y2142653D01*
X2626576Y2142574D01*
X2626771Y2142490D01*
X2626963Y2142401D01*
X2627153Y2142307D01*
X2627341Y2142209D01*
X2627526Y2142107D01*
X2627709Y2142000D01*
X2627889Y2141889D01*
X2628066Y2141773D01*
X2628241Y2141653D01*
X2628413Y2141529D01*
X2628581Y2141401D01*
X2628747Y2141269D01*
X2628909Y2141132D01*
X2629068Y2140992D01*
X2629223Y2140849D01*
X2629375Y2140701D01*
X2629523Y2140550D01*
X2629668Y2140395D01*
X2629809Y2140237D01*
X2629946Y2140075D01*
X2630079Y2139911D01*
X2630208Y2139743D01*
X2630333Y2139572D01*
X2630453Y2139398D01*
X2630570Y2139221D01*
X2630682Y2139041D01*
X2630790Y2138859D01*
X2630893Y2138674D01*
X2630992Y2138487D01*
X2631086Y2138297D01*
X2631176Y2138105D01*
X2631261Y2137911D01*
X2631342Y2137715D01*
X2631417Y2137517D01*
X2631488Y2137318D01*
X2631554Y2137116D01*
X2631615Y2136914D01*
X2631671Y2136709D01*
X2631722Y2136504D01*
X2631768Y2136297D01*
X2631810Y2136090D01*
X2631846Y2135881D01*
X2631877Y2135671D01*
X2631903Y2135461D01*
X2631924Y2135250D01*
X2631940Y2135039D01*
X2631950Y2134828D01*
X2631956Y2134616D01*
X2631956Y2068322D01*
X2631954Y2068253D01*
X2631949Y2068185D01*
X2631939Y2068117D01*
X2631926Y2068049D01*
X2631910Y2067982D01*
X2631890Y2067916D01*
X2631866Y2067852D01*
X2631839Y2067789D01*
X2631808Y2067727D01*
X2631774Y2067667D01*
X2631737Y2067609D01*
X2631697Y2067553D01*
X2631654Y2067500D01*
X2631608Y2067449D01*
X2631559Y2067400D01*
X2631508Y2067354D01*
X2631455Y2067311D01*
X2631399Y2067271D01*
X2631341Y2067234D01*
X2631281Y2067200D01*
X2631219Y2067169D01*
X2631156Y2067142D01*
X2631092Y2067118D01*
X2631026Y2067098D01*
X2630959Y2067082D01*
X2630891Y2067069D01*
X2630823Y2067059D01*
X2630755Y2067054D01*
X2630686Y2067052D01*
X2630123Y2067045D01*
X2629561Y2067024D01*
X2629000Y2066990D01*
X2628439Y2066942D01*
X2627880Y2066880D01*
X2627323Y2066804D01*
X2626767Y2066715D01*
X2626214Y2066612D01*
X2625663Y2066496D01*
X2625116Y2066366D01*
X2624572Y2066223D01*
X2624032Y2066067D01*
X2623495Y2065897D01*
X2622963Y2065714D01*
X2622436Y2065519D01*
X2621913Y2065310D01*
X2621396Y2065089D01*
X2620884Y2064855D01*
X2620378Y2064609D01*
X2619879Y2064350D01*
X2619386Y2064079D01*
X2618899Y2063796D01*
X2618420Y2063502D01*
X2617948Y2063195D01*
X2617484Y2062878D01*
X2617028Y2062549D01*
X2616579Y2062208D01*
X2616140Y2061857D01*
X2615709Y2061496D01*
X2615287Y2061124D01*
X2614874Y2060741D01*
X2614471Y2060349D01*
X2614078Y2059947D01*
X2613694Y2059535D01*
X2613321Y2059114D01*
X2612958Y2058684D01*
X2612606Y2058246D01*
X2612264Y2057799D01*
X2611934Y2057343D01*
X2611615Y2056880D01*
X2611307Y2056409D01*
X2611011Y2055930D01*
X2610727Y2055445D01*
X2610455Y2054953D01*
X2610195Y2054454D01*
X2609947Y2053949D01*
X2609711Y2053438D01*
X2609489Y2052921D01*
X2609279Y2052399D01*
X2609082Y2051872D01*
X2608897Y2051341D01*
X2608726Y2050805D01*
X2608568Y2050265D01*
X2608424Y2049721D01*
X2608292Y2049174D01*
X2608174Y2048624D01*
X2608070Y2048071D01*
X2607979Y2047516D01*
X2607902Y2046959D01*
X2607839Y2046400D01*
X2607789Y2045839D01*
X2607753Y2045278D01*
X2607731Y2044716D01*
X2607722Y2044153D01*
X2607727Y2043590D01*
X2607746Y2043028D01*
X2607779Y2042467D01*
X2607826Y2041906D01*
X2607833Y2041347D01*
X2607853Y2040789D01*
X2607887Y2040232D01*
X2607934Y2039675D01*
X2607995Y2039120D01*
X2608069Y2038566D01*
X2608156Y2038015D01*
X2608257Y2037465D01*
X2608371Y2036918D01*
X2608498Y2036374D01*
X2608638Y2035834D01*
X2608791Y2035297D01*
X2608957Y2034763D01*
X2609136Y2034234D01*
X2609328Y2033710D01*
X2609532Y2033190D01*
X2609749Y2032675D01*
X2609979Y2032166D01*
X2610220Y2031662D01*
X2610474Y2031164D01*
X2610739Y2030673D01*
X2611016Y2030188D01*
X2611305Y2029710D01*
X2611606Y2029239D01*
X2611918Y2028776D01*
X2612240Y2028320D01*
X2612574Y2027872D01*
X2612919Y2027432D01*
X2613274Y2027001D01*
X2613639Y2026579D01*
X2614014Y2026165D01*
X2614400Y2025761D01*
X2614795Y2025366D01*
X2615199Y2024980D01*
X2615613Y2024605D01*
X2616035Y2024240D01*
X2616466Y2023885D01*
X2616906Y2023540D01*
X2617354Y2023206D01*
X2617810Y2022884D01*
X2618273Y2022572D01*
X2618744Y2022271D01*
X2619222Y2021982D01*
X2619707Y2021705D01*
X2620198Y2021440D01*
X2620696Y2021186D01*
X2621200Y2020945D01*
X2621709Y2020715D01*
X2622224Y2020498D01*
X2622744Y2020294D01*
X2623268Y2020102D01*
X2623797Y2019923D01*
X2624331Y2019757D01*
X2624868Y2019604D01*
X2625408Y2019464D01*
X2625952Y2019337D01*
X2626499Y2019223D01*
X2627049Y2019122D01*
X2627600Y2019035D01*
X2628154Y2018961D01*
X2628709Y2018900D01*
X2629266Y2018853D01*
X2629823Y2018819D01*
X2630381Y2018799D01*
X2630940Y2018792D01*
X2631001Y2018790D01*
X2631062Y2018785D01*
X2631123Y2018775D01*
X2631183Y2018762D01*
X2631242Y2018746D01*
X2631300Y2018726D01*
X2631357Y2018702D01*
X2631412Y2018676D01*
X2631466Y2018645D01*
X2631517Y2018612D01*
X2631567Y2018576D01*
X2631614Y2018536D01*
X2631658Y2018494D01*
X2631700Y2018450D01*
X2631740Y2018403D01*
X2631776Y2018353D01*
X2631809Y2018302D01*
X2631840Y2018248D01*
X2631866Y2018193D01*
X2631890Y2018136D01*
X2631910Y2018078D01*
X2631926Y2018019D01*
X2631939Y2017959D01*
X2631949Y2017898D01*
X2631954Y2017837D01*
X2631956Y2017776D01*
X2631956Y1950530D01*
X2631957Y1950530D02*
X2631955Y1950338D01*
X2631948Y1950146D01*
X2631936Y1949955D01*
X2631920Y1949764D01*
X2631899Y1949573D01*
X2631874Y1949383D01*
X2631844Y1949194D01*
X2631809Y1949005D01*
X2631770Y1948817D01*
X2631726Y1948630D01*
X2631678Y1948445D01*
X2631626Y1948260D01*
X2631568Y1948077D01*
X2631507Y1947895D01*
X2631441Y1947715D01*
X2631371Y1947537D01*
X2631296Y1947360D01*
X2631218Y1947185D01*
X2631135Y1947012D01*
X2631048Y1946841D01*
X2630957Y1946672D01*
X2630861Y1946506D01*
X2630762Y1946342D01*
X2630659Y1946180D01*
X2630552Y1946021D01*
X2630441Y1945864D01*
X2630326Y1945710D01*
X2630208Y1945559D01*
X2630086Y1945411D01*
X2629961Y1945266D01*
X2629832Y1945124D01*
X2629699Y1944985D01*
X2629564Y1944850D01*
X2629425Y1944717D01*
X2629283Y1944588D01*
X2629138Y1944463D01*
X2628990Y1944341D01*
X2628839Y1944223D01*
X2628685Y1944108D01*
X2628528Y1943997D01*
X2628369Y1943890D01*
X2628207Y1943787D01*
X2628043Y1943688D01*
X2627877Y1943592D01*
X2627708Y1943501D01*
X2627537Y1943414D01*
X2627364Y1943331D01*
X2627189Y1943253D01*
X2627012Y1943178D01*
X2626834Y1943108D01*
X2626654Y1943042D01*
X2626472Y1942981D01*
X2626289Y1942923D01*
X2626104Y1942871D01*
X2625919Y1942823D01*
X2625732Y1942779D01*
X2625544Y1942740D01*
X2625355Y1942705D01*
X2625166Y1942675D01*
X2624976Y1942650D01*
X2624785Y1942629D01*
X2624594Y1942613D01*
X2624403Y1942601D01*
X2624211Y1942594D01*
X2624019Y1942592D01*
X2486160Y1942592D01*
X2486414Y2142998D01*
X2512576Y2143252D01*
X2619510Y296672D02*
X2619077Y296669D01*
X2618645Y296657D01*
X2618213Y296634D01*
X2617781Y296600D01*
X2617351Y296556D01*
X2616921Y296502D01*
X2616493Y296437D01*
X2616067Y296362D01*
X2615643Y296277D01*
X2615221Y296182D01*
X2614801Y296076D01*
X2614384Y295960D01*
X2613970Y295834D01*
X2613559Y295699D01*
X2613152Y295553D01*
X2612748Y295397D01*
X2612348Y295232D01*
X2611952Y295058D01*
X2611561Y294873D01*
X2611174Y294679D01*
X2610792Y294476D01*
X2610415Y294264D01*
X2610043Y294043D01*
X2609676Y293813D01*
X2609315Y293574D01*
X2608961Y293326D01*
X2608612Y293070D01*
X2608269Y292806D01*
X2607933Y292533D01*
X2607604Y292252D01*
X2607281Y291964D01*
X2606966Y291668D01*
X2606658Y291364D01*
X2606357Y291053D01*
X2606064Y290734D01*
X2605779Y290409D01*
X2605501Y290077D01*
X2605232Y289738D01*
X2604971Y289393D01*
X2604718Y289042D01*
X2604474Y288684D01*
X2604239Y288321D01*
X2604012Y287952D01*
X2603795Y287578D01*
X2603587Y287199D01*
X2603387Y286815D01*
X2603198Y286426D01*
X2603017Y286033D01*
X2602846Y285635D01*
X2602685Y285233D01*
X2602534Y284828D01*
X2602392Y284419D01*
X2602260Y284007D01*
X2602139Y283592D01*
X2602027Y283174D01*
X2601926Y282753D01*
X2601834Y282330D01*
X2601753Y281905D01*
X2601683Y281478D01*
X2601622Y281049D01*
X2601572Y280620D01*
X2601533Y280189D01*
X2601503Y279757D01*
X2601485Y279325D01*
X2601476Y278892D01*
X2619510Y296672D02*
X2621796Y296672D01*
X2622229Y296669D01*
X2622661Y296657D01*
X2623093Y296634D01*
X2623525Y296600D01*
X2623955Y296556D01*
X2624385Y296502D01*
X2624813Y296437D01*
X2625239Y296362D01*
X2625663Y296277D01*
X2626085Y296182D01*
X2626505Y296076D01*
X2626922Y295960D01*
X2627336Y295834D01*
X2627747Y295699D01*
X2628154Y295553D01*
X2628558Y295397D01*
X2628958Y295232D01*
X2629354Y295058D01*
X2629745Y294873D01*
X2630132Y294679D01*
X2630514Y294476D01*
X2630891Y294264D01*
X2631263Y294043D01*
X2631630Y293813D01*
X2631991Y293574D01*
X2632345Y293326D01*
X2632694Y293070D01*
X2633037Y292806D01*
X2633373Y292533D01*
X2633702Y292252D01*
X2634025Y291964D01*
X2634340Y291668D01*
X2634648Y291364D01*
X2634949Y291053D01*
X2635242Y290734D01*
X2635527Y290409D01*
X2635805Y290077D01*
X2636074Y289738D01*
X2636335Y289393D01*
X2636588Y289042D01*
X2636832Y288684D01*
X2637067Y288321D01*
X2637294Y287952D01*
X2637511Y287578D01*
X2637719Y287199D01*
X2637919Y286815D01*
X2638108Y286426D01*
X2638289Y286033D01*
X2638460Y285635D01*
X2638621Y285233D01*
X2638772Y284828D01*
X2638914Y284419D01*
X2639046Y284007D01*
X2639167Y283592D01*
X2639279Y283174D01*
X2639380Y282753D01*
X2639472Y282330D01*
X2639553Y281905D01*
X2639623Y281478D01*
X2639684Y281049D01*
X2639734Y280620D01*
X2639773Y280189D01*
X2639803Y279757D01*
X2639821Y279325D01*
X2639830Y278892D01*
X2711966Y278892D01*
X2712178Y278893D01*
X2712390Y278888D01*
X2712601Y278878D01*
X2712812Y278863D01*
X2713023Y278843D01*
X2713234Y278818D01*
X2713443Y278788D01*
X2713652Y278753D01*
X2713860Y278713D01*
X2714067Y278668D01*
X2714273Y278618D01*
X2714477Y278563D01*
X2714680Y278502D01*
X2714882Y278437D01*
X2715082Y278368D01*
X2715280Y278293D01*
X2715476Y278214D01*
X2715671Y278130D01*
X2715863Y278041D01*
X2716053Y277947D01*
X2716241Y277849D01*
X2716426Y277747D01*
X2716609Y277640D01*
X2716789Y277529D01*
X2716966Y277413D01*
X2717141Y277293D01*
X2717313Y277169D01*
X2717481Y277041D01*
X2717647Y276909D01*
X2717809Y276772D01*
X2717968Y276632D01*
X2718123Y276489D01*
X2718275Y276341D01*
X2718423Y276190D01*
X2718568Y276035D01*
X2718709Y275877D01*
X2718846Y275715D01*
X2718979Y275551D01*
X2719108Y275383D01*
X2719233Y275212D01*
X2719353Y275038D01*
X2719470Y274861D01*
X2719582Y274681D01*
X2719690Y274499D01*
X2719793Y274314D01*
X2719892Y274127D01*
X2719986Y273937D01*
X2720076Y273745D01*
X2720161Y273551D01*
X2720242Y273355D01*
X2720317Y273157D01*
X2720388Y272958D01*
X2720454Y272756D01*
X2720515Y272554D01*
X2720571Y272349D01*
X2720622Y272144D01*
X2720668Y271937D01*
X2720710Y271730D01*
X2720746Y271521D01*
X2720777Y271311D01*
X2720803Y271101D01*
X2720824Y270890D01*
X2720840Y270679D01*
X2720850Y270468D01*
X2720856Y270256D01*
X2720856Y203962D01*
X2720854Y203893D01*
X2720849Y203825D01*
X2720839Y203757D01*
X2720826Y203689D01*
X2720810Y203622D01*
X2720790Y203556D01*
X2720766Y203492D01*
X2720739Y203429D01*
X2720708Y203367D01*
X2720674Y203307D01*
X2720637Y203249D01*
X2720597Y203193D01*
X2720554Y203140D01*
X2720508Y203089D01*
X2720459Y203040D01*
X2720408Y202994D01*
X2720355Y202951D01*
X2720299Y202911D01*
X2720241Y202874D01*
X2720181Y202840D01*
X2720119Y202809D01*
X2720056Y202782D01*
X2719992Y202758D01*
X2719926Y202738D01*
X2719859Y202722D01*
X2719791Y202709D01*
X2719723Y202699D01*
X2719655Y202694D01*
X2719586Y202692D01*
X2719023Y202685D01*
X2718461Y202664D01*
X2717900Y202630D01*
X2717339Y202582D01*
X2716780Y202520D01*
X2716223Y202444D01*
X2715667Y202355D01*
X2715114Y202252D01*
X2714563Y202136D01*
X2714016Y202006D01*
X2713472Y201863D01*
X2712932Y201707D01*
X2712395Y201537D01*
X2711863Y201354D01*
X2711336Y201159D01*
X2710813Y200950D01*
X2710296Y200729D01*
X2709784Y200495D01*
X2709278Y200249D01*
X2708779Y199990D01*
X2708286Y199719D01*
X2707799Y199436D01*
X2707320Y199142D01*
X2706848Y198835D01*
X2706384Y198518D01*
X2705928Y198189D01*
X2705479Y197848D01*
X2705040Y197497D01*
X2704609Y197136D01*
X2704187Y196764D01*
X2703774Y196381D01*
X2703371Y195989D01*
X2702978Y195587D01*
X2702594Y195175D01*
X2702221Y194754D01*
X2701858Y194324D01*
X2701506Y193886D01*
X2701164Y193439D01*
X2700834Y192983D01*
X2700515Y192520D01*
X2700207Y192049D01*
X2699911Y191570D01*
X2699627Y191085D01*
X2699355Y190593D01*
X2699095Y190094D01*
X2698847Y189589D01*
X2698611Y189078D01*
X2698389Y188561D01*
X2698179Y188039D01*
X2697982Y187512D01*
X2697797Y186981D01*
X2697626Y186445D01*
X2697468Y185905D01*
X2697324Y185361D01*
X2697192Y184814D01*
X2697074Y184264D01*
X2696970Y183711D01*
X2696879Y183156D01*
X2696802Y182599D01*
X2696739Y182040D01*
X2696689Y181479D01*
X2696653Y180918D01*
X2696631Y180356D01*
X2696622Y179793D01*
X2696627Y179230D01*
X2696646Y178668D01*
X2696679Y178107D01*
X2696726Y177546D01*
X2696733Y176987D01*
X2696753Y176429D01*
X2696787Y175872D01*
X2696834Y175315D01*
X2696895Y174760D01*
X2696969Y174206D01*
X2697056Y173655D01*
X2697157Y173105D01*
X2697271Y172558D01*
X2697398Y172014D01*
X2697538Y171474D01*
X2697691Y170937D01*
X2697857Y170403D01*
X2698036Y169874D01*
X2698228Y169350D01*
X2698432Y168830D01*
X2698649Y168315D01*
X2698879Y167806D01*
X2699120Y167302D01*
X2699374Y166804D01*
X2699639Y166313D01*
X2699916Y165828D01*
X2700205Y165350D01*
X2700506Y164879D01*
X2700818Y164416D01*
X2701140Y163960D01*
X2701474Y163512D01*
X2701819Y163072D01*
X2702174Y162641D01*
X2702539Y162219D01*
X2702914Y161805D01*
X2703300Y161401D01*
X2703695Y161006D01*
X2704099Y160620D01*
X2704513Y160245D01*
X2704935Y159880D01*
X2705366Y159525D01*
X2705806Y159180D01*
X2706254Y158846D01*
X2706710Y158524D01*
X2707173Y158212D01*
X2707644Y157911D01*
X2708122Y157622D01*
X2708607Y157345D01*
X2709098Y157080D01*
X2709596Y156826D01*
X2710100Y156585D01*
X2710609Y156355D01*
X2711124Y156138D01*
X2711644Y155934D01*
X2712168Y155742D01*
X2712697Y155563D01*
X2713231Y155397D01*
X2713768Y155244D01*
X2714308Y155104D01*
X2714852Y154977D01*
X2715399Y154863D01*
X2715949Y154762D01*
X2716500Y154675D01*
X2717054Y154601D01*
X2717609Y154540D01*
X2718166Y154493D01*
X2718723Y154459D01*
X2719281Y154439D01*
X2719840Y154432D01*
X2719901Y154430D01*
X2719962Y154425D01*
X2720023Y154415D01*
X2720083Y154402D01*
X2720142Y154386D01*
X2720200Y154366D01*
X2720257Y154342D01*
X2720312Y154316D01*
X2720366Y154285D01*
X2720417Y154252D01*
X2720467Y154216D01*
X2720514Y154176D01*
X2720558Y154134D01*
X2720600Y154090D01*
X2720640Y154043D01*
X2720676Y153993D01*
X2720709Y153942D01*
X2720740Y153888D01*
X2720766Y153833D01*
X2720790Y153776D01*
X2720810Y153718D01*
X2720826Y153659D01*
X2720839Y153599D01*
X2720849Y153538D01*
X2720854Y153477D01*
X2720856Y153416D01*
X2720856Y86170D01*
X2720857Y86170D02*
X2720855Y85978D01*
X2720848Y85786D01*
X2720836Y85595D01*
X2720820Y85404D01*
X2720799Y85213D01*
X2720774Y85023D01*
X2720744Y84834D01*
X2720709Y84645D01*
X2720670Y84457D01*
X2720626Y84270D01*
X2720578Y84085D01*
X2720526Y83900D01*
X2720468Y83717D01*
X2720407Y83535D01*
X2720341Y83355D01*
X2720271Y83177D01*
X2720196Y83000D01*
X2720118Y82825D01*
X2720035Y82652D01*
X2719948Y82481D01*
X2719857Y82312D01*
X2719761Y82146D01*
X2719662Y81982D01*
X2719559Y81820D01*
X2719452Y81661D01*
X2719341Y81504D01*
X2719226Y81350D01*
X2719108Y81199D01*
X2718986Y81051D01*
X2718861Y80906D01*
X2718732Y80764D01*
X2718599Y80625D01*
X2718464Y80490D01*
X2718325Y80357D01*
X2718183Y80228D01*
X2718038Y80103D01*
X2717890Y79981D01*
X2717739Y79863D01*
X2717585Y79748D01*
X2717428Y79637D01*
X2717269Y79530D01*
X2717107Y79427D01*
X2716943Y79328D01*
X2716777Y79232D01*
X2716608Y79141D01*
X2716437Y79054D01*
X2716264Y78971D01*
X2716089Y78893D01*
X2715912Y78818D01*
X2715734Y78748D01*
X2715554Y78682D01*
X2715372Y78621D01*
X2715189Y78563D01*
X2715004Y78511D01*
X2714819Y78463D01*
X2714632Y78419D01*
X2714444Y78380D01*
X2714255Y78345D01*
X2714066Y78315D01*
X2713876Y78290D01*
X2713685Y78269D01*
X2713494Y78253D01*
X2713303Y78241D01*
X2713111Y78234D01*
X2712919Y78232D01*
X2575060Y78232D01*
X2575314Y278638D01*
X2601476Y278892D01*
X2596396Y525272D02*
X2596405Y525705D01*
X2596423Y526137D01*
X2596453Y526569D01*
X2596492Y527000D01*
X2596542Y527429D01*
X2596603Y527858D01*
X2596673Y528285D01*
X2596754Y528710D01*
X2596846Y529133D01*
X2596947Y529554D01*
X2597059Y529972D01*
X2597180Y530387D01*
X2597312Y530799D01*
X2597454Y531208D01*
X2597605Y531613D01*
X2597766Y532015D01*
X2597937Y532413D01*
X2598118Y532806D01*
X2598307Y533195D01*
X2598507Y533579D01*
X2598715Y533958D01*
X2598932Y534332D01*
X2599159Y534701D01*
X2599394Y535064D01*
X2599638Y535422D01*
X2599891Y535773D01*
X2600152Y536118D01*
X2600421Y536457D01*
X2600699Y536789D01*
X2600984Y537114D01*
X2601277Y537433D01*
X2601578Y537744D01*
X2601886Y538048D01*
X2602201Y538344D01*
X2602524Y538632D01*
X2602853Y538913D01*
X2603189Y539186D01*
X2603532Y539450D01*
X2603881Y539706D01*
X2604235Y539954D01*
X2604596Y540193D01*
X2604963Y540423D01*
X2605335Y540644D01*
X2605712Y540856D01*
X2606094Y541059D01*
X2606481Y541253D01*
X2606872Y541438D01*
X2607268Y541612D01*
X2607668Y541777D01*
X2608072Y541933D01*
X2608479Y542079D01*
X2608890Y542214D01*
X2609304Y542340D01*
X2609721Y542456D01*
X2610141Y542562D01*
X2610563Y542657D01*
X2610987Y542742D01*
X2611413Y542817D01*
X2611841Y542882D01*
X2612271Y542936D01*
X2612701Y542980D01*
X2613133Y543014D01*
X2613565Y543037D01*
X2613997Y543049D01*
X2614430Y543052D01*
X2616716Y543052D01*
X2617149Y543049D01*
X2617581Y543037D01*
X2618013Y543014D01*
X2618445Y542980D01*
X2618875Y542936D01*
X2619305Y542882D01*
X2619733Y542817D01*
X2620159Y542742D01*
X2620583Y542657D01*
X2621005Y542562D01*
X2621425Y542456D01*
X2621842Y542340D01*
X2622256Y542214D01*
X2622667Y542079D01*
X2623074Y541933D01*
X2623478Y541777D01*
X2623878Y541612D01*
X2624274Y541438D01*
X2624665Y541253D01*
X2625052Y541059D01*
X2625434Y540856D01*
X2625811Y540644D01*
X2626183Y540423D01*
X2626550Y540193D01*
X2626911Y539954D01*
X2627265Y539706D01*
X2627614Y539450D01*
X2627957Y539186D01*
X2628293Y538913D01*
X2628622Y538632D01*
X2628945Y538344D01*
X2629260Y538048D01*
X2629568Y537744D01*
X2629869Y537433D01*
X2630162Y537114D01*
X2630447Y536789D01*
X2630725Y536457D01*
X2630994Y536118D01*
X2631255Y535773D01*
X2631508Y535422D01*
X2631752Y535064D01*
X2631987Y534701D01*
X2632214Y534332D01*
X2632431Y533958D01*
X2632639Y533579D01*
X2632839Y533195D01*
X2633028Y532806D01*
X2633209Y532413D01*
X2633380Y532015D01*
X2633541Y531613D01*
X2633692Y531208D01*
X2633834Y530799D01*
X2633966Y530387D01*
X2634087Y529972D01*
X2634199Y529554D01*
X2634300Y529133D01*
X2634392Y528710D01*
X2634473Y528285D01*
X2634543Y527858D01*
X2634604Y527429D01*
X2634654Y527000D01*
X2634693Y526569D01*
X2634723Y526137D01*
X2634741Y525705D01*
X2634750Y525272D01*
X2706886Y525272D01*
X2707098Y525273D01*
X2707310Y525268D01*
X2707521Y525258D01*
X2707732Y525243D01*
X2707943Y525223D01*
X2708154Y525198D01*
X2708363Y525168D01*
X2708572Y525133D01*
X2708780Y525093D01*
X2708987Y525048D01*
X2709193Y524998D01*
X2709397Y524943D01*
X2709600Y524882D01*
X2709802Y524817D01*
X2710002Y524748D01*
X2710200Y524673D01*
X2710396Y524594D01*
X2710591Y524510D01*
X2710783Y524421D01*
X2710973Y524327D01*
X2711161Y524229D01*
X2711346Y524127D01*
X2711529Y524020D01*
X2711709Y523909D01*
X2711886Y523793D01*
X2712061Y523673D01*
X2712233Y523549D01*
X2712401Y523421D01*
X2712567Y523289D01*
X2712729Y523152D01*
X2712888Y523012D01*
X2713043Y522869D01*
X2713195Y522721D01*
X2713343Y522570D01*
X2713488Y522415D01*
X2713629Y522257D01*
X2713766Y522095D01*
X2713899Y521931D01*
X2714028Y521763D01*
X2714153Y521592D01*
X2714273Y521418D01*
X2714390Y521241D01*
X2714502Y521061D01*
X2714610Y520879D01*
X2714713Y520694D01*
X2714812Y520507D01*
X2714906Y520317D01*
X2714996Y520125D01*
X2715081Y519931D01*
X2715162Y519735D01*
X2715237Y519537D01*
X2715308Y519338D01*
X2715374Y519136D01*
X2715435Y518934D01*
X2715491Y518729D01*
X2715542Y518524D01*
X2715588Y518317D01*
X2715630Y518110D01*
X2715666Y517901D01*
X2715697Y517691D01*
X2715723Y517481D01*
X2715744Y517270D01*
X2715760Y517059D01*
X2715770Y516848D01*
X2715776Y516636D01*
X2715776Y450342D01*
X2715774Y450273D01*
X2715769Y450205D01*
X2715759Y450137D01*
X2715746Y450069D01*
X2715730Y450002D01*
X2715710Y449936D01*
X2715686Y449872D01*
X2715659Y449809D01*
X2715628Y449747D01*
X2715594Y449687D01*
X2715557Y449629D01*
X2715517Y449573D01*
X2715474Y449520D01*
X2715428Y449469D01*
X2715379Y449420D01*
X2715328Y449374D01*
X2715275Y449331D01*
X2715219Y449291D01*
X2715161Y449254D01*
X2715101Y449220D01*
X2715039Y449189D01*
X2714976Y449162D01*
X2714912Y449138D01*
X2714846Y449118D01*
X2714779Y449102D01*
X2714711Y449089D01*
X2714643Y449079D01*
X2714575Y449074D01*
X2714506Y449072D01*
X2713943Y449065D01*
X2713381Y449044D01*
X2712820Y449010D01*
X2712259Y448962D01*
X2711700Y448900D01*
X2711143Y448824D01*
X2710587Y448735D01*
X2710034Y448632D01*
X2709483Y448516D01*
X2708936Y448386D01*
X2708392Y448243D01*
X2707852Y448087D01*
X2707315Y447917D01*
X2706783Y447734D01*
X2706256Y447539D01*
X2705733Y447330D01*
X2705216Y447109D01*
X2704704Y446875D01*
X2704198Y446629D01*
X2703699Y446370D01*
X2703206Y446099D01*
X2702719Y445816D01*
X2702240Y445522D01*
X2701768Y445215D01*
X2701304Y444898D01*
X2700848Y444569D01*
X2700399Y444228D01*
X2699960Y443877D01*
X2699529Y443516D01*
X2699107Y443144D01*
X2698694Y442761D01*
X2698291Y442369D01*
X2697898Y441967D01*
X2697514Y441555D01*
X2697141Y441134D01*
X2696778Y440704D01*
X2696426Y440266D01*
X2696084Y439819D01*
X2695754Y439363D01*
X2695435Y438900D01*
X2695127Y438429D01*
X2694831Y437950D01*
X2694547Y437465D01*
X2694275Y436973D01*
X2694015Y436474D01*
X2693767Y435969D01*
X2693531Y435458D01*
X2693309Y434941D01*
X2693099Y434419D01*
X2692902Y433892D01*
X2692717Y433361D01*
X2692546Y432825D01*
X2692388Y432285D01*
X2692244Y431741D01*
X2692112Y431194D01*
X2691994Y430644D01*
X2691890Y430091D01*
X2691799Y429536D01*
X2691722Y428979D01*
X2691659Y428420D01*
X2691609Y427859D01*
X2691573Y427298D01*
X2691551Y426736D01*
X2691542Y426173D01*
X2691547Y425610D01*
X2691566Y425048D01*
X2691599Y424487D01*
X2691646Y423926D01*
X2691653Y423367D01*
X2691673Y422809D01*
X2691707Y422252D01*
X2691754Y421695D01*
X2691815Y421140D01*
X2691889Y420586D01*
X2691976Y420035D01*
X2692077Y419485D01*
X2692191Y418938D01*
X2692318Y418394D01*
X2692458Y417854D01*
X2692611Y417317D01*
X2692777Y416783D01*
X2692956Y416254D01*
X2693148Y415730D01*
X2693352Y415210D01*
X2693569Y414695D01*
X2693799Y414186D01*
X2694040Y413682D01*
X2694294Y413184D01*
X2694559Y412693D01*
X2694836Y412208D01*
X2695125Y411730D01*
X2695426Y411259D01*
X2695738Y410796D01*
X2696060Y410340D01*
X2696394Y409892D01*
X2696739Y409452D01*
X2697094Y409021D01*
X2697459Y408599D01*
X2697834Y408185D01*
X2698220Y407781D01*
X2698615Y407386D01*
X2699019Y407000D01*
X2699433Y406625D01*
X2699855Y406260D01*
X2700286Y405905D01*
X2700726Y405560D01*
X2701174Y405226D01*
X2701630Y404904D01*
X2702093Y404592D01*
X2702564Y404291D01*
X2703042Y404002D01*
X2703527Y403725D01*
X2704018Y403460D01*
X2704516Y403206D01*
X2705020Y402965D01*
X2705529Y402735D01*
X2706044Y402518D01*
X2706564Y402314D01*
X2707088Y402122D01*
X2707617Y401943D01*
X2708151Y401777D01*
X2708688Y401624D01*
X2709228Y401484D01*
X2709772Y401357D01*
X2710319Y401243D01*
X2710869Y401142D01*
X2711420Y401055D01*
X2711974Y400981D01*
X2712529Y400920D01*
X2713086Y400873D01*
X2713643Y400839D01*
X2714201Y400819D01*
X2714760Y400812D01*
X2714821Y400810D01*
X2714882Y400805D01*
X2714943Y400795D01*
X2715003Y400782D01*
X2715062Y400766D01*
X2715120Y400746D01*
X2715177Y400722D01*
X2715232Y400696D01*
X2715286Y400665D01*
X2715337Y400632D01*
X2715387Y400596D01*
X2715434Y400556D01*
X2715478Y400514D01*
X2715520Y400470D01*
X2715560Y400423D01*
X2715596Y400373D01*
X2715629Y400322D01*
X2715660Y400268D01*
X2715686Y400213D01*
X2715710Y400156D01*
X2715730Y400098D01*
X2715746Y400039D01*
X2715759Y399979D01*
X2715769Y399918D01*
X2715774Y399857D01*
X2715776Y399796D01*
X2715776Y332550D01*
X2715777Y332550D02*
X2715775Y332358D01*
X2715768Y332166D01*
X2715756Y331975D01*
X2715740Y331784D01*
X2715719Y331593D01*
X2715694Y331403D01*
X2715664Y331214D01*
X2715629Y331025D01*
X2715590Y330837D01*
X2715546Y330650D01*
X2715498Y330465D01*
X2715446Y330280D01*
X2715388Y330097D01*
X2715327Y329915D01*
X2715261Y329735D01*
X2715191Y329557D01*
X2715116Y329380D01*
X2715038Y329205D01*
X2714955Y329032D01*
X2714868Y328861D01*
X2714777Y328692D01*
X2714681Y328526D01*
X2714582Y328362D01*
X2714479Y328200D01*
X2714372Y328041D01*
X2714261Y327884D01*
X2714146Y327730D01*
X2714028Y327579D01*
X2713906Y327431D01*
X2713781Y327286D01*
X2713652Y327144D01*
X2713519Y327005D01*
X2713384Y326870D01*
X2713245Y326737D01*
X2713103Y326608D01*
X2712958Y326483D01*
X2712810Y326361D01*
X2712659Y326243D01*
X2712505Y326128D01*
X2712348Y326017D01*
X2712189Y325910D01*
X2712027Y325807D01*
X2711863Y325708D01*
X2711697Y325612D01*
X2711528Y325521D01*
X2711357Y325434D01*
X2711184Y325351D01*
X2711009Y325273D01*
X2710832Y325198D01*
X2710654Y325128D01*
X2710474Y325062D01*
X2710292Y325001D01*
X2710109Y324943D01*
X2709924Y324891D01*
X2709739Y324843D01*
X2709552Y324799D01*
X2709364Y324760D01*
X2709175Y324725D01*
X2708986Y324695D01*
X2708796Y324670D01*
X2708605Y324649D01*
X2708414Y324633D01*
X2708223Y324621D01*
X2708031Y324614D01*
X2707839Y324612D01*
X2569980Y324612D01*
X2570234Y525018D01*
X2596396Y525272D01*
X2717800Y845820D02*
X2418080Y845820D01*
X2717800Y845820D02*
X2717800Y586740D01*
X2418080Y586740D01*
X2418080Y845820D01*
D11*
X1067060Y2308560D02*
X1067060Y2334560D01*
X1067060Y2308560D02*
X1049060Y2308560D01*
X1049060Y2334560D01*
X1067060Y2334560D01*
X1163060Y2308560D02*
X1181060Y2308560D01*
X1181060Y2334560D01*
X1163060Y2334560D01*
X1163060Y2308560D01*
D12*
X448380Y1675440D02*
X425380Y1675440D01*
X425380Y1682440D02*
X448380Y1682440D01*
X451880Y1678940D02*
X451878Y1678823D01*
X451872Y1678706D01*
X451862Y1678590D01*
X451849Y1678473D01*
X451831Y1678358D01*
X451810Y1678243D01*
X451785Y1678129D01*
X451756Y1678015D01*
X451723Y1677903D01*
X451686Y1677792D01*
X451646Y1677682D01*
X451602Y1677574D01*
X451555Y1677467D01*
X451504Y1677361D01*
X451449Y1677258D01*
X451391Y1677156D01*
X451330Y1677057D01*
X451266Y1676959D01*
X451198Y1676864D01*
X451127Y1676771D01*
X451053Y1676680D01*
X450976Y1676592D01*
X450896Y1676507D01*
X450813Y1676424D01*
X450728Y1676344D01*
X450640Y1676267D01*
X450549Y1676193D01*
X450456Y1676122D01*
X450361Y1676054D01*
X450263Y1675990D01*
X450164Y1675929D01*
X450062Y1675871D01*
X449959Y1675816D01*
X449853Y1675765D01*
X449746Y1675718D01*
X449638Y1675674D01*
X449528Y1675634D01*
X449417Y1675597D01*
X449305Y1675564D01*
X449191Y1675535D01*
X449077Y1675510D01*
X448962Y1675489D01*
X448847Y1675471D01*
X448730Y1675458D01*
X448614Y1675448D01*
X448497Y1675442D01*
X448380Y1675440D01*
X451880Y1678940D02*
X451878Y1679057D01*
X451872Y1679174D01*
X451862Y1679290D01*
X451849Y1679407D01*
X451831Y1679522D01*
X451810Y1679637D01*
X451785Y1679751D01*
X451756Y1679865D01*
X451723Y1679977D01*
X451686Y1680088D01*
X451646Y1680198D01*
X451602Y1680306D01*
X451555Y1680413D01*
X451504Y1680519D01*
X451449Y1680622D01*
X451391Y1680724D01*
X451330Y1680823D01*
X451266Y1680921D01*
X451198Y1681016D01*
X451127Y1681109D01*
X451053Y1681200D01*
X450976Y1681288D01*
X450896Y1681373D01*
X450813Y1681456D01*
X450728Y1681536D01*
X450640Y1681613D01*
X450549Y1681687D01*
X450456Y1681758D01*
X450361Y1681826D01*
X450263Y1681890D01*
X450164Y1681951D01*
X450062Y1682009D01*
X449959Y1682064D01*
X449853Y1682115D01*
X449746Y1682162D01*
X449638Y1682206D01*
X449528Y1682246D01*
X449417Y1682283D01*
X449305Y1682316D01*
X449191Y1682345D01*
X449077Y1682370D01*
X448962Y1682391D01*
X448847Y1682409D01*
X448730Y1682422D01*
X448614Y1682432D01*
X448497Y1682438D01*
X448380Y1682440D01*
X425380Y1675440D02*
X425263Y1675442D01*
X425146Y1675448D01*
X425030Y1675458D01*
X424913Y1675471D01*
X424798Y1675489D01*
X424683Y1675510D01*
X424569Y1675535D01*
X424455Y1675564D01*
X424343Y1675597D01*
X424232Y1675634D01*
X424122Y1675674D01*
X424014Y1675718D01*
X423907Y1675765D01*
X423801Y1675816D01*
X423698Y1675871D01*
X423596Y1675929D01*
X423497Y1675990D01*
X423399Y1676054D01*
X423304Y1676122D01*
X423211Y1676193D01*
X423120Y1676267D01*
X423032Y1676344D01*
X422947Y1676424D01*
X422864Y1676507D01*
X422784Y1676592D01*
X422707Y1676680D01*
X422633Y1676771D01*
X422562Y1676864D01*
X422494Y1676959D01*
X422430Y1677057D01*
X422369Y1677156D01*
X422311Y1677258D01*
X422256Y1677361D01*
X422205Y1677467D01*
X422158Y1677574D01*
X422114Y1677682D01*
X422074Y1677792D01*
X422037Y1677903D01*
X422004Y1678015D01*
X421975Y1678129D01*
X421950Y1678243D01*
X421929Y1678358D01*
X421911Y1678473D01*
X421898Y1678590D01*
X421888Y1678706D01*
X421882Y1678823D01*
X421880Y1678940D01*
X421882Y1679057D01*
X421888Y1679174D01*
X421898Y1679290D01*
X421911Y1679407D01*
X421929Y1679522D01*
X421950Y1679637D01*
X421975Y1679751D01*
X422004Y1679865D01*
X422037Y1679977D01*
X422074Y1680088D01*
X422114Y1680198D01*
X422158Y1680306D01*
X422205Y1680413D01*
X422256Y1680519D01*
X422311Y1680622D01*
X422369Y1680724D01*
X422430Y1680823D01*
X422494Y1680921D01*
X422562Y1681016D01*
X422633Y1681109D01*
X422707Y1681200D01*
X422784Y1681288D01*
X422864Y1681373D01*
X422947Y1681456D01*
X423032Y1681536D01*
X423120Y1681613D01*
X423211Y1681687D01*
X423304Y1681758D01*
X423399Y1681826D01*
X423497Y1681890D01*
X423596Y1681951D01*
X423698Y1682009D01*
X423801Y1682064D01*
X423907Y1682115D01*
X424014Y1682162D01*
X424122Y1682206D01*
X424232Y1682246D01*
X424343Y1682283D01*
X424455Y1682316D01*
X424569Y1682345D01*
X424683Y1682370D01*
X424798Y1682391D01*
X424913Y1682409D01*
X425030Y1682422D01*
X425146Y1682432D01*
X425263Y1682438D01*
X425380Y1682440D01*
X425380Y1736440D02*
X448380Y1736440D01*
X448380Y1743440D02*
X425380Y1743440D01*
X448380Y1736440D02*
X448497Y1736442D01*
X448614Y1736448D01*
X448730Y1736458D01*
X448847Y1736471D01*
X448962Y1736489D01*
X449077Y1736510D01*
X449191Y1736535D01*
X449305Y1736564D01*
X449417Y1736597D01*
X449528Y1736634D01*
X449638Y1736674D01*
X449746Y1736718D01*
X449853Y1736765D01*
X449959Y1736816D01*
X450062Y1736871D01*
X450164Y1736929D01*
X450263Y1736990D01*
X450361Y1737054D01*
X450456Y1737122D01*
X450549Y1737193D01*
X450640Y1737267D01*
X450728Y1737344D01*
X450813Y1737424D01*
X450896Y1737507D01*
X450976Y1737592D01*
X451053Y1737680D01*
X451127Y1737771D01*
X451198Y1737864D01*
X451266Y1737959D01*
X451330Y1738057D01*
X451391Y1738156D01*
X451449Y1738258D01*
X451504Y1738361D01*
X451555Y1738467D01*
X451602Y1738574D01*
X451646Y1738682D01*
X451686Y1738792D01*
X451723Y1738903D01*
X451756Y1739015D01*
X451785Y1739129D01*
X451810Y1739243D01*
X451831Y1739358D01*
X451849Y1739473D01*
X451862Y1739590D01*
X451872Y1739706D01*
X451878Y1739823D01*
X451880Y1739940D01*
X451878Y1740057D01*
X451872Y1740174D01*
X451862Y1740290D01*
X451849Y1740407D01*
X451831Y1740522D01*
X451810Y1740637D01*
X451785Y1740751D01*
X451756Y1740865D01*
X451723Y1740977D01*
X451686Y1741088D01*
X451646Y1741198D01*
X451602Y1741306D01*
X451555Y1741413D01*
X451504Y1741519D01*
X451449Y1741622D01*
X451391Y1741724D01*
X451330Y1741823D01*
X451266Y1741921D01*
X451198Y1742016D01*
X451127Y1742109D01*
X451053Y1742200D01*
X450976Y1742288D01*
X450896Y1742373D01*
X450813Y1742456D01*
X450728Y1742536D01*
X450640Y1742613D01*
X450549Y1742687D01*
X450456Y1742758D01*
X450361Y1742826D01*
X450263Y1742890D01*
X450164Y1742951D01*
X450062Y1743009D01*
X449959Y1743064D01*
X449853Y1743115D01*
X449746Y1743162D01*
X449638Y1743206D01*
X449528Y1743246D01*
X449417Y1743283D01*
X449305Y1743316D01*
X449191Y1743345D01*
X449077Y1743370D01*
X448962Y1743391D01*
X448847Y1743409D01*
X448730Y1743422D01*
X448614Y1743432D01*
X448497Y1743438D01*
X448380Y1743440D01*
X425380Y1736440D02*
X425263Y1736442D01*
X425146Y1736448D01*
X425030Y1736458D01*
X424913Y1736471D01*
X424798Y1736489D01*
X424683Y1736510D01*
X424569Y1736535D01*
X424455Y1736564D01*
X424343Y1736597D01*
X424232Y1736634D01*
X424122Y1736674D01*
X424014Y1736718D01*
X423907Y1736765D01*
X423801Y1736816D01*
X423698Y1736871D01*
X423596Y1736929D01*
X423497Y1736990D01*
X423399Y1737054D01*
X423304Y1737122D01*
X423211Y1737193D01*
X423120Y1737267D01*
X423032Y1737344D01*
X422947Y1737424D01*
X422864Y1737507D01*
X422784Y1737592D01*
X422707Y1737680D01*
X422633Y1737771D01*
X422562Y1737864D01*
X422494Y1737959D01*
X422430Y1738057D01*
X422369Y1738156D01*
X422311Y1738258D01*
X422256Y1738361D01*
X422205Y1738467D01*
X422158Y1738574D01*
X422114Y1738682D01*
X422074Y1738792D01*
X422037Y1738903D01*
X422004Y1739015D01*
X421975Y1739129D01*
X421950Y1739243D01*
X421929Y1739358D01*
X421911Y1739473D01*
X421898Y1739590D01*
X421888Y1739706D01*
X421882Y1739823D01*
X421880Y1739940D01*
X421882Y1740057D01*
X421888Y1740174D01*
X421898Y1740290D01*
X421911Y1740407D01*
X421929Y1740522D01*
X421950Y1740637D01*
X421975Y1740751D01*
X422004Y1740865D01*
X422037Y1740977D01*
X422074Y1741088D01*
X422114Y1741198D01*
X422158Y1741306D01*
X422205Y1741413D01*
X422256Y1741519D01*
X422311Y1741622D01*
X422369Y1741724D01*
X422430Y1741823D01*
X422494Y1741921D01*
X422562Y1742016D01*
X422633Y1742109D01*
X422707Y1742200D01*
X422784Y1742288D01*
X422864Y1742373D01*
X422947Y1742456D01*
X423032Y1742536D01*
X423120Y1742613D01*
X423211Y1742687D01*
X423304Y1742758D01*
X423399Y1742826D01*
X423497Y1742890D01*
X423596Y1742951D01*
X423698Y1743009D01*
X423801Y1743064D01*
X423907Y1743115D01*
X424014Y1743162D01*
X424122Y1743206D01*
X424232Y1743246D01*
X424343Y1743283D01*
X424455Y1743316D01*
X424569Y1743345D01*
X424683Y1743370D01*
X424798Y1743391D01*
X424913Y1743409D01*
X425030Y1743422D01*
X425146Y1743432D01*
X425263Y1743438D01*
X425380Y1743440D01*
X481380Y1720440D02*
X481380Y1697440D01*
X488380Y1697440D02*
X488380Y1720440D01*
X481380Y1697440D02*
X481382Y1697323D01*
X481388Y1697206D01*
X481398Y1697090D01*
X481411Y1696973D01*
X481429Y1696858D01*
X481450Y1696743D01*
X481475Y1696629D01*
X481504Y1696515D01*
X481537Y1696403D01*
X481574Y1696292D01*
X481614Y1696182D01*
X481658Y1696074D01*
X481705Y1695967D01*
X481756Y1695861D01*
X481811Y1695758D01*
X481869Y1695656D01*
X481930Y1695557D01*
X481994Y1695459D01*
X482062Y1695364D01*
X482133Y1695271D01*
X482207Y1695180D01*
X482284Y1695092D01*
X482364Y1695007D01*
X482447Y1694924D01*
X482532Y1694844D01*
X482620Y1694767D01*
X482711Y1694693D01*
X482804Y1694622D01*
X482899Y1694554D01*
X482997Y1694490D01*
X483096Y1694429D01*
X483198Y1694371D01*
X483301Y1694316D01*
X483407Y1694265D01*
X483514Y1694218D01*
X483622Y1694174D01*
X483732Y1694134D01*
X483843Y1694097D01*
X483955Y1694064D01*
X484069Y1694035D01*
X484183Y1694010D01*
X484298Y1693989D01*
X484413Y1693971D01*
X484530Y1693958D01*
X484646Y1693948D01*
X484763Y1693942D01*
X484880Y1693940D01*
X484997Y1693942D01*
X485114Y1693948D01*
X485230Y1693958D01*
X485347Y1693971D01*
X485462Y1693989D01*
X485577Y1694010D01*
X485691Y1694035D01*
X485805Y1694064D01*
X485917Y1694097D01*
X486028Y1694134D01*
X486138Y1694174D01*
X486246Y1694218D01*
X486353Y1694265D01*
X486459Y1694316D01*
X486562Y1694371D01*
X486664Y1694429D01*
X486763Y1694490D01*
X486861Y1694554D01*
X486956Y1694622D01*
X487049Y1694693D01*
X487140Y1694767D01*
X487228Y1694844D01*
X487313Y1694924D01*
X487396Y1695007D01*
X487476Y1695092D01*
X487553Y1695180D01*
X487627Y1695271D01*
X487698Y1695364D01*
X487766Y1695459D01*
X487830Y1695557D01*
X487891Y1695656D01*
X487949Y1695758D01*
X488004Y1695861D01*
X488055Y1695967D01*
X488102Y1696074D01*
X488146Y1696182D01*
X488186Y1696292D01*
X488223Y1696403D01*
X488256Y1696515D01*
X488285Y1696629D01*
X488310Y1696743D01*
X488331Y1696858D01*
X488349Y1696973D01*
X488362Y1697090D01*
X488372Y1697206D01*
X488378Y1697323D01*
X488380Y1697440D01*
X481380Y1720440D02*
X481382Y1720557D01*
X481388Y1720674D01*
X481398Y1720790D01*
X481411Y1720907D01*
X481429Y1721022D01*
X481450Y1721137D01*
X481475Y1721251D01*
X481504Y1721365D01*
X481537Y1721477D01*
X481574Y1721588D01*
X481614Y1721698D01*
X481658Y1721806D01*
X481705Y1721913D01*
X481756Y1722019D01*
X481811Y1722122D01*
X481869Y1722224D01*
X481930Y1722323D01*
X481994Y1722421D01*
X482062Y1722516D01*
X482133Y1722609D01*
X482207Y1722700D01*
X482284Y1722788D01*
X482364Y1722873D01*
X482447Y1722956D01*
X482532Y1723036D01*
X482620Y1723113D01*
X482711Y1723187D01*
X482804Y1723258D01*
X482899Y1723326D01*
X482997Y1723390D01*
X483096Y1723451D01*
X483198Y1723509D01*
X483301Y1723564D01*
X483407Y1723615D01*
X483514Y1723662D01*
X483622Y1723706D01*
X483732Y1723746D01*
X483843Y1723783D01*
X483955Y1723816D01*
X484069Y1723845D01*
X484183Y1723870D01*
X484298Y1723891D01*
X484413Y1723909D01*
X484530Y1723922D01*
X484646Y1723932D01*
X484763Y1723938D01*
X484880Y1723940D01*
X484997Y1723938D01*
X485114Y1723932D01*
X485230Y1723922D01*
X485347Y1723909D01*
X485462Y1723891D01*
X485577Y1723870D01*
X485691Y1723845D01*
X485805Y1723816D01*
X485917Y1723783D01*
X486028Y1723746D01*
X486138Y1723706D01*
X486246Y1723662D01*
X486353Y1723615D01*
X486459Y1723564D01*
X486562Y1723509D01*
X486664Y1723451D01*
X486763Y1723390D01*
X486861Y1723326D01*
X486956Y1723258D01*
X487049Y1723187D01*
X487140Y1723113D01*
X487228Y1723036D01*
X487313Y1722956D01*
X487396Y1722873D01*
X487476Y1722788D01*
X487553Y1722700D01*
X487627Y1722609D01*
X487698Y1722516D01*
X487766Y1722421D01*
X487830Y1722323D01*
X487891Y1722224D01*
X487949Y1722122D01*
X488004Y1722019D01*
X488055Y1721913D01*
X488102Y1721806D01*
X488146Y1721698D01*
X488186Y1721588D01*
X488223Y1721477D01*
X488256Y1721365D01*
X488285Y1721251D01*
X488310Y1721137D01*
X488331Y1721022D01*
X488349Y1720907D01*
X488362Y1720790D01*
X488372Y1720674D01*
X488378Y1720557D01*
X488380Y1720440D01*
M02*
