G04 EAGLE Gerber RS-274X export*
G75*
%MOMM*%
%FSLAX34Y34*%
%LPD*%
%INSilkscreen Bottom*%
%IPPOS*%
%AMOC8*
5,1,8,0,0,1.08239X$1,22.5*%
G01*
%ADD10C,0.101600*%
%ADD11C,0.152400*%
%ADD12C,0.254000*%
%ADD13C,0.127000*%
%ADD14C,0.203200*%
%ADD15C,0.076200*%
%ADD16C,0.400000*%


D10*
X577148Y1686052D02*
X574777Y1678940D01*
X572406Y1686052D01*
X569055Y1682891D02*
X567079Y1682891D01*
X567079Y1682892D02*
X566992Y1682890D01*
X566904Y1682884D01*
X566817Y1682875D01*
X566731Y1682861D01*
X566645Y1682844D01*
X566561Y1682823D01*
X566477Y1682798D01*
X566394Y1682769D01*
X566313Y1682737D01*
X566233Y1682702D01*
X566155Y1682663D01*
X566078Y1682620D01*
X566004Y1682574D01*
X565932Y1682525D01*
X565862Y1682473D01*
X565794Y1682417D01*
X565729Y1682359D01*
X565666Y1682298D01*
X565607Y1682234D01*
X565550Y1682167D01*
X565496Y1682099D01*
X565445Y1682027D01*
X565398Y1681954D01*
X565353Y1681879D01*
X565312Y1681801D01*
X565275Y1681722D01*
X565241Y1681642D01*
X565211Y1681560D01*
X565184Y1681477D01*
X565161Y1681392D01*
X565142Y1681307D01*
X565127Y1681221D01*
X565115Y1681134D01*
X565107Y1681047D01*
X565103Y1680960D01*
X565103Y1680872D01*
X565107Y1680785D01*
X565115Y1680698D01*
X565127Y1680611D01*
X565142Y1680525D01*
X565161Y1680440D01*
X565184Y1680355D01*
X565211Y1680272D01*
X565241Y1680190D01*
X565275Y1680110D01*
X565312Y1680031D01*
X565353Y1679953D01*
X565398Y1679878D01*
X565445Y1679805D01*
X565496Y1679733D01*
X565550Y1679665D01*
X565607Y1679598D01*
X565666Y1679534D01*
X565729Y1679473D01*
X565794Y1679415D01*
X565862Y1679359D01*
X565932Y1679307D01*
X566004Y1679258D01*
X566078Y1679212D01*
X566155Y1679169D01*
X566233Y1679130D01*
X566313Y1679095D01*
X566394Y1679063D01*
X566477Y1679034D01*
X566561Y1679009D01*
X566645Y1678988D01*
X566731Y1678971D01*
X566817Y1678957D01*
X566904Y1678948D01*
X566992Y1678942D01*
X567079Y1678940D01*
X569055Y1678940D01*
X569055Y1686052D01*
X567079Y1686052D01*
X567000Y1686050D01*
X566922Y1686044D01*
X566844Y1686034D01*
X566766Y1686021D01*
X566689Y1686003D01*
X566613Y1685982D01*
X566539Y1685957D01*
X566465Y1685928D01*
X566393Y1685896D01*
X566323Y1685860D01*
X566255Y1685820D01*
X566189Y1685777D01*
X566125Y1685731D01*
X566063Y1685682D01*
X566004Y1685630D01*
X565948Y1685575D01*
X565894Y1685517D01*
X565844Y1685457D01*
X565796Y1685394D01*
X565752Y1685329D01*
X565711Y1685262D01*
X565673Y1685193D01*
X565639Y1685122D01*
X565608Y1685049D01*
X565581Y1684975D01*
X565558Y1684900D01*
X565539Y1684824D01*
X565523Y1684746D01*
X565511Y1684668D01*
X565503Y1684590D01*
X565499Y1684511D01*
X565499Y1684433D01*
X565503Y1684354D01*
X565511Y1684276D01*
X565523Y1684198D01*
X565539Y1684120D01*
X565558Y1684044D01*
X565581Y1683969D01*
X565608Y1683895D01*
X565639Y1683822D01*
X565673Y1683751D01*
X565711Y1683682D01*
X565752Y1683615D01*
X565796Y1683550D01*
X565844Y1683487D01*
X565894Y1683427D01*
X565948Y1683369D01*
X566004Y1683314D01*
X566063Y1683262D01*
X566125Y1683213D01*
X566189Y1683167D01*
X566255Y1683124D01*
X566323Y1683084D01*
X566393Y1683048D01*
X566465Y1683016D01*
X566539Y1682987D01*
X566613Y1682962D01*
X566689Y1682941D01*
X566766Y1682923D01*
X566844Y1682910D01*
X566922Y1682900D01*
X567000Y1682894D01*
X567079Y1682892D01*
X561878Y1680916D02*
X561878Y1686052D01*
X561879Y1680916D02*
X561877Y1680829D01*
X561871Y1680741D01*
X561862Y1680654D01*
X561848Y1680568D01*
X561831Y1680482D01*
X561810Y1680398D01*
X561785Y1680314D01*
X561756Y1680231D01*
X561724Y1680150D01*
X561689Y1680070D01*
X561650Y1679992D01*
X561607Y1679915D01*
X561561Y1679841D01*
X561512Y1679769D01*
X561460Y1679699D01*
X561404Y1679631D01*
X561346Y1679566D01*
X561285Y1679503D01*
X561221Y1679444D01*
X561154Y1679387D01*
X561086Y1679333D01*
X561014Y1679282D01*
X560941Y1679235D01*
X560866Y1679190D01*
X560788Y1679149D01*
X560709Y1679112D01*
X560629Y1679078D01*
X560547Y1679048D01*
X560464Y1679021D01*
X560379Y1678998D01*
X560294Y1678979D01*
X560208Y1678964D01*
X560121Y1678952D01*
X560034Y1678944D01*
X559947Y1678940D01*
X559859Y1678940D01*
X559772Y1678944D01*
X559685Y1678952D01*
X559598Y1678964D01*
X559512Y1678979D01*
X559427Y1678998D01*
X559342Y1679021D01*
X559259Y1679048D01*
X559177Y1679078D01*
X559097Y1679112D01*
X559018Y1679149D01*
X558940Y1679190D01*
X558865Y1679235D01*
X558792Y1679282D01*
X558720Y1679333D01*
X558652Y1679387D01*
X558585Y1679444D01*
X558521Y1679503D01*
X558460Y1679566D01*
X558402Y1679631D01*
X558346Y1679699D01*
X558294Y1679769D01*
X558245Y1679841D01*
X558199Y1679915D01*
X558156Y1679992D01*
X558117Y1680070D01*
X558082Y1680150D01*
X558050Y1680231D01*
X558021Y1680314D01*
X557996Y1680398D01*
X557975Y1680482D01*
X557958Y1680568D01*
X557944Y1680654D01*
X557935Y1680741D01*
X557929Y1680829D01*
X557927Y1680916D01*
X557927Y1686052D01*
X552193Y1678940D02*
X552115Y1678942D01*
X552038Y1678948D01*
X551961Y1678957D01*
X551885Y1678970D01*
X551809Y1678987D01*
X551734Y1679008D01*
X551661Y1679032D01*
X551588Y1679060D01*
X551517Y1679092D01*
X551448Y1679127D01*
X551381Y1679165D01*
X551315Y1679206D01*
X551252Y1679251D01*
X551191Y1679299D01*
X551132Y1679349D01*
X551076Y1679403D01*
X551022Y1679459D01*
X550972Y1679518D01*
X550924Y1679579D01*
X550879Y1679642D01*
X550838Y1679708D01*
X550800Y1679775D01*
X550765Y1679844D01*
X550733Y1679915D01*
X550705Y1679988D01*
X550681Y1680061D01*
X550660Y1680136D01*
X550643Y1680212D01*
X550630Y1680288D01*
X550621Y1680365D01*
X550615Y1680442D01*
X550613Y1680520D01*
X552193Y1678940D02*
X552308Y1678942D01*
X552422Y1678948D01*
X552536Y1678958D01*
X552650Y1678971D01*
X552763Y1678989D01*
X552876Y1679011D01*
X552988Y1679036D01*
X553099Y1679065D01*
X553208Y1679098D01*
X553317Y1679135D01*
X553424Y1679175D01*
X553530Y1679219D01*
X553634Y1679267D01*
X553737Y1679318D01*
X553837Y1679373D01*
X553936Y1679431D01*
X554033Y1679493D01*
X554127Y1679557D01*
X554220Y1679625D01*
X554310Y1679697D01*
X554397Y1679771D01*
X554482Y1679848D01*
X554564Y1679928D01*
X554365Y1684472D02*
X554363Y1684550D01*
X554357Y1684627D01*
X554348Y1684704D01*
X554335Y1684780D01*
X554318Y1684856D01*
X554297Y1684931D01*
X554273Y1685004D01*
X554245Y1685077D01*
X554213Y1685148D01*
X554178Y1685217D01*
X554140Y1685284D01*
X554099Y1685350D01*
X554054Y1685413D01*
X554006Y1685474D01*
X553956Y1685533D01*
X553902Y1685589D01*
X553846Y1685643D01*
X553787Y1685693D01*
X553726Y1685741D01*
X553663Y1685786D01*
X553597Y1685827D01*
X553530Y1685865D01*
X553461Y1685900D01*
X553390Y1685932D01*
X553317Y1685960D01*
X553244Y1685984D01*
X553169Y1686005D01*
X553093Y1686022D01*
X553017Y1686035D01*
X552940Y1686044D01*
X552863Y1686050D01*
X552785Y1686052D01*
X552679Y1686050D01*
X552573Y1686044D01*
X552468Y1686035D01*
X552363Y1686022D01*
X552258Y1686005D01*
X552154Y1685984D01*
X552051Y1685960D01*
X551949Y1685932D01*
X551848Y1685900D01*
X551748Y1685865D01*
X551650Y1685826D01*
X551552Y1685783D01*
X551457Y1685738D01*
X551363Y1685689D01*
X551271Y1685636D01*
X551181Y1685580D01*
X551093Y1685521D01*
X551007Y1685459D01*
X553576Y1683089D02*
X553643Y1683131D01*
X553708Y1683176D01*
X553771Y1683225D01*
X553832Y1683276D01*
X553889Y1683331D01*
X553944Y1683388D01*
X553997Y1683448D01*
X554046Y1683510D01*
X554092Y1683575D01*
X554134Y1683641D01*
X554174Y1683710D01*
X554210Y1683781D01*
X554242Y1683854D01*
X554271Y1683928D01*
X554296Y1684003D01*
X554317Y1684079D01*
X554335Y1684157D01*
X554348Y1684235D01*
X554358Y1684314D01*
X554364Y1684393D01*
X554366Y1684472D01*
X551402Y1681903D02*
X551335Y1681861D01*
X551270Y1681816D01*
X551207Y1681767D01*
X551146Y1681716D01*
X551089Y1681661D01*
X551034Y1681604D01*
X550981Y1681544D01*
X550932Y1681482D01*
X550886Y1681417D01*
X550844Y1681351D01*
X550804Y1681282D01*
X550768Y1681211D01*
X550736Y1681138D01*
X550707Y1681064D01*
X550682Y1680989D01*
X550661Y1680913D01*
X550643Y1680835D01*
X550630Y1680757D01*
X550620Y1680678D01*
X550614Y1680599D01*
X550612Y1680520D01*
X551402Y1681903D02*
X553576Y1683089D01*
X646276Y1712468D02*
X646276Y1719580D01*
X644301Y1719580D01*
X644215Y1719578D01*
X644129Y1719572D01*
X644043Y1719563D01*
X643958Y1719550D01*
X643873Y1719533D01*
X643790Y1719513D01*
X643707Y1719489D01*
X643625Y1719461D01*
X643545Y1719430D01*
X643466Y1719395D01*
X643389Y1719357D01*
X643313Y1719315D01*
X643239Y1719271D01*
X643168Y1719223D01*
X643098Y1719172D01*
X643031Y1719118D01*
X642966Y1719061D01*
X642904Y1719001D01*
X642844Y1718939D01*
X642787Y1718874D01*
X642733Y1718807D01*
X642682Y1718737D01*
X642634Y1718666D01*
X642590Y1718592D01*
X642548Y1718516D01*
X642510Y1718439D01*
X642475Y1718360D01*
X642444Y1718280D01*
X642416Y1718198D01*
X642392Y1718115D01*
X642372Y1718032D01*
X642355Y1717947D01*
X642342Y1717862D01*
X642333Y1717776D01*
X642327Y1717690D01*
X642325Y1717604D01*
X642325Y1714444D01*
X642327Y1714358D01*
X642333Y1714272D01*
X642342Y1714186D01*
X642355Y1714101D01*
X642372Y1714016D01*
X642392Y1713933D01*
X642416Y1713850D01*
X642444Y1713768D01*
X642475Y1713688D01*
X642510Y1713609D01*
X642548Y1713532D01*
X642590Y1713456D01*
X642634Y1713382D01*
X642682Y1713311D01*
X642733Y1713241D01*
X642787Y1713174D01*
X642844Y1713109D01*
X642904Y1713047D01*
X642966Y1712987D01*
X643031Y1712930D01*
X643098Y1712876D01*
X643168Y1712825D01*
X643239Y1712777D01*
X643313Y1712733D01*
X643389Y1712691D01*
X643466Y1712653D01*
X643545Y1712618D01*
X643625Y1712587D01*
X643707Y1712559D01*
X643790Y1712535D01*
X643873Y1712515D01*
X643958Y1712498D01*
X644043Y1712485D01*
X644129Y1712476D01*
X644215Y1712470D01*
X644301Y1712468D01*
X646276Y1712468D01*
X638625Y1715234D02*
X633884Y1715234D01*
X671676Y1686052D02*
X671676Y1678940D01*
X671676Y1686052D02*
X669701Y1686052D01*
X669615Y1686050D01*
X669529Y1686044D01*
X669443Y1686035D01*
X669358Y1686022D01*
X669273Y1686005D01*
X669190Y1685985D01*
X669107Y1685961D01*
X669025Y1685933D01*
X668945Y1685902D01*
X668866Y1685867D01*
X668789Y1685829D01*
X668713Y1685787D01*
X668639Y1685743D01*
X668568Y1685695D01*
X668498Y1685644D01*
X668431Y1685590D01*
X668366Y1685533D01*
X668304Y1685473D01*
X668244Y1685411D01*
X668187Y1685346D01*
X668133Y1685279D01*
X668082Y1685209D01*
X668034Y1685138D01*
X667990Y1685064D01*
X667948Y1684988D01*
X667910Y1684911D01*
X667875Y1684832D01*
X667844Y1684752D01*
X667816Y1684670D01*
X667792Y1684587D01*
X667772Y1684504D01*
X667755Y1684419D01*
X667742Y1684334D01*
X667733Y1684248D01*
X667727Y1684162D01*
X667725Y1684076D01*
X667725Y1680916D01*
X667727Y1680830D01*
X667733Y1680744D01*
X667742Y1680658D01*
X667755Y1680573D01*
X667772Y1680488D01*
X667792Y1680405D01*
X667816Y1680322D01*
X667844Y1680240D01*
X667875Y1680160D01*
X667910Y1680081D01*
X667948Y1680004D01*
X667990Y1679928D01*
X668034Y1679854D01*
X668082Y1679783D01*
X668133Y1679713D01*
X668187Y1679646D01*
X668244Y1679581D01*
X668304Y1679519D01*
X668366Y1679459D01*
X668431Y1679402D01*
X668498Y1679348D01*
X668568Y1679297D01*
X668639Y1679249D01*
X668713Y1679205D01*
X668789Y1679163D01*
X668866Y1679125D01*
X668945Y1679090D01*
X669025Y1679059D01*
X669107Y1679031D01*
X669190Y1679007D01*
X669273Y1678987D01*
X669358Y1678970D01*
X669443Y1678957D01*
X669529Y1678948D01*
X669615Y1678942D01*
X669701Y1678940D01*
X671676Y1678940D01*
X664025Y1681706D02*
X659284Y1681706D01*
X661654Y1684076D02*
X661654Y1679335D01*
X599980Y1712468D02*
X599902Y1712470D01*
X599825Y1712476D01*
X599748Y1712485D01*
X599672Y1712498D01*
X599596Y1712515D01*
X599521Y1712536D01*
X599448Y1712560D01*
X599375Y1712588D01*
X599304Y1712620D01*
X599235Y1712655D01*
X599168Y1712693D01*
X599102Y1712734D01*
X599039Y1712779D01*
X598978Y1712827D01*
X598919Y1712877D01*
X598863Y1712931D01*
X598809Y1712987D01*
X598759Y1713046D01*
X598711Y1713107D01*
X598666Y1713170D01*
X598625Y1713236D01*
X598587Y1713303D01*
X598552Y1713372D01*
X598520Y1713443D01*
X598492Y1713516D01*
X598468Y1713589D01*
X598447Y1713664D01*
X598430Y1713740D01*
X598417Y1713816D01*
X598408Y1713893D01*
X598402Y1713970D01*
X598400Y1714048D01*
X599980Y1712468D02*
X600095Y1712470D01*
X600209Y1712476D01*
X600323Y1712486D01*
X600437Y1712499D01*
X600550Y1712517D01*
X600663Y1712539D01*
X600775Y1712564D01*
X600886Y1712593D01*
X600995Y1712626D01*
X601104Y1712663D01*
X601211Y1712703D01*
X601317Y1712747D01*
X601421Y1712795D01*
X601524Y1712846D01*
X601624Y1712901D01*
X601723Y1712959D01*
X601820Y1713021D01*
X601914Y1713085D01*
X602007Y1713153D01*
X602097Y1713225D01*
X602184Y1713299D01*
X602269Y1713376D01*
X602351Y1713456D01*
X602152Y1718000D02*
X602150Y1718078D01*
X602144Y1718155D01*
X602135Y1718232D01*
X602122Y1718308D01*
X602105Y1718384D01*
X602084Y1718459D01*
X602060Y1718532D01*
X602032Y1718605D01*
X602000Y1718676D01*
X601965Y1718745D01*
X601927Y1718812D01*
X601886Y1718878D01*
X601841Y1718941D01*
X601793Y1719002D01*
X601743Y1719061D01*
X601689Y1719117D01*
X601633Y1719171D01*
X601574Y1719221D01*
X601513Y1719269D01*
X601450Y1719314D01*
X601384Y1719355D01*
X601317Y1719393D01*
X601248Y1719428D01*
X601177Y1719460D01*
X601104Y1719488D01*
X601031Y1719512D01*
X600956Y1719533D01*
X600880Y1719550D01*
X600804Y1719563D01*
X600727Y1719572D01*
X600650Y1719578D01*
X600572Y1719580D01*
X600466Y1719578D01*
X600360Y1719572D01*
X600255Y1719563D01*
X600150Y1719550D01*
X600045Y1719533D01*
X599941Y1719512D01*
X599838Y1719488D01*
X599736Y1719460D01*
X599635Y1719428D01*
X599535Y1719393D01*
X599437Y1719354D01*
X599339Y1719311D01*
X599244Y1719266D01*
X599150Y1719217D01*
X599058Y1719164D01*
X598968Y1719108D01*
X598880Y1719049D01*
X598794Y1718987D01*
X601363Y1716617D02*
X601430Y1716659D01*
X601495Y1716704D01*
X601558Y1716753D01*
X601619Y1716804D01*
X601676Y1716859D01*
X601731Y1716916D01*
X601784Y1716976D01*
X601833Y1717038D01*
X601879Y1717103D01*
X601921Y1717169D01*
X601961Y1717238D01*
X601997Y1717309D01*
X602029Y1717382D01*
X602058Y1717456D01*
X602083Y1717531D01*
X602104Y1717607D01*
X602122Y1717685D01*
X602135Y1717763D01*
X602145Y1717842D01*
X602151Y1717921D01*
X602153Y1718000D01*
X599189Y1715431D02*
X599122Y1715389D01*
X599057Y1715344D01*
X598994Y1715295D01*
X598933Y1715244D01*
X598876Y1715189D01*
X598821Y1715132D01*
X598768Y1715072D01*
X598719Y1715010D01*
X598673Y1714945D01*
X598631Y1714879D01*
X598591Y1714810D01*
X598555Y1714739D01*
X598523Y1714666D01*
X598494Y1714592D01*
X598469Y1714517D01*
X598448Y1714441D01*
X598430Y1714363D01*
X598417Y1714285D01*
X598407Y1714206D01*
X598401Y1714127D01*
X598399Y1714048D01*
X599189Y1715431D02*
X601363Y1716617D01*
X594896Y1716419D02*
X592921Y1716419D01*
X592921Y1716420D02*
X592834Y1716418D01*
X592746Y1716412D01*
X592659Y1716403D01*
X592573Y1716389D01*
X592487Y1716372D01*
X592403Y1716351D01*
X592319Y1716326D01*
X592236Y1716297D01*
X592155Y1716265D01*
X592075Y1716230D01*
X591997Y1716191D01*
X591920Y1716148D01*
X591846Y1716102D01*
X591774Y1716053D01*
X591704Y1716001D01*
X591636Y1715945D01*
X591571Y1715887D01*
X591508Y1715826D01*
X591449Y1715762D01*
X591392Y1715695D01*
X591338Y1715627D01*
X591287Y1715555D01*
X591240Y1715482D01*
X591195Y1715407D01*
X591154Y1715329D01*
X591117Y1715250D01*
X591083Y1715170D01*
X591053Y1715088D01*
X591026Y1715005D01*
X591003Y1714920D01*
X590984Y1714835D01*
X590969Y1714749D01*
X590957Y1714662D01*
X590949Y1714575D01*
X590945Y1714488D01*
X590945Y1714400D01*
X590949Y1714313D01*
X590957Y1714226D01*
X590969Y1714139D01*
X590984Y1714053D01*
X591003Y1713968D01*
X591026Y1713883D01*
X591053Y1713800D01*
X591083Y1713718D01*
X591117Y1713638D01*
X591154Y1713559D01*
X591195Y1713481D01*
X591240Y1713406D01*
X591287Y1713333D01*
X591338Y1713261D01*
X591392Y1713193D01*
X591449Y1713126D01*
X591508Y1713062D01*
X591571Y1713001D01*
X591636Y1712943D01*
X591704Y1712887D01*
X591774Y1712835D01*
X591846Y1712786D01*
X591920Y1712740D01*
X591997Y1712697D01*
X592075Y1712658D01*
X592155Y1712623D01*
X592236Y1712591D01*
X592319Y1712562D01*
X592403Y1712537D01*
X592487Y1712516D01*
X592573Y1712499D01*
X592659Y1712485D01*
X592746Y1712476D01*
X592834Y1712470D01*
X592921Y1712468D01*
X594896Y1712468D01*
X594896Y1719580D01*
X592921Y1719580D01*
X592842Y1719578D01*
X592764Y1719572D01*
X592686Y1719562D01*
X592608Y1719549D01*
X592531Y1719531D01*
X592455Y1719510D01*
X592381Y1719485D01*
X592307Y1719456D01*
X592235Y1719424D01*
X592165Y1719388D01*
X592097Y1719348D01*
X592031Y1719305D01*
X591967Y1719259D01*
X591905Y1719210D01*
X591846Y1719158D01*
X591790Y1719103D01*
X591736Y1719045D01*
X591686Y1718985D01*
X591638Y1718922D01*
X591594Y1718857D01*
X591553Y1718790D01*
X591515Y1718721D01*
X591481Y1718650D01*
X591450Y1718577D01*
X591423Y1718503D01*
X591400Y1718428D01*
X591381Y1718352D01*
X591365Y1718274D01*
X591353Y1718196D01*
X591345Y1718118D01*
X591341Y1718039D01*
X591341Y1717961D01*
X591345Y1717882D01*
X591353Y1717804D01*
X591365Y1717726D01*
X591381Y1717648D01*
X591400Y1717572D01*
X591423Y1717497D01*
X591450Y1717423D01*
X591481Y1717350D01*
X591515Y1717279D01*
X591553Y1717210D01*
X591594Y1717143D01*
X591638Y1717078D01*
X591686Y1717015D01*
X591736Y1716955D01*
X591790Y1716897D01*
X591846Y1716842D01*
X591905Y1716790D01*
X591967Y1716741D01*
X592031Y1716695D01*
X592097Y1716652D01*
X592165Y1716612D01*
X592235Y1716576D01*
X592307Y1716544D01*
X592381Y1716515D01*
X592455Y1716490D01*
X592531Y1716469D01*
X592608Y1716451D01*
X592686Y1716438D01*
X592764Y1716428D01*
X592842Y1716422D01*
X592921Y1716420D01*
X587720Y1714444D02*
X587720Y1719580D01*
X587720Y1714444D02*
X587718Y1714357D01*
X587712Y1714269D01*
X587703Y1714182D01*
X587689Y1714096D01*
X587672Y1714010D01*
X587651Y1713926D01*
X587626Y1713842D01*
X587597Y1713759D01*
X587565Y1713678D01*
X587530Y1713598D01*
X587491Y1713520D01*
X587448Y1713443D01*
X587402Y1713369D01*
X587353Y1713297D01*
X587301Y1713227D01*
X587245Y1713159D01*
X587187Y1713094D01*
X587126Y1713031D01*
X587062Y1712972D01*
X586995Y1712915D01*
X586927Y1712861D01*
X586855Y1712810D01*
X586782Y1712763D01*
X586707Y1712718D01*
X586629Y1712677D01*
X586550Y1712640D01*
X586470Y1712606D01*
X586388Y1712576D01*
X586305Y1712549D01*
X586220Y1712526D01*
X586135Y1712507D01*
X586049Y1712492D01*
X585962Y1712480D01*
X585875Y1712472D01*
X585788Y1712468D01*
X585700Y1712468D01*
X585613Y1712472D01*
X585526Y1712480D01*
X585439Y1712492D01*
X585353Y1712507D01*
X585268Y1712526D01*
X585183Y1712549D01*
X585100Y1712576D01*
X585018Y1712606D01*
X584938Y1712640D01*
X584859Y1712677D01*
X584781Y1712718D01*
X584706Y1712763D01*
X584633Y1712810D01*
X584561Y1712861D01*
X584493Y1712915D01*
X584426Y1712972D01*
X584362Y1713031D01*
X584301Y1713094D01*
X584243Y1713159D01*
X584187Y1713227D01*
X584135Y1713297D01*
X584086Y1713369D01*
X584040Y1713443D01*
X583997Y1713520D01*
X583958Y1713598D01*
X583923Y1713678D01*
X583891Y1713759D01*
X583862Y1713842D01*
X583837Y1713926D01*
X583816Y1714010D01*
X583799Y1714096D01*
X583785Y1714182D01*
X583776Y1714269D01*
X583770Y1714357D01*
X583768Y1714444D01*
X583769Y1714444D02*
X583769Y1719580D01*
X577988Y1719580D02*
X577906Y1719578D01*
X577824Y1719572D01*
X577742Y1719563D01*
X577661Y1719550D01*
X577581Y1719533D01*
X577501Y1719512D01*
X577423Y1719488D01*
X577346Y1719460D01*
X577270Y1719429D01*
X577195Y1719394D01*
X577123Y1719355D01*
X577052Y1719314D01*
X576983Y1719269D01*
X576917Y1719221D01*
X576852Y1719170D01*
X576790Y1719116D01*
X576731Y1719059D01*
X576674Y1719000D01*
X576620Y1718938D01*
X576569Y1718873D01*
X576521Y1718807D01*
X576476Y1718738D01*
X576435Y1718667D01*
X576396Y1718595D01*
X576361Y1718520D01*
X576330Y1718444D01*
X576302Y1718367D01*
X576278Y1718289D01*
X576257Y1718209D01*
X576240Y1718129D01*
X576227Y1718048D01*
X576218Y1717966D01*
X576212Y1717884D01*
X576210Y1717802D01*
X577988Y1719580D02*
X578081Y1719578D01*
X578173Y1719572D01*
X578265Y1719563D01*
X578357Y1719550D01*
X578448Y1719533D01*
X578538Y1719513D01*
X578628Y1719489D01*
X578716Y1719461D01*
X578804Y1719429D01*
X578889Y1719395D01*
X578974Y1719356D01*
X579056Y1719315D01*
X579137Y1719270D01*
X579217Y1719221D01*
X579294Y1719170D01*
X579369Y1719116D01*
X579441Y1719058D01*
X579512Y1718998D01*
X579579Y1718934D01*
X579644Y1718869D01*
X579707Y1718800D01*
X579766Y1718729D01*
X579823Y1718656D01*
X579877Y1718580D01*
X579927Y1718503D01*
X579975Y1718423D01*
X580019Y1718341D01*
X580059Y1718258D01*
X580097Y1718173D01*
X580131Y1718087D01*
X580161Y1718000D01*
X576803Y1716419D02*
X576742Y1716480D01*
X576684Y1716543D01*
X576629Y1716609D01*
X576576Y1716677D01*
X576527Y1716748D01*
X576482Y1716820D01*
X576439Y1716895D01*
X576400Y1716971D01*
X576364Y1717050D01*
X576332Y1717129D01*
X576304Y1717210D01*
X576279Y1717293D01*
X576258Y1717376D01*
X576241Y1717460D01*
X576227Y1717545D01*
X576218Y1717630D01*
X576212Y1717716D01*
X576210Y1717802D01*
X576802Y1716419D02*
X580161Y1712468D01*
X576210Y1712468D01*
X619604Y1678940D02*
X621185Y1678940D01*
X621263Y1678942D01*
X621340Y1678948D01*
X621417Y1678957D01*
X621493Y1678970D01*
X621569Y1678987D01*
X621644Y1679008D01*
X621717Y1679032D01*
X621790Y1679060D01*
X621861Y1679092D01*
X621930Y1679127D01*
X621997Y1679165D01*
X622063Y1679206D01*
X622126Y1679251D01*
X622187Y1679299D01*
X622246Y1679349D01*
X622302Y1679403D01*
X622356Y1679459D01*
X622406Y1679518D01*
X622454Y1679579D01*
X622499Y1679642D01*
X622540Y1679708D01*
X622578Y1679775D01*
X622613Y1679844D01*
X622645Y1679915D01*
X622673Y1679988D01*
X622697Y1680061D01*
X622718Y1680136D01*
X622735Y1680212D01*
X622748Y1680288D01*
X622757Y1680365D01*
X622763Y1680442D01*
X622765Y1680520D01*
X622765Y1684472D01*
X622763Y1684550D01*
X622757Y1684627D01*
X622748Y1684704D01*
X622735Y1684780D01*
X622718Y1684856D01*
X622697Y1684931D01*
X622673Y1685004D01*
X622645Y1685077D01*
X622613Y1685148D01*
X622578Y1685217D01*
X622540Y1685284D01*
X622499Y1685350D01*
X622454Y1685413D01*
X622406Y1685474D01*
X622356Y1685533D01*
X622302Y1685589D01*
X622246Y1685643D01*
X622187Y1685693D01*
X622126Y1685741D01*
X622063Y1685786D01*
X621997Y1685827D01*
X621930Y1685865D01*
X621861Y1685900D01*
X621790Y1685932D01*
X621717Y1685960D01*
X621644Y1685984D01*
X621569Y1686005D01*
X621493Y1686022D01*
X621417Y1686035D01*
X621340Y1686044D01*
X621263Y1686050D01*
X621185Y1686052D01*
X619604Y1686052D01*
X615089Y1678940D02*
X613508Y1678940D01*
X615089Y1678940D02*
X615167Y1678942D01*
X615244Y1678948D01*
X615321Y1678957D01*
X615397Y1678970D01*
X615473Y1678987D01*
X615548Y1679008D01*
X615621Y1679032D01*
X615694Y1679060D01*
X615765Y1679092D01*
X615834Y1679127D01*
X615901Y1679165D01*
X615967Y1679206D01*
X616030Y1679251D01*
X616091Y1679299D01*
X616150Y1679349D01*
X616206Y1679403D01*
X616260Y1679459D01*
X616310Y1679518D01*
X616358Y1679579D01*
X616403Y1679642D01*
X616444Y1679708D01*
X616482Y1679775D01*
X616517Y1679844D01*
X616549Y1679915D01*
X616577Y1679988D01*
X616601Y1680061D01*
X616622Y1680136D01*
X616639Y1680212D01*
X616652Y1680288D01*
X616661Y1680365D01*
X616667Y1680442D01*
X616669Y1680520D01*
X616669Y1684472D01*
X616667Y1684550D01*
X616661Y1684627D01*
X616652Y1684704D01*
X616639Y1684780D01*
X616622Y1684856D01*
X616601Y1684931D01*
X616577Y1685004D01*
X616549Y1685077D01*
X616517Y1685148D01*
X616482Y1685217D01*
X616444Y1685284D01*
X616403Y1685350D01*
X616358Y1685413D01*
X616310Y1685474D01*
X616260Y1685533D01*
X616206Y1685589D01*
X616150Y1685643D01*
X616091Y1685693D01*
X616030Y1685741D01*
X615967Y1685786D01*
X615901Y1685827D01*
X615834Y1685865D01*
X615765Y1685900D01*
X615694Y1685932D01*
X615621Y1685960D01*
X615548Y1685984D01*
X615473Y1686005D01*
X615397Y1686022D01*
X615321Y1686035D01*
X615244Y1686044D01*
X615167Y1686050D01*
X615089Y1686052D01*
X613508Y1686052D01*
X610546Y1684472D02*
X608570Y1686052D01*
X608570Y1678940D01*
X606595Y1678940D02*
X610546Y1678940D01*
X548033Y1716419D02*
X546847Y1716419D01*
X546847Y1712468D01*
X549218Y1712468D01*
X549296Y1712470D01*
X549373Y1712476D01*
X549450Y1712485D01*
X549526Y1712498D01*
X549602Y1712515D01*
X549677Y1712536D01*
X549750Y1712560D01*
X549823Y1712588D01*
X549894Y1712620D01*
X549963Y1712655D01*
X550030Y1712693D01*
X550096Y1712734D01*
X550159Y1712779D01*
X550220Y1712827D01*
X550279Y1712877D01*
X550335Y1712931D01*
X550389Y1712987D01*
X550439Y1713046D01*
X550487Y1713107D01*
X550532Y1713170D01*
X550573Y1713236D01*
X550611Y1713303D01*
X550646Y1713372D01*
X550678Y1713443D01*
X550706Y1713516D01*
X550730Y1713589D01*
X550751Y1713664D01*
X550768Y1713740D01*
X550781Y1713816D01*
X550790Y1713893D01*
X550796Y1713970D01*
X550798Y1714048D01*
X550798Y1718000D01*
X550796Y1718078D01*
X550790Y1718155D01*
X550781Y1718232D01*
X550768Y1718308D01*
X550751Y1718384D01*
X550730Y1718459D01*
X550706Y1718532D01*
X550678Y1718605D01*
X550646Y1718676D01*
X550611Y1718745D01*
X550573Y1718812D01*
X550532Y1718878D01*
X550487Y1718941D01*
X550439Y1719002D01*
X550389Y1719061D01*
X550335Y1719117D01*
X550279Y1719171D01*
X550220Y1719221D01*
X550159Y1719269D01*
X550096Y1719314D01*
X550030Y1719355D01*
X549963Y1719393D01*
X549894Y1719428D01*
X549823Y1719460D01*
X549750Y1719488D01*
X549677Y1719512D01*
X549602Y1719533D01*
X549526Y1719550D01*
X549450Y1719563D01*
X549373Y1719572D01*
X549296Y1719578D01*
X549218Y1719580D01*
X546847Y1719580D01*
X542996Y1719580D02*
X542996Y1712468D01*
X539044Y1712468D02*
X542996Y1719580D01*
X539044Y1719580D02*
X539044Y1712468D01*
X535193Y1712468D02*
X535193Y1719580D01*
X533217Y1719580D01*
X533131Y1719578D01*
X533045Y1719572D01*
X532959Y1719563D01*
X532874Y1719550D01*
X532789Y1719533D01*
X532706Y1719513D01*
X532623Y1719489D01*
X532541Y1719461D01*
X532461Y1719430D01*
X532382Y1719395D01*
X532305Y1719357D01*
X532229Y1719315D01*
X532155Y1719271D01*
X532084Y1719223D01*
X532014Y1719172D01*
X531947Y1719118D01*
X531882Y1719061D01*
X531820Y1719001D01*
X531760Y1718939D01*
X531703Y1718874D01*
X531649Y1718807D01*
X531598Y1718737D01*
X531550Y1718666D01*
X531506Y1718592D01*
X531464Y1718516D01*
X531426Y1718439D01*
X531391Y1718360D01*
X531360Y1718280D01*
X531332Y1718198D01*
X531308Y1718115D01*
X531288Y1718032D01*
X531271Y1717947D01*
X531258Y1717862D01*
X531249Y1717776D01*
X531243Y1717690D01*
X531241Y1717604D01*
X531242Y1717604D02*
X531242Y1714444D01*
X531241Y1714444D02*
X531243Y1714358D01*
X531249Y1714272D01*
X531258Y1714186D01*
X531271Y1714101D01*
X531288Y1714016D01*
X531308Y1713933D01*
X531332Y1713850D01*
X531360Y1713768D01*
X531391Y1713688D01*
X531426Y1713609D01*
X531464Y1713532D01*
X531506Y1713456D01*
X531550Y1713382D01*
X531598Y1713311D01*
X531649Y1713241D01*
X531703Y1713174D01*
X531760Y1713109D01*
X531820Y1713047D01*
X531882Y1712987D01*
X531947Y1712930D01*
X532014Y1712876D01*
X532084Y1712825D01*
X532155Y1712777D01*
X532229Y1712733D01*
X532305Y1712691D01*
X532382Y1712653D01*
X532461Y1712618D01*
X532541Y1712587D01*
X532623Y1712559D01*
X532706Y1712535D01*
X532789Y1712515D01*
X532874Y1712498D01*
X532959Y1712485D01*
X533045Y1712476D01*
X533131Y1712470D01*
X533217Y1712468D01*
X535193Y1712468D01*
D11*
X571622Y1730361D02*
X571622Y1736598D01*
X571622Y1730361D02*
X571620Y1730264D01*
X571614Y1730168D01*
X571605Y1730072D01*
X571591Y1729976D01*
X571574Y1729881D01*
X571552Y1729787D01*
X571527Y1729694D01*
X571499Y1729601D01*
X571466Y1729510D01*
X571430Y1729421D01*
X571390Y1729333D01*
X571347Y1729246D01*
X571301Y1729162D01*
X571251Y1729079D01*
X571197Y1728998D01*
X571141Y1728920D01*
X571081Y1728844D01*
X571019Y1728770D01*
X570953Y1728699D01*
X570885Y1728631D01*
X570814Y1728565D01*
X570740Y1728503D01*
X570664Y1728443D01*
X570586Y1728387D01*
X570505Y1728333D01*
X570423Y1728283D01*
X570338Y1728237D01*
X570251Y1728194D01*
X570163Y1728154D01*
X570074Y1728118D01*
X569983Y1728085D01*
X569890Y1728057D01*
X569797Y1728032D01*
X569703Y1728010D01*
X569608Y1727993D01*
X569512Y1727979D01*
X569416Y1727970D01*
X569320Y1727964D01*
X569223Y1727962D01*
X569126Y1727964D01*
X569030Y1727970D01*
X568934Y1727979D01*
X568838Y1727993D01*
X568743Y1728010D01*
X568649Y1728032D01*
X568556Y1728057D01*
X568463Y1728085D01*
X568372Y1728118D01*
X568283Y1728154D01*
X568195Y1728194D01*
X568108Y1728237D01*
X568024Y1728283D01*
X567941Y1728333D01*
X567860Y1728387D01*
X567782Y1728443D01*
X567706Y1728503D01*
X567632Y1728565D01*
X567561Y1728631D01*
X567493Y1728699D01*
X567427Y1728770D01*
X567365Y1728844D01*
X567305Y1728920D01*
X567249Y1728998D01*
X567195Y1729079D01*
X567145Y1729162D01*
X567099Y1729246D01*
X567056Y1729333D01*
X567016Y1729421D01*
X566980Y1729510D01*
X566947Y1729601D01*
X566919Y1729694D01*
X566894Y1729787D01*
X566872Y1729881D01*
X566855Y1729976D01*
X566841Y1730072D01*
X566832Y1730168D01*
X566826Y1730264D01*
X566824Y1730361D01*
X566824Y1736598D01*
X559599Y1727962D02*
X559513Y1727964D01*
X559427Y1727970D01*
X559341Y1727979D01*
X559256Y1727993D01*
X559172Y1728010D01*
X559088Y1728031D01*
X559006Y1728056D01*
X558925Y1728084D01*
X558845Y1728116D01*
X558766Y1728152D01*
X558690Y1728191D01*
X558615Y1728234D01*
X558542Y1728279D01*
X558471Y1728328D01*
X558403Y1728381D01*
X558336Y1728436D01*
X558273Y1728494D01*
X558212Y1728555D01*
X558154Y1728618D01*
X558099Y1728685D01*
X558046Y1728753D01*
X557997Y1728824D01*
X557952Y1728897D01*
X557909Y1728972D01*
X557870Y1729048D01*
X557834Y1729127D01*
X557802Y1729207D01*
X557774Y1729288D01*
X557749Y1729370D01*
X557728Y1729454D01*
X557711Y1729538D01*
X557697Y1729623D01*
X557688Y1729709D01*
X557682Y1729795D01*
X557680Y1729881D01*
X559599Y1727962D02*
X559722Y1727964D01*
X559845Y1727969D01*
X559968Y1727979D01*
X560090Y1727992D01*
X560212Y1728009D01*
X560334Y1728029D01*
X560454Y1728053D01*
X560574Y1728081D01*
X560693Y1728112D01*
X560811Y1728148D01*
X560928Y1728186D01*
X561044Y1728228D01*
X561158Y1728274D01*
X561271Y1728323D01*
X561383Y1728375D01*
X561492Y1728431D01*
X561600Y1728490D01*
X561706Y1728553D01*
X561811Y1728618D01*
X561913Y1728687D01*
X562013Y1728759D01*
X562110Y1728834D01*
X562206Y1728911D01*
X562299Y1728992D01*
X562390Y1729075D01*
X562478Y1729161D01*
X562238Y1734679D02*
X562236Y1734765D01*
X562230Y1734851D01*
X562221Y1734937D01*
X562207Y1735022D01*
X562190Y1735106D01*
X562169Y1735190D01*
X562144Y1735272D01*
X562116Y1735353D01*
X562084Y1735433D01*
X562048Y1735512D01*
X562009Y1735588D01*
X561966Y1735663D01*
X561921Y1735736D01*
X561872Y1735807D01*
X561819Y1735875D01*
X561764Y1735942D01*
X561706Y1736005D01*
X561645Y1736066D01*
X561582Y1736124D01*
X561515Y1736179D01*
X561447Y1736232D01*
X561376Y1736281D01*
X561303Y1736326D01*
X561228Y1736369D01*
X561152Y1736408D01*
X561073Y1736444D01*
X560993Y1736476D01*
X560912Y1736504D01*
X560830Y1736529D01*
X560746Y1736550D01*
X560662Y1736567D01*
X560577Y1736581D01*
X560491Y1736590D01*
X560405Y1736596D01*
X560319Y1736598D01*
X560203Y1736596D01*
X560088Y1736591D01*
X559972Y1736581D01*
X559857Y1736568D01*
X559743Y1736552D01*
X559629Y1736531D01*
X559515Y1736507D01*
X559403Y1736479D01*
X559292Y1736448D01*
X559181Y1736413D01*
X559072Y1736375D01*
X558964Y1736333D01*
X558858Y1736288D01*
X558752Y1736239D01*
X558649Y1736187D01*
X558547Y1736132D01*
X558448Y1736073D01*
X558350Y1736011D01*
X558254Y1735946D01*
X558160Y1735878D01*
X561279Y1733000D02*
X561353Y1733046D01*
X561426Y1733096D01*
X561496Y1733149D01*
X561564Y1733205D01*
X561629Y1733264D01*
X561692Y1733326D01*
X561751Y1733391D01*
X561808Y1733458D01*
X561862Y1733528D01*
X561912Y1733600D01*
X561959Y1733674D01*
X562003Y1733750D01*
X562043Y1733829D01*
X562079Y1733909D01*
X562112Y1733990D01*
X562141Y1734073D01*
X562167Y1734158D01*
X562189Y1734243D01*
X562206Y1734329D01*
X562220Y1734416D01*
X562230Y1734503D01*
X562236Y1734591D01*
X562238Y1734679D01*
X558640Y1731560D02*
X558565Y1731514D01*
X558492Y1731464D01*
X558422Y1731411D01*
X558354Y1731355D01*
X558289Y1731296D01*
X558226Y1731234D01*
X558167Y1731169D01*
X558110Y1731102D01*
X558056Y1731032D01*
X558006Y1730960D01*
X557959Y1730886D01*
X557915Y1730810D01*
X557875Y1730731D01*
X557839Y1730651D01*
X557806Y1730570D01*
X557777Y1730487D01*
X557751Y1730402D01*
X557729Y1730317D01*
X557712Y1730231D01*
X557698Y1730144D01*
X557688Y1730057D01*
X557682Y1729969D01*
X557680Y1729881D01*
X558640Y1731560D02*
X561279Y1733000D01*
X553139Y1732760D02*
X550740Y1732760D01*
X550643Y1732758D01*
X550547Y1732752D01*
X550451Y1732743D01*
X550355Y1732729D01*
X550260Y1732712D01*
X550166Y1732690D01*
X550073Y1732665D01*
X549980Y1732637D01*
X549889Y1732604D01*
X549800Y1732568D01*
X549712Y1732528D01*
X549625Y1732485D01*
X549541Y1732439D01*
X549458Y1732389D01*
X549377Y1732335D01*
X549299Y1732279D01*
X549223Y1732219D01*
X549149Y1732157D01*
X549078Y1732091D01*
X549010Y1732023D01*
X548944Y1731952D01*
X548882Y1731878D01*
X548822Y1731802D01*
X548766Y1731724D01*
X548712Y1731643D01*
X548662Y1731561D01*
X548616Y1731476D01*
X548573Y1731389D01*
X548533Y1731301D01*
X548497Y1731212D01*
X548464Y1731121D01*
X548436Y1731028D01*
X548411Y1730935D01*
X548389Y1730841D01*
X548372Y1730746D01*
X548358Y1730650D01*
X548349Y1730554D01*
X548343Y1730458D01*
X548341Y1730361D01*
X548343Y1730264D01*
X548349Y1730168D01*
X548358Y1730072D01*
X548372Y1729976D01*
X548389Y1729881D01*
X548411Y1729787D01*
X548436Y1729694D01*
X548464Y1729601D01*
X548497Y1729510D01*
X548533Y1729421D01*
X548573Y1729333D01*
X548616Y1729246D01*
X548662Y1729162D01*
X548712Y1729079D01*
X548766Y1728998D01*
X548822Y1728920D01*
X548882Y1728844D01*
X548944Y1728770D01*
X549010Y1728699D01*
X549078Y1728631D01*
X549149Y1728565D01*
X549223Y1728503D01*
X549299Y1728443D01*
X549377Y1728387D01*
X549458Y1728333D01*
X549541Y1728283D01*
X549625Y1728237D01*
X549712Y1728194D01*
X549800Y1728154D01*
X549889Y1728118D01*
X549980Y1728085D01*
X550073Y1728057D01*
X550166Y1728032D01*
X550260Y1728010D01*
X550355Y1727993D01*
X550451Y1727979D01*
X550547Y1727970D01*
X550643Y1727964D01*
X550740Y1727962D01*
X553139Y1727962D01*
X553139Y1736598D01*
X550740Y1736598D01*
X550654Y1736596D01*
X550568Y1736590D01*
X550482Y1736581D01*
X550397Y1736567D01*
X550313Y1736550D01*
X550229Y1736529D01*
X550147Y1736504D01*
X550066Y1736476D01*
X549986Y1736444D01*
X549907Y1736408D01*
X549831Y1736369D01*
X549756Y1736326D01*
X549683Y1736281D01*
X549612Y1736232D01*
X549544Y1736179D01*
X549477Y1736124D01*
X549414Y1736066D01*
X549353Y1736005D01*
X549295Y1735942D01*
X549240Y1735875D01*
X549187Y1735807D01*
X549138Y1735736D01*
X549093Y1735663D01*
X549050Y1735588D01*
X549011Y1735512D01*
X548975Y1735433D01*
X548943Y1735353D01*
X548915Y1735272D01*
X548890Y1735190D01*
X548869Y1735106D01*
X548852Y1735022D01*
X548838Y1734937D01*
X548829Y1734851D01*
X548823Y1734765D01*
X548821Y1734679D01*
X548823Y1734593D01*
X548829Y1734507D01*
X548838Y1734421D01*
X548852Y1734336D01*
X548869Y1734252D01*
X548890Y1734168D01*
X548915Y1734086D01*
X548943Y1734005D01*
X548975Y1733925D01*
X549011Y1733846D01*
X549050Y1733770D01*
X549093Y1733695D01*
X549138Y1733622D01*
X549187Y1733551D01*
X549240Y1733483D01*
X549295Y1733416D01*
X549353Y1733353D01*
X549414Y1733292D01*
X549477Y1733234D01*
X549544Y1733179D01*
X549612Y1733126D01*
X549683Y1733077D01*
X549756Y1733032D01*
X549831Y1732989D01*
X549907Y1732950D01*
X549986Y1732914D01*
X550066Y1732882D01*
X550147Y1732854D01*
X550229Y1732829D01*
X550313Y1732808D01*
X550397Y1732791D01*
X550482Y1732777D01*
X550568Y1732768D01*
X550654Y1732762D01*
X550740Y1732760D01*
X537737Y1727962D02*
X535818Y1727962D01*
X537737Y1727962D02*
X537823Y1727964D01*
X537909Y1727970D01*
X537995Y1727979D01*
X538080Y1727993D01*
X538164Y1728010D01*
X538248Y1728031D01*
X538330Y1728056D01*
X538411Y1728084D01*
X538491Y1728116D01*
X538570Y1728152D01*
X538646Y1728191D01*
X538721Y1728234D01*
X538794Y1728279D01*
X538865Y1728329D01*
X538933Y1728381D01*
X539000Y1728436D01*
X539063Y1728494D01*
X539124Y1728555D01*
X539182Y1728618D01*
X539237Y1728685D01*
X539290Y1728753D01*
X539339Y1728824D01*
X539384Y1728897D01*
X539427Y1728972D01*
X539466Y1729048D01*
X539502Y1729127D01*
X539534Y1729207D01*
X539562Y1729288D01*
X539587Y1729371D01*
X539608Y1729454D01*
X539625Y1729538D01*
X539639Y1729623D01*
X539648Y1729709D01*
X539654Y1729795D01*
X539656Y1729881D01*
X539656Y1734679D01*
X539654Y1734765D01*
X539648Y1734851D01*
X539639Y1734937D01*
X539625Y1735022D01*
X539608Y1735106D01*
X539587Y1735190D01*
X539562Y1735272D01*
X539534Y1735353D01*
X539502Y1735433D01*
X539466Y1735512D01*
X539427Y1735588D01*
X539384Y1735663D01*
X539339Y1735736D01*
X539290Y1735807D01*
X539237Y1735875D01*
X539182Y1735942D01*
X539124Y1736005D01*
X539063Y1736066D01*
X539000Y1736124D01*
X538934Y1736179D01*
X538865Y1736231D01*
X538794Y1736281D01*
X538721Y1736326D01*
X538646Y1736369D01*
X538570Y1736408D01*
X538491Y1736444D01*
X538411Y1736476D01*
X538330Y1736504D01*
X538248Y1736529D01*
X538164Y1736550D01*
X538080Y1736567D01*
X537995Y1736581D01*
X537909Y1736590D01*
X537823Y1736596D01*
X537737Y1736598D01*
X535818Y1736598D01*
D10*
X700000Y1714048D02*
X700002Y1713970D01*
X700008Y1713893D01*
X700017Y1713816D01*
X700030Y1713740D01*
X700047Y1713664D01*
X700068Y1713589D01*
X700092Y1713516D01*
X700120Y1713443D01*
X700152Y1713372D01*
X700187Y1713303D01*
X700225Y1713236D01*
X700266Y1713170D01*
X700311Y1713107D01*
X700359Y1713046D01*
X700409Y1712987D01*
X700463Y1712931D01*
X700519Y1712877D01*
X700578Y1712827D01*
X700639Y1712779D01*
X700702Y1712734D01*
X700768Y1712693D01*
X700835Y1712655D01*
X700904Y1712620D01*
X700975Y1712588D01*
X701048Y1712560D01*
X701121Y1712536D01*
X701196Y1712515D01*
X701272Y1712498D01*
X701348Y1712485D01*
X701425Y1712476D01*
X701502Y1712470D01*
X701580Y1712468D01*
X701695Y1712470D01*
X701809Y1712476D01*
X701923Y1712486D01*
X702037Y1712499D01*
X702150Y1712517D01*
X702263Y1712539D01*
X702375Y1712564D01*
X702486Y1712593D01*
X702595Y1712626D01*
X702704Y1712663D01*
X702811Y1712703D01*
X702917Y1712747D01*
X703021Y1712795D01*
X703124Y1712846D01*
X703224Y1712901D01*
X703323Y1712959D01*
X703420Y1713021D01*
X703514Y1713085D01*
X703607Y1713153D01*
X703697Y1713225D01*
X703784Y1713299D01*
X703869Y1713376D01*
X703951Y1713456D01*
X703752Y1718000D02*
X703750Y1718078D01*
X703744Y1718155D01*
X703735Y1718232D01*
X703722Y1718308D01*
X703705Y1718384D01*
X703684Y1718459D01*
X703660Y1718532D01*
X703632Y1718605D01*
X703600Y1718676D01*
X703565Y1718745D01*
X703527Y1718812D01*
X703486Y1718878D01*
X703441Y1718941D01*
X703393Y1719002D01*
X703343Y1719061D01*
X703289Y1719117D01*
X703233Y1719171D01*
X703174Y1719221D01*
X703113Y1719269D01*
X703050Y1719314D01*
X702984Y1719355D01*
X702917Y1719393D01*
X702848Y1719428D01*
X702777Y1719460D01*
X702704Y1719488D01*
X702631Y1719512D01*
X702556Y1719533D01*
X702480Y1719550D01*
X702404Y1719563D01*
X702327Y1719572D01*
X702250Y1719578D01*
X702172Y1719580D01*
X702066Y1719578D01*
X701960Y1719572D01*
X701855Y1719563D01*
X701750Y1719550D01*
X701645Y1719533D01*
X701541Y1719512D01*
X701438Y1719488D01*
X701336Y1719460D01*
X701235Y1719428D01*
X701135Y1719393D01*
X701037Y1719354D01*
X700939Y1719311D01*
X700844Y1719266D01*
X700750Y1719217D01*
X700658Y1719164D01*
X700568Y1719108D01*
X700480Y1719049D01*
X700394Y1718987D01*
X702963Y1716617D02*
X703030Y1716659D01*
X703095Y1716704D01*
X703158Y1716753D01*
X703219Y1716804D01*
X703276Y1716859D01*
X703331Y1716916D01*
X703384Y1716976D01*
X703433Y1717038D01*
X703479Y1717103D01*
X703521Y1717169D01*
X703561Y1717238D01*
X703597Y1717309D01*
X703629Y1717382D01*
X703658Y1717456D01*
X703683Y1717531D01*
X703704Y1717607D01*
X703722Y1717685D01*
X703735Y1717763D01*
X703745Y1717842D01*
X703751Y1717921D01*
X703753Y1718000D01*
X700789Y1715431D02*
X700722Y1715389D01*
X700657Y1715344D01*
X700594Y1715295D01*
X700533Y1715244D01*
X700476Y1715189D01*
X700421Y1715132D01*
X700368Y1715072D01*
X700319Y1715010D01*
X700273Y1714945D01*
X700231Y1714879D01*
X700191Y1714810D01*
X700155Y1714739D01*
X700123Y1714666D01*
X700094Y1714592D01*
X700069Y1714517D01*
X700048Y1714441D01*
X700030Y1714363D01*
X700017Y1714285D01*
X700007Y1714206D01*
X700001Y1714127D01*
X699999Y1714048D01*
X700789Y1715431D02*
X702963Y1716617D01*
X696496Y1716419D02*
X694521Y1716419D01*
X694521Y1716420D02*
X694434Y1716418D01*
X694346Y1716412D01*
X694259Y1716403D01*
X694173Y1716389D01*
X694087Y1716372D01*
X694003Y1716351D01*
X693919Y1716326D01*
X693836Y1716297D01*
X693755Y1716265D01*
X693675Y1716230D01*
X693597Y1716191D01*
X693520Y1716148D01*
X693446Y1716102D01*
X693374Y1716053D01*
X693304Y1716001D01*
X693236Y1715945D01*
X693171Y1715887D01*
X693108Y1715826D01*
X693049Y1715762D01*
X692992Y1715695D01*
X692938Y1715627D01*
X692887Y1715555D01*
X692840Y1715482D01*
X692795Y1715407D01*
X692754Y1715329D01*
X692717Y1715250D01*
X692683Y1715170D01*
X692653Y1715088D01*
X692626Y1715005D01*
X692603Y1714920D01*
X692584Y1714835D01*
X692569Y1714749D01*
X692557Y1714662D01*
X692549Y1714575D01*
X692545Y1714488D01*
X692545Y1714400D01*
X692549Y1714313D01*
X692557Y1714226D01*
X692569Y1714139D01*
X692584Y1714053D01*
X692603Y1713968D01*
X692626Y1713883D01*
X692653Y1713800D01*
X692683Y1713718D01*
X692717Y1713638D01*
X692754Y1713559D01*
X692795Y1713481D01*
X692840Y1713406D01*
X692887Y1713333D01*
X692938Y1713261D01*
X692992Y1713193D01*
X693049Y1713126D01*
X693108Y1713062D01*
X693171Y1713001D01*
X693236Y1712943D01*
X693304Y1712887D01*
X693374Y1712835D01*
X693446Y1712786D01*
X693520Y1712740D01*
X693597Y1712697D01*
X693675Y1712658D01*
X693755Y1712623D01*
X693836Y1712591D01*
X693919Y1712562D01*
X694003Y1712537D01*
X694087Y1712516D01*
X694173Y1712499D01*
X694259Y1712485D01*
X694346Y1712476D01*
X694434Y1712470D01*
X694521Y1712468D01*
X696496Y1712468D01*
X696496Y1719580D01*
X694521Y1719580D01*
X694442Y1719578D01*
X694364Y1719572D01*
X694286Y1719562D01*
X694208Y1719549D01*
X694131Y1719531D01*
X694055Y1719510D01*
X693981Y1719485D01*
X693907Y1719456D01*
X693835Y1719424D01*
X693765Y1719388D01*
X693697Y1719348D01*
X693631Y1719305D01*
X693567Y1719259D01*
X693505Y1719210D01*
X693446Y1719158D01*
X693390Y1719103D01*
X693336Y1719045D01*
X693286Y1718985D01*
X693238Y1718922D01*
X693194Y1718857D01*
X693153Y1718790D01*
X693115Y1718721D01*
X693081Y1718650D01*
X693050Y1718577D01*
X693023Y1718503D01*
X693000Y1718428D01*
X692981Y1718352D01*
X692965Y1718274D01*
X692953Y1718196D01*
X692945Y1718118D01*
X692941Y1718039D01*
X692941Y1717961D01*
X692945Y1717882D01*
X692953Y1717804D01*
X692965Y1717726D01*
X692981Y1717648D01*
X693000Y1717572D01*
X693023Y1717497D01*
X693050Y1717423D01*
X693081Y1717350D01*
X693115Y1717279D01*
X693153Y1717210D01*
X693194Y1717143D01*
X693238Y1717078D01*
X693286Y1717015D01*
X693336Y1716955D01*
X693390Y1716897D01*
X693446Y1716842D01*
X693505Y1716790D01*
X693567Y1716741D01*
X693631Y1716695D01*
X693697Y1716652D01*
X693765Y1716612D01*
X693835Y1716576D01*
X693907Y1716544D01*
X693981Y1716515D01*
X694055Y1716490D01*
X694131Y1716469D01*
X694208Y1716451D01*
X694286Y1716438D01*
X694364Y1716428D01*
X694442Y1716422D01*
X694521Y1716420D01*
X689320Y1714444D02*
X689320Y1719580D01*
X689320Y1714444D02*
X689318Y1714357D01*
X689312Y1714269D01*
X689303Y1714182D01*
X689289Y1714096D01*
X689272Y1714010D01*
X689251Y1713926D01*
X689226Y1713842D01*
X689197Y1713759D01*
X689165Y1713678D01*
X689130Y1713598D01*
X689091Y1713520D01*
X689048Y1713443D01*
X689002Y1713369D01*
X688953Y1713297D01*
X688901Y1713227D01*
X688845Y1713159D01*
X688787Y1713094D01*
X688726Y1713031D01*
X688662Y1712972D01*
X688595Y1712915D01*
X688527Y1712861D01*
X688455Y1712810D01*
X688382Y1712763D01*
X688307Y1712718D01*
X688229Y1712677D01*
X688150Y1712640D01*
X688070Y1712606D01*
X687988Y1712576D01*
X687905Y1712549D01*
X687820Y1712526D01*
X687735Y1712507D01*
X687649Y1712492D01*
X687562Y1712480D01*
X687475Y1712472D01*
X687388Y1712468D01*
X687300Y1712468D01*
X687213Y1712472D01*
X687126Y1712480D01*
X687039Y1712492D01*
X686953Y1712507D01*
X686868Y1712526D01*
X686783Y1712549D01*
X686700Y1712576D01*
X686618Y1712606D01*
X686538Y1712640D01*
X686459Y1712677D01*
X686381Y1712718D01*
X686306Y1712763D01*
X686233Y1712810D01*
X686161Y1712861D01*
X686093Y1712915D01*
X686026Y1712972D01*
X685962Y1713031D01*
X685901Y1713094D01*
X685843Y1713159D01*
X685787Y1713227D01*
X685735Y1713297D01*
X685686Y1713369D01*
X685640Y1713443D01*
X685597Y1713520D01*
X685558Y1713598D01*
X685523Y1713678D01*
X685491Y1713759D01*
X685462Y1713842D01*
X685437Y1713926D01*
X685416Y1714010D01*
X685399Y1714096D01*
X685385Y1714182D01*
X685376Y1714269D01*
X685370Y1714357D01*
X685368Y1714444D01*
X685369Y1714444D02*
X685369Y1719580D01*
X681761Y1718000D02*
X679785Y1719580D01*
X679785Y1712468D01*
X677810Y1712468D02*
X681761Y1712468D01*
X711044Y1678940D02*
X712625Y1678940D01*
X712703Y1678942D01*
X712780Y1678948D01*
X712857Y1678957D01*
X712933Y1678970D01*
X713009Y1678987D01*
X713084Y1679008D01*
X713157Y1679032D01*
X713230Y1679060D01*
X713301Y1679092D01*
X713370Y1679127D01*
X713437Y1679165D01*
X713503Y1679206D01*
X713566Y1679251D01*
X713627Y1679299D01*
X713686Y1679349D01*
X713742Y1679403D01*
X713796Y1679459D01*
X713846Y1679518D01*
X713894Y1679579D01*
X713939Y1679642D01*
X713980Y1679708D01*
X714018Y1679775D01*
X714053Y1679844D01*
X714085Y1679915D01*
X714113Y1679988D01*
X714137Y1680061D01*
X714158Y1680136D01*
X714175Y1680212D01*
X714188Y1680288D01*
X714197Y1680365D01*
X714203Y1680442D01*
X714205Y1680520D01*
X714205Y1684472D01*
X714203Y1684550D01*
X714197Y1684627D01*
X714188Y1684704D01*
X714175Y1684780D01*
X714158Y1684856D01*
X714137Y1684931D01*
X714113Y1685004D01*
X714085Y1685077D01*
X714053Y1685148D01*
X714018Y1685217D01*
X713980Y1685284D01*
X713939Y1685350D01*
X713894Y1685413D01*
X713846Y1685474D01*
X713796Y1685533D01*
X713742Y1685589D01*
X713686Y1685643D01*
X713627Y1685693D01*
X713566Y1685741D01*
X713503Y1685786D01*
X713437Y1685827D01*
X713370Y1685865D01*
X713301Y1685900D01*
X713230Y1685932D01*
X713157Y1685960D01*
X713084Y1685984D01*
X713009Y1686005D01*
X712933Y1686022D01*
X712857Y1686035D01*
X712780Y1686044D01*
X712703Y1686050D01*
X712625Y1686052D01*
X711044Y1686052D01*
X706529Y1678940D02*
X704948Y1678940D01*
X706529Y1678940D02*
X706607Y1678942D01*
X706684Y1678948D01*
X706761Y1678957D01*
X706837Y1678970D01*
X706913Y1678987D01*
X706988Y1679008D01*
X707061Y1679032D01*
X707134Y1679060D01*
X707205Y1679092D01*
X707274Y1679127D01*
X707341Y1679165D01*
X707407Y1679206D01*
X707470Y1679251D01*
X707531Y1679299D01*
X707590Y1679349D01*
X707646Y1679403D01*
X707700Y1679459D01*
X707750Y1679518D01*
X707798Y1679579D01*
X707843Y1679642D01*
X707884Y1679708D01*
X707922Y1679775D01*
X707957Y1679844D01*
X707989Y1679915D01*
X708017Y1679988D01*
X708041Y1680061D01*
X708062Y1680136D01*
X708079Y1680212D01*
X708092Y1680288D01*
X708101Y1680365D01*
X708107Y1680442D01*
X708109Y1680520D01*
X708109Y1684472D01*
X708107Y1684550D01*
X708101Y1684627D01*
X708092Y1684704D01*
X708079Y1684780D01*
X708062Y1684856D01*
X708041Y1684931D01*
X708017Y1685004D01*
X707989Y1685077D01*
X707957Y1685148D01*
X707922Y1685217D01*
X707884Y1685284D01*
X707843Y1685350D01*
X707798Y1685413D01*
X707750Y1685474D01*
X707700Y1685533D01*
X707646Y1685589D01*
X707590Y1685643D01*
X707531Y1685693D01*
X707470Y1685741D01*
X707407Y1685786D01*
X707341Y1685827D01*
X707274Y1685865D01*
X707205Y1685900D01*
X707134Y1685932D01*
X707061Y1685960D01*
X706988Y1685984D01*
X706913Y1686005D01*
X706837Y1686022D01*
X706761Y1686035D01*
X706684Y1686044D01*
X706607Y1686050D01*
X706529Y1686052D01*
X704948Y1686052D01*
X699813Y1686052D02*
X699731Y1686050D01*
X699649Y1686044D01*
X699567Y1686035D01*
X699486Y1686022D01*
X699406Y1686005D01*
X699326Y1685984D01*
X699248Y1685960D01*
X699171Y1685932D01*
X699095Y1685901D01*
X699020Y1685866D01*
X698948Y1685827D01*
X698877Y1685786D01*
X698808Y1685741D01*
X698742Y1685693D01*
X698677Y1685642D01*
X698615Y1685588D01*
X698556Y1685531D01*
X698499Y1685472D01*
X698445Y1685410D01*
X698394Y1685345D01*
X698346Y1685279D01*
X698301Y1685210D01*
X698260Y1685139D01*
X698221Y1685067D01*
X698186Y1684992D01*
X698155Y1684916D01*
X698127Y1684839D01*
X698103Y1684761D01*
X698082Y1684681D01*
X698065Y1684601D01*
X698052Y1684520D01*
X698043Y1684438D01*
X698037Y1684356D01*
X698035Y1684274D01*
X699813Y1686052D02*
X699906Y1686050D01*
X699998Y1686044D01*
X700090Y1686035D01*
X700182Y1686022D01*
X700273Y1686005D01*
X700363Y1685985D01*
X700453Y1685961D01*
X700541Y1685933D01*
X700629Y1685901D01*
X700714Y1685867D01*
X700799Y1685828D01*
X700881Y1685787D01*
X700962Y1685742D01*
X701042Y1685693D01*
X701119Y1685642D01*
X701194Y1685588D01*
X701266Y1685530D01*
X701337Y1685470D01*
X701404Y1685406D01*
X701469Y1685341D01*
X701532Y1685272D01*
X701591Y1685201D01*
X701648Y1685128D01*
X701702Y1685052D01*
X701752Y1684975D01*
X701800Y1684895D01*
X701844Y1684813D01*
X701884Y1684730D01*
X701922Y1684645D01*
X701956Y1684559D01*
X701986Y1684472D01*
X698628Y1682891D02*
X698567Y1682952D01*
X698509Y1683015D01*
X698454Y1683081D01*
X698401Y1683149D01*
X698352Y1683220D01*
X698307Y1683292D01*
X698264Y1683367D01*
X698225Y1683443D01*
X698189Y1683522D01*
X698157Y1683601D01*
X698129Y1683682D01*
X698104Y1683765D01*
X698083Y1683848D01*
X698066Y1683932D01*
X698052Y1684017D01*
X698043Y1684102D01*
X698037Y1684188D01*
X698035Y1684274D01*
X698628Y1682891D02*
X701986Y1678940D01*
X698035Y1678940D01*
D12*
X728980Y1676400D02*
X728980Y1798320D01*
X728980Y1676400D02*
X530860Y1676400D01*
X523240Y1684020D01*
X523240Y1800860D01*
X538480Y1816100D01*
X711200Y1816100D01*
X728980Y1798320D01*
X670560Y1813560D02*
X581660Y1813560D01*
X581660Y1739900D01*
X670560Y1739900D01*
X670560Y1813560D01*
X685264Y1788160D02*
X685270Y1788609D01*
X685286Y1789059D01*
X685314Y1789507D01*
X685352Y1789955D01*
X685402Y1790402D01*
X685462Y1790848D01*
X685534Y1791291D01*
X685616Y1791733D01*
X685709Y1792173D01*
X685813Y1792610D01*
X685927Y1793045D01*
X686053Y1793477D01*
X686188Y1793905D01*
X686335Y1794330D01*
X686491Y1794752D01*
X686658Y1795169D01*
X686835Y1795582D01*
X687023Y1795991D01*
X687220Y1796395D01*
X687427Y1796794D01*
X687643Y1797188D01*
X687870Y1797576D01*
X688106Y1797959D01*
X688351Y1798336D01*
X688605Y1798707D01*
X688868Y1799071D01*
X689141Y1799429D01*
X689422Y1799780D01*
X689711Y1800124D01*
X690009Y1800460D01*
X690315Y1800790D01*
X690629Y1801111D01*
X690950Y1801425D01*
X691280Y1801731D01*
X691616Y1802029D01*
X691960Y1802318D01*
X692311Y1802599D01*
X692669Y1802872D01*
X693033Y1803135D01*
X693404Y1803389D01*
X693781Y1803634D01*
X694164Y1803870D01*
X694552Y1804097D01*
X694946Y1804313D01*
X695345Y1804520D01*
X695749Y1804717D01*
X696158Y1804905D01*
X696571Y1805082D01*
X696988Y1805249D01*
X697410Y1805405D01*
X697835Y1805552D01*
X698263Y1805687D01*
X698695Y1805813D01*
X699130Y1805927D01*
X699567Y1806031D01*
X700007Y1806124D01*
X700449Y1806206D01*
X700892Y1806278D01*
X701338Y1806338D01*
X701785Y1806388D01*
X702233Y1806426D01*
X702681Y1806454D01*
X703131Y1806470D01*
X703580Y1806476D01*
X704029Y1806470D01*
X704479Y1806454D01*
X704927Y1806426D01*
X705375Y1806388D01*
X705822Y1806338D01*
X706268Y1806278D01*
X706711Y1806206D01*
X707153Y1806124D01*
X707593Y1806031D01*
X708030Y1805927D01*
X708465Y1805813D01*
X708897Y1805687D01*
X709325Y1805552D01*
X709750Y1805405D01*
X710172Y1805249D01*
X710589Y1805082D01*
X711002Y1804905D01*
X711411Y1804717D01*
X711815Y1804520D01*
X712214Y1804313D01*
X712608Y1804097D01*
X712996Y1803870D01*
X713379Y1803634D01*
X713756Y1803389D01*
X714127Y1803135D01*
X714491Y1802872D01*
X714849Y1802599D01*
X715200Y1802318D01*
X715544Y1802029D01*
X715880Y1801731D01*
X716210Y1801425D01*
X716531Y1801111D01*
X716845Y1800790D01*
X717151Y1800460D01*
X717449Y1800124D01*
X717738Y1799780D01*
X718019Y1799429D01*
X718292Y1799071D01*
X718555Y1798707D01*
X718809Y1798336D01*
X719054Y1797959D01*
X719290Y1797576D01*
X719517Y1797188D01*
X719733Y1796794D01*
X719940Y1796395D01*
X720137Y1795991D01*
X720325Y1795582D01*
X720502Y1795169D01*
X720669Y1794752D01*
X720825Y1794330D01*
X720972Y1793905D01*
X721107Y1793477D01*
X721233Y1793045D01*
X721347Y1792610D01*
X721451Y1792173D01*
X721544Y1791733D01*
X721626Y1791291D01*
X721698Y1790848D01*
X721758Y1790402D01*
X721808Y1789955D01*
X721846Y1789507D01*
X721874Y1789059D01*
X721890Y1788609D01*
X721896Y1788160D01*
X721890Y1787711D01*
X721874Y1787261D01*
X721846Y1786813D01*
X721808Y1786365D01*
X721758Y1785918D01*
X721698Y1785472D01*
X721626Y1785029D01*
X721544Y1784587D01*
X721451Y1784147D01*
X721347Y1783710D01*
X721233Y1783275D01*
X721107Y1782843D01*
X720972Y1782415D01*
X720825Y1781990D01*
X720669Y1781568D01*
X720502Y1781151D01*
X720325Y1780738D01*
X720137Y1780329D01*
X719940Y1779925D01*
X719733Y1779526D01*
X719517Y1779132D01*
X719290Y1778744D01*
X719054Y1778361D01*
X718809Y1777984D01*
X718555Y1777613D01*
X718292Y1777249D01*
X718019Y1776891D01*
X717738Y1776540D01*
X717449Y1776196D01*
X717151Y1775860D01*
X716845Y1775530D01*
X716531Y1775209D01*
X716210Y1774895D01*
X715880Y1774589D01*
X715544Y1774291D01*
X715200Y1774002D01*
X714849Y1773721D01*
X714491Y1773448D01*
X714127Y1773185D01*
X713756Y1772931D01*
X713379Y1772686D01*
X712996Y1772450D01*
X712608Y1772223D01*
X712214Y1772007D01*
X711815Y1771800D01*
X711411Y1771603D01*
X711002Y1771415D01*
X710589Y1771238D01*
X710172Y1771071D01*
X709750Y1770915D01*
X709325Y1770768D01*
X708897Y1770633D01*
X708465Y1770507D01*
X708030Y1770393D01*
X707593Y1770289D01*
X707153Y1770196D01*
X706711Y1770114D01*
X706268Y1770042D01*
X705822Y1769982D01*
X705375Y1769932D01*
X704927Y1769894D01*
X704479Y1769866D01*
X704029Y1769850D01*
X703580Y1769844D01*
X703131Y1769850D01*
X702681Y1769866D01*
X702233Y1769894D01*
X701785Y1769932D01*
X701338Y1769982D01*
X700892Y1770042D01*
X700449Y1770114D01*
X700007Y1770196D01*
X699567Y1770289D01*
X699130Y1770393D01*
X698695Y1770507D01*
X698263Y1770633D01*
X697835Y1770768D01*
X697410Y1770915D01*
X696988Y1771071D01*
X696571Y1771238D01*
X696158Y1771415D01*
X695749Y1771603D01*
X695345Y1771800D01*
X694946Y1772007D01*
X694552Y1772223D01*
X694164Y1772450D01*
X693781Y1772686D01*
X693404Y1772931D01*
X693033Y1773185D01*
X692669Y1773448D01*
X692311Y1773721D01*
X691960Y1774002D01*
X691616Y1774291D01*
X691280Y1774589D01*
X690950Y1774895D01*
X690629Y1775209D01*
X690315Y1775530D01*
X690009Y1775860D01*
X689711Y1776196D01*
X689422Y1776540D01*
X689141Y1776891D01*
X688868Y1777249D01*
X688605Y1777613D01*
X688351Y1777984D01*
X688106Y1778361D01*
X687870Y1778744D01*
X687643Y1779132D01*
X687427Y1779526D01*
X687220Y1779925D01*
X687023Y1780329D01*
X686835Y1780738D01*
X686658Y1781151D01*
X686491Y1781568D01*
X686335Y1781990D01*
X686188Y1782415D01*
X686053Y1782843D01*
X685927Y1783275D01*
X685813Y1783710D01*
X685709Y1784147D01*
X685616Y1784587D01*
X685534Y1785029D01*
X685462Y1785472D01*
X685402Y1785918D01*
X685352Y1786365D01*
X685314Y1786813D01*
X685286Y1787261D01*
X685270Y1787711D01*
X685264Y1788160D01*
X531836Y1788160D02*
X531842Y1788635D01*
X531859Y1789109D01*
X531888Y1789583D01*
X531929Y1790056D01*
X531981Y1790528D01*
X532045Y1790998D01*
X532121Y1791467D01*
X532208Y1791934D01*
X532306Y1792398D01*
X532416Y1792860D01*
X532537Y1793319D01*
X532669Y1793775D01*
X532812Y1794228D01*
X532967Y1794677D01*
X533132Y1795122D01*
X533308Y1795563D01*
X533496Y1795999D01*
X533693Y1796431D01*
X533901Y1796857D01*
X534120Y1797279D01*
X534349Y1797695D01*
X534588Y1798105D01*
X534837Y1798509D01*
X535096Y1798907D01*
X535365Y1799298D01*
X535643Y1799683D01*
X535930Y1800061D01*
X536227Y1800432D01*
X536533Y1800795D01*
X536847Y1801151D01*
X537170Y1801498D01*
X537502Y1801838D01*
X537842Y1802170D01*
X538189Y1802493D01*
X538545Y1802807D01*
X538908Y1803113D01*
X539279Y1803410D01*
X539657Y1803697D01*
X540042Y1803975D01*
X540433Y1804244D01*
X540831Y1804503D01*
X541235Y1804752D01*
X541645Y1804991D01*
X542061Y1805220D01*
X542483Y1805439D01*
X542909Y1805647D01*
X543341Y1805844D01*
X543777Y1806032D01*
X544218Y1806208D01*
X544663Y1806373D01*
X545112Y1806528D01*
X545565Y1806671D01*
X546021Y1806803D01*
X546480Y1806924D01*
X546942Y1807034D01*
X547406Y1807132D01*
X547873Y1807219D01*
X548342Y1807295D01*
X548812Y1807359D01*
X549284Y1807411D01*
X549757Y1807452D01*
X550231Y1807481D01*
X550705Y1807498D01*
X551180Y1807504D01*
X551655Y1807498D01*
X552129Y1807481D01*
X552603Y1807452D01*
X553076Y1807411D01*
X553548Y1807359D01*
X554018Y1807295D01*
X554487Y1807219D01*
X554954Y1807132D01*
X555418Y1807034D01*
X555880Y1806924D01*
X556339Y1806803D01*
X556795Y1806671D01*
X557248Y1806528D01*
X557697Y1806373D01*
X558142Y1806208D01*
X558583Y1806032D01*
X559019Y1805844D01*
X559451Y1805647D01*
X559877Y1805439D01*
X560299Y1805220D01*
X560715Y1804991D01*
X561125Y1804752D01*
X561529Y1804503D01*
X561927Y1804244D01*
X562318Y1803975D01*
X562703Y1803697D01*
X563081Y1803410D01*
X563452Y1803113D01*
X563815Y1802807D01*
X564171Y1802493D01*
X564518Y1802170D01*
X564858Y1801838D01*
X565190Y1801498D01*
X565513Y1801151D01*
X565827Y1800795D01*
X566133Y1800432D01*
X566430Y1800061D01*
X566717Y1799683D01*
X566995Y1799298D01*
X567264Y1798907D01*
X567523Y1798509D01*
X567772Y1798105D01*
X568011Y1797695D01*
X568240Y1797279D01*
X568459Y1796857D01*
X568667Y1796431D01*
X568864Y1795999D01*
X569052Y1795563D01*
X569228Y1795122D01*
X569393Y1794677D01*
X569548Y1794228D01*
X569691Y1793775D01*
X569823Y1793319D01*
X569944Y1792860D01*
X570054Y1792398D01*
X570152Y1791934D01*
X570239Y1791467D01*
X570315Y1790998D01*
X570379Y1790528D01*
X570431Y1790056D01*
X570472Y1789583D01*
X570501Y1789109D01*
X570518Y1788635D01*
X570524Y1788160D01*
X570518Y1787685D01*
X570501Y1787211D01*
X570472Y1786737D01*
X570431Y1786264D01*
X570379Y1785792D01*
X570315Y1785322D01*
X570239Y1784853D01*
X570152Y1784386D01*
X570054Y1783922D01*
X569944Y1783460D01*
X569823Y1783001D01*
X569691Y1782545D01*
X569548Y1782092D01*
X569393Y1781643D01*
X569228Y1781198D01*
X569052Y1780757D01*
X568864Y1780321D01*
X568667Y1779889D01*
X568459Y1779463D01*
X568240Y1779041D01*
X568011Y1778625D01*
X567772Y1778215D01*
X567523Y1777811D01*
X567264Y1777413D01*
X566995Y1777022D01*
X566717Y1776637D01*
X566430Y1776259D01*
X566133Y1775888D01*
X565827Y1775525D01*
X565513Y1775169D01*
X565190Y1774822D01*
X564858Y1774482D01*
X564518Y1774150D01*
X564171Y1773827D01*
X563815Y1773513D01*
X563452Y1773207D01*
X563081Y1772910D01*
X562703Y1772623D01*
X562318Y1772345D01*
X561927Y1772076D01*
X561529Y1771817D01*
X561125Y1771568D01*
X560715Y1771329D01*
X560299Y1771100D01*
X559877Y1770881D01*
X559451Y1770673D01*
X559019Y1770476D01*
X558583Y1770288D01*
X558142Y1770112D01*
X557697Y1769947D01*
X557248Y1769792D01*
X556795Y1769649D01*
X556339Y1769517D01*
X555880Y1769396D01*
X555418Y1769286D01*
X554954Y1769188D01*
X554487Y1769101D01*
X554018Y1769025D01*
X553548Y1768961D01*
X553076Y1768909D01*
X552603Y1768868D01*
X552129Y1768839D01*
X551655Y1768822D01*
X551180Y1768816D01*
X550705Y1768822D01*
X550231Y1768839D01*
X549757Y1768868D01*
X549284Y1768909D01*
X548812Y1768961D01*
X548342Y1769025D01*
X547873Y1769101D01*
X547406Y1769188D01*
X546942Y1769286D01*
X546480Y1769396D01*
X546021Y1769517D01*
X545565Y1769649D01*
X545112Y1769792D01*
X544663Y1769947D01*
X544218Y1770112D01*
X543777Y1770288D01*
X543341Y1770476D01*
X542909Y1770673D01*
X542483Y1770881D01*
X542061Y1771100D01*
X541645Y1771329D01*
X541235Y1771568D01*
X540831Y1771817D01*
X540433Y1772076D01*
X540042Y1772345D01*
X539657Y1772623D01*
X539279Y1772910D01*
X538908Y1773207D01*
X538545Y1773513D01*
X538189Y1773827D01*
X537842Y1774150D01*
X537502Y1774482D01*
X537170Y1774822D01*
X536847Y1775169D01*
X536533Y1775525D01*
X536227Y1775888D01*
X535930Y1776259D01*
X535643Y1776637D01*
X535365Y1777022D01*
X535096Y1777413D01*
X534837Y1777811D01*
X534588Y1778215D01*
X534349Y1778625D01*
X534120Y1779041D01*
X533901Y1779463D01*
X533693Y1779889D01*
X533496Y1780321D01*
X533308Y1780757D01*
X533132Y1781198D01*
X532967Y1781643D01*
X532812Y1782092D01*
X532669Y1782545D01*
X532537Y1783001D01*
X532416Y1783460D01*
X532306Y1783922D01*
X532208Y1784386D01*
X532121Y1784853D01*
X532045Y1785322D01*
X531981Y1785792D01*
X531929Y1786264D01*
X531888Y1786737D01*
X531859Y1787211D01*
X531842Y1787685D01*
X531836Y1788160D01*
X1338580Y1770380D02*
X1338580Y1722120D01*
X1341120Y1722120D01*
X1341120Y1770380D01*
X1343660Y1770380D01*
X1343660Y1722120D01*
X1346200Y1722120D01*
X1346200Y1770380D01*
D13*
X278200Y1818640D02*
X128200Y1818640D01*
D14*
X278200Y1818640D02*
X278200Y1608640D01*
X230200Y1608640D01*
X150200Y1608640D01*
X128200Y1608640D01*
X128200Y1818640D01*
X190200Y1817690D02*
X190200Y1578640D01*
X160200Y1578640D01*
X190200Y1578640D02*
X220200Y1578640D01*
X160200Y1578640D02*
X150200Y1608640D01*
X220200Y1578640D02*
X230200Y1608640D01*
D11*
X179578Y1833229D02*
X174442Y1833229D01*
X174368Y1833227D01*
X174293Y1833221D01*
X174220Y1833212D01*
X174146Y1833199D01*
X174074Y1833182D01*
X174003Y1833162D01*
X173932Y1833138D01*
X173863Y1833110D01*
X173796Y1833079D01*
X173730Y1833045D01*
X173665Y1833007D01*
X173603Y1832966D01*
X173543Y1832922D01*
X173486Y1832875D01*
X173431Y1832825D01*
X173378Y1832772D01*
X173328Y1832717D01*
X173281Y1832660D01*
X173237Y1832600D01*
X173196Y1832538D01*
X173158Y1832473D01*
X173124Y1832407D01*
X173093Y1832340D01*
X173065Y1832271D01*
X173041Y1832200D01*
X173021Y1832129D01*
X173004Y1832057D01*
X172991Y1831983D01*
X172982Y1831910D01*
X172976Y1831835D01*
X172974Y1831761D01*
X172974Y1831027D01*
X178110Y1837069D02*
X179578Y1838904D01*
X172974Y1838904D01*
X172974Y1840738D02*
X172974Y1837069D01*
D13*
X143510Y458470D02*
X308610Y458470D01*
X308610Y292608D01*
X143510Y292608D01*
X143510Y458470D01*
D10*
X256982Y358817D02*
X256982Y351028D01*
X256982Y358817D02*
X253087Y358817D01*
X253087Y357519D01*
X249696Y358817D02*
X249696Y349081D01*
X249698Y348994D01*
X249704Y348906D01*
X249714Y348820D01*
X249727Y348733D01*
X249745Y348648D01*
X249766Y348563D01*
X249791Y348479D01*
X249820Y348397D01*
X249853Y348316D01*
X249889Y348236D01*
X249928Y348158D01*
X249972Y348082D01*
X250018Y348008D01*
X250068Y347937D01*
X250121Y347867D01*
X250177Y347800D01*
X250236Y347736D01*
X250298Y347674D01*
X250362Y347615D01*
X250429Y347559D01*
X250499Y347506D01*
X250570Y347456D01*
X250644Y347410D01*
X250720Y347366D01*
X250798Y347327D01*
X250878Y347291D01*
X250959Y347258D01*
X251041Y347229D01*
X251125Y347204D01*
X251210Y347183D01*
X251295Y347165D01*
X251382Y347152D01*
X251468Y347142D01*
X251556Y347136D01*
X251643Y347134D01*
X251643Y347133D02*
X252293Y347133D01*
X250021Y362063D02*
X250021Y362712D01*
X249372Y362712D01*
X249372Y362063D01*
X250021Y362063D01*
X244630Y355572D02*
X236841Y355572D01*
X231789Y353624D02*
X229193Y362712D01*
X231789Y353624D02*
X225298Y353624D01*
X227245Y356221D02*
X227245Y351028D01*
X220359Y351028D02*
X216464Y351028D01*
X216365Y351030D01*
X216265Y351036D01*
X216166Y351045D01*
X216068Y351058D01*
X215970Y351075D01*
X215872Y351096D01*
X215776Y351121D01*
X215681Y351149D01*
X215587Y351181D01*
X215494Y351216D01*
X215402Y351255D01*
X215312Y351298D01*
X215224Y351343D01*
X215137Y351393D01*
X215053Y351445D01*
X214970Y351501D01*
X214890Y351559D01*
X214812Y351621D01*
X214737Y351686D01*
X214664Y351754D01*
X214594Y351824D01*
X214526Y351897D01*
X214461Y351972D01*
X214399Y352050D01*
X214341Y352130D01*
X214285Y352213D01*
X214233Y352297D01*
X214183Y352384D01*
X214138Y352472D01*
X214095Y352562D01*
X214056Y352654D01*
X214021Y352747D01*
X213989Y352841D01*
X213961Y352936D01*
X213936Y353032D01*
X213915Y353130D01*
X213898Y353228D01*
X213885Y353326D01*
X213876Y353425D01*
X213870Y353525D01*
X213868Y353624D01*
X213868Y354923D01*
X213870Y355022D01*
X213876Y355122D01*
X213885Y355221D01*
X213898Y355319D01*
X213915Y355417D01*
X213936Y355515D01*
X213961Y355611D01*
X213989Y355706D01*
X214021Y355800D01*
X214056Y355893D01*
X214095Y355985D01*
X214138Y356075D01*
X214183Y356163D01*
X214233Y356250D01*
X214285Y356334D01*
X214341Y356417D01*
X214399Y356497D01*
X214461Y356575D01*
X214526Y356650D01*
X214594Y356723D01*
X214664Y356793D01*
X214737Y356861D01*
X214812Y356926D01*
X214890Y356988D01*
X214970Y357046D01*
X215053Y357102D01*
X215137Y357154D01*
X215224Y357204D01*
X215312Y357249D01*
X215402Y357292D01*
X215494Y357331D01*
X215587Y357366D01*
X215681Y357398D01*
X215776Y357426D01*
X215872Y357451D01*
X215970Y357472D01*
X216068Y357489D01*
X216166Y357502D01*
X216265Y357511D01*
X216365Y357517D01*
X216464Y357519D01*
X220359Y357519D01*
X220359Y362712D01*
X213868Y362712D01*
X258961Y376428D02*
X261558Y384217D01*
X256365Y384217D02*
X258961Y376428D01*
X250085Y376428D02*
X246840Y376428D01*
X250085Y376428D02*
X250172Y376430D01*
X250260Y376436D01*
X250346Y376446D01*
X250433Y376459D01*
X250518Y376477D01*
X250603Y376498D01*
X250687Y376523D01*
X250769Y376552D01*
X250850Y376585D01*
X250930Y376621D01*
X251008Y376660D01*
X251084Y376704D01*
X251158Y376750D01*
X251229Y376800D01*
X251299Y376853D01*
X251366Y376909D01*
X251430Y376968D01*
X251492Y377030D01*
X251551Y377094D01*
X251607Y377161D01*
X251660Y377231D01*
X251710Y377302D01*
X251756Y377376D01*
X251800Y377452D01*
X251839Y377530D01*
X251875Y377610D01*
X251908Y377691D01*
X251937Y377773D01*
X251962Y377857D01*
X251983Y377942D01*
X252001Y378027D01*
X252014Y378114D01*
X252024Y378200D01*
X252030Y378288D01*
X252032Y378375D01*
X252033Y378375D02*
X252033Y381621D01*
X252032Y381621D02*
X252030Y381722D01*
X252024Y381822D01*
X252014Y381922D01*
X252001Y382022D01*
X251983Y382121D01*
X251962Y382220D01*
X251937Y382317D01*
X251908Y382414D01*
X251875Y382509D01*
X251839Y382603D01*
X251799Y382695D01*
X251756Y382786D01*
X251709Y382875D01*
X251659Y382962D01*
X251605Y383048D01*
X251548Y383131D01*
X251488Y383211D01*
X251425Y383290D01*
X251358Y383366D01*
X251289Y383439D01*
X251217Y383509D01*
X251143Y383577D01*
X251066Y383642D01*
X250986Y383703D01*
X250904Y383762D01*
X250820Y383817D01*
X250734Y383869D01*
X250646Y383918D01*
X250556Y383963D01*
X250464Y384005D01*
X250371Y384043D01*
X250276Y384077D01*
X250181Y384108D01*
X250084Y384135D01*
X249986Y384158D01*
X249887Y384178D01*
X249787Y384193D01*
X249687Y384205D01*
X249587Y384213D01*
X249486Y384217D01*
X249386Y384217D01*
X249285Y384213D01*
X249185Y384205D01*
X249085Y384193D01*
X248985Y384178D01*
X248886Y384158D01*
X248788Y384135D01*
X248691Y384108D01*
X248596Y384077D01*
X248501Y384043D01*
X248408Y384005D01*
X248316Y383963D01*
X248226Y383918D01*
X248138Y383869D01*
X248052Y383817D01*
X247968Y383762D01*
X247886Y383703D01*
X247806Y383642D01*
X247729Y383577D01*
X247655Y383509D01*
X247583Y383439D01*
X247514Y383366D01*
X247447Y383290D01*
X247384Y383211D01*
X247324Y383131D01*
X247267Y383048D01*
X247213Y382962D01*
X247163Y382875D01*
X247116Y382786D01*
X247073Y382695D01*
X247033Y382603D01*
X246997Y382509D01*
X246964Y382414D01*
X246935Y382317D01*
X246910Y382220D01*
X246889Y382121D01*
X246871Y382022D01*
X246858Y381922D01*
X246848Y381822D01*
X246842Y381722D01*
X246840Y381621D01*
X246840Y380323D01*
X252033Y380323D01*
X241679Y376428D02*
X241679Y384217D01*
X237785Y384217D01*
X237785Y382919D01*
X235093Y384217D02*
X231198Y384217D01*
X233795Y388112D02*
X233795Y378375D01*
X233793Y378288D01*
X233787Y378200D01*
X233777Y378114D01*
X233764Y378027D01*
X233746Y377942D01*
X233725Y377857D01*
X233700Y377773D01*
X233671Y377691D01*
X233638Y377610D01*
X233602Y377530D01*
X233563Y377452D01*
X233519Y377376D01*
X233473Y377302D01*
X233423Y377231D01*
X233370Y377161D01*
X233314Y377094D01*
X233255Y377030D01*
X233193Y376968D01*
X233129Y376909D01*
X233062Y376853D01*
X232992Y376800D01*
X232921Y376750D01*
X232847Y376704D01*
X232771Y376660D01*
X232693Y376621D01*
X232613Y376585D01*
X232532Y376552D01*
X232450Y376523D01*
X232366Y376498D01*
X232281Y376477D01*
X232196Y376459D01*
X232109Y376446D01*
X232023Y376436D01*
X231935Y376430D01*
X231848Y376428D01*
X231198Y376428D01*
X226957Y376428D02*
X226957Y384217D01*
X227282Y387463D02*
X227282Y388112D01*
X226633Y388112D01*
X226633Y387463D01*
X227282Y387463D01*
X220354Y376428D02*
X217758Y376428D01*
X220354Y376428D02*
X220441Y376430D01*
X220529Y376436D01*
X220615Y376446D01*
X220702Y376459D01*
X220787Y376477D01*
X220872Y376498D01*
X220956Y376523D01*
X221038Y376552D01*
X221119Y376585D01*
X221199Y376621D01*
X221277Y376660D01*
X221353Y376704D01*
X221427Y376750D01*
X221498Y376800D01*
X221568Y376853D01*
X221635Y376909D01*
X221699Y376968D01*
X221761Y377030D01*
X221820Y377094D01*
X221876Y377161D01*
X221929Y377231D01*
X221979Y377302D01*
X222025Y377376D01*
X222069Y377452D01*
X222108Y377530D01*
X222144Y377610D01*
X222177Y377691D01*
X222206Y377773D01*
X222231Y377857D01*
X222252Y377942D01*
X222270Y378027D01*
X222283Y378114D01*
X222293Y378200D01*
X222299Y378288D01*
X222301Y378375D01*
X222302Y378375D02*
X222302Y382270D01*
X222301Y382270D02*
X222299Y382357D01*
X222293Y382445D01*
X222283Y382531D01*
X222270Y382618D01*
X222252Y382703D01*
X222231Y382788D01*
X222206Y382872D01*
X222177Y382954D01*
X222144Y383035D01*
X222108Y383115D01*
X222069Y383193D01*
X222025Y383269D01*
X221979Y383343D01*
X221929Y383414D01*
X221876Y383484D01*
X221820Y383551D01*
X221761Y383615D01*
X221699Y383677D01*
X221635Y383736D01*
X221568Y383792D01*
X221498Y383845D01*
X221427Y383895D01*
X221353Y383941D01*
X221277Y383985D01*
X221199Y384024D01*
X221119Y384060D01*
X221038Y384093D01*
X220956Y384122D01*
X220872Y384147D01*
X220787Y384168D01*
X220702Y384186D01*
X220615Y384199D01*
X220529Y384209D01*
X220441Y384215D01*
X220354Y384217D01*
X217758Y384217D01*
X211339Y380972D02*
X208418Y380972D01*
X211339Y380972D02*
X211433Y380970D01*
X211527Y380964D01*
X211620Y380955D01*
X211713Y380941D01*
X211805Y380924D01*
X211897Y380902D01*
X211987Y380878D01*
X212077Y380849D01*
X212165Y380817D01*
X212252Y380781D01*
X212337Y380741D01*
X212420Y380698D01*
X212502Y380652D01*
X212582Y380602D01*
X212659Y380549D01*
X212734Y380493D01*
X212807Y380434D01*
X212878Y380372D01*
X212946Y380307D01*
X213011Y380239D01*
X213073Y380168D01*
X213132Y380095D01*
X213188Y380020D01*
X213241Y379943D01*
X213291Y379863D01*
X213337Y379781D01*
X213380Y379698D01*
X213420Y379613D01*
X213456Y379526D01*
X213488Y379438D01*
X213517Y379348D01*
X213541Y379258D01*
X213563Y379166D01*
X213580Y379074D01*
X213594Y378981D01*
X213603Y378888D01*
X213609Y378794D01*
X213611Y378700D01*
X213609Y378606D01*
X213603Y378512D01*
X213594Y378419D01*
X213580Y378326D01*
X213563Y378234D01*
X213541Y378142D01*
X213517Y378052D01*
X213488Y377962D01*
X213456Y377874D01*
X213420Y377787D01*
X213380Y377702D01*
X213337Y377619D01*
X213291Y377537D01*
X213241Y377457D01*
X213188Y377380D01*
X213132Y377305D01*
X213073Y377232D01*
X213011Y377161D01*
X212946Y377093D01*
X212878Y377028D01*
X212807Y376966D01*
X212734Y376907D01*
X212659Y376851D01*
X212582Y376798D01*
X212502Y376748D01*
X212420Y376702D01*
X212337Y376659D01*
X212252Y376619D01*
X212165Y376583D01*
X212077Y376551D01*
X211987Y376522D01*
X211897Y376498D01*
X211805Y376476D01*
X211713Y376459D01*
X211620Y376445D01*
X211527Y376436D01*
X211433Y376430D01*
X211339Y376428D01*
X208418Y376428D01*
X208418Y382270D01*
X208420Y382357D01*
X208426Y382445D01*
X208436Y382531D01*
X208449Y382618D01*
X208467Y382703D01*
X208488Y382788D01*
X208513Y382872D01*
X208542Y382954D01*
X208575Y383035D01*
X208611Y383115D01*
X208650Y383193D01*
X208694Y383269D01*
X208740Y383343D01*
X208790Y383414D01*
X208843Y383484D01*
X208899Y383551D01*
X208958Y383616D01*
X209020Y383677D01*
X209084Y383736D01*
X209151Y383792D01*
X209221Y383845D01*
X209292Y383895D01*
X209366Y383941D01*
X209442Y383985D01*
X209520Y384024D01*
X209600Y384060D01*
X209681Y384093D01*
X209763Y384122D01*
X209847Y384147D01*
X209932Y384168D01*
X210017Y384186D01*
X210104Y384199D01*
X210191Y384209D01*
X210278Y384215D01*
X210365Y384217D01*
X212962Y384217D01*
X203115Y388112D02*
X203115Y378375D01*
X203113Y378288D01*
X203107Y378200D01*
X203097Y378114D01*
X203084Y378027D01*
X203066Y377942D01*
X203045Y377857D01*
X203020Y377773D01*
X202991Y377691D01*
X202958Y377610D01*
X202922Y377530D01*
X202883Y377452D01*
X202839Y377376D01*
X202793Y377302D01*
X202743Y377231D01*
X202690Y377161D01*
X202634Y377094D01*
X202575Y377030D01*
X202513Y376968D01*
X202449Y376909D01*
X202382Y376853D01*
X202312Y376800D01*
X202241Y376750D01*
X202167Y376704D01*
X202091Y376660D01*
X202013Y376621D01*
X201933Y376585D01*
X201852Y376552D01*
X201770Y376523D01*
X201686Y376498D01*
X201601Y376477D01*
X201516Y376459D01*
X201429Y376446D01*
X201343Y376436D01*
X201255Y376430D01*
X201168Y376428D01*
D13*
X2189140Y2330920D02*
X2209140Y2330920D01*
D12*
X2183140Y2330920D02*
X2115140Y2330920D01*
X2183140Y2330920D02*
X2214140Y2330920D01*
X2214140Y2230920D02*
X2183140Y2230920D01*
X2115140Y2230920D01*
X2214140Y2230920D02*
X2214140Y2330920D01*
X2183140Y2330920D02*
X2183140Y2230920D01*
X2115140Y2308920D02*
X2115140Y2330920D01*
X2115140Y2308920D02*
X2125140Y2308920D01*
X2125140Y2252920D01*
X2115140Y2252920D01*
X2115140Y2230920D01*
D10*
X2224850Y2284626D02*
X2230382Y2284626D01*
X2224850Y2284625D02*
X2224772Y2284623D01*
X2224695Y2284617D01*
X2224618Y2284608D01*
X2224542Y2284595D01*
X2224466Y2284578D01*
X2224391Y2284557D01*
X2224318Y2284533D01*
X2224245Y2284505D01*
X2224174Y2284473D01*
X2224105Y2284438D01*
X2224038Y2284400D01*
X2223972Y2284359D01*
X2223909Y2284314D01*
X2223848Y2284266D01*
X2223789Y2284216D01*
X2223733Y2284162D01*
X2223679Y2284106D01*
X2223629Y2284047D01*
X2223581Y2283986D01*
X2223536Y2283923D01*
X2223495Y2283857D01*
X2223457Y2283790D01*
X2223422Y2283721D01*
X2223390Y2283650D01*
X2223362Y2283577D01*
X2223338Y2283504D01*
X2223317Y2283429D01*
X2223300Y2283353D01*
X2223287Y2283277D01*
X2223278Y2283200D01*
X2223272Y2283123D01*
X2223270Y2283045D01*
X2223270Y2282255D01*
X2230382Y2290369D02*
X2230380Y2290451D01*
X2230374Y2290533D01*
X2230365Y2290615D01*
X2230352Y2290696D01*
X2230335Y2290776D01*
X2230314Y2290856D01*
X2230290Y2290934D01*
X2230262Y2291011D01*
X2230231Y2291087D01*
X2230196Y2291162D01*
X2230157Y2291234D01*
X2230116Y2291305D01*
X2230071Y2291374D01*
X2230023Y2291440D01*
X2229972Y2291505D01*
X2229918Y2291567D01*
X2229861Y2291626D01*
X2229802Y2291683D01*
X2229740Y2291737D01*
X2229675Y2291788D01*
X2229609Y2291836D01*
X2229540Y2291881D01*
X2229469Y2291922D01*
X2229397Y2291961D01*
X2229322Y2291996D01*
X2229246Y2292027D01*
X2229169Y2292055D01*
X2229091Y2292079D01*
X2229011Y2292100D01*
X2228931Y2292117D01*
X2228850Y2292130D01*
X2228768Y2292139D01*
X2228686Y2292145D01*
X2228604Y2292147D01*
X2230382Y2290369D02*
X2230380Y2290276D01*
X2230374Y2290184D01*
X2230365Y2290092D01*
X2230352Y2290000D01*
X2230335Y2289909D01*
X2230315Y2289819D01*
X2230291Y2289729D01*
X2230263Y2289641D01*
X2230231Y2289553D01*
X2230197Y2289468D01*
X2230158Y2289383D01*
X2230117Y2289301D01*
X2230072Y2289220D01*
X2230023Y2289140D01*
X2229972Y2289063D01*
X2229918Y2288988D01*
X2229860Y2288916D01*
X2229800Y2288846D01*
X2229736Y2288778D01*
X2229671Y2288713D01*
X2229602Y2288650D01*
X2229531Y2288591D01*
X2229458Y2288534D01*
X2229382Y2288480D01*
X2229305Y2288430D01*
X2229225Y2288382D01*
X2229144Y2288338D01*
X2229060Y2288298D01*
X2228976Y2288260D01*
X2228889Y2288226D01*
X2228802Y2288196D01*
X2227221Y2291554D02*
X2227282Y2291615D01*
X2227345Y2291673D01*
X2227411Y2291728D01*
X2227479Y2291781D01*
X2227550Y2291830D01*
X2227622Y2291875D01*
X2227697Y2291918D01*
X2227773Y2291957D01*
X2227852Y2291993D01*
X2227931Y2292025D01*
X2228012Y2292053D01*
X2228095Y2292078D01*
X2228178Y2292099D01*
X2228262Y2292116D01*
X2228347Y2292130D01*
X2228432Y2292139D01*
X2228518Y2292145D01*
X2228604Y2292147D01*
X2227221Y2291554D02*
X2223270Y2288196D01*
X2223270Y2292147D01*
X2223270Y2295511D02*
X2223270Y2297882D01*
X2223272Y2297960D01*
X2223278Y2298037D01*
X2223287Y2298114D01*
X2223300Y2298190D01*
X2223317Y2298266D01*
X2223338Y2298341D01*
X2223362Y2298414D01*
X2223390Y2298487D01*
X2223422Y2298558D01*
X2223457Y2298627D01*
X2223495Y2298694D01*
X2223536Y2298760D01*
X2223581Y2298823D01*
X2223629Y2298884D01*
X2223679Y2298943D01*
X2223733Y2298999D01*
X2223789Y2299053D01*
X2223848Y2299103D01*
X2223909Y2299151D01*
X2223972Y2299196D01*
X2224038Y2299237D01*
X2224105Y2299275D01*
X2224174Y2299310D01*
X2224245Y2299342D01*
X2224318Y2299370D01*
X2224391Y2299394D01*
X2224466Y2299415D01*
X2224542Y2299432D01*
X2224618Y2299445D01*
X2224695Y2299454D01*
X2224772Y2299460D01*
X2224850Y2299462D01*
X2225641Y2299462D01*
X2225719Y2299460D01*
X2225796Y2299454D01*
X2225873Y2299445D01*
X2225949Y2299432D01*
X2226025Y2299415D01*
X2226100Y2299394D01*
X2226173Y2299370D01*
X2226246Y2299342D01*
X2226317Y2299310D01*
X2226386Y2299275D01*
X2226453Y2299237D01*
X2226519Y2299196D01*
X2226582Y2299151D01*
X2226643Y2299103D01*
X2226702Y2299053D01*
X2226758Y2298999D01*
X2226812Y2298943D01*
X2226862Y2298884D01*
X2226910Y2298823D01*
X2226955Y2298760D01*
X2226996Y2298694D01*
X2227034Y2298627D01*
X2227069Y2298558D01*
X2227101Y2298487D01*
X2227129Y2298414D01*
X2227153Y2298341D01*
X2227174Y2298266D01*
X2227191Y2298190D01*
X2227204Y2298114D01*
X2227213Y2298037D01*
X2227219Y2297960D01*
X2227221Y2297882D01*
X2227221Y2295511D01*
X2230382Y2295511D01*
X2230382Y2299462D01*
D15*
X921639Y1681861D02*
X916728Y1689227D01*
X921639Y1689227D02*
X916728Y1681861D01*
X913915Y1683498D02*
X912278Y1689227D01*
X913915Y1683498D02*
X909822Y1683498D01*
X911050Y1685135D02*
X911050Y1681861D01*
D11*
X570230Y1711960D02*
X557530Y1711960D01*
X551180Y1705610D01*
X551180Y1692910D01*
X557530Y1686560D01*
X595630Y1711960D02*
X601980Y1705610D01*
X595630Y1711960D02*
X582930Y1711960D01*
X576580Y1705610D01*
X576580Y1692910D01*
X582930Y1686560D01*
X595630Y1686560D01*
X601980Y1692910D01*
X576580Y1705610D02*
X570230Y1711960D01*
X576580Y1692910D02*
X570230Y1686560D01*
X557530Y1686560D01*
X633730Y1711960D02*
X646430Y1711960D01*
X633730Y1711960D02*
X627380Y1705610D01*
X627380Y1692910D01*
X633730Y1686560D01*
X627380Y1705610D02*
X621030Y1711960D01*
X608330Y1711960D01*
X601980Y1705610D01*
X601980Y1692910D01*
X608330Y1686560D01*
X621030Y1686560D01*
X627380Y1692910D01*
X671830Y1711960D02*
X678180Y1705610D01*
X671830Y1711960D02*
X659130Y1711960D01*
X652780Y1705610D01*
X652780Y1692910D01*
X659130Y1686560D01*
X671830Y1686560D01*
X678180Y1692910D01*
X652780Y1705610D02*
X646430Y1711960D01*
X652780Y1692910D02*
X646430Y1686560D01*
X633730Y1686560D01*
X709930Y1711960D02*
X722630Y1711960D01*
X709930Y1711960D02*
X703580Y1705610D01*
X703580Y1692910D01*
X709930Y1686560D01*
X703580Y1705610D02*
X697230Y1711960D01*
X684530Y1711960D01*
X678180Y1705610D01*
X678180Y1692910D01*
X684530Y1686560D01*
X697230Y1686560D01*
X703580Y1692910D01*
X728980Y1692910D02*
X728980Y1705610D01*
X722630Y1711960D01*
X728980Y1692910D02*
X722630Y1686560D01*
X709930Y1686560D01*
X544830Y1711960D02*
X532130Y1711960D01*
X525780Y1705610D01*
X525780Y1692910D01*
X532130Y1686560D01*
X551180Y1705610D02*
X544830Y1711960D01*
X551180Y1692910D02*
X544830Y1686560D01*
X532130Y1686560D01*
D15*
X726906Y1719566D02*
X726906Y1725295D01*
X726906Y1719566D02*
X726908Y1719488D01*
X726913Y1719410D01*
X726923Y1719333D01*
X726936Y1719256D01*
X726952Y1719180D01*
X726972Y1719105D01*
X726996Y1719031D01*
X727023Y1718958D01*
X727054Y1718886D01*
X727088Y1718816D01*
X727125Y1718748D01*
X727166Y1718681D01*
X727210Y1718616D01*
X727256Y1718554D01*
X727306Y1718494D01*
X727358Y1718436D01*
X727413Y1718381D01*
X727471Y1718329D01*
X727531Y1718279D01*
X727593Y1718233D01*
X727658Y1718189D01*
X727725Y1718148D01*
X727793Y1718111D01*
X727863Y1718077D01*
X727935Y1718046D01*
X728008Y1718019D01*
X728082Y1717995D01*
X728157Y1717975D01*
X728233Y1717959D01*
X728310Y1717946D01*
X728387Y1717936D01*
X728465Y1717931D01*
X728543Y1717929D01*
X729361Y1717929D01*
X723110Y1717929D02*
X723110Y1725295D01*
X721064Y1725295D01*
X720975Y1725293D01*
X720886Y1725287D01*
X720797Y1725277D01*
X720709Y1725264D01*
X720621Y1725247D01*
X720534Y1725225D01*
X720449Y1725200D01*
X720364Y1725172D01*
X720281Y1725139D01*
X720199Y1725103D01*
X720119Y1725064D01*
X720041Y1725021D01*
X719965Y1724975D01*
X719890Y1724925D01*
X719818Y1724872D01*
X719749Y1724816D01*
X719682Y1724757D01*
X719617Y1724696D01*
X719556Y1724631D01*
X719497Y1724564D01*
X719441Y1724495D01*
X719388Y1724423D01*
X719338Y1724348D01*
X719292Y1724272D01*
X719249Y1724194D01*
X719210Y1724114D01*
X719174Y1724032D01*
X719141Y1723949D01*
X719113Y1723864D01*
X719088Y1723779D01*
X719066Y1723692D01*
X719049Y1723604D01*
X719036Y1723516D01*
X719026Y1723427D01*
X719020Y1723338D01*
X719018Y1723249D01*
X719020Y1723160D01*
X719026Y1723071D01*
X719036Y1722982D01*
X719049Y1722894D01*
X719066Y1722806D01*
X719088Y1722719D01*
X719113Y1722634D01*
X719141Y1722549D01*
X719174Y1722466D01*
X719210Y1722384D01*
X719249Y1722304D01*
X719292Y1722226D01*
X719338Y1722150D01*
X719388Y1722075D01*
X719441Y1722003D01*
X719497Y1721934D01*
X719556Y1721867D01*
X719617Y1721802D01*
X719682Y1721741D01*
X719749Y1721682D01*
X719818Y1721626D01*
X719890Y1721573D01*
X719965Y1721523D01*
X720041Y1721477D01*
X720119Y1721434D01*
X720199Y1721395D01*
X720281Y1721359D01*
X720364Y1721326D01*
X720449Y1721298D01*
X720534Y1721273D01*
X720621Y1721251D01*
X720709Y1721234D01*
X720797Y1721221D01*
X720886Y1721211D01*
X720975Y1721205D01*
X721064Y1721203D01*
X723110Y1721203D01*
X716156Y1723658D02*
X714110Y1725295D01*
X714110Y1717929D01*
X716156Y1717929D02*
X712064Y1717929D01*
X707204Y1721203D02*
X704749Y1721203D01*
X707204Y1721203D02*
X707282Y1721205D01*
X707360Y1721210D01*
X707437Y1721220D01*
X707514Y1721233D01*
X707590Y1721249D01*
X707665Y1721269D01*
X707739Y1721293D01*
X707812Y1721320D01*
X707884Y1721351D01*
X707954Y1721385D01*
X708023Y1721422D01*
X708089Y1721463D01*
X708154Y1721507D01*
X708216Y1721553D01*
X708276Y1721603D01*
X708334Y1721655D01*
X708389Y1721710D01*
X708441Y1721768D01*
X708491Y1721828D01*
X708537Y1721890D01*
X708581Y1721955D01*
X708622Y1722022D01*
X708659Y1722090D01*
X708693Y1722160D01*
X708724Y1722232D01*
X708751Y1722305D01*
X708775Y1722379D01*
X708795Y1722454D01*
X708811Y1722530D01*
X708824Y1722607D01*
X708834Y1722684D01*
X708839Y1722762D01*
X708841Y1722840D01*
X708841Y1723249D01*
X708839Y1723338D01*
X708833Y1723427D01*
X708823Y1723516D01*
X708810Y1723604D01*
X708793Y1723692D01*
X708771Y1723779D01*
X708746Y1723864D01*
X708718Y1723949D01*
X708685Y1724032D01*
X708649Y1724114D01*
X708610Y1724194D01*
X708567Y1724272D01*
X708521Y1724348D01*
X708471Y1724423D01*
X708418Y1724495D01*
X708362Y1724564D01*
X708303Y1724631D01*
X708242Y1724696D01*
X708177Y1724757D01*
X708110Y1724816D01*
X708041Y1724872D01*
X707969Y1724925D01*
X707894Y1724975D01*
X707818Y1725021D01*
X707740Y1725064D01*
X707660Y1725103D01*
X707578Y1725139D01*
X707495Y1725172D01*
X707410Y1725200D01*
X707325Y1725225D01*
X707238Y1725247D01*
X707150Y1725264D01*
X707062Y1725277D01*
X706973Y1725287D01*
X706884Y1725293D01*
X706795Y1725295D01*
X706706Y1725293D01*
X706617Y1725287D01*
X706528Y1725277D01*
X706440Y1725264D01*
X706352Y1725247D01*
X706265Y1725225D01*
X706180Y1725200D01*
X706095Y1725172D01*
X706012Y1725139D01*
X705930Y1725103D01*
X705850Y1725064D01*
X705772Y1725021D01*
X705696Y1724975D01*
X705621Y1724925D01*
X705549Y1724872D01*
X705480Y1724816D01*
X705413Y1724757D01*
X705348Y1724696D01*
X705287Y1724631D01*
X705228Y1724564D01*
X705172Y1724495D01*
X705119Y1724423D01*
X705069Y1724348D01*
X705023Y1724272D01*
X704980Y1724194D01*
X704941Y1724114D01*
X704905Y1724032D01*
X704872Y1723949D01*
X704844Y1723864D01*
X704819Y1723779D01*
X704797Y1723692D01*
X704780Y1723604D01*
X704767Y1723516D01*
X704757Y1723427D01*
X704751Y1723338D01*
X704749Y1723249D01*
X704749Y1721203D01*
X704748Y1721203D02*
X704750Y1721091D01*
X704756Y1720980D01*
X704765Y1720868D01*
X704778Y1720757D01*
X704796Y1720647D01*
X704816Y1720537D01*
X704841Y1720428D01*
X704869Y1720320D01*
X704901Y1720213D01*
X704937Y1720107D01*
X704976Y1720002D01*
X705019Y1719899D01*
X705065Y1719797D01*
X705115Y1719697D01*
X705168Y1719598D01*
X705225Y1719502D01*
X705284Y1719407D01*
X705347Y1719315D01*
X705413Y1719225D01*
X705482Y1719137D01*
X705554Y1719051D01*
X705629Y1718968D01*
X705707Y1718888D01*
X705787Y1718810D01*
X705870Y1718735D01*
X705956Y1718663D01*
X706044Y1718594D01*
X706134Y1718528D01*
X706226Y1718465D01*
X706321Y1718406D01*
X706417Y1718349D01*
X706516Y1718296D01*
X706616Y1718246D01*
X706718Y1718200D01*
X706821Y1718157D01*
X706926Y1718118D01*
X707032Y1718082D01*
X707139Y1718050D01*
X707247Y1718022D01*
X707356Y1717997D01*
X707466Y1717977D01*
X707576Y1717959D01*
X707687Y1717946D01*
X707799Y1717937D01*
X707910Y1717931D01*
X708022Y1717929D01*
D14*
X978950Y2374420D02*
X1034720Y2374420D01*
X978950Y2374420D02*
X941290Y2374420D01*
X750350Y2374420D01*
X712690Y2374420D01*
X656920Y2374420D01*
X656920Y2290420D01*
X710240Y2290420D01*
X710240Y2293420D01*
X725030Y2293420D01*
X725030Y2290420D01*
X826990Y2290420D01*
X826990Y2305920D01*
X864650Y2305920D01*
X864650Y2290420D01*
X826990Y2290420D01*
X864650Y2290420D02*
X964240Y2290420D01*
X979030Y2290420D02*
X1034720Y2290420D01*
X1034720Y2374420D01*
X1023470Y2365170D02*
X979020Y2365170D01*
X941270Y2365170D02*
X750370Y2365170D01*
X712620Y2365170D02*
X668170Y2365170D01*
X668170Y2299670D01*
X826990Y2299670D01*
X864650Y2299670D02*
X1023470Y2299670D01*
X1023470Y2365170D01*
X964240Y2293420D02*
X964240Y2290420D01*
X964240Y2293420D02*
X979030Y2293420D01*
X979030Y2290420D01*
X978950Y2358920D02*
X978950Y2374420D01*
X978950Y2358920D02*
X941290Y2358920D01*
X941290Y2374420D01*
X750350Y2374420D02*
X750350Y2358920D01*
X712690Y2358920D01*
X712690Y2374420D01*
D15*
X1031028Y2385887D02*
X1035939Y2378521D01*
X1031028Y2378521D02*
X1035939Y2385887D01*
X1028215Y2378521D02*
X1025759Y2378521D01*
X1025679Y2378523D01*
X1025599Y2378529D01*
X1025519Y2378539D01*
X1025440Y2378552D01*
X1025361Y2378570D01*
X1025284Y2378591D01*
X1025208Y2378617D01*
X1025133Y2378646D01*
X1025059Y2378678D01*
X1024987Y2378714D01*
X1024917Y2378754D01*
X1024850Y2378797D01*
X1024784Y2378843D01*
X1024721Y2378893D01*
X1024660Y2378945D01*
X1024601Y2379000D01*
X1024546Y2379059D01*
X1024494Y2379119D01*
X1024444Y2379183D01*
X1024398Y2379248D01*
X1024355Y2379316D01*
X1024315Y2379386D01*
X1024279Y2379458D01*
X1024247Y2379532D01*
X1024218Y2379606D01*
X1024193Y2379683D01*
X1024171Y2379760D01*
X1024153Y2379839D01*
X1024140Y2379918D01*
X1024130Y2379997D01*
X1024124Y2380078D01*
X1024122Y2380158D01*
X1024122Y2380976D01*
X1024124Y2381054D01*
X1024129Y2381132D01*
X1024139Y2381209D01*
X1024152Y2381286D01*
X1024168Y2381362D01*
X1024188Y2381437D01*
X1024212Y2381511D01*
X1024239Y2381584D01*
X1024270Y2381656D01*
X1024304Y2381726D01*
X1024341Y2381795D01*
X1024382Y2381861D01*
X1024426Y2381926D01*
X1024472Y2381988D01*
X1024522Y2382048D01*
X1024574Y2382106D01*
X1024629Y2382161D01*
X1024687Y2382213D01*
X1024747Y2382263D01*
X1024809Y2382309D01*
X1024874Y2382353D01*
X1024941Y2382394D01*
X1025009Y2382431D01*
X1025079Y2382465D01*
X1025151Y2382496D01*
X1025224Y2382523D01*
X1025298Y2382547D01*
X1025373Y2382567D01*
X1025449Y2382583D01*
X1025526Y2382596D01*
X1025603Y2382606D01*
X1025681Y2382611D01*
X1025759Y2382613D01*
X1028215Y2382613D01*
X1028215Y2385887D01*
X1024122Y2385887D01*
D14*
X1216180Y2283920D02*
X1416180Y2283920D01*
X1216180Y2283920D02*
X1216180Y2199920D01*
X1256800Y2199920D01*
X1256800Y2202920D01*
X1271590Y2202920D01*
X1271590Y2199920D01*
X1297350Y2199920D01*
X1297350Y2215420D01*
X1335010Y2215420D01*
X1335010Y2199920D01*
X1297350Y2199920D01*
X1335010Y2199920D02*
X1416180Y2199920D01*
X1416180Y2283920D01*
X1404930Y2274670D02*
X1227430Y2274670D01*
X1227430Y2209170D01*
X1297350Y2209170D01*
X1335010Y2209170D02*
X1404930Y2209170D01*
X1404930Y2274670D01*
D15*
X1417399Y2288021D02*
X1412488Y2295387D01*
X1417399Y2295387D02*
X1412488Y2288021D01*
X1409674Y2290067D02*
X1409672Y2290156D01*
X1409666Y2290245D01*
X1409656Y2290334D01*
X1409643Y2290422D01*
X1409626Y2290510D01*
X1409604Y2290597D01*
X1409579Y2290682D01*
X1409551Y2290767D01*
X1409518Y2290850D01*
X1409482Y2290932D01*
X1409443Y2291012D01*
X1409400Y2291090D01*
X1409354Y2291166D01*
X1409304Y2291241D01*
X1409251Y2291313D01*
X1409195Y2291382D01*
X1409136Y2291449D01*
X1409075Y2291514D01*
X1409010Y2291575D01*
X1408943Y2291634D01*
X1408874Y2291690D01*
X1408802Y2291743D01*
X1408727Y2291793D01*
X1408651Y2291839D01*
X1408573Y2291882D01*
X1408493Y2291921D01*
X1408411Y2291957D01*
X1408328Y2291990D01*
X1408243Y2292018D01*
X1408158Y2292043D01*
X1408071Y2292065D01*
X1407983Y2292082D01*
X1407895Y2292095D01*
X1407806Y2292105D01*
X1407717Y2292111D01*
X1407628Y2292113D01*
X1407539Y2292111D01*
X1407450Y2292105D01*
X1407361Y2292095D01*
X1407273Y2292082D01*
X1407185Y2292065D01*
X1407098Y2292043D01*
X1407013Y2292018D01*
X1406928Y2291990D01*
X1406845Y2291957D01*
X1406763Y2291921D01*
X1406683Y2291882D01*
X1406605Y2291839D01*
X1406529Y2291793D01*
X1406454Y2291743D01*
X1406382Y2291690D01*
X1406313Y2291634D01*
X1406246Y2291575D01*
X1406181Y2291514D01*
X1406120Y2291449D01*
X1406061Y2291382D01*
X1406005Y2291313D01*
X1405952Y2291241D01*
X1405902Y2291166D01*
X1405856Y2291090D01*
X1405813Y2291012D01*
X1405774Y2290932D01*
X1405738Y2290850D01*
X1405705Y2290767D01*
X1405677Y2290682D01*
X1405652Y2290597D01*
X1405630Y2290510D01*
X1405613Y2290422D01*
X1405600Y2290334D01*
X1405590Y2290245D01*
X1405584Y2290156D01*
X1405582Y2290067D01*
X1405584Y2289978D01*
X1405590Y2289889D01*
X1405600Y2289800D01*
X1405613Y2289712D01*
X1405630Y2289624D01*
X1405652Y2289537D01*
X1405677Y2289452D01*
X1405705Y2289367D01*
X1405738Y2289284D01*
X1405774Y2289202D01*
X1405813Y2289122D01*
X1405856Y2289044D01*
X1405902Y2288968D01*
X1405952Y2288893D01*
X1406005Y2288821D01*
X1406061Y2288752D01*
X1406120Y2288685D01*
X1406181Y2288620D01*
X1406246Y2288559D01*
X1406313Y2288500D01*
X1406382Y2288444D01*
X1406454Y2288391D01*
X1406529Y2288341D01*
X1406605Y2288295D01*
X1406683Y2288252D01*
X1406763Y2288213D01*
X1406845Y2288177D01*
X1406928Y2288144D01*
X1407013Y2288116D01*
X1407098Y2288091D01*
X1407185Y2288069D01*
X1407273Y2288052D01*
X1407361Y2288039D01*
X1407450Y2288029D01*
X1407539Y2288023D01*
X1407628Y2288021D01*
X1407717Y2288023D01*
X1407806Y2288029D01*
X1407895Y2288039D01*
X1407983Y2288052D01*
X1408071Y2288069D01*
X1408158Y2288091D01*
X1408243Y2288116D01*
X1408328Y2288144D01*
X1408411Y2288177D01*
X1408493Y2288213D01*
X1408573Y2288252D01*
X1408651Y2288295D01*
X1408727Y2288341D01*
X1408802Y2288391D01*
X1408874Y2288444D01*
X1408943Y2288500D01*
X1409010Y2288559D01*
X1409075Y2288620D01*
X1409136Y2288685D01*
X1409195Y2288752D01*
X1409251Y2288821D01*
X1409304Y2288893D01*
X1409354Y2288968D01*
X1409400Y2289044D01*
X1409443Y2289122D01*
X1409482Y2289202D01*
X1409518Y2289284D01*
X1409551Y2289367D01*
X1409579Y2289452D01*
X1409604Y2289537D01*
X1409626Y2289624D01*
X1409643Y2289712D01*
X1409656Y2289800D01*
X1409666Y2289889D01*
X1409672Y2289978D01*
X1409674Y2290067D01*
X1409265Y2293750D02*
X1409263Y2293829D01*
X1409257Y2293908D01*
X1409248Y2293987D01*
X1409235Y2294065D01*
X1409217Y2294142D01*
X1409197Y2294218D01*
X1409172Y2294293D01*
X1409144Y2294367D01*
X1409113Y2294440D01*
X1409077Y2294511D01*
X1409039Y2294580D01*
X1408997Y2294647D01*
X1408952Y2294712D01*
X1408904Y2294775D01*
X1408853Y2294836D01*
X1408799Y2294893D01*
X1408743Y2294949D01*
X1408684Y2295001D01*
X1408622Y2295051D01*
X1408558Y2295097D01*
X1408492Y2295141D01*
X1408424Y2295181D01*
X1408354Y2295217D01*
X1408282Y2295251D01*
X1408208Y2295281D01*
X1408134Y2295307D01*
X1408058Y2295330D01*
X1407981Y2295348D01*
X1407904Y2295364D01*
X1407825Y2295375D01*
X1407747Y2295383D01*
X1407668Y2295387D01*
X1407588Y2295387D01*
X1407509Y2295383D01*
X1407431Y2295375D01*
X1407352Y2295364D01*
X1407275Y2295348D01*
X1407198Y2295330D01*
X1407122Y2295307D01*
X1407048Y2295281D01*
X1406974Y2295251D01*
X1406902Y2295217D01*
X1406832Y2295181D01*
X1406764Y2295141D01*
X1406698Y2295097D01*
X1406634Y2295051D01*
X1406572Y2295001D01*
X1406513Y2294949D01*
X1406457Y2294893D01*
X1406403Y2294836D01*
X1406352Y2294775D01*
X1406304Y2294712D01*
X1406259Y2294647D01*
X1406217Y2294580D01*
X1406179Y2294511D01*
X1406143Y2294440D01*
X1406112Y2294367D01*
X1406084Y2294293D01*
X1406059Y2294218D01*
X1406039Y2294142D01*
X1406021Y2294065D01*
X1406008Y2293987D01*
X1405999Y2293908D01*
X1405993Y2293829D01*
X1405991Y2293750D01*
X1405993Y2293671D01*
X1405999Y2293592D01*
X1406008Y2293513D01*
X1406021Y2293435D01*
X1406039Y2293358D01*
X1406059Y2293282D01*
X1406084Y2293207D01*
X1406112Y2293133D01*
X1406143Y2293060D01*
X1406179Y2292989D01*
X1406217Y2292920D01*
X1406259Y2292853D01*
X1406304Y2292788D01*
X1406352Y2292725D01*
X1406403Y2292664D01*
X1406457Y2292607D01*
X1406513Y2292551D01*
X1406572Y2292499D01*
X1406634Y2292449D01*
X1406698Y2292403D01*
X1406764Y2292359D01*
X1406832Y2292319D01*
X1406902Y2292283D01*
X1406974Y2292249D01*
X1407048Y2292219D01*
X1407122Y2292193D01*
X1407198Y2292170D01*
X1407275Y2292152D01*
X1407352Y2292136D01*
X1407431Y2292125D01*
X1407509Y2292117D01*
X1407588Y2292113D01*
X1407668Y2292113D01*
X1407747Y2292117D01*
X1407825Y2292125D01*
X1407904Y2292136D01*
X1407981Y2292152D01*
X1408058Y2292170D01*
X1408134Y2292193D01*
X1408208Y2292219D01*
X1408282Y2292249D01*
X1408354Y2292283D01*
X1408424Y2292319D01*
X1408492Y2292359D01*
X1408558Y2292403D01*
X1408622Y2292449D01*
X1408684Y2292499D01*
X1408743Y2292551D01*
X1408799Y2292607D01*
X1408853Y2292664D01*
X1408904Y2292725D01*
X1408952Y2292788D01*
X1408997Y2292853D01*
X1409039Y2292920D01*
X1409077Y2292989D01*
X1409113Y2293060D01*
X1409144Y2293133D01*
X1409172Y2293207D01*
X1409197Y2293282D01*
X1409217Y2293358D01*
X1409235Y2293435D01*
X1409248Y2293513D01*
X1409257Y2293592D01*
X1409263Y2293671D01*
X1409265Y2293750D01*
D12*
X734060Y1536700D02*
X734060Y1511300D01*
X734060Y1485900D01*
X734060Y1536700D02*
X861060Y1536700D01*
X759460Y1485900D02*
X734060Y1485900D01*
X759460Y1485900D02*
X861060Y1485900D01*
X861060Y1536700D01*
X759460Y1511300D02*
X759460Y1485900D01*
X759460Y1511300D02*
X734060Y1511300D01*
D11*
X726948Y1525379D02*
X720344Y1525379D01*
X726948Y1525379D02*
X726948Y1527213D01*
X726946Y1527298D01*
X726940Y1527382D01*
X726930Y1527466D01*
X726917Y1527550D01*
X726899Y1527633D01*
X726878Y1527715D01*
X726853Y1527796D01*
X726824Y1527876D01*
X726792Y1527954D01*
X726756Y1528030D01*
X726716Y1528105D01*
X726673Y1528178D01*
X726627Y1528249D01*
X726578Y1528318D01*
X726525Y1528385D01*
X726469Y1528449D01*
X726411Y1528510D01*
X726350Y1528568D01*
X726286Y1528624D01*
X726219Y1528677D01*
X726150Y1528726D01*
X726079Y1528772D01*
X726006Y1528815D01*
X725931Y1528855D01*
X725855Y1528891D01*
X725777Y1528923D01*
X725697Y1528952D01*
X725616Y1528977D01*
X725534Y1528998D01*
X725451Y1529016D01*
X725367Y1529029D01*
X725283Y1529039D01*
X725199Y1529045D01*
X725114Y1529047D01*
X725029Y1529045D01*
X724945Y1529039D01*
X724861Y1529029D01*
X724777Y1529016D01*
X724694Y1528998D01*
X724612Y1528977D01*
X724531Y1528952D01*
X724451Y1528923D01*
X724373Y1528891D01*
X724297Y1528855D01*
X724222Y1528815D01*
X724149Y1528772D01*
X724078Y1528726D01*
X724009Y1528677D01*
X723942Y1528624D01*
X723878Y1528568D01*
X723817Y1528510D01*
X723759Y1528449D01*
X723703Y1528385D01*
X723650Y1528318D01*
X723601Y1528249D01*
X723555Y1528178D01*
X723512Y1528105D01*
X723472Y1528030D01*
X723436Y1527954D01*
X723404Y1527876D01*
X723375Y1527796D01*
X723350Y1527715D01*
X723329Y1527633D01*
X723311Y1527550D01*
X723298Y1527466D01*
X723288Y1527382D01*
X723282Y1527298D01*
X723280Y1527213D01*
X723279Y1527213D02*
X723279Y1525379D01*
X725480Y1532269D02*
X726948Y1534104D01*
X720344Y1534104D01*
X720344Y1535938D02*
X720344Y1532269D01*
D12*
X1115644Y1601749D02*
X1115644Y1627149D01*
X1115644Y1601749D02*
X1115644Y1576349D01*
X1141044Y1576349D01*
X1420444Y1576349D01*
X1420444Y1627149D02*
X1115644Y1627149D01*
X1420444Y1627149D02*
X1420444Y1576349D01*
X1141044Y1576349D02*
X1141044Y1601749D01*
X1115644Y1601749D01*
D11*
X1108532Y1615828D02*
X1101928Y1615828D01*
X1108532Y1615828D02*
X1108532Y1617663D01*
X1108530Y1617748D01*
X1108524Y1617832D01*
X1108514Y1617916D01*
X1108501Y1618000D01*
X1108483Y1618083D01*
X1108462Y1618165D01*
X1108437Y1618246D01*
X1108408Y1618326D01*
X1108376Y1618404D01*
X1108340Y1618480D01*
X1108300Y1618555D01*
X1108257Y1618628D01*
X1108211Y1618699D01*
X1108162Y1618768D01*
X1108109Y1618835D01*
X1108053Y1618899D01*
X1107995Y1618960D01*
X1107934Y1619018D01*
X1107870Y1619074D01*
X1107803Y1619127D01*
X1107734Y1619176D01*
X1107663Y1619222D01*
X1107590Y1619265D01*
X1107515Y1619305D01*
X1107439Y1619341D01*
X1107361Y1619373D01*
X1107281Y1619402D01*
X1107200Y1619427D01*
X1107118Y1619448D01*
X1107035Y1619466D01*
X1106951Y1619479D01*
X1106867Y1619489D01*
X1106783Y1619495D01*
X1106698Y1619497D01*
X1106613Y1619495D01*
X1106529Y1619489D01*
X1106445Y1619479D01*
X1106361Y1619466D01*
X1106278Y1619448D01*
X1106196Y1619427D01*
X1106115Y1619402D01*
X1106035Y1619373D01*
X1105957Y1619341D01*
X1105881Y1619305D01*
X1105806Y1619265D01*
X1105733Y1619222D01*
X1105662Y1619176D01*
X1105593Y1619127D01*
X1105526Y1619074D01*
X1105462Y1619018D01*
X1105401Y1618960D01*
X1105343Y1618899D01*
X1105287Y1618835D01*
X1105234Y1618768D01*
X1105185Y1618699D01*
X1105139Y1618628D01*
X1105096Y1618555D01*
X1105056Y1618480D01*
X1105020Y1618404D01*
X1104988Y1618326D01*
X1104959Y1618246D01*
X1104934Y1618165D01*
X1104913Y1618083D01*
X1104895Y1618000D01*
X1104882Y1617916D01*
X1104872Y1617832D01*
X1104866Y1617748D01*
X1104864Y1617663D01*
X1104863Y1617663D02*
X1104863Y1615828D01*
X1108532Y1624736D02*
X1108530Y1624815D01*
X1108525Y1624893D01*
X1108515Y1624971D01*
X1108502Y1625048D01*
X1108485Y1625125D01*
X1108465Y1625201D01*
X1108441Y1625276D01*
X1108414Y1625350D01*
X1108383Y1625422D01*
X1108348Y1625493D01*
X1108311Y1625562D01*
X1108270Y1625629D01*
X1108226Y1625694D01*
X1108179Y1625757D01*
X1108129Y1625817D01*
X1108076Y1625875D01*
X1108020Y1625931D01*
X1107962Y1625984D01*
X1107902Y1626034D01*
X1107839Y1626081D01*
X1107774Y1626125D01*
X1107707Y1626166D01*
X1107638Y1626203D01*
X1107567Y1626238D01*
X1107495Y1626269D01*
X1107421Y1626296D01*
X1107346Y1626320D01*
X1107270Y1626340D01*
X1107193Y1626357D01*
X1107116Y1626370D01*
X1107038Y1626380D01*
X1106960Y1626385D01*
X1106881Y1626387D01*
X1108532Y1624736D02*
X1108530Y1624647D01*
X1108525Y1624558D01*
X1108515Y1624470D01*
X1108502Y1624382D01*
X1108486Y1624295D01*
X1108465Y1624208D01*
X1108441Y1624123D01*
X1108414Y1624038D01*
X1108383Y1623955D01*
X1108348Y1623873D01*
X1108310Y1623792D01*
X1108269Y1623713D01*
X1108225Y1623637D01*
X1108177Y1623561D01*
X1108126Y1623488D01*
X1108073Y1623418D01*
X1108016Y1623349D01*
X1107956Y1623283D01*
X1107894Y1623220D01*
X1107829Y1623159D01*
X1107762Y1623101D01*
X1107692Y1623046D01*
X1107620Y1622993D01*
X1107546Y1622944D01*
X1107470Y1622898D01*
X1107392Y1622856D01*
X1107312Y1622816D01*
X1107231Y1622780D01*
X1107148Y1622747D01*
X1107064Y1622718D01*
X1105597Y1625837D02*
X1105653Y1625893D01*
X1105712Y1625947D01*
X1105773Y1625998D01*
X1105837Y1626047D01*
X1105902Y1626092D01*
X1105970Y1626135D01*
X1106039Y1626174D01*
X1106110Y1626211D01*
X1106183Y1626244D01*
X1106257Y1626273D01*
X1106332Y1626300D01*
X1106408Y1626323D01*
X1106486Y1626342D01*
X1106564Y1626358D01*
X1106642Y1626371D01*
X1106722Y1626380D01*
X1106801Y1626385D01*
X1106881Y1626387D01*
X1105597Y1625837D02*
X1101928Y1622719D01*
X1101928Y1626387D01*
D13*
X2374560Y2333460D02*
X2394560Y2333460D01*
D12*
X2368560Y2333460D02*
X2300560Y2333460D01*
X2368560Y2333460D02*
X2399560Y2333460D01*
X2399560Y2233460D02*
X2368560Y2233460D01*
X2300560Y2233460D01*
X2399560Y2233460D02*
X2399560Y2333460D01*
X2368560Y2333460D02*
X2368560Y2233460D01*
X2300560Y2311460D02*
X2300560Y2333460D01*
X2300560Y2311460D02*
X2310560Y2311460D01*
X2310560Y2255460D01*
X2300560Y2255460D01*
X2300560Y2233460D01*
D10*
X2410270Y2294481D02*
X2415802Y2294481D01*
X2410270Y2294481D02*
X2410192Y2294479D01*
X2410115Y2294473D01*
X2410038Y2294464D01*
X2409962Y2294451D01*
X2409886Y2294434D01*
X2409811Y2294413D01*
X2409738Y2294389D01*
X2409665Y2294361D01*
X2409594Y2294329D01*
X2409525Y2294294D01*
X2409458Y2294256D01*
X2409392Y2294215D01*
X2409329Y2294170D01*
X2409268Y2294122D01*
X2409209Y2294072D01*
X2409153Y2294018D01*
X2409099Y2293962D01*
X2409049Y2293903D01*
X2409001Y2293842D01*
X2408956Y2293779D01*
X2408915Y2293713D01*
X2408877Y2293646D01*
X2408842Y2293577D01*
X2408810Y2293506D01*
X2408782Y2293433D01*
X2408758Y2293360D01*
X2408737Y2293285D01*
X2408720Y2293209D01*
X2408707Y2293133D01*
X2408698Y2293056D01*
X2408692Y2292979D01*
X2408690Y2292901D01*
X2408690Y2292110D01*
X2411851Y2299631D02*
X2411851Y2302002D01*
X2411851Y2299631D02*
X2411853Y2299553D01*
X2411859Y2299476D01*
X2411868Y2299399D01*
X2411881Y2299323D01*
X2411898Y2299247D01*
X2411919Y2299172D01*
X2411943Y2299099D01*
X2411971Y2299026D01*
X2412003Y2298955D01*
X2412038Y2298886D01*
X2412076Y2298819D01*
X2412117Y2298753D01*
X2412162Y2298690D01*
X2412210Y2298629D01*
X2412260Y2298570D01*
X2412314Y2298514D01*
X2412370Y2298460D01*
X2412429Y2298410D01*
X2412490Y2298362D01*
X2412553Y2298317D01*
X2412619Y2298276D01*
X2412686Y2298238D01*
X2412755Y2298203D01*
X2412826Y2298171D01*
X2412899Y2298143D01*
X2412972Y2298119D01*
X2413047Y2298098D01*
X2413123Y2298081D01*
X2413199Y2298068D01*
X2413276Y2298059D01*
X2413353Y2298053D01*
X2413431Y2298051D01*
X2413826Y2298051D01*
X2413826Y2298050D02*
X2413913Y2298052D01*
X2414001Y2298058D01*
X2414088Y2298067D01*
X2414174Y2298081D01*
X2414260Y2298098D01*
X2414344Y2298119D01*
X2414428Y2298144D01*
X2414511Y2298173D01*
X2414592Y2298205D01*
X2414672Y2298240D01*
X2414750Y2298279D01*
X2414827Y2298322D01*
X2414901Y2298368D01*
X2414973Y2298417D01*
X2415043Y2298469D01*
X2415111Y2298525D01*
X2415176Y2298583D01*
X2415239Y2298644D01*
X2415298Y2298708D01*
X2415355Y2298775D01*
X2415409Y2298843D01*
X2415460Y2298915D01*
X2415507Y2298988D01*
X2415552Y2299063D01*
X2415593Y2299141D01*
X2415630Y2299220D01*
X2415664Y2299300D01*
X2415694Y2299382D01*
X2415721Y2299465D01*
X2415744Y2299550D01*
X2415763Y2299635D01*
X2415778Y2299721D01*
X2415790Y2299808D01*
X2415798Y2299895D01*
X2415802Y2299982D01*
X2415802Y2300070D01*
X2415798Y2300157D01*
X2415790Y2300244D01*
X2415778Y2300331D01*
X2415763Y2300417D01*
X2415744Y2300502D01*
X2415721Y2300587D01*
X2415694Y2300670D01*
X2415664Y2300752D01*
X2415630Y2300832D01*
X2415593Y2300911D01*
X2415552Y2300989D01*
X2415507Y2301064D01*
X2415460Y2301137D01*
X2415409Y2301209D01*
X2415355Y2301277D01*
X2415298Y2301344D01*
X2415239Y2301408D01*
X2415176Y2301469D01*
X2415111Y2301527D01*
X2415043Y2301583D01*
X2414973Y2301635D01*
X2414901Y2301684D01*
X2414827Y2301730D01*
X2414750Y2301773D01*
X2414672Y2301812D01*
X2414592Y2301847D01*
X2414511Y2301879D01*
X2414428Y2301908D01*
X2414344Y2301933D01*
X2414260Y2301954D01*
X2414174Y2301971D01*
X2414088Y2301985D01*
X2414001Y2301994D01*
X2413913Y2302000D01*
X2413826Y2302002D01*
X2411851Y2302002D01*
X2411741Y2302000D01*
X2411630Y2301994D01*
X2411521Y2301985D01*
X2411411Y2301971D01*
X2411302Y2301954D01*
X2411194Y2301933D01*
X2411086Y2301908D01*
X2410980Y2301880D01*
X2410874Y2301847D01*
X2410770Y2301811D01*
X2410667Y2301772D01*
X2410565Y2301729D01*
X2410465Y2301682D01*
X2410367Y2301632D01*
X2410271Y2301579D01*
X2410176Y2301522D01*
X2410083Y2301462D01*
X2409993Y2301398D01*
X2409905Y2301332D01*
X2409819Y2301262D01*
X2409736Y2301190D01*
X2409655Y2301115D01*
X2409577Y2301037D01*
X2409502Y2300956D01*
X2409430Y2300873D01*
X2409360Y2300787D01*
X2409294Y2300699D01*
X2409230Y2300609D01*
X2409170Y2300516D01*
X2409113Y2300422D01*
X2409060Y2300325D01*
X2409010Y2300227D01*
X2408963Y2300127D01*
X2408920Y2300025D01*
X2408881Y2299922D01*
X2408845Y2299818D01*
X2408812Y2299712D01*
X2408784Y2299606D01*
X2408759Y2299498D01*
X2408738Y2299390D01*
X2408721Y2299281D01*
X2408707Y2299171D01*
X2408698Y2299062D01*
X2408692Y2298951D01*
X2408690Y2298841D01*
D13*
X2206600Y2087080D02*
X2186600Y2087080D01*
D12*
X2180600Y2087080D02*
X2112600Y2087080D01*
X2180600Y2087080D02*
X2211600Y2087080D01*
X2211600Y1987080D02*
X2180600Y1987080D01*
X2112600Y1987080D01*
X2211600Y1987080D02*
X2211600Y2087080D01*
X2180600Y2087080D02*
X2180600Y1987080D01*
X2112600Y2065080D02*
X2112600Y2087080D01*
X2112600Y2065080D02*
X2122600Y2065080D01*
X2122600Y2009080D01*
X2112600Y2009080D01*
X2112600Y1987080D01*
D10*
X2222310Y2040786D02*
X2227842Y2040786D01*
X2222310Y2040785D02*
X2222232Y2040783D01*
X2222155Y2040777D01*
X2222078Y2040768D01*
X2222002Y2040755D01*
X2221926Y2040738D01*
X2221851Y2040717D01*
X2221778Y2040693D01*
X2221705Y2040665D01*
X2221634Y2040633D01*
X2221565Y2040598D01*
X2221498Y2040560D01*
X2221432Y2040519D01*
X2221369Y2040474D01*
X2221308Y2040426D01*
X2221249Y2040376D01*
X2221193Y2040322D01*
X2221139Y2040266D01*
X2221089Y2040207D01*
X2221041Y2040146D01*
X2220996Y2040083D01*
X2220955Y2040017D01*
X2220917Y2039950D01*
X2220882Y2039881D01*
X2220850Y2039810D01*
X2220822Y2039737D01*
X2220798Y2039664D01*
X2220777Y2039589D01*
X2220760Y2039513D01*
X2220747Y2039437D01*
X2220738Y2039360D01*
X2220732Y2039283D01*
X2220730Y2039205D01*
X2220730Y2038415D01*
X2227842Y2046529D02*
X2227840Y2046611D01*
X2227834Y2046693D01*
X2227825Y2046775D01*
X2227812Y2046856D01*
X2227795Y2046936D01*
X2227774Y2047016D01*
X2227750Y2047094D01*
X2227722Y2047171D01*
X2227691Y2047247D01*
X2227656Y2047322D01*
X2227617Y2047394D01*
X2227576Y2047465D01*
X2227531Y2047534D01*
X2227483Y2047600D01*
X2227432Y2047665D01*
X2227378Y2047727D01*
X2227321Y2047786D01*
X2227262Y2047843D01*
X2227200Y2047897D01*
X2227135Y2047948D01*
X2227069Y2047996D01*
X2227000Y2048041D01*
X2226929Y2048082D01*
X2226857Y2048121D01*
X2226782Y2048156D01*
X2226706Y2048187D01*
X2226629Y2048215D01*
X2226551Y2048239D01*
X2226471Y2048260D01*
X2226391Y2048277D01*
X2226310Y2048290D01*
X2226228Y2048299D01*
X2226146Y2048305D01*
X2226064Y2048307D01*
X2227842Y2046529D02*
X2227840Y2046436D01*
X2227834Y2046344D01*
X2227825Y2046252D01*
X2227812Y2046160D01*
X2227795Y2046069D01*
X2227775Y2045979D01*
X2227751Y2045889D01*
X2227723Y2045801D01*
X2227691Y2045713D01*
X2227657Y2045628D01*
X2227618Y2045543D01*
X2227577Y2045461D01*
X2227532Y2045380D01*
X2227483Y2045300D01*
X2227432Y2045223D01*
X2227378Y2045148D01*
X2227320Y2045076D01*
X2227260Y2045006D01*
X2227196Y2044938D01*
X2227131Y2044873D01*
X2227062Y2044810D01*
X2226991Y2044751D01*
X2226918Y2044694D01*
X2226842Y2044640D01*
X2226765Y2044590D01*
X2226685Y2044542D01*
X2226604Y2044498D01*
X2226520Y2044458D01*
X2226436Y2044420D01*
X2226349Y2044386D01*
X2226262Y2044356D01*
X2224681Y2047714D02*
X2224742Y2047775D01*
X2224805Y2047833D01*
X2224871Y2047888D01*
X2224939Y2047941D01*
X2225010Y2047990D01*
X2225082Y2048035D01*
X2225157Y2048078D01*
X2225233Y2048117D01*
X2225312Y2048153D01*
X2225391Y2048185D01*
X2225472Y2048213D01*
X2225555Y2048238D01*
X2225638Y2048259D01*
X2225722Y2048276D01*
X2225807Y2048290D01*
X2225892Y2048299D01*
X2225978Y2048305D01*
X2226064Y2048307D01*
X2224681Y2047714D02*
X2220730Y2044356D01*
X2220730Y2048307D01*
X2227052Y2051671D02*
X2227842Y2051671D01*
X2227842Y2055622D01*
X2220730Y2053646D01*
D13*
X2379640Y2087080D02*
X2399640Y2087080D01*
D12*
X2373640Y2087080D02*
X2305640Y2087080D01*
X2373640Y2087080D02*
X2404640Y2087080D01*
X2404640Y1987080D02*
X2373640Y1987080D01*
X2305640Y1987080D01*
X2404640Y1987080D02*
X2404640Y2087080D01*
X2373640Y2087080D02*
X2373640Y1987080D01*
X2305640Y2065080D02*
X2305640Y2087080D01*
X2305640Y2065080D02*
X2315640Y2065080D01*
X2315640Y2009080D01*
X2305640Y2009080D01*
X2305640Y1987080D01*
D10*
X2415350Y2040786D02*
X2420882Y2040786D01*
X2415350Y2040785D02*
X2415272Y2040783D01*
X2415195Y2040777D01*
X2415118Y2040768D01*
X2415042Y2040755D01*
X2414966Y2040738D01*
X2414891Y2040717D01*
X2414818Y2040693D01*
X2414745Y2040665D01*
X2414674Y2040633D01*
X2414605Y2040598D01*
X2414538Y2040560D01*
X2414472Y2040519D01*
X2414409Y2040474D01*
X2414348Y2040426D01*
X2414289Y2040376D01*
X2414233Y2040322D01*
X2414179Y2040266D01*
X2414129Y2040207D01*
X2414081Y2040146D01*
X2414036Y2040083D01*
X2413995Y2040017D01*
X2413957Y2039950D01*
X2413922Y2039881D01*
X2413890Y2039810D01*
X2413862Y2039737D01*
X2413838Y2039664D01*
X2413817Y2039589D01*
X2413800Y2039513D01*
X2413787Y2039437D01*
X2413778Y2039360D01*
X2413772Y2039283D01*
X2413770Y2039205D01*
X2413770Y2038415D01*
X2420882Y2046529D02*
X2420880Y2046611D01*
X2420874Y2046693D01*
X2420865Y2046775D01*
X2420852Y2046856D01*
X2420835Y2046936D01*
X2420814Y2047016D01*
X2420790Y2047094D01*
X2420762Y2047171D01*
X2420731Y2047247D01*
X2420696Y2047322D01*
X2420657Y2047394D01*
X2420616Y2047465D01*
X2420571Y2047534D01*
X2420523Y2047600D01*
X2420472Y2047665D01*
X2420418Y2047727D01*
X2420361Y2047786D01*
X2420302Y2047843D01*
X2420240Y2047897D01*
X2420175Y2047948D01*
X2420109Y2047996D01*
X2420040Y2048041D01*
X2419969Y2048082D01*
X2419897Y2048121D01*
X2419822Y2048156D01*
X2419746Y2048187D01*
X2419669Y2048215D01*
X2419591Y2048239D01*
X2419511Y2048260D01*
X2419431Y2048277D01*
X2419350Y2048290D01*
X2419268Y2048299D01*
X2419186Y2048305D01*
X2419104Y2048307D01*
X2420882Y2046529D02*
X2420880Y2046436D01*
X2420874Y2046344D01*
X2420865Y2046252D01*
X2420852Y2046160D01*
X2420835Y2046069D01*
X2420815Y2045979D01*
X2420791Y2045889D01*
X2420763Y2045801D01*
X2420731Y2045713D01*
X2420697Y2045628D01*
X2420658Y2045543D01*
X2420617Y2045461D01*
X2420572Y2045380D01*
X2420523Y2045300D01*
X2420472Y2045223D01*
X2420418Y2045148D01*
X2420360Y2045076D01*
X2420300Y2045006D01*
X2420236Y2044938D01*
X2420171Y2044873D01*
X2420102Y2044810D01*
X2420031Y2044751D01*
X2419958Y2044694D01*
X2419882Y2044640D01*
X2419805Y2044590D01*
X2419725Y2044542D01*
X2419644Y2044498D01*
X2419560Y2044458D01*
X2419476Y2044420D01*
X2419389Y2044386D01*
X2419302Y2044356D01*
X2417721Y2047714D02*
X2417782Y2047775D01*
X2417845Y2047833D01*
X2417911Y2047888D01*
X2417979Y2047941D01*
X2418050Y2047990D01*
X2418122Y2048035D01*
X2418197Y2048078D01*
X2418273Y2048117D01*
X2418352Y2048153D01*
X2418431Y2048185D01*
X2418512Y2048213D01*
X2418595Y2048238D01*
X2418678Y2048259D01*
X2418762Y2048276D01*
X2418847Y2048290D01*
X2418932Y2048299D01*
X2419018Y2048305D01*
X2419104Y2048307D01*
X2417721Y2047714D02*
X2413770Y2044356D01*
X2413770Y2048307D01*
X2416931Y2053251D02*
X2416931Y2055622D01*
X2416931Y2053251D02*
X2416933Y2053173D01*
X2416939Y2053096D01*
X2416948Y2053019D01*
X2416961Y2052943D01*
X2416978Y2052867D01*
X2416999Y2052792D01*
X2417023Y2052719D01*
X2417051Y2052646D01*
X2417083Y2052575D01*
X2417118Y2052506D01*
X2417156Y2052439D01*
X2417197Y2052373D01*
X2417242Y2052310D01*
X2417290Y2052249D01*
X2417340Y2052190D01*
X2417394Y2052134D01*
X2417450Y2052080D01*
X2417509Y2052030D01*
X2417570Y2051982D01*
X2417633Y2051937D01*
X2417699Y2051896D01*
X2417766Y2051858D01*
X2417835Y2051823D01*
X2417906Y2051791D01*
X2417979Y2051763D01*
X2418052Y2051739D01*
X2418127Y2051718D01*
X2418203Y2051701D01*
X2418279Y2051688D01*
X2418356Y2051679D01*
X2418433Y2051673D01*
X2418511Y2051671D01*
X2418906Y2051671D01*
X2418906Y2051670D02*
X2418993Y2051672D01*
X2419081Y2051678D01*
X2419168Y2051687D01*
X2419254Y2051701D01*
X2419340Y2051718D01*
X2419424Y2051739D01*
X2419508Y2051764D01*
X2419591Y2051793D01*
X2419672Y2051825D01*
X2419752Y2051860D01*
X2419830Y2051899D01*
X2419907Y2051942D01*
X2419981Y2051988D01*
X2420053Y2052037D01*
X2420123Y2052089D01*
X2420191Y2052145D01*
X2420256Y2052203D01*
X2420319Y2052264D01*
X2420378Y2052328D01*
X2420435Y2052395D01*
X2420489Y2052463D01*
X2420540Y2052535D01*
X2420587Y2052608D01*
X2420632Y2052683D01*
X2420673Y2052761D01*
X2420710Y2052840D01*
X2420744Y2052920D01*
X2420774Y2053002D01*
X2420801Y2053085D01*
X2420824Y2053170D01*
X2420843Y2053255D01*
X2420858Y2053341D01*
X2420870Y2053428D01*
X2420878Y2053515D01*
X2420882Y2053602D01*
X2420882Y2053690D01*
X2420878Y2053777D01*
X2420870Y2053864D01*
X2420858Y2053951D01*
X2420843Y2054037D01*
X2420824Y2054122D01*
X2420801Y2054207D01*
X2420774Y2054290D01*
X2420744Y2054372D01*
X2420710Y2054452D01*
X2420673Y2054531D01*
X2420632Y2054609D01*
X2420587Y2054684D01*
X2420540Y2054757D01*
X2420489Y2054829D01*
X2420435Y2054897D01*
X2420378Y2054964D01*
X2420319Y2055028D01*
X2420256Y2055089D01*
X2420191Y2055147D01*
X2420123Y2055203D01*
X2420053Y2055255D01*
X2419981Y2055304D01*
X2419907Y2055350D01*
X2419830Y2055393D01*
X2419752Y2055432D01*
X2419672Y2055467D01*
X2419591Y2055499D01*
X2419508Y2055528D01*
X2419424Y2055553D01*
X2419340Y2055574D01*
X2419254Y2055591D01*
X2419168Y2055605D01*
X2419081Y2055614D01*
X2418993Y2055620D01*
X2418906Y2055622D01*
X2416931Y2055622D01*
X2416821Y2055620D01*
X2416710Y2055614D01*
X2416601Y2055605D01*
X2416491Y2055591D01*
X2416382Y2055574D01*
X2416274Y2055553D01*
X2416166Y2055528D01*
X2416060Y2055500D01*
X2415954Y2055467D01*
X2415850Y2055431D01*
X2415747Y2055392D01*
X2415645Y2055349D01*
X2415545Y2055302D01*
X2415447Y2055252D01*
X2415351Y2055199D01*
X2415256Y2055142D01*
X2415163Y2055082D01*
X2415073Y2055018D01*
X2414985Y2054952D01*
X2414899Y2054882D01*
X2414816Y2054810D01*
X2414735Y2054735D01*
X2414657Y2054657D01*
X2414582Y2054576D01*
X2414510Y2054493D01*
X2414440Y2054407D01*
X2414374Y2054319D01*
X2414310Y2054229D01*
X2414250Y2054136D01*
X2414193Y2054042D01*
X2414140Y2053945D01*
X2414090Y2053847D01*
X2414043Y2053747D01*
X2414000Y2053645D01*
X2413961Y2053542D01*
X2413925Y2053438D01*
X2413892Y2053332D01*
X2413864Y2053226D01*
X2413839Y2053118D01*
X2413818Y2053010D01*
X2413801Y2052901D01*
X2413787Y2052791D01*
X2413778Y2052682D01*
X2413772Y2052571D01*
X2413770Y2052461D01*
D13*
X173060Y2098840D02*
X153060Y2098840D01*
D12*
X179060Y2098840D02*
X247060Y2098840D01*
X179060Y2098840D02*
X148060Y2098840D01*
X148060Y2198840D02*
X179060Y2198840D01*
X247060Y2198840D01*
X148060Y2198840D02*
X148060Y2098840D01*
X179060Y2098840D02*
X179060Y2198840D01*
X247060Y2120840D02*
X247060Y2098840D01*
X247060Y2120840D02*
X237060Y2120840D01*
X237060Y2176840D01*
X247060Y2176840D01*
X247060Y2198840D01*
D10*
X138930Y2132669D02*
X133398Y2132669D01*
X133398Y2132668D02*
X133320Y2132666D01*
X133243Y2132660D01*
X133166Y2132651D01*
X133090Y2132638D01*
X133014Y2132621D01*
X132939Y2132600D01*
X132866Y2132576D01*
X132793Y2132548D01*
X132722Y2132516D01*
X132653Y2132481D01*
X132586Y2132443D01*
X132520Y2132402D01*
X132457Y2132357D01*
X132396Y2132309D01*
X132337Y2132259D01*
X132281Y2132205D01*
X132227Y2132149D01*
X132177Y2132090D01*
X132129Y2132029D01*
X132084Y2131966D01*
X132043Y2131900D01*
X132005Y2131833D01*
X131970Y2131764D01*
X131938Y2131693D01*
X131910Y2131620D01*
X131886Y2131547D01*
X131865Y2131472D01*
X131848Y2131396D01*
X131835Y2131320D01*
X131826Y2131243D01*
X131820Y2131166D01*
X131818Y2131088D01*
X131818Y2130298D01*
X131818Y2136238D02*
X131818Y2138214D01*
X131820Y2138301D01*
X131826Y2138389D01*
X131835Y2138476D01*
X131849Y2138562D01*
X131866Y2138648D01*
X131887Y2138732D01*
X131912Y2138816D01*
X131941Y2138899D01*
X131973Y2138980D01*
X132008Y2139060D01*
X132047Y2139138D01*
X132090Y2139215D01*
X132136Y2139289D01*
X132185Y2139361D01*
X132237Y2139431D01*
X132293Y2139499D01*
X132351Y2139564D01*
X132412Y2139627D01*
X132476Y2139686D01*
X132543Y2139743D01*
X132611Y2139797D01*
X132683Y2139848D01*
X132756Y2139895D01*
X132831Y2139940D01*
X132909Y2139981D01*
X132988Y2140018D01*
X133068Y2140052D01*
X133150Y2140082D01*
X133233Y2140109D01*
X133318Y2140132D01*
X133403Y2140151D01*
X133489Y2140166D01*
X133576Y2140178D01*
X133663Y2140186D01*
X133750Y2140190D01*
X133838Y2140190D01*
X133925Y2140186D01*
X134012Y2140178D01*
X134099Y2140166D01*
X134185Y2140151D01*
X134270Y2140132D01*
X134355Y2140109D01*
X134438Y2140082D01*
X134520Y2140052D01*
X134600Y2140018D01*
X134679Y2139981D01*
X134757Y2139940D01*
X134832Y2139895D01*
X134905Y2139848D01*
X134977Y2139797D01*
X135045Y2139743D01*
X135112Y2139686D01*
X135176Y2139627D01*
X135237Y2139564D01*
X135295Y2139499D01*
X135351Y2139431D01*
X135403Y2139361D01*
X135452Y2139289D01*
X135498Y2139215D01*
X135541Y2139138D01*
X135580Y2139060D01*
X135615Y2138980D01*
X135647Y2138899D01*
X135676Y2138816D01*
X135701Y2138732D01*
X135722Y2138648D01*
X135739Y2138562D01*
X135753Y2138476D01*
X135762Y2138389D01*
X135768Y2138301D01*
X135770Y2138214D01*
X138930Y2138609D02*
X138930Y2136238D01*
X138930Y2138609D02*
X138928Y2138688D01*
X138922Y2138766D01*
X138912Y2138844D01*
X138899Y2138922D01*
X138881Y2138999D01*
X138860Y2139075D01*
X138835Y2139149D01*
X138806Y2139223D01*
X138774Y2139295D01*
X138738Y2139365D01*
X138698Y2139433D01*
X138655Y2139499D01*
X138609Y2139563D01*
X138560Y2139625D01*
X138508Y2139684D01*
X138453Y2139740D01*
X138395Y2139794D01*
X138335Y2139844D01*
X138272Y2139892D01*
X138207Y2139936D01*
X138140Y2139977D01*
X138071Y2140015D01*
X138000Y2140049D01*
X137927Y2140080D01*
X137853Y2140107D01*
X137778Y2140130D01*
X137702Y2140149D01*
X137624Y2140165D01*
X137546Y2140177D01*
X137468Y2140185D01*
X137389Y2140189D01*
X137311Y2140189D01*
X137232Y2140185D01*
X137154Y2140177D01*
X137076Y2140165D01*
X136998Y2140149D01*
X136922Y2140130D01*
X136847Y2140107D01*
X136773Y2140080D01*
X136700Y2140049D01*
X136629Y2140015D01*
X136560Y2139977D01*
X136493Y2139936D01*
X136428Y2139892D01*
X136365Y2139844D01*
X136305Y2139794D01*
X136247Y2139740D01*
X136192Y2139684D01*
X136140Y2139625D01*
X136091Y2139563D01*
X136045Y2139499D01*
X136002Y2139433D01*
X135962Y2139365D01*
X135926Y2139295D01*
X135894Y2139223D01*
X135865Y2139149D01*
X135840Y2139075D01*
X135819Y2138999D01*
X135801Y2138922D01*
X135788Y2138844D01*
X135778Y2138766D01*
X135772Y2138688D01*
X135770Y2138609D01*
X135769Y2138609D02*
X135769Y2137029D01*
X137350Y2143554D02*
X138930Y2145529D01*
X131818Y2145529D01*
X131818Y2143554D02*
X131818Y2147505D01*
D13*
X2553360Y1847380D02*
X2573360Y1847380D01*
D12*
X2579360Y1847380D02*
X2647360Y1847380D01*
X2579360Y1847380D02*
X2548360Y1847380D01*
X2548360Y1947380D02*
X2579360Y1947380D01*
X2647360Y1947380D01*
X2548360Y1947380D02*
X2548360Y1847380D01*
X2579360Y1847380D02*
X2579360Y1947380D01*
X2647360Y1869380D02*
X2647360Y1847380D01*
X2647360Y1869380D02*
X2637360Y1869380D01*
X2637360Y1925380D01*
X2647360Y1925380D01*
X2647360Y1947380D01*
D10*
X2539230Y1881209D02*
X2533698Y1881209D01*
X2533698Y1881208D02*
X2533620Y1881206D01*
X2533543Y1881200D01*
X2533466Y1881191D01*
X2533390Y1881178D01*
X2533314Y1881161D01*
X2533239Y1881140D01*
X2533166Y1881116D01*
X2533093Y1881088D01*
X2533022Y1881056D01*
X2532953Y1881021D01*
X2532886Y1880983D01*
X2532820Y1880942D01*
X2532757Y1880897D01*
X2532696Y1880849D01*
X2532637Y1880799D01*
X2532581Y1880745D01*
X2532527Y1880689D01*
X2532477Y1880630D01*
X2532429Y1880569D01*
X2532384Y1880506D01*
X2532343Y1880440D01*
X2532305Y1880373D01*
X2532270Y1880304D01*
X2532238Y1880233D01*
X2532210Y1880160D01*
X2532186Y1880087D01*
X2532165Y1880012D01*
X2532148Y1879936D01*
X2532135Y1879860D01*
X2532126Y1879783D01*
X2532120Y1879706D01*
X2532118Y1879628D01*
X2532118Y1878838D01*
X2532118Y1884778D02*
X2532118Y1886754D01*
X2532120Y1886841D01*
X2532126Y1886929D01*
X2532135Y1887016D01*
X2532149Y1887102D01*
X2532166Y1887188D01*
X2532187Y1887272D01*
X2532212Y1887356D01*
X2532241Y1887439D01*
X2532273Y1887520D01*
X2532308Y1887600D01*
X2532347Y1887678D01*
X2532390Y1887755D01*
X2532436Y1887829D01*
X2532485Y1887901D01*
X2532537Y1887971D01*
X2532593Y1888039D01*
X2532651Y1888104D01*
X2532712Y1888167D01*
X2532776Y1888226D01*
X2532843Y1888283D01*
X2532911Y1888337D01*
X2532983Y1888388D01*
X2533056Y1888435D01*
X2533131Y1888480D01*
X2533209Y1888521D01*
X2533288Y1888558D01*
X2533368Y1888592D01*
X2533450Y1888622D01*
X2533533Y1888649D01*
X2533618Y1888672D01*
X2533703Y1888691D01*
X2533789Y1888706D01*
X2533876Y1888718D01*
X2533963Y1888726D01*
X2534050Y1888730D01*
X2534138Y1888730D01*
X2534225Y1888726D01*
X2534312Y1888718D01*
X2534399Y1888706D01*
X2534485Y1888691D01*
X2534570Y1888672D01*
X2534655Y1888649D01*
X2534738Y1888622D01*
X2534820Y1888592D01*
X2534900Y1888558D01*
X2534979Y1888521D01*
X2535057Y1888480D01*
X2535132Y1888435D01*
X2535205Y1888388D01*
X2535277Y1888337D01*
X2535345Y1888283D01*
X2535412Y1888226D01*
X2535476Y1888167D01*
X2535537Y1888104D01*
X2535595Y1888039D01*
X2535651Y1887971D01*
X2535703Y1887901D01*
X2535752Y1887829D01*
X2535798Y1887755D01*
X2535841Y1887678D01*
X2535880Y1887600D01*
X2535915Y1887520D01*
X2535947Y1887439D01*
X2535976Y1887356D01*
X2536001Y1887272D01*
X2536022Y1887188D01*
X2536039Y1887102D01*
X2536053Y1887016D01*
X2536062Y1886929D01*
X2536068Y1886841D01*
X2536070Y1886754D01*
X2539230Y1887149D02*
X2539230Y1884778D01*
X2539230Y1887149D02*
X2539228Y1887228D01*
X2539222Y1887306D01*
X2539212Y1887384D01*
X2539199Y1887462D01*
X2539181Y1887539D01*
X2539160Y1887615D01*
X2539135Y1887689D01*
X2539106Y1887763D01*
X2539074Y1887835D01*
X2539038Y1887905D01*
X2538998Y1887973D01*
X2538955Y1888039D01*
X2538909Y1888103D01*
X2538860Y1888165D01*
X2538808Y1888224D01*
X2538753Y1888280D01*
X2538695Y1888334D01*
X2538635Y1888384D01*
X2538572Y1888432D01*
X2538507Y1888476D01*
X2538440Y1888517D01*
X2538371Y1888555D01*
X2538300Y1888589D01*
X2538227Y1888620D01*
X2538153Y1888647D01*
X2538078Y1888670D01*
X2538002Y1888689D01*
X2537924Y1888705D01*
X2537846Y1888717D01*
X2537768Y1888725D01*
X2537689Y1888729D01*
X2537611Y1888729D01*
X2537532Y1888725D01*
X2537454Y1888717D01*
X2537376Y1888705D01*
X2537298Y1888689D01*
X2537222Y1888670D01*
X2537147Y1888647D01*
X2537073Y1888620D01*
X2537000Y1888589D01*
X2536929Y1888555D01*
X2536860Y1888517D01*
X2536793Y1888476D01*
X2536728Y1888432D01*
X2536665Y1888384D01*
X2536605Y1888334D01*
X2536547Y1888280D01*
X2536492Y1888224D01*
X2536440Y1888165D01*
X2536391Y1888103D01*
X2536345Y1888039D01*
X2536302Y1887973D01*
X2536262Y1887905D01*
X2536226Y1887835D01*
X2536194Y1887763D01*
X2536165Y1887689D01*
X2536140Y1887615D01*
X2536119Y1887539D01*
X2536101Y1887462D01*
X2536088Y1887384D01*
X2536078Y1887306D01*
X2536072Y1887228D01*
X2536070Y1887149D01*
X2536069Y1887149D02*
X2536069Y1885569D01*
X2532118Y1892094D02*
X2532118Y1894069D01*
X2532120Y1894156D01*
X2532126Y1894244D01*
X2532135Y1894331D01*
X2532149Y1894417D01*
X2532166Y1894503D01*
X2532187Y1894587D01*
X2532212Y1894671D01*
X2532241Y1894754D01*
X2532273Y1894835D01*
X2532308Y1894915D01*
X2532347Y1894993D01*
X2532390Y1895070D01*
X2532436Y1895144D01*
X2532485Y1895216D01*
X2532537Y1895286D01*
X2532593Y1895354D01*
X2532651Y1895419D01*
X2532712Y1895482D01*
X2532776Y1895541D01*
X2532843Y1895598D01*
X2532911Y1895652D01*
X2532983Y1895703D01*
X2533056Y1895750D01*
X2533131Y1895795D01*
X2533209Y1895836D01*
X2533288Y1895873D01*
X2533368Y1895907D01*
X2533450Y1895937D01*
X2533533Y1895964D01*
X2533618Y1895987D01*
X2533703Y1896006D01*
X2533789Y1896021D01*
X2533876Y1896033D01*
X2533963Y1896041D01*
X2534050Y1896045D01*
X2534138Y1896045D01*
X2534225Y1896041D01*
X2534312Y1896033D01*
X2534399Y1896021D01*
X2534485Y1896006D01*
X2534570Y1895987D01*
X2534655Y1895964D01*
X2534738Y1895937D01*
X2534820Y1895907D01*
X2534900Y1895873D01*
X2534979Y1895836D01*
X2535057Y1895795D01*
X2535132Y1895750D01*
X2535205Y1895703D01*
X2535277Y1895652D01*
X2535345Y1895598D01*
X2535412Y1895541D01*
X2535476Y1895482D01*
X2535537Y1895419D01*
X2535595Y1895354D01*
X2535651Y1895286D01*
X2535703Y1895216D01*
X2535752Y1895144D01*
X2535798Y1895070D01*
X2535841Y1894993D01*
X2535880Y1894915D01*
X2535915Y1894835D01*
X2535947Y1894754D01*
X2535976Y1894671D01*
X2536001Y1894587D01*
X2536022Y1894503D01*
X2536039Y1894417D01*
X2536053Y1894331D01*
X2536062Y1894244D01*
X2536068Y1894156D01*
X2536070Y1894069D01*
X2539230Y1894464D02*
X2539230Y1892094D01*
X2539230Y1894464D02*
X2539228Y1894543D01*
X2539222Y1894621D01*
X2539212Y1894699D01*
X2539199Y1894777D01*
X2539181Y1894854D01*
X2539160Y1894930D01*
X2539135Y1895004D01*
X2539106Y1895078D01*
X2539074Y1895150D01*
X2539038Y1895220D01*
X2538998Y1895288D01*
X2538955Y1895354D01*
X2538909Y1895418D01*
X2538860Y1895480D01*
X2538808Y1895539D01*
X2538753Y1895595D01*
X2538695Y1895649D01*
X2538635Y1895699D01*
X2538572Y1895747D01*
X2538507Y1895791D01*
X2538440Y1895832D01*
X2538371Y1895870D01*
X2538300Y1895904D01*
X2538227Y1895935D01*
X2538153Y1895962D01*
X2538078Y1895985D01*
X2538002Y1896004D01*
X2537924Y1896020D01*
X2537846Y1896032D01*
X2537768Y1896040D01*
X2537689Y1896044D01*
X2537611Y1896044D01*
X2537532Y1896040D01*
X2537454Y1896032D01*
X2537376Y1896020D01*
X2537298Y1896004D01*
X2537222Y1895985D01*
X2537147Y1895962D01*
X2537073Y1895935D01*
X2537000Y1895904D01*
X2536929Y1895870D01*
X2536860Y1895832D01*
X2536793Y1895791D01*
X2536728Y1895747D01*
X2536665Y1895699D01*
X2536605Y1895649D01*
X2536547Y1895595D01*
X2536492Y1895539D01*
X2536440Y1895480D01*
X2536391Y1895418D01*
X2536345Y1895354D01*
X2536302Y1895288D01*
X2536262Y1895220D01*
X2536226Y1895150D01*
X2536194Y1895078D01*
X2536165Y1895004D01*
X2536140Y1894930D01*
X2536119Y1894854D01*
X2536101Y1894777D01*
X2536088Y1894699D01*
X2536078Y1894621D01*
X2536072Y1894543D01*
X2536070Y1894464D01*
X2536069Y1894464D02*
X2536069Y1892884D01*
D13*
X2215680Y1838300D02*
X2215680Y1818300D01*
D12*
X2215680Y1812300D02*
X2215680Y1744300D01*
X2215680Y1812300D02*
X2215680Y1843300D01*
X2315680Y1843300D02*
X2315680Y1812300D01*
X2315680Y1744300D01*
X2315680Y1843300D02*
X2215680Y1843300D01*
X2215680Y1812300D02*
X2315680Y1812300D01*
X2237680Y1744300D02*
X2215680Y1744300D01*
X2237680Y1744300D02*
X2237680Y1754300D01*
X2293680Y1754300D01*
X2293680Y1744300D01*
X2315680Y1744300D01*
D10*
X2261974Y1854010D02*
X2261974Y1859542D01*
X2261975Y1854010D02*
X2261977Y1853932D01*
X2261983Y1853855D01*
X2261992Y1853778D01*
X2262005Y1853702D01*
X2262022Y1853626D01*
X2262043Y1853551D01*
X2262067Y1853478D01*
X2262095Y1853405D01*
X2262127Y1853334D01*
X2262162Y1853265D01*
X2262200Y1853198D01*
X2262241Y1853132D01*
X2262286Y1853069D01*
X2262334Y1853008D01*
X2262384Y1852949D01*
X2262438Y1852893D01*
X2262494Y1852839D01*
X2262553Y1852789D01*
X2262614Y1852741D01*
X2262677Y1852696D01*
X2262743Y1852655D01*
X2262810Y1852617D01*
X2262879Y1852582D01*
X2262950Y1852550D01*
X2263023Y1852522D01*
X2263096Y1852498D01*
X2263171Y1852477D01*
X2263247Y1852460D01*
X2263323Y1852447D01*
X2263400Y1852438D01*
X2263477Y1852432D01*
X2263555Y1852430D01*
X2264345Y1852430D01*
X2258404Y1852430D02*
X2256429Y1852430D01*
X2256342Y1852432D01*
X2256254Y1852438D01*
X2256167Y1852447D01*
X2256081Y1852461D01*
X2255995Y1852478D01*
X2255911Y1852499D01*
X2255827Y1852524D01*
X2255744Y1852553D01*
X2255663Y1852585D01*
X2255583Y1852620D01*
X2255505Y1852659D01*
X2255428Y1852702D01*
X2255354Y1852748D01*
X2255282Y1852797D01*
X2255212Y1852849D01*
X2255144Y1852905D01*
X2255079Y1852963D01*
X2255016Y1853024D01*
X2254957Y1853088D01*
X2254900Y1853155D01*
X2254846Y1853223D01*
X2254795Y1853295D01*
X2254748Y1853368D01*
X2254703Y1853443D01*
X2254662Y1853521D01*
X2254625Y1853600D01*
X2254591Y1853680D01*
X2254561Y1853762D01*
X2254534Y1853845D01*
X2254511Y1853930D01*
X2254492Y1854015D01*
X2254477Y1854101D01*
X2254465Y1854188D01*
X2254457Y1854275D01*
X2254453Y1854362D01*
X2254453Y1854450D01*
X2254457Y1854537D01*
X2254465Y1854624D01*
X2254477Y1854711D01*
X2254492Y1854797D01*
X2254511Y1854882D01*
X2254534Y1854967D01*
X2254561Y1855050D01*
X2254591Y1855132D01*
X2254625Y1855212D01*
X2254662Y1855291D01*
X2254703Y1855369D01*
X2254748Y1855444D01*
X2254795Y1855517D01*
X2254846Y1855589D01*
X2254900Y1855657D01*
X2254957Y1855724D01*
X2255016Y1855788D01*
X2255079Y1855849D01*
X2255144Y1855907D01*
X2255212Y1855963D01*
X2255282Y1856015D01*
X2255354Y1856064D01*
X2255428Y1856110D01*
X2255505Y1856153D01*
X2255583Y1856192D01*
X2255663Y1856227D01*
X2255744Y1856259D01*
X2255827Y1856288D01*
X2255911Y1856313D01*
X2255995Y1856334D01*
X2256081Y1856351D01*
X2256167Y1856365D01*
X2256254Y1856374D01*
X2256342Y1856380D01*
X2256429Y1856382D01*
X2256034Y1859542D02*
X2258404Y1859542D01*
X2256034Y1859542D02*
X2255955Y1859540D01*
X2255877Y1859534D01*
X2255799Y1859524D01*
X2255721Y1859511D01*
X2255644Y1859493D01*
X2255568Y1859472D01*
X2255494Y1859447D01*
X2255420Y1859418D01*
X2255348Y1859386D01*
X2255278Y1859350D01*
X2255210Y1859310D01*
X2255144Y1859267D01*
X2255080Y1859221D01*
X2255018Y1859172D01*
X2254959Y1859120D01*
X2254903Y1859065D01*
X2254849Y1859007D01*
X2254799Y1858947D01*
X2254751Y1858884D01*
X2254707Y1858819D01*
X2254666Y1858752D01*
X2254628Y1858683D01*
X2254594Y1858612D01*
X2254563Y1858539D01*
X2254536Y1858465D01*
X2254513Y1858390D01*
X2254494Y1858314D01*
X2254478Y1858236D01*
X2254466Y1858158D01*
X2254458Y1858080D01*
X2254454Y1858001D01*
X2254454Y1857923D01*
X2254458Y1857844D01*
X2254466Y1857766D01*
X2254478Y1857688D01*
X2254494Y1857610D01*
X2254513Y1857534D01*
X2254536Y1857459D01*
X2254563Y1857385D01*
X2254594Y1857312D01*
X2254628Y1857241D01*
X2254666Y1857172D01*
X2254707Y1857105D01*
X2254751Y1857040D01*
X2254799Y1856977D01*
X2254849Y1856917D01*
X2254903Y1856859D01*
X2254959Y1856804D01*
X2255018Y1856752D01*
X2255080Y1856703D01*
X2255144Y1856657D01*
X2255210Y1856614D01*
X2255278Y1856574D01*
X2255348Y1856538D01*
X2255420Y1856506D01*
X2255494Y1856477D01*
X2255568Y1856452D01*
X2255644Y1856431D01*
X2255721Y1856413D01*
X2255799Y1856400D01*
X2255877Y1856390D01*
X2255955Y1856384D01*
X2256034Y1856382D01*
X2256034Y1856381D02*
X2257614Y1856381D01*
X2251089Y1852430D02*
X2248718Y1852430D01*
X2248640Y1852432D01*
X2248563Y1852438D01*
X2248486Y1852447D01*
X2248410Y1852460D01*
X2248334Y1852477D01*
X2248259Y1852498D01*
X2248186Y1852522D01*
X2248113Y1852550D01*
X2248042Y1852582D01*
X2247973Y1852617D01*
X2247906Y1852655D01*
X2247840Y1852696D01*
X2247777Y1852741D01*
X2247716Y1852789D01*
X2247657Y1852839D01*
X2247601Y1852893D01*
X2247547Y1852949D01*
X2247497Y1853008D01*
X2247449Y1853069D01*
X2247404Y1853132D01*
X2247363Y1853198D01*
X2247325Y1853265D01*
X2247290Y1853334D01*
X2247258Y1853405D01*
X2247230Y1853478D01*
X2247206Y1853551D01*
X2247185Y1853626D01*
X2247168Y1853702D01*
X2247155Y1853778D01*
X2247146Y1853855D01*
X2247140Y1853932D01*
X2247138Y1854010D01*
X2247138Y1854801D01*
X2247140Y1854879D01*
X2247146Y1854956D01*
X2247155Y1855033D01*
X2247168Y1855109D01*
X2247185Y1855185D01*
X2247206Y1855260D01*
X2247230Y1855333D01*
X2247258Y1855406D01*
X2247290Y1855477D01*
X2247325Y1855546D01*
X2247363Y1855613D01*
X2247404Y1855679D01*
X2247449Y1855742D01*
X2247497Y1855803D01*
X2247547Y1855862D01*
X2247601Y1855918D01*
X2247657Y1855972D01*
X2247716Y1856022D01*
X2247777Y1856070D01*
X2247840Y1856115D01*
X2247906Y1856156D01*
X2247973Y1856194D01*
X2248042Y1856229D01*
X2248113Y1856261D01*
X2248186Y1856289D01*
X2248259Y1856313D01*
X2248334Y1856334D01*
X2248410Y1856351D01*
X2248486Y1856364D01*
X2248563Y1856373D01*
X2248640Y1856379D01*
X2248718Y1856381D01*
X2251089Y1856381D01*
X2251089Y1859542D01*
X2247138Y1859542D01*
D13*
X2554900Y2333460D02*
X2574900Y2333460D01*
D12*
X2548900Y2333460D02*
X2480900Y2333460D01*
X2548900Y2333460D02*
X2579900Y2333460D01*
X2579900Y2233460D02*
X2548900Y2233460D01*
X2480900Y2233460D01*
X2579900Y2233460D02*
X2579900Y2333460D01*
X2548900Y2333460D02*
X2548900Y2233460D01*
X2480900Y2311460D02*
X2480900Y2333460D01*
X2480900Y2311460D02*
X2490900Y2311460D01*
X2490900Y2255460D01*
X2480900Y2255460D01*
X2480900Y2233460D01*
D10*
X2590610Y2287166D02*
X2596142Y2287166D01*
X2590610Y2287165D02*
X2590532Y2287163D01*
X2590455Y2287157D01*
X2590378Y2287148D01*
X2590302Y2287135D01*
X2590226Y2287118D01*
X2590151Y2287097D01*
X2590078Y2287073D01*
X2590005Y2287045D01*
X2589934Y2287013D01*
X2589865Y2286978D01*
X2589798Y2286940D01*
X2589732Y2286899D01*
X2589669Y2286854D01*
X2589608Y2286806D01*
X2589549Y2286756D01*
X2589493Y2286702D01*
X2589439Y2286646D01*
X2589389Y2286587D01*
X2589341Y2286526D01*
X2589296Y2286463D01*
X2589255Y2286397D01*
X2589217Y2286330D01*
X2589182Y2286261D01*
X2589150Y2286190D01*
X2589122Y2286117D01*
X2589098Y2286044D01*
X2589077Y2285969D01*
X2589060Y2285893D01*
X2589047Y2285817D01*
X2589038Y2285740D01*
X2589032Y2285663D01*
X2589030Y2285585D01*
X2589030Y2284795D01*
X2589030Y2290736D02*
X2589030Y2292711D01*
X2589032Y2292798D01*
X2589038Y2292886D01*
X2589047Y2292973D01*
X2589061Y2293059D01*
X2589078Y2293145D01*
X2589099Y2293229D01*
X2589124Y2293313D01*
X2589153Y2293396D01*
X2589185Y2293477D01*
X2589220Y2293557D01*
X2589259Y2293635D01*
X2589302Y2293712D01*
X2589348Y2293786D01*
X2589397Y2293858D01*
X2589449Y2293928D01*
X2589505Y2293996D01*
X2589563Y2294061D01*
X2589624Y2294124D01*
X2589688Y2294183D01*
X2589755Y2294240D01*
X2589823Y2294294D01*
X2589895Y2294345D01*
X2589968Y2294392D01*
X2590043Y2294437D01*
X2590121Y2294478D01*
X2590200Y2294515D01*
X2590280Y2294549D01*
X2590362Y2294579D01*
X2590445Y2294606D01*
X2590530Y2294629D01*
X2590615Y2294648D01*
X2590701Y2294663D01*
X2590788Y2294675D01*
X2590875Y2294683D01*
X2590962Y2294687D01*
X2591050Y2294687D01*
X2591137Y2294683D01*
X2591224Y2294675D01*
X2591311Y2294663D01*
X2591397Y2294648D01*
X2591482Y2294629D01*
X2591567Y2294606D01*
X2591650Y2294579D01*
X2591732Y2294549D01*
X2591812Y2294515D01*
X2591891Y2294478D01*
X2591969Y2294437D01*
X2592044Y2294392D01*
X2592117Y2294345D01*
X2592189Y2294294D01*
X2592257Y2294240D01*
X2592324Y2294183D01*
X2592388Y2294124D01*
X2592449Y2294061D01*
X2592507Y2293996D01*
X2592563Y2293928D01*
X2592615Y2293858D01*
X2592664Y2293786D01*
X2592710Y2293712D01*
X2592753Y2293635D01*
X2592792Y2293557D01*
X2592827Y2293477D01*
X2592859Y2293396D01*
X2592888Y2293313D01*
X2592913Y2293229D01*
X2592934Y2293145D01*
X2592951Y2293059D01*
X2592965Y2292973D01*
X2592974Y2292886D01*
X2592980Y2292798D01*
X2592982Y2292711D01*
X2596142Y2293106D02*
X2596142Y2290736D01*
X2596142Y2293106D02*
X2596140Y2293185D01*
X2596134Y2293263D01*
X2596124Y2293341D01*
X2596111Y2293419D01*
X2596093Y2293496D01*
X2596072Y2293572D01*
X2596047Y2293646D01*
X2596018Y2293720D01*
X2595986Y2293792D01*
X2595950Y2293862D01*
X2595910Y2293930D01*
X2595867Y2293996D01*
X2595821Y2294060D01*
X2595772Y2294122D01*
X2595720Y2294181D01*
X2595665Y2294237D01*
X2595607Y2294291D01*
X2595547Y2294341D01*
X2595484Y2294389D01*
X2595419Y2294433D01*
X2595352Y2294474D01*
X2595283Y2294512D01*
X2595212Y2294546D01*
X2595139Y2294577D01*
X2595065Y2294604D01*
X2594990Y2294627D01*
X2594914Y2294646D01*
X2594836Y2294662D01*
X2594758Y2294674D01*
X2594680Y2294682D01*
X2594601Y2294686D01*
X2594523Y2294686D01*
X2594444Y2294682D01*
X2594366Y2294674D01*
X2594288Y2294662D01*
X2594210Y2294646D01*
X2594134Y2294627D01*
X2594059Y2294604D01*
X2593985Y2294577D01*
X2593912Y2294546D01*
X2593841Y2294512D01*
X2593772Y2294474D01*
X2593705Y2294433D01*
X2593640Y2294389D01*
X2593577Y2294341D01*
X2593517Y2294291D01*
X2593459Y2294237D01*
X2593404Y2294181D01*
X2593352Y2294122D01*
X2593303Y2294060D01*
X2593257Y2293996D01*
X2593214Y2293930D01*
X2593174Y2293862D01*
X2593138Y2293792D01*
X2593106Y2293720D01*
X2593077Y2293646D01*
X2593052Y2293572D01*
X2593031Y2293496D01*
X2593013Y2293419D01*
X2593000Y2293341D01*
X2592990Y2293263D01*
X2592984Y2293185D01*
X2592982Y2293106D01*
X2592981Y2293106D02*
X2592981Y2291526D01*
X2595352Y2298051D02*
X2596142Y2298051D01*
X2596142Y2302002D01*
X2589030Y2300026D01*
D13*
X2643800Y258280D02*
X2663800Y258280D01*
D12*
X2637800Y258280D02*
X2569800Y258280D01*
X2637800Y258280D02*
X2668800Y258280D01*
X2668800Y158280D02*
X2637800Y158280D01*
X2569800Y158280D01*
X2668800Y158280D02*
X2668800Y258280D01*
X2637800Y258280D02*
X2637800Y158280D01*
X2569800Y236280D02*
X2569800Y258280D01*
X2569800Y236280D02*
X2579800Y236280D01*
X2579800Y180280D01*
X2569800Y180280D01*
X2569800Y158280D01*
D10*
X2674430Y191666D02*
X2679962Y191666D01*
X2674430Y191665D02*
X2674352Y191663D01*
X2674275Y191657D01*
X2674198Y191648D01*
X2674122Y191635D01*
X2674046Y191618D01*
X2673971Y191597D01*
X2673898Y191573D01*
X2673825Y191545D01*
X2673754Y191513D01*
X2673685Y191478D01*
X2673618Y191440D01*
X2673552Y191399D01*
X2673489Y191354D01*
X2673428Y191306D01*
X2673369Y191256D01*
X2673313Y191202D01*
X2673259Y191146D01*
X2673209Y191087D01*
X2673161Y191026D01*
X2673116Y190963D01*
X2673075Y190897D01*
X2673037Y190830D01*
X2673002Y190761D01*
X2672970Y190690D01*
X2672942Y190617D01*
X2672918Y190544D01*
X2672897Y190469D01*
X2672880Y190393D01*
X2672867Y190317D01*
X2672858Y190240D01*
X2672852Y190163D01*
X2672850Y190085D01*
X2672850Y189295D01*
X2672850Y195236D02*
X2672850Y197211D01*
X2672852Y197298D01*
X2672858Y197386D01*
X2672867Y197473D01*
X2672881Y197559D01*
X2672898Y197645D01*
X2672919Y197729D01*
X2672944Y197813D01*
X2672973Y197896D01*
X2673005Y197977D01*
X2673040Y198057D01*
X2673079Y198135D01*
X2673122Y198212D01*
X2673168Y198286D01*
X2673217Y198358D01*
X2673269Y198428D01*
X2673325Y198496D01*
X2673383Y198561D01*
X2673444Y198624D01*
X2673508Y198683D01*
X2673575Y198740D01*
X2673643Y198794D01*
X2673715Y198845D01*
X2673788Y198892D01*
X2673863Y198937D01*
X2673941Y198978D01*
X2674020Y199015D01*
X2674100Y199049D01*
X2674182Y199079D01*
X2674265Y199106D01*
X2674350Y199129D01*
X2674435Y199148D01*
X2674521Y199163D01*
X2674608Y199175D01*
X2674695Y199183D01*
X2674782Y199187D01*
X2674870Y199187D01*
X2674957Y199183D01*
X2675044Y199175D01*
X2675131Y199163D01*
X2675217Y199148D01*
X2675302Y199129D01*
X2675387Y199106D01*
X2675470Y199079D01*
X2675552Y199049D01*
X2675632Y199015D01*
X2675711Y198978D01*
X2675789Y198937D01*
X2675864Y198892D01*
X2675937Y198845D01*
X2676009Y198794D01*
X2676077Y198740D01*
X2676144Y198683D01*
X2676208Y198624D01*
X2676269Y198561D01*
X2676327Y198496D01*
X2676383Y198428D01*
X2676435Y198358D01*
X2676484Y198286D01*
X2676530Y198212D01*
X2676573Y198135D01*
X2676612Y198057D01*
X2676647Y197977D01*
X2676679Y197896D01*
X2676708Y197813D01*
X2676733Y197729D01*
X2676754Y197645D01*
X2676771Y197559D01*
X2676785Y197473D01*
X2676794Y197386D01*
X2676800Y197298D01*
X2676802Y197211D01*
X2679962Y197606D02*
X2679962Y195236D01*
X2679962Y197606D02*
X2679960Y197685D01*
X2679954Y197763D01*
X2679944Y197841D01*
X2679931Y197919D01*
X2679913Y197996D01*
X2679892Y198072D01*
X2679867Y198146D01*
X2679838Y198220D01*
X2679806Y198292D01*
X2679770Y198362D01*
X2679730Y198430D01*
X2679687Y198496D01*
X2679641Y198560D01*
X2679592Y198622D01*
X2679540Y198681D01*
X2679485Y198737D01*
X2679427Y198791D01*
X2679367Y198841D01*
X2679304Y198889D01*
X2679239Y198933D01*
X2679172Y198974D01*
X2679103Y199012D01*
X2679032Y199046D01*
X2678959Y199077D01*
X2678885Y199104D01*
X2678810Y199127D01*
X2678734Y199146D01*
X2678656Y199162D01*
X2678578Y199174D01*
X2678500Y199182D01*
X2678421Y199186D01*
X2678343Y199186D01*
X2678264Y199182D01*
X2678186Y199174D01*
X2678108Y199162D01*
X2678030Y199146D01*
X2677954Y199127D01*
X2677879Y199104D01*
X2677805Y199077D01*
X2677732Y199046D01*
X2677661Y199012D01*
X2677592Y198974D01*
X2677525Y198933D01*
X2677460Y198889D01*
X2677397Y198841D01*
X2677337Y198791D01*
X2677279Y198737D01*
X2677224Y198681D01*
X2677172Y198622D01*
X2677123Y198560D01*
X2677077Y198496D01*
X2677034Y198430D01*
X2676994Y198362D01*
X2676958Y198292D01*
X2676926Y198220D01*
X2676897Y198146D01*
X2676872Y198072D01*
X2676851Y197996D01*
X2676833Y197919D01*
X2676820Y197841D01*
X2676810Y197763D01*
X2676804Y197685D01*
X2676802Y197606D01*
X2676801Y197606D02*
X2676801Y196026D01*
X2676011Y204131D02*
X2676011Y206502D01*
X2676011Y204131D02*
X2676013Y204053D01*
X2676019Y203976D01*
X2676028Y203899D01*
X2676041Y203823D01*
X2676058Y203747D01*
X2676079Y203672D01*
X2676103Y203599D01*
X2676131Y203526D01*
X2676163Y203455D01*
X2676198Y203386D01*
X2676236Y203319D01*
X2676277Y203253D01*
X2676322Y203190D01*
X2676370Y203129D01*
X2676420Y203070D01*
X2676474Y203014D01*
X2676530Y202960D01*
X2676589Y202910D01*
X2676650Y202862D01*
X2676713Y202817D01*
X2676779Y202776D01*
X2676846Y202738D01*
X2676915Y202703D01*
X2676986Y202671D01*
X2677059Y202643D01*
X2677132Y202619D01*
X2677207Y202598D01*
X2677283Y202581D01*
X2677359Y202568D01*
X2677436Y202559D01*
X2677513Y202553D01*
X2677591Y202551D01*
X2677986Y202551D01*
X2677986Y202550D02*
X2678073Y202552D01*
X2678161Y202558D01*
X2678248Y202567D01*
X2678334Y202581D01*
X2678420Y202598D01*
X2678504Y202619D01*
X2678588Y202644D01*
X2678671Y202673D01*
X2678752Y202705D01*
X2678832Y202740D01*
X2678910Y202779D01*
X2678987Y202822D01*
X2679061Y202868D01*
X2679133Y202917D01*
X2679203Y202969D01*
X2679271Y203025D01*
X2679336Y203083D01*
X2679399Y203144D01*
X2679458Y203208D01*
X2679515Y203275D01*
X2679569Y203343D01*
X2679620Y203415D01*
X2679667Y203488D01*
X2679712Y203563D01*
X2679753Y203641D01*
X2679790Y203720D01*
X2679824Y203800D01*
X2679854Y203882D01*
X2679881Y203965D01*
X2679904Y204050D01*
X2679923Y204135D01*
X2679938Y204221D01*
X2679950Y204308D01*
X2679958Y204395D01*
X2679962Y204482D01*
X2679962Y204570D01*
X2679958Y204657D01*
X2679950Y204744D01*
X2679938Y204831D01*
X2679923Y204917D01*
X2679904Y205002D01*
X2679881Y205087D01*
X2679854Y205170D01*
X2679824Y205252D01*
X2679790Y205332D01*
X2679753Y205411D01*
X2679712Y205489D01*
X2679667Y205564D01*
X2679620Y205637D01*
X2679569Y205709D01*
X2679515Y205777D01*
X2679458Y205844D01*
X2679399Y205908D01*
X2679336Y205969D01*
X2679271Y206027D01*
X2679203Y206083D01*
X2679133Y206135D01*
X2679061Y206184D01*
X2678987Y206230D01*
X2678910Y206273D01*
X2678832Y206312D01*
X2678752Y206347D01*
X2678671Y206379D01*
X2678588Y206408D01*
X2678504Y206433D01*
X2678420Y206454D01*
X2678334Y206471D01*
X2678248Y206485D01*
X2678161Y206494D01*
X2678073Y206500D01*
X2677986Y206502D01*
X2676011Y206502D01*
X2675901Y206500D01*
X2675790Y206494D01*
X2675681Y206485D01*
X2675571Y206471D01*
X2675462Y206454D01*
X2675354Y206433D01*
X2675246Y206408D01*
X2675140Y206380D01*
X2675034Y206347D01*
X2674930Y206311D01*
X2674827Y206272D01*
X2674725Y206229D01*
X2674625Y206182D01*
X2674527Y206132D01*
X2674431Y206079D01*
X2674336Y206022D01*
X2674243Y205962D01*
X2674153Y205898D01*
X2674065Y205832D01*
X2673979Y205762D01*
X2673896Y205690D01*
X2673815Y205615D01*
X2673737Y205537D01*
X2673662Y205456D01*
X2673590Y205373D01*
X2673520Y205287D01*
X2673454Y205199D01*
X2673390Y205109D01*
X2673330Y205016D01*
X2673273Y204922D01*
X2673220Y204825D01*
X2673170Y204727D01*
X2673123Y204627D01*
X2673080Y204525D01*
X2673041Y204422D01*
X2673005Y204318D01*
X2672972Y204212D01*
X2672944Y204106D01*
X2672919Y203998D01*
X2672898Y203890D01*
X2672881Y203781D01*
X2672867Y203671D01*
X2672858Y203562D01*
X2672852Y203451D01*
X2672850Y203341D01*
D13*
X2510320Y484800D02*
X2510320Y504800D01*
D12*
X2510320Y478800D02*
X2510320Y410800D01*
X2510320Y478800D02*
X2510320Y509800D01*
X2610320Y509800D02*
X2610320Y478800D01*
X2610320Y410800D01*
X2610320Y509800D02*
X2510320Y509800D01*
X2510320Y478800D02*
X2610320Y478800D01*
X2532320Y410800D02*
X2510320Y410800D01*
X2532320Y410800D02*
X2532320Y420800D01*
X2588320Y420800D01*
X2588320Y410800D01*
X2610320Y410800D01*
D10*
X2574394Y515430D02*
X2574394Y520962D01*
X2574395Y515430D02*
X2574397Y515352D01*
X2574403Y515275D01*
X2574412Y515198D01*
X2574425Y515122D01*
X2574442Y515046D01*
X2574463Y514971D01*
X2574487Y514898D01*
X2574515Y514825D01*
X2574547Y514754D01*
X2574582Y514685D01*
X2574620Y514618D01*
X2574661Y514552D01*
X2574706Y514489D01*
X2574754Y514428D01*
X2574804Y514369D01*
X2574858Y514313D01*
X2574914Y514259D01*
X2574973Y514209D01*
X2575034Y514161D01*
X2575097Y514116D01*
X2575163Y514075D01*
X2575230Y514037D01*
X2575299Y514002D01*
X2575370Y513970D01*
X2575443Y513942D01*
X2575516Y513918D01*
X2575591Y513897D01*
X2575667Y513880D01*
X2575743Y513867D01*
X2575820Y513858D01*
X2575897Y513852D01*
X2575975Y513850D01*
X2576765Y513850D01*
X2570824Y515430D02*
X2569244Y520962D01*
X2570824Y515430D02*
X2566873Y515430D01*
X2568059Y513850D02*
X2568059Y517011D01*
X2563509Y519382D02*
X2561534Y520962D01*
X2561534Y513850D01*
X2563509Y513850D02*
X2559558Y513850D01*
D16*
X434780Y1661140D02*
X434782Y1661229D01*
X434788Y1661318D01*
X434798Y1661407D01*
X434812Y1661495D01*
X434829Y1661582D01*
X434851Y1661668D01*
X434877Y1661754D01*
X434906Y1661838D01*
X434939Y1661921D01*
X434975Y1662002D01*
X435016Y1662082D01*
X435059Y1662159D01*
X435106Y1662235D01*
X435157Y1662308D01*
X435210Y1662379D01*
X435267Y1662448D01*
X435327Y1662514D01*
X435390Y1662578D01*
X435455Y1662638D01*
X435523Y1662696D01*
X435594Y1662750D01*
X435667Y1662801D01*
X435742Y1662849D01*
X435819Y1662894D01*
X435898Y1662935D01*
X435979Y1662972D01*
X436061Y1663006D01*
X436145Y1663037D01*
X436230Y1663063D01*
X436316Y1663086D01*
X436403Y1663104D01*
X436491Y1663119D01*
X436580Y1663130D01*
X436669Y1663137D01*
X436758Y1663140D01*
X436847Y1663139D01*
X436936Y1663134D01*
X437024Y1663125D01*
X437113Y1663112D01*
X437200Y1663095D01*
X437287Y1663075D01*
X437373Y1663050D01*
X437457Y1663022D01*
X437540Y1662990D01*
X437622Y1662954D01*
X437702Y1662915D01*
X437780Y1662872D01*
X437856Y1662826D01*
X437930Y1662776D01*
X438002Y1662723D01*
X438071Y1662667D01*
X438138Y1662608D01*
X438202Y1662546D01*
X438263Y1662482D01*
X438322Y1662414D01*
X438377Y1662344D01*
X438429Y1662272D01*
X438478Y1662197D01*
X438523Y1662121D01*
X438565Y1662042D01*
X438603Y1661962D01*
X438638Y1661880D01*
X438669Y1661796D01*
X438697Y1661711D01*
X438720Y1661625D01*
X438740Y1661538D01*
X438756Y1661451D01*
X438768Y1661362D01*
X438776Y1661274D01*
X438780Y1661185D01*
X438780Y1661095D01*
X438776Y1661006D01*
X438768Y1660918D01*
X438756Y1660829D01*
X438740Y1660742D01*
X438720Y1660655D01*
X438697Y1660569D01*
X438669Y1660484D01*
X438638Y1660400D01*
X438603Y1660318D01*
X438565Y1660238D01*
X438523Y1660159D01*
X438478Y1660083D01*
X438429Y1660008D01*
X438377Y1659936D01*
X438322Y1659866D01*
X438263Y1659798D01*
X438202Y1659734D01*
X438138Y1659672D01*
X438071Y1659613D01*
X438002Y1659557D01*
X437930Y1659504D01*
X437856Y1659454D01*
X437780Y1659408D01*
X437702Y1659365D01*
X437622Y1659326D01*
X437540Y1659290D01*
X437457Y1659258D01*
X437373Y1659230D01*
X437287Y1659205D01*
X437200Y1659185D01*
X437113Y1659168D01*
X437024Y1659155D01*
X436936Y1659146D01*
X436847Y1659141D01*
X436758Y1659140D01*
X436669Y1659143D01*
X436580Y1659150D01*
X436491Y1659161D01*
X436403Y1659176D01*
X436316Y1659194D01*
X436230Y1659217D01*
X436145Y1659243D01*
X436061Y1659274D01*
X435979Y1659308D01*
X435898Y1659345D01*
X435819Y1659386D01*
X435742Y1659431D01*
X435667Y1659479D01*
X435594Y1659530D01*
X435523Y1659584D01*
X435455Y1659642D01*
X435390Y1659702D01*
X435327Y1659766D01*
X435267Y1659832D01*
X435210Y1659901D01*
X435157Y1659972D01*
X435106Y1660045D01*
X435059Y1660121D01*
X435016Y1660198D01*
X434975Y1660278D01*
X434939Y1660359D01*
X434906Y1660442D01*
X434877Y1660526D01*
X434851Y1660612D01*
X434829Y1660698D01*
X434812Y1660785D01*
X434798Y1660873D01*
X434788Y1660962D01*
X434782Y1661051D01*
X434780Y1661140D01*
D13*
X476880Y1820940D02*
X491880Y1820940D01*
X476880Y1820940D02*
X396880Y1820940D01*
X381880Y1820940D01*
X381880Y1678940D01*
X396880Y1877940D02*
X476880Y1877940D01*
X396880Y1877940D02*
X396880Y1820940D01*
X476880Y1820940D02*
X476880Y1877940D01*
X491880Y1820940D02*
X491880Y1730940D01*
X491880Y1687940D02*
X491880Y1678940D01*
X460880Y1678940D01*
X412880Y1678940D02*
X381880Y1678940D01*
D15*
X394845Y1706281D02*
X400574Y1706281D01*
X394845Y1706281D02*
X394767Y1706279D01*
X394689Y1706274D01*
X394612Y1706264D01*
X394535Y1706251D01*
X394459Y1706235D01*
X394384Y1706215D01*
X394310Y1706191D01*
X394237Y1706164D01*
X394165Y1706133D01*
X394095Y1706099D01*
X394027Y1706062D01*
X393960Y1706021D01*
X393895Y1705977D01*
X393833Y1705931D01*
X393773Y1705881D01*
X393715Y1705829D01*
X393660Y1705774D01*
X393608Y1705716D01*
X393558Y1705656D01*
X393512Y1705594D01*
X393468Y1705529D01*
X393427Y1705463D01*
X393390Y1705394D01*
X393356Y1705324D01*
X393325Y1705252D01*
X393298Y1705179D01*
X393274Y1705105D01*
X393254Y1705030D01*
X393238Y1704954D01*
X393225Y1704877D01*
X393215Y1704800D01*
X393210Y1704722D01*
X393208Y1704644D01*
X393208Y1703825D01*
X400574Y1711966D02*
X400572Y1712051D01*
X400566Y1712136D01*
X400556Y1712220D01*
X400543Y1712304D01*
X400525Y1712388D01*
X400504Y1712470D01*
X400479Y1712551D01*
X400450Y1712631D01*
X400417Y1712710D01*
X400381Y1712787D01*
X400341Y1712862D01*
X400298Y1712936D01*
X400252Y1713007D01*
X400202Y1713076D01*
X400149Y1713143D01*
X400093Y1713207D01*
X400034Y1713268D01*
X399973Y1713327D01*
X399909Y1713383D01*
X399842Y1713436D01*
X399773Y1713486D01*
X399702Y1713532D01*
X399628Y1713575D01*
X399553Y1713615D01*
X399476Y1713651D01*
X399397Y1713684D01*
X399317Y1713713D01*
X399236Y1713738D01*
X399154Y1713759D01*
X399070Y1713777D01*
X398986Y1713790D01*
X398902Y1713800D01*
X398817Y1713806D01*
X398732Y1713808D01*
X400574Y1711966D02*
X400572Y1711870D01*
X400566Y1711774D01*
X400556Y1711679D01*
X400543Y1711584D01*
X400525Y1711489D01*
X400504Y1711396D01*
X400479Y1711303D01*
X400450Y1711212D01*
X400418Y1711121D01*
X400382Y1711032D01*
X400342Y1710945D01*
X400299Y1710859D01*
X400253Y1710775D01*
X400203Y1710693D01*
X400149Y1710613D01*
X400093Y1710536D01*
X400033Y1710461D01*
X399971Y1710388D01*
X399905Y1710318D01*
X399837Y1710250D01*
X399766Y1710185D01*
X399693Y1710124D01*
X399617Y1710065D01*
X399538Y1710009D01*
X399458Y1709957D01*
X399375Y1709908D01*
X399291Y1709862D01*
X399205Y1709820D01*
X399117Y1709782D01*
X399028Y1709747D01*
X398937Y1709715D01*
X397300Y1713193D02*
X397359Y1713253D01*
X397421Y1713310D01*
X397485Y1713365D01*
X397552Y1713416D01*
X397621Y1713465D01*
X397691Y1713511D01*
X397764Y1713554D01*
X397838Y1713594D01*
X397914Y1713630D01*
X397992Y1713663D01*
X398071Y1713693D01*
X398151Y1713720D01*
X398232Y1713743D01*
X398314Y1713762D01*
X398396Y1713778D01*
X398480Y1713791D01*
X398564Y1713800D01*
X398648Y1713805D01*
X398732Y1713807D01*
X397300Y1713194D02*
X393208Y1709715D01*
X393208Y1713807D01*
X395254Y1717031D02*
X395343Y1717033D01*
X395432Y1717039D01*
X395521Y1717049D01*
X395609Y1717062D01*
X395697Y1717079D01*
X395784Y1717101D01*
X395869Y1717126D01*
X395954Y1717154D01*
X396037Y1717187D01*
X396119Y1717223D01*
X396199Y1717262D01*
X396277Y1717305D01*
X396353Y1717351D01*
X396428Y1717401D01*
X396500Y1717454D01*
X396569Y1717510D01*
X396636Y1717569D01*
X396701Y1717630D01*
X396762Y1717695D01*
X396821Y1717762D01*
X396877Y1717831D01*
X396930Y1717903D01*
X396980Y1717978D01*
X397026Y1718054D01*
X397069Y1718132D01*
X397108Y1718212D01*
X397144Y1718294D01*
X397177Y1718377D01*
X397205Y1718462D01*
X397230Y1718547D01*
X397252Y1718634D01*
X397269Y1718722D01*
X397282Y1718810D01*
X397292Y1718899D01*
X397298Y1718988D01*
X397300Y1719077D01*
X397298Y1719166D01*
X397292Y1719255D01*
X397282Y1719344D01*
X397269Y1719432D01*
X397252Y1719520D01*
X397230Y1719607D01*
X397205Y1719692D01*
X397177Y1719777D01*
X397144Y1719860D01*
X397108Y1719942D01*
X397069Y1720022D01*
X397026Y1720100D01*
X396980Y1720176D01*
X396930Y1720251D01*
X396877Y1720323D01*
X396821Y1720392D01*
X396762Y1720459D01*
X396701Y1720524D01*
X396636Y1720585D01*
X396569Y1720644D01*
X396500Y1720700D01*
X396428Y1720753D01*
X396353Y1720803D01*
X396277Y1720849D01*
X396199Y1720892D01*
X396119Y1720931D01*
X396037Y1720967D01*
X395954Y1721000D01*
X395869Y1721028D01*
X395784Y1721053D01*
X395697Y1721075D01*
X395609Y1721092D01*
X395521Y1721105D01*
X395432Y1721115D01*
X395343Y1721121D01*
X395254Y1721123D01*
X395165Y1721121D01*
X395076Y1721115D01*
X394987Y1721105D01*
X394899Y1721092D01*
X394811Y1721075D01*
X394724Y1721053D01*
X394639Y1721028D01*
X394554Y1721000D01*
X394471Y1720967D01*
X394389Y1720931D01*
X394309Y1720892D01*
X394231Y1720849D01*
X394155Y1720803D01*
X394080Y1720753D01*
X394008Y1720700D01*
X393939Y1720644D01*
X393872Y1720585D01*
X393807Y1720524D01*
X393746Y1720459D01*
X393687Y1720392D01*
X393631Y1720323D01*
X393578Y1720251D01*
X393528Y1720176D01*
X393482Y1720100D01*
X393439Y1720022D01*
X393400Y1719942D01*
X393364Y1719860D01*
X393331Y1719777D01*
X393303Y1719692D01*
X393278Y1719607D01*
X393256Y1719520D01*
X393239Y1719432D01*
X393226Y1719344D01*
X393216Y1719255D01*
X393210Y1719166D01*
X393208Y1719077D01*
X393210Y1718988D01*
X393216Y1718899D01*
X393226Y1718810D01*
X393239Y1718722D01*
X393256Y1718634D01*
X393278Y1718547D01*
X393303Y1718462D01*
X393331Y1718377D01*
X393364Y1718294D01*
X393400Y1718212D01*
X393439Y1718132D01*
X393482Y1718054D01*
X393528Y1717978D01*
X393578Y1717903D01*
X393631Y1717831D01*
X393687Y1717762D01*
X393746Y1717695D01*
X393807Y1717630D01*
X393872Y1717569D01*
X393939Y1717510D01*
X394008Y1717454D01*
X394080Y1717401D01*
X394155Y1717351D01*
X394231Y1717305D01*
X394309Y1717262D01*
X394389Y1717223D01*
X394471Y1717187D01*
X394554Y1717154D01*
X394639Y1717126D01*
X394724Y1717101D01*
X394811Y1717079D01*
X394899Y1717062D01*
X394987Y1717049D01*
X395076Y1717039D01*
X395165Y1717033D01*
X395254Y1717031D01*
X398937Y1717440D02*
X399016Y1717442D01*
X399095Y1717448D01*
X399174Y1717457D01*
X399252Y1717470D01*
X399329Y1717488D01*
X399405Y1717508D01*
X399480Y1717533D01*
X399554Y1717561D01*
X399627Y1717592D01*
X399698Y1717628D01*
X399767Y1717666D01*
X399834Y1717708D01*
X399899Y1717753D01*
X399962Y1717801D01*
X400023Y1717852D01*
X400080Y1717906D01*
X400136Y1717962D01*
X400188Y1718021D01*
X400238Y1718083D01*
X400284Y1718147D01*
X400328Y1718213D01*
X400368Y1718281D01*
X400404Y1718351D01*
X400438Y1718423D01*
X400468Y1718497D01*
X400494Y1718571D01*
X400517Y1718647D01*
X400535Y1718724D01*
X400551Y1718801D01*
X400562Y1718880D01*
X400570Y1718958D01*
X400574Y1719037D01*
X400574Y1719117D01*
X400570Y1719196D01*
X400562Y1719274D01*
X400551Y1719353D01*
X400535Y1719430D01*
X400517Y1719507D01*
X400494Y1719583D01*
X400468Y1719657D01*
X400438Y1719731D01*
X400404Y1719803D01*
X400368Y1719873D01*
X400328Y1719941D01*
X400284Y1720007D01*
X400238Y1720071D01*
X400188Y1720133D01*
X400136Y1720192D01*
X400080Y1720248D01*
X400023Y1720302D01*
X399962Y1720353D01*
X399899Y1720401D01*
X399834Y1720446D01*
X399767Y1720488D01*
X399698Y1720526D01*
X399627Y1720562D01*
X399554Y1720593D01*
X399480Y1720621D01*
X399405Y1720646D01*
X399329Y1720666D01*
X399252Y1720684D01*
X399174Y1720697D01*
X399095Y1720706D01*
X399016Y1720712D01*
X398937Y1720714D01*
X398858Y1720712D01*
X398779Y1720706D01*
X398700Y1720697D01*
X398622Y1720684D01*
X398545Y1720666D01*
X398469Y1720646D01*
X398394Y1720621D01*
X398320Y1720593D01*
X398247Y1720562D01*
X398176Y1720526D01*
X398107Y1720488D01*
X398040Y1720446D01*
X397975Y1720401D01*
X397912Y1720353D01*
X397851Y1720302D01*
X397794Y1720248D01*
X397738Y1720192D01*
X397686Y1720133D01*
X397636Y1720071D01*
X397590Y1720007D01*
X397546Y1719941D01*
X397506Y1719873D01*
X397470Y1719803D01*
X397436Y1719731D01*
X397406Y1719657D01*
X397380Y1719583D01*
X397357Y1719507D01*
X397339Y1719430D01*
X397323Y1719353D01*
X397312Y1719274D01*
X397304Y1719196D01*
X397300Y1719117D01*
X397300Y1719037D01*
X397304Y1718958D01*
X397312Y1718880D01*
X397323Y1718801D01*
X397339Y1718724D01*
X397357Y1718647D01*
X397380Y1718571D01*
X397406Y1718497D01*
X397436Y1718423D01*
X397470Y1718351D01*
X397506Y1718281D01*
X397546Y1718213D01*
X397590Y1718147D01*
X397636Y1718083D01*
X397686Y1718021D01*
X397738Y1717962D01*
X397794Y1717906D01*
X397851Y1717852D01*
X397912Y1717801D01*
X397975Y1717753D01*
X398040Y1717708D01*
X398107Y1717666D01*
X398176Y1717628D01*
X398247Y1717592D01*
X398320Y1717561D01*
X398394Y1717533D01*
X398469Y1717508D01*
X398545Y1717488D01*
X398622Y1717470D01*
X398700Y1717457D01*
X398779Y1717448D01*
X398858Y1717442D01*
X398937Y1717440D01*
D12*
X2489200Y355600D02*
X2514600Y355600D01*
X2489200Y355600D02*
X2463800Y355600D01*
X2463800Y330200D01*
X2463800Y101600D01*
X2514600Y101600D01*
X2514600Y355600D01*
X2489200Y330200D02*
X2463800Y330200D01*
X2489200Y330200D02*
X2489200Y355600D01*
D11*
X2459228Y182534D02*
X2454092Y182534D01*
X2454018Y182532D01*
X2453943Y182526D01*
X2453870Y182517D01*
X2453796Y182504D01*
X2453724Y182487D01*
X2453653Y182467D01*
X2453582Y182443D01*
X2453513Y182415D01*
X2453446Y182384D01*
X2453380Y182350D01*
X2453315Y182312D01*
X2453253Y182271D01*
X2453193Y182227D01*
X2453136Y182180D01*
X2453081Y182130D01*
X2453028Y182077D01*
X2452978Y182022D01*
X2452931Y181965D01*
X2452887Y181905D01*
X2452846Y181843D01*
X2452808Y181778D01*
X2452774Y181712D01*
X2452743Y181645D01*
X2452715Y181576D01*
X2452691Y181505D01*
X2452671Y181434D01*
X2452654Y181362D01*
X2452641Y181288D01*
X2452632Y181215D01*
X2452626Y181140D01*
X2452624Y181066D01*
X2452624Y180332D01*
X2454092Y186374D02*
X2459228Y187841D01*
X2454092Y186374D02*
X2454092Y190043D01*
X2455559Y188942D02*
X2452624Y188942D01*
X2459228Y195707D02*
X2459226Y195786D01*
X2459221Y195864D01*
X2459211Y195942D01*
X2459198Y196019D01*
X2459181Y196096D01*
X2459161Y196172D01*
X2459137Y196247D01*
X2459110Y196321D01*
X2459079Y196393D01*
X2459044Y196464D01*
X2459007Y196533D01*
X2458966Y196600D01*
X2458922Y196665D01*
X2458875Y196728D01*
X2458825Y196788D01*
X2458772Y196846D01*
X2458716Y196902D01*
X2458658Y196955D01*
X2458598Y197005D01*
X2458535Y197052D01*
X2458470Y197096D01*
X2458403Y197137D01*
X2458334Y197174D01*
X2458263Y197209D01*
X2458191Y197240D01*
X2458117Y197267D01*
X2458042Y197291D01*
X2457966Y197311D01*
X2457889Y197328D01*
X2457812Y197341D01*
X2457734Y197351D01*
X2457656Y197356D01*
X2457577Y197358D01*
X2459228Y195707D02*
X2459226Y195618D01*
X2459221Y195529D01*
X2459211Y195441D01*
X2459198Y195353D01*
X2459182Y195266D01*
X2459161Y195179D01*
X2459137Y195094D01*
X2459110Y195009D01*
X2459079Y194926D01*
X2459044Y194844D01*
X2459006Y194763D01*
X2458965Y194684D01*
X2458921Y194608D01*
X2458873Y194532D01*
X2458822Y194459D01*
X2458769Y194389D01*
X2458712Y194320D01*
X2458652Y194254D01*
X2458590Y194191D01*
X2458525Y194130D01*
X2458458Y194072D01*
X2458388Y194017D01*
X2458316Y193964D01*
X2458242Y193915D01*
X2458166Y193869D01*
X2458088Y193827D01*
X2458008Y193787D01*
X2457927Y193751D01*
X2457844Y193718D01*
X2457760Y193689D01*
X2456293Y196808D02*
X2456349Y196864D01*
X2456408Y196918D01*
X2456469Y196969D01*
X2456533Y197018D01*
X2456598Y197063D01*
X2456666Y197106D01*
X2456735Y197145D01*
X2456806Y197182D01*
X2456879Y197215D01*
X2456953Y197244D01*
X2457028Y197271D01*
X2457104Y197294D01*
X2457182Y197313D01*
X2457260Y197329D01*
X2457338Y197342D01*
X2457418Y197351D01*
X2457497Y197356D01*
X2457577Y197358D01*
X2456293Y196808D02*
X2452624Y193689D01*
X2452624Y197358D01*
D14*
X1362380Y1789520D02*
X1306610Y1789520D01*
X1268950Y1789520D01*
X1179610Y1789520D01*
X1141950Y1789520D01*
X1086180Y1789520D01*
X1086180Y1705520D01*
X1139500Y1705520D01*
X1139500Y1708520D01*
X1154290Y1708520D01*
X1154290Y1705520D01*
X1205450Y1705520D01*
X1205450Y1721020D01*
X1243110Y1721020D01*
X1243110Y1705520D01*
X1205450Y1705520D01*
X1243110Y1705520D02*
X1291900Y1705520D01*
X1306690Y1705520D02*
X1362380Y1705520D01*
X1362380Y1789520D01*
X1351130Y1780270D02*
X1306680Y1780270D01*
X1268930Y1780270D02*
X1179630Y1780270D01*
X1141880Y1780270D02*
X1097430Y1780270D01*
X1097430Y1714770D01*
X1205450Y1714770D01*
X1243110Y1714770D02*
X1351130Y1714770D01*
X1351130Y1780270D01*
X1291900Y1708520D02*
X1291900Y1705520D01*
X1291900Y1708520D02*
X1306690Y1708520D01*
X1306690Y1705520D01*
X1306610Y1774020D02*
X1306610Y1789520D01*
X1306610Y1774020D02*
X1268950Y1774020D01*
X1268950Y1789520D01*
X1179610Y1789520D02*
X1179610Y1774020D01*
X1141950Y1774020D01*
X1141950Y1789520D01*
D15*
X1358688Y1800987D02*
X1363599Y1793621D01*
X1358688Y1793621D02*
X1363599Y1800987D01*
X1355875Y1799350D02*
X1353829Y1800987D01*
X1353829Y1793621D01*
X1355875Y1793621D02*
X1351782Y1793621D01*
X1348559Y1797304D02*
X1348557Y1797457D01*
X1348551Y1797610D01*
X1348542Y1797762D01*
X1348528Y1797915D01*
X1348511Y1798067D01*
X1348490Y1798218D01*
X1348465Y1798369D01*
X1348436Y1798519D01*
X1348404Y1798669D01*
X1348367Y1798817D01*
X1348327Y1798965D01*
X1348284Y1799112D01*
X1348236Y1799257D01*
X1348185Y1799401D01*
X1348131Y1799544D01*
X1348072Y1799686D01*
X1348011Y1799825D01*
X1347945Y1799964D01*
X1347919Y1800034D01*
X1347889Y1800103D01*
X1347857Y1800171D01*
X1347820Y1800237D01*
X1347781Y1800301D01*
X1347738Y1800363D01*
X1347693Y1800422D01*
X1347644Y1800480D01*
X1347593Y1800534D01*
X1347539Y1800587D01*
X1347482Y1800636D01*
X1347423Y1800683D01*
X1347362Y1800726D01*
X1347299Y1800767D01*
X1347234Y1800804D01*
X1347167Y1800839D01*
X1347098Y1800869D01*
X1347028Y1800897D01*
X1346957Y1800920D01*
X1346885Y1800941D01*
X1346812Y1800957D01*
X1346738Y1800970D01*
X1346663Y1800980D01*
X1346588Y1800985D01*
X1346513Y1800987D01*
X1346438Y1800985D01*
X1346363Y1800980D01*
X1346288Y1800970D01*
X1346214Y1800957D01*
X1346141Y1800941D01*
X1346069Y1800920D01*
X1345998Y1800897D01*
X1345928Y1800869D01*
X1345859Y1800839D01*
X1345792Y1800804D01*
X1345727Y1800767D01*
X1345664Y1800726D01*
X1345603Y1800683D01*
X1345544Y1800636D01*
X1345487Y1800587D01*
X1345433Y1800534D01*
X1345382Y1800480D01*
X1345334Y1800422D01*
X1345288Y1800363D01*
X1345245Y1800301D01*
X1345206Y1800237D01*
X1345170Y1800171D01*
X1345137Y1800104D01*
X1345107Y1800034D01*
X1345081Y1799964D01*
X1345016Y1799826D01*
X1344954Y1799686D01*
X1344896Y1799544D01*
X1344841Y1799401D01*
X1344790Y1799257D01*
X1344742Y1799112D01*
X1344699Y1798965D01*
X1344659Y1798818D01*
X1344622Y1798669D01*
X1344590Y1798519D01*
X1344561Y1798369D01*
X1344536Y1798218D01*
X1344515Y1798067D01*
X1344498Y1797915D01*
X1344484Y1797762D01*
X1344475Y1797610D01*
X1344469Y1797457D01*
X1344467Y1797304D01*
X1348560Y1797304D02*
X1348558Y1797151D01*
X1348552Y1796998D01*
X1348543Y1796845D01*
X1348529Y1796693D01*
X1348512Y1796541D01*
X1348491Y1796390D01*
X1348466Y1796239D01*
X1348437Y1796088D01*
X1348405Y1795939D01*
X1348368Y1795790D01*
X1348328Y1795643D01*
X1348285Y1795496D01*
X1348237Y1795351D01*
X1348186Y1795206D01*
X1348131Y1795064D01*
X1348073Y1794922D01*
X1348011Y1794782D01*
X1347946Y1794644D01*
X1347945Y1794644D02*
X1347919Y1794574D01*
X1347889Y1794504D01*
X1347857Y1794437D01*
X1347820Y1794371D01*
X1347781Y1794307D01*
X1347738Y1794245D01*
X1347692Y1794186D01*
X1347644Y1794128D01*
X1347593Y1794074D01*
X1347539Y1794021D01*
X1347482Y1793972D01*
X1347423Y1793925D01*
X1347362Y1793882D01*
X1347299Y1793841D01*
X1347234Y1793804D01*
X1347167Y1793769D01*
X1347098Y1793739D01*
X1347028Y1793711D01*
X1346957Y1793688D01*
X1346885Y1793667D01*
X1346812Y1793651D01*
X1346738Y1793638D01*
X1346663Y1793628D01*
X1346588Y1793623D01*
X1346513Y1793621D01*
X1345081Y1794644D02*
X1345016Y1794782D01*
X1344954Y1794922D01*
X1344896Y1795064D01*
X1344841Y1795207D01*
X1344790Y1795351D01*
X1344742Y1795496D01*
X1344699Y1795643D01*
X1344659Y1795791D01*
X1344622Y1795939D01*
X1344590Y1796089D01*
X1344561Y1796239D01*
X1344536Y1796390D01*
X1344515Y1796541D01*
X1344498Y1796693D01*
X1344484Y1796846D01*
X1344475Y1796998D01*
X1344469Y1797151D01*
X1344467Y1797304D01*
X1345081Y1794644D02*
X1345107Y1794573D01*
X1345137Y1794504D01*
X1345170Y1794437D01*
X1345206Y1794371D01*
X1345245Y1794307D01*
X1345288Y1794245D01*
X1345334Y1794186D01*
X1345382Y1794128D01*
X1345433Y1794074D01*
X1345487Y1794021D01*
X1345544Y1793972D01*
X1345603Y1793925D01*
X1345664Y1793882D01*
X1345727Y1793841D01*
X1345792Y1793804D01*
X1345859Y1793769D01*
X1345928Y1793739D01*
X1345998Y1793711D01*
X1346069Y1793688D01*
X1346141Y1793667D01*
X1346214Y1793651D01*
X1346288Y1793638D01*
X1346363Y1793628D01*
X1346438Y1793623D01*
X1346513Y1793621D01*
X1348150Y1795258D02*
X1344876Y1799350D01*
M02*
