G04 EAGLE Gerber RS-274X export*
G75*
%MOMM*%
%FSLAX34Y34*%
%LPD*%
%INSoldermask Top*%
%IPPOS*%
%AMOC8*
5,1,8,0,0,1.08239X$1,22.5*%
G01*
%ADD10C,3.378200*%
%ADD11C,5.283200*%
%ADD12C,2.235200*%
%ADD13C,3.759200*%
%ADD14C,3.251200*%
%ADD15C,3.703200*%
%ADD16C,3.886200*%
%ADD17R,0.473200X1.703200*%
%ADD18R,1.703200X0.473200*%
%ADD19R,1.103200X0.903200*%
%ADD20R,1.603200X1.403200*%
%ADD21R,1.303200X1.203200*%
%ADD22R,2.003200X1.803200*%
%ADD23R,0.903200X1.103200*%
%ADD24C,0.275422*%
%ADD25R,1.203200X1.303200*%
%ADD26R,2.603200X0.963200*%
%ADD27R,1.003200X1.003200*%
%ADD28P,2.309387X8X202.500000*%
%ADD29R,0.553200X0.453200*%
%ADD30P,2.309387X8X22.500000*%
%ADD31R,0.453200X0.553200*%
%ADD32R,0.483200X0.633200*%
%ADD33R,1.403200X0.803200*%
%ADD34R,1.177100X1.001900*%
%ADD35R,2.984500X2.984500*%
%ADD36R,2.003200X2.003200*%
%ADD37R,0.963200X2.603200*%
%ADD38P,1.869504X8X112.500000*%
%ADD39P,1.869504X8X22.500000*%
%ADD40C,2.603200*%
%ADD41C,2.403200*%
%ADD42C,2.082800*%
%ADD43R,1.511200X1.511200*%
%ADD44C,1.511200*%
%ADD45P,1.649562X8X22.500000*%
%ADD46C,1.727200*%
%ADD47R,1.600200X1.600200*%
%ADD48C,3.479800*%
%ADD49R,2.679700X2.679700*%
%ADD50R,1.403200X0.753200*%
%ADD51R,0.508000X1.193800*%
%ADD52R,0.803200X1.403200*%
%ADD53R,2.603200X1.803200*%
%ADD54R,0.503200X0.653200*%
%ADD55R,1.700000X1.000000*%
%ADD56R,2.209800X1.701800*%
%ADD57R,2.209800X4.013200*%
%ADD58R,4.003200X3.003200*%
%ADD59P,1.869504X8X202.500000*%
%ADD60R,1.701800X2.209800*%
%ADD61R,4.013200X2.209800*%
%ADD62R,1.283200X1.253200*%
%ADD63R,1.253200X1.283200*%
%ADD64R,2.203200X1.703200*%
%ADD65R,1.703200X2.203200*%
%ADD66C,1.711200*%
%ADD67C,0.306600*%
%ADD68R,0.803200X1.603200*%
%ADD69R,2.403200X0.803200*%
%ADD70C,1.625600*%
%ADD71C,2.753200*%
%ADD72R,1.700000X2.800000*%
%ADD73R,2.800000X1.700000*%
%ADD74R,1.711200X1.711200*%
%ADD75C,2.903200*%
%ADD76R,1.727200X1.727200*%
%ADD77R,1.603200X0.803200*%
%ADD78P,2.309387X8X112.500000*%
%ADD79R,3.203200X1.603200*%
%ADD80C,2.203200*%
%ADD81C,2.743200*%
%ADD82P,2.969212X8X112.500000*%
%ADD83P,1.869504X8X292.500000*%
%ADD84R,0.633200X0.483200*%
%ADD85R,3.003200X4.003200*%
%ADD86R,1.803200X2.003200*%
%ADD87C,0.959600*%
%ADD88C,1.159600*%
%ADD89C,1.259600*%
%ADD90C,1.553200*%
%ADD91C,7.315200*%
%ADD92C,1.109600*%


D10*
X824230Y943610D03*
X1512570Y895350D03*
X824230Y462280D03*
X1634490Y946150D03*
X2322830Y897890D03*
X1634998Y464566D03*
X2000250Y1563624D03*
X2688336Y1515364D03*
X2031492Y1104646D03*
X1521460Y318770D03*
X1667510Y320040D03*
X673100Y265430D03*
X55880Y543560D03*
X58420Y1127760D03*
X718820Y1132840D03*
X721360Y538480D03*
X1162050Y716280D03*
X2051050Y708660D03*
X2355850Y1346200D03*
X1443990Y1112520D03*
X824230Y1082040D03*
X2688590Y1071880D03*
X2089150Y1562100D03*
X892810Y508000D03*
X2327910Y457200D03*
X551180Y321310D03*
X2084070Y220980D03*
X2419350Y127000D03*
X1908810Y297180D03*
X1667510Y121920D03*
D11*
X833120Y218440D03*
X947420Y218440D03*
X1061720Y218440D03*
X1176020Y218440D03*
X1290320Y218440D03*
X1417320Y218440D03*
D12*
X2158246Y2384044D03*
D13*
X67310Y375920D03*
X384810Y375920D03*
D14*
X551180Y1788160D03*
X703580Y1788160D03*
X478790Y2316480D03*
X353060Y2138680D03*
X767080Y2136140D03*
X485140Y1971040D03*
X1290320Y2004060D03*
X1803400Y2039620D03*
X1381760Y2339340D03*
X1765300Y2326640D03*
X348437Y1596136D03*
X731977Y1608785D03*
X310337Y1309091D03*
X823443Y1273454D03*
X1628546Y1240536D03*
X1635049Y1585849D03*
X353060Y2037080D03*
X1760677Y1306500D03*
X1574800Y1988820D03*
X1676400Y2227580D03*
X1866900Y2151380D03*
X1346200Y2136140D03*
X1109980Y2131060D03*
X955040Y2009140D03*
X1010920Y2098040D03*
X1285240Y2346960D03*
X693420Y1277620D03*
X1521460Y236220D03*
X551180Y238760D03*
D12*
X2343666Y2386584D03*
X2155706Y2140204D03*
X2348746Y2140204D03*
X2524006Y2386584D03*
D10*
X2029460Y1737360D03*
X1026160Y1737360D03*
D13*
X124460Y1414780D03*
X124460Y1264920D03*
D15*
X719340Y2250080D03*
X403340Y2250080D03*
X719340Y1953080D03*
X403340Y1953080D03*
D16*
X2682240Y89408D03*
X2681986Y331978D03*
X2679192Y523240D03*
X2436622Y522986D03*
X134620Y2267712D03*
X134874Y2025142D03*
X2384552Y1856740D03*
X2141982Y1856486D03*
X2534920Y2016252D03*
X2535174Y1773682D03*
D17*
X2348540Y323840D03*
X2343540Y323840D03*
X2338540Y323840D03*
X2333540Y323840D03*
X2328540Y323840D03*
X2323540Y323840D03*
X2318540Y323840D03*
X2313540Y323840D03*
X2308540Y323840D03*
X2303540Y323840D03*
X2298540Y323840D03*
X2293540Y323840D03*
X2288540Y323840D03*
X2283540Y323840D03*
X2278540Y323840D03*
X2273540Y323840D03*
X2268540Y323840D03*
X2263540Y323840D03*
X2258540Y323840D03*
X2253540Y323840D03*
X2248540Y323840D03*
X2243540Y323840D03*
X2238540Y323840D03*
X2233540Y323840D03*
X2228540Y323840D03*
D18*
X2208540Y303840D03*
X2208540Y298840D03*
X2208540Y293840D03*
X2208540Y288840D03*
X2208540Y283840D03*
X2208540Y278840D03*
X2208540Y273840D03*
X2208540Y268840D03*
X2208540Y263840D03*
X2208540Y258840D03*
X2208540Y253840D03*
X2208540Y248840D03*
X2208540Y243840D03*
X2208540Y238840D03*
X2208540Y233840D03*
X2208540Y228840D03*
X2208540Y223840D03*
X2208540Y218840D03*
X2208540Y213840D03*
X2208540Y208840D03*
X2208540Y203840D03*
X2208540Y198840D03*
X2208540Y193840D03*
X2208540Y188840D03*
X2208540Y183840D03*
D17*
X2228540Y163840D03*
X2233540Y163840D03*
X2238540Y163840D03*
X2243540Y163840D03*
X2248540Y163840D03*
X2253540Y163840D03*
X2258540Y163840D03*
X2263540Y163840D03*
X2268540Y163840D03*
X2273540Y163840D03*
X2278540Y163840D03*
X2283540Y163840D03*
X2288540Y163840D03*
X2293540Y163840D03*
X2298540Y163840D03*
X2303540Y163840D03*
X2308540Y163840D03*
X2313540Y163840D03*
X2318540Y163840D03*
X2323540Y163840D03*
X2328540Y163840D03*
X2333540Y163840D03*
X2338540Y163840D03*
X2343540Y163840D03*
X2348540Y163840D03*
D18*
X2368540Y183840D03*
X2368540Y188840D03*
X2368540Y193840D03*
X2368540Y198840D03*
X2368540Y203840D03*
X2368540Y208840D03*
X2368540Y213840D03*
X2368540Y218840D03*
X2368540Y223840D03*
X2368540Y228840D03*
X2368540Y233840D03*
X2368540Y238840D03*
X2368540Y243840D03*
X2368540Y248840D03*
X2368540Y253840D03*
X2368540Y258840D03*
X2368540Y263840D03*
X2368540Y268840D03*
X2368540Y273840D03*
X2368540Y278840D03*
X2368540Y283840D03*
X2368540Y288840D03*
X2368540Y293840D03*
X2368540Y298840D03*
X2368540Y303840D03*
D19*
X660400Y1024740D03*
X660400Y1037740D03*
D20*
X292940Y939420D03*
X292940Y955420D03*
X270940Y955420D03*
X270940Y939420D03*
D21*
X282820Y972820D03*
X265820Y972820D03*
X273440Y922020D03*
X290440Y922020D03*
D22*
X515620Y836960D03*
X515620Y808960D03*
D23*
X473560Y1099820D03*
X486560Y1099820D03*
D21*
X374142Y1096654D03*
X374142Y1113654D03*
D24*
X347879Y868379D02*
X347879Y853501D01*
X345801Y853501D01*
X345801Y868379D01*
X347879Y868379D01*
X347879Y856117D02*
X345801Y856117D01*
X345801Y858733D02*
X347879Y858733D01*
X347879Y861349D02*
X345801Y861349D01*
X345801Y863965D02*
X347879Y863965D01*
X347879Y866581D02*
X345801Y866581D01*
X352879Y868379D02*
X352879Y853501D01*
X350801Y853501D01*
X350801Y868379D01*
X352879Y868379D01*
X352879Y856117D02*
X350801Y856117D01*
X350801Y858733D02*
X352879Y858733D01*
X352879Y861349D02*
X350801Y861349D01*
X350801Y863965D02*
X352879Y863965D01*
X352879Y866581D02*
X350801Y866581D01*
X357879Y868379D02*
X357879Y853501D01*
X355801Y853501D01*
X355801Y868379D01*
X357879Y868379D01*
X357879Y856117D02*
X355801Y856117D01*
X355801Y858733D02*
X357879Y858733D01*
X357879Y861349D02*
X355801Y861349D01*
X355801Y863965D02*
X357879Y863965D01*
X357879Y866581D02*
X355801Y866581D01*
X362879Y868379D02*
X362879Y853501D01*
X360801Y853501D01*
X360801Y868379D01*
X362879Y868379D01*
X362879Y856117D02*
X360801Y856117D01*
X360801Y858733D02*
X362879Y858733D01*
X362879Y861349D02*
X360801Y861349D01*
X360801Y863965D02*
X362879Y863965D01*
X362879Y866581D02*
X360801Y866581D01*
X367879Y868379D02*
X367879Y853501D01*
X365801Y853501D01*
X365801Y868379D01*
X367879Y868379D01*
X367879Y856117D02*
X365801Y856117D01*
X365801Y858733D02*
X367879Y858733D01*
X367879Y861349D02*
X365801Y861349D01*
X365801Y863965D02*
X367879Y863965D01*
X367879Y866581D02*
X365801Y866581D01*
X372879Y868379D02*
X372879Y853501D01*
X370801Y853501D01*
X370801Y868379D01*
X372879Y868379D01*
X372879Y856117D02*
X370801Y856117D01*
X370801Y858733D02*
X372879Y858733D01*
X372879Y861349D02*
X370801Y861349D01*
X370801Y863965D02*
X372879Y863965D01*
X372879Y866581D02*
X370801Y866581D01*
X377879Y868379D02*
X377879Y853501D01*
X375801Y853501D01*
X375801Y868379D01*
X377879Y868379D01*
X377879Y856117D02*
X375801Y856117D01*
X375801Y858733D02*
X377879Y858733D01*
X377879Y861349D02*
X375801Y861349D01*
X375801Y863965D02*
X377879Y863965D01*
X377879Y866581D02*
X375801Y866581D01*
X382879Y868379D02*
X382879Y853501D01*
X380801Y853501D01*
X380801Y868379D01*
X382879Y868379D01*
X382879Y856117D02*
X380801Y856117D01*
X380801Y858733D02*
X382879Y858733D01*
X382879Y861349D02*
X380801Y861349D01*
X380801Y863965D02*
X382879Y863965D01*
X382879Y866581D02*
X380801Y866581D01*
X387879Y868379D02*
X387879Y853501D01*
X385801Y853501D01*
X385801Y868379D01*
X387879Y868379D01*
X387879Y856117D02*
X385801Y856117D01*
X385801Y858733D02*
X387879Y858733D01*
X387879Y861349D02*
X385801Y861349D01*
X385801Y863965D02*
X387879Y863965D01*
X387879Y866581D02*
X385801Y866581D01*
X392879Y868379D02*
X392879Y853501D01*
X390801Y853501D01*
X390801Y868379D01*
X392879Y868379D01*
X392879Y856117D02*
X390801Y856117D01*
X390801Y858733D02*
X392879Y858733D01*
X392879Y861349D02*
X390801Y861349D01*
X390801Y863965D02*
X392879Y863965D01*
X392879Y866581D02*
X390801Y866581D01*
X397879Y868379D02*
X397879Y853501D01*
X395801Y853501D01*
X395801Y868379D01*
X397879Y868379D01*
X397879Y856117D02*
X395801Y856117D01*
X395801Y858733D02*
X397879Y858733D01*
X397879Y861349D02*
X395801Y861349D01*
X395801Y863965D02*
X397879Y863965D01*
X397879Y866581D02*
X395801Y866581D01*
X402879Y868379D02*
X402879Y853501D01*
X400801Y853501D01*
X400801Y868379D01*
X402879Y868379D01*
X402879Y856117D02*
X400801Y856117D01*
X400801Y858733D02*
X402879Y858733D01*
X402879Y861349D02*
X400801Y861349D01*
X400801Y863965D02*
X402879Y863965D01*
X402879Y866581D02*
X400801Y866581D01*
X407879Y868379D02*
X407879Y853501D01*
X405801Y853501D01*
X405801Y868379D01*
X407879Y868379D01*
X407879Y856117D02*
X405801Y856117D01*
X405801Y858733D02*
X407879Y858733D01*
X407879Y861349D02*
X405801Y861349D01*
X405801Y863965D02*
X407879Y863965D01*
X407879Y866581D02*
X405801Y866581D01*
X412879Y868379D02*
X412879Y853501D01*
X410801Y853501D01*
X410801Y868379D01*
X412879Y868379D01*
X412879Y856117D02*
X410801Y856117D01*
X410801Y858733D02*
X412879Y858733D01*
X412879Y861349D02*
X410801Y861349D01*
X410801Y863965D02*
X412879Y863965D01*
X412879Y866581D02*
X410801Y866581D01*
X417879Y868379D02*
X417879Y853501D01*
X415801Y853501D01*
X415801Y868379D01*
X417879Y868379D01*
X417879Y856117D02*
X415801Y856117D01*
X415801Y858733D02*
X417879Y858733D01*
X417879Y861349D02*
X415801Y861349D01*
X415801Y863965D02*
X417879Y863965D01*
X417879Y866581D02*
X415801Y866581D01*
X422879Y868379D02*
X422879Y853501D01*
X420801Y853501D01*
X420801Y868379D01*
X422879Y868379D01*
X422879Y856117D02*
X420801Y856117D01*
X420801Y858733D02*
X422879Y858733D01*
X422879Y861349D02*
X420801Y861349D01*
X420801Y863965D02*
X422879Y863965D01*
X422879Y866581D02*
X420801Y866581D01*
X427879Y868379D02*
X427879Y853501D01*
X425801Y853501D01*
X425801Y868379D01*
X427879Y868379D01*
X427879Y856117D02*
X425801Y856117D01*
X425801Y858733D02*
X427879Y858733D01*
X427879Y861349D02*
X425801Y861349D01*
X425801Y863965D02*
X427879Y863965D01*
X427879Y866581D02*
X425801Y866581D01*
X432879Y868379D02*
X432879Y853501D01*
X430801Y853501D01*
X430801Y868379D01*
X432879Y868379D01*
X432879Y856117D02*
X430801Y856117D01*
X430801Y858733D02*
X432879Y858733D01*
X432879Y861349D02*
X430801Y861349D01*
X430801Y863965D02*
X432879Y863965D01*
X432879Y866581D02*
X430801Y866581D01*
X437879Y868379D02*
X437879Y853501D01*
X435801Y853501D01*
X435801Y868379D01*
X437879Y868379D01*
X437879Y856117D02*
X435801Y856117D01*
X435801Y858733D02*
X437879Y858733D01*
X437879Y861349D02*
X435801Y861349D01*
X435801Y863965D02*
X437879Y863965D01*
X437879Y866581D02*
X435801Y866581D01*
X442879Y868379D02*
X442879Y853501D01*
X440801Y853501D01*
X440801Y868379D01*
X442879Y868379D01*
X442879Y856117D02*
X440801Y856117D01*
X440801Y858733D02*
X442879Y858733D01*
X442879Y861349D02*
X440801Y861349D01*
X440801Y863965D02*
X442879Y863965D01*
X442879Y866581D02*
X440801Y866581D01*
X447879Y868379D02*
X447879Y853501D01*
X445801Y853501D01*
X445801Y868379D01*
X447879Y868379D01*
X447879Y856117D02*
X445801Y856117D01*
X445801Y858733D02*
X447879Y858733D01*
X447879Y861349D02*
X445801Y861349D01*
X445801Y863965D02*
X447879Y863965D01*
X447879Y866581D02*
X445801Y866581D01*
X452879Y868379D02*
X452879Y853501D01*
X450801Y853501D01*
X450801Y868379D01*
X452879Y868379D01*
X452879Y856117D02*
X450801Y856117D01*
X450801Y858733D02*
X452879Y858733D01*
X452879Y861349D02*
X450801Y861349D01*
X450801Y863965D02*
X452879Y863965D01*
X452879Y866581D02*
X450801Y866581D01*
X457879Y868379D02*
X457879Y853501D01*
X455801Y853501D01*
X455801Y868379D01*
X457879Y868379D01*
X457879Y856117D02*
X455801Y856117D01*
X455801Y858733D02*
X457879Y858733D01*
X457879Y861349D02*
X455801Y861349D01*
X455801Y863965D02*
X457879Y863965D01*
X457879Y866581D02*
X455801Y866581D01*
X462879Y868379D02*
X462879Y853501D01*
X460801Y853501D01*
X460801Y868379D01*
X462879Y868379D01*
X462879Y856117D02*
X460801Y856117D01*
X460801Y858733D02*
X462879Y858733D01*
X462879Y861349D02*
X460801Y861349D01*
X460801Y863965D02*
X462879Y863965D01*
X462879Y866581D02*
X460801Y866581D01*
X467879Y868379D02*
X467879Y853501D01*
X465801Y853501D01*
X465801Y868379D01*
X467879Y868379D01*
X467879Y856117D02*
X465801Y856117D01*
X465801Y858733D02*
X467879Y858733D01*
X467879Y861349D02*
X465801Y861349D01*
X465801Y863965D02*
X467879Y863965D01*
X467879Y866581D02*
X465801Y866581D01*
X472879Y868379D02*
X472879Y853501D01*
X470801Y853501D01*
X470801Y868379D01*
X472879Y868379D01*
X472879Y856117D02*
X470801Y856117D01*
X470801Y858733D02*
X472879Y858733D01*
X472879Y861349D02*
X470801Y861349D01*
X470801Y863965D02*
X472879Y863965D01*
X472879Y866581D02*
X470801Y866581D01*
X477879Y868379D02*
X477879Y853501D01*
X475801Y853501D01*
X475801Y868379D01*
X477879Y868379D01*
X477879Y856117D02*
X475801Y856117D01*
X475801Y858733D02*
X477879Y858733D01*
X477879Y861349D02*
X475801Y861349D01*
X475801Y863965D02*
X477879Y863965D01*
X477879Y866581D02*
X475801Y866581D01*
X482879Y868379D02*
X482879Y853501D01*
X480801Y853501D01*
X480801Y868379D01*
X482879Y868379D01*
X482879Y856117D02*
X480801Y856117D01*
X480801Y858733D02*
X482879Y858733D01*
X482879Y861349D02*
X480801Y861349D01*
X480801Y863965D02*
X482879Y863965D01*
X482879Y866581D02*
X480801Y866581D01*
X487879Y868379D02*
X487879Y853501D01*
X485801Y853501D01*
X485801Y868379D01*
X487879Y868379D01*
X487879Y856117D02*
X485801Y856117D01*
X485801Y858733D02*
X487879Y858733D01*
X487879Y861349D02*
X485801Y861349D01*
X485801Y863965D02*
X487879Y863965D01*
X487879Y866581D02*
X485801Y866581D01*
X492879Y868379D02*
X492879Y853501D01*
X490801Y853501D01*
X490801Y868379D01*
X492879Y868379D01*
X492879Y856117D02*
X490801Y856117D01*
X490801Y858733D02*
X492879Y858733D01*
X492879Y861349D02*
X490801Y861349D01*
X490801Y863965D02*
X492879Y863965D01*
X492879Y866581D02*
X490801Y866581D01*
X497879Y868379D02*
X497879Y853501D01*
X495801Y853501D01*
X495801Y868379D01*
X497879Y868379D01*
X497879Y856117D02*
X495801Y856117D01*
X495801Y858733D02*
X497879Y858733D01*
X497879Y861349D02*
X495801Y861349D01*
X495801Y863965D02*
X497879Y863965D01*
X497879Y866581D02*
X495801Y866581D01*
X502879Y868379D02*
X502879Y853501D01*
X500801Y853501D01*
X500801Y868379D01*
X502879Y868379D01*
X502879Y856117D02*
X500801Y856117D01*
X500801Y858733D02*
X502879Y858733D01*
X502879Y861349D02*
X500801Y861349D01*
X500801Y863965D02*
X502879Y863965D01*
X502879Y866581D02*
X500801Y866581D01*
X507879Y868379D02*
X507879Y853501D01*
X505801Y853501D01*
X505801Y868379D01*
X507879Y868379D01*
X507879Y856117D02*
X505801Y856117D01*
X505801Y858733D02*
X507879Y858733D01*
X507879Y861349D02*
X505801Y861349D01*
X505801Y863965D02*
X507879Y863965D01*
X507879Y866581D02*
X505801Y866581D01*
X512879Y868379D02*
X512879Y853501D01*
X510801Y853501D01*
X510801Y868379D01*
X512879Y868379D01*
X512879Y856117D02*
X510801Y856117D01*
X510801Y858733D02*
X512879Y858733D01*
X512879Y861349D02*
X510801Y861349D01*
X510801Y863965D02*
X512879Y863965D01*
X512879Y866581D02*
X510801Y866581D01*
X517879Y868379D02*
X517879Y853501D01*
X515801Y853501D01*
X515801Y868379D01*
X517879Y868379D01*
X517879Y856117D02*
X515801Y856117D01*
X515801Y858733D02*
X517879Y858733D01*
X517879Y861349D02*
X515801Y861349D01*
X515801Y863965D02*
X517879Y863965D01*
X517879Y866581D02*
X515801Y866581D01*
X522879Y868379D02*
X522879Y853501D01*
X520801Y853501D01*
X520801Y868379D01*
X522879Y868379D01*
X522879Y856117D02*
X520801Y856117D01*
X520801Y858733D02*
X522879Y858733D01*
X522879Y861349D02*
X520801Y861349D01*
X520801Y863965D02*
X522879Y863965D01*
X522879Y866581D02*
X520801Y866581D01*
X522879Y1067101D02*
X522879Y1081979D01*
X522879Y1067101D02*
X520801Y1067101D01*
X520801Y1081979D01*
X522879Y1081979D01*
X522879Y1069717D02*
X520801Y1069717D01*
X520801Y1072333D02*
X522879Y1072333D01*
X522879Y1074949D02*
X520801Y1074949D01*
X520801Y1077565D02*
X522879Y1077565D01*
X522879Y1080181D02*
X520801Y1080181D01*
X517879Y1081979D02*
X517879Y1067101D01*
X515801Y1067101D01*
X515801Y1081979D01*
X517879Y1081979D01*
X517879Y1069717D02*
X515801Y1069717D01*
X515801Y1072333D02*
X517879Y1072333D01*
X517879Y1074949D02*
X515801Y1074949D01*
X515801Y1077565D02*
X517879Y1077565D01*
X517879Y1080181D02*
X515801Y1080181D01*
X512879Y1081979D02*
X512879Y1067101D01*
X510801Y1067101D01*
X510801Y1081979D01*
X512879Y1081979D01*
X512879Y1069717D02*
X510801Y1069717D01*
X510801Y1072333D02*
X512879Y1072333D01*
X512879Y1074949D02*
X510801Y1074949D01*
X510801Y1077565D02*
X512879Y1077565D01*
X512879Y1080181D02*
X510801Y1080181D01*
X507879Y1081979D02*
X507879Y1067101D01*
X505801Y1067101D01*
X505801Y1081979D01*
X507879Y1081979D01*
X507879Y1069717D02*
X505801Y1069717D01*
X505801Y1072333D02*
X507879Y1072333D01*
X507879Y1074949D02*
X505801Y1074949D01*
X505801Y1077565D02*
X507879Y1077565D01*
X507879Y1080181D02*
X505801Y1080181D01*
X502879Y1081979D02*
X502879Y1067101D01*
X500801Y1067101D01*
X500801Y1081979D01*
X502879Y1081979D01*
X502879Y1069717D02*
X500801Y1069717D01*
X500801Y1072333D02*
X502879Y1072333D01*
X502879Y1074949D02*
X500801Y1074949D01*
X500801Y1077565D02*
X502879Y1077565D01*
X502879Y1080181D02*
X500801Y1080181D01*
X497879Y1081979D02*
X497879Y1067101D01*
X495801Y1067101D01*
X495801Y1081979D01*
X497879Y1081979D01*
X497879Y1069717D02*
X495801Y1069717D01*
X495801Y1072333D02*
X497879Y1072333D01*
X497879Y1074949D02*
X495801Y1074949D01*
X495801Y1077565D02*
X497879Y1077565D01*
X497879Y1080181D02*
X495801Y1080181D01*
X492879Y1081979D02*
X492879Y1067101D01*
X490801Y1067101D01*
X490801Y1081979D01*
X492879Y1081979D01*
X492879Y1069717D02*
X490801Y1069717D01*
X490801Y1072333D02*
X492879Y1072333D01*
X492879Y1074949D02*
X490801Y1074949D01*
X490801Y1077565D02*
X492879Y1077565D01*
X492879Y1080181D02*
X490801Y1080181D01*
X487879Y1081979D02*
X487879Y1067101D01*
X485801Y1067101D01*
X485801Y1081979D01*
X487879Y1081979D01*
X487879Y1069717D02*
X485801Y1069717D01*
X485801Y1072333D02*
X487879Y1072333D01*
X487879Y1074949D02*
X485801Y1074949D01*
X485801Y1077565D02*
X487879Y1077565D01*
X487879Y1080181D02*
X485801Y1080181D01*
X482879Y1081979D02*
X482879Y1067101D01*
X480801Y1067101D01*
X480801Y1081979D01*
X482879Y1081979D01*
X482879Y1069717D02*
X480801Y1069717D01*
X480801Y1072333D02*
X482879Y1072333D01*
X482879Y1074949D02*
X480801Y1074949D01*
X480801Y1077565D02*
X482879Y1077565D01*
X482879Y1080181D02*
X480801Y1080181D01*
X477879Y1081979D02*
X477879Y1067101D01*
X475801Y1067101D01*
X475801Y1081979D01*
X477879Y1081979D01*
X477879Y1069717D02*
X475801Y1069717D01*
X475801Y1072333D02*
X477879Y1072333D01*
X477879Y1074949D02*
X475801Y1074949D01*
X475801Y1077565D02*
X477879Y1077565D01*
X477879Y1080181D02*
X475801Y1080181D01*
X472879Y1081979D02*
X472879Y1067101D01*
X470801Y1067101D01*
X470801Y1081979D01*
X472879Y1081979D01*
X472879Y1069717D02*
X470801Y1069717D01*
X470801Y1072333D02*
X472879Y1072333D01*
X472879Y1074949D02*
X470801Y1074949D01*
X470801Y1077565D02*
X472879Y1077565D01*
X472879Y1080181D02*
X470801Y1080181D01*
X467879Y1081979D02*
X467879Y1067101D01*
X465801Y1067101D01*
X465801Y1081979D01*
X467879Y1081979D01*
X467879Y1069717D02*
X465801Y1069717D01*
X465801Y1072333D02*
X467879Y1072333D01*
X467879Y1074949D02*
X465801Y1074949D01*
X465801Y1077565D02*
X467879Y1077565D01*
X467879Y1080181D02*
X465801Y1080181D01*
X462879Y1081979D02*
X462879Y1067101D01*
X460801Y1067101D01*
X460801Y1081979D01*
X462879Y1081979D01*
X462879Y1069717D02*
X460801Y1069717D01*
X460801Y1072333D02*
X462879Y1072333D01*
X462879Y1074949D02*
X460801Y1074949D01*
X460801Y1077565D02*
X462879Y1077565D01*
X462879Y1080181D02*
X460801Y1080181D01*
X457879Y1081979D02*
X457879Y1067101D01*
X455801Y1067101D01*
X455801Y1081979D01*
X457879Y1081979D01*
X457879Y1069717D02*
X455801Y1069717D01*
X455801Y1072333D02*
X457879Y1072333D01*
X457879Y1074949D02*
X455801Y1074949D01*
X455801Y1077565D02*
X457879Y1077565D01*
X457879Y1080181D02*
X455801Y1080181D01*
X452879Y1081979D02*
X452879Y1067101D01*
X450801Y1067101D01*
X450801Y1081979D01*
X452879Y1081979D01*
X452879Y1069717D02*
X450801Y1069717D01*
X450801Y1072333D02*
X452879Y1072333D01*
X452879Y1074949D02*
X450801Y1074949D01*
X450801Y1077565D02*
X452879Y1077565D01*
X452879Y1080181D02*
X450801Y1080181D01*
X447879Y1081979D02*
X447879Y1067101D01*
X445801Y1067101D01*
X445801Y1081979D01*
X447879Y1081979D01*
X447879Y1069717D02*
X445801Y1069717D01*
X445801Y1072333D02*
X447879Y1072333D01*
X447879Y1074949D02*
X445801Y1074949D01*
X445801Y1077565D02*
X447879Y1077565D01*
X447879Y1080181D02*
X445801Y1080181D01*
X442879Y1081979D02*
X442879Y1067101D01*
X440801Y1067101D01*
X440801Y1081979D01*
X442879Y1081979D01*
X442879Y1069717D02*
X440801Y1069717D01*
X440801Y1072333D02*
X442879Y1072333D01*
X442879Y1074949D02*
X440801Y1074949D01*
X440801Y1077565D02*
X442879Y1077565D01*
X442879Y1080181D02*
X440801Y1080181D01*
X437879Y1081979D02*
X437879Y1067101D01*
X435801Y1067101D01*
X435801Y1081979D01*
X437879Y1081979D01*
X437879Y1069717D02*
X435801Y1069717D01*
X435801Y1072333D02*
X437879Y1072333D01*
X437879Y1074949D02*
X435801Y1074949D01*
X435801Y1077565D02*
X437879Y1077565D01*
X437879Y1080181D02*
X435801Y1080181D01*
X432879Y1081979D02*
X432879Y1067101D01*
X430801Y1067101D01*
X430801Y1081979D01*
X432879Y1081979D01*
X432879Y1069717D02*
X430801Y1069717D01*
X430801Y1072333D02*
X432879Y1072333D01*
X432879Y1074949D02*
X430801Y1074949D01*
X430801Y1077565D02*
X432879Y1077565D01*
X432879Y1080181D02*
X430801Y1080181D01*
X427879Y1081979D02*
X427879Y1067101D01*
X425801Y1067101D01*
X425801Y1081979D01*
X427879Y1081979D01*
X427879Y1069717D02*
X425801Y1069717D01*
X425801Y1072333D02*
X427879Y1072333D01*
X427879Y1074949D02*
X425801Y1074949D01*
X425801Y1077565D02*
X427879Y1077565D01*
X427879Y1080181D02*
X425801Y1080181D01*
X422879Y1081979D02*
X422879Y1067101D01*
X420801Y1067101D01*
X420801Y1081979D01*
X422879Y1081979D01*
X422879Y1069717D02*
X420801Y1069717D01*
X420801Y1072333D02*
X422879Y1072333D01*
X422879Y1074949D02*
X420801Y1074949D01*
X420801Y1077565D02*
X422879Y1077565D01*
X422879Y1080181D02*
X420801Y1080181D01*
X417879Y1081979D02*
X417879Y1067101D01*
X415801Y1067101D01*
X415801Y1081979D01*
X417879Y1081979D01*
X417879Y1069717D02*
X415801Y1069717D01*
X415801Y1072333D02*
X417879Y1072333D01*
X417879Y1074949D02*
X415801Y1074949D01*
X415801Y1077565D02*
X417879Y1077565D01*
X417879Y1080181D02*
X415801Y1080181D01*
X412879Y1081979D02*
X412879Y1067101D01*
X410801Y1067101D01*
X410801Y1081979D01*
X412879Y1081979D01*
X412879Y1069717D02*
X410801Y1069717D01*
X410801Y1072333D02*
X412879Y1072333D01*
X412879Y1074949D02*
X410801Y1074949D01*
X410801Y1077565D02*
X412879Y1077565D01*
X412879Y1080181D02*
X410801Y1080181D01*
X407879Y1081979D02*
X407879Y1067101D01*
X405801Y1067101D01*
X405801Y1081979D01*
X407879Y1081979D01*
X407879Y1069717D02*
X405801Y1069717D01*
X405801Y1072333D02*
X407879Y1072333D01*
X407879Y1074949D02*
X405801Y1074949D01*
X405801Y1077565D02*
X407879Y1077565D01*
X407879Y1080181D02*
X405801Y1080181D01*
X402879Y1081979D02*
X402879Y1067101D01*
X400801Y1067101D01*
X400801Y1081979D01*
X402879Y1081979D01*
X402879Y1069717D02*
X400801Y1069717D01*
X400801Y1072333D02*
X402879Y1072333D01*
X402879Y1074949D02*
X400801Y1074949D01*
X400801Y1077565D02*
X402879Y1077565D01*
X402879Y1080181D02*
X400801Y1080181D01*
X397879Y1081979D02*
X397879Y1067101D01*
X395801Y1067101D01*
X395801Y1081979D01*
X397879Y1081979D01*
X397879Y1069717D02*
X395801Y1069717D01*
X395801Y1072333D02*
X397879Y1072333D01*
X397879Y1074949D02*
X395801Y1074949D01*
X395801Y1077565D02*
X397879Y1077565D01*
X397879Y1080181D02*
X395801Y1080181D01*
X392879Y1081979D02*
X392879Y1067101D01*
X390801Y1067101D01*
X390801Y1081979D01*
X392879Y1081979D01*
X392879Y1069717D02*
X390801Y1069717D01*
X390801Y1072333D02*
X392879Y1072333D01*
X392879Y1074949D02*
X390801Y1074949D01*
X390801Y1077565D02*
X392879Y1077565D01*
X392879Y1080181D02*
X390801Y1080181D01*
X387879Y1081979D02*
X387879Y1067101D01*
X385801Y1067101D01*
X385801Y1081979D01*
X387879Y1081979D01*
X387879Y1069717D02*
X385801Y1069717D01*
X385801Y1072333D02*
X387879Y1072333D01*
X387879Y1074949D02*
X385801Y1074949D01*
X385801Y1077565D02*
X387879Y1077565D01*
X387879Y1080181D02*
X385801Y1080181D01*
X382879Y1081979D02*
X382879Y1067101D01*
X380801Y1067101D01*
X380801Y1081979D01*
X382879Y1081979D01*
X382879Y1069717D02*
X380801Y1069717D01*
X380801Y1072333D02*
X382879Y1072333D01*
X382879Y1074949D02*
X380801Y1074949D01*
X380801Y1077565D02*
X382879Y1077565D01*
X382879Y1080181D02*
X380801Y1080181D01*
X377879Y1081979D02*
X377879Y1067101D01*
X375801Y1067101D01*
X375801Y1081979D01*
X377879Y1081979D01*
X377879Y1069717D02*
X375801Y1069717D01*
X375801Y1072333D02*
X377879Y1072333D01*
X377879Y1074949D02*
X375801Y1074949D01*
X375801Y1077565D02*
X377879Y1077565D01*
X377879Y1080181D02*
X375801Y1080181D01*
X372879Y1081979D02*
X372879Y1067101D01*
X370801Y1067101D01*
X370801Y1081979D01*
X372879Y1081979D01*
X372879Y1069717D02*
X370801Y1069717D01*
X370801Y1072333D02*
X372879Y1072333D01*
X372879Y1074949D02*
X370801Y1074949D01*
X370801Y1077565D02*
X372879Y1077565D01*
X372879Y1080181D02*
X370801Y1080181D01*
X367879Y1081979D02*
X367879Y1067101D01*
X365801Y1067101D01*
X365801Y1081979D01*
X367879Y1081979D01*
X367879Y1069717D02*
X365801Y1069717D01*
X365801Y1072333D02*
X367879Y1072333D01*
X367879Y1074949D02*
X365801Y1074949D01*
X365801Y1077565D02*
X367879Y1077565D01*
X367879Y1080181D02*
X365801Y1080181D01*
X362879Y1081979D02*
X362879Y1067101D01*
X360801Y1067101D01*
X360801Y1081979D01*
X362879Y1081979D01*
X362879Y1069717D02*
X360801Y1069717D01*
X360801Y1072333D02*
X362879Y1072333D01*
X362879Y1074949D02*
X360801Y1074949D01*
X360801Y1077565D02*
X362879Y1077565D01*
X362879Y1080181D02*
X360801Y1080181D01*
X357879Y1081979D02*
X357879Y1067101D01*
X355801Y1067101D01*
X355801Y1081979D01*
X357879Y1081979D01*
X357879Y1069717D02*
X355801Y1069717D01*
X355801Y1072333D02*
X357879Y1072333D01*
X357879Y1074949D02*
X355801Y1074949D01*
X355801Y1077565D02*
X357879Y1077565D01*
X357879Y1080181D02*
X355801Y1080181D01*
X352879Y1081979D02*
X352879Y1067101D01*
X350801Y1067101D01*
X350801Y1081979D01*
X352879Y1081979D01*
X352879Y1069717D02*
X350801Y1069717D01*
X350801Y1072333D02*
X352879Y1072333D01*
X352879Y1074949D02*
X350801Y1074949D01*
X350801Y1077565D02*
X352879Y1077565D01*
X352879Y1080181D02*
X350801Y1080181D01*
X347879Y1081979D02*
X347879Y1067101D01*
X345801Y1067101D01*
X345801Y1081979D01*
X347879Y1081979D01*
X347879Y1069717D02*
X345801Y1069717D01*
X345801Y1072333D02*
X347879Y1072333D01*
X347879Y1074949D02*
X345801Y1074949D01*
X345801Y1077565D02*
X347879Y1077565D01*
X347879Y1080181D02*
X345801Y1080181D01*
X334979Y1054201D02*
X320101Y1054201D01*
X320101Y1056279D01*
X334979Y1056279D01*
X334979Y1054201D01*
X334979Y1049201D02*
X320101Y1049201D01*
X320101Y1051279D01*
X334979Y1051279D01*
X334979Y1049201D01*
X334979Y1044201D02*
X320101Y1044201D01*
X320101Y1046279D01*
X334979Y1046279D01*
X334979Y1044201D01*
X334979Y1039201D02*
X320101Y1039201D01*
X320101Y1041279D01*
X334979Y1041279D01*
X334979Y1039201D01*
X334979Y1034201D02*
X320101Y1034201D01*
X320101Y1036279D01*
X334979Y1036279D01*
X334979Y1034201D01*
X334979Y1029201D02*
X320101Y1029201D01*
X320101Y1031279D01*
X334979Y1031279D01*
X334979Y1029201D01*
X334979Y1024201D02*
X320101Y1024201D01*
X320101Y1026279D01*
X334979Y1026279D01*
X334979Y1024201D01*
X334979Y1019201D02*
X320101Y1019201D01*
X320101Y1021279D01*
X334979Y1021279D01*
X334979Y1019201D01*
X334979Y1014201D02*
X320101Y1014201D01*
X320101Y1016279D01*
X334979Y1016279D01*
X334979Y1014201D01*
X334979Y1009201D02*
X320101Y1009201D01*
X320101Y1011279D01*
X334979Y1011279D01*
X334979Y1009201D01*
X334979Y1004201D02*
X320101Y1004201D01*
X320101Y1006279D01*
X334979Y1006279D01*
X334979Y1004201D01*
X334979Y999201D02*
X320101Y999201D01*
X320101Y1001279D01*
X334979Y1001279D01*
X334979Y999201D01*
X334979Y994201D02*
X320101Y994201D01*
X320101Y996279D01*
X334979Y996279D01*
X334979Y994201D01*
X334979Y989201D02*
X320101Y989201D01*
X320101Y991279D01*
X334979Y991279D01*
X334979Y989201D01*
X334979Y984201D02*
X320101Y984201D01*
X320101Y986279D01*
X334979Y986279D01*
X334979Y984201D01*
X334979Y979201D02*
X320101Y979201D01*
X320101Y981279D01*
X334979Y981279D01*
X334979Y979201D01*
X334979Y974201D02*
X320101Y974201D01*
X320101Y976279D01*
X334979Y976279D01*
X334979Y974201D01*
X334979Y969201D02*
X320101Y969201D01*
X320101Y971279D01*
X334979Y971279D01*
X334979Y969201D01*
X334979Y964201D02*
X320101Y964201D01*
X320101Y966279D01*
X334979Y966279D01*
X334979Y964201D01*
X334979Y959201D02*
X320101Y959201D01*
X320101Y961279D01*
X334979Y961279D01*
X334979Y959201D01*
X334979Y954201D02*
X320101Y954201D01*
X320101Y956279D01*
X334979Y956279D01*
X334979Y954201D01*
X334979Y949201D02*
X320101Y949201D01*
X320101Y951279D01*
X334979Y951279D01*
X334979Y949201D01*
X334979Y944201D02*
X320101Y944201D01*
X320101Y946279D01*
X334979Y946279D01*
X334979Y944201D01*
X334979Y939201D02*
X320101Y939201D01*
X320101Y941279D01*
X334979Y941279D01*
X334979Y939201D01*
X334979Y934201D02*
X320101Y934201D01*
X320101Y936279D01*
X334979Y936279D01*
X334979Y934201D01*
X334979Y929201D02*
X320101Y929201D01*
X320101Y931279D01*
X334979Y931279D01*
X334979Y929201D01*
X334979Y924201D02*
X320101Y924201D01*
X320101Y926279D01*
X334979Y926279D01*
X334979Y924201D01*
X334979Y919201D02*
X320101Y919201D01*
X320101Y921279D01*
X334979Y921279D01*
X334979Y919201D01*
X334979Y914201D02*
X320101Y914201D01*
X320101Y916279D01*
X334979Y916279D01*
X334979Y914201D01*
X334979Y909201D02*
X320101Y909201D01*
X320101Y911279D01*
X334979Y911279D01*
X334979Y909201D01*
X334979Y904201D02*
X320101Y904201D01*
X320101Y906279D01*
X334979Y906279D01*
X334979Y904201D01*
X334979Y899201D02*
X320101Y899201D01*
X320101Y901279D01*
X334979Y901279D01*
X334979Y899201D01*
X334979Y894201D02*
X320101Y894201D01*
X320101Y896279D01*
X334979Y896279D01*
X334979Y894201D01*
X334979Y889201D02*
X320101Y889201D01*
X320101Y891279D01*
X334979Y891279D01*
X334979Y889201D01*
X334979Y884201D02*
X320101Y884201D01*
X320101Y886279D01*
X334979Y886279D01*
X334979Y884201D01*
X334979Y879201D02*
X320101Y879201D01*
X320101Y881279D01*
X334979Y881279D01*
X334979Y879201D01*
X533701Y879201D02*
X548579Y879201D01*
X533701Y879201D02*
X533701Y881279D01*
X548579Y881279D01*
X548579Y879201D01*
X548579Y884201D02*
X533701Y884201D01*
X533701Y886279D01*
X548579Y886279D01*
X548579Y884201D01*
X548579Y889201D02*
X533701Y889201D01*
X533701Y891279D01*
X548579Y891279D01*
X548579Y889201D01*
X548579Y894201D02*
X533701Y894201D01*
X533701Y896279D01*
X548579Y896279D01*
X548579Y894201D01*
X548579Y899201D02*
X533701Y899201D01*
X533701Y901279D01*
X548579Y901279D01*
X548579Y899201D01*
X548579Y904201D02*
X533701Y904201D01*
X533701Y906279D01*
X548579Y906279D01*
X548579Y904201D01*
X548579Y909201D02*
X533701Y909201D01*
X533701Y911279D01*
X548579Y911279D01*
X548579Y909201D01*
X548579Y914201D02*
X533701Y914201D01*
X533701Y916279D01*
X548579Y916279D01*
X548579Y914201D01*
X548579Y919201D02*
X533701Y919201D01*
X533701Y921279D01*
X548579Y921279D01*
X548579Y919201D01*
X548579Y924201D02*
X533701Y924201D01*
X533701Y926279D01*
X548579Y926279D01*
X548579Y924201D01*
X548579Y929201D02*
X533701Y929201D01*
X533701Y931279D01*
X548579Y931279D01*
X548579Y929201D01*
X548579Y934201D02*
X533701Y934201D01*
X533701Y936279D01*
X548579Y936279D01*
X548579Y934201D01*
X548579Y939201D02*
X533701Y939201D01*
X533701Y941279D01*
X548579Y941279D01*
X548579Y939201D01*
X548579Y944201D02*
X533701Y944201D01*
X533701Y946279D01*
X548579Y946279D01*
X548579Y944201D01*
X548579Y949201D02*
X533701Y949201D01*
X533701Y951279D01*
X548579Y951279D01*
X548579Y949201D01*
X548579Y954201D02*
X533701Y954201D01*
X533701Y956279D01*
X548579Y956279D01*
X548579Y954201D01*
X548579Y959201D02*
X533701Y959201D01*
X533701Y961279D01*
X548579Y961279D01*
X548579Y959201D01*
X548579Y964201D02*
X533701Y964201D01*
X533701Y966279D01*
X548579Y966279D01*
X548579Y964201D01*
X548579Y969201D02*
X533701Y969201D01*
X533701Y971279D01*
X548579Y971279D01*
X548579Y969201D01*
X548579Y974201D02*
X533701Y974201D01*
X533701Y976279D01*
X548579Y976279D01*
X548579Y974201D01*
X548579Y979201D02*
X533701Y979201D01*
X533701Y981279D01*
X548579Y981279D01*
X548579Y979201D01*
X548579Y984201D02*
X533701Y984201D01*
X533701Y986279D01*
X548579Y986279D01*
X548579Y984201D01*
X548579Y989201D02*
X533701Y989201D01*
X533701Y991279D01*
X548579Y991279D01*
X548579Y989201D01*
X548579Y994201D02*
X533701Y994201D01*
X533701Y996279D01*
X548579Y996279D01*
X548579Y994201D01*
X548579Y999201D02*
X533701Y999201D01*
X533701Y1001279D01*
X548579Y1001279D01*
X548579Y999201D01*
X548579Y1004201D02*
X533701Y1004201D01*
X533701Y1006279D01*
X548579Y1006279D01*
X548579Y1004201D01*
X548579Y1009201D02*
X533701Y1009201D01*
X533701Y1011279D01*
X548579Y1011279D01*
X548579Y1009201D01*
X548579Y1014201D02*
X533701Y1014201D01*
X533701Y1016279D01*
X548579Y1016279D01*
X548579Y1014201D01*
X548579Y1019201D02*
X533701Y1019201D01*
X533701Y1021279D01*
X548579Y1021279D01*
X548579Y1019201D01*
X548579Y1024201D02*
X533701Y1024201D01*
X533701Y1026279D01*
X548579Y1026279D01*
X548579Y1024201D01*
X548579Y1029201D02*
X533701Y1029201D01*
X533701Y1031279D01*
X548579Y1031279D01*
X548579Y1029201D01*
X548579Y1034201D02*
X533701Y1034201D01*
X533701Y1036279D01*
X548579Y1036279D01*
X548579Y1034201D01*
X548579Y1039201D02*
X533701Y1039201D01*
X533701Y1041279D01*
X548579Y1041279D01*
X548579Y1039201D01*
X548579Y1044201D02*
X533701Y1044201D01*
X533701Y1046279D01*
X548579Y1046279D01*
X548579Y1044201D01*
X548579Y1049201D02*
X533701Y1049201D01*
X533701Y1051279D01*
X548579Y1051279D01*
X548579Y1049201D01*
X548579Y1054201D02*
X533701Y1054201D01*
X533701Y1056279D01*
X548579Y1056279D01*
X548579Y1054201D01*
D23*
X415140Y1102944D03*
X428140Y1102944D03*
D25*
X300600Y873760D03*
X283600Y873760D03*
D26*
X724820Y970280D03*
X686420Y970280D03*
X724820Y982980D03*
X686420Y982980D03*
X724820Y995680D03*
X686420Y995680D03*
X724820Y1008380D03*
X686420Y1008380D03*
X724820Y1021080D03*
X686420Y1021080D03*
D19*
X571500Y1063140D03*
X571500Y1050140D03*
D21*
X396240Y1096400D03*
X396240Y1113400D03*
D27*
X381120Y1132840D03*
X396120Y1132840D03*
D28*
X236220Y1018540D03*
D23*
X306220Y904240D03*
X293220Y904240D03*
X300886Y891540D03*
X287886Y891540D03*
D29*
X558800Y990560D03*
X558800Y985560D03*
X559054Y935442D03*
X559054Y930442D03*
D30*
X236220Y1043940D03*
D31*
X462320Y1089660D03*
X467320Y1089660D03*
X411774Y1089660D03*
X416774Y1089660D03*
D25*
X272660Y1043940D03*
X255660Y1043940D03*
D32*
X297170Y1036320D03*
X302270Y1036320D03*
X297170Y1046480D03*
X302270Y1046480D03*
X297170Y1026160D03*
X302270Y1026160D03*
X297170Y1056640D03*
X302270Y1056640D03*
D25*
X272660Y1023620D03*
X255660Y1023620D03*
X272660Y1064260D03*
X255660Y1064260D03*
D33*
X1986060Y1824880D03*
X2022060Y1824880D03*
X2022060Y1842880D03*
X1986060Y1842880D03*
X1899700Y1824880D03*
X1935700Y1824880D03*
X1935700Y1842880D03*
X1899700Y1842880D03*
X1813340Y1824880D03*
X1849340Y1824880D03*
X1849340Y1842880D03*
X1813340Y1842880D03*
X1724440Y1824880D03*
X1760440Y1824880D03*
X1760440Y1842880D03*
X1724440Y1842880D03*
X1638080Y1824880D03*
X1674080Y1824880D03*
X1674080Y1842880D03*
X1638080Y1842880D03*
X1549180Y1824880D03*
X1585180Y1824880D03*
X1585180Y1842880D03*
X1549180Y1842880D03*
X1462820Y1824880D03*
X1498820Y1824880D03*
X1498820Y1842880D03*
X1462820Y1842880D03*
X1373920Y1824880D03*
X1409920Y1824880D03*
X1409920Y1842880D03*
X1373920Y1842880D03*
X1287560Y1824880D03*
X1323560Y1824880D03*
X1323560Y1842880D03*
X1287560Y1842880D03*
X1201200Y1824880D03*
X1237200Y1824880D03*
X1237200Y1842880D03*
X1201200Y1842880D03*
X1112300Y1822340D03*
X1148300Y1822340D03*
X1148300Y1840340D03*
X1112300Y1840340D03*
X1025940Y1822340D03*
X1061940Y1822340D03*
X1061940Y1840340D03*
X1025940Y1840340D03*
D34*
X2037080Y1843508D03*
X2037080Y1859812D03*
X1968500Y1824252D03*
X1968500Y1807948D03*
X1950720Y1843508D03*
X1950720Y1859812D03*
X1879600Y1824252D03*
X1879600Y1807948D03*
X1869440Y1843508D03*
X1869440Y1859812D03*
X1795780Y1824252D03*
X1795780Y1807948D03*
D35*
X1494955Y2319020D03*
X1588605Y2319020D03*
D36*
X1516780Y2244020D03*
X1541780Y2244020D03*
X1566780Y2244020D03*
D35*
X1865795Y2324100D03*
X1959445Y2324100D03*
D36*
X1887620Y2249100D03*
X1912620Y2249100D03*
X1937620Y2249100D03*
D37*
X1823720Y336200D03*
X1823720Y297800D03*
X1811020Y336200D03*
X1811020Y297800D03*
X1798320Y336200D03*
X1798320Y297800D03*
X1785620Y336200D03*
X1785620Y297800D03*
X1772920Y336200D03*
X1772920Y297800D03*
D38*
X850900Y665480D03*
X825500Y665480D03*
X850900Y690880D03*
X825500Y690880D03*
X850900Y716280D03*
X825500Y716280D03*
X850900Y741680D03*
X825500Y741680D03*
X1661160Y668020D03*
X1635760Y668020D03*
X1661160Y693420D03*
X1635760Y693420D03*
X1661160Y718820D03*
X1635760Y718820D03*
X1661160Y744220D03*
X1635760Y744220D03*
X2026920Y1285240D03*
X2001520Y1285240D03*
X2026920Y1310640D03*
X2001520Y1310640D03*
X2026920Y1336040D03*
X2001520Y1336040D03*
X2026920Y1361440D03*
X2001520Y1361440D03*
X1511300Y589280D03*
X1485900Y589280D03*
X1511300Y614680D03*
X1485900Y614680D03*
X1511300Y640080D03*
X1485900Y640080D03*
X1511300Y665480D03*
X1485900Y665480D03*
X1511300Y690880D03*
X1485900Y690880D03*
X1511300Y716280D03*
X1485900Y716280D03*
X1511300Y741680D03*
X1485900Y741680D03*
X1511300Y767080D03*
X1485900Y767080D03*
X1511300Y792480D03*
X1485900Y792480D03*
X1511300Y817880D03*
X1485900Y817880D03*
X2321560Y591820D03*
X2296160Y591820D03*
X2321560Y617220D03*
X2296160Y617220D03*
X2321560Y642620D03*
X2296160Y642620D03*
X2321560Y668020D03*
X2296160Y668020D03*
X2321560Y693420D03*
X2296160Y693420D03*
X2321560Y718820D03*
X2296160Y718820D03*
X2321560Y744220D03*
X2296160Y744220D03*
X2321560Y769620D03*
X2296160Y769620D03*
X2321560Y795020D03*
X2296160Y795020D03*
X2321560Y820420D03*
X2296160Y820420D03*
X2687320Y1209040D03*
X2661920Y1209040D03*
X2687320Y1234440D03*
X2661920Y1234440D03*
X2687320Y1259840D03*
X2661920Y1259840D03*
X2687320Y1285240D03*
X2661920Y1285240D03*
X2687320Y1310640D03*
X2661920Y1310640D03*
X2687320Y1336040D03*
X2661920Y1336040D03*
X2687320Y1361440D03*
X2661920Y1361440D03*
X2687320Y1386840D03*
X2661920Y1386840D03*
X2687320Y1412240D03*
X2661920Y1412240D03*
X2687320Y1437640D03*
X2661920Y1437640D03*
D39*
X1079246Y474472D03*
X1079246Y499872D03*
X1104646Y474472D03*
X1104646Y499872D03*
X1130046Y474472D03*
X1130046Y499872D03*
X1155446Y474472D03*
X1155446Y499872D03*
X1180846Y474472D03*
X1180846Y499872D03*
X1206246Y474472D03*
X1206246Y499872D03*
X1231646Y474472D03*
X1231646Y499872D03*
X1257046Y474472D03*
X1257046Y499872D03*
X1282446Y474472D03*
X1282446Y499872D03*
X1307846Y474472D03*
X1307846Y499872D03*
X1333246Y474472D03*
X1333246Y499872D03*
X1358646Y474472D03*
X1358646Y499872D03*
X1384046Y474472D03*
X1384046Y499872D03*
X1409446Y474472D03*
X1409446Y499872D03*
X1434846Y474472D03*
X1434846Y499872D03*
X1889252Y477266D03*
X1889252Y502666D03*
X1914652Y477266D03*
X1914652Y502666D03*
X1940052Y477266D03*
X1940052Y502666D03*
X1965452Y477266D03*
X1965452Y502666D03*
X1990852Y477266D03*
X1990852Y502666D03*
X2016252Y477266D03*
X2016252Y502666D03*
X2041652Y477266D03*
X2041652Y502666D03*
X2067052Y477266D03*
X2067052Y502666D03*
X2092452Y477266D03*
X2092452Y502666D03*
X2117852Y477266D03*
X2117852Y502666D03*
X2143252Y477266D03*
X2143252Y502666D03*
X2168652Y477266D03*
X2168652Y502666D03*
X2194052Y477266D03*
X2194052Y502666D03*
X2219452Y477266D03*
X2219452Y502666D03*
X2244852Y477266D03*
X2244852Y502666D03*
X2254758Y1094486D03*
X2254758Y1119886D03*
X2280158Y1094486D03*
X2280158Y1119886D03*
X2305558Y1094486D03*
X2305558Y1119886D03*
X2330958Y1094486D03*
X2330958Y1119886D03*
X2356358Y1094486D03*
X2356358Y1119886D03*
X2381758Y1094486D03*
X2381758Y1119886D03*
X2407158Y1094486D03*
X2407158Y1119886D03*
X2432558Y1094486D03*
X2432558Y1119886D03*
X2457958Y1094486D03*
X2457958Y1119886D03*
X2483358Y1094486D03*
X2483358Y1119886D03*
X2508758Y1094486D03*
X2508758Y1119886D03*
X2534158Y1094486D03*
X2534158Y1119886D03*
X2559558Y1094486D03*
X2559558Y1119886D03*
X2584958Y1094486D03*
X2584958Y1119886D03*
X2610358Y1094486D03*
X2610358Y1119886D03*
D40*
X260000Y1713640D03*
X147000Y1713640D03*
X260000Y1776640D03*
X147000Y1776640D03*
X260000Y1650640D03*
X147000Y1650640D03*
D41*
X150500Y1744640D03*
X256500Y1744640D03*
D42*
X1384554Y2015744D03*
X1449578Y2015744D03*
X1384554Y1970532D03*
X1449578Y1970532D03*
X1546352Y2095500D03*
X1611376Y2095500D03*
X1546352Y2050288D03*
X1611376Y2050288D03*
X1730756Y2145792D03*
X1795780Y2145792D03*
X1730756Y2100580D03*
X1795780Y2100580D03*
X1933702Y2136394D03*
X1998726Y2136394D03*
X1933702Y2091182D03*
X1998726Y2091182D03*
X879602Y2270506D03*
X944626Y2270506D03*
X879602Y2225294D03*
X944626Y2225294D03*
X876808Y2122170D03*
X941832Y2122170D03*
X876808Y2076958D03*
X941832Y2076958D03*
X934212Y2195576D03*
X999236Y2195576D03*
X934212Y2150364D03*
X999236Y2150364D03*
X825246Y2196084D03*
X890270Y2196084D03*
X825246Y2150872D03*
X890270Y2150872D03*
X799592Y2002536D03*
X864616Y2002536D03*
X799592Y1957324D03*
X864616Y1957324D03*
X1123950Y2037334D03*
X1188974Y2037334D03*
X1123950Y1992122D03*
X1188974Y1992122D03*
X1163574Y2148840D03*
X1228598Y2148840D03*
X1163574Y2103628D03*
X1228598Y2103628D03*
D43*
X1531620Y1419380D03*
D44*
X1531620Y1399380D03*
X1531620Y1379380D03*
X1531620Y1359380D03*
D43*
X1600200Y1419380D03*
D44*
X1600200Y1399380D03*
X1600200Y1379380D03*
X1600200Y1359380D03*
D43*
X1668780Y1419380D03*
D44*
X1668780Y1399380D03*
X1668780Y1379380D03*
X1668780Y1359380D03*
D43*
X1737360Y1419380D03*
D44*
X1737360Y1399380D03*
X1737360Y1379380D03*
X1737360Y1359380D03*
D43*
X1805940Y1419380D03*
D44*
X1805940Y1399380D03*
X1805940Y1379380D03*
X1805940Y1359380D03*
D43*
X1231900Y1094740D03*
X1257300Y1094740D03*
X1308100Y1094740D03*
X1333500Y1094740D03*
X1358900Y1094740D03*
D45*
X1125220Y1115060D03*
X1137920Y1134110D03*
X1150620Y1115060D03*
X1132840Y1069340D03*
X1145540Y1088390D03*
X1158240Y1069340D03*
D46*
X914400Y1117600D02*
X914400Y1132840D01*
X939800Y1132840D02*
X939800Y1117600D01*
D44*
X492760Y1549400D03*
X467360Y1549400D03*
X441960Y1549400D03*
D47*
X181610Y331470D03*
X194310Y306070D03*
X207010Y331470D03*
X219710Y306070D03*
X232410Y331470D03*
X245110Y306070D03*
X257810Y331470D03*
X270510Y306070D03*
D48*
X168910Y394970D03*
X283210Y394970D03*
D49*
X147320Y356108D03*
X304800Y356108D03*
D34*
X1783080Y1843508D03*
X1783080Y1859812D03*
X1701800Y1824252D03*
X1701800Y1807948D03*
X1694180Y1846048D03*
X1694180Y1862352D03*
X1615440Y1821712D03*
X1615440Y1805408D03*
X1607820Y1843508D03*
X1607820Y1859812D03*
X1529080Y1819172D03*
X1529080Y1802868D03*
X1521460Y1843508D03*
X1521460Y1859812D03*
X1442720Y1819172D03*
X1442720Y1802868D03*
X1082040Y1840968D03*
X1082040Y1857272D03*
X1026160Y1798852D03*
X1026160Y1782548D03*
X1432560Y1840968D03*
X1432560Y1857272D03*
X1351280Y1824252D03*
X1351280Y1807948D03*
X1346200Y1840968D03*
X1346200Y1857272D03*
X1264920Y1824252D03*
X1264920Y1807948D03*
X1257300Y1843508D03*
X1257300Y1859812D03*
X1186180Y1834412D03*
X1186180Y1818108D03*
X1168400Y1840968D03*
X1168400Y1857272D03*
X1089660Y1824252D03*
X1089660Y1807948D03*
D23*
X425600Y835660D03*
X412600Y835660D03*
D19*
X299720Y973940D03*
X299720Y986940D03*
D23*
X539600Y840740D03*
X552600Y840740D03*
D19*
X345440Y1095860D03*
X345440Y1108860D03*
D31*
X471892Y844550D03*
X466892Y844550D03*
D29*
X556260Y1054060D03*
X556260Y1049060D03*
D31*
X421600Y845820D03*
X416600Y845820D03*
D29*
X309880Y975400D03*
X309880Y980400D03*
D31*
X356830Y846074D03*
X351830Y846074D03*
D19*
X571500Y994560D03*
X571500Y981560D03*
X574040Y938680D03*
X574040Y925680D03*
D23*
X478940Y833120D03*
X465940Y833120D03*
X362100Y835660D03*
X349100Y835660D03*
D50*
X1109679Y1797660D03*
X1109679Y1788160D03*
X1109679Y1778660D03*
X1135681Y1778660D03*
X1135681Y1797660D03*
D19*
X1076960Y1794660D03*
X1076960Y1781660D03*
X1092200Y1794660D03*
X1092200Y1781660D03*
D23*
X1159360Y1783080D03*
X1172360Y1783080D03*
X1159360Y1795780D03*
X1172360Y1795780D03*
D51*
X82550Y684022D03*
X88900Y684022D03*
X95250Y684022D03*
X101600Y684022D03*
X107950Y684022D03*
X114300Y684022D03*
X120650Y684022D03*
X82550Y738378D03*
X88900Y738378D03*
X95250Y738378D03*
X101600Y738378D03*
X107950Y738378D03*
X114300Y738378D03*
X120650Y738378D03*
D19*
X66040Y621180D03*
X66040Y608180D03*
D23*
X80160Y637540D03*
X67160Y637540D03*
D21*
X81280Y651900D03*
X81280Y668900D03*
D25*
X102480Y607060D03*
X85480Y607060D03*
D23*
X133500Y609600D03*
X120500Y609600D03*
D25*
X112640Y627380D03*
X95640Y627380D03*
D21*
X132080Y636660D03*
X132080Y653660D03*
D19*
X114300Y653900D03*
X114300Y666900D03*
D21*
X137160Y722240D03*
X137160Y705240D03*
D39*
X160020Y723900D03*
X160020Y698500D03*
X111760Y541020D03*
D19*
X129540Y580540D03*
X129540Y567540D03*
D23*
X125880Y820420D03*
X112880Y820420D03*
D21*
X114300Y773040D03*
X114300Y756040D03*
D25*
X110880Y805180D03*
X127880Y805180D03*
D19*
X91440Y808840D03*
X91440Y821840D03*
D21*
X137160Y773040D03*
X137160Y756040D03*
D25*
X72780Y789940D03*
X89780Y789940D03*
D19*
X86360Y771040D03*
X86360Y758040D03*
D21*
X63500Y724780D03*
X63500Y707780D03*
D39*
X60960Y744220D03*
X58420Y688340D03*
X111760Y566420D03*
D21*
X76200Y900820D03*
X76200Y917820D03*
X76200Y865260D03*
X76200Y882260D03*
D51*
X199390Y686562D03*
X205740Y686562D03*
X212090Y686562D03*
X218440Y686562D03*
X224790Y686562D03*
X231140Y686562D03*
X237490Y686562D03*
X199390Y740918D03*
X205740Y740918D03*
X212090Y740918D03*
X218440Y740918D03*
X224790Y740918D03*
X231140Y740918D03*
X237490Y740918D03*
D19*
X152400Y646580D03*
X152400Y633580D03*
X208280Y671980D03*
X208280Y658980D03*
D25*
X164220Y645160D03*
X181220Y645160D03*
X239640Y622300D03*
X222640Y622300D03*
D23*
X244960Y640080D03*
X257960Y640080D03*
D21*
X185420Y664600D03*
X185420Y681600D03*
X248920Y676520D03*
X248920Y659520D03*
D19*
X266700Y671680D03*
X266700Y684680D03*
D21*
X254000Y722240D03*
X254000Y705240D03*
D39*
X276860Y728980D03*
X276860Y703580D03*
X154940Y614680D03*
D23*
X207160Y612140D03*
X194160Y612140D03*
X207160Y767080D03*
X194160Y767080D03*
D25*
X187080Y787400D03*
X204080Y787400D03*
X244720Y797560D03*
X227720Y797560D03*
D19*
X264160Y785980D03*
X264160Y798980D03*
D21*
X241300Y775580D03*
X241300Y758580D03*
X266700Y767960D03*
X266700Y750960D03*
D19*
X180340Y753260D03*
X180340Y740260D03*
D21*
X182880Y722240D03*
X182880Y705240D03*
D39*
X160020Y749300D03*
X160020Y673100D03*
X180340Y614680D03*
D19*
X223520Y666900D03*
X223520Y653900D03*
X220980Y768500D03*
X220980Y755500D03*
D52*
X94640Y907140D03*
X113640Y907140D03*
X94640Y881020D03*
X104140Y881020D03*
X113640Y881020D03*
D23*
X97640Y922020D03*
X110640Y922020D03*
X120800Y861060D03*
X107800Y861060D03*
D19*
X101600Y666900D03*
X101600Y653900D03*
X99060Y768500D03*
X99060Y755500D03*
X1094740Y1121260D03*
X1094740Y1134260D03*
D23*
X1139040Y1036320D03*
X1152040Y1036320D03*
X1327300Y1122680D03*
X1314300Y1122680D03*
X1357780Y1122680D03*
X1344780Y1122680D03*
D29*
X1104900Y1125260D03*
X1104900Y1130260D03*
D31*
X1143040Y1046480D03*
X1148040Y1046480D03*
X1348700Y1112520D03*
X1343700Y1112520D03*
X1325840Y1112520D03*
X1320840Y1112520D03*
D23*
X1029820Y1064260D03*
X1042820Y1064260D03*
X1047900Y955040D03*
X1034900Y955040D03*
D31*
X1038900Y1049020D03*
X1043900Y1049020D03*
X1043900Y970280D03*
X1038900Y970280D03*
D51*
X321310Y689102D03*
X327660Y689102D03*
X334010Y689102D03*
X340360Y689102D03*
X346710Y689102D03*
X353060Y689102D03*
X359410Y689102D03*
X321310Y743458D03*
X327660Y743458D03*
X334010Y743458D03*
X340360Y743458D03*
X346710Y743458D03*
X353060Y743458D03*
X359410Y743458D03*
D23*
X290980Y645160D03*
X277980Y645160D03*
D19*
X325120Y669440D03*
X325120Y656440D03*
D21*
X309880Y654440D03*
X309880Y671440D03*
X358140Y651900D03*
X358140Y668900D03*
D23*
X323700Y637540D03*
X336700Y637540D03*
D21*
X284480Y656980D03*
X284480Y673980D03*
D25*
X316620Y622300D03*
X333620Y622300D03*
D19*
X383540Y651360D03*
X383540Y664360D03*
D21*
X375920Y722240D03*
X375920Y705240D03*
D39*
X381000Y741680D03*
X383540Y685800D03*
X264160Y612140D03*
D23*
X296060Y629920D03*
X283060Y629920D03*
X377340Y612140D03*
X364340Y612140D03*
D25*
X375040Y632460D03*
X392040Y632460D03*
D21*
X358140Y778120D03*
X358140Y761120D03*
D19*
X327660Y763120D03*
X327660Y776120D03*
D25*
X326780Y800100D03*
X343780Y800100D03*
D21*
X309880Y768740D03*
X309880Y785740D03*
D23*
X324000Y815340D03*
X311000Y815340D03*
D21*
X302260Y729860D03*
X302260Y712860D03*
D39*
X299720Y751840D03*
X299720Y690880D03*
X289560Y612140D03*
D51*
X430530Y689102D03*
X436880Y689102D03*
X443230Y689102D03*
X449580Y689102D03*
X455930Y689102D03*
X462280Y689102D03*
X468630Y689102D03*
X430530Y743458D03*
X436880Y743458D03*
X443230Y743458D03*
X449580Y743458D03*
X455930Y743458D03*
X462280Y743458D03*
X468630Y743458D03*
D19*
X416560Y628800D03*
X416560Y615800D03*
X414020Y661820D03*
X414020Y648820D03*
D25*
X433460Y619760D03*
X450460Y619760D03*
D21*
X434340Y641740D03*
X434340Y658740D03*
D19*
X464820Y661820D03*
X464820Y648820D03*
D25*
X498720Y645160D03*
X481720Y645160D03*
X479180Y665480D03*
X496180Y665480D03*
D19*
X510540Y676760D03*
X510540Y689760D03*
D21*
X485140Y724780D03*
X485140Y707780D03*
D39*
X492760Y744220D03*
X492760Y688340D03*
X436880Y548640D03*
D19*
X464820Y613560D03*
X464820Y600560D03*
D23*
X509420Y607060D03*
X496420Y607060D03*
D25*
X494420Y624840D03*
X511420Y624840D03*
D21*
X467360Y780660D03*
X467360Y763660D03*
D23*
X422049Y805739D03*
X435049Y805739D03*
D21*
X490220Y780660D03*
X490220Y763660D03*
X431800Y761120D03*
X431800Y778120D03*
D19*
X414020Y783740D03*
X414020Y770740D03*
D21*
X408940Y752720D03*
X408940Y735720D03*
D39*
X396240Y777240D03*
X411480Y716280D03*
X462280Y548640D03*
D51*
X557530Y689102D03*
X563880Y689102D03*
X570230Y689102D03*
X576580Y689102D03*
X582930Y689102D03*
X589280Y689102D03*
X595630Y689102D03*
X557530Y743458D03*
X563880Y743458D03*
X570230Y743458D03*
X576580Y743458D03*
X582930Y743458D03*
X589280Y743458D03*
X595630Y743458D03*
D19*
X505460Y588160D03*
X505460Y575160D03*
X563880Y628800D03*
X563880Y615800D03*
D25*
X529980Y594360D03*
X546980Y594360D03*
X605400Y624840D03*
X588400Y624840D03*
D19*
X601980Y666900D03*
X601980Y653900D03*
D21*
X543560Y654440D03*
X543560Y671440D03*
X543560Y621420D03*
X543560Y638420D03*
D19*
X614680Y671680D03*
X614680Y684680D03*
D21*
X617220Y773040D03*
X617220Y756040D03*
D39*
X612140Y795020D03*
X617220Y736600D03*
X508000Y548640D03*
D23*
X544980Y574040D03*
X531980Y574040D03*
X575460Y574040D03*
X562460Y574040D03*
D25*
X580780Y596900D03*
X597780Y596900D03*
D21*
X594360Y778120D03*
X594360Y761120D03*
D19*
X513080Y768200D03*
X513080Y781200D03*
D25*
X524900Y706120D03*
X541900Y706120D03*
D21*
X515620Y752720D03*
X515620Y735720D03*
D23*
X526900Y723900D03*
X539900Y723900D03*
D21*
X558800Y775580D03*
X558800Y758580D03*
D39*
X538480Y779780D03*
X538480Y754380D03*
X533400Y548640D03*
D51*
X674370Y689102D03*
X680720Y689102D03*
X687070Y689102D03*
X693420Y689102D03*
X699770Y689102D03*
X706120Y689102D03*
X712470Y689102D03*
X674370Y743458D03*
X680720Y743458D03*
X687070Y743458D03*
X693420Y743458D03*
X699770Y743458D03*
X706120Y743458D03*
X712470Y743458D03*
D19*
X619760Y595780D03*
X619760Y582780D03*
D23*
X651660Y617220D03*
X638660Y617220D03*
D25*
X636660Y637540D03*
X653660Y637540D03*
D21*
X675640Y654440D03*
X675640Y671440D03*
D23*
X710080Y640080D03*
X697080Y640080D03*
D21*
X675640Y616340D03*
X675640Y633340D03*
D25*
X697620Y614680D03*
X714620Y614680D03*
D19*
X726440Y674220D03*
X726440Y687220D03*
D21*
X728980Y821300D03*
X728980Y804300D03*
D39*
X612140Y828040D03*
X728980Y784860D03*
X589280Y548640D03*
D19*
X640080Y593240D03*
X640080Y580240D03*
X660400Y572620D03*
X660400Y585620D03*
D25*
X677300Y584200D03*
X694300Y584200D03*
D21*
X640080Y719700D03*
X640080Y702700D03*
D19*
X657860Y740560D03*
X657860Y727560D03*
D21*
X710540Y779949D03*
X710540Y762949D03*
X675640Y763660D03*
X675640Y780660D03*
D19*
X673100Y796140D03*
X673100Y809140D03*
D25*
X654440Y828040D03*
X671440Y828040D03*
D39*
X635000Y812800D03*
X647700Y787400D03*
X617220Y548640D03*
D19*
X340360Y669440D03*
X340360Y656440D03*
X340360Y776120D03*
X340360Y763120D03*
X452120Y669440D03*
X452120Y656440D03*
X449580Y776120D03*
X449580Y763120D03*
X576580Y671980D03*
X576580Y658980D03*
X576580Y773580D03*
X576580Y760580D03*
X693420Y669440D03*
X693420Y656440D03*
X693420Y773580D03*
X693420Y760580D03*
X55880Y915820D03*
X55880Y902820D03*
X55880Y882800D03*
X55880Y869800D03*
D25*
X160020Y1042280D03*
X160020Y1025280D03*
D22*
X182880Y1045240D03*
X182880Y1017240D03*
D53*
X208280Y1046240D03*
X208280Y1016240D03*
D25*
X101600Y959240D03*
X101600Y976240D03*
D22*
X78740Y953740D03*
X78740Y981740D03*
D53*
X48260Y952740D03*
X48260Y982740D03*
D21*
X172720Y983860D03*
X172720Y966860D03*
D19*
X116840Y963221D03*
X116840Y976221D03*
D27*
X276740Y1082040D03*
X261740Y1082040D03*
D25*
X220100Y1082040D03*
X237100Y1082040D03*
D22*
X167640Y1103600D03*
X167640Y1131600D03*
D53*
X195580Y1102600D03*
X195580Y1132600D03*
D54*
X147320Y968150D03*
X153820Y968150D03*
X140820Y968150D03*
X140820Y987650D03*
X147320Y987650D03*
X153820Y987650D03*
D55*
X147320Y977900D03*
D30*
X144780Y942340D03*
X170180Y942340D03*
X142240Y1130300D03*
X142240Y1104900D03*
D56*
X138176Y1013714D03*
X138176Y1036574D03*
X138176Y1059434D03*
D57*
X75184Y1036320D03*
D29*
X132080Y967780D03*
X132080Y972780D03*
D58*
X215900Y984420D03*
X215900Y910420D03*
D43*
X624360Y1122680D03*
D44*
X604360Y1122680D03*
X584360Y1122680D03*
X564360Y1122680D03*
D43*
X629920Y879320D03*
D44*
X629920Y899320D03*
X629920Y919320D03*
X629920Y939320D03*
D19*
X426720Y1122260D03*
X426720Y1133260D03*
X439420Y1122260D03*
X439420Y1133260D03*
X464820Y1125640D03*
X464820Y1114640D03*
D25*
X285360Y1003300D03*
X268360Y1003300D03*
D19*
X452120Y1114640D03*
X452120Y1125640D03*
D43*
X2036600Y309880D03*
D44*
X2016600Y309880D03*
X1996600Y309880D03*
X1976600Y309880D03*
D43*
X2155980Y309880D03*
D44*
X2135980Y309880D03*
X2115980Y309880D03*
X2095980Y309880D03*
D43*
X954560Y1249680D03*
D44*
X934560Y1249680D03*
X914560Y1249680D03*
X894560Y1249680D03*
D43*
X1094260Y1249680D03*
D44*
X1074260Y1249680D03*
X1054260Y1249680D03*
X1034260Y1249680D03*
X1648460Y1023620D03*
X1648460Y1049020D03*
X1648460Y1074420D03*
D19*
X1691640Y1083460D03*
X1691640Y1070460D03*
X1691640Y1019660D03*
X1691640Y1032660D03*
D29*
X1678940Y1079460D03*
X1678940Y1074460D03*
X1679194Y1024168D03*
X1679194Y1029168D03*
D31*
X1237020Y1112520D03*
X1242020Y1112520D03*
D23*
X1233020Y1122680D03*
X1246020Y1122680D03*
D39*
X1455420Y1026160D03*
D59*
X1455420Y1000760D03*
D38*
X1234440Y1018540D03*
X1259840Y1018540D03*
D21*
X1234440Y999100D03*
X1234440Y982100D03*
X1262380Y999100D03*
X1262380Y982100D03*
X1211580Y999100D03*
X1211580Y982100D03*
X1285240Y999100D03*
X1285240Y982100D03*
D60*
X1899666Y188976D03*
X1876806Y188976D03*
X1853946Y188976D03*
D61*
X1877060Y125984D03*
D62*
X1722120Y224650D03*
X1722120Y207150D03*
D63*
X1878470Y210820D03*
X1895970Y210820D03*
D64*
X1752600Y225820D03*
X1752600Y195820D03*
D65*
X1872220Y233680D03*
X1902220Y233680D03*
D30*
X1798320Y223520D03*
D28*
X1917700Y127000D03*
D30*
X1798320Y198120D03*
D56*
X2068576Y124714D03*
X2068576Y147574D03*
X2068576Y170434D03*
D57*
X2005584Y147320D03*
D62*
X2090420Y145910D03*
X2090420Y128410D03*
D64*
X2113280Y152160D03*
X2113280Y122160D03*
D30*
X2174240Y132080D03*
X2148840Y132080D03*
D63*
X2312530Y137160D03*
X2295030Y137160D03*
D65*
X2326400Y114300D03*
X2296400Y114300D03*
X2245600Y114300D03*
X2275600Y114300D03*
X2184160Y226060D03*
X2154160Y226060D03*
X2390380Y223520D03*
X2420380Y223520D03*
D63*
X2369554Y165964D03*
X2387054Y165964D03*
X2203132Y315214D03*
X2185632Y315214D03*
X2205850Y170180D03*
X2188350Y170180D03*
X2368690Y320040D03*
X2386190Y320040D03*
X2177910Y254000D03*
X2160410Y254000D03*
X2388756Y248412D03*
X2406256Y248412D03*
D43*
X1686560Y245900D03*
D44*
X1686560Y225900D03*
X1686560Y205900D03*
X1686560Y185900D03*
D63*
X2386470Y274320D03*
X2403970Y274320D03*
D65*
X2184160Y200660D03*
X2154160Y200660D03*
D66*
X873760Y22860D03*
X873760Y48260D03*
X899160Y22860D03*
X899160Y48260D03*
X924560Y22860D03*
X924560Y48260D03*
X949960Y22860D03*
X949960Y48260D03*
X975360Y22860D03*
X975360Y48260D03*
X1000760Y22860D03*
X1000760Y48260D03*
X1026160Y22860D03*
X1026160Y48260D03*
X1051560Y22860D03*
X1051560Y48260D03*
X1076960Y22860D03*
X1076960Y48260D03*
X1102360Y22860D03*
X1102360Y48260D03*
D21*
X2369820Y150740D03*
X2369820Y133740D03*
X2407920Y183760D03*
X2407920Y166760D03*
D25*
X2206380Y142240D03*
X2223380Y142240D03*
X2032880Y218440D03*
X2015880Y218440D03*
D32*
X2186930Y281940D03*
X2192030Y281940D03*
X2186930Y275336D03*
X2192030Y275336D03*
X2188200Y262890D03*
X2193300Y262890D03*
X2214870Y342900D03*
X2219970Y342900D03*
X2214870Y332740D03*
X2219970Y332740D03*
X2186930Y292100D03*
X2192030Y292100D03*
D46*
X789940Y205740D02*
X774700Y205740D01*
X774700Y231140D02*
X789940Y231140D01*
X889000Y205740D02*
X904240Y205740D01*
X904240Y231140D02*
X889000Y231140D01*
X1358900Y205740D02*
X1374140Y205740D01*
X1374140Y231140D02*
X1358900Y231140D01*
X1018540Y205740D02*
X1003300Y205740D01*
X1003300Y231140D02*
X1018540Y231140D01*
D25*
X2225920Y119380D03*
X2208920Y119380D03*
D43*
X296700Y1120140D03*
D44*
X276700Y1120140D03*
X256700Y1120140D03*
X236700Y1120140D03*
D27*
X2313820Y342900D03*
X2298820Y342900D03*
D25*
X2269880Y342900D03*
X2286880Y342900D03*
D28*
X2085340Y264160D03*
X2059940Y264160D03*
D43*
X466880Y1231900D03*
D44*
X446880Y1231900D03*
X426880Y1231900D03*
X406880Y1231900D03*
D43*
X344960Y1231900D03*
D44*
X324960Y1231900D03*
X304960Y1231900D03*
X284960Y1231900D03*
D18*
X1027440Y1474780D03*
X1027440Y1469780D03*
X1027440Y1464780D03*
X1027440Y1459780D03*
X1027440Y1454780D03*
X1027440Y1449780D03*
X1027440Y1444780D03*
X1027440Y1439780D03*
X1027440Y1434780D03*
X1027440Y1429780D03*
X1027440Y1424780D03*
X1027440Y1419780D03*
X1027440Y1414780D03*
X1027440Y1409780D03*
X1027440Y1404780D03*
X1027440Y1399780D03*
X1027440Y1394780D03*
X1027440Y1389780D03*
X1027440Y1384780D03*
X1027440Y1379780D03*
X1027440Y1374780D03*
X1027440Y1369780D03*
X1027440Y1364780D03*
X1027440Y1359780D03*
X1027440Y1354780D03*
D17*
X1047440Y1334780D03*
X1052440Y1334780D03*
X1057440Y1334780D03*
X1062440Y1334780D03*
X1067440Y1334780D03*
X1072440Y1334780D03*
X1077440Y1334780D03*
X1082440Y1334780D03*
X1087440Y1334780D03*
X1092440Y1334780D03*
X1097440Y1334780D03*
X1102440Y1334780D03*
X1107440Y1334780D03*
X1112440Y1334780D03*
X1117440Y1334780D03*
X1122440Y1334780D03*
X1127440Y1334780D03*
X1132440Y1334780D03*
X1137440Y1334780D03*
X1142440Y1334780D03*
X1147440Y1334780D03*
X1152440Y1334780D03*
X1157440Y1334780D03*
X1162440Y1334780D03*
X1167440Y1334780D03*
D18*
X1187440Y1354780D03*
X1187440Y1359780D03*
X1187440Y1364780D03*
X1187440Y1369780D03*
X1187440Y1374780D03*
X1187440Y1379780D03*
X1187440Y1384780D03*
X1187440Y1389780D03*
X1187440Y1394780D03*
X1187440Y1399780D03*
X1187440Y1404780D03*
X1187440Y1409780D03*
X1187440Y1414780D03*
X1187440Y1419780D03*
X1187440Y1424780D03*
X1187440Y1429780D03*
X1187440Y1434780D03*
X1187440Y1439780D03*
X1187440Y1444780D03*
X1187440Y1449780D03*
X1187440Y1454780D03*
X1187440Y1459780D03*
X1187440Y1464780D03*
X1187440Y1469780D03*
X1187440Y1474780D03*
D17*
X1167440Y1494780D03*
X1162440Y1494780D03*
X1157440Y1494780D03*
X1152440Y1494780D03*
X1147440Y1494780D03*
X1142440Y1494780D03*
X1137440Y1494780D03*
X1132440Y1494780D03*
X1127440Y1494780D03*
X1122440Y1494780D03*
X1117440Y1494780D03*
X1112440Y1494780D03*
X1107440Y1494780D03*
X1102440Y1494780D03*
X1097440Y1494780D03*
X1092440Y1494780D03*
X1087440Y1494780D03*
X1082440Y1494780D03*
X1077440Y1494780D03*
X1072440Y1494780D03*
X1067440Y1494780D03*
X1062440Y1494780D03*
X1057440Y1494780D03*
X1052440Y1494780D03*
X1047440Y1494780D03*
D26*
X814420Y1402080D03*
X852820Y1402080D03*
X814420Y1389380D03*
X852820Y1389380D03*
X814420Y1376680D03*
X852820Y1376680D03*
X814420Y1363980D03*
X852820Y1363980D03*
X814420Y1351280D03*
X852820Y1351280D03*
D60*
X472094Y1385064D03*
X494954Y1385064D03*
X517814Y1385064D03*
D61*
X494700Y1448056D03*
D63*
X443370Y1574800D03*
X460870Y1574800D03*
X498370Y1358140D03*
X480870Y1358140D03*
D64*
X393700Y1557260D03*
X393700Y1587260D03*
D65*
X509700Y1340360D03*
X479700Y1340360D03*
D30*
X652180Y1363220D03*
X746160Y1342900D03*
X720760Y1342900D03*
D60*
X578774Y1385064D03*
X601634Y1385064D03*
X624494Y1385064D03*
D61*
X601380Y1448056D03*
D63*
X589810Y1360680D03*
X572310Y1360680D03*
D65*
X588440Y1335280D03*
X558440Y1335280D03*
D30*
X669960Y1416560D03*
X669960Y1441960D03*
D63*
X1215530Y1430020D03*
X1233030Y1430020D03*
D65*
X1227060Y1450340D03*
X1257060Y1450340D03*
X1209280Y1397000D03*
X1239280Y1397000D03*
D64*
X1122680Y1514080D03*
X1122680Y1544080D03*
X1132840Y1282460D03*
X1132840Y1252460D03*
D63*
X1179970Y1330960D03*
X1197470Y1330960D03*
D62*
X1102360Y1512710D03*
X1102360Y1530210D03*
D63*
X1034910Y1496060D03*
X1017410Y1496060D03*
D62*
X1191260Y1487310D03*
X1191260Y1504810D03*
D63*
X1032370Y1330960D03*
X1014870Y1330960D03*
D62*
X1107440Y1314310D03*
X1107440Y1296810D03*
D21*
X649640Y1471560D03*
X649640Y1488560D03*
D27*
X983100Y1295400D03*
X998100Y1295400D03*
D25*
X1029580Y1295400D03*
X1012580Y1295400D03*
D67*
X1443767Y1388183D02*
X1458433Y1388183D01*
X1458433Y1385117D01*
X1443767Y1385117D01*
X1443767Y1388183D01*
X1443767Y1388030D02*
X1458433Y1388030D01*
X1458433Y1394683D02*
X1443767Y1394683D01*
X1458433Y1394683D02*
X1458433Y1391617D01*
X1443767Y1391617D01*
X1443767Y1394683D01*
X1443767Y1394530D02*
X1458433Y1394530D01*
X1458433Y1401183D02*
X1443767Y1401183D01*
X1458433Y1401183D02*
X1458433Y1398117D01*
X1443767Y1398117D01*
X1443767Y1401183D01*
X1443767Y1401030D02*
X1458433Y1401030D01*
X1458433Y1407683D02*
X1443767Y1407683D01*
X1458433Y1407683D02*
X1458433Y1404617D01*
X1443767Y1404617D01*
X1443767Y1407683D01*
X1443767Y1407530D02*
X1458433Y1407530D01*
X1458433Y1414183D02*
X1443767Y1414183D01*
X1458433Y1414183D02*
X1458433Y1411117D01*
X1443767Y1411117D01*
X1443767Y1414183D01*
X1443767Y1414030D02*
X1458433Y1414030D01*
X1458433Y1420683D02*
X1443767Y1420683D01*
X1458433Y1420683D02*
X1458433Y1417617D01*
X1443767Y1417617D01*
X1443767Y1420683D01*
X1443767Y1420530D02*
X1458433Y1420530D01*
X1458433Y1427183D02*
X1443767Y1427183D01*
X1458433Y1427183D02*
X1458433Y1424117D01*
X1443767Y1424117D01*
X1443767Y1427183D01*
X1443767Y1427030D02*
X1458433Y1427030D01*
X1458433Y1433683D02*
X1443767Y1433683D01*
X1458433Y1433683D02*
X1458433Y1430617D01*
X1443767Y1430617D01*
X1443767Y1433683D01*
X1443767Y1433530D02*
X1458433Y1433530D01*
X1458433Y1440183D02*
X1443767Y1440183D01*
X1458433Y1440183D02*
X1458433Y1437117D01*
X1443767Y1437117D01*
X1443767Y1440183D01*
X1443767Y1440030D02*
X1458433Y1440030D01*
X1458433Y1446683D02*
X1443767Y1446683D01*
X1458433Y1446683D02*
X1458433Y1443617D01*
X1443767Y1443617D01*
X1443767Y1446683D01*
X1443767Y1446530D02*
X1458433Y1446530D01*
X1458433Y1453183D02*
X1443767Y1453183D01*
X1458433Y1453183D02*
X1458433Y1450117D01*
X1443767Y1450117D01*
X1443767Y1453183D01*
X1443767Y1453030D02*
X1458433Y1453030D01*
X1458433Y1459683D02*
X1443767Y1459683D01*
X1458433Y1459683D02*
X1458433Y1456617D01*
X1443767Y1456617D01*
X1443767Y1459683D01*
X1443767Y1459530D02*
X1458433Y1459530D01*
X1401033Y1459683D02*
X1386367Y1459683D01*
X1401033Y1459683D02*
X1401033Y1456617D01*
X1386367Y1456617D01*
X1386367Y1459683D01*
X1386367Y1459530D02*
X1401033Y1459530D01*
X1401033Y1453183D02*
X1386367Y1453183D01*
X1401033Y1453183D02*
X1401033Y1450117D01*
X1386367Y1450117D01*
X1386367Y1453183D01*
X1386367Y1453030D02*
X1401033Y1453030D01*
X1401033Y1446683D02*
X1386367Y1446683D01*
X1401033Y1446683D02*
X1401033Y1443617D01*
X1386367Y1443617D01*
X1386367Y1446683D01*
X1386367Y1446530D02*
X1401033Y1446530D01*
X1401033Y1440183D02*
X1386367Y1440183D01*
X1401033Y1440183D02*
X1401033Y1437117D01*
X1386367Y1437117D01*
X1386367Y1440183D01*
X1386367Y1440030D02*
X1401033Y1440030D01*
X1401033Y1433683D02*
X1386367Y1433683D01*
X1401033Y1433683D02*
X1401033Y1430617D01*
X1386367Y1430617D01*
X1386367Y1433683D01*
X1386367Y1433530D02*
X1401033Y1433530D01*
X1401033Y1427183D02*
X1386367Y1427183D01*
X1401033Y1427183D02*
X1401033Y1424117D01*
X1386367Y1424117D01*
X1386367Y1427183D01*
X1386367Y1427030D02*
X1401033Y1427030D01*
X1401033Y1420683D02*
X1386367Y1420683D01*
X1401033Y1420683D02*
X1401033Y1417617D01*
X1386367Y1417617D01*
X1386367Y1420683D01*
X1386367Y1420530D02*
X1401033Y1420530D01*
X1401033Y1414183D02*
X1386367Y1414183D01*
X1401033Y1414183D02*
X1401033Y1411117D01*
X1386367Y1411117D01*
X1386367Y1414183D01*
X1386367Y1414030D02*
X1401033Y1414030D01*
X1401033Y1407683D02*
X1386367Y1407683D01*
X1401033Y1407683D02*
X1401033Y1404617D01*
X1386367Y1404617D01*
X1386367Y1407683D01*
X1386367Y1407530D02*
X1401033Y1407530D01*
X1401033Y1401183D02*
X1386367Y1401183D01*
X1401033Y1401183D02*
X1401033Y1398117D01*
X1386367Y1398117D01*
X1386367Y1401183D01*
X1386367Y1401030D02*
X1401033Y1401030D01*
X1401033Y1394683D02*
X1386367Y1394683D01*
X1401033Y1394683D02*
X1401033Y1391617D01*
X1386367Y1391617D01*
X1386367Y1394683D01*
X1386367Y1394530D02*
X1401033Y1394530D01*
X1401033Y1388183D02*
X1386367Y1388183D01*
X1401033Y1388183D02*
X1401033Y1385117D01*
X1386367Y1385117D01*
X1386367Y1388183D01*
X1386367Y1388030D02*
X1401033Y1388030D01*
D43*
X124460Y203680D03*
D44*
X124460Y223680D03*
X124460Y243680D03*
X124460Y263680D03*
D43*
X71600Y144780D03*
D44*
X91600Y144780D03*
X111600Y144780D03*
X131600Y144780D03*
D43*
X55880Y203680D03*
D44*
X55880Y223680D03*
X55880Y243680D03*
X55880Y263680D03*
D43*
X180820Y144780D03*
D44*
X200820Y144780D03*
X220820Y144780D03*
X240820Y144780D03*
D43*
X307340Y184940D03*
D44*
X307340Y164940D03*
X307340Y144940D03*
X307340Y124940D03*
D67*
X199613Y257737D02*
X184947Y257737D01*
X184947Y260803D01*
X199613Y260803D01*
X199613Y257737D01*
X199613Y260650D02*
X184947Y260650D01*
X184947Y251237D02*
X199613Y251237D01*
X184947Y251237D02*
X184947Y254303D01*
X199613Y254303D01*
X199613Y251237D01*
X199613Y254150D02*
X184947Y254150D01*
X184947Y244737D02*
X199613Y244737D01*
X184947Y244737D02*
X184947Y247803D01*
X199613Y247803D01*
X199613Y244737D01*
X199613Y247650D02*
X184947Y247650D01*
X184947Y238237D02*
X199613Y238237D01*
X184947Y238237D02*
X184947Y241303D01*
X199613Y241303D01*
X199613Y238237D01*
X199613Y241150D02*
X184947Y241150D01*
X184947Y231737D02*
X199613Y231737D01*
X184947Y231737D02*
X184947Y234803D01*
X199613Y234803D01*
X199613Y231737D01*
X199613Y234650D02*
X184947Y234650D01*
X184947Y225237D02*
X199613Y225237D01*
X184947Y225237D02*
X184947Y228303D01*
X199613Y228303D01*
X199613Y225237D01*
X199613Y228150D02*
X184947Y228150D01*
X184947Y218737D02*
X199613Y218737D01*
X184947Y218737D02*
X184947Y221803D01*
X199613Y221803D01*
X199613Y218737D01*
X199613Y221650D02*
X184947Y221650D01*
X184947Y212237D02*
X199613Y212237D01*
X184947Y212237D02*
X184947Y215303D01*
X199613Y215303D01*
X199613Y212237D01*
X199613Y215150D02*
X184947Y215150D01*
X184947Y205737D02*
X199613Y205737D01*
X184947Y205737D02*
X184947Y208803D01*
X199613Y208803D01*
X199613Y205737D01*
X199613Y208650D02*
X184947Y208650D01*
X184947Y199237D02*
X199613Y199237D01*
X184947Y199237D02*
X184947Y202303D01*
X199613Y202303D01*
X199613Y199237D01*
X199613Y202150D02*
X184947Y202150D01*
X184947Y192737D02*
X199613Y192737D01*
X184947Y192737D02*
X184947Y195803D01*
X199613Y195803D01*
X199613Y192737D01*
X199613Y195650D02*
X184947Y195650D01*
X184947Y186237D02*
X199613Y186237D01*
X184947Y186237D02*
X184947Y189303D01*
X199613Y189303D01*
X199613Y186237D01*
X199613Y189150D02*
X184947Y189150D01*
X242347Y186237D02*
X257013Y186237D01*
X242347Y186237D02*
X242347Y189303D01*
X257013Y189303D01*
X257013Y186237D01*
X257013Y189150D02*
X242347Y189150D01*
X242347Y192737D02*
X257013Y192737D01*
X242347Y192737D02*
X242347Y195803D01*
X257013Y195803D01*
X257013Y192737D01*
X257013Y195650D02*
X242347Y195650D01*
X242347Y199237D02*
X257013Y199237D01*
X242347Y199237D02*
X242347Y202303D01*
X257013Y202303D01*
X257013Y199237D01*
X257013Y202150D02*
X242347Y202150D01*
X242347Y205737D02*
X257013Y205737D01*
X242347Y205737D02*
X242347Y208803D01*
X257013Y208803D01*
X257013Y205737D01*
X257013Y208650D02*
X242347Y208650D01*
X242347Y212237D02*
X257013Y212237D01*
X242347Y212237D02*
X242347Y215303D01*
X257013Y215303D01*
X257013Y212237D01*
X257013Y215150D02*
X242347Y215150D01*
X242347Y218737D02*
X257013Y218737D01*
X242347Y218737D02*
X242347Y221803D01*
X257013Y221803D01*
X257013Y218737D01*
X257013Y221650D02*
X242347Y221650D01*
X242347Y225237D02*
X257013Y225237D01*
X242347Y225237D02*
X242347Y228303D01*
X257013Y228303D01*
X257013Y225237D01*
X257013Y228150D02*
X242347Y228150D01*
X242347Y231737D02*
X257013Y231737D01*
X242347Y231737D02*
X242347Y234803D01*
X257013Y234803D01*
X257013Y231737D01*
X257013Y234650D02*
X242347Y234650D01*
X242347Y238237D02*
X257013Y238237D01*
X242347Y238237D02*
X242347Y241303D01*
X257013Y241303D01*
X257013Y238237D01*
X257013Y241150D02*
X242347Y241150D01*
X242347Y244737D02*
X257013Y244737D01*
X242347Y244737D02*
X242347Y247803D01*
X257013Y247803D01*
X257013Y244737D01*
X257013Y247650D02*
X242347Y247650D01*
X242347Y251237D02*
X257013Y251237D01*
X242347Y251237D02*
X242347Y254303D01*
X257013Y254303D01*
X257013Y251237D01*
X257013Y254150D02*
X242347Y254150D01*
X242347Y257737D02*
X257013Y257737D01*
X242347Y257737D02*
X242347Y260803D01*
X257013Y260803D01*
X257013Y257737D01*
X257013Y260650D02*
X242347Y260650D01*
D25*
X227219Y276860D03*
X210219Y276860D03*
D68*
X2139450Y2256460D03*
X2152150Y2256460D03*
X2164850Y2256460D03*
X2177550Y2256460D03*
X2177550Y2310460D03*
X2164850Y2310460D03*
X2152150Y2310460D03*
X2139450Y2310460D03*
D43*
X375920Y184940D03*
D44*
X375920Y164940D03*
X375920Y144940D03*
X375920Y124940D03*
D43*
X2199140Y2310920D03*
D44*
X2199140Y2290920D03*
X2199140Y2270920D03*
X2199140Y2250920D03*
D62*
X2140720Y2236330D03*
X2140720Y2218830D03*
D64*
X2224540Y2242580D03*
X2224540Y2212580D03*
D25*
X2198260Y2357120D03*
X2215260Y2357120D03*
X2215260Y2329180D03*
X2198260Y2329180D03*
D21*
X2216920Y2312280D03*
X2216920Y2295280D03*
D30*
X2166120Y2217420D03*
X2176280Y2344420D03*
D25*
X2156840Y2344420D03*
X2139840Y2344420D03*
D62*
X269240Y255130D03*
X269240Y237630D03*
D65*
X264400Y276860D03*
X294400Y276860D03*
D69*
X804580Y1649730D03*
X856580Y1649730D03*
X804580Y1662430D03*
X804580Y1637030D03*
X804580Y1624330D03*
X856580Y1662430D03*
X856580Y1637030D03*
X856580Y1624330D03*
X339760Y250190D03*
X391760Y250190D03*
X339760Y262890D03*
X339760Y237490D03*
X339760Y224790D03*
X391760Y262890D03*
X391760Y237490D03*
X391760Y224790D03*
D63*
X844410Y1676400D03*
X826910Y1676400D03*
D25*
X113420Y320040D03*
X130420Y320040D03*
X164220Y276860D03*
X181220Y276860D03*
D56*
X392176Y289814D03*
X392176Y312674D03*
X392176Y335534D03*
D57*
X329184Y312420D03*
D62*
X414020Y311010D03*
X414020Y293510D03*
D65*
X83580Y297180D03*
X53580Y297180D03*
D70*
X876440Y1749920D03*
X866240Y1724520D03*
X856040Y1749920D03*
X845840Y1724520D03*
X835640Y1749920D03*
X825440Y1724520D03*
X815240Y1749920D03*
X805040Y1724520D03*
D40*
X921990Y1724520D03*
X759490Y1724520D03*
D71*
X915140Y1772920D03*
X766340Y1772920D03*
D42*
X518500Y2357036D03*
X583524Y2357036D03*
X518500Y2311824D03*
X583524Y2311824D03*
D65*
X1394700Y1351280D03*
X1424700Y1351280D03*
D63*
X1400950Y1371600D03*
X1418450Y1371600D03*
D46*
X716280Y1691640D02*
X716280Y1706880D01*
X690880Y1706880D02*
X690880Y1691640D01*
X665480Y1691640D02*
X665480Y1706880D01*
X640080Y1706880D02*
X640080Y1691640D01*
X614680Y1691640D02*
X614680Y1706880D01*
X589280Y1706880D02*
X589280Y1691640D01*
X563880Y1691640D02*
X563880Y1706880D01*
X538480Y1706880D02*
X538480Y1691640D01*
X287020Y1513840D02*
X271780Y1513840D01*
X271780Y1539240D02*
X287020Y1539240D01*
D65*
X1176260Y1526540D03*
X1206260Y1526540D03*
D66*
X985520Y2319720D03*
X985520Y2345120D03*
X960120Y2319720D03*
X960120Y2345120D03*
X934720Y2319720D03*
X934720Y2345120D03*
X909320Y2319720D03*
X909320Y2345120D03*
X883920Y2319720D03*
X883920Y2345120D03*
X858520Y2319720D03*
X858520Y2345120D03*
X833120Y2319720D03*
X833120Y2345120D03*
X807720Y2319720D03*
X807720Y2345120D03*
X782320Y2319720D03*
X782320Y2345120D03*
X756920Y2319720D03*
X756920Y2345120D03*
X731520Y2319720D03*
X731520Y2345120D03*
X706120Y2319720D03*
X706120Y2345120D03*
D72*
X818120Y2039620D03*
X848120Y2039620D03*
D73*
X1226820Y2031760D03*
X1226820Y2001760D03*
X1264920Y2140980D03*
X1264920Y2110980D03*
D72*
X1399780Y2062480D03*
X1429780Y2062480D03*
X1564880Y2141220D03*
X1594880Y2141220D03*
X1750300Y2192020D03*
X1780300Y2192020D03*
X1950960Y2179320D03*
X1980960Y2179320D03*
D73*
X628200Y2351220D03*
X628200Y2321220D03*
D66*
X1140060Y2391560D03*
D74*
X1090060Y2391560D03*
D66*
X1090060Y2246560D03*
X1115060Y2246560D03*
X1140060Y2246560D03*
D75*
X1058060Y2308060D02*
X1058060Y2335060D01*
X1172060Y2335060D02*
X1172060Y2308060D01*
D66*
X1366980Y2229220D03*
X1366980Y2254620D03*
X1341580Y2229220D03*
X1341580Y2254620D03*
X1316180Y2229220D03*
X1316180Y2254620D03*
X1290780Y2229220D03*
X1290780Y2254620D03*
X1265380Y2229220D03*
X1265380Y2254620D03*
D21*
X891540Y1989700D03*
X891540Y1972700D03*
D25*
X1223400Y1958340D03*
X1240400Y1958340D03*
D21*
X1303020Y2096380D03*
X1303020Y2079380D03*
D25*
X1439300Y2100580D03*
X1456300Y2100580D03*
X1601860Y2181860D03*
X1618860Y2181860D03*
X1789820Y2227580D03*
X1806820Y2227580D03*
D21*
X1991360Y2211460D03*
X1991360Y2228460D03*
D25*
X594340Y2285180D03*
X577340Y2285180D03*
D46*
X522620Y2265660D02*
X522620Y2250420D01*
X548020Y2250420D02*
X548020Y2265660D01*
X573420Y2265660D02*
X573420Y2250420D01*
X598820Y2250420D02*
X598820Y2265660D01*
D25*
X771280Y2268220D03*
X788280Y2268220D03*
X771280Y2217420D03*
X788280Y2217420D03*
X788280Y2189480D03*
X771280Y2189480D03*
X788280Y2242820D03*
X771280Y2242820D03*
D76*
X746760Y1498600D03*
D39*
X746760Y1524000D03*
X772160Y1498600D03*
X772160Y1524000D03*
X797560Y1498600D03*
X797560Y1524000D03*
X822960Y1498600D03*
X822960Y1524000D03*
X848360Y1498600D03*
X848360Y1524000D03*
D76*
X1128344Y1589049D03*
D39*
X1128344Y1614449D03*
X1153744Y1589049D03*
X1153744Y1614449D03*
X1179144Y1589049D03*
X1179144Y1614449D03*
X1204544Y1589049D03*
X1204544Y1614449D03*
X1229944Y1589049D03*
X1229944Y1614449D03*
X1255344Y1589049D03*
X1255344Y1614449D03*
X1280744Y1589049D03*
X1280744Y1614449D03*
X1306144Y1589049D03*
X1306144Y1614449D03*
X1331544Y1589049D03*
X1331544Y1614449D03*
X1356944Y1589049D03*
X1356944Y1614449D03*
X1382344Y1589049D03*
X1382344Y1614449D03*
X1407744Y1589049D03*
X1407744Y1614449D03*
D25*
X1429140Y1584960D03*
X1446140Y1584960D03*
X1429140Y1612900D03*
X1446140Y1612900D03*
X882260Y1569720D03*
X865260Y1569720D03*
D21*
X868680Y1608700D03*
X868680Y1591700D03*
D25*
X336160Y279400D03*
X319160Y279400D03*
D21*
X411480Y199000D03*
X411480Y182000D03*
X886460Y1650120D03*
X886460Y1667120D03*
D25*
X900820Y1625600D03*
X917820Y1625600D03*
X783200Y1656080D03*
X766200Y1656080D03*
X775580Y1681480D03*
X758580Y1681480D03*
D46*
X193040Y1292860D02*
X177800Y1292860D01*
X177800Y1267460D02*
X193040Y1267460D01*
X193040Y1318260D02*
X177800Y1318260D01*
X180340Y1412240D02*
X195580Y1412240D01*
X195580Y1386840D02*
X180340Y1386840D01*
X180340Y1437640D02*
X195580Y1437640D01*
D21*
X563880Y1647580D03*
X563880Y1664580D03*
X563880Y1612020D03*
X563880Y1629020D03*
X1475740Y1395340D03*
X1475740Y1378340D03*
D68*
X2324870Y2259000D03*
X2337570Y2259000D03*
X2350270Y2259000D03*
X2362970Y2259000D03*
X2362970Y2313000D03*
X2350270Y2313000D03*
X2337570Y2313000D03*
X2324870Y2313000D03*
D43*
X2384560Y2313460D03*
D44*
X2384560Y2293460D03*
X2384560Y2273460D03*
X2384560Y2253460D03*
D62*
X2326140Y2238870D03*
X2326140Y2221370D03*
D64*
X2409960Y2245120D03*
X2409960Y2215120D03*
D25*
X2383680Y2359660D03*
X2400680Y2359660D03*
X2400680Y2331720D03*
X2383680Y2331720D03*
D21*
X2402340Y2314820D03*
X2402340Y2297820D03*
D30*
X2351540Y2219960D03*
X2361700Y2346960D03*
D25*
X2342260Y2346960D03*
X2325260Y2346960D03*
D68*
X2136910Y2012620D03*
X2149610Y2012620D03*
X2162310Y2012620D03*
X2175010Y2012620D03*
X2175010Y2066620D03*
X2162310Y2066620D03*
X2149610Y2066620D03*
X2136910Y2066620D03*
D43*
X2196600Y2067080D03*
D44*
X2196600Y2047080D03*
X2196600Y2027080D03*
X2196600Y2007080D03*
D62*
X2138180Y1992490D03*
X2138180Y1974990D03*
D64*
X2222000Y1998740D03*
X2222000Y1968740D03*
D25*
X2195720Y2113280D03*
X2212720Y2113280D03*
X2212720Y2085340D03*
X2195720Y2085340D03*
D21*
X2214380Y2068440D03*
X2214380Y2051440D03*
D30*
X2163580Y1973580D03*
X2173740Y2100580D03*
D25*
X2154300Y2100580D03*
X2137300Y2100580D03*
D68*
X2329950Y2012620D03*
X2342650Y2012620D03*
X2355350Y2012620D03*
X2368050Y2012620D03*
X2368050Y2066620D03*
X2355350Y2066620D03*
X2342650Y2066620D03*
X2329950Y2066620D03*
D43*
X2389640Y2067080D03*
D44*
X2389640Y2047080D03*
X2389640Y2027080D03*
X2389640Y2007080D03*
D62*
X2331220Y1992490D03*
X2331220Y1974990D03*
D64*
X2415040Y1998740D03*
X2415040Y1968740D03*
D25*
X2388760Y2113280D03*
X2405760Y2113280D03*
X2405760Y2085340D03*
X2388760Y2085340D03*
D21*
X2407420Y2068440D03*
X2407420Y2051440D03*
D30*
X2356620Y1973580D03*
X2366780Y2100580D03*
D25*
X2347340Y2100580D03*
X2330340Y2100580D03*
D68*
X222750Y2173300D03*
X210050Y2173300D03*
X197350Y2173300D03*
X184650Y2173300D03*
X184650Y2119300D03*
X197350Y2119300D03*
X210050Y2119300D03*
X222750Y2119300D03*
D43*
X163060Y2118840D03*
D44*
X163060Y2138840D03*
X163060Y2158840D03*
X163060Y2178840D03*
D62*
X221480Y2193430D03*
X221480Y2210930D03*
D64*
X137660Y2156700D03*
X137660Y2186700D03*
D25*
X222360Y2062480D03*
X205360Y2062480D03*
X146940Y2100580D03*
X163940Y2100580D03*
D21*
X145280Y2117480D03*
X145280Y2134480D03*
D28*
X196080Y2212340D03*
X185920Y2085340D03*
D25*
X205360Y2085340D03*
X222360Y2085340D03*
D68*
X2623050Y1921840D03*
X2610350Y1921840D03*
X2597650Y1921840D03*
X2584950Y1921840D03*
X2584950Y1867840D03*
X2597650Y1867840D03*
X2610350Y1867840D03*
X2623050Y1867840D03*
D43*
X2563360Y1867380D03*
D44*
X2563360Y1887380D03*
X2563360Y1907380D03*
X2563360Y1927380D03*
D62*
X2621780Y1941970D03*
X2621780Y1959470D03*
D64*
X2532880Y1907780D03*
X2532880Y1937780D03*
D25*
X2622660Y1808480D03*
X2605660Y1808480D03*
X2547240Y1849120D03*
X2564240Y1849120D03*
D21*
X2545580Y1866020D03*
X2545580Y1883020D03*
D28*
X2596380Y1960880D03*
X2586220Y1833880D03*
D25*
X2605660Y1833880D03*
X2622660Y1833880D03*
D77*
X2290140Y1768610D03*
X2290140Y1781310D03*
X2290140Y1794010D03*
X2290140Y1806710D03*
X2236140Y1806710D03*
X2236140Y1794010D03*
X2236140Y1781310D03*
X2236140Y1768610D03*
D43*
X2235680Y1828300D03*
D44*
X2255680Y1828300D03*
X2275680Y1828300D03*
X2295680Y1828300D03*
D63*
X2310270Y1769880D03*
X2327770Y1769880D03*
D65*
X2276080Y1853700D03*
X2306080Y1853700D03*
D21*
X2179320Y1769000D03*
X2179320Y1786000D03*
X2217420Y1844420D03*
X2217420Y1827420D03*
D25*
X2234320Y1846080D03*
X2251320Y1846080D03*
D78*
X2329180Y1795280D03*
X2202180Y1805440D03*
D21*
X2202180Y1786000D03*
X2202180Y1769000D03*
D68*
X2505210Y2259000D03*
X2517910Y2259000D03*
X2530610Y2259000D03*
X2543310Y2259000D03*
X2543310Y2313000D03*
X2530610Y2313000D03*
X2517910Y2313000D03*
X2505210Y2313000D03*
D43*
X2564900Y2313460D03*
D44*
X2564900Y2293460D03*
X2564900Y2273460D03*
X2564900Y2253460D03*
D62*
X2506480Y2238870D03*
X2506480Y2221370D03*
D64*
X2590300Y2245120D03*
X2590300Y2215120D03*
D25*
X2564020Y2359660D03*
X2581020Y2359660D03*
X2581020Y2331720D03*
X2564020Y2331720D03*
D21*
X2582680Y2314820D03*
X2582680Y2297820D03*
D30*
X2531880Y2219960D03*
X2542040Y2346960D03*
D25*
X2522600Y2346960D03*
X2505600Y2346960D03*
D68*
X2594110Y183820D03*
X2606810Y183820D03*
X2619510Y183820D03*
X2632210Y183820D03*
X2632210Y237820D03*
X2619510Y237820D03*
X2606810Y237820D03*
X2594110Y237820D03*
D43*
X2653800Y238280D03*
D44*
X2653800Y218280D03*
X2653800Y198280D03*
X2653800Y178280D03*
D62*
X2595380Y163690D03*
X2595380Y146190D03*
D64*
X2681740Y200420D03*
X2681740Y170420D03*
D25*
X2594500Y294640D03*
X2611500Y294640D03*
X2669920Y256540D03*
X2652920Y256540D03*
D21*
X2671580Y239640D03*
X2671580Y222640D03*
D30*
X2620780Y144780D03*
X2630940Y271780D03*
D25*
X2611500Y271780D03*
X2594500Y271780D03*
D77*
X2584780Y435110D03*
X2584780Y447810D03*
X2584780Y460510D03*
X2584780Y473210D03*
X2530780Y473210D03*
X2530780Y460510D03*
X2530780Y447810D03*
X2530780Y435110D03*
D43*
X2530320Y494800D03*
D44*
X2550320Y494800D03*
X2570320Y494800D03*
X2590320Y494800D03*
D63*
X2604910Y436380D03*
X2622410Y436380D03*
D65*
X2568180Y520200D03*
X2598180Y520200D03*
D21*
X2476500Y435500D03*
X2476500Y452500D03*
X2512060Y510920D03*
X2512060Y493920D03*
D25*
X2528960Y512580D03*
X2545960Y512580D03*
D78*
X2623820Y461780D03*
X2496820Y471940D03*
D21*
X2496820Y452500D03*
X2496820Y435500D03*
D43*
X622300Y1071400D03*
D44*
X622300Y1051400D03*
X622300Y1031400D03*
X622300Y1011400D03*
D43*
X1228880Y1259840D03*
D44*
X1208880Y1259840D03*
X1188880Y1259840D03*
X1168880Y1259840D03*
D51*
X1057910Y1035558D03*
X1051560Y1035558D03*
X1045210Y1035558D03*
X1038860Y1035558D03*
X1032510Y1035558D03*
X1026160Y1035558D03*
X1019810Y1035558D03*
X1057910Y981202D03*
X1051560Y981202D03*
X1045210Y981202D03*
X1038860Y981202D03*
X1032510Y981202D03*
X1026160Y981202D03*
X1019810Y981202D03*
D25*
X1058300Y1054100D03*
X1075300Y1054100D03*
D21*
X1061720Y1088000D03*
X1061720Y1071000D03*
X1082040Y1088000D03*
X1082040Y1071000D03*
X1102360Y1088000D03*
X1102360Y1071000D03*
X1008380Y1085460D03*
X1008380Y1068460D03*
X988060Y1085460D03*
X988060Y1068460D03*
D25*
X1011800Y1051560D03*
X994800Y1051560D03*
D21*
X1056640Y926220D03*
X1056640Y943220D03*
X1079500Y926220D03*
X1079500Y943220D03*
D25*
X1063380Y962660D03*
X1080380Y962660D03*
D21*
X1018540Y926220D03*
X1018540Y943220D03*
X995680Y926220D03*
X995680Y943220D03*
D25*
X1016880Y962660D03*
X999880Y962660D03*
D21*
X927100Y1055760D03*
X927100Y1072760D03*
D25*
X966080Y1069340D03*
X949080Y1069340D03*
D79*
X941200Y1010920D03*
X989200Y1010920D03*
D21*
X2001520Y1218320D03*
X2001520Y1235320D03*
D25*
X1571380Y668020D03*
X1588380Y668020D03*
D21*
X825500Y601100D03*
X825500Y618100D03*
D25*
X1225160Y934720D03*
X1208160Y934720D03*
D80*
X446880Y1678940D02*
X426880Y1678940D01*
X484880Y1698940D02*
X484880Y1718940D01*
X446880Y1739940D02*
X426880Y1739940D01*
D81*
X612140Y1544320D03*
D82*
X612140Y1595120D03*
D50*
X2455660Y732420D03*
X2455660Y722920D03*
X2455660Y713420D03*
X2481660Y713420D03*
X2481660Y732420D03*
D21*
X2514120Y754740D03*
X2514120Y737740D03*
D25*
X2518480Y710040D03*
X2501480Y710040D03*
D40*
X2569560Y789080D03*
X2682560Y789080D03*
X2569560Y852080D03*
X2682560Y852080D03*
X2569560Y726080D03*
X2682560Y726080D03*
D41*
X2679060Y820080D03*
X2573060Y820080D03*
D43*
X135100Y1524000D03*
D44*
X155100Y1524000D03*
X175100Y1524000D03*
X195100Y1524000D03*
D43*
X998700Y1135380D03*
D44*
X1018700Y1135380D03*
X1038700Y1135380D03*
X1058700Y1135380D03*
D52*
X2513940Y776880D03*
X2494940Y776880D03*
X2513940Y803000D03*
X2504440Y803000D03*
X2494940Y803000D03*
D53*
X2451100Y799860D03*
X2451100Y769860D03*
D22*
X2534920Y773400D03*
X2534920Y801400D03*
D25*
X2499360Y839080D03*
X2499360Y822080D03*
D21*
X2476500Y839080D03*
X2476500Y822080D03*
X2476500Y783980D03*
X2476500Y800980D03*
X2522220Y822080D03*
X2522220Y839080D03*
D25*
X2473080Y858520D03*
X2490080Y858520D03*
D43*
X2519200Y652780D03*
D44*
X2499200Y652780D03*
X2479200Y652780D03*
X2459200Y652780D03*
D21*
X2452760Y749300D03*
X2469760Y749300D03*
D76*
X2476500Y342900D03*
D83*
X2501900Y342900D03*
X2476500Y317500D03*
X2501900Y317500D03*
X2476500Y292100D03*
X2501900Y292100D03*
X2476500Y266700D03*
X2501900Y266700D03*
X2476500Y241300D03*
X2501900Y241300D03*
X2476500Y215900D03*
X2501900Y215900D03*
X2476500Y190500D03*
X2501900Y190500D03*
X2476500Y165100D03*
X2501900Y165100D03*
X2476500Y139700D03*
X2501900Y139700D03*
X2476500Y114300D03*
X2501900Y114300D03*
D32*
X1165870Y1292860D03*
X1160770Y1292860D03*
X1262390Y1308100D03*
X1257290Y1308100D03*
X1165870Y1300480D03*
X1160770Y1300480D03*
D84*
X505460Y1094750D03*
X505460Y1089650D03*
D85*
X489120Y1633220D03*
X415120Y1633220D03*
D66*
X1747520Y1016000D03*
X1747520Y1041400D03*
X1772920Y1016000D03*
X1772920Y1041400D03*
X1798320Y1016000D03*
X1798320Y1041400D03*
X1823720Y1016000D03*
X1823720Y1041400D03*
X1849120Y1016000D03*
X1849120Y1041400D03*
X1874520Y1016000D03*
X1874520Y1041400D03*
X1899920Y1016000D03*
X1899920Y1041400D03*
X1925320Y1016000D03*
X1925320Y1041400D03*
X1320800Y1262380D03*
X1320800Y1287780D03*
X1346200Y1262380D03*
X1346200Y1287780D03*
X1371600Y1262380D03*
X1371600Y1287780D03*
X1397000Y1262380D03*
X1397000Y1287780D03*
X1422400Y1262380D03*
X1422400Y1287780D03*
X1447800Y1262380D03*
X1447800Y1287780D03*
X1473200Y1262380D03*
X1473200Y1287780D03*
X1498600Y1262380D03*
X1498600Y1287780D03*
D30*
X1074420Y1755140D03*
X1074420Y1729740D03*
D66*
X1313180Y1734820D03*
X1313180Y1760220D03*
X1287780Y1734820D03*
X1287780Y1760220D03*
X1262380Y1734820D03*
X1262380Y1760220D03*
X1236980Y1734820D03*
X1236980Y1760220D03*
X1211580Y1734820D03*
X1211580Y1760220D03*
X1186180Y1734820D03*
X1186180Y1760220D03*
X1160780Y1734820D03*
X1160780Y1760220D03*
X1135380Y1734820D03*
X1135380Y1760220D03*
X190500Y546100D03*
X190500Y571500D03*
X215900Y546100D03*
X215900Y571500D03*
X241300Y546100D03*
X241300Y571500D03*
X266700Y546100D03*
X266700Y571500D03*
X292100Y546100D03*
X292100Y571500D03*
X317500Y546100D03*
X317500Y571500D03*
X342900Y546100D03*
X342900Y571500D03*
X368300Y546100D03*
X368300Y571500D03*
D86*
X1220440Y1783080D03*
X1248440Y1783080D03*
D22*
X1099820Y1756440D03*
X1099820Y1728440D03*
D39*
X568960Y906780D03*
X594360Y947420D03*
X668020Y949960D03*
X695960Y1074420D03*
X721360Y1074420D03*
X358140Y1137920D03*
D30*
X975360Y1463040D03*
X975360Y1437640D03*
X970280Y1394460D03*
D32*
X1851670Y970280D03*
X1846570Y970280D03*
D84*
X1877060Y960110D03*
X1877060Y965210D03*
X1991360Y911850D03*
X1991360Y916950D03*
D87*
X347980Y906780D03*
X274320Y896620D03*
X93980Y858520D03*
X692432Y731520D03*
X576580Y723900D03*
X447040Y726440D03*
X337820Y728980D03*
X209804Y754479D03*
X101600Y723323D03*
X43180Y871220D03*
D88*
X129179Y983925D03*
D89*
X165100Y1010920D03*
D87*
X284480Y986940D03*
X307485Y939945D03*
X454660Y886460D03*
X467360Y878840D03*
X527272Y1052578D03*
X731520Y1033780D03*
X665480Y1051560D03*
X584200Y980440D03*
X589280Y924560D03*
X566420Y853440D03*
X342900Y845820D03*
X363220Y939800D03*
X358140Y1109980D03*
X497840Y1099820D03*
X429311Y1090066D03*
X289560Y1087120D03*
D89*
X106680Y1036320D03*
D87*
X248920Y985520D03*
X309880Y962660D03*
X347980Y922020D03*
X444500Y835688D03*
X492760Y835660D03*
X538480Y855980D03*
X563880Y944880D03*
X563880Y1005840D03*
X558800Y1066800D03*
X480060Y1115060D03*
X411683Y1115136D03*
X335280Y1079500D03*
X347980Y1033780D03*
X726440Y960120D03*
X660400Y1003300D03*
X495300Y1033780D03*
X657860Y982980D03*
X541020Y1074420D03*
X645160Y1026160D03*
X368300Y965200D03*
X269240Y873760D03*
X309982Y916254D03*
X256540Y1005840D03*
X518160Y977900D03*
X396240Y896620D03*
X386080Y883920D03*
X396240Y835660D03*
X344678Y885160D03*
X312420Y838200D03*
X144780Y810260D03*
X365760Y822960D03*
X365760Y883920D03*
X375920Y896620D03*
X2034540Y1813560D03*
X1986280Y1862993D03*
X1943100Y1813560D03*
X1894840Y1859280D03*
X1854200Y1808480D03*
X1805940Y1856740D03*
X1770380Y1808480D03*
X1722120Y1859280D03*
X1681480Y1808480D03*
X1630680Y1856740D03*
X1592580Y1813560D03*
X1541780Y1854200D03*
X1508760Y1811020D03*
X1460500Y1856740D03*
X1417320Y1813560D03*
X1369060Y1859280D03*
X1333500Y1816100D03*
X1280160Y1854200D03*
X1242060Y1811020D03*
X1196340Y1856740D03*
X1160780Y1813560D03*
X1107440Y1854200D03*
X1064260Y1808480D03*
X1043940Y1831340D03*
X1122680Y1788160D03*
X1084580Y1767840D03*
X1981200Y1805940D03*
X1894840Y1808480D03*
X1793240Y1793240D03*
X1699260Y1795780D03*
X1605280Y1795780D03*
X1544320Y1803400D03*
X1460500Y1803400D03*
X1366520Y1803400D03*
X1254760Y1800860D03*
X1196340Y1811020D03*
X1076960Y1808480D03*
X1043940Y1783080D03*
X1051560Y1800860D03*
X2019300Y1861820D03*
X1938020Y1861820D03*
X1851660Y1861820D03*
X1767840Y1861820D03*
X1676400Y1862993D03*
X1590040Y1861820D03*
X1503680Y1860453D03*
X1417320Y1859280D03*
X1330960Y1859280D03*
X1242060Y1861820D03*
X1153160Y1859280D03*
X1066800Y1859280D03*
X1130300Y1846580D03*
X1135380Y1859280D03*
D90*
X1206500Y1800742D03*
D91*
X563245Y146368D03*
X650558Y146368D03*
X737870Y146368D03*
X825183Y146368D03*
X912495Y146368D03*
X999808Y146368D03*
X1087120Y146368D03*
X1174433Y146368D03*
X1261745Y146368D03*
X1349058Y146368D03*
X1436370Y146368D03*
X1523683Y146368D03*
D87*
X965200Y1084580D03*
X1188720Y934720D03*
X1041400Y1076960D03*
X1030565Y965608D03*
X1041400Y942340D03*
X1019948Y1064260D03*
X1038860Y1021080D03*
X1038860Y998220D03*
X1485900Y469900D03*
X1788160Y574040D03*
X1805940Y500380D03*
X2286000Y1010920D03*
X1785620Y492760D03*
X1795780Y604520D03*
X1887220Y952500D03*
X2059940Y525780D03*
X1925320Y1079500D03*
X2019300Y901700D03*
X1993900Y988060D03*
X1828800Y876300D03*
X1993900Y896620D03*
X1795780Y777240D03*
X1871980Y1079500D03*
X1884680Y596900D03*
X1831340Y911860D03*
X1912620Y929640D03*
X1732280Y604520D03*
X2047240Y1051560D03*
X2034540Y982980D03*
X1968500Y556260D03*
X2004060Y1003300D03*
X1950720Y1013460D03*
X1750060Y576580D03*
X1758950Y486410D03*
X1755140Y457200D03*
X1795780Y469900D03*
X1826260Y579120D03*
X1844040Y500380D03*
D92*
X1864360Y972820D03*
D87*
X1480820Y1833880D03*
X1391920Y1833880D03*
X1305560Y1836420D03*
X1219200Y1836420D03*
X1076960Y1828800D03*
X269240Y632940D03*
X403860Y604520D03*
X436880Y878840D03*
X83820Y929640D03*
X331361Y717659D03*
X693420Y701040D03*
X576580Y703580D03*
X449580Y703580D03*
X217198Y701040D03*
X101628Y698500D03*
X69562Y656878D03*
X80160Y624840D03*
X99060Y642620D03*
X124460Y891540D03*
X111760Y596900D03*
X100261Y781340D03*
X102008Y817514D03*
X251460Y810260D03*
X215721Y778943D03*
X327660Y787400D03*
X347980Y637540D03*
X447040Y641740D03*
X445049Y802668D03*
X578206Y785978D03*
X603971Y637568D03*
X685876Y643687D03*
X690778Y786359D03*
X652540Y717160D03*
X261544Y651078D03*
X234569Y657606D03*
X523240Y787400D03*
X132080Y673100D03*
X147320Y596900D03*
X111760Y784860D03*
X106680Y833120D03*
X76200Y764540D03*
X83820Y706120D03*
X180340Y632460D03*
X213360Y647700D03*
X200660Y624840D03*
X203200Y716280D03*
X201168Y636270D03*
X229921Y709473D03*
X231140Y596900D03*
X182880Y769620D03*
X210820Y805180D03*
X199136Y754634D03*
X232197Y727775D03*
X254000Y779780D03*
X210931Y726329D03*
X251460Y741680D03*
X191770Y745744D03*
X368300Y681510D03*
X330200Y706120D03*
X347980Y701040D03*
X309880Y637540D03*
X269240Y657860D03*
X347980Y612140D03*
X391160Y617220D03*
X345440Y718820D03*
X386080Y759460D03*
X355600Y728980D03*
X358140Y792480D03*
X431800Y673100D03*
X474980Y627380D03*
X520700Y650240D03*
X467360Y708660D03*
X500380Y716280D03*
X464820Y728980D03*
X426720Y792480D03*
X434340Y728980D03*
X459740Y795020D03*
X406400Y797560D03*
X556260Y668020D03*
X561340Y594360D03*
X530860Y624840D03*
X591693Y672973D03*
X614680Y655320D03*
X556260Y645160D03*
X596900Y576580D03*
X589280Y706120D03*
X617220Y711200D03*
X589280Y723900D03*
X559272Y724154D03*
X525671Y766971D03*
X657860Y604520D03*
X662912Y673100D03*
X706120Y721360D03*
X662940Y561340D03*
X718820Y723900D03*
X706120Y584200D03*
X317500Y755782D03*
X309880Y800100D03*
X673100Y728980D03*
D88*
X448980Y1398780D03*
X464220Y1342900D03*
X624840Y1501140D03*
X1425880Y1386650D03*
X1468120Y1462322D03*
D87*
X792480Y1381760D03*
X1104900Y1356360D03*
X1104900Y1285240D03*
X1112520Y1262380D03*
X1211580Y1336040D03*
X1178560Y1506220D03*
X1140460Y1539240D03*
X1104900Y1544320D03*
X1013460Y1483360D03*
X1049020Y1435100D03*
X1003300Y1333500D03*
X1160780Y1419860D03*
X1117722Y1465580D03*
X967740Y1295400D03*
X812800Y1676400D03*
X802640Y1612900D03*
X563880Y1597660D03*
X1201420Y965200D03*
D90*
X2189480Y1010920D03*
X2144685Y1096355D03*
X1173480Y972820D03*
D89*
X1854200Y215900D03*
X1844040Y335280D03*
X2217420Y317500D03*
X2349500Y302260D03*
X2395474Y261926D03*
X2357120Y175260D03*
X2169160Y183336D03*
X2227580Y246380D03*
X1755140Y335280D03*
X2186940Y330200D03*
X2288540Y307340D03*
X2400300Y320040D03*
X2420061Y260425D03*
X2387600Y180002D03*
X2143760Y254000D03*
X2438400Y208280D03*
X2336800Y223520D03*
X1917700Y213360D03*
D87*
X1991360Y220980D03*
D88*
X2326437Y342900D03*
D89*
X2281058Y134504D03*
X2138680Y198120D03*
D87*
X2047240Y210820D03*
D89*
X2326640Y144780D03*
X1838960Y302260D03*
D87*
X2250440Y299720D03*
D89*
X2274368Y300799D03*
D87*
X1775460Y274320D03*
D89*
X2349500Y137160D03*
X2327656Y184658D03*
X2395220Y152400D03*
X2344420Y185420D03*
D87*
X2242820Y345440D03*
X1882140Y345440D03*
D89*
X2331720Y304800D03*
X2329180Y291950D03*
X2318258Y280416D03*
X2293620Y289560D03*
X2291080Y271780D03*
D88*
X2336800Y200660D03*
X2194560Y111760D03*
X2258060Y269240D03*
X2242820Y260902D03*
X1386840Y1371600D03*
D87*
X525780Y1328420D03*
X845820Y1569720D03*
X911860Y1597660D03*
X782320Y1407160D03*
X1033780Y1343660D03*
X1120140Y1303020D03*
X1455420Y1600200D03*
X1168400Y1475740D03*
X1107440Y1473200D03*
X1038860Y1483360D03*
X1178560Y1343660D03*
X1130300Y1452880D03*
X1160780Y1407160D03*
X1233170Y1416050D03*
X558800Y1300480D03*
D90*
X911860Y1417320D03*
X886460Y1353820D03*
X1247140Y965200D03*
D88*
X540420Y1365760D03*
D87*
X746760Y1681480D03*
X769620Y1641828D03*
X886460Y1681480D03*
X919480Y1640840D03*
X857250Y1672590D03*
X175548Y188248D03*
X162560Y182880D03*
D88*
X289440Y243960D03*
X172805Y256625D03*
X209848Y194783D03*
X96520Y320040D03*
X363220Y279400D03*
X246380Y276860D03*
X195580Y276860D03*
X360680Y302260D03*
D87*
X230830Y256910D03*
D88*
X368300Y264160D03*
D87*
X2224540Y2341880D03*
X2148340Y2331720D03*
X2186440Y2298700D03*
D88*
X365760Y231140D03*
X368300Y248920D03*
X312420Y243840D03*
X271780Y220980D03*
X228600Y241300D03*
X363220Y332740D03*
X411480Y274320D03*
D90*
X494540Y1579880D03*
D88*
X1155700Y1353820D03*
X1056640Y1404620D03*
X1082040Y1386840D03*
X1087120Y1366520D03*
D87*
X1045101Y1349901D03*
D88*
X1066800Y1371600D03*
D87*
X1044222Y1366520D03*
X802640Y2232660D03*
X896620Y1953260D03*
X1267460Y1958340D03*
X1303020Y2057400D03*
X1478280Y2098040D03*
X1638300Y2176780D03*
X1826260Y2225040D03*
X1988820Y2250440D03*
X535940Y2286000D03*
X1450340Y2306320D03*
X1056640Y2032000D03*
X805180Y2092960D03*
X840740Y2077720D03*
X1148080Y1958340D03*
X1226820Y2339340D03*
X1303020Y2156460D03*
X769620Y2369820D03*
X1440180Y2197100D03*
X784860Y2369820D03*
X1524000Y2141220D03*
X1737360Y2232660D03*
X657860Y2265680D03*
X810260Y2270760D03*
X802640Y2189480D03*
X922020Y1587500D03*
X1475740Y1506220D03*
X835660Y1645920D03*
X1490980Y1496060D03*
X886460Y1605280D03*
X1397000Y1516380D03*
X1346200Y1432560D03*
X980440Y1506220D03*
X1203332Y1452442D03*
X916940Y1546860D03*
X1221740Y1493520D03*
X1206500Y1473200D03*
X1206500Y1488440D03*
X690880Y1564640D03*
X581660Y1638300D03*
X777240Y1460500D03*
X1046371Y1298049D03*
X1055261Y1312019D03*
X1066800Y1351562D03*
X988060Y1320800D03*
X1005840Y1524000D03*
X1036320Y1566616D03*
X928370Y1568450D03*
X922020Y1308100D03*
X909320Y1308100D03*
X904023Y1567398D03*
X899160Y1320800D03*
X1295400Y1346200D03*
X1308100Y1351280D03*
X1315611Y1361549D03*
X1315611Y1374249D03*
X1094740Y1460500D03*
X1094486Y1475740D03*
X1018540Y1566616D03*
X1033780Y1524000D03*
X1137920Y1468120D03*
X1070211Y1474071D03*
X1150366Y1430020D03*
X1152144Y1442720D03*
X1162304Y1449804D03*
X1140018Y1420085D03*
X2409960Y2344420D03*
X2333760Y2334260D03*
X2371860Y2301240D03*
X2222000Y2098040D03*
X2145800Y2087880D03*
X2183900Y2054860D03*
X2415040Y2098040D03*
X2338840Y2087880D03*
X2376940Y2054860D03*
X137660Y2087880D03*
X213860Y2098040D03*
X175760Y2131060D03*
X2537960Y1836420D03*
X2614160Y1846580D03*
X2576060Y1879600D03*
X2204720Y1853700D03*
X2214880Y1777500D03*
X2247900Y1815600D03*
X2590300Y2344420D03*
X2514100Y2334260D03*
X2552200Y2301240D03*
X2679200Y269240D03*
X2603000Y259080D03*
X2641100Y226060D03*
X2499360Y520200D03*
X2509520Y444000D03*
X2542540Y482100D03*
X505460Y1054100D03*
X510540Y1112520D03*
X1036320Y1099820D03*
X1013460Y906780D03*
X1087120Y894080D03*
X1056640Y906780D03*
X1056640Y1115060D03*
D92*
X1079500Y1143000D03*
D87*
X1493520Y1130300D03*
X980440Y1054100D03*
X1117600Y883920D03*
X1572260Y695960D03*
X1092200Y967740D03*
X848360Y599440D03*
X2514600Y723900D03*
X2448560Y820420D03*
X2512060Y851944D03*
X2496820Y746760D03*
X2468372Y734060D03*
X2438400Y751840D03*
X2484120Y746760D03*
X2476500Y769620D03*
X2453736Y698596D03*
D14*
X1381760Y279400D03*
X1412240Y279400D03*
X1442720Y279400D03*
X1323340Y279400D03*
X1292860Y279400D03*
X1262380Y279400D03*
X1206500Y279400D03*
X1176020Y279400D03*
X1145540Y279400D03*
X1087120Y279400D03*
X1056640Y279400D03*
X1026160Y279400D03*
X980440Y279400D03*
X949960Y279400D03*
X916940Y279400D03*
X866140Y279400D03*
X835660Y279400D03*
X805180Y279400D03*
D88*
X1137920Y1353820D03*
X1247140Y1304842D03*
D92*
X520700Y906780D03*
X521168Y952500D03*
X485140Y1046480D03*
X474980Y1054100D03*
X1991360Y927100D03*
M02*
