G04 EAGLE Gerber RS-274X export*
G75*
%MOMM*%
%FSLAX34Y34*%
%LPD*%
%INSoldermask Bottom*%
%IPPOS*%
%AMOC8*
5,1,8,0,0,1.08239X$1,22.5*%
G01*
%ADD10C,3.378200*%
%ADD11C,5.283200*%
%ADD12C,2.235200*%
%ADD13C,3.759200*%
%ADD14C,3.251200*%
%ADD15C,3.703200*%
%ADD16C,3.886200*%
%ADD17P,2.309387X8X202.500000*%
%ADD18P,2.309387X8X22.500000*%
%ADD19R,2.984500X2.984500*%
%ADD20R,2.003200X2.003200*%
%ADD21P,1.869504X8X112.500000*%
%ADD22P,1.869504X8X22.500000*%
%ADD23C,2.603200*%
%ADD24C,2.403200*%
%ADD25C,2.082800*%
%ADD26R,1.511200X1.511200*%
%ADD27C,1.511200*%
%ADD28P,1.649562X8X22.500000*%
%ADD29C,1.727200*%
%ADD30R,1.600200X1.600200*%
%ADD31C,3.479800*%
%ADD32R,2.679700X2.679700*%
%ADD33P,1.869504X8X202.500000*%
%ADD34C,1.711200*%
%ADD35C,1.625600*%
%ADD36C,2.753200*%
%ADD37R,1.711200X1.711200*%
%ADD38C,2.903200*%
%ADD39R,1.727200X1.727200*%
%ADD40P,2.309387X8X112.500000*%
%ADD41C,2.203200*%
%ADD42C,2.743200*%
%ADD43P,2.969212X8X112.500000*%
%ADD44P,1.869504X8X292.500000*%
%ADD45C,0.959600*%
%ADD46C,1.159600*%
%ADD47C,1.259600*%
%ADD48C,1.553200*%
%ADD49C,7.315200*%
%ADD50C,1.109600*%


D10*
X824230Y943610D03*
X1512570Y895350D03*
X824230Y462280D03*
X1634490Y946150D03*
X2322830Y897890D03*
X1634998Y464566D03*
X2000250Y1563624D03*
X2688336Y1515364D03*
X2031492Y1104646D03*
X1521460Y318770D03*
X1667510Y320040D03*
X673100Y265430D03*
X55880Y543560D03*
X58420Y1127760D03*
X718820Y1132840D03*
X721360Y538480D03*
X1162050Y716280D03*
X2051050Y708660D03*
X2355850Y1346200D03*
X1443990Y1112520D03*
X824230Y1082040D03*
X2688590Y1071880D03*
X2089150Y1562100D03*
X892810Y508000D03*
X2327910Y457200D03*
X551180Y321310D03*
X2084070Y220980D03*
X2419350Y127000D03*
X1908810Y297180D03*
X1667510Y121920D03*
D11*
X833120Y218440D03*
X947420Y218440D03*
X1061720Y218440D03*
X1176020Y218440D03*
X1290320Y218440D03*
X1417320Y218440D03*
D12*
X2158246Y2384044D03*
D13*
X67310Y375920D03*
X384810Y375920D03*
D14*
X551180Y1788160D03*
X703580Y1788160D03*
X478790Y2316480D03*
X353060Y2138680D03*
X767080Y2136140D03*
X485140Y1971040D03*
X1290320Y2004060D03*
X1803400Y2039620D03*
X1381760Y2339340D03*
X1765300Y2326640D03*
X348437Y1596136D03*
X731977Y1608785D03*
X310337Y1309091D03*
X823443Y1273454D03*
X1628546Y1240536D03*
X1635049Y1585849D03*
X353060Y2037080D03*
X1760677Y1306500D03*
X1574800Y1988820D03*
X1676400Y2227580D03*
X1866900Y2151380D03*
X1346200Y2136140D03*
X1109980Y2131060D03*
X955040Y2009140D03*
X1010920Y2098040D03*
X1285240Y2346960D03*
X693420Y1277620D03*
X1521460Y236220D03*
X551180Y238760D03*
D12*
X2343666Y2386584D03*
X2155706Y2140204D03*
X2348746Y2140204D03*
X2524006Y2386584D03*
D10*
X2029460Y1737360D03*
X1026160Y1737360D03*
D13*
X124460Y1414780D03*
X124460Y1264920D03*
D15*
X719340Y2250080D03*
X403340Y2250080D03*
X719340Y1953080D03*
X403340Y1953080D03*
D16*
X2682240Y89408D03*
X2681986Y331978D03*
X2679192Y523240D03*
X2436622Y522986D03*
X134620Y2267712D03*
X134874Y2025142D03*
X2384552Y1856740D03*
X2141982Y1856486D03*
X2534920Y2016252D03*
X2535174Y1773682D03*
D17*
X236220Y1018540D03*
D18*
X236220Y1043940D03*
D19*
X1494955Y2319020D03*
X1588605Y2319020D03*
D20*
X1516780Y2244020D03*
X1541780Y2244020D03*
X1566780Y2244020D03*
D19*
X1865795Y2324100D03*
X1959445Y2324100D03*
D20*
X1887620Y2249100D03*
X1912620Y2249100D03*
X1937620Y2249100D03*
D21*
X850900Y665480D03*
X825500Y665480D03*
X850900Y690880D03*
X825500Y690880D03*
X850900Y716280D03*
X825500Y716280D03*
X850900Y741680D03*
X825500Y741680D03*
X1661160Y668020D03*
X1635760Y668020D03*
X1661160Y693420D03*
X1635760Y693420D03*
X1661160Y718820D03*
X1635760Y718820D03*
X1661160Y744220D03*
X1635760Y744220D03*
X2026920Y1285240D03*
X2001520Y1285240D03*
X2026920Y1310640D03*
X2001520Y1310640D03*
X2026920Y1336040D03*
X2001520Y1336040D03*
X2026920Y1361440D03*
X2001520Y1361440D03*
X1511300Y589280D03*
X1485900Y589280D03*
X1511300Y614680D03*
X1485900Y614680D03*
X1511300Y640080D03*
X1485900Y640080D03*
X1511300Y665480D03*
X1485900Y665480D03*
X1511300Y690880D03*
X1485900Y690880D03*
X1511300Y716280D03*
X1485900Y716280D03*
X1511300Y741680D03*
X1485900Y741680D03*
X1511300Y767080D03*
X1485900Y767080D03*
X1511300Y792480D03*
X1485900Y792480D03*
X1511300Y817880D03*
X1485900Y817880D03*
X2321560Y591820D03*
X2296160Y591820D03*
X2321560Y617220D03*
X2296160Y617220D03*
X2321560Y642620D03*
X2296160Y642620D03*
X2321560Y668020D03*
X2296160Y668020D03*
X2321560Y693420D03*
X2296160Y693420D03*
X2321560Y718820D03*
X2296160Y718820D03*
X2321560Y744220D03*
X2296160Y744220D03*
X2321560Y769620D03*
X2296160Y769620D03*
X2321560Y795020D03*
X2296160Y795020D03*
X2321560Y820420D03*
X2296160Y820420D03*
X2687320Y1209040D03*
X2661920Y1209040D03*
X2687320Y1234440D03*
X2661920Y1234440D03*
X2687320Y1259840D03*
X2661920Y1259840D03*
X2687320Y1285240D03*
X2661920Y1285240D03*
X2687320Y1310640D03*
X2661920Y1310640D03*
X2687320Y1336040D03*
X2661920Y1336040D03*
X2687320Y1361440D03*
X2661920Y1361440D03*
X2687320Y1386840D03*
X2661920Y1386840D03*
X2687320Y1412240D03*
X2661920Y1412240D03*
X2687320Y1437640D03*
X2661920Y1437640D03*
D22*
X1079246Y474472D03*
X1079246Y499872D03*
X1104646Y474472D03*
X1104646Y499872D03*
X1130046Y474472D03*
X1130046Y499872D03*
X1155446Y474472D03*
X1155446Y499872D03*
X1180846Y474472D03*
X1180846Y499872D03*
X1206246Y474472D03*
X1206246Y499872D03*
X1231646Y474472D03*
X1231646Y499872D03*
X1257046Y474472D03*
X1257046Y499872D03*
X1282446Y474472D03*
X1282446Y499872D03*
X1307846Y474472D03*
X1307846Y499872D03*
X1333246Y474472D03*
X1333246Y499872D03*
X1358646Y474472D03*
X1358646Y499872D03*
X1384046Y474472D03*
X1384046Y499872D03*
X1409446Y474472D03*
X1409446Y499872D03*
X1434846Y474472D03*
X1434846Y499872D03*
X1889252Y477266D03*
X1889252Y502666D03*
X1914652Y477266D03*
X1914652Y502666D03*
X1940052Y477266D03*
X1940052Y502666D03*
X1965452Y477266D03*
X1965452Y502666D03*
X1990852Y477266D03*
X1990852Y502666D03*
X2016252Y477266D03*
X2016252Y502666D03*
X2041652Y477266D03*
X2041652Y502666D03*
X2067052Y477266D03*
X2067052Y502666D03*
X2092452Y477266D03*
X2092452Y502666D03*
X2117852Y477266D03*
X2117852Y502666D03*
X2143252Y477266D03*
X2143252Y502666D03*
X2168652Y477266D03*
X2168652Y502666D03*
X2194052Y477266D03*
X2194052Y502666D03*
X2219452Y477266D03*
X2219452Y502666D03*
X2244852Y477266D03*
X2244852Y502666D03*
X2254758Y1094486D03*
X2254758Y1119886D03*
X2280158Y1094486D03*
X2280158Y1119886D03*
X2305558Y1094486D03*
X2305558Y1119886D03*
X2330958Y1094486D03*
X2330958Y1119886D03*
X2356358Y1094486D03*
X2356358Y1119886D03*
X2381758Y1094486D03*
X2381758Y1119886D03*
X2407158Y1094486D03*
X2407158Y1119886D03*
X2432558Y1094486D03*
X2432558Y1119886D03*
X2457958Y1094486D03*
X2457958Y1119886D03*
X2483358Y1094486D03*
X2483358Y1119886D03*
X2508758Y1094486D03*
X2508758Y1119886D03*
X2534158Y1094486D03*
X2534158Y1119886D03*
X2559558Y1094486D03*
X2559558Y1119886D03*
X2584958Y1094486D03*
X2584958Y1119886D03*
X2610358Y1094486D03*
X2610358Y1119886D03*
D23*
X260000Y1713640D03*
X147000Y1713640D03*
X260000Y1776640D03*
X147000Y1776640D03*
X260000Y1650640D03*
X147000Y1650640D03*
D24*
X150500Y1744640D03*
X256500Y1744640D03*
D25*
X1384554Y2015744D03*
X1449578Y2015744D03*
X1384554Y1970532D03*
X1449578Y1970532D03*
X1546352Y2095500D03*
X1611376Y2095500D03*
X1546352Y2050288D03*
X1611376Y2050288D03*
X1730756Y2145792D03*
X1795780Y2145792D03*
X1730756Y2100580D03*
X1795780Y2100580D03*
X1933702Y2136394D03*
X1998726Y2136394D03*
X1933702Y2091182D03*
X1998726Y2091182D03*
X879602Y2270506D03*
X944626Y2270506D03*
X879602Y2225294D03*
X944626Y2225294D03*
X876808Y2122170D03*
X941832Y2122170D03*
X876808Y2076958D03*
X941832Y2076958D03*
X934212Y2195576D03*
X999236Y2195576D03*
X934212Y2150364D03*
X999236Y2150364D03*
X825246Y2196084D03*
X890270Y2196084D03*
X825246Y2150872D03*
X890270Y2150872D03*
X799592Y2002536D03*
X864616Y2002536D03*
X799592Y1957324D03*
X864616Y1957324D03*
X1123950Y2037334D03*
X1188974Y2037334D03*
X1123950Y1992122D03*
X1188974Y1992122D03*
X1163574Y2148840D03*
X1228598Y2148840D03*
X1163574Y2103628D03*
X1228598Y2103628D03*
D26*
X1531620Y1419380D03*
D27*
X1531620Y1399380D03*
X1531620Y1379380D03*
X1531620Y1359380D03*
D26*
X1600200Y1419380D03*
D27*
X1600200Y1399380D03*
X1600200Y1379380D03*
X1600200Y1359380D03*
D26*
X1668780Y1419380D03*
D27*
X1668780Y1399380D03*
X1668780Y1379380D03*
X1668780Y1359380D03*
D26*
X1737360Y1419380D03*
D27*
X1737360Y1399380D03*
X1737360Y1379380D03*
X1737360Y1359380D03*
D26*
X1805940Y1419380D03*
D27*
X1805940Y1399380D03*
X1805940Y1379380D03*
X1805940Y1359380D03*
D26*
X1231900Y1094740D03*
X1257300Y1094740D03*
X1308100Y1094740D03*
X1333500Y1094740D03*
X1358900Y1094740D03*
D28*
X1125220Y1115060D03*
X1137920Y1134110D03*
X1150620Y1115060D03*
X1132840Y1069340D03*
X1145540Y1088390D03*
X1158240Y1069340D03*
D29*
X914400Y1117600D02*
X914400Y1132840D01*
X939800Y1132840D02*
X939800Y1117600D01*
D27*
X492760Y1549400D03*
X467360Y1549400D03*
X441960Y1549400D03*
D30*
X181610Y331470D03*
X194310Y306070D03*
X207010Y331470D03*
X219710Y306070D03*
X232410Y331470D03*
X245110Y306070D03*
X257810Y331470D03*
X270510Y306070D03*
D31*
X168910Y394970D03*
X283210Y394970D03*
D32*
X147320Y356108D03*
X304800Y356108D03*
D22*
X160020Y723900D03*
X160020Y698500D03*
X111760Y541020D03*
X60960Y744220D03*
X58420Y688340D03*
X111760Y566420D03*
X276860Y728980D03*
X276860Y703580D03*
X154940Y614680D03*
X160020Y749300D03*
X160020Y673100D03*
X180340Y614680D03*
X381000Y741680D03*
X383540Y685800D03*
X264160Y612140D03*
X299720Y751840D03*
X299720Y690880D03*
X289560Y612140D03*
X492760Y744220D03*
X492760Y688340D03*
X436880Y548640D03*
X396240Y777240D03*
X411480Y716280D03*
X462280Y548640D03*
X612140Y795020D03*
X617220Y736600D03*
X508000Y548640D03*
X538480Y779780D03*
X538480Y754380D03*
X533400Y548640D03*
X612140Y828040D03*
X728980Y784860D03*
X589280Y548640D03*
X635000Y812800D03*
X647700Y787400D03*
X617220Y548640D03*
D18*
X144780Y942340D03*
X170180Y942340D03*
X142240Y1130300D03*
X142240Y1104900D03*
D26*
X624360Y1122680D03*
D27*
X604360Y1122680D03*
X584360Y1122680D03*
X564360Y1122680D03*
D26*
X629920Y879320D03*
D27*
X629920Y899320D03*
X629920Y919320D03*
X629920Y939320D03*
D26*
X2036600Y309880D03*
D27*
X2016600Y309880D03*
X1996600Y309880D03*
X1976600Y309880D03*
D26*
X2155980Y309880D03*
D27*
X2135980Y309880D03*
X2115980Y309880D03*
X2095980Y309880D03*
D26*
X954560Y1249680D03*
D27*
X934560Y1249680D03*
X914560Y1249680D03*
X894560Y1249680D03*
D26*
X1094260Y1249680D03*
D27*
X1074260Y1249680D03*
X1054260Y1249680D03*
X1034260Y1249680D03*
X1648460Y1023620D03*
X1648460Y1049020D03*
X1648460Y1074420D03*
D22*
X1455420Y1026160D03*
D33*
X1455420Y1000760D03*
D21*
X1234440Y1018540D03*
X1259840Y1018540D03*
D18*
X1798320Y223520D03*
D17*
X1917700Y127000D03*
D18*
X1798320Y198120D03*
X2174240Y132080D03*
X2148840Y132080D03*
D26*
X1686560Y245900D03*
D27*
X1686560Y225900D03*
X1686560Y205900D03*
X1686560Y185900D03*
D34*
X873760Y22860D03*
X873760Y48260D03*
X899160Y22860D03*
X899160Y48260D03*
X924560Y22860D03*
X924560Y48260D03*
X949960Y22860D03*
X949960Y48260D03*
X975360Y22860D03*
X975360Y48260D03*
X1000760Y22860D03*
X1000760Y48260D03*
X1026160Y22860D03*
X1026160Y48260D03*
X1051560Y22860D03*
X1051560Y48260D03*
X1076960Y22860D03*
X1076960Y48260D03*
X1102360Y22860D03*
X1102360Y48260D03*
D29*
X789940Y205740D02*
X774700Y205740D01*
X774700Y231140D02*
X789940Y231140D01*
X889000Y205740D02*
X904240Y205740D01*
X904240Y231140D02*
X889000Y231140D01*
X1358900Y205740D02*
X1374140Y205740D01*
X1374140Y231140D02*
X1358900Y231140D01*
X1018540Y205740D02*
X1003300Y205740D01*
X1003300Y231140D02*
X1018540Y231140D01*
D26*
X296700Y1120140D03*
D27*
X276700Y1120140D03*
X256700Y1120140D03*
X236700Y1120140D03*
D17*
X2085340Y264160D03*
X2059940Y264160D03*
D26*
X466880Y1231900D03*
D27*
X446880Y1231900D03*
X426880Y1231900D03*
X406880Y1231900D03*
D26*
X344960Y1231900D03*
D27*
X324960Y1231900D03*
X304960Y1231900D03*
X284960Y1231900D03*
D18*
X652180Y1363220D03*
X746160Y1342900D03*
X720760Y1342900D03*
X669960Y1416560D03*
X669960Y1441960D03*
D26*
X124460Y203680D03*
D27*
X124460Y223680D03*
X124460Y243680D03*
X124460Y263680D03*
D26*
X71600Y144780D03*
D27*
X91600Y144780D03*
X111600Y144780D03*
X131600Y144780D03*
D26*
X55880Y203680D03*
D27*
X55880Y223680D03*
X55880Y243680D03*
X55880Y263680D03*
D26*
X180820Y144780D03*
D27*
X200820Y144780D03*
X220820Y144780D03*
X240820Y144780D03*
D26*
X307340Y184940D03*
D27*
X307340Y164940D03*
X307340Y144940D03*
X307340Y124940D03*
D26*
X375920Y184940D03*
D27*
X375920Y164940D03*
X375920Y144940D03*
X375920Y124940D03*
D26*
X2199140Y2310920D03*
D27*
X2199140Y2290920D03*
X2199140Y2270920D03*
X2199140Y2250920D03*
D18*
X2166120Y2217420D03*
X2176280Y2344420D03*
D35*
X876440Y1749920D03*
X866240Y1724520D03*
X856040Y1749920D03*
X845840Y1724520D03*
X835640Y1749920D03*
X825440Y1724520D03*
X815240Y1749920D03*
X805040Y1724520D03*
D23*
X921990Y1724520D03*
X759490Y1724520D03*
D36*
X915140Y1772920D03*
X766340Y1772920D03*
D25*
X518500Y2357036D03*
X583524Y2357036D03*
X518500Y2311824D03*
X583524Y2311824D03*
D29*
X716280Y1706880D02*
X716280Y1691640D01*
X690880Y1691640D02*
X690880Y1706880D01*
X665480Y1706880D02*
X665480Y1691640D01*
X640080Y1691640D02*
X640080Y1706880D01*
X614680Y1706880D02*
X614680Y1691640D01*
X589280Y1691640D02*
X589280Y1706880D01*
X563880Y1706880D02*
X563880Y1691640D01*
X538480Y1691640D02*
X538480Y1706880D01*
X287020Y1513840D02*
X271780Y1513840D01*
X271780Y1539240D02*
X287020Y1539240D01*
D34*
X985520Y2319720D03*
X985520Y2345120D03*
X960120Y2319720D03*
X960120Y2345120D03*
X934720Y2319720D03*
X934720Y2345120D03*
X909320Y2319720D03*
X909320Y2345120D03*
X883920Y2319720D03*
X883920Y2345120D03*
X858520Y2319720D03*
X858520Y2345120D03*
X833120Y2319720D03*
X833120Y2345120D03*
X807720Y2319720D03*
X807720Y2345120D03*
X782320Y2319720D03*
X782320Y2345120D03*
X756920Y2319720D03*
X756920Y2345120D03*
X731520Y2319720D03*
X731520Y2345120D03*
X706120Y2319720D03*
X706120Y2345120D03*
X1140060Y2391560D03*
D37*
X1090060Y2391560D03*
D34*
X1090060Y2246560D03*
X1115060Y2246560D03*
X1140060Y2246560D03*
D38*
X1058060Y2308060D02*
X1058060Y2335060D01*
X1172060Y2335060D02*
X1172060Y2308060D01*
D34*
X1366980Y2229220D03*
X1366980Y2254620D03*
X1341580Y2229220D03*
X1341580Y2254620D03*
X1316180Y2229220D03*
X1316180Y2254620D03*
X1290780Y2229220D03*
X1290780Y2254620D03*
X1265380Y2229220D03*
X1265380Y2254620D03*
D29*
X522620Y2250420D02*
X522620Y2265660D01*
X548020Y2265660D02*
X548020Y2250420D01*
X573420Y2250420D02*
X573420Y2265660D01*
X598820Y2265660D02*
X598820Y2250420D01*
D39*
X746760Y1498600D03*
D22*
X746760Y1524000D03*
X772160Y1498600D03*
X772160Y1524000D03*
X797560Y1498600D03*
X797560Y1524000D03*
X822960Y1498600D03*
X822960Y1524000D03*
X848360Y1498600D03*
X848360Y1524000D03*
D39*
X1128344Y1589049D03*
D22*
X1128344Y1614449D03*
X1153744Y1589049D03*
X1153744Y1614449D03*
X1179144Y1589049D03*
X1179144Y1614449D03*
X1204544Y1589049D03*
X1204544Y1614449D03*
X1229944Y1589049D03*
X1229944Y1614449D03*
X1255344Y1589049D03*
X1255344Y1614449D03*
X1280744Y1589049D03*
X1280744Y1614449D03*
X1306144Y1589049D03*
X1306144Y1614449D03*
X1331544Y1589049D03*
X1331544Y1614449D03*
X1356944Y1589049D03*
X1356944Y1614449D03*
X1382344Y1589049D03*
X1382344Y1614449D03*
X1407744Y1589049D03*
X1407744Y1614449D03*
D29*
X193040Y1292860D02*
X177800Y1292860D01*
X177800Y1267460D02*
X193040Y1267460D01*
X193040Y1318260D02*
X177800Y1318260D01*
X180340Y1412240D02*
X195580Y1412240D01*
X195580Y1386840D02*
X180340Y1386840D01*
X180340Y1437640D02*
X195580Y1437640D01*
D26*
X2384560Y2313460D03*
D27*
X2384560Y2293460D03*
X2384560Y2273460D03*
X2384560Y2253460D03*
D18*
X2351540Y2219960D03*
X2361700Y2346960D03*
D26*
X2196600Y2067080D03*
D27*
X2196600Y2047080D03*
X2196600Y2027080D03*
X2196600Y2007080D03*
D18*
X2163580Y1973580D03*
X2173740Y2100580D03*
D26*
X2389640Y2067080D03*
D27*
X2389640Y2047080D03*
X2389640Y2027080D03*
X2389640Y2007080D03*
D18*
X2356620Y1973580D03*
X2366780Y2100580D03*
D26*
X163060Y2118840D03*
D27*
X163060Y2138840D03*
X163060Y2158840D03*
X163060Y2178840D03*
D17*
X196080Y2212340D03*
X185920Y2085340D03*
D26*
X2563360Y1867380D03*
D27*
X2563360Y1887380D03*
X2563360Y1907380D03*
X2563360Y1927380D03*
D17*
X2596380Y1960880D03*
X2586220Y1833880D03*
D26*
X2235680Y1828300D03*
D27*
X2255680Y1828300D03*
X2275680Y1828300D03*
X2295680Y1828300D03*
D40*
X2329180Y1795280D03*
X2202180Y1805440D03*
D26*
X2564900Y2313460D03*
D27*
X2564900Y2293460D03*
X2564900Y2273460D03*
X2564900Y2253460D03*
D18*
X2531880Y2219960D03*
X2542040Y2346960D03*
D26*
X2653800Y238280D03*
D27*
X2653800Y218280D03*
X2653800Y198280D03*
X2653800Y178280D03*
D18*
X2620780Y144780D03*
X2630940Y271780D03*
D26*
X2530320Y494800D03*
D27*
X2550320Y494800D03*
X2570320Y494800D03*
X2590320Y494800D03*
D40*
X2623820Y461780D03*
X2496820Y471940D03*
D26*
X622300Y1071400D03*
D27*
X622300Y1051400D03*
X622300Y1031400D03*
X622300Y1011400D03*
D26*
X1228880Y1259840D03*
D27*
X1208880Y1259840D03*
X1188880Y1259840D03*
X1168880Y1259840D03*
D41*
X446880Y1678940D02*
X426880Y1678940D01*
X484880Y1698940D02*
X484880Y1718940D01*
X446880Y1739940D02*
X426880Y1739940D01*
D42*
X612140Y1544320D03*
D43*
X612140Y1595120D03*
D23*
X2569560Y789080D03*
X2682560Y789080D03*
X2569560Y852080D03*
X2682560Y852080D03*
X2569560Y726080D03*
X2682560Y726080D03*
D24*
X2679060Y820080D03*
X2573060Y820080D03*
D26*
X135100Y1524000D03*
D27*
X155100Y1524000D03*
X175100Y1524000D03*
X195100Y1524000D03*
D26*
X998700Y1135380D03*
D27*
X1018700Y1135380D03*
X1038700Y1135380D03*
X1058700Y1135380D03*
D26*
X2519200Y652780D03*
D27*
X2499200Y652780D03*
X2479200Y652780D03*
X2459200Y652780D03*
D39*
X2476500Y342900D03*
D44*
X2501900Y342900D03*
X2476500Y317500D03*
X2501900Y317500D03*
X2476500Y292100D03*
X2501900Y292100D03*
X2476500Y266700D03*
X2501900Y266700D03*
X2476500Y241300D03*
X2501900Y241300D03*
X2476500Y215900D03*
X2501900Y215900D03*
X2476500Y190500D03*
X2501900Y190500D03*
X2476500Y165100D03*
X2501900Y165100D03*
X2476500Y139700D03*
X2501900Y139700D03*
X2476500Y114300D03*
X2501900Y114300D03*
D34*
X1747520Y1016000D03*
X1747520Y1041400D03*
X1772920Y1016000D03*
X1772920Y1041400D03*
X1798320Y1016000D03*
X1798320Y1041400D03*
X1823720Y1016000D03*
X1823720Y1041400D03*
X1849120Y1016000D03*
X1849120Y1041400D03*
X1874520Y1016000D03*
X1874520Y1041400D03*
X1899920Y1016000D03*
X1899920Y1041400D03*
X1925320Y1016000D03*
X1925320Y1041400D03*
X1320800Y1262380D03*
X1320800Y1287780D03*
X1346200Y1262380D03*
X1346200Y1287780D03*
X1371600Y1262380D03*
X1371600Y1287780D03*
X1397000Y1262380D03*
X1397000Y1287780D03*
X1422400Y1262380D03*
X1422400Y1287780D03*
X1447800Y1262380D03*
X1447800Y1287780D03*
X1473200Y1262380D03*
X1473200Y1287780D03*
X1498600Y1262380D03*
X1498600Y1287780D03*
D18*
X1074420Y1755140D03*
X1074420Y1729740D03*
D34*
X1313180Y1734820D03*
X1313180Y1760220D03*
X1287780Y1734820D03*
X1287780Y1760220D03*
X1262380Y1734820D03*
X1262380Y1760220D03*
X1236980Y1734820D03*
X1236980Y1760220D03*
X1211580Y1734820D03*
X1211580Y1760220D03*
X1186180Y1734820D03*
X1186180Y1760220D03*
X1160780Y1734820D03*
X1160780Y1760220D03*
X1135380Y1734820D03*
X1135380Y1760220D03*
X190500Y546100D03*
X190500Y571500D03*
X215900Y546100D03*
X215900Y571500D03*
X241300Y546100D03*
X241300Y571500D03*
X266700Y546100D03*
X266700Y571500D03*
X292100Y546100D03*
X292100Y571500D03*
X317500Y546100D03*
X317500Y571500D03*
X342900Y546100D03*
X342900Y571500D03*
X368300Y546100D03*
X368300Y571500D03*
D22*
X568960Y906780D03*
X594360Y947420D03*
X668020Y949960D03*
X695960Y1074420D03*
X721360Y1074420D03*
X358140Y1137920D03*
D18*
X975360Y1463040D03*
X975360Y1437640D03*
X970280Y1394460D03*
D45*
X347980Y906780D03*
X274320Y896620D03*
X93980Y858520D03*
X692432Y731520D03*
X576580Y723900D03*
X447040Y726440D03*
X337820Y728980D03*
X209804Y754479D03*
X101600Y723323D03*
X43180Y871220D03*
D46*
X129179Y983925D03*
D47*
X165100Y1010920D03*
D45*
X284480Y986940D03*
X307485Y939945D03*
X454660Y886460D03*
X467360Y878840D03*
X527272Y1052578D03*
X731520Y1033780D03*
X665480Y1051560D03*
X584200Y980440D03*
X589280Y924560D03*
X566420Y853440D03*
X342900Y845820D03*
X363220Y939800D03*
X358140Y1109980D03*
X497840Y1099820D03*
X429311Y1090066D03*
X289560Y1087120D03*
D47*
X106680Y1036320D03*
D45*
X248920Y985520D03*
X309880Y962660D03*
X347980Y922020D03*
X444500Y835688D03*
X492760Y835660D03*
X538480Y855980D03*
X563880Y944880D03*
X563880Y1005840D03*
X558800Y1066800D03*
X480060Y1115060D03*
X411683Y1115136D03*
X335280Y1079500D03*
X347980Y1033780D03*
X726440Y960120D03*
X660400Y1003300D03*
X495300Y1033780D03*
X657860Y982980D03*
X541020Y1074420D03*
X645160Y1026160D03*
X368300Y965200D03*
X269240Y873760D03*
X309982Y916254D03*
X256540Y1005840D03*
X518160Y977900D03*
X396240Y896620D03*
X386080Y883920D03*
X396240Y835660D03*
X344678Y885160D03*
X312420Y838200D03*
X144780Y810260D03*
X365760Y822960D03*
X365760Y883920D03*
X375920Y896620D03*
X2034540Y1813560D03*
X1986280Y1862993D03*
X1943100Y1813560D03*
X1894840Y1859280D03*
X1854200Y1808480D03*
X1805940Y1856740D03*
X1770380Y1808480D03*
X1722120Y1859280D03*
X1681480Y1808480D03*
X1630680Y1856740D03*
X1592580Y1813560D03*
X1541780Y1854200D03*
X1508760Y1811020D03*
X1460500Y1856740D03*
X1417320Y1813560D03*
X1369060Y1859280D03*
X1333500Y1816100D03*
X1280160Y1854200D03*
X1242060Y1811020D03*
X1196340Y1856740D03*
X1160780Y1813560D03*
X1107440Y1854200D03*
X1064260Y1808480D03*
X1043940Y1831340D03*
X1122680Y1788160D03*
X1084580Y1767840D03*
X1981200Y1805940D03*
X1894840Y1808480D03*
X1793240Y1793240D03*
X1699260Y1795780D03*
X1605280Y1795780D03*
X1544320Y1803400D03*
X1460500Y1803400D03*
X1366520Y1803400D03*
X1254760Y1800860D03*
X1196340Y1811020D03*
X1076960Y1808480D03*
X1043940Y1783080D03*
X1051560Y1800860D03*
X2019300Y1861820D03*
X1938020Y1861820D03*
X1851660Y1861820D03*
X1767840Y1861820D03*
X1676400Y1862993D03*
X1590040Y1861820D03*
X1503680Y1860453D03*
X1417320Y1859280D03*
X1330960Y1859280D03*
X1242060Y1861820D03*
X1153160Y1859280D03*
X1066800Y1859280D03*
X1130300Y1846580D03*
X1135380Y1859280D03*
D48*
X1206500Y1800742D03*
D49*
X563245Y146368D03*
X650558Y146368D03*
X737870Y146368D03*
X825183Y146368D03*
X912495Y146368D03*
X999808Y146368D03*
X1087120Y146368D03*
X1174433Y146368D03*
X1261745Y146368D03*
X1349058Y146368D03*
X1436370Y146368D03*
X1523683Y146368D03*
D45*
X965200Y1084580D03*
X1188720Y934720D03*
X1041400Y1076960D03*
X1030565Y965608D03*
X1041400Y942340D03*
X1019948Y1064260D03*
X1038860Y1021080D03*
X1038860Y998220D03*
X1485900Y469900D03*
X1788160Y574040D03*
X1805940Y500380D03*
X2286000Y1010920D03*
X1785620Y492760D03*
X1795780Y604520D03*
X1887220Y952500D03*
X2059940Y525780D03*
X1925320Y1079500D03*
X2019300Y901700D03*
X1993900Y988060D03*
X1828800Y876300D03*
X1993900Y896620D03*
X1795780Y777240D03*
X1871980Y1079500D03*
X1884680Y596900D03*
X1831340Y911860D03*
X1912620Y929640D03*
X1732280Y604520D03*
X2047240Y1051560D03*
X2034540Y982980D03*
X1968500Y556260D03*
X2004060Y1003300D03*
X1950720Y1013460D03*
X1750060Y576580D03*
X1758950Y486410D03*
X1755140Y457200D03*
X1795780Y469900D03*
X1826260Y579120D03*
X1844040Y500380D03*
D50*
X1864360Y972820D03*
D45*
X1480820Y1833880D03*
X1391920Y1833880D03*
X1305560Y1836420D03*
X1219200Y1836420D03*
X1076960Y1828800D03*
X269240Y632940D03*
X403860Y604520D03*
X436880Y878840D03*
X83820Y929640D03*
X331361Y717659D03*
X693420Y701040D03*
X576580Y703580D03*
X449580Y703580D03*
X217198Y701040D03*
X101628Y698500D03*
X69562Y656878D03*
X80160Y624840D03*
X99060Y642620D03*
X124460Y891540D03*
X111760Y596900D03*
X100261Y781340D03*
X102008Y817514D03*
X251460Y810260D03*
X215721Y778943D03*
X327660Y787400D03*
X347980Y637540D03*
X447040Y641740D03*
X445049Y802668D03*
X578206Y785978D03*
X603971Y637568D03*
X685876Y643687D03*
X690778Y786359D03*
X652540Y717160D03*
X261544Y651078D03*
X234569Y657606D03*
X523240Y787400D03*
X132080Y673100D03*
X147320Y596900D03*
X111760Y784860D03*
X106680Y833120D03*
X76200Y764540D03*
X83820Y706120D03*
X180340Y632460D03*
X213360Y647700D03*
X200660Y624840D03*
X203200Y716280D03*
X201168Y636270D03*
X229921Y709473D03*
X231140Y596900D03*
X182880Y769620D03*
X210820Y805180D03*
X199136Y754634D03*
X232197Y727775D03*
X254000Y779780D03*
X210931Y726329D03*
X251460Y741680D03*
X191770Y745744D03*
X368300Y681510D03*
X330200Y706120D03*
X347980Y701040D03*
X309880Y637540D03*
X269240Y657860D03*
X347980Y612140D03*
X391160Y617220D03*
X345440Y718820D03*
X386080Y759460D03*
X355600Y728980D03*
X358140Y792480D03*
X431800Y673100D03*
X474980Y627380D03*
X520700Y650240D03*
X467360Y708660D03*
X500380Y716280D03*
X464820Y728980D03*
X426720Y792480D03*
X434340Y728980D03*
X459740Y795020D03*
X406400Y797560D03*
X556260Y668020D03*
X561340Y594360D03*
X530860Y624840D03*
X591693Y672973D03*
X614680Y655320D03*
X556260Y645160D03*
X596900Y576580D03*
X589280Y706120D03*
X617220Y711200D03*
X589280Y723900D03*
X559272Y724154D03*
X525671Y766971D03*
X657860Y604520D03*
X662912Y673100D03*
X706120Y721360D03*
X662940Y561340D03*
X718820Y723900D03*
X706120Y584200D03*
X317500Y755782D03*
X309880Y800100D03*
X673100Y728980D03*
D46*
X448980Y1398780D03*
X464220Y1342900D03*
X624840Y1501140D03*
X1425880Y1386650D03*
X1468120Y1462322D03*
D45*
X792480Y1381760D03*
X1104900Y1356360D03*
X1104900Y1285240D03*
X1112520Y1262380D03*
X1211580Y1336040D03*
X1178560Y1506220D03*
X1140460Y1539240D03*
X1104900Y1544320D03*
X1013460Y1483360D03*
X1049020Y1435100D03*
X1003300Y1333500D03*
X1160780Y1419860D03*
X1117722Y1465580D03*
X967740Y1295400D03*
X812800Y1676400D03*
X802640Y1612900D03*
X563880Y1597660D03*
X1201420Y965200D03*
D48*
X2189480Y1010920D03*
X2144685Y1096355D03*
X1173480Y972820D03*
D47*
X1854200Y215900D03*
X1844040Y335280D03*
X2217420Y317500D03*
X2349500Y302260D03*
X2395474Y261926D03*
X2357120Y175260D03*
X2169160Y183336D03*
X2227580Y246380D03*
X1755140Y335280D03*
X2186940Y330200D03*
X2288540Y307340D03*
X2400300Y320040D03*
X2420061Y260425D03*
X2387600Y180002D03*
X2143760Y254000D03*
X2438400Y208280D03*
X2336800Y223520D03*
X1917700Y213360D03*
D45*
X1991360Y220980D03*
D46*
X2326437Y342900D03*
D47*
X2281058Y134504D03*
X2138680Y198120D03*
D45*
X2047240Y210820D03*
D47*
X2326640Y144780D03*
X1838960Y302260D03*
D45*
X2250440Y299720D03*
D47*
X2274368Y300799D03*
D45*
X1775460Y274320D03*
D47*
X2349500Y137160D03*
X2327656Y184658D03*
X2395220Y152400D03*
X2344420Y185420D03*
D45*
X2242820Y345440D03*
X1882140Y345440D03*
D47*
X2331720Y304800D03*
X2329180Y291950D03*
X2318258Y280416D03*
X2293620Y289560D03*
X2291080Y271780D03*
D46*
X2336800Y200660D03*
X2194560Y111760D03*
X2258060Y269240D03*
X2242820Y260902D03*
X1386840Y1371600D03*
D45*
X525780Y1328420D03*
X845820Y1569720D03*
X911860Y1597660D03*
X782320Y1407160D03*
X1033780Y1343660D03*
X1120140Y1303020D03*
X1455420Y1600200D03*
X1168400Y1475740D03*
X1107440Y1473200D03*
X1038860Y1483360D03*
X1178560Y1343660D03*
X1130300Y1452880D03*
X1160780Y1407160D03*
X1233170Y1416050D03*
X558800Y1300480D03*
D48*
X911860Y1417320D03*
X886460Y1353820D03*
X1247140Y965200D03*
D46*
X540420Y1365760D03*
D45*
X746760Y1681480D03*
X769620Y1641828D03*
X886460Y1681480D03*
X919480Y1640840D03*
X857250Y1672590D03*
X175548Y188248D03*
X162560Y182880D03*
D46*
X289440Y243960D03*
X172805Y256625D03*
X209848Y194783D03*
X96520Y320040D03*
X363220Y279400D03*
X246380Y276860D03*
X195580Y276860D03*
X360680Y302260D03*
D45*
X230830Y256910D03*
D46*
X368300Y264160D03*
D45*
X2224540Y2341880D03*
X2148340Y2331720D03*
X2186440Y2298700D03*
D46*
X365760Y231140D03*
X368300Y248920D03*
X312420Y243840D03*
X271780Y220980D03*
X228600Y241300D03*
X363220Y332740D03*
X411480Y274320D03*
D48*
X494540Y1579880D03*
D46*
X1155700Y1353820D03*
X1056640Y1404620D03*
X1082040Y1386840D03*
X1087120Y1366520D03*
D45*
X1045101Y1349901D03*
D46*
X1066800Y1371600D03*
D45*
X1044222Y1366520D03*
X802640Y2232660D03*
X896620Y1953260D03*
X1267460Y1958340D03*
X1303020Y2057400D03*
X1478280Y2098040D03*
X1638300Y2176780D03*
X1826260Y2225040D03*
X1988820Y2250440D03*
X535940Y2286000D03*
X1450340Y2306320D03*
X1056640Y2032000D03*
X805180Y2092960D03*
X840740Y2077720D03*
X1148080Y1958340D03*
X1226820Y2339340D03*
X1303020Y2156460D03*
X769620Y2369820D03*
X1440180Y2197100D03*
X784860Y2369820D03*
X1524000Y2141220D03*
X1737360Y2232660D03*
X657860Y2265680D03*
X810260Y2270760D03*
X802640Y2189480D03*
X922020Y1587500D03*
X1475740Y1506220D03*
X835660Y1645920D03*
X1490980Y1496060D03*
X886460Y1605280D03*
X1397000Y1516380D03*
X1346200Y1432560D03*
X980440Y1506220D03*
X1203332Y1452442D03*
X916940Y1546860D03*
X1221740Y1493520D03*
X1206500Y1473200D03*
X1206500Y1488440D03*
X690880Y1564640D03*
X581660Y1638300D03*
X777240Y1460500D03*
X1046371Y1298049D03*
X1055261Y1312019D03*
X1066800Y1351562D03*
X988060Y1320800D03*
X1005840Y1524000D03*
X1036320Y1566616D03*
X928370Y1568450D03*
X922020Y1308100D03*
X909320Y1308100D03*
X904023Y1567398D03*
X899160Y1320800D03*
X1295400Y1346200D03*
X1308100Y1351280D03*
X1315611Y1361549D03*
X1315611Y1374249D03*
X1094740Y1460500D03*
X1094486Y1475740D03*
X1018540Y1566616D03*
X1033780Y1524000D03*
X1137920Y1468120D03*
X1070211Y1474071D03*
X1150366Y1430020D03*
X1152144Y1442720D03*
X1162304Y1449804D03*
X1140018Y1420085D03*
X2409960Y2344420D03*
X2333760Y2334260D03*
X2371860Y2301240D03*
X2222000Y2098040D03*
X2145800Y2087880D03*
X2183900Y2054860D03*
X2415040Y2098040D03*
X2338840Y2087880D03*
X2376940Y2054860D03*
X137660Y2087880D03*
X213860Y2098040D03*
X175760Y2131060D03*
X2537960Y1836420D03*
X2614160Y1846580D03*
X2576060Y1879600D03*
X2204720Y1853700D03*
X2214880Y1777500D03*
X2247900Y1815600D03*
X2590300Y2344420D03*
X2514100Y2334260D03*
X2552200Y2301240D03*
X2679200Y269240D03*
X2603000Y259080D03*
X2641100Y226060D03*
X2499360Y520200D03*
X2509520Y444000D03*
X2542540Y482100D03*
X505460Y1054100D03*
X510540Y1112520D03*
X1036320Y1099820D03*
X1013460Y906780D03*
X1087120Y894080D03*
X1056640Y906780D03*
X1056640Y1115060D03*
D50*
X1079500Y1143000D03*
D45*
X1493520Y1130300D03*
X980440Y1054100D03*
X1117600Y883920D03*
X1572260Y695960D03*
X1092200Y967740D03*
X848360Y599440D03*
X2514600Y723900D03*
X2448560Y820420D03*
X2512060Y851944D03*
X2496820Y746760D03*
X2468372Y734060D03*
X2438400Y751840D03*
X2484120Y746760D03*
X2476500Y769620D03*
X2453736Y698596D03*
D14*
X1381760Y279400D03*
X1412240Y279400D03*
X1442720Y279400D03*
X1323340Y279400D03*
X1292860Y279400D03*
X1262380Y279400D03*
X1206500Y279400D03*
X1176020Y279400D03*
X1145540Y279400D03*
X1087120Y279400D03*
X1056640Y279400D03*
X1026160Y279400D03*
X980440Y279400D03*
X949960Y279400D03*
X916940Y279400D03*
X866140Y279400D03*
X835660Y279400D03*
X805180Y279400D03*
D46*
X1137920Y1353820D03*
X1247140Y1304842D03*
D50*
X520700Y906780D03*
X521168Y952500D03*
X485140Y1046480D03*
X474980Y1054100D03*
X1991360Y927100D03*
M02*
