<?xml version="1.0" encoding="utf-8" standalone="no"?>
<!DOCTYPE svg PUBLIC "-//W3C//DTD SVG 1.1//EN" "http://www.w3.org/Graphics/SVG/1.1/DTD/svg11.dtd">
<svg version="1.1" width="3370pt" height="2384pt" viewBox="0 0 3370.32 2383.92" xmlns="http://www.w3.org/2000/svg">
  <defs />
  <g id="strings4">
    <path d="M2358.7266,574.06946 L2358.7266,792.5675" stroke="#000000" stroke-width="0.24" stroke-linecap="round" stroke-linejoin="round" fill="none" />
    <circle cx="2359" cy="574.1" r="3.543" stroke="#000000" stroke-width="0.24" fill="none" />
    <path d="M2358.7266,792.5675 L935.484,774.3945" stroke="#000000" stroke-width="0.24" stroke-linecap="round" stroke-linejoin="round" fill="none" />
    <circle cx="2329" cy="647" r="3.543" stroke="#000000" stroke-width="0.24" fill="none" />
    <path d="M2358.7266,646.88983 L936.0386,652.89264" stroke="#000000" stroke-width="0.24" stroke-linecap="round" stroke-linejoin="round" fill="none" />
    <path d="M936.0386,713.6445 L2358.7266,719.7237" stroke="#000000" stroke-width="0.24" stroke-linecap="round" stroke-linejoin="round" fill="none" />
    <path d="M2358.7266,694.86664 L936.04236,691.4994" stroke="#000000" stroke-width="0.24" stroke-linecap="round" stroke-linejoin="round" fill="none" />
    <path d="M935.76135,754.1445 L2358.7266,768.2856" stroke="#000000" stroke-width="0.24" stroke-linecap="round" stroke-linejoin="round" fill="none" />
    <circle cx="2329" cy="768" r="3.543" stroke="#000000" stroke-width="0.24" fill="none" />
    <path d="M936.03296,671.2472 L2358.7266,670.5854" stroke="#000000" stroke-width="0.24" stroke-linecap="round" stroke-linejoin="round" fill="none" />
    <circle cx="2329" cy="719.6" r="3.543" stroke="#000000" stroke-width="0.24" fill="none" />
    <circle cx="2329" cy="694.8" r="3.543" stroke="#000000" stroke-width="0.24" fill="none" />
    <circle cx="2329" cy="670.6" r="3.543" stroke="#000000" stroke-width="0.24" fill="none" />
    <path d="M936.0386,632.64105 L2358.7266,622.6005" stroke="#000000" stroke-width="0.24" stroke-linecap="round" stroke-linejoin="round" fill="none" />
    <circle cx="2329" cy="622.8" r="3.543" stroke="#000000" stroke-width="0.24" fill="none" />
    <path d="M2358.7266,598.31934 L936.01044,612.3897" stroke="#000000" stroke-width="0.24" stroke-linecap="round" stroke-linejoin="round" fill="none" />
    <path d="M936.01044,592.2405 L2358.7266,574.06946" stroke="#000000" stroke-width="0.24" stroke-linecap="round" stroke-linejoin="round" fill="none" />
    <path d="M2358.7266,744.00555 L936.0386,733.8989" stroke="#000000" stroke-width="0.24" stroke-linecap="round" stroke-linejoin="round" fill="none" />
    <circle cx="2359" cy="792.6" r="3.543" stroke="#000000" stroke-width="0.24" fill="none" />
    <circle cx="2359" cy="768.3" r="3.543" stroke="#000000" stroke-width="0.24" fill="none" />
    <circle cx="2359" cy="744" r="3.543" stroke="#000000" stroke-width="0.24" fill="none" />
    <circle cx="2359" cy="719.7" r="3.543" stroke="#000000" stroke-width="0.24" fill="none" />
    <circle cx="2359" cy="694.9" r="3.543" stroke="#000000" stroke-width="0.24" fill="none" />
    <circle cx="2359" cy="670.6" r="3.543" stroke="#000000" stroke-width="0.24" fill="none" />
    <circle cx="2359" cy="646.9" r="3.543" stroke="#000000" stroke-width="0.24" fill="none" />
    <circle cx="2359" cy="622.6" r="3.543" stroke="#000000" stroke-width="0.24" fill="none" />
    <circle cx="2359" cy="598.3" r="3.543" stroke="#000000" stroke-width="0.24" fill="none" />
    <path d="M2328.5674,573.68134 L2328.5674,792.5822" stroke="#000000" stroke-width="0.24" stroke-linecap="round" stroke-linejoin="round" fill="none" />
    <circle cx="2329" cy="743.8" r="3.543" stroke="#000000" stroke-width="0.24" fill="none" />
    <circle cx="2329" cy="792.6" r="3.543" stroke="#000000" stroke-width="0.24" fill="none" />
    <circle cx="2329" cy="574.5" r="3.543" stroke="#000000" stroke-width="0.24" fill="none" />
    <circle cx="2329" cy="598.6" r="3.543" stroke="#000000" stroke-width="0.24" fill="none" />
  </g>
</svg>