M48
;GenerationSoftware,Autodesk,EAGLE,9.6.2*%
;CreationDate,2021-07-18T02:17:36Z*%
FMAT,2
ICI,OFF
METRIC,TZ,000.000
T11C0.350
T10C0.550
T9C0.800
T8C0.813
T7C1.000
T6C1.016
T5C1.200
T4C1.300
T3C2.000
T2C3.048
T1C3.175
%
G90
M71
T1
X251155Y45695
X82423Y94361
X151257Y89535
X82423Y46228
X428498Y17526
X428498Y37846
X428498Y58166
X428498Y78486
X417989Y4208
X417989Y12264
X417989Y20320
X417989Y28375
X417989Y36431
X417989Y44486
X417989Y52542
X417989Y68653
X417989Y76708
X417989Y84764
X417989Y92820
X172339Y93853
X241173Y89027
X172390Y45695
X261747Y93624
X330556Y88798
X261823Y45441
X115570Y77978
X308610Y77978
X38608Y91821
X330581Y44450
X270637Y93472
X89281Y50800
X241681Y44958
X37338Y45593
X417989Y60597
X288290Y9398
X288290Y22098
X191770Y22098
X95250Y9398
X95250Y22098
X115570Y90678
X212090Y90678
X308610Y90678
X70053Y49505
X160731Y49251
X26619Y45695
X160731Y87859
X251409Y88113
X340055Y91923
X339801Y45187
T2
X429260Y91440
X429260Y5080
X429260Y48260
T3
X18460Y22860
X27260Y22860
X66720Y22860
X75520Y22860
X114980Y22860
X123780Y22860
X163240Y22860
X172040Y22860
X211500Y23114
X220300Y23114
X259760Y22860
X268560Y22860
X308020Y22860
X316820Y22860
X356534Y22860
X365334Y22860
T4
X29638Y83546
X24638Y72136
X29638Y74636
X29638Y77236
X29638Y69636
X29638Y67036
X24638Y57150
X29638Y59650
X29638Y62250
X29638Y54650
X29638Y52050
X24638Y88646
X29638Y91146
X29638Y93746
X29638Y86146
T5
X29638Y88646
X24638Y83646
X22138Y83646
X22138Y93646
X24638Y93646
X29638Y57150
X24638Y52150
X22138Y52150
X22138Y62150
X24638Y62150
X29638Y72136
X24638Y77136
X22138Y77136
X22138Y67136
X24638Y67136
T6
X60198Y81026
X322758Y46711
X353822Y26416
X351282Y26416
X348742Y26416
X388874Y27178
X388874Y24638
X384531Y26619
X384531Y20117
X380009Y26619
X380009Y20117
X397231Y26619
X397231Y20117
X392709Y26619
X392709Y20117
X246888Y80010
X336550Y83312
X341122Y84582
X336550Y80772
X251460Y81534
X246888Y77470
X207975Y46965
X423164Y36576
X423164Y39116
X423164Y16256
X423164Y18796
X423164Y56896
X423164Y59436
X423418Y77216
X423418Y79756
X345440Y12192
X345440Y9652
X345440Y7112
X345440Y4572
X297180Y12192
X297180Y9652
X297180Y7112
X297180Y4572
X248920Y12192
X248920Y9652
X248920Y7112
X248920Y4572
X200660Y12446
X200660Y9906
X200660Y7366
X200660Y4826
X152400Y12192
X85090Y66548
X82550Y66548
X85090Y69088
X82550Y69088
X85090Y71628
X82550Y71628
X85090Y74168
X82550Y74168
X175006Y66040
X172466Y66040
X175006Y68580
X172466Y68580
X175006Y71120
X172466Y71120
X175006Y73660
X172466Y73660
X264414Y65786
X261874Y65786
X264414Y68326
X261874Y68326
X264414Y70866
X261874Y70866
X264414Y73406
X261874Y73406
X151130Y58928
X148590Y58928
X151130Y61468
X148590Y61468
X151130Y64008
X148590Y64008
X151130Y66548
X148590Y66548
X151130Y69088
X148590Y69088
X151130Y71628
X148590Y71628
X151130Y74168
X148590Y74168
X151130Y76708
X148590Y76708
X151130Y79248
X148590Y79248
X151130Y81788
X148590Y81788
X241046Y58420
X238506Y58420
X241046Y60960
X238506Y60960
X241046Y63500
X238506Y63500
X241046Y66040
X238506Y66040
X241046Y68580
X238506Y68580
X241046Y71120
X238506Y71120
X241046Y73660
X238506Y73660
X241046Y76200
X238506Y76200
X241046Y78740
X238506Y78740
X241046Y81280
X238506Y81280
X330454Y58166
X327914Y58166
X330454Y60706
X327914Y60706
X330454Y63246
X327914Y63246
X330454Y65786
X327914Y65786
X330454Y68326
X327914Y68326
X330454Y70866
X327914Y70866
X330454Y73406
X327914Y73406
X330454Y75946
X327914Y75946
X330454Y78486
X327914Y78486
X330454Y81026
X327914Y81026
X107925Y47447
X107925Y49987
X110465Y47447
X110465Y49987
X113005Y47447
X113005Y49987
X115545Y47447
X115545Y49987
X118085Y47447
X118085Y49987
X120625Y47447
X120625Y49987
X123165Y47447
X123165Y49987
X125705Y47447
X125705Y49987
X128245Y47447
X128245Y49987
X130785Y47447
X130785Y49987
X133325Y47447
X133325Y49987
X135865Y47447
X135865Y49987
X138405Y47447
X138405Y49987
X140945Y47447
X140945Y49987
X143485Y47447
X143485Y49987
X197815Y46965
X197815Y49505
X200355Y46965
X200355Y49505
X202895Y46965
X202895Y49505
X205435Y46965
X205435Y49505
X152400Y9652
X207975Y49505
X210515Y46965
X210515Y49505
X213055Y46965
X213055Y49505
X215595Y46965
X215595Y49505
X218135Y46965
X218135Y49505
X220675Y46965
X220675Y49505
X223215Y46965
X223215Y49505
X225755Y46965
X225755Y49505
X228295Y46965
X228295Y49505
X230835Y46965
X230835Y49505
X233375Y46965
X233375Y49505
X287198Y46711
X287198Y49251
X289738Y46711
X289738Y49251
X292278Y46711
X292278Y49251
X294818Y46711
X294818Y49251
X297358Y46711
X297358Y49251
X299898Y46711
X299898Y49251
X302438Y46711
X302438Y49251
X304978Y46711
X304978Y49251
X307518Y46711
X307518Y49251
X310058Y46711
X310058Y49251
X312598Y46711
X312598Y49251
X315138Y46711
X315138Y49251
X317678Y46711
X317678Y49251
X320218Y46711
X320218Y49251
X152400Y7112
X322758Y49251
X152400Y4572
X104140Y12192
X104140Y9652
X104140Y7112
X104140Y4572
X55880Y12192
X55880Y9652
X55880Y7112
X55880Y4572
X7620Y12446
X7620Y9906
X51562Y94742
X54102Y94742
X7620Y7366
X7620Y4826
X43942Y73406
X156972Y78232
X160528Y82804
X46990Y51816
X46990Y54356
X43942Y70866
X57658Y75946
X57658Y73406
X299974Y51816
X210566Y52070
X120650Y52578
X302514Y52578
X305054Y52578
X307594Y52578
X310134Y52578
X213106Y52578
X215646Y52578
X218186Y52578
X220726Y52578
X123190Y52832
X125730Y52832
X128270Y52832
X130810Y52832
T7
X57912Y65024
X55372Y65024
X55372Y62484
X57912Y62484
X55372Y59944
X57912Y59944
X55372Y57404
X57912Y57404
X55372Y54864
X57912Y54864
X55372Y52324
X57912Y52324
X55372Y49784
X57912Y49784
X55372Y47244
X57912Y47244
X405638Y61214
X403098Y61214
X405638Y63754
X403098Y63754
X405638Y66294
X403098Y66294
X405638Y68834
X403098Y68834
X405638Y71374
X403098Y71374
X405638Y73914
X403098Y73914
X405638Y76454
X403098Y76454
X405638Y78994
X403098Y78994
X405638Y81534
X403098Y81534
X46990Y62484
X405638Y84074
X403098Y84074
X363434Y15860
X360934Y15860
X358434Y15860
X314920Y15860
X312420Y15860
X309920Y15860
X266660Y15860
X264160Y15860
X261660Y15860
X218400Y16114
X215900Y16114
X213400Y16114
X170140Y15860
X167640Y15860
X165140Y15860
X121880Y15860
X20360Y15860
X22860Y15860
X25360Y15860
X119380Y15860
X116880Y15860
X68620Y15860
X71120Y15860
X73620Y15860
T8
X49276Y72390
X48006Y70485
X46736Y72390
X46736Y75692
X48006Y77597
X49276Y75692
T9
X7366Y19606
X7366Y21606
X7366Y23606
X7366Y25606
X338328Y76962
X340868Y76962
X343408Y76962
X248920Y73660
X251460Y73660
X254000Y73660
X65230Y94996
X61230Y94996
X59230Y94996
X158750Y74930
X161290Y74930
X163830Y74930
X39116Y51816
X388874Y9350
X388874Y7350
X388874Y5350
X388874Y3350
X63230Y94996
X39116Y64516
X39116Y61976
X39116Y59436
X39116Y54356
X397002Y9350
X397002Y7350
X397002Y5350
X397002Y3350
X38100Y78184
X38100Y76184
X38100Y74184
X38100Y72184
T10
X76708Y93726
T11
X342392Y25908
X330200Y23622
X224536Y55118
X223266Y56896
X333502Y17526
X330962Y20828
X325120Y24130
X133604Y54102
X209042Y43434
X347218Y22860
X341122Y27432
X352552Y18288
X135890Y52324
X226822Y54610
X343408Y18288
X374650Y26162
X369316Y24892
X343535Y19939
X69621Y63551
X193548Y15494
X185166Y3048
X372618Y19812
X354457Y13335
X340868Y10922
X193802Y11684
X160528Y2794
X339852Y14224
X199390Y52578
X227076Y44958
X268859Y48895
X295044Y44113
X128905Y57531
X206756Y52324
X204724Y43942
X64262Y75692
X65278Y89154
X53594Y72489
X53594Y78232
X65786Y83820
X66548Y81181
X57658Y90170
X192405Y11557
X49276Y59106
X191770Y10160
X188468Y2540
X165608Y1524
X341249Y13335
X198374Y16002
X67056Y91694
X64008Y72136
X62738Y86614
X82296Y87376
X71374Y78232
X58420Y79248
X64389Y82954
X76708Y80518
X71374Y84582
X162560Y6604
X166370Y4572
X162052Y8382
X164338Y5334
X193040Y9144
X389890Y12954
X372364Y17780
X394208Y12954
X71120Y93980
X197612Y10414
X368046Y17780
X374650Y24384
X324104Y19558
X193040Y7112
X194056Y4826
X193802Y8128
X193040Y5588
X379476Y13462
X389128Y16256
M30