G04 EAGLE Gerber RS-274X export*
G75*
%MOMM*%
%FSLAX34Y34*%
%LPD*%
%INSilkscreen Bottom*%
%IPPOS*%
%AMOC8*
5,1,8,0,0,1.08239X$1,22.5*%
G01*
%ADD10C,0.508000*%
%ADD11C,0.127000*%
%ADD12C,0.254000*%
%ADD13C,0.101600*%
%ADD14C,0.152400*%


D10*
X4217916Y797560D02*
X4217921Y797959D01*
X4217936Y798358D01*
X4217960Y798756D01*
X4217994Y799154D01*
X4218038Y799551D01*
X4218092Y799946D01*
X4218155Y800341D01*
X4218229Y800733D01*
X4218311Y801123D01*
X4218403Y801512D01*
X4218505Y801898D01*
X4218616Y802281D01*
X4218737Y802662D01*
X4218867Y803039D01*
X4219006Y803413D01*
X4219154Y803784D01*
X4219311Y804151D01*
X4219478Y804514D01*
X4219653Y804872D01*
X4219836Y805227D01*
X4220029Y805576D01*
X4220230Y805921D01*
X4220439Y806261D01*
X4220657Y806596D01*
X4220883Y806925D01*
X4221117Y807248D01*
X4221358Y807566D01*
X4221608Y807878D01*
X4221865Y808183D01*
X4222129Y808482D01*
X4222401Y808775D01*
X4222680Y809060D01*
X4222965Y809339D01*
X4223258Y809611D01*
X4223557Y809875D01*
X4223862Y810132D01*
X4224174Y810382D01*
X4224492Y810623D01*
X4224815Y810857D01*
X4225144Y811083D01*
X4225479Y811301D01*
X4225819Y811510D01*
X4226164Y811711D01*
X4226513Y811904D01*
X4226868Y812087D01*
X4227226Y812262D01*
X4227589Y812429D01*
X4227956Y812586D01*
X4228327Y812734D01*
X4228701Y812873D01*
X4229078Y813003D01*
X4229459Y813124D01*
X4229842Y813235D01*
X4230228Y813337D01*
X4230617Y813429D01*
X4231007Y813511D01*
X4231399Y813585D01*
X4231794Y813648D01*
X4232189Y813702D01*
X4232586Y813746D01*
X4232984Y813780D01*
X4233382Y813804D01*
X4233781Y813819D01*
X4234180Y813824D01*
X4234579Y813819D01*
X4234978Y813804D01*
X4235376Y813780D01*
X4235774Y813746D01*
X4236171Y813702D01*
X4236566Y813648D01*
X4236961Y813585D01*
X4237353Y813511D01*
X4237743Y813429D01*
X4238132Y813337D01*
X4238518Y813235D01*
X4238901Y813124D01*
X4239282Y813003D01*
X4239659Y812873D01*
X4240033Y812734D01*
X4240404Y812586D01*
X4240771Y812429D01*
X4241134Y812262D01*
X4241492Y812087D01*
X4241847Y811904D01*
X4242196Y811711D01*
X4242541Y811510D01*
X4242881Y811301D01*
X4243216Y811083D01*
X4243545Y810857D01*
X4243868Y810623D01*
X4244186Y810382D01*
X4244498Y810132D01*
X4244803Y809875D01*
X4245102Y809611D01*
X4245395Y809339D01*
X4245680Y809060D01*
X4245959Y808775D01*
X4246231Y808482D01*
X4246495Y808183D01*
X4246752Y807878D01*
X4247002Y807566D01*
X4247243Y807248D01*
X4247477Y806925D01*
X4247703Y806596D01*
X4247921Y806261D01*
X4248130Y805921D01*
X4248331Y805576D01*
X4248524Y805227D01*
X4248707Y804872D01*
X4248882Y804514D01*
X4249049Y804151D01*
X4249206Y803784D01*
X4249354Y803413D01*
X4249493Y803039D01*
X4249623Y802662D01*
X4249744Y802281D01*
X4249855Y801898D01*
X4249957Y801512D01*
X4250049Y801123D01*
X4250131Y800733D01*
X4250205Y800341D01*
X4250268Y799946D01*
X4250322Y799551D01*
X4250366Y799154D01*
X4250400Y798756D01*
X4250424Y798358D01*
X4250439Y797959D01*
X4250444Y797560D01*
X4250439Y797161D01*
X4250424Y796762D01*
X4250400Y796364D01*
X4250366Y795966D01*
X4250322Y795569D01*
X4250268Y795174D01*
X4250205Y794779D01*
X4250131Y794387D01*
X4250049Y793997D01*
X4249957Y793608D01*
X4249855Y793222D01*
X4249744Y792839D01*
X4249623Y792458D01*
X4249493Y792081D01*
X4249354Y791707D01*
X4249206Y791336D01*
X4249049Y790969D01*
X4248882Y790606D01*
X4248707Y790248D01*
X4248524Y789893D01*
X4248331Y789544D01*
X4248130Y789199D01*
X4247921Y788859D01*
X4247703Y788524D01*
X4247477Y788195D01*
X4247243Y787872D01*
X4247002Y787554D01*
X4246752Y787242D01*
X4246495Y786937D01*
X4246231Y786638D01*
X4245959Y786345D01*
X4245680Y786060D01*
X4245395Y785781D01*
X4245102Y785509D01*
X4244803Y785245D01*
X4244498Y784988D01*
X4244186Y784738D01*
X4243868Y784497D01*
X4243545Y784263D01*
X4243216Y784037D01*
X4242881Y783819D01*
X4242541Y783610D01*
X4242196Y783409D01*
X4241847Y783216D01*
X4241492Y783033D01*
X4241134Y782858D01*
X4240771Y782691D01*
X4240404Y782534D01*
X4240033Y782386D01*
X4239659Y782247D01*
X4239282Y782117D01*
X4238901Y781996D01*
X4238518Y781885D01*
X4238132Y781783D01*
X4237743Y781691D01*
X4237353Y781609D01*
X4236961Y781535D01*
X4236566Y781472D01*
X4236171Y781418D01*
X4235774Y781374D01*
X4235376Y781340D01*
X4234978Y781316D01*
X4234579Y781301D01*
X4234180Y781296D01*
X4233781Y781301D01*
X4233382Y781316D01*
X4232984Y781340D01*
X4232586Y781374D01*
X4232189Y781418D01*
X4231794Y781472D01*
X4231399Y781535D01*
X4231007Y781609D01*
X4230617Y781691D01*
X4230228Y781783D01*
X4229842Y781885D01*
X4229459Y781996D01*
X4229078Y782117D01*
X4228701Y782247D01*
X4228327Y782386D01*
X4227956Y782534D01*
X4227589Y782691D01*
X4227226Y782858D01*
X4226868Y783033D01*
X4226513Y783216D01*
X4226164Y783409D01*
X4225819Y783610D01*
X4225479Y783819D01*
X4225144Y784037D01*
X4224815Y784263D01*
X4224492Y784497D01*
X4224174Y784738D01*
X4223862Y784988D01*
X4223557Y785245D01*
X4223258Y785509D01*
X4222965Y785781D01*
X4222680Y786060D01*
X4222401Y786345D01*
X4222129Y786638D01*
X4221865Y786937D01*
X4221608Y787242D01*
X4221358Y787554D01*
X4221117Y787872D01*
X4220883Y788195D01*
X4220657Y788524D01*
X4220439Y788859D01*
X4220230Y789199D01*
X4220029Y789544D01*
X4219836Y789893D01*
X4219653Y790248D01*
X4219478Y790606D01*
X4219311Y790969D01*
X4219154Y791336D01*
X4219006Y791707D01*
X4218867Y792081D01*
X4218737Y792458D01*
X4218616Y792839D01*
X4218505Y793222D01*
X4218403Y793608D01*
X4218311Y793997D01*
X4218229Y794387D01*
X4218155Y794779D01*
X4218092Y795174D01*
X4218038Y795569D01*
X4217994Y795966D01*
X4217960Y796364D01*
X4217936Y796762D01*
X4217921Y797161D01*
X4217916Y797560D01*
X4216829Y594360D02*
X4216833Y594723D01*
X4216847Y595087D01*
X4216869Y595450D01*
X4216900Y595812D01*
X4216940Y596173D01*
X4216989Y596533D01*
X4217047Y596892D01*
X4217114Y597249D01*
X4217189Y597605D01*
X4217273Y597959D01*
X4217366Y598310D01*
X4217467Y598659D01*
X4217577Y599006D01*
X4217695Y599350D01*
X4217821Y599690D01*
X4217956Y600028D01*
X4218100Y600362D01*
X4218251Y600693D01*
X4218410Y601019D01*
X4218578Y601342D01*
X4218753Y601660D01*
X4218936Y601974D01*
X4219127Y602284D01*
X4219325Y602589D01*
X4219531Y602888D01*
X4219744Y603183D01*
X4219964Y603472D01*
X4220191Y603756D01*
X4220425Y604034D01*
X4220666Y604306D01*
X4220913Y604573D01*
X4221167Y604833D01*
X4221427Y605087D01*
X4221694Y605334D01*
X4221966Y605575D01*
X4222244Y605809D01*
X4222528Y606036D01*
X4222817Y606256D01*
X4223112Y606469D01*
X4223411Y606675D01*
X4223716Y606873D01*
X4224026Y607064D01*
X4224340Y607247D01*
X4224658Y607422D01*
X4224981Y607590D01*
X4225307Y607749D01*
X4225638Y607900D01*
X4225972Y608044D01*
X4226310Y608179D01*
X4226650Y608305D01*
X4226994Y608423D01*
X4227341Y608533D01*
X4227690Y608634D01*
X4228041Y608727D01*
X4228395Y608811D01*
X4228751Y608886D01*
X4229108Y608953D01*
X4229467Y609011D01*
X4229827Y609060D01*
X4230188Y609100D01*
X4230550Y609131D01*
X4230913Y609153D01*
X4231277Y609167D01*
X4231640Y609171D01*
X4232003Y609167D01*
X4232367Y609153D01*
X4232730Y609131D01*
X4233092Y609100D01*
X4233453Y609060D01*
X4233813Y609011D01*
X4234172Y608953D01*
X4234529Y608886D01*
X4234885Y608811D01*
X4235239Y608727D01*
X4235590Y608634D01*
X4235939Y608533D01*
X4236286Y608423D01*
X4236630Y608305D01*
X4236970Y608179D01*
X4237308Y608044D01*
X4237642Y607900D01*
X4237973Y607749D01*
X4238299Y607590D01*
X4238622Y607422D01*
X4238940Y607247D01*
X4239254Y607064D01*
X4239564Y606873D01*
X4239869Y606675D01*
X4240168Y606469D01*
X4240463Y606256D01*
X4240752Y606036D01*
X4241036Y605809D01*
X4241314Y605575D01*
X4241586Y605334D01*
X4241853Y605087D01*
X4242113Y604833D01*
X4242367Y604573D01*
X4242614Y604306D01*
X4242855Y604034D01*
X4243089Y603756D01*
X4243316Y603472D01*
X4243536Y603183D01*
X4243749Y602888D01*
X4243955Y602589D01*
X4244153Y602284D01*
X4244344Y601974D01*
X4244527Y601660D01*
X4244702Y601342D01*
X4244870Y601019D01*
X4245029Y600693D01*
X4245180Y600362D01*
X4245324Y600028D01*
X4245459Y599690D01*
X4245585Y599350D01*
X4245703Y599006D01*
X4245813Y598659D01*
X4245914Y598310D01*
X4246007Y597959D01*
X4246091Y597605D01*
X4246166Y597249D01*
X4246233Y596892D01*
X4246291Y596533D01*
X4246340Y596173D01*
X4246380Y595812D01*
X4246411Y595450D01*
X4246433Y595087D01*
X4246447Y594723D01*
X4246451Y594360D01*
X4246447Y593997D01*
X4246433Y593633D01*
X4246411Y593270D01*
X4246380Y592908D01*
X4246340Y592547D01*
X4246291Y592187D01*
X4246233Y591828D01*
X4246166Y591471D01*
X4246091Y591115D01*
X4246007Y590761D01*
X4245914Y590410D01*
X4245813Y590061D01*
X4245703Y589714D01*
X4245585Y589370D01*
X4245459Y589030D01*
X4245324Y588692D01*
X4245180Y588358D01*
X4245029Y588027D01*
X4244870Y587701D01*
X4244702Y587378D01*
X4244527Y587060D01*
X4244344Y586746D01*
X4244153Y586436D01*
X4243955Y586131D01*
X4243749Y585832D01*
X4243536Y585537D01*
X4243316Y585248D01*
X4243089Y584964D01*
X4242855Y584686D01*
X4242614Y584414D01*
X4242367Y584147D01*
X4242113Y583887D01*
X4241853Y583633D01*
X4241586Y583386D01*
X4241314Y583145D01*
X4241036Y582911D01*
X4240752Y582684D01*
X4240463Y582464D01*
X4240168Y582251D01*
X4239869Y582045D01*
X4239564Y581847D01*
X4239254Y581656D01*
X4238940Y581473D01*
X4238622Y581298D01*
X4238299Y581130D01*
X4237973Y580971D01*
X4237642Y580820D01*
X4237308Y580676D01*
X4236970Y580541D01*
X4236630Y580415D01*
X4236286Y580297D01*
X4235939Y580187D01*
X4235590Y580086D01*
X4235239Y579993D01*
X4234885Y579909D01*
X4234529Y579834D01*
X4234172Y579767D01*
X4233813Y579709D01*
X4233453Y579660D01*
X4233092Y579620D01*
X4232730Y579589D01*
X4232367Y579567D01*
X4232003Y579553D01*
X4231640Y579549D01*
X4231277Y579553D01*
X4230913Y579567D01*
X4230550Y579589D01*
X4230188Y579620D01*
X4229827Y579660D01*
X4229467Y579709D01*
X4229108Y579767D01*
X4228751Y579834D01*
X4228395Y579909D01*
X4228041Y579993D01*
X4227690Y580086D01*
X4227341Y580187D01*
X4226994Y580297D01*
X4226650Y580415D01*
X4226310Y580541D01*
X4225972Y580676D01*
X4225638Y580820D01*
X4225307Y580971D01*
X4224981Y581130D01*
X4224658Y581298D01*
X4224340Y581473D01*
X4224026Y581656D01*
X4223716Y581847D01*
X4223411Y582045D01*
X4223112Y582251D01*
X4222817Y582464D01*
X4222528Y582684D01*
X4222244Y582911D01*
X4221966Y583145D01*
X4221694Y583386D01*
X4221427Y583633D01*
X4221167Y583887D01*
X4220913Y584147D01*
X4220666Y584414D01*
X4220425Y584686D01*
X4220191Y584964D01*
X4219964Y585248D01*
X4219744Y585537D01*
X4219531Y585832D01*
X4219325Y586131D01*
X4219127Y586436D01*
X4218936Y586746D01*
X4218753Y587060D01*
X4218578Y587378D01*
X4218410Y587701D01*
X4218251Y588027D01*
X4218100Y588358D01*
X4217956Y588692D01*
X4217821Y589030D01*
X4217695Y589370D01*
X4217577Y589714D01*
X4217467Y590061D01*
X4217366Y590410D01*
X4217273Y590761D01*
X4217189Y591115D01*
X4217114Y591471D01*
X4217047Y591828D01*
X4216989Y592187D01*
X4216940Y592547D01*
X4216900Y592908D01*
X4216869Y593270D01*
X4216847Y593633D01*
X4216833Y593997D01*
X4216829Y594360D01*
X4215376Y391160D02*
X4215381Y391559D01*
X4215396Y391958D01*
X4215420Y392356D01*
X4215454Y392754D01*
X4215498Y393151D01*
X4215552Y393546D01*
X4215615Y393941D01*
X4215689Y394333D01*
X4215771Y394723D01*
X4215863Y395112D01*
X4215965Y395498D01*
X4216076Y395881D01*
X4216197Y396262D01*
X4216327Y396639D01*
X4216466Y397013D01*
X4216614Y397384D01*
X4216771Y397751D01*
X4216938Y398114D01*
X4217113Y398472D01*
X4217296Y398827D01*
X4217489Y399176D01*
X4217690Y399521D01*
X4217899Y399861D01*
X4218117Y400196D01*
X4218343Y400525D01*
X4218577Y400848D01*
X4218818Y401166D01*
X4219068Y401478D01*
X4219325Y401783D01*
X4219589Y402082D01*
X4219861Y402375D01*
X4220140Y402660D01*
X4220425Y402939D01*
X4220718Y403211D01*
X4221017Y403475D01*
X4221322Y403732D01*
X4221634Y403982D01*
X4221952Y404223D01*
X4222275Y404457D01*
X4222604Y404683D01*
X4222939Y404901D01*
X4223279Y405110D01*
X4223624Y405311D01*
X4223973Y405504D01*
X4224328Y405687D01*
X4224686Y405862D01*
X4225049Y406029D01*
X4225416Y406186D01*
X4225787Y406334D01*
X4226161Y406473D01*
X4226538Y406603D01*
X4226919Y406724D01*
X4227302Y406835D01*
X4227688Y406937D01*
X4228077Y407029D01*
X4228467Y407111D01*
X4228859Y407185D01*
X4229254Y407248D01*
X4229649Y407302D01*
X4230046Y407346D01*
X4230444Y407380D01*
X4230842Y407404D01*
X4231241Y407419D01*
X4231640Y407424D01*
X4232039Y407419D01*
X4232438Y407404D01*
X4232836Y407380D01*
X4233234Y407346D01*
X4233631Y407302D01*
X4234026Y407248D01*
X4234421Y407185D01*
X4234813Y407111D01*
X4235203Y407029D01*
X4235592Y406937D01*
X4235978Y406835D01*
X4236361Y406724D01*
X4236742Y406603D01*
X4237119Y406473D01*
X4237493Y406334D01*
X4237864Y406186D01*
X4238231Y406029D01*
X4238594Y405862D01*
X4238952Y405687D01*
X4239307Y405504D01*
X4239656Y405311D01*
X4240001Y405110D01*
X4240341Y404901D01*
X4240676Y404683D01*
X4241005Y404457D01*
X4241328Y404223D01*
X4241646Y403982D01*
X4241958Y403732D01*
X4242263Y403475D01*
X4242562Y403211D01*
X4242855Y402939D01*
X4243140Y402660D01*
X4243419Y402375D01*
X4243691Y402082D01*
X4243955Y401783D01*
X4244212Y401478D01*
X4244462Y401166D01*
X4244703Y400848D01*
X4244937Y400525D01*
X4245163Y400196D01*
X4245381Y399861D01*
X4245590Y399521D01*
X4245791Y399176D01*
X4245984Y398827D01*
X4246167Y398472D01*
X4246342Y398114D01*
X4246509Y397751D01*
X4246666Y397384D01*
X4246814Y397013D01*
X4246953Y396639D01*
X4247083Y396262D01*
X4247204Y395881D01*
X4247315Y395498D01*
X4247417Y395112D01*
X4247509Y394723D01*
X4247591Y394333D01*
X4247665Y393941D01*
X4247728Y393546D01*
X4247782Y393151D01*
X4247826Y392754D01*
X4247860Y392356D01*
X4247884Y391958D01*
X4247899Y391559D01*
X4247904Y391160D01*
X4247899Y390761D01*
X4247884Y390362D01*
X4247860Y389964D01*
X4247826Y389566D01*
X4247782Y389169D01*
X4247728Y388774D01*
X4247665Y388379D01*
X4247591Y387987D01*
X4247509Y387597D01*
X4247417Y387208D01*
X4247315Y386822D01*
X4247204Y386439D01*
X4247083Y386058D01*
X4246953Y385681D01*
X4246814Y385307D01*
X4246666Y384936D01*
X4246509Y384569D01*
X4246342Y384206D01*
X4246167Y383848D01*
X4245984Y383493D01*
X4245791Y383144D01*
X4245590Y382799D01*
X4245381Y382459D01*
X4245163Y382124D01*
X4244937Y381795D01*
X4244703Y381472D01*
X4244462Y381154D01*
X4244212Y380842D01*
X4243955Y380537D01*
X4243691Y380238D01*
X4243419Y379945D01*
X4243140Y379660D01*
X4242855Y379381D01*
X4242562Y379109D01*
X4242263Y378845D01*
X4241958Y378588D01*
X4241646Y378338D01*
X4241328Y378097D01*
X4241005Y377863D01*
X4240676Y377637D01*
X4240341Y377419D01*
X4240001Y377210D01*
X4239656Y377009D01*
X4239307Y376816D01*
X4238952Y376633D01*
X4238594Y376458D01*
X4238231Y376291D01*
X4237864Y376134D01*
X4237493Y375986D01*
X4237119Y375847D01*
X4236742Y375717D01*
X4236361Y375596D01*
X4235978Y375485D01*
X4235592Y375383D01*
X4235203Y375291D01*
X4234813Y375209D01*
X4234421Y375135D01*
X4234026Y375072D01*
X4233631Y375018D01*
X4233234Y374974D01*
X4232836Y374940D01*
X4232438Y374916D01*
X4232039Y374901D01*
X4231640Y374896D01*
X4231241Y374901D01*
X4230842Y374916D01*
X4230444Y374940D01*
X4230046Y374974D01*
X4229649Y375018D01*
X4229254Y375072D01*
X4228859Y375135D01*
X4228467Y375209D01*
X4228077Y375291D01*
X4227688Y375383D01*
X4227302Y375485D01*
X4226919Y375596D01*
X4226538Y375717D01*
X4226161Y375847D01*
X4225787Y375986D01*
X4225416Y376134D01*
X4225049Y376291D01*
X4224686Y376458D01*
X4224328Y376633D01*
X4223973Y376816D01*
X4223624Y377009D01*
X4223279Y377210D01*
X4222939Y377419D01*
X4222604Y377637D01*
X4222275Y377863D01*
X4221952Y378097D01*
X4221634Y378338D01*
X4221322Y378588D01*
X4221017Y378845D01*
X4220718Y379109D01*
X4220425Y379381D01*
X4220140Y379660D01*
X4219861Y379945D01*
X4219589Y380238D01*
X4219325Y380537D01*
X4219068Y380842D01*
X4218818Y381154D01*
X4218577Y381472D01*
X4218343Y381795D01*
X4218117Y382124D01*
X4217899Y382459D01*
X4217690Y382799D01*
X4217489Y383144D01*
X4217296Y383493D01*
X4217113Y383848D01*
X4216938Y384206D01*
X4216771Y384569D01*
X4216614Y384936D01*
X4216466Y385307D01*
X4216327Y385681D01*
X4216197Y386058D01*
X4216076Y386439D01*
X4215965Y386822D01*
X4215863Y387208D01*
X4215771Y387597D01*
X4215689Y387987D01*
X4215615Y388379D01*
X4215552Y388774D01*
X4215498Y389169D01*
X4215454Y389566D01*
X4215420Y389964D01*
X4215396Y390362D01*
X4215381Y390761D01*
X4215376Y391160D01*
X4217272Y187960D02*
X4217276Y188313D01*
X4217289Y188665D01*
X4217311Y189017D01*
X4217341Y189368D01*
X4217380Y189719D01*
X4217428Y190068D01*
X4217484Y190416D01*
X4217548Y190763D01*
X4217621Y191108D01*
X4217703Y191451D01*
X4217792Y191792D01*
X4217891Y192131D01*
X4217997Y192467D01*
X4218112Y192800D01*
X4218235Y193131D01*
X4218366Y193458D01*
X4218505Y193783D01*
X4218651Y194103D01*
X4218806Y194420D01*
X4218969Y194733D01*
X4219139Y195042D01*
X4219316Y195347D01*
X4219501Y195647D01*
X4219693Y195942D01*
X4219893Y196233D01*
X4220100Y196519D01*
X4220313Y196800D01*
X4220533Y197075D01*
X4220760Y197345D01*
X4220994Y197609D01*
X4221234Y197867D01*
X4221480Y198120D01*
X4221733Y198366D01*
X4221991Y198606D01*
X4222255Y198840D01*
X4222525Y199067D01*
X4222800Y199287D01*
X4223081Y199500D01*
X4223367Y199707D01*
X4223658Y199907D01*
X4223953Y200099D01*
X4224253Y200284D01*
X4224558Y200461D01*
X4224867Y200631D01*
X4225180Y200794D01*
X4225497Y200949D01*
X4225817Y201095D01*
X4226142Y201234D01*
X4226469Y201365D01*
X4226800Y201488D01*
X4227133Y201603D01*
X4227469Y201709D01*
X4227808Y201808D01*
X4228149Y201897D01*
X4228492Y201979D01*
X4228837Y202052D01*
X4229184Y202116D01*
X4229532Y202172D01*
X4229881Y202220D01*
X4230232Y202259D01*
X4230583Y202289D01*
X4230935Y202311D01*
X4231287Y202324D01*
X4231640Y202328D01*
X4231993Y202324D01*
X4232345Y202311D01*
X4232697Y202289D01*
X4233048Y202259D01*
X4233399Y202220D01*
X4233748Y202172D01*
X4234096Y202116D01*
X4234443Y202052D01*
X4234788Y201979D01*
X4235131Y201897D01*
X4235472Y201808D01*
X4235811Y201709D01*
X4236147Y201603D01*
X4236480Y201488D01*
X4236811Y201365D01*
X4237138Y201234D01*
X4237463Y201095D01*
X4237783Y200949D01*
X4238100Y200794D01*
X4238413Y200631D01*
X4238722Y200461D01*
X4239027Y200284D01*
X4239327Y200099D01*
X4239622Y199907D01*
X4239913Y199707D01*
X4240199Y199500D01*
X4240480Y199287D01*
X4240755Y199067D01*
X4241025Y198840D01*
X4241289Y198606D01*
X4241547Y198366D01*
X4241800Y198120D01*
X4242046Y197867D01*
X4242286Y197609D01*
X4242520Y197345D01*
X4242747Y197075D01*
X4242967Y196800D01*
X4243180Y196519D01*
X4243387Y196233D01*
X4243587Y195942D01*
X4243779Y195647D01*
X4243964Y195347D01*
X4244141Y195042D01*
X4244311Y194733D01*
X4244474Y194420D01*
X4244629Y194103D01*
X4244775Y193783D01*
X4244914Y193458D01*
X4245045Y193131D01*
X4245168Y192800D01*
X4245283Y192467D01*
X4245389Y192131D01*
X4245488Y191792D01*
X4245577Y191451D01*
X4245659Y191108D01*
X4245732Y190763D01*
X4245796Y190416D01*
X4245852Y190068D01*
X4245900Y189719D01*
X4245939Y189368D01*
X4245969Y189017D01*
X4245991Y188665D01*
X4246004Y188313D01*
X4246008Y187960D01*
X4246004Y187607D01*
X4245991Y187255D01*
X4245969Y186903D01*
X4245939Y186552D01*
X4245900Y186201D01*
X4245852Y185852D01*
X4245796Y185504D01*
X4245732Y185157D01*
X4245659Y184812D01*
X4245577Y184469D01*
X4245488Y184128D01*
X4245389Y183789D01*
X4245283Y183453D01*
X4245168Y183120D01*
X4245045Y182789D01*
X4244914Y182462D01*
X4244775Y182137D01*
X4244629Y181817D01*
X4244474Y181500D01*
X4244311Y181187D01*
X4244141Y180878D01*
X4243964Y180573D01*
X4243779Y180273D01*
X4243587Y179978D01*
X4243387Y179687D01*
X4243180Y179401D01*
X4242967Y179120D01*
X4242747Y178845D01*
X4242520Y178575D01*
X4242286Y178311D01*
X4242046Y178053D01*
X4241800Y177800D01*
X4241547Y177554D01*
X4241289Y177314D01*
X4241025Y177080D01*
X4240755Y176853D01*
X4240480Y176633D01*
X4240199Y176420D01*
X4239913Y176213D01*
X4239622Y176013D01*
X4239327Y175821D01*
X4239027Y175636D01*
X4238722Y175459D01*
X4238413Y175289D01*
X4238100Y175126D01*
X4237783Y174971D01*
X4237463Y174825D01*
X4237138Y174686D01*
X4236811Y174555D01*
X4236480Y174432D01*
X4236147Y174317D01*
X4235811Y174211D01*
X4235472Y174112D01*
X4235131Y174023D01*
X4234788Y173941D01*
X4234443Y173868D01*
X4234096Y173804D01*
X4233748Y173748D01*
X4233399Y173700D01*
X4233048Y173661D01*
X4232697Y173631D01*
X4232345Y173609D01*
X4231993Y173596D01*
X4231640Y173592D01*
X4231287Y173596D01*
X4230935Y173609D01*
X4230583Y173631D01*
X4230232Y173661D01*
X4229881Y173700D01*
X4229532Y173748D01*
X4229184Y173804D01*
X4228837Y173868D01*
X4228492Y173941D01*
X4228149Y174023D01*
X4227808Y174112D01*
X4227469Y174211D01*
X4227133Y174317D01*
X4226800Y174432D01*
X4226469Y174555D01*
X4226142Y174686D01*
X4225817Y174825D01*
X4225497Y174971D01*
X4225180Y175126D01*
X4224867Y175289D01*
X4224558Y175459D01*
X4224253Y175636D01*
X4223953Y175821D01*
X4223658Y176013D01*
X4223367Y176213D01*
X4223081Y176420D01*
X4222800Y176633D01*
X4222525Y176853D01*
X4222255Y177080D01*
X4221991Y177314D01*
X4221733Y177554D01*
X4221480Y177800D01*
X4221234Y178053D01*
X4220994Y178311D01*
X4220760Y178575D01*
X4220533Y178845D01*
X4220313Y179120D01*
X4220100Y179401D01*
X4219893Y179687D01*
X4219693Y179978D01*
X4219501Y180273D01*
X4219316Y180573D01*
X4219139Y180878D01*
X4218969Y181187D01*
X4218806Y181500D01*
X4218651Y181817D01*
X4218505Y182137D01*
X4218366Y182462D01*
X4218235Y182789D01*
X4218112Y183120D01*
X4217997Y183453D01*
X4217891Y183789D01*
X4217792Y184128D01*
X4217703Y184469D01*
X4217621Y184812D01*
X4217548Y185157D01*
X4217484Y185504D01*
X4217428Y185852D01*
X4217380Y186201D01*
X4217341Y186552D01*
X4217311Y186903D01*
X4217289Y187255D01*
X4217276Y187607D01*
X4217272Y187960D01*
D11*
X3980020Y113500D02*
X3960020Y113500D01*
D12*
X3955020Y13500D02*
X3985020Y13500D01*
X3992020Y113500D02*
X3948020Y113500D01*
X3992020Y113500D02*
X3992020Y95500D01*
X3992020Y31500D02*
X3992020Y13500D01*
X3948020Y13500D01*
X3948020Y113500D01*
X3992020Y113500D02*
X3998020Y113500D01*
X3998020Y95500D01*
X3992020Y95500D01*
X3992020Y31500D01*
X3998020Y31500D01*
X3998020Y13500D01*
X3992020Y13500D01*
D13*
X3944112Y80164D02*
X3937988Y80164D01*
X3937907Y80162D01*
X3937827Y80157D01*
X3937746Y80147D01*
X3937666Y80134D01*
X3937587Y80118D01*
X3937509Y80097D01*
X3937432Y80073D01*
X3937356Y80046D01*
X3937281Y80015D01*
X3937208Y79981D01*
X3937136Y79943D01*
X3937067Y79902D01*
X3936999Y79858D01*
X3936933Y79811D01*
X3936870Y79760D01*
X3936809Y79707D01*
X3936751Y79651D01*
X3936695Y79593D01*
X3936642Y79532D01*
X3936591Y79469D01*
X3936544Y79403D01*
X3936500Y79335D01*
X3936459Y79266D01*
X3936421Y79194D01*
X3936387Y79121D01*
X3936356Y79046D01*
X3936329Y78970D01*
X3936305Y78893D01*
X3936284Y78815D01*
X3936268Y78736D01*
X3936255Y78656D01*
X3936245Y78575D01*
X3936240Y78495D01*
X3936238Y78414D01*
X3936238Y77539D01*
X3942362Y84018D02*
X3944112Y86205D01*
X3936238Y86205D01*
X3936238Y84018D02*
X3936238Y88392D01*
D11*
X83660Y276060D02*
X63660Y276060D01*
D12*
X58660Y176060D02*
X88660Y176060D01*
X95660Y276060D02*
X51660Y276060D01*
X95660Y276060D02*
X95660Y258060D01*
X95660Y194060D02*
X95660Y176060D01*
X51660Y176060D01*
X51660Y276060D01*
X95660Y276060D02*
X101660Y276060D01*
X101660Y258060D01*
X95660Y258060D01*
X95660Y194060D01*
X101660Y194060D01*
X101660Y176060D01*
X95660Y176060D01*
D13*
X47752Y242724D02*
X41628Y242724D01*
X41547Y242722D01*
X41467Y242717D01*
X41386Y242707D01*
X41306Y242694D01*
X41227Y242678D01*
X41149Y242657D01*
X41072Y242633D01*
X40996Y242606D01*
X40921Y242575D01*
X40848Y242541D01*
X40776Y242503D01*
X40707Y242462D01*
X40639Y242418D01*
X40573Y242371D01*
X40510Y242320D01*
X40449Y242267D01*
X40391Y242211D01*
X40335Y242153D01*
X40282Y242092D01*
X40231Y242029D01*
X40184Y241963D01*
X40140Y241895D01*
X40099Y241826D01*
X40061Y241754D01*
X40027Y241681D01*
X39996Y241606D01*
X39969Y241530D01*
X39945Y241453D01*
X39924Y241375D01*
X39908Y241296D01*
X39895Y241216D01*
X39885Y241135D01*
X39880Y241055D01*
X39878Y240974D01*
X39878Y240099D01*
X39878Y246578D02*
X39878Y248765D01*
X39880Y248858D01*
X39886Y248950D01*
X39896Y249043D01*
X39909Y249135D01*
X39927Y249226D01*
X39949Y249316D01*
X39974Y249405D01*
X40003Y249494D01*
X40036Y249580D01*
X40072Y249666D01*
X40112Y249750D01*
X40156Y249832D01*
X40203Y249912D01*
X40253Y249990D01*
X40307Y250065D01*
X40363Y250139D01*
X40423Y250210D01*
X40486Y250278D01*
X40552Y250344D01*
X40620Y250407D01*
X40691Y250467D01*
X40765Y250523D01*
X40840Y250577D01*
X40918Y250627D01*
X40998Y250674D01*
X41080Y250718D01*
X41164Y250758D01*
X41250Y250794D01*
X41336Y250827D01*
X41425Y250856D01*
X41514Y250881D01*
X41604Y250903D01*
X41695Y250921D01*
X41787Y250934D01*
X41880Y250944D01*
X41972Y250950D01*
X42065Y250952D01*
X42158Y250950D01*
X42250Y250944D01*
X42343Y250934D01*
X42435Y250921D01*
X42526Y250903D01*
X42616Y250881D01*
X42705Y250856D01*
X42794Y250827D01*
X42880Y250794D01*
X42966Y250758D01*
X43050Y250718D01*
X43132Y250674D01*
X43212Y250627D01*
X43290Y250577D01*
X43365Y250523D01*
X43439Y250467D01*
X43510Y250407D01*
X43578Y250344D01*
X43644Y250278D01*
X43707Y250210D01*
X43767Y250139D01*
X43823Y250065D01*
X43877Y249990D01*
X43927Y249912D01*
X43974Y249832D01*
X44018Y249750D01*
X44058Y249666D01*
X44094Y249580D01*
X44127Y249494D01*
X44156Y249405D01*
X44181Y249316D01*
X44203Y249226D01*
X44221Y249135D01*
X44234Y249043D01*
X44244Y248950D01*
X44250Y248858D01*
X44252Y248765D01*
X47752Y249202D02*
X47752Y246578D01*
X47752Y249202D02*
X47750Y249284D01*
X47744Y249366D01*
X47735Y249447D01*
X47721Y249528D01*
X47704Y249609D01*
X47683Y249688D01*
X47659Y249766D01*
X47630Y249843D01*
X47598Y249919D01*
X47563Y249993D01*
X47524Y250065D01*
X47482Y250136D01*
X47437Y250204D01*
X47388Y250270D01*
X47337Y250334D01*
X47282Y250395D01*
X47225Y250454D01*
X47165Y250510D01*
X47102Y250563D01*
X47037Y250613D01*
X46970Y250660D01*
X46901Y250704D01*
X46829Y250744D01*
X46756Y250781D01*
X46681Y250815D01*
X46605Y250845D01*
X46527Y250871D01*
X46448Y250894D01*
X46369Y250913D01*
X46288Y250928D01*
X46207Y250940D01*
X46125Y250948D01*
X46043Y250952D01*
X45961Y250952D01*
X45879Y250948D01*
X45797Y250940D01*
X45716Y250928D01*
X45635Y250913D01*
X45556Y250894D01*
X45477Y250871D01*
X45399Y250845D01*
X45323Y250815D01*
X45248Y250781D01*
X45175Y250744D01*
X45103Y250704D01*
X45034Y250660D01*
X44967Y250613D01*
X44902Y250563D01*
X44839Y250510D01*
X44779Y250454D01*
X44722Y250395D01*
X44667Y250334D01*
X44616Y250270D01*
X44567Y250204D01*
X44522Y250136D01*
X44480Y250065D01*
X44441Y249993D01*
X44406Y249919D01*
X44374Y249843D01*
X44345Y249766D01*
X44321Y249688D01*
X44300Y249609D01*
X44283Y249528D01*
X44269Y249447D01*
X44260Y249366D01*
X44254Y249284D01*
X44252Y249202D01*
X44252Y247452D01*
D11*
X3878740Y113500D02*
X3898740Y113500D01*
D12*
X3903740Y13500D02*
X3873740Y13500D01*
X3866740Y113500D02*
X3910740Y113500D01*
X3910740Y95500D01*
X3910740Y31500D02*
X3910740Y13500D01*
X3866740Y13500D01*
X3866740Y113500D01*
X3910740Y113500D02*
X3916740Y113500D01*
X3916740Y95500D01*
X3910740Y95500D01*
X3910740Y31500D01*
X3916740Y31500D01*
X3916740Y13500D01*
X3910740Y13500D01*
D13*
X3862832Y80164D02*
X3856708Y80164D01*
X3856627Y80162D01*
X3856547Y80157D01*
X3856466Y80147D01*
X3856386Y80134D01*
X3856307Y80118D01*
X3856229Y80097D01*
X3856152Y80073D01*
X3856076Y80046D01*
X3856001Y80015D01*
X3855928Y79981D01*
X3855856Y79943D01*
X3855787Y79902D01*
X3855719Y79858D01*
X3855653Y79811D01*
X3855590Y79760D01*
X3855529Y79707D01*
X3855471Y79651D01*
X3855415Y79593D01*
X3855362Y79532D01*
X3855311Y79469D01*
X3855264Y79403D01*
X3855220Y79335D01*
X3855179Y79266D01*
X3855141Y79194D01*
X3855107Y79121D01*
X3855076Y79046D01*
X3855049Y78970D01*
X3855025Y78893D01*
X3855004Y78815D01*
X3854988Y78736D01*
X3854975Y78656D01*
X3854965Y78575D01*
X3854960Y78495D01*
X3854958Y78414D01*
X3854958Y77539D01*
X3856708Y84018D02*
X3862832Y85767D01*
X3856708Y84018D02*
X3856708Y88392D01*
X3858458Y87080D02*
X3854958Y87080D01*
D14*
X3901440Y240030D02*
X3901440Y252730D01*
X3895090Y259080D01*
X3882390Y259080D01*
X3876040Y252730D01*
X3882390Y233680D02*
X3895090Y233680D01*
X3901440Y240030D01*
X3882390Y233680D02*
X3876040Y240030D01*
X3876040Y252730D01*
X3895090Y259080D02*
X3901440Y265430D01*
X3901440Y278130D01*
X3895090Y284480D01*
X3882390Y284480D01*
X3876040Y278130D01*
X3876040Y265430D01*
X3882390Y259080D01*
D11*
X3910203Y237363D02*
X3919093Y237363D01*
X3910203Y237363D02*
X3910103Y237361D01*
X3910004Y237355D01*
X3909904Y237345D01*
X3909806Y237332D01*
X3909707Y237314D01*
X3909610Y237293D01*
X3909514Y237268D01*
X3909418Y237239D01*
X3909324Y237206D01*
X3909231Y237170D01*
X3909140Y237130D01*
X3909050Y237086D01*
X3908962Y237039D01*
X3908876Y236989D01*
X3908792Y236935D01*
X3908710Y236878D01*
X3908631Y236818D01*
X3908553Y236754D01*
X3908479Y236688D01*
X3908407Y236619D01*
X3908338Y236547D01*
X3908272Y236473D01*
X3908208Y236395D01*
X3908148Y236316D01*
X3908091Y236234D01*
X3908037Y236150D01*
X3907987Y236064D01*
X3907940Y235976D01*
X3907896Y235886D01*
X3907856Y235795D01*
X3907820Y235702D01*
X3907787Y235608D01*
X3907758Y235512D01*
X3907733Y235416D01*
X3907712Y235319D01*
X3907694Y235220D01*
X3907681Y235122D01*
X3907671Y235022D01*
X3907665Y234923D01*
X3907663Y234823D01*
X3907663Y233553D01*
X3907663Y243343D02*
X3919093Y243343D01*
X3919093Y246518D01*
X3919091Y246629D01*
X3919085Y246739D01*
X3919076Y246850D01*
X3919062Y246960D01*
X3919045Y247069D01*
X3919024Y247178D01*
X3918999Y247286D01*
X3918970Y247393D01*
X3918938Y247499D01*
X3918902Y247604D01*
X3918862Y247707D01*
X3918819Y247809D01*
X3918772Y247910D01*
X3918721Y248009D01*
X3918668Y248106D01*
X3918611Y248200D01*
X3918550Y248293D01*
X3918487Y248384D01*
X3918420Y248473D01*
X3918350Y248559D01*
X3918277Y248642D01*
X3918202Y248724D01*
X3918124Y248802D01*
X3918042Y248877D01*
X3917959Y248950D01*
X3917873Y249020D01*
X3917784Y249087D01*
X3917693Y249150D01*
X3917600Y249211D01*
X3917506Y249268D01*
X3917409Y249321D01*
X3917310Y249372D01*
X3917209Y249419D01*
X3917107Y249462D01*
X3917004Y249502D01*
X3916899Y249538D01*
X3916793Y249570D01*
X3916686Y249599D01*
X3916578Y249624D01*
X3916469Y249645D01*
X3916360Y249662D01*
X3916250Y249676D01*
X3916139Y249685D01*
X3916029Y249691D01*
X3915918Y249693D01*
X3915807Y249691D01*
X3915697Y249685D01*
X3915586Y249676D01*
X3915476Y249662D01*
X3915367Y249645D01*
X3915258Y249624D01*
X3915150Y249599D01*
X3915043Y249570D01*
X3914937Y249538D01*
X3914832Y249502D01*
X3914729Y249462D01*
X3914627Y249419D01*
X3914526Y249372D01*
X3914427Y249321D01*
X3914331Y249268D01*
X3914236Y249211D01*
X3914143Y249150D01*
X3914052Y249087D01*
X3913963Y249020D01*
X3913877Y248950D01*
X3913794Y248877D01*
X3913712Y248802D01*
X3913634Y248724D01*
X3913559Y248642D01*
X3913486Y248559D01*
X3913416Y248473D01*
X3913349Y248384D01*
X3913286Y248293D01*
X3913225Y248200D01*
X3913168Y248106D01*
X3913115Y248009D01*
X3913064Y247910D01*
X3913017Y247809D01*
X3912974Y247707D01*
X3912934Y247604D01*
X3912898Y247499D01*
X3912866Y247393D01*
X3912837Y247286D01*
X3912812Y247178D01*
X3912791Y247069D01*
X3912774Y246960D01*
X3912760Y246850D01*
X3912751Y246739D01*
X3912745Y246629D01*
X3912743Y246518D01*
X3912743Y243343D01*
X3919094Y257694D02*
X3919092Y257798D01*
X3919086Y257903D01*
X3919077Y258007D01*
X3919064Y258110D01*
X3919046Y258213D01*
X3919026Y258315D01*
X3919001Y258417D01*
X3918973Y258517D01*
X3918941Y258617D01*
X3918905Y258715D01*
X3918866Y258812D01*
X3918824Y258907D01*
X3918778Y259001D01*
X3918728Y259093D01*
X3918676Y259183D01*
X3918620Y259271D01*
X3918560Y259357D01*
X3918498Y259441D01*
X3918433Y259522D01*
X3918365Y259601D01*
X3918293Y259678D01*
X3918220Y259751D01*
X3918143Y259823D01*
X3918064Y259891D01*
X3917983Y259956D01*
X3917899Y260018D01*
X3917813Y260078D01*
X3917725Y260134D01*
X3917635Y260186D01*
X3917543Y260236D01*
X3917449Y260282D01*
X3917354Y260324D01*
X3917257Y260363D01*
X3917159Y260399D01*
X3917059Y260431D01*
X3916959Y260459D01*
X3916857Y260484D01*
X3916755Y260504D01*
X3916652Y260522D01*
X3916549Y260535D01*
X3916445Y260544D01*
X3916340Y260550D01*
X3916236Y260552D01*
X3919093Y257694D02*
X3919091Y257576D01*
X3919085Y257457D01*
X3919076Y257339D01*
X3919063Y257222D01*
X3919045Y257105D01*
X3919025Y256988D01*
X3919000Y256872D01*
X3918972Y256757D01*
X3918939Y256644D01*
X3918904Y256531D01*
X3918864Y256419D01*
X3918822Y256309D01*
X3918775Y256200D01*
X3918725Y256092D01*
X3918672Y255987D01*
X3918615Y255883D01*
X3918555Y255781D01*
X3918492Y255681D01*
X3918425Y255583D01*
X3918356Y255487D01*
X3918283Y255394D01*
X3918207Y255303D01*
X3918129Y255214D01*
X3918047Y255128D01*
X3917963Y255045D01*
X3917877Y254964D01*
X3917787Y254887D01*
X3917696Y254812D01*
X3917602Y254740D01*
X3917505Y254671D01*
X3917407Y254606D01*
X3917306Y254543D01*
X3917203Y254484D01*
X3917099Y254428D01*
X3916993Y254376D01*
X3916885Y254327D01*
X3916776Y254282D01*
X3916665Y254240D01*
X3916553Y254202D01*
X3914014Y259600D02*
X3914089Y259676D01*
X3914168Y259751D01*
X3914249Y259822D01*
X3914333Y259891D01*
X3914419Y259956D01*
X3914507Y260018D01*
X3914597Y260078D01*
X3914689Y260134D01*
X3914784Y260187D01*
X3914880Y260236D01*
X3914978Y260282D01*
X3915077Y260325D01*
X3915178Y260364D01*
X3915280Y260399D01*
X3915383Y260431D01*
X3915487Y260459D01*
X3915592Y260484D01*
X3915699Y260505D01*
X3915805Y260522D01*
X3915912Y260535D01*
X3916020Y260544D01*
X3916128Y260550D01*
X3916236Y260552D01*
X3914013Y259599D02*
X3907663Y254202D01*
X3907663Y260552D01*
X3914013Y265632D02*
X3914013Y269442D01*
X3914011Y269542D01*
X3914005Y269641D01*
X3913995Y269741D01*
X3913982Y269839D01*
X3913964Y269938D01*
X3913943Y270035D01*
X3913918Y270131D01*
X3913889Y270227D01*
X3913856Y270321D01*
X3913820Y270414D01*
X3913780Y270505D01*
X3913736Y270595D01*
X3913689Y270683D01*
X3913639Y270769D01*
X3913585Y270853D01*
X3913528Y270935D01*
X3913468Y271014D01*
X3913404Y271092D01*
X3913338Y271166D01*
X3913269Y271238D01*
X3913197Y271307D01*
X3913123Y271373D01*
X3913045Y271437D01*
X3912966Y271497D01*
X3912884Y271554D01*
X3912800Y271608D01*
X3912714Y271658D01*
X3912626Y271705D01*
X3912536Y271749D01*
X3912445Y271789D01*
X3912352Y271825D01*
X3912258Y271858D01*
X3912162Y271887D01*
X3912066Y271912D01*
X3911969Y271933D01*
X3911870Y271951D01*
X3911772Y271964D01*
X3911672Y271974D01*
X3911573Y271980D01*
X3911473Y271982D01*
X3910838Y271982D01*
X3910727Y271980D01*
X3910617Y271974D01*
X3910506Y271965D01*
X3910396Y271951D01*
X3910287Y271934D01*
X3910178Y271913D01*
X3910070Y271888D01*
X3909963Y271859D01*
X3909857Y271827D01*
X3909752Y271791D01*
X3909649Y271751D01*
X3909547Y271708D01*
X3909446Y271661D01*
X3909347Y271610D01*
X3909251Y271557D01*
X3909156Y271500D01*
X3909063Y271439D01*
X3908972Y271376D01*
X3908883Y271309D01*
X3908797Y271239D01*
X3908714Y271166D01*
X3908632Y271091D01*
X3908554Y271013D01*
X3908479Y270931D01*
X3908406Y270848D01*
X3908336Y270762D01*
X3908269Y270673D01*
X3908206Y270582D01*
X3908145Y270489D01*
X3908088Y270395D01*
X3908035Y270298D01*
X3907984Y270199D01*
X3907937Y270098D01*
X3907894Y269996D01*
X3907854Y269893D01*
X3907818Y269788D01*
X3907786Y269682D01*
X3907757Y269575D01*
X3907732Y269467D01*
X3907711Y269358D01*
X3907694Y269249D01*
X3907680Y269139D01*
X3907671Y269028D01*
X3907665Y268918D01*
X3907663Y268807D01*
X3907665Y268696D01*
X3907671Y268586D01*
X3907680Y268475D01*
X3907694Y268365D01*
X3907711Y268256D01*
X3907732Y268147D01*
X3907757Y268039D01*
X3907786Y267932D01*
X3907818Y267826D01*
X3907854Y267721D01*
X3907894Y267618D01*
X3907937Y267516D01*
X3907984Y267415D01*
X3908035Y267316D01*
X3908088Y267220D01*
X3908145Y267125D01*
X3908206Y267032D01*
X3908269Y266941D01*
X3908336Y266852D01*
X3908406Y266766D01*
X3908479Y266683D01*
X3908554Y266601D01*
X3908632Y266523D01*
X3908714Y266448D01*
X3908797Y266375D01*
X3908883Y266305D01*
X3908972Y266238D01*
X3909063Y266175D01*
X3909156Y266114D01*
X3909251Y266057D01*
X3909347Y266004D01*
X3909446Y265953D01*
X3909547Y265906D01*
X3909649Y265863D01*
X3909752Y265823D01*
X3909857Y265787D01*
X3909963Y265755D01*
X3910070Y265726D01*
X3910178Y265701D01*
X3910287Y265680D01*
X3910396Y265663D01*
X3910506Y265649D01*
X3910617Y265640D01*
X3910727Y265634D01*
X3910838Y265632D01*
X3914013Y265632D01*
X3914153Y265634D01*
X3914293Y265640D01*
X3914433Y265649D01*
X3914572Y265663D01*
X3914711Y265680D01*
X3914849Y265701D01*
X3914987Y265726D01*
X3915124Y265755D01*
X3915260Y265787D01*
X3915395Y265824D01*
X3915529Y265864D01*
X3915662Y265907D01*
X3915794Y265955D01*
X3915925Y266005D01*
X3916054Y266060D01*
X3916181Y266118D01*
X3916307Y266179D01*
X3916431Y266244D01*
X3916553Y266313D01*
X3916673Y266384D01*
X3916791Y266459D01*
X3916908Y266537D01*
X3917022Y266619D01*
X3917133Y266703D01*
X3917242Y266791D01*
X3917349Y266881D01*
X3917454Y266975D01*
X3917555Y267071D01*
X3917654Y267170D01*
X3917750Y267271D01*
X3917844Y267376D01*
X3917934Y267483D01*
X3918022Y267592D01*
X3918106Y267703D01*
X3918188Y267817D01*
X3918266Y267934D01*
X3918341Y268052D01*
X3918412Y268172D01*
X3918481Y268294D01*
X3918546Y268418D01*
X3918607Y268544D01*
X3918665Y268671D01*
X3918720Y268800D01*
X3918770Y268931D01*
X3918818Y269063D01*
X3918861Y269196D01*
X3918901Y269330D01*
X3918938Y269465D01*
X3918970Y269601D01*
X3918999Y269738D01*
X3919024Y269876D01*
X3919045Y270014D01*
X3919062Y270153D01*
X3919076Y270292D01*
X3919085Y270432D01*
X3919091Y270572D01*
X3919093Y270712D01*
M02*
