%TF.GenerationSoftware,KiCad,Pcbnew,9.0.4*%
%TF.CreationDate,2026-01-09T18:07:36-05:00*%
%TF.ProjectId,electrosteel2020_10_arrange7_synthboardsonlyrev6,656c6563-7472-46f7-9374-65656c323032,rev?*%
%TF.SameCoordinates,Original*%
%TF.FileFunction,Soldermask,Top*%
%TF.FilePolarity,Negative*%
%FSLAX46Y46*%
G04 Gerber Fmt 4.6, Leading zero omitted, Abs format (unit mm)*
G04 Created by KiCad (PCBNEW 9.0.4) date 2026-01-09 18:07:36*
%MOMM*%
%LPD*%
G01*
G04 APERTURE LIST*
G04 Aperture macros list*
%AMRoundRect*
0 Rectangle with rounded corners*
0 $1 Rounding radius*
0 $2 $3 $4 $5 $6 $7 $8 $9 X,Y pos of 4 corners*
0 Add a 4 corners polygon primitive as box body*
4,1,4,$2,$3,$4,$5,$6,$7,$8,$9,$2,$3,0*
0 Add four circle primitives for the rounded corners*
1,1,$1+$1,$2,$3*
1,1,$1+$1,$4,$5*
1,1,$1+$1,$6,$7*
1,1,$1+$1,$8,$9*
0 Add four rect primitives between the rounded corners*
20,1,$1+$1,$2,$3,$4,$5,0*
20,1,$1+$1,$4,$5,$6,$7,0*
20,1,$1+$1,$6,$7,$8,$9,0*
20,1,$1+$1,$8,$9,$2,$3,0*%
G04 Aperture macros list end*
%ADD10O,2.200001X0.599999*%
%ADD11R,1.981200X0.558800*%
%ADD12RoundRect,0.160000X0.160000X-0.197500X0.160000X0.197500X-0.160000X0.197500X-0.160000X-0.197500X0*%
%ADD13RoundRect,0.160000X-0.160000X0.197500X-0.160000X-0.197500X0.160000X-0.197500X0.160000X0.197500X0*%
%ADD14C,1.800000*%
%ADD15RoundRect,0.200000X-0.275000X0.200000X-0.275000X-0.200000X0.275000X-0.200000X0.275000X0.200000X0*%
%ADD16RoundRect,0.200000X-0.200000X-0.275000X0.200000X-0.275000X0.200000X0.275000X-0.200000X0.275000X0*%
%ADD17RoundRect,0.200000X0.200000X0.275000X-0.200000X0.275000X-0.200000X-0.275000X0.200000X-0.275000X0*%
%ADD18RoundRect,0.200000X0.275000X-0.200000X0.275000X0.200000X-0.275000X0.200000X-0.275000X-0.200000X0*%
%ADD19C,1.524000*%
%ADD20RoundRect,0.101600X-0.800100X0.279400X-0.800100X-0.279400X0.800100X-0.279400X0.800100X0.279400X0*%
%ADD21R,1.524000X1.524000*%
%ADD22RoundRect,0.101600X0.750000X1.000000X-0.750000X1.000000X-0.750000X-1.000000X0.750000X-1.000000X0*%
%ADD23RoundRect,0.101600X-0.750000X-1.000000X0.750000X-1.000000X0.750000X1.000000X-0.750000X1.000000X0*%
%ADD24C,1.507998*%
%ADD25C,3.200000*%
%ADD26C,2.000000*%
%ADD27R,0.558800X2.286000*%
%ADD28RoundRect,0.140000X-0.170000X0.140000X-0.170000X-0.140000X0.170000X-0.140000X0.170000X0.140000X0*%
%ADD29RoundRect,0.135000X0.185000X-0.135000X0.185000X0.135000X-0.185000X0.135000X-0.185000X-0.135000X0*%
%ADD30RoundRect,0.140000X0.140000X0.170000X-0.140000X0.170000X-0.140000X-0.170000X0.140000X-0.170000X0*%
%ADD31R,1.700000X1.700000*%
%ADD32C,1.700000*%
%ADD33RoundRect,0.140000X-0.140000X-0.170000X0.140000X-0.170000X0.140000X0.170000X-0.140000X0.170000X0*%
%ADD34C,1.440000*%
%ADD35RoundRect,0.250000X-0.600000X-0.600000X0.600000X-0.600000X0.600000X0.600000X-0.600000X0.600000X0*%
%ADD36RoundRect,0.140000X0.170000X-0.140000X0.170000X0.140000X-0.170000X0.140000X-0.170000X-0.140000X0*%
%ADD37RoundRect,0.101600X0.250000X-0.500000X0.250000X0.500000X-0.250000X0.500000X-0.250000X-0.500000X0*%
%ADD38RoundRect,0.101600X0.360000X-0.390000X0.360000X0.390000X-0.360000X0.390000X-0.360000X-0.390000X0*%
%ADD39RoundRect,0.101600X0.525000X-0.540000X0.525000X0.540000X-0.525000X0.540000X-0.525000X-0.540000X0*%
%ADD40RoundRect,0.101600X0.525000X-0.600000X0.525000X0.600000X-0.525000X0.600000X-0.525000X-0.600000X0*%
%ADD41RoundRect,0.101600X0.525000X-1.195000X0.525000X1.195000X-0.525000X1.195000X-0.525000X-1.195000X0*%
%ADD42RoundRect,0.101600X-1.455000X-0.275000X1.455000X-0.275000X1.455000X0.275000X-1.455000X0.275000X0*%
%ADD43RoundRect,0.101600X-1.000000X0.750000X-1.000000X-0.750000X1.000000X-0.750000X1.000000X0.750000X0*%
%ADD44RoundRect,0.135000X-0.135000X-0.185000X0.135000X-0.185000X0.135000X0.185000X-0.135000X0.185000X0*%
%ADD45RoundRect,0.250000X1.137500X0.550000X-1.137500X0.550000X-1.137500X-0.550000X1.137500X-0.550000X0*%
%ADD46RoundRect,0.101600X0.754000X-0.754000X0.754000X0.754000X-0.754000X0.754000X-0.754000X-0.754000X0*%
%ADD47C,1.711200*%
%ADD48RoundRect,0.135000X-0.185000X0.135000X-0.185000X-0.135000X0.185000X-0.135000X0.185000X0.135000X0*%
%ADD49RoundRect,0.101600X1.000000X-0.750000X1.000000X0.750000X-1.000000X0.750000X-1.000000X-0.750000X0*%
%ADD50RoundRect,0.101600X0.800100X-0.279400X0.800100X0.279400X-0.800100X0.279400X-0.800100X-0.279400X0*%
%ADD51RoundRect,0.250000X0.600000X-0.600000X0.600000X0.600000X-0.600000X0.600000X-0.600000X-0.600000X0*%
%ADD52RoundRect,0.250000X-0.312500X-0.625000X0.312500X-0.625000X0.312500X0.625000X-0.312500X0.625000X0*%
G04 APERTURE END LIST*
D10*
%TO.C,U7*%
X-13800000Y-79460000D03*
X-13800000Y-80730000D03*
X-13800000Y-82000000D03*
X-13800000Y-83270000D03*
X-9000000Y-83270000D03*
X-9000000Y-82000000D03*
X-9000000Y-80730000D03*
X-9000000Y-79460000D03*
%TD*%
D11*
%TO.C,U6*%
X-30427600Y-80000000D03*
X-30427600Y-81270000D03*
X-30427600Y-82540000D03*
X-30427600Y-83810000D03*
X-25500000Y-83810000D03*
X-25500000Y-82540000D03*
X-25500000Y-81270000D03*
X-25500000Y-80000000D03*
%TD*%
D12*
%TO.C,R97*%
X41059100Y-81632400D03*
X41059100Y-80437400D03*
%TD*%
%TO.C,R96*%
X43599100Y-81632400D03*
X43599100Y-80437400D03*
%TD*%
%TO.C,R95*%
X33439100Y-81632400D03*
X33439100Y-80437400D03*
%TD*%
%TO.C,R94*%
X35979100Y-81632400D03*
X35979100Y-80437400D03*
%TD*%
%TO.C,R93*%
X38519100Y-81632400D03*
X38519100Y-80437400D03*
%TD*%
D13*
%TO.C,R34*%
X38519100Y-89039100D03*
X38519100Y-90234100D03*
%TD*%
%TO.C,R33*%
X35979100Y-89039100D03*
X35979100Y-90234100D03*
%TD*%
%TO.C,R32*%
X30899100Y-89039100D03*
X30899100Y-90234100D03*
%TD*%
%TO.C,R31*%
X33439100Y-89039100D03*
X33439100Y-90234100D03*
%TD*%
%TO.C,R30*%
X43599100Y-89039100D03*
X43599100Y-90234100D03*
%TD*%
%TO.C,R29*%
X41059100Y-89039100D03*
X41059100Y-90234100D03*
%TD*%
%TO.C,R25*%
X15659100Y-80437400D03*
X15659100Y-81632400D03*
%TD*%
%TO.C,R24*%
X18199100Y-80437400D03*
X18199100Y-81632400D03*
%TD*%
%TO.C,R3*%
X-86000000Y-79252500D03*
X-86000000Y-80447500D03*
%TD*%
D14*
%TO.C,TP0*%
X12950000Y-89520000D03*
%TD*%
%TO.C,TP9*%
X227260000Y-120300000D03*
%TD*%
%TO.C,TP8*%
X262050000Y-80950000D03*
%TD*%
%TO.C,TP7*%
X173650000Y-108030000D03*
%TD*%
%TO.C,TP6*%
X199110000Y-81450000D03*
%TD*%
%TO.C,TP5*%
X122420000Y-115780000D03*
%TD*%
%TO.C,TP4*%
X144060000Y-91970000D03*
%TD*%
%TO.C,TP3*%
X62250000Y-115870000D03*
%TD*%
%TO.C,TP2*%
X89800000Y-91680000D03*
%TD*%
%TO.C,TP1*%
X11860000Y-108850000D03*
%TD*%
D15*
%TO.C,R18*%
X8320000Y-109575000D03*
X8320000Y-107925000D03*
%TD*%
D16*
%TO.C,R43*%
X222865000Y-108660000D03*
X224515000Y-108660000D03*
%TD*%
%TO.C,R42*%
X225965000Y-116850000D03*
X227615000Y-116850000D03*
%TD*%
%TO.C,R41*%
X256920000Y-81540000D03*
X258570000Y-81540000D03*
%TD*%
%TO.C,R40*%
X260030000Y-89860000D03*
X261680000Y-89860000D03*
%TD*%
%TO.C,R39*%
X168660000Y-108500000D03*
X170310000Y-108500000D03*
%TD*%
%TO.C,R38*%
X171850000Y-116520000D03*
X173500000Y-116520000D03*
%TD*%
%TO.C,R37*%
X194000000Y-81940000D03*
X195650000Y-81940000D03*
%TD*%
%TO.C,R36*%
X196350000Y-91310000D03*
X198000000Y-91310000D03*
%TD*%
%TO.C,R35*%
X114895000Y-109260000D03*
X116545000Y-109260000D03*
%TD*%
%TO.C,R28*%
X117670000Y-115880000D03*
X119320000Y-115880000D03*
%TD*%
%TO.C,R27*%
X140115000Y-82300000D03*
X141765000Y-82300000D03*
%TD*%
%TO.C,R26*%
X142575000Y-89090000D03*
X144225000Y-89090000D03*
%TD*%
%TO.C,R23*%
X61930000Y-108770000D03*
X63580000Y-108770000D03*
%TD*%
D17*
%TO.C,R22*%
X66855000Y-116240000D03*
X65205000Y-116240000D03*
%TD*%
D16*
%TO.C,R21*%
X85465000Y-82420000D03*
X87115000Y-82420000D03*
%TD*%
D17*
%TO.C,R20*%
X92270000Y-89100000D03*
X90620000Y-89100000D03*
%TD*%
D15*
%TO.C,R19*%
X5680000Y-107925000D03*
X5680000Y-109575000D03*
%TD*%
%TO.C,R17*%
X5470000Y-80975000D03*
X5470000Y-82625000D03*
%TD*%
D18*
%TO.C,R16*%
X8920000Y-87705000D03*
X8920000Y-89355000D03*
%TD*%
D19*
%TO.C,U8*%
X-59980000Y-127030000D03*
X-57440000Y-127030000D03*
X-54900000Y-127030000D03*
%TD*%
D20*
%TO.C,L2*%
X-64080000Y-120066700D03*
X-64080000Y-122073300D03*
%TD*%
D21*
%TO.C,J7*%
X-45562500Y-127642500D03*
D19*
X-43562500Y-127642500D03*
X-41562500Y-127642500D03*
X-39562500Y-127642500D03*
%TD*%
D22*
%TO.C,C20*%
X-52700000Y-122310000D03*
X-55700000Y-122310000D03*
%TD*%
D23*
%TO.C,C18*%
X-61260000Y-122980000D03*
X-58260000Y-122980000D03*
%TD*%
%TO.C,C17*%
X-61230000Y-120390000D03*
X-58230000Y-120390000D03*
%TD*%
D21*
%TO.C,J6*%
X-73180000Y-127060000D03*
D19*
X-71180000Y-127060000D03*
X-69180000Y-127060000D03*
X-67180000Y-127060000D03*
%TD*%
D24*
%TO.C,SW1*%
X68999998Y-96749999D03*
X75500000Y-96749999D03*
X68999998Y-101250000D03*
X75500000Y-101250000D03*
%TD*%
D25*
%TO.C,H6*%
X246220104Y-96119582D03*
%TD*%
D26*
%TO.C,C16*%
X-95500000Y-100750000D03*
X-85500000Y-100750000D03*
%TD*%
D25*
%TO.C,H2*%
X295250000Y-126250000D03*
%TD*%
D27*
%TO.C,U5*%
X-29520000Y-94620000D03*
X-28250000Y-94620000D03*
X-26980000Y-94620000D03*
X-25710000Y-94620000D03*
X-24440000Y-94620000D03*
X-23170000Y-94620000D03*
X-21900000Y-94620000D03*
X-21900000Y-89590800D03*
X-23170000Y-89590800D03*
X-24440000Y-89590800D03*
X-25710000Y-89590800D03*
X-26980000Y-89590800D03*
X-28250000Y-89590800D03*
X-29520000Y-89590800D03*
%TD*%
D28*
%TO.C,C14*%
X-10000000Y-84770000D03*
X-10000000Y-85730000D03*
%TD*%
D29*
%TO.C,R12*%
X-33000000Y-81000000D03*
X-33000000Y-79980000D03*
%TD*%
D30*
%TO.C,C10*%
X-25940000Y-87120000D03*
X-26900000Y-87120000D03*
%TD*%
D29*
%TO.C,R7*%
X-33000000Y-87020000D03*
X-33000000Y-86000000D03*
%TD*%
D31*
%TO.C,A5*%
X157470000Y-112500000D03*
D32*
X154930000Y-112500000D03*
X152390000Y-112500000D03*
X149850000Y-112500000D03*
X147310000Y-112500000D03*
X144770000Y-112500000D03*
X142230000Y-112500000D03*
X139690000Y-112500000D03*
X137150000Y-112500000D03*
X134610000Y-112500000D03*
X132070000Y-112500000D03*
X129530000Y-112500000D03*
X126990000Y-112500000D03*
X124450000Y-112500000D03*
X121910000Y-112500000D03*
X119370000Y-112500000D03*
X116830000Y-112500000D03*
X114290000Y-112500000D03*
X111750000Y-112500000D03*
X109210000Y-112500000D03*
X109210000Y-127740000D03*
X111750000Y-127740000D03*
X114290000Y-127740000D03*
X116830000Y-127740000D03*
X119370000Y-127740000D03*
X121910000Y-127740000D03*
X124450000Y-127740000D03*
X126990000Y-127740000D03*
X129530000Y-127740000D03*
X132070000Y-127740000D03*
X134610000Y-127740000D03*
X137150000Y-127740000D03*
X139690000Y-127740000D03*
X142230000Y-127740000D03*
X144770000Y-127740000D03*
X147310000Y-127740000D03*
X149850000Y-127740000D03*
X152390000Y-127740000D03*
X154930000Y-127740000D03*
X157470000Y-127740000D03*
%TD*%
D25*
%TO.C,H4*%
X246233722Y-83389853D03*
%TD*%
D33*
%TO.C,C12*%
X-25710000Y-78000000D03*
X-24750000Y-78000000D03*
%TD*%
D27*
%TO.C,U1*%
X-19560000Y-94620000D03*
X-18290000Y-94620000D03*
X-17020000Y-94620000D03*
X-15750000Y-94620000D03*
X-14480000Y-94620000D03*
X-13210000Y-94620000D03*
X-11940000Y-94620000D03*
X-11940000Y-89590800D03*
X-13210000Y-89590800D03*
X-14480000Y-89590800D03*
X-15750000Y-89590800D03*
X-17020000Y-89590800D03*
X-18290000Y-89590800D03*
X-19560000Y-89590800D03*
%TD*%
D29*
%TO.C,R4*%
X-37000000Y-87000000D03*
X-37000000Y-85980000D03*
%TD*%
D34*
%TO.C,RV1*%
X-85250000Y-83000000D03*
X-85250000Y-85540000D03*
X-85250000Y-88080000D03*
%TD*%
D35*
%TO.C,J5*%
X-91250000Y-110250000D03*
D32*
X-88710000Y-110250000D03*
X-91250000Y-112790000D03*
X-88710000Y-112790000D03*
X-91250000Y-115330000D03*
X-88710000Y-115330000D03*
X-91250000Y-117870000D03*
X-88710000Y-117870000D03*
X-91250000Y-120410000D03*
X-88710000Y-120410000D03*
X-91250000Y-122950000D03*
X-88710000Y-122950000D03*
X-91250000Y-125490000D03*
X-88710000Y-125490000D03*
X-91250000Y-128030000D03*
X-88710000Y-128030000D03*
%TD*%
D27*
%TO.C,U4*%
X-19350000Y-106000000D03*
X-18080000Y-106000000D03*
X-16810000Y-106000000D03*
X-15540000Y-106000000D03*
X-14270000Y-106000000D03*
X-13000000Y-106000000D03*
X-11730000Y-106000000D03*
X-11730000Y-100970800D03*
X-13000000Y-100970800D03*
X-14270000Y-100970800D03*
X-15540000Y-100970800D03*
X-16810000Y-100970800D03*
X-18080000Y-100970800D03*
X-19350000Y-100970800D03*
%TD*%
D30*
%TO.C,C8*%
X-36210000Y-96620000D03*
X-37170000Y-96620000D03*
%TD*%
D31*
%TO.C,A10*%
X46260000Y-85260000D03*
D32*
X43720000Y-85260000D03*
X41180000Y-85260000D03*
X38640000Y-85260000D03*
X36100000Y-85260000D03*
X33560000Y-85260000D03*
X31020000Y-85260000D03*
X28480000Y-85260000D03*
X25940000Y-85260000D03*
X23400000Y-85260000D03*
X20860000Y-85260000D03*
X18320000Y-85260000D03*
X15780000Y-85260000D03*
X13240000Y-85260000D03*
X10700000Y-85260000D03*
X8160000Y-85260000D03*
X5620000Y-85260000D03*
X3080000Y-85260000D03*
X540000Y-85260000D03*
X-2000000Y-85260000D03*
X-2000000Y-100500000D03*
X540000Y-100500000D03*
X3080000Y-100500000D03*
X5620000Y-100500000D03*
X8160000Y-100500000D03*
X10700000Y-100500000D03*
X13240000Y-100500000D03*
X15780000Y-100500000D03*
X18320000Y-100500000D03*
X20860000Y-100500000D03*
X23400000Y-100500000D03*
X25940000Y-100500000D03*
X28480000Y-100500000D03*
X31020000Y-100500000D03*
X33560000Y-100500000D03*
X36100000Y-100500000D03*
X38640000Y-100500000D03*
X41180000Y-100500000D03*
X43720000Y-100500000D03*
X46260000Y-100500000D03*
%TD*%
D36*
%TO.C,C13*%
X-6750000Y-80710000D03*
X-6750000Y-79750000D03*
%TD*%
D37*
%TO.C,J2*%
X65725000Y-85700000D03*
X64625000Y-85700000D03*
X63525000Y-85700000D03*
X62425000Y-85700000D03*
X61325000Y-85700000D03*
X60225000Y-85700000D03*
X59125000Y-85700000D03*
X58025000Y-85700000D03*
D38*
X67485000Y-83020000D03*
D39*
X67500000Y-81750000D03*
D40*
X67500000Y-79140000D03*
X56850000Y-79710000D03*
D41*
X56850000Y-82895000D03*
D42*
X64161000Y-78465000D03*
X59971000Y-78465000D03*
%TD*%
D43*
%TO.C,C22*%
X-77000000Y-107500000D03*
X-77000000Y-110500000D03*
%TD*%
D44*
%TO.C,R13*%
X-23000000Y-83000000D03*
X-21980000Y-83000000D03*
%TD*%
D30*
%TO.C,C1*%
X-15710000Y-98470800D03*
X-16670000Y-98470800D03*
%TD*%
D29*
%TO.C,R10*%
X-39000000Y-87000000D03*
X-39000000Y-85980000D03*
%TD*%
D31*
%TO.C,A2*%
X128760000Y-85500000D03*
D32*
X126220000Y-85500000D03*
X123680000Y-85500000D03*
X121140000Y-85500000D03*
X118600000Y-85500000D03*
X116060000Y-85500000D03*
X113520000Y-85500000D03*
X110980000Y-85500000D03*
X108440000Y-85500000D03*
X105900000Y-85500000D03*
X103360000Y-85500000D03*
X100820000Y-85500000D03*
X98280000Y-85500000D03*
X95740000Y-85500000D03*
X93200000Y-85500000D03*
X90660000Y-85500000D03*
X88120000Y-85500000D03*
X85580000Y-85500000D03*
X83040000Y-85500000D03*
X80500000Y-85500000D03*
X80500000Y-100740000D03*
X83040000Y-100740000D03*
X85580000Y-100740000D03*
X88120000Y-100740000D03*
X90660000Y-100740000D03*
X93200000Y-100740000D03*
X95740000Y-100740000D03*
X98280000Y-100740000D03*
X100820000Y-100740000D03*
X103360000Y-100740000D03*
X105900000Y-100740000D03*
X108440000Y-100740000D03*
X110980000Y-100740000D03*
X113520000Y-100740000D03*
X116060000Y-100740000D03*
X118600000Y-100740000D03*
X121140000Y-100740000D03*
X123680000Y-100740000D03*
X126220000Y-100740000D03*
X128760000Y-100740000D03*
%TD*%
D45*
%TO.C,C15*%
X-76437500Y-80500000D03*
X-80562500Y-80500000D03*
%TD*%
D23*
%TO.C,C24*%
X-80100000Y-113600000D03*
X-77100000Y-113600000D03*
%TD*%
D36*
%TO.C,C5*%
X-25750000Y-109460000D03*
X-25750000Y-108500000D03*
%TD*%
D25*
%TO.C,H3*%
X-53170000Y-115620000D03*
%TD*%
D30*
%TO.C,C7*%
X-35210000Y-107120000D03*
X-36170000Y-107120000D03*
%TD*%
D46*
%TO.C,PS1*%
X-72000000Y-112700000D03*
D47*
X-72000000Y-110160000D03*
X-72000000Y-107620000D03*
X-72000000Y-102540000D03*
X-72000000Y-100000000D03*
X-72000000Y-97460000D03*
X-72000000Y-94920000D03*
%TD*%
D25*
%TO.C,H5*%
X53281673Y-96125101D03*
%TD*%
D31*
%TO.C,A9*%
X265470000Y-112000000D03*
D32*
X262930000Y-112000000D03*
X260390000Y-112000000D03*
X257850000Y-112000000D03*
X255310000Y-112000000D03*
X252770000Y-112000000D03*
X250230000Y-112000000D03*
X247690000Y-112000000D03*
X245150000Y-112000000D03*
X242610000Y-112000000D03*
X240070000Y-112000000D03*
X237530000Y-112000000D03*
X234990000Y-112000000D03*
X232450000Y-112000000D03*
X229910000Y-112000000D03*
X227370000Y-112000000D03*
X224830000Y-112000000D03*
X222290000Y-112000000D03*
X219750000Y-112000000D03*
X217210000Y-112000000D03*
X217210000Y-127240000D03*
X219750000Y-127240000D03*
X222290000Y-127240000D03*
X224830000Y-127240000D03*
X227370000Y-127240000D03*
X229910000Y-127240000D03*
X232450000Y-127240000D03*
X234990000Y-127240000D03*
X237530000Y-127240000D03*
X240070000Y-127240000D03*
X242610000Y-127240000D03*
X245150000Y-127240000D03*
X247690000Y-127240000D03*
X250230000Y-127240000D03*
X252770000Y-127240000D03*
X255310000Y-127240000D03*
X257850000Y-127240000D03*
X260390000Y-127240000D03*
X262930000Y-127240000D03*
X265470000Y-127240000D03*
%TD*%
D48*
%TO.C,R15*%
X23250000Y-88980000D03*
X23250000Y-90000000D03*
%TD*%
D31*
%TO.C,A8*%
X299760000Y-85500000D03*
D32*
X297220000Y-85500000D03*
X294680000Y-85500000D03*
X292140000Y-85500000D03*
X289600000Y-85500000D03*
X287060000Y-85500000D03*
X284520000Y-85500000D03*
X281980000Y-85500000D03*
X279440000Y-85500000D03*
X276900000Y-85500000D03*
X274360000Y-85500000D03*
X271820000Y-85500000D03*
X269280000Y-85500000D03*
X266740000Y-85500000D03*
X264200000Y-85500000D03*
X261660000Y-85500000D03*
X259120000Y-85500000D03*
X256580000Y-85500000D03*
X254040000Y-85500000D03*
X251500000Y-85500000D03*
X251500000Y-100740000D03*
X254040000Y-100740000D03*
X256580000Y-100740000D03*
X259120000Y-100740000D03*
X261660000Y-100740000D03*
X264200000Y-100740000D03*
X266740000Y-100740000D03*
X269280000Y-100740000D03*
X271820000Y-100740000D03*
X274360000Y-100740000D03*
X276900000Y-100740000D03*
X279440000Y-100740000D03*
X281980000Y-100740000D03*
X284520000Y-100740000D03*
X287060000Y-100740000D03*
X289600000Y-100740000D03*
X292140000Y-100740000D03*
X294680000Y-100740000D03*
X297220000Y-100740000D03*
X299760000Y-100740000D03*
%TD*%
D29*
%TO.C,R8*%
X-34000000Y-87020000D03*
X-34000000Y-86000000D03*
%TD*%
D31*
%TO.C,J1*%
X-89750000Y-85000000D03*
D32*
X-89750000Y-87540000D03*
%TD*%
D31*
%TO.C,A7*%
X211470000Y-112250000D03*
D32*
X208930000Y-112250000D03*
X206390000Y-112250000D03*
X203850000Y-112250000D03*
X201310000Y-112250000D03*
X198770000Y-112250000D03*
X196230000Y-112250000D03*
X193690000Y-112250000D03*
X191150000Y-112250000D03*
X188610000Y-112250000D03*
X186070000Y-112250000D03*
X183530000Y-112250000D03*
X180990000Y-112250000D03*
X178450000Y-112250000D03*
X175910000Y-112250000D03*
X173370000Y-112250000D03*
X170830000Y-112250000D03*
X168290000Y-112250000D03*
X165750000Y-112250000D03*
X163210000Y-112250000D03*
X163210000Y-127490000D03*
X165750000Y-127490000D03*
X168290000Y-127490000D03*
X170830000Y-127490000D03*
X173370000Y-127490000D03*
X175910000Y-127490000D03*
X178450000Y-127490000D03*
X180990000Y-127490000D03*
X183530000Y-127490000D03*
X186070000Y-127490000D03*
X188610000Y-127490000D03*
X191150000Y-127490000D03*
X193690000Y-127490000D03*
X196230000Y-127490000D03*
X198770000Y-127490000D03*
X201310000Y-127490000D03*
X203850000Y-127490000D03*
X206390000Y-127490000D03*
X208930000Y-127490000D03*
X211470000Y-127490000D03*
%TD*%
D33*
%TO.C,C6*%
X-25960000Y-98500000D03*
X-25000000Y-98500000D03*
%TD*%
D27*
%TO.C,U3*%
X-40020000Y-104638400D03*
X-38750000Y-104638400D03*
X-37480000Y-104638400D03*
X-36210000Y-104638400D03*
X-34940000Y-104638400D03*
X-33670000Y-104638400D03*
X-32400000Y-104638400D03*
X-32400000Y-99609200D03*
X-33670000Y-99609200D03*
X-34940000Y-99609200D03*
X-36210000Y-99609200D03*
X-37480000Y-99609200D03*
X-38750000Y-99609200D03*
X-40020000Y-99609200D03*
%TD*%
D29*
%TO.C,R11*%
X-38000000Y-86980000D03*
X-38000000Y-85960000D03*
%TD*%
D30*
%TO.C,C9*%
X-24900000Y-97120000D03*
X-25860000Y-97120000D03*
%TD*%
%TO.C,C2*%
X-14540000Y-108750000D03*
X-15500000Y-108750000D03*
%TD*%
D49*
%TO.C,C23*%
X-77000000Y-96200000D03*
X-77000000Y-93200000D03*
%TD*%
D33*
%TO.C,C4*%
X-15750000Y-87120000D03*
X-14790000Y-87120000D03*
%TD*%
D50*
%TO.C,L1*%
X-81000000Y-109203300D03*
X-81000000Y-107196700D03*
%TD*%
D29*
%TO.C,R1*%
X-36000000Y-86980000D03*
X-36000000Y-85960000D03*
%TD*%
D51*
%TO.C,J3*%
X-63370000Y-83790000D03*
D32*
X-63370000Y-81250000D03*
X-60830000Y-83790000D03*
X-60830000Y-81250000D03*
X-58290000Y-83790000D03*
X-58290000Y-81250000D03*
X-55750000Y-83790000D03*
X-55750000Y-81250000D03*
X-53210000Y-83790000D03*
X-53210000Y-81250000D03*
X-50670000Y-83790000D03*
X-50670000Y-81250000D03*
X-48130000Y-83790000D03*
X-48130000Y-81250000D03*
X-45590000Y-83790000D03*
X-45590000Y-81250000D03*
%TD*%
D29*
%TO.C,R6*%
X-35000000Y-87000000D03*
X-35000000Y-85980000D03*
%TD*%
%TO.C,R2*%
X-31000000Y-87000000D03*
X-31000000Y-85980000D03*
%TD*%
D49*
%TO.C,C32*%
X-77000000Y-101700000D03*
X-77000000Y-98700000D03*
%TD*%
D33*
%TO.C,C11*%
X-28710000Y-85500000D03*
X-27750000Y-85500000D03*
%TD*%
D34*
%TO.C,RV2*%
X-18000000Y-84500000D03*
X-18000000Y-81960000D03*
X-18000000Y-79420000D03*
%TD*%
D27*
%TO.C,U2*%
X-29580000Y-106000000D03*
X-28310000Y-106000000D03*
X-27040000Y-106000000D03*
X-25770000Y-106000000D03*
X-24500000Y-106000000D03*
X-23230000Y-106000000D03*
X-21960000Y-106000000D03*
X-21960000Y-100970800D03*
X-23230000Y-100970800D03*
X-24500000Y-100970800D03*
X-25770000Y-100970800D03*
X-27040000Y-100970800D03*
X-28310000Y-100970800D03*
X-29580000Y-100970800D03*
%TD*%
D29*
%TO.C,R5*%
X-30000000Y-87020000D03*
X-30000000Y-86000000D03*
%TD*%
D33*
%TO.C,C3*%
X-17000000Y-97120000D03*
X-16040000Y-97120000D03*
%TD*%
D52*
%TO.C,R14*%
X-92500000Y-95000000D03*
X-89575000Y-95000000D03*
%TD*%
D31*
%TO.C,A1*%
X46440000Y-112500000D03*
D32*
X43900000Y-112500000D03*
X41360000Y-112500000D03*
X38820000Y-112500000D03*
X36280000Y-112500000D03*
X33740000Y-112500000D03*
X31200000Y-112500000D03*
X28660000Y-112500000D03*
X26120000Y-112500000D03*
X23580000Y-112500000D03*
X21040000Y-112500000D03*
X18500000Y-112500000D03*
X15960000Y-112500000D03*
X13420000Y-112500000D03*
X10880000Y-112500000D03*
X8340000Y-112500000D03*
X5800000Y-112500000D03*
X3260000Y-112500000D03*
X720000Y-112500000D03*
X-1820000Y-112500000D03*
X-1820000Y-127740000D03*
X720000Y-127740000D03*
X3260000Y-127740000D03*
X5800000Y-127740000D03*
X8340000Y-127740000D03*
X10880000Y-127740000D03*
X13420000Y-127740000D03*
X15960000Y-127740000D03*
X18500000Y-127740000D03*
X21040000Y-127740000D03*
X23580000Y-127740000D03*
X26120000Y-127740000D03*
X28660000Y-127740000D03*
X31200000Y-127740000D03*
X33740000Y-127740000D03*
X36280000Y-127740000D03*
X38820000Y-127740000D03*
X41360000Y-127740000D03*
X43900000Y-127740000D03*
X46440000Y-127740000D03*
%TD*%
D31*
%TO.C,A4*%
X182600000Y-85500000D03*
D32*
X180060000Y-85500000D03*
X177520000Y-85500000D03*
X174980000Y-85500000D03*
X172440000Y-85500000D03*
X169900000Y-85500000D03*
X167360000Y-85500000D03*
X164820000Y-85500000D03*
X162280000Y-85500000D03*
X159740000Y-85500000D03*
X157200000Y-85500000D03*
X154660000Y-85500000D03*
X152120000Y-85500000D03*
X149580000Y-85500000D03*
X147040000Y-85500000D03*
X144500000Y-85500000D03*
X141960000Y-85500000D03*
X139420000Y-85500000D03*
X136880000Y-85500000D03*
X134340000Y-85500000D03*
X134340000Y-100740000D03*
X136880000Y-100740000D03*
X139420000Y-100740000D03*
X141960000Y-100740000D03*
X144500000Y-100740000D03*
X147040000Y-100740000D03*
X149580000Y-100740000D03*
X152120000Y-100740000D03*
X154660000Y-100740000D03*
X157200000Y-100740000D03*
X159740000Y-100740000D03*
X162280000Y-100740000D03*
X164820000Y-100740000D03*
X167360000Y-100740000D03*
X169900000Y-100740000D03*
X172440000Y-100740000D03*
X174980000Y-100740000D03*
X177520000Y-100740000D03*
X180060000Y-100740000D03*
X182600000Y-100740000D03*
%TD*%
D25*
%TO.C,H1*%
X-74000000Y-87250000D03*
%TD*%
D29*
%TO.C,R9*%
X-32000000Y-87000000D03*
X-32000000Y-85980000D03*
%TD*%
D21*
%TO.C,J4*%
X-94500000Y-82500000D03*
D19*
X-94500000Y-84500000D03*
X-94500000Y-86500000D03*
X-94500000Y-88500000D03*
%TD*%
D31*
%TO.C,A3*%
X103230000Y-112500000D03*
D32*
X100690000Y-112500000D03*
X98150000Y-112500000D03*
X95610000Y-112500000D03*
X93070000Y-112500000D03*
X90530000Y-112500000D03*
X87990000Y-112500000D03*
X85450000Y-112500000D03*
X82910000Y-112500000D03*
X80370000Y-112500000D03*
X77830000Y-112500000D03*
X75290000Y-112500000D03*
X72750000Y-112500000D03*
X70210000Y-112500000D03*
X67670000Y-112500000D03*
X65130000Y-112500000D03*
X62590000Y-112500000D03*
X60050000Y-112500000D03*
X57510000Y-112500000D03*
X54970000Y-112500000D03*
X54970000Y-127740000D03*
X57510000Y-127740000D03*
X60050000Y-127740000D03*
X62590000Y-127740000D03*
X65130000Y-127740000D03*
X67670000Y-127740000D03*
X70210000Y-127740000D03*
X72750000Y-127740000D03*
X75290000Y-127740000D03*
X77830000Y-127740000D03*
X80370000Y-127740000D03*
X82910000Y-127740000D03*
X85450000Y-127740000D03*
X87990000Y-127740000D03*
X90530000Y-127740000D03*
X93070000Y-127740000D03*
X95610000Y-127740000D03*
X98150000Y-127740000D03*
X100690000Y-127740000D03*
X103230000Y-127740000D03*
%TD*%
D31*
%TO.C,A6*%
X236220000Y-85500000D03*
D32*
X233680000Y-85500000D03*
X231140000Y-85500000D03*
X228600000Y-85500000D03*
X226060000Y-85500000D03*
X223520000Y-85500000D03*
X220980000Y-85500000D03*
X218440000Y-85500000D03*
X215900000Y-85500000D03*
X213360000Y-85500000D03*
X210820000Y-85500000D03*
X208280000Y-85500000D03*
X205740000Y-85500000D03*
X203200000Y-85500000D03*
X200660000Y-85500000D03*
X198120000Y-85500000D03*
X195580000Y-85500000D03*
X193040000Y-85500000D03*
X190500000Y-85500000D03*
X187960000Y-85500000D03*
X187960000Y-100740000D03*
X190500000Y-100740000D03*
X193040000Y-100740000D03*
X195580000Y-100740000D03*
X198120000Y-100740000D03*
X200660000Y-100740000D03*
X203200000Y-100740000D03*
X205740000Y-100740000D03*
X208280000Y-100740000D03*
X210820000Y-100740000D03*
X213360000Y-100740000D03*
X215900000Y-100740000D03*
X218440000Y-100740000D03*
X220980000Y-100740000D03*
X223520000Y-100740000D03*
X226060000Y-100740000D03*
X228600000Y-100740000D03*
X231140000Y-100740000D03*
X233680000Y-100740000D03*
X236220000Y-100740000D03*
%TD*%
M02*
