M48
; DRILL file {KiCad 9.0.4} date 2026-01-09T18:07:00-0500
; FORMAT={-:-/ absolute / metric / decimal}
; #@! TF.CreationDate,2026-01-09T18:07:00-05:00
; #@! TF.GenerationSoftware,Kicad,Pcbnew,9.0.4
; #@! TF.FileFunction,Plated,1,4,PTH
FMAT,2
METRIC
; #@! TA.AperFunction,Plated,PTH,ViaDrill
T1C0.300
; #@! TA.AperFunction,Plated,PTH,ViaDrill
T2C0.350
; #@! TA.AperFunction,Plated,PTH,ViaDrill
T3C0.635
; #@! TA.AperFunction,Plated,PTH,ComponentDrill
T4C0.762
; #@! TA.AperFunction,Plated,PTH,ComponentDrill
T5C0.800
; #@! TA.AperFunction,Plated,PTH,ComponentDrill
T6C0.900
; #@! TA.AperFunction,Plated,PTH,ComponentDrill
T7C1.000
; #@! TA.AperFunction,Plated,PTH,ViaDrill
T8C1.000
; #@! TA.AperFunction,Plated,PTH,ComponentDrill
T9C1.000
; #@! TA.AperFunction,Plated,PTH,ComponentDrill
T10C1.016
; #@! TA.AperFunction,Plated,PTH,ComponentDrill
T11C1.100
%
G90
G05
T1
X-94.25Y-95.0
X-87.75Y-95.0
X-77.02Y-127.98
X-75.3Y-127.14
X-64.81Y-118.67
X-62.15Y-118.8
X-43.0Y-82.75
X-40.75Y-106.75
X-40.25Y-97.25
X-39.0Y-107.0
X-38.031Y-91.07
X-38.0Y-96.25
X-37.25Y-107.25
X-36.25Y-95.75
X-36.0Y-88.0
X-35.0Y-88.0
X-34.25Y-107.25
X-34.0Y-88.5
X-33.0Y-88.25
X-33.0Y-93.5
X-32.5Y-84.0
X-32.25Y-82.75
X-32.25Y-97.0
X-32.0Y-89.75
X-31.0Y-89.771
X-29.75Y-98.75
X-29.75Y-111.75
X-29.265Y-87.765
X-29.0Y-96.5
X-28.25Y-87.75
X-28.25Y-98.0
X-27.873Y-96.377
X-27.75Y-87.0
X-27.75Y-111.5
X-26.75Y-97.0
X-26.75Y-98.75
X-25.5Y-111.25
X-25.0Y-87.0
X-25.0Y-108.75
X-25.0Y-112.25
X-24.75Y-110.25
X-24.036Y-98.512
X-23.75Y-79.0
X-23.125Y-79.875
X-22.0Y-97.0
X-21.75Y-110.25
X-21.5Y-99.0
X-20.75Y-98.0
X-20.5Y-87.5
X-20.25Y-110.0
X-19.5Y-99.0
X-18.75Y-96.75
X-18.5Y-98.5
X-17.75Y-97.5
X-17.0Y-108.75
X-16.75Y-109.75
X-16.63Y-87.12
X-16.0Y-92.75
X-15.87Y-111.87
X-15.625Y-81.125
X-15.265Y-97.265
X-14.529Y-98.471
X-14.5Y-109.75
X-14.0Y-87.0
X-13.0Y-98.5
X-12.0Y-98.0
X-9.35Y-110.5
X-9.25Y-89.0
X-9.1Y-109.5
X-9.0Y-86.5
X-8.75Y-103.5
X-8.25Y-84.476
X-8.0Y-90.0
X-7.0Y-109.0
X-6.94Y-97.0
X-6.75Y-78.75
X-6.75Y-82.25
X-6.5Y-89.25
X3.4Y-107.94
X6.97Y-83.87
X8.25Y-105.25
X8.5Y-130.25
X10.18Y-89.29
X15.78Y-94.021
X18.5Y-103.5
X18.75Y-95.5
X18.75Y-132.5
X20.75Y-97.0
X20.75Y-124.0
X21.0Y-131.5
X21.5Y-98.0
X21.75Y-104.5
X22.25Y-92.0
X22.75Y-97.75
X25.5Y-122.238
X29.0Y-123.0
X47.0Y-108.25
X50.25Y-84.25
X51.0Y-88.5
X52.5Y-89.0
X55.15Y-115.75
X55.5Y-84.0
X55.95Y-116.75
X58.075Y-91.45
X59.84Y-110.48
X60.225Y-84.5
X60.825Y-90.2
X62.5Y-84.5
X62.825Y-90.2
X64.325Y-89.2
X65.0Y-130.25
X68.46Y-114.5
X68.977Y-85.172
X70.75Y-84.25
X75.5Y-132.5
X77.625Y-123.875
X77.75Y-131.5
X82.75Y-122.238
X83.88Y-81.99
X85.25Y-123.25
X90.25Y-105.5
X93.1Y-87.96
X98.0Y-93.75
X100.25Y-103.5
X100.5Y-94.75
X103.0Y-104.5
X103.25Y-96.5
X103.75Y-108.0
X108.0Y-98.5
X110.0Y-116.5
X110.5Y-97.75
X113.85Y-110.36
X114.0Y-116.75
X117.7Y-114.5
X119.25Y-130.25
X129.75Y-132.5
X132.0Y-131.5
X132.25Y-124.0
X137.5Y-118.25
X138.62Y-82.45
X139.98Y-122.77
X142.36Y-87.78
X144.25Y-105.75
X151.5Y-93.75
X154.5Y-103.25
X154.75Y-95.0
X156.75Y-96.5
X157.25Y-104.5
X157.5Y-108.0
X161.25Y-98.5
X164.25Y-97.75
X164.625Y-115.875
X168.25Y-115.75
X169.56Y-110.37
X171.62Y-114.0
X173.0Y-130.25
X183.75Y-132.5
X186.0Y-123.5
X186.0Y-131.5
X191.0Y-118.25
X192.53Y-82.45
X194.02Y-122.77
X196.61Y-87.75
X197.75Y-105.5
X205.75Y-93.5
X208.25Y-95.25
X208.25Y-103.25
X210.25Y-96.5
X210.5Y-104.5
X211.75Y-108.75
X216.25Y-98.5
X217.75Y-97.75
X219.25Y-115.25
X220.83Y-108.43
X221.75Y-115.25
X227.5Y-130.0
X236.82Y-107.74
X237.75Y-132.5
X238.0Y-94.5
X238.25Y-107.25
X238.5Y-95.5
X239.5Y-123.5
X240.0Y-131.25
X241.07Y-79.43
X244.75Y-118.0
X247.75Y-122.75
X250.09Y-90.25
X252.09Y-89.75
X254.84Y-81.33
X256.96Y-88.95
X261.59Y-105.5
X265.78Y-109.03
X268.59Y-93.5
X271.09Y-95.0
X271.5Y-119.75
X271.75Y-118.25
X271.84Y-103.25
X271.875Y-121.125
X274.09Y-96.5
X274.34Y-104.25
X279.34Y-98.5
X281.84Y-97.75
X286.84Y-106.0
X300.34Y-98.5
X301.59Y-97.75
X302.84Y-96.5
T2
X29.928Y-92.72
X32.25Y-93.193
X33.439Y-92.177
X36.0Y-95.807
X48.933Y-88.875
T3
X-63.27Y-118.8
T4
X-94.5Y-82.5
X-94.5Y-84.5
X-94.5Y-86.5
X-94.5Y-88.5
X-73.18Y-127.06
X-71.18Y-127.06
X-69.18Y-127.06
X-67.18Y-127.06
X-45.562Y-127.642
X-43.562Y-127.642
X-41.562Y-127.642
X-39.562Y-127.642
T5
X-85.25Y-83.0
X-85.25Y-85.54
X-85.25Y-88.08
X-18.0Y-79.42
X-18.0Y-81.96
X-18.0Y-84.5
T6
X11.86Y-108.85
X12.95Y-89.52
X62.25Y-115.87
X89.8Y-91.68
X122.42Y-115.78
X144.06Y-91.97
X173.65Y-108.03
X199.11Y-81.45
X227.26Y-120.3
X262.05Y-80.95
T7
X69.0Y-96.75
X69.0Y-101.25
X75.5Y-96.75
X75.5Y-101.25
T8
X-15.0Y-121.192
X-4.407Y-106.909
T9
X-95.5Y-100.75
X-91.25Y-110.25
X-91.25Y-112.79
X-91.25Y-115.33
X-91.25Y-117.87
X-91.25Y-120.41
X-91.25Y-122.95
X-91.25Y-125.49
X-91.25Y-128.03
X-89.75Y-85.0
X-89.75Y-87.54
X-88.71Y-110.25
X-88.71Y-112.79
X-88.71Y-115.33
X-88.71Y-117.87
X-88.71Y-120.41
X-88.71Y-122.95
X-88.71Y-125.49
X-88.71Y-128.03
X-85.5Y-100.75
X-72.0Y-94.92
X-72.0Y-97.46
X-72.0Y-100.0
X-72.0Y-102.54
X-72.0Y-107.62
X-72.0Y-110.16
X-72.0Y-112.7
X-63.37Y-81.25
X-63.37Y-83.79
X-60.83Y-81.25
X-60.83Y-83.79
X-58.29Y-81.25
X-58.29Y-83.79
X-55.75Y-81.25
X-55.75Y-83.79
X-53.21Y-81.25
X-53.21Y-83.79
X-50.67Y-81.25
X-50.67Y-83.79
X-48.13Y-81.25
X-48.13Y-83.79
X-45.59Y-81.25
X-45.59Y-83.79
T10
X-59.98Y-127.03
X-57.44Y-127.03
X-54.9Y-127.03
T11
X-2.0Y-85.26
X-2.0Y-100.5
X-1.82Y-112.5
X-1.82Y-127.74
X0.54Y-85.26
X0.54Y-100.5
X0.72Y-112.5
X0.72Y-127.74
X3.08Y-85.26
X3.08Y-100.5
X3.26Y-112.5
X3.26Y-127.74
X5.62Y-85.26
X5.62Y-100.5
X5.8Y-112.5
X5.8Y-127.74
X8.16Y-85.26
X8.16Y-100.5
X8.34Y-112.5
X8.34Y-127.74
X10.7Y-85.26
X10.7Y-100.5
X10.88Y-112.5
X10.88Y-127.74
X13.24Y-85.26
X13.24Y-100.5
X13.42Y-112.5
X13.42Y-127.74
X15.78Y-85.26
X15.78Y-100.5
X15.96Y-112.5
X15.96Y-127.74
X18.32Y-85.26
X18.32Y-100.5
X18.5Y-112.5
X18.5Y-127.74
X20.86Y-85.26
X20.86Y-100.5
X21.04Y-112.5
X21.04Y-127.74
X23.4Y-85.26
X23.4Y-100.5
X23.58Y-112.5
X23.58Y-127.74
X25.94Y-85.26
X25.94Y-100.5
X26.12Y-112.5
X26.12Y-127.74
X28.48Y-85.26
X28.48Y-100.5
X28.66Y-112.5
X28.66Y-127.74
X31.02Y-85.26
X31.02Y-100.5
X31.2Y-112.5
X31.2Y-127.74
X33.56Y-85.26
X33.56Y-100.5
X33.74Y-112.5
X33.74Y-127.74
X36.1Y-85.26
X36.1Y-100.5
X36.28Y-112.5
X36.28Y-127.74
X38.64Y-85.26
X38.64Y-100.5
X38.82Y-112.5
X38.82Y-127.74
X41.18Y-85.26
X41.18Y-100.5
X41.36Y-112.5
X41.36Y-127.74
X43.72Y-85.26
X43.72Y-100.5
X43.9Y-112.5
X43.9Y-127.74
X46.26Y-85.26
X46.26Y-100.5
X46.44Y-112.5
X46.44Y-127.74
X54.97Y-112.5
X54.97Y-127.74
X57.51Y-112.5
X57.51Y-127.74
X60.05Y-112.5
X60.05Y-127.74
X62.59Y-112.5
X62.59Y-127.74
X65.13Y-112.5
X65.13Y-127.74
X67.67Y-112.5
X67.67Y-127.74
X70.21Y-112.5
X70.21Y-127.74
X72.75Y-112.5
X72.75Y-127.74
X75.29Y-112.5
X75.29Y-127.74
X77.83Y-112.5
X77.83Y-127.74
X80.37Y-112.5
X80.37Y-127.74
X80.5Y-85.5
X80.5Y-100.74
X82.91Y-112.5
X82.91Y-127.74
X83.04Y-85.5
X83.04Y-100.74
X85.45Y-112.5
X85.45Y-127.74
X85.58Y-85.5
X85.58Y-100.74
X87.99Y-112.5
X87.99Y-127.74
X88.12Y-85.5
X88.12Y-100.74
X90.53Y-112.5
X90.53Y-127.74
X90.66Y-85.5
X90.66Y-100.74
X93.07Y-112.5
X93.07Y-127.74
X93.2Y-85.5
X93.2Y-100.74
X95.61Y-112.5
X95.61Y-127.74
X95.74Y-85.5
X95.74Y-100.74
X98.15Y-112.5
X98.15Y-127.74
X98.28Y-85.5
X98.28Y-100.74
X100.69Y-112.5
X100.69Y-127.74
X100.82Y-85.5
X100.82Y-100.74
X103.23Y-112.5
X103.23Y-127.74
X103.36Y-85.5
X103.36Y-100.74
X105.9Y-85.5
X105.9Y-100.74
X108.44Y-85.5
X108.44Y-100.74
X109.21Y-112.5
X109.21Y-127.74
X110.98Y-85.5
X110.98Y-100.74
X111.75Y-112.5
X111.75Y-127.74
X113.52Y-85.5
X113.52Y-100.74
X114.29Y-112.5
X114.29Y-127.74
X116.06Y-85.5
X116.06Y-100.74
X116.83Y-112.5
X116.83Y-127.74
X118.6Y-85.5
X118.6Y-100.74
X119.37Y-112.5
X119.37Y-127.74
X121.14Y-85.5
X121.14Y-100.74
X121.91Y-112.5
X121.91Y-127.74
X123.68Y-85.5
X123.68Y-100.74
X124.45Y-112.5
X124.45Y-127.74
X126.22Y-85.5
X126.22Y-100.74
X126.99Y-112.5
X126.99Y-127.74
X128.76Y-85.5
X128.76Y-100.74
X129.53Y-112.5
X129.53Y-127.74
X132.07Y-112.5
X132.07Y-127.74
X134.34Y-85.5
X134.34Y-100.74
X134.61Y-112.5
X134.61Y-127.74
X136.88Y-85.5
X136.88Y-100.74
X137.15Y-112.5
X137.15Y-127.74
X139.42Y-85.5
X139.42Y-100.74
X139.69Y-112.5
X139.69Y-127.74
X141.96Y-85.5
X141.96Y-100.74
X142.23Y-112.5
X142.23Y-127.74
X144.5Y-85.5
X144.5Y-100.74
X144.77Y-112.5
X144.77Y-127.74
X147.04Y-85.5
X147.04Y-100.74
X147.31Y-112.5
X147.31Y-127.74
X149.58Y-85.5
X149.58Y-100.74
X149.85Y-112.5
X149.85Y-127.74
X152.12Y-85.5
X152.12Y-100.74
X152.39Y-112.5
X152.39Y-127.74
X154.66Y-85.5
X154.66Y-100.74
X154.93Y-112.5
X154.93Y-127.74
X157.2Y-85.5
X157.2Y-100.74
X157.47Y-112.5
X157.47Y-127.74
X159.74Y-85.5
X159.74Y-100.74
X162.28Y-85.5
X162.28Y-100.74
X163.21Y-112.25
X163.21Y-127.49
X164.82Y-85.5
X164.82Y-100.74
X165.75Y-112.25
X165.75Y-127.49
X167.36Y-85.5
X167.36Y-100.74
X168.29Y-112.25
X168.29Y-127.49
X169.9Y-85.5
X169.9Y-100.74
X170.83Y-112.25
X170.83Y-127.49
X172.44Y-85.5
X172.44Y-100.74
X173.37Y-112.25
X173.37Y-127.49
X174.98Y-85.5
X174.98Y-100.74
X175.91Y-112.25
X175.91Y-127.49
X177.52Y-85.5
X177.52Y-100.74
X178.45Y-112.25
X178.45Y-127.49
X180.06Y-85.5
X180.06Y-100.74
X180.99Y-112.25
X180.99Y-127.49
X182.6Y-85.5
X182.6Y-100.74
X183.53Y-112.25
X183.53Y-127.49
X186.07Y-112.25
X186.07Y-127.49
X187.96Y-85.5
X187.96Y-100.74
X188.61Y-112.25
X188.61Y-127.49
X190.5Y-85.5
X190.5Y-100.74
X191.15Y-112.25
X191.15Y-127.49
X193.04Y-85.5
X193.04Y-100.74
X193.69Y-112.25
X193.69Y-127.49
X195.58Y-85.5
X195.58Y-100.74
X196.23Y-112.25
X196.23Y-127.49
X198.12Y-85.5
X198.12Y-100.74
X198.77Y-112.25
X198.77Y-127.49
X200.66Y-85.5
X200.66Y-100.74
X201.31Y-112.25
X201.31Y-127.49
X203.2Y-85.5
X203.2Y-100.74
X203.85Y-112.25
X203.85Y-127.49
X205.74Y-85.5
X205.74Y-100.74
X206.39Y-112.25
X206.39Y-127.49
X208.28Y-85.5
X208.28Y-100.74
X208.93Y-112.25
X208.93Y-127.49
X210.82Y-85.5
X210.82Y-100.74
X211.47Y-112.25
X211.47Y-127.49
X213.36Y-85.5
X213.36Y-100.74
X215.9Y-85.5
X215.9Y-100.74
X217.21Y-112.0
X217.21Y-127.24
X218.44Y-85.5
X218.44Y-100.74
X219.75Y-112.0
X219.75Y-127.24
X220.98Y-85.5
X220.98Y-100.74
X222.29Y-112.0
X222.29Y-127.24
X223.52Y-85.5
X223.52Y-100.74
X224.83Y-112.0
X224.83Y-127.24
X226.06Y-85.5
X226.06Y-100.74
X227.37Y-112.0
X227.37Y-127.24
X228.6Y-85.5
X228.6Y-100.74
X229.91Y-112.0
X229.91Y-127.24
X231.14Y-85.5
X231.14Y-100.74
X232.45Y-112.0
X232.45Y-127.24
X233.68Y-85.5
X233.68Y-100.74
X234.99Y-112.0
X234.99Y-127.24
X236.22Y-85.5
X236.22Y-100.74
X237.53Y-112.0
X237.53Y-127.24
X240.07Y-112.0
X240.07Y-127.24
X242.61Y-112.0
X242.61Y-127.24
X245.15Y-112.0
X245.15Y-127.24
X247.69Y-112.0
X247.69Y-127.24
X250.23Y-112.0
X250.23Y-127.24
X251.5Y-85.5
X251.5Y-100.74
X252.77Y-112.0
X252.77Y-127.24
X254.04Y-85.5
X254.04Y-100.74
X255.31Y-112.0
X255.31Y-127.24
X256.58Y-85.5
X256.58Y-100.74
X257.85Y-112.0
X257.85Y-127.24
X259.12Y-85.5
X259.12Y-100.74
X260.39Y-112.0
X260.39Y-127.24
X261.66Y-85.5
X261.66Y-100.74
X262.93Y-112.0
X262.93Y-127.24
X264.2Y-85.5
X264.2Y-100.74
X265.47Y-112.0
X265.47Y-127.24
X266.74Y-85.5
X266.74Y-100.74
X269.28Y-85.5
X269.28Y-100.74
X271.82Y-85.5
X271.82Y-100.74
X274.36Y-85.5
X274.36Y-100.74
X276.9Y-85.5
X276.9Y-100.74
X279.44Y-85.5
X279.44Y-100.74
X281.98Y-85.5
X281.98Y-100.74
X284.52Y-85.5
X284.52Y-100.74
X287.06Y-85.5
X287.06Y-100.74
X289.6Y-85.5
X289.6Y-100.74
X292.14Y-85.5
X292.14Y-100.74
X294.68Y-85.5
X294.68Y-100.74
X297.22Y-85.5
X297.22Y-100.74
X299.76Y-85.5
X299.76Y-100.74
M30
