  0
SECTION
  2
HEADER
  9
$ACADVER
  1
AC1009
  9
$FILLMODE
 70
1
  9
$EXTMIN
 10
-0.051000
 20
-0.303246
 30
0.000000
  9
$EXTMAX
 10
6.103246
 20
4.181000
 30
0.000000
  0
ENDSEC
  0
SECTION
  2
TABLES
  0
TABLE
  2
LTYPE
 70
1
  0
LTYPE
  2
CONTINUOUS
 70
64
  3
Solid line
 72
65
 73
0
 40
0
  0
ENDTAB
  0
TABLE
  2
LAYER
 70
255
  0
LAYER
  2
20
 70
64
 62
91
  6
CONTINUOUS
  0
ENDTAB
  0
ENDSEC
  0
SECTION
  2
BLOCKS
  0
BLOCK
  8
0
  2
RECT
 70
64
 10
0.000000
 20
0.000000
 30
0.000000
  3
RECT
  0
SOLID
  8
0
 10
-0.500000
 20
-0.500000
 30
0.000000
 11
0.500000
 21
-0.500000
 31
0.000000
 12
-0.500000
 22
0.500000
 32
0.000000
 13
0.500000
 23
0.500000
 33
0.000000
  0
ENDBLK
  8
0
  0
BLOCK
  8
0
  2
PIE
 70
64
 10
0.000000
 20
0.000000
 30
0.000000
  3
PIE
  0
POLYLINE
  8
0
 66
1
 10
0.000000
 20
0.000000
 30
0.000000
 40
0.500000
 41
0.500000
 70
0
  0
VERTEX
  8
0
 10
0.000000
 20
-0.250000
 30
0.000000
 42
1.000000
  0
VERTEX
  8
0
 10
0.000000
 20
0.250000
 30
0.000000
 42
1.000000
  0
VERTEX
  8
0
 10
0.000000
 20
-0.250000
 30
0.000000
  0
SEQEND
  8
0
  0
ENDBLK
  8
0
  0
BLOCK
  8
0
  2
OCTAGONP
 70
64
 10
0.000000
 20
0.000000
 30
0.000000
  3
OCTAGONP
  0
POLYLINE
  8
0
 66
1
 10
0.000000
 20
0.000000
 30
0.000000
 40
0.500000
 41
0.500000
 70
0
  0
VERTEX
  8
0
 10
-0.250000
 20
-0.103553
 30
0.000000
  0
VERTEX
  8
0
 10
-0.250000
 20
0.103553
 30
0.000000
  0
VERTEX
  8
0
 10
-0.103553
 20
0.250000
 30
0.000000
  0
VERTEX
  8
0
 10
0.103553
 20
0.250000
 30
0.000000
  0
VERTEX
  8
0
 10
0.250000
 20
0.103553
 30
0.000000
  0
VERTEX
  8
0
 10
0.250000
 20
-0.103553
 30
0.000000
  0
VERTEX
  8
0
 10
0.103553
 20
-0.250000
 30
0.000000
  0
VERTEX
  8
0
 10
-0.103553
 20
-0.250000
 30
0.000000
  0
VERTEX
  8
0
 10
-0.250000
 20
-0.103553
 30
0.000000
  0
VERTEX
  8
0
 10
-0.250000
 20
0.103553
 30
0.000000
  0
SEQEND
  8
0
  0
ENDBLK
  8
0
  0
BLOCK
  8
0
  2
SQUAREP
 70
64
 10
0.000000
 20
0.000000
 30
0.000000
  3
SQUAREP
  0
SOLID
  8
0
 10
-0.500000
 20
-0.500000
 30
0.000000
 11
0.500000
 21
-0.500000
 31
0.000000
 12
-0.500000
 22
0.500000
 32
0.000000
 13
0.500000
 23
0.500000
 33
0.000000
  0
ENDBLK
  8
0
  0
BLOCK
  8
0
  2
ROUNDP
 70
64
 10
0.000000
 20
0.000000
 30
0.000000
  3
ROUNDP
  0
POLYLINE
  8
0
 66
1
 10
0.000000
 20
0.000000
 30
0.000000
 40
0.500000
 41
0.500000
 70
0
  0
VERTEX
  8
0
 10
0.000000
 20
-0.250000
 30
0.000000
 42
1.000000
  0
VERTEX
  8
0
 10
0.000000
 20
0.250000
 30
0.000000
 42
1.000000
  0
VERTEX
  8
0
 10
0.000000
 20
-0.250000
 30
0.000000
  0
SEQEND
  8
0
  0
ENDBLK
  8
0
  0
BLOCK
  8
0
  2
ANNULUSP
 70
64
 10
0.000000
 20
0.000000
 30
0.000000
  3
ANNULUSP
  0
POLYLINE
  8
0
 66
1
 10
0.000000
 20
0.000000
 30
0.000000
 40
0.500000
 41
0.500000
 70
0
  0
VERTEX
  8
0
 10
0.000000
 20
-0.250000
 30
0.000000
 42
1.000000
  0
VERTEX
  8
0
 10
0.000000
 20
0.250000
 30
0.000000
 42
1.000000
  0
VERTEX
  8
0
 10
0.000000
 20
-0.250000
 30
0.000000
  0
SEQEND
  8
0
  0
ENDBLK
  8
0
  0
BLOCK
  8
0
  2
THERMALP
 70
64
 10
0.000000
 20
0.000000
 30
0.000000
  3
THERMALP
  0
POLYLINE
  8
0
 66
1
 10
0.000000
 20
0.000000
 30
0.000000
 40
0.100000
 41
0.100000
 70
0
  0
VERTEX
  8
0
 10
-0.237868
 20
0.450000
 30
0.000000
  0
VERTEX
  8
0
 10
0.237868
 20
0.450000
 30
0.000000
  0
SEQEND
  8
0
  0
POLYLINE
  8
0
 66
1
 10
0.000000
 20
0.000000
 30
0.000000
 40
0.050000
 41
0.050000
 70
0
  0
VERTEX
  8
0
 10
0.237868
 20
0.425000
 30
0.000000
 42
1.000000
  0
VERTEX
  8
0
 10
0.237868
 20
0.475000
 30
0.000000
  0
SEQEND
  8
0
  0
POLYLINE
  8
0
 66
1
 10
0.000000
 20
0.000000
 30
0.000000
 40
0.050000
 41
0.050000
 70
0
  0
VERTEX
  8
0
 10
-0.237868
 20
0.475000
 30
0.000000
 42
1.000000
  0
VERTEX
  8
0
 10
-0.237868
 20
0.425000
 30
0.000000
  0
SEQEND
  8
0
  0
POLYLINE
  8
0
 66
1
 10
0.000000
 20
0.000000
 30
0.000000
 40
0.100000
 41
0.100000
 70
0
  0
VERTEX
  8
0
 10
0.450000
 20
0.237868
 30
0.000000
  0
VERTEX
  8
0
 10
0.450000
 20
-0.237868
 30
0.000000
  0
SEQEND
  8
0
  0
POLYLINE
  8
0
 66
1
 10
0.000000
 20
0.000000
 30
0.000000
 40
0.050000
 41
0.050000
 70
0
  0
VERTEX
  8
0
 10
0.425000
 20
-0.237868
 30
0.000000
 42
1.000000
  0
VERTEX
  8
0
 10
0.475000
 20
-0.237868
 30
0.000000
  0
SEQEND
  8
0
  0
POLYLINE
  8
0
 66
1
 10
0.000000
 20
0.000000
 30
0.000000
 40
0.050000
 41
0.050000
 70
0
  0
VERTEX
  8
0
 10
0.475000
 20
0.237868
 30
0.000000
 42
1.000000
  0
VERTEX
  8
0
 10
0.425000
 20
0.237868
 30
0.000000
  0
SEQEND
  8
0
  0
POLYLINE
  8
0
 66
1
 10
0.000000
 20
0.000000
 30
0.000000
 40
0.100000
 41
0.100000
 70
0
  0
VERTEX
  8
0
 10
0.237868
 20
-0.450000
 30
0.000000
  0
VERTEX
  8
0
 10
-0.237868
 20
-0.450000
 30
0.000000
  0
SEQEND
  8
0
  0
POLYLINE
  8
0
 66
1
 10
0.000000
 20
0.000000
 30
0.000000
 40
0.050000
 41
0.050000
 70
0
  0
VERTEX
  8
0
 10
-0.237868
 20
-0.425000
 30
0.000000
 42
1.000000
  0
VERTEX
  8
0
 10
-0.237868
 20
-0.475000
 30
0.000000
  0
SEQEND
  8
0
  0
POLYLINE
  8
0
 66
1
 10
0.000000
 20
0.000000
 30
0.000000
 40
0.050000
 41
0.050000
 70
0
  0
VERTEX
  8
0
 10
0.237868
 20
-0.475000
 30
0.000000
 42
1.000000
  0
VERTEX
  8
0
 10
0.237868
 20
-0.425000
 30
0.000000
  0
SEQEND
  8
0
  0
POLYLINE
  8
0
 66
1
 10
0.000000
 20
0.000000
 30
0.000000
 40
0.100000
 41
0.100000
 70
0
  0
VERTEX
  8
0
 10
-0.450000
 20
-0.237868
 30
0.000000
  0
VERTEX
  8
0
 10
-0.450000
 20
0.237868
 30
0.000000
  0
SEQEND
  8
0
  0
POLYLINE
  8
0
 66
1
 10
0.000000
 20
0.000000
 30
0.000000
 40
0.050000
 41
0.050000
 70
0
  0
VERTEX
  8
0
 10
-0.425000
 20
0.237868
 30
0.000000
 42
1.000000
  0
VERTEX
  8
0
 10
-0.475000
 20
0.237868
 30
0.000000
  0
SEQEND
  8
0
  0
POLYLINE
  8
0
 66
1
 10
0.000000
 20
0.000000
 30
0.000000
 40
0.050000
 41
0.050000
 70
0
  0
VERTEX
  8
0
 10
-0.475000
 20
-0.237868
 30
0.000000
 42
1.000000
  0
VERTEX
  8
0
 10
-0.425000
 20
-0.237868
 30
0.000000
  0
SEQEND
  8
0
  0
ENDBLK
  8
0
  0
BLOCK
  8
0
  2
OCTAGONV
 70
64
 10
0.000000
 20
0.000000
 30
0.000000
  3
OCTAGONV
  0
POLYLINE
  8
0
 66
1
 10
0.000000
 20
0.000000
 30
0.000000
 40
0.500000
 41
0.500000
 70
0
  0
VERTEX
  8
0
 10
-0.250000
 20
-0.103553
 30
0.000000
  0
VERTEX
  8
0
 10
-0.250000
 20
0.103553
 30
0.000000
  0
VERTEX
  8
0
 10
-0.103553
 20
0.250000
 30
0.000000
  0
VERTEX
  8
0
 10
0.103553
 20
0.250000
 30
0.000000
  0
VERTEX
  8
0
 10
0.250000
 20
0.103553
 30
0.000000
  0
VERTEX
  8
0
 10
0.250000
 20
-0.103553
 30
0.000000
  0
VERTEX
  8
0
 10
0.103553
 20
-0.250000
 30
0.000000
  0
VERTEX
  8
0
 10
-0.103553
 20
-0.250000
 30
0.000000
  0
VERTEX
  8
0
 10
-0.250000
 20
-0.103553
 30
0.000000
  0
VERTEX
  8
0
 10
-0.250000
 20
0.103553
 30
0.000000
  0
SEQEND
  8
0
  0
ENDBLK
  8
0
  0
BLOCK
  8
0
  2
SQUAREV
 70
64
 10
0.000000
 20
0.000000
 30
0.000000
  3
SQUAREV
  0
SOLID
  8
0
 10
-0.500000
 20
-0.500000
 30
0.000000
 11
0.500000
 21
-0.500000
 31
0.000000
 12
-0.500000
 22
0.500000
 32
0.000000
 13
0.500000
 23
0.500000
 33
0.000000
  0
ENDBLK
  8
0
  0
BLOCK
  8
0
  2
ROUNDV
 70
64
 10
0.000000
 20
0.000000
 30
0.000000
  3
ROUNDV
  0
POLYLINE
  8
0
 66
1
 10
0.000000
 20
0.000000
 30
0.000000
 40
0.500000
 41
0.500000
 70
0
  0
VERTEX
  8
0
 10
0.000000
 20
-0.250000
 30
0.000000
 42
1.000000
  0
VERTEX
  8
0
 10
0.000000
 20
0.250000
 30
0.000000
 42
1.000000
  0
VERTEX
  8
0
 10
0.000000
 20
-0.250000
 30
0.000000
  0
SEQEND
  8
0
  0
ENDBLK
  8
0
  0
BLOCK
  8
0
  2
ANNULUSV
 70
64
 10
0.000000
 20
0.000000
 30
0.000000
  3
ANNULUSV
  0
POLYLINE
  8
0
 66
1
 10
0.000000
 20
0.000000
 30
0.000000
 40
0.500000
 41
0.500000
 70
0
  0
VERTEX
  8
0
 10
0.000000
 20
-0.250000
 30
0.000000
 42
1.000000
  0
VERTEX
  8
0
 10
0.000000
 20
0.250000
 30
0.000000
 42
1.000000
  0
VERTEX
  8
0
 10
0.000000
 20
-0.250000
 30
0.000000
  0
SEQEND
  8
0
  0
ENDBLK
  8
0
  0
BLOCK
  8
0
  2
THERMALV
 70
64
 10
0.000000
 20
0.000000
 30
0.000000
  3
THERMALV
  0
POLYLINE
  8
0
 66
1
 10
0.000000
 20
0.000000
 30
0.000000
 40
0.100000
 41
0.100000
 70
0
  0
VERTEX
  8
0
 10
-0.237868
 20
0.450000
 30
0.000000
  0
VERTEX
  8
0
 10
0.237868
 20
0.450000
 30
0.000000
  0
SEQEND
  8
0
  0
POLYLINE
  8
0
 66
1
 10
0.000000
 20
0.000000
 30
0.000000
 40
0.050000
 41
0.050000
 70
0
  0
VERTEX
  8
0
 10
0.237868
 20
0.425000
 30
0.000000
 42
1.000000
  0
VERTEX
  8
0
 10
0.237868
 20
0.475000
 30
0.000000
  0
SEQEND
  8
0
  0
POLYLINE
  8
0
 66
1
 10
0.000000
 20
0.000000
 30
0.000000
 40
0.050000
 41
0.050000
 70
0
  0
VERTEX
  8
0
 10
-0.237868
 20
0.475000
 30
0.000000
 42
1.000000
  0
VERTEX
  8
0
 10
-0.237868
 20
0.425000
 30
0.000000
  0
SEQEND
  8
0
  0
POLYLINE
  8
0
 66
1
 10
0.000000
 20
0.000000
 30
0.000000
 40
0.100000
 41
0.100000
 70
0
  0
VERTEX
  8
0
 10
0.450000
 20
0.237868
 30
0.000000
  0
VERTEX
  8
0
 10
0.450000
 20
-0.237868
 30
0.000000
  0
SEQEND
  8
0
  0
POLYLINE
  8
0
 66
1
 10
0.000000
 20
0.000000
 30
0.000000
 40
0.050000
 41
0.050000
 70
0
  0
VERTEX
  8
0
 10
0.425000
 20
-0.237868
 30
0.000000
 42
1.000000
  0
VERTEX
  8
0
 10
0.475000
 20
-0.237868
 30
0.000000
  0
SEQEND
  8
0
  0
POLYLINE
  8
0
 66
1
 10
0.000000
 20
0.000000
 30
0.000000
 40
0.050000
 41
0.050000
 70
0
  0
VERTEX
  8
0
 10
0.475000
 20
0.237868
 30
0.000000
 42
1.000000
  0
VERTEX
  8
0
 10
0.425000
 20
0.237868
 30
0.000000
  0
SEQEND
  8
0
  0
POLYLINE
  8
0
 66
1
 10
0.000000
 20
0.000000
 30
0.000000
 40
0.100000
 41
0.100000
 70
0
  0
VERTEX
  8
0
 10
0.237868
 20
-0.450000
 30
0.000000
  0
VERTEX
  8
0
 10
-0.237868
 20
-0.450000
 30
0.000000
  0
SEQEND
  8
0
  0
POLYLINE
  8
0
 66
1
 10
0.000000
 20
0.000000
 30
0.000000
 40
0.050000
 41
0.050000
 70
0
  0
VERTEX
  8
0
 10
-0.237868
 20
-0.425000
 30
0.000000
 42
1.000000
  0
VERTEX
  8
0
 10
-0.237868
 20
-0.475000
 30
0.000000
  0
SEQEND
  8
0
  0
POLYLINE
  8
0
 66
1
 10
0.000000
 20
0.000000
 30
0.000000
 40
0.050000
 41
0.050000
 70
0
  0
VERTEX
  8
0
 10
0.237868
 20
-0.475000
 30
0.000000
 42
1.000000
  0
VERTEX
  8
0
 10
0.237868
 20
-0.425000
 30
0.000000
  0
SEQEND
  8
0
  0
POLYLINE
  8
0
 66
1
 10
0.000000
 20
0.000000
 30
0.000000
 40
0.100000
 41
0.100000
 70
0
  0
VERTEX
  8
0
 10
-0.450000
 20
-0.237868
 30
0.000000
  0
VERTEX
  8
0
 10
-0.450000
 20
0.237868
 30
0.000000
  0
SEQEND
  8
0
  0
POLYLINE
  8
0
 66
1
 10
0.000000
 20
0.000000
 30
0.000000
 40
0.050000
 41
0.050000
 70
0
  0
VERTEX
  8
0
 10
-0.425000
 20
0.237868
 30
0.000000
 42
1.000000
  0
VERTEX
  8
0
 10
-0.475000
 20
0.237868
 30
0.000000
  0
SEQEND
  8
0
  0
POLYLINE
  8
0
 66
1
 10
0.000000
 20
0.000000
 30
0.000000
 40
0.050000
 41
0.050000
 70
0
  0
VERTEX
  8
0
 10
-0.475000
 20
-0.237868
 30
0.000000
 42
1.000000
  0
VERTEX
  8
0
 10
-0.425000
 20
-0.237868
 30
0.000000
  0
SEQEND
  8
0
  0
ENDBLK
  8
0
  0
ENDSEC
  0
SECTION
  2
ENTITIES
  0
POLYLINE
  8
20
 66
1
 10
0.000000
 20
0.000000
 30
0.000000
 40
0.008000
 41
0.008000
 70
0
  0
VERTEX
  8
20
 10
0.000000
 20
3.880000
 30
0.000000
  0
VERTEX
  8
20
 10
0.340000
 20
3.880000
 30
0.000000
  0
SEQEND
  8
0
  0
POLYLINE
  8
20
 66
1
 10
0.000000
 20
0.000000
 30
0.000000
 40
0.004000
 41
0.004000
 70
0
  0
VERTEX
  8
20
 10
0.340000
 20
3.878000
 30
0.000000
 42
1.000000
  0
VERTEX
  8
20
 10
0.340000
 20
3.882000
 30
0.000000
  0
SEQEND
  8
0
  0
POLYLINE
  8
20
 66
1
 10
0.000000
 20
0.000000
 30
0.000000
 40
0.004000
 41
0.004000
 70
0
  0
VERTEX
  8
20
 10
0.000000
 20
3.882000
 30
0.000000
 42
1.000000
  0
VERTEX
  8
20
 10
0.000000
 20
3.878000
 30
0.000000
  0
SEQEND
  8
0
  0
POLYLINE
  8
20
 66
1
 10
0.000000
 20
0.000000
 30
0.000000
 40
0.008000
 41
0.008000
 70
0
  0
VERTEX
  8
20
 10
0.340000
 20
3.880000
 30
0.000000
  0
VERTEX
  8
20
 10
0.570000
 20
3.650000
 30
0.000000
  0
SEQEND
  8
0
  0
POLYLINE
  8
20
 66
1
 10
0.000000
 20
0.000000
 30
0.000000
 40
0.004000
 41
0.004000
 70
0
  0
VERTEX
  8
20
 10
0.568586
 20
3.648586
 30
0.000000
 42
1.000000
  0
VERTEX
  8
20
 10
0.571414
 20
3.651414
 30
0.000000
  0
SEQEND
  8
0
  0
POLYLINE
  8
20
 66
1
 10
0.000000
 20
0.000000
 30
0.000000
 40
0.004000
 41
0.004000
 70
0
  0
VERTEX
  8
20
 10
0.341414
 20
3.881414
 30
0.000000
 42
1.000000
  0
VERTEX
  8
20
 10
0.338586
 20
3.878586
 30
0.000000
  0
SEQEND
  8
0
  0
POLYLINE
  8
20
 66
1
 10
0.000000
 20
0.000000
 30
0.000000
 40
0.008000
 41
0.008000
 70
0
  0
VERTEX
  8
20
 10
0.570000
 20
3.650000
 30
0.000000
  0
VERTEX
  8
20
 10
1.240000
 20
3.650000
 30
0.000000
  0
SEQEND
  8
0
  0
POLYLINE
  8
20
 66
1
 10
0.000000
 20
0.000000
 30
0.000000
 40
0.004000
 41
0.004000
 70
0
  0
VERTEX
  8
20
 10
1.240000
 20
3.648000
 30
0.000000
 42
1.000000
  0
VERTEX
  8
20
 10
1.240000
 20
3.652000
 30
0.000000
  0
SEQEND
  8
0
  0
POLYLINE
  8
20
 66
1
 10
0.000000
 20
0.000000
 30
0.000000
 40
0.004000
 41
0.004000
 70
0
  0
VERTEX
  8
20
 10
0.570000
 20
3.652000
 30
0.000000
 42
1.000000
  0
VERTEX
  8
20
 10
0.570000
 20
3.648000
 30
0.000000
  0
SEQEND
  8
0
  0
POLYLINE
  8
20
 66
1
 10
0.000000
 20
0.000000
 30
0.000000
 40
0.008000
 41
0.008000
 70
0
  0
VERTEX
  8
20
 10
1.240000
 20
3.650000
 30
0.000000
  0
VERTEX
  8
20
 10
1.240000
 20
0.230000
 30
0.000000
  0
SEQEND
  8
0
  0
POLYLINE
  8
20
 66
1
 10
0.000000
 20
0.000000
 30
0.000000
 40
0.004000
 41
0.004000
 70
0
  0
VERTEX
  8
20
 10
1.238000
 20
0.230000
 30
0.000000
 42
1.000000
  0
VERTEX
  8
20
 10
1.242000
 20
0.230000
 30
0.000000
  0
SEQEND
  8
0
  0
POLYLINE
  8
20
 66
1
 10
0.000000
 20
0.000000
 30
0.000000
 40
0.004000
 41
0.004000
 70
0
  0
VERTEX
  8
20
 10
1.242000
 20
3.650000
 30
0.000000
 42
1.000000
  0
VERTEX
  8
20
 10
1.238000
 20
3.650000
 30
0.000000
  0
SEQEND
  8
0
  0
POLYLINE
  8
20
 66
1
 10
0.000000
 20
0.000000
 30
0.000000
 40
0.008000
 41
0.008000
 70
0
  0
VERTEX
  8
20
 10
1.240000
 20
0.230000
 30
0.000000
  0
VERTEX
  8
20
 10
1.180000
 20
0.170000
 30
0.000000
  0
SEQEND
  8
0
  0
POLYLINE
  8
20
 66
1
 10
0.000000
 20
0.000000
 30
0.000000
 40
0.004000
 41
0.004000
 70
0
  0
VERTEX
  8
20
 10
1.178586
 20
0.171414
 30
0.000000
 42
1.000000
  0
VERTEX
  8
20
 10
1.181414
 20
0.168586
 30
0.000000
  0
SEQEND
  8
0
  0
POLYLINE
  8
20
 66
1
 10
0.000000
 20
0.000000
 30
0.000000
 40
0.004000
 41
0.004000
 70
0
  0
VERTEX
  8
20
 10
1.241414
 20
0.228586
 30
0.000000
 42
1.000000
  0
VERTEX
  8
20
 10
1.238586
 20
0.231414
 30
0.000000
  0
SEQEND
  8
0
  0
POLYLINE
  8
20
 66
1
 10
0.000000
 20
0.000000
 30
0.000000
 40
0.008000
 41
0.008000
 70
0
  0
VERTEX
  8
20
 10
1.180000
 20
0.170000
 30
0.000000
  0
VERTEX
  8
20
 10
0.880000
 20
0.170000
 30
0.000000
  0
SEQEND
  8
0
  0
POLYLINE
  8
20
 66
1
 10
0.000000
 20
0.000000
 30
0.000000
 40
0.004000
 41
0.004000
 70
0
  0
VERTEX
  8
20
 10
0.880000
 20
0.172000
 30
0.000000
 42
1.000000
  0
VERTEX
  8
20
 10
0.880000
 20
0.168000
 30
0.000000
  0
SEQEND
  8
0
  0
POLYLINE
  8
20
 66
1
 10
0.000000
 20
0.000000
 30
0.000000
 40
0.004000
 41
0.004000
 70
0
  0
VERTEX
  8
20
 10
1.180000
 20
0.168000
 30
0.000000
 42
1.000000
  0
VERTEX
  8
20
 10
1.180000
 20
0.172000
 30
0.000000
  0
SEQEND
  8
0
  0
POLYLINE
  8
20
 66
1
 10
0.000000
 20
0.000000
 30
0.000000
 40
0.008000
 41
0.008000
 70
0
  0
VERTEX
  8
20
 10
0.880000
 20
0.170000
 30
0.000000
  0
VERTEX
  8
20
 10
0.790000
 20
0.050000
 30
0.000000
  0
SEQEND
  8
0
  0
POLYLINE
  8
20
 66
1
 10
0.000000
 20
0.000000
 30
0.000000
 40
0.004000
 41
0.004000
 70
0
  0
VERTEX
  8
20
 10
0.788400
 20
0.051200
 30
0.000000
 42
1.000000
  0
VERTEX
  8
20
 10
0.791600
 20
0.048800
 30
0.000000
  0
SEQEND
  8
0
  0
POLYLINE
  8
20
 66
1
 10
0.000000
 20
0.000000
 30
0.000000
 40
0.004000
 41
0.004000
 70
0
  0
VERTEX
  8
20
 10
0.881600
 20
0.168800
 30
0.000000
 42
1.000000
  0
VERTEX
  8
20
 10
0.878400
 20
0.171200
 30
0.000000
  0
SEQEND
  8
0
  0
POLYLINE
  8
20
 66
1
 10
0.000000
 20
0.000000
 30
0.000000
 40
0.008000
 41
0.008000
 70
0
  0
VERTEX
  8
20
 10
0.790000
 20
0.050000
 30
0.000000
  0
VERTEX
  8
20
 10
0.620000
 20
0.050000
 30
0.000000
  0
SEQEND
  8
0
  0
POLYLINE
  8
20
 66
1
 10
0.000000
 20
0.000000
 30
0.000000
 40
0.004000
 41
0.004000
 70
0
  0
VERTEX
  8
20
 10
0.620000
 20
0.052000
 30
0.000000
 42
1.000000
  0
VERTEX
  8
20
 10
0.620000
 20
0.048000
 30
0.000000
  0
SEQEND
  8
0
  0
POLYLINE
  8
20
 66
1
 10
0.000000
 20
0.000000
 30
0.000000
 40
0.004000
 41
0.004000
 70
0
  0
VERTEX
  8
20
 10
0.790000
 20
0.048000
 30
0.000000
 42
1.000000
  0
VERTEX
  8
20
 10
0.790000
 20
0.052000
 30
0.000000
  0
SEQEND
  8
0
  0
POLYLINE
  8
20
 66
1
 10
0.000000
 20
0.000000
 30
0.000000
 40
0.008000
 41
0.008000
 70
0
  0
VERTEX
  8
20
 10
0.620000
 20
0.050000
 30
0.000000
  0
VERTEX
  8
20
 10
0.530000
 20
0.170000
 30
0.000000
  0
SEQEND
  8
0
  0
POLYLINE
  8
20
 66
1
 10
0.000000
 20
0.000000
 30
0.000000
 40
0.004000
 41
0.004000
 70
0
  0
VERTEX
  8
20
 10
0.531600
 20
0.171200
 30
0.000000
 42
1.000000
  0
VERTEX
  8
20
 10
0.528400
 20
0.168800
 30
0.000000
  0
SEQEND
  8
0
  0
POLYLINE
  8
20
 66
1
 10
0.000000
 20
0.000000
 30
0.000000
 40
0.004000
 41
0.004000
 70
0
  0
VERTEX
  8
20
 10
0.618400
 20
0.048800
 30
0.000000
 42
1.000000
  0
VERTEX
  8
20
 10
0.621600
 20
0.051200
 30
0.000000
  0
SEQEND
  8
0
  0
POLYLINE
  8
20
 66
1
 10
0.000000
 20
0.000000
 30
0.000000
 40
0.008000
 41
0.008000
 70
0
  0
VERTEX
  8
20
 10
0.530000
 20
0.170000
 30
0.000000
  0
VERTEX
  8
20
 10
0.460000
 20
0.170000
 30
0.000000
  0
SEQEND
  8
0
  0
POLYLINE
  8
20
 66
1
 10
0.000000
 20
0.000000
 30
0.000000
 40
0.004000
 41
0.004000
 70
0
  0
VERTEX
  8
20
 10
0.460000
 20
0.172000
 30
0.000000
 42
1.000000
  0
VERTEX
  8
20
 10
0.460000
 20
0.168000
 30
0.000000
  0
SEQEND
  8
0
  0
POLYLINE
  8
20
 66
1
 10
0.000000
 20
0.000000
 30
0.000000
 40
0.004000
 41
0.004000
 70
0
  0
VERTEX
  8
20
 10
0.530000
 20
0.168000
 30
0.000000
 42
1.000000
  0
VERTEX
  8
20
 10
0.530000
 20
0.172000
 30
0.000000
  0
SEQEND
  8
0
  0
POLYLINE
  8
20
 66
1
 10
0.000000
 20
0.000000
 30
0.000000
 40
0.008000
 41
0.008000
 70
0
  0
VERTEX
  8
20
 10
0.460000
 20
0.170000
 30
0.000000
  0
VERTEX
  8
20
 10
0.210000
 20
0.410000
 30
0.000000
  0
SEQEND
  8
0
  0
POLYLINE
  8
20
 66
1
 10
0.000000
 20
0.000000
 30
0.000000
 40
0.004000
 41
0.004000
 70
0
  0
VERTEX
  8
20
 10
0.211385
 20
0.411443
 30
0.000000
 42
1.000000
  0
VERTEX
  8
20
 10
0.208615
 20
0.408557
 30
0.000000
  0
SEQEND
  8
0
  0
POLYLINE
  8
20
 66
1
 10
0.000000
 20
0.000000
 30
0.000000
 40
0.004000
 41
0.004000
 70
0
  0
VERTEX
  8
20
 10
0.458615
 20
0.168557
 30
0.000000
 42
1.000000
  0
VERTEX
  8
20
 10
0.461385
 20
0.171443
 30
0.000000
  0
SEQEND
  8
0
  0
POLYLINE
  8
20
 66
1
 10
0.000000
 20
0.000000
 30
0.000000
 40
0.008000
 41
0.008000
 70
0
  0
VERTEX
  8
20
 10
0.210000
 20
0.410000
 30
0.000000
  0
VERTEX
  8
20
 10
0.210000
 20
2.370000
 30
0.000000
  0
SEQEND
  8
0
  0
POLYLINE
  8
20
 66
1
 10
0.000000
 20
0.000000
 30
0.000000
 40
0.004000
 41
0.004000
 70
0
  0
VERTEX
  8
20
 10
0.212000
 20
2.370000
 30
0.000000
 42
1.000000
  0
VERTEX
  8
20
 10
0.208000
 20
2.370000
 30
0.000000
  0
SEQEND
  8
0
  0
POLYLINE
  8
20
 66
1
 10
0.000000
 20
0.000000
 30
0.000000
 40
0.004000
 41
0.004000
 70
0
  0
VERTEX
  8
20
 10
0.208000
 20
0.410000
 30
0.000000
 42
1.000000
  0
VERTEX
  8
20
 10
0.212000
 20
0.410000
 30
0.000000
  0
SEQEND
  8
0
  0
POLYLINE
  8
20
 66
1
 10
0.000000
 20
0.000000
 30
0.000000
 40
0.008000
 41
0.008000
 70
0
  0
VERTEX
  8
20
 10
0.210000
 20
2.370000
 30
0.000000
  0
VERTEX
  8
20
 10
0.000000
 20
2.580000
 30
0.000000
  0
SEQEND
  8
0
  0
POLYLINE
  8
20
 66
1
 10
0.000000
 20
0.000000
 30
0.000000
 40
0.004000
 41
0.004000
 70
0
  0
VERTEX
  8
20
 10
0.001414
 20
2.581414
 30
0.000000
 42
1.000000
  0
VERTEX
  8
20
 10
-0.001414
 20
2.578586
 30
0.000000
  0
SEQEND
  8
0
  0
POLYLINE
  8
20
 66
1
 10
0.000000
 20
0.000000
 30
0.000000
 40
0.004000
 41
0.004000
 70
0
  0
VERTEX
  8
20
 10
0.208586
 20
2.368586
 30
0.000000
 42
1.000000
  0
VERTEX
  8
20
 10
0.211414
 20
2.371414
 30
0.000000
  0
SEQEND
  8
0
  0
POLYLINE
  8
20
 66
1
 10
0.000000
 20
0.000000
 30
0.000000
 40
0.008000
 41
0.008000
 70
0
  0
VERTEX
  8
20
 10
0.000000
 20
2.580000
 30
0.000000
  0
VERTEX
  8
20
 10
0.000000
 20
3.880000
 30
0.000000
  0
SEQEND
  8
0
  0
POLYLINE
  8
20
 66
1
 10
0.000000
 20
0.000000
 30
0.000000
 40
0.004000
 41
0.004000
 70
0
  0
VERTEX
  8
20
 10
0.002000
 20
3.880000
 30
0.000000
 42
1.000000
  0
VERTEX
  8
20
 10
-0.002000
 20
3.880000
 30
0.000000
  0
SEQEND
  8
0
  0
POLYLINE
  8
20
 66
1
 10
0.000000
 20
0.000000
 30
0.000000
 40
0.004000
 41
0.004000
 70
0
  0
VERTEX
  8
20
 10
-0.002000
 20
2.580000
 30
0.000000
 42
1.000000
  0
VERTEX
  8
20
 10
0.002000
 20
2.580000
 30
0.000000
  0
SEQEND
  8
0
  0
POLYLINE
  8
20
 66
1
 10
0.000000
 20
0.000000
 30
0.000000
 40
0.007874
 41
0.007874
 70
0
  0
VERTEX
  8
20
 10
1.620748
 20
3.670000
 30
0.000000
  0
VERTEX
  8
20
 10
3.416076
 20
3.670000
 30
0.000000
  0
SEQEND
  8
0
  0
POLYLINE
  8
20
 66
1
 10
0.000000
 20
0.000000
 30
0.000000
 40
0.003937
 41
0.003937
 70
0
  0
VERTEX
  8
20
 10
3.416076
 20
3.668031
 30
0.000000
 42
1.000000
  0
VERTEX
  8
20
 10
3.416076
 20
3.671969
 30
0.000000
  0
SEQEND
  8
0
  0
POLYLINE
  8
20
 66
1
 10
0.000000
 20
0.000000
 30
0.000000
 40
0.003937
 41
0.003937
 70
0
  0
VERTEX
  8
20
 10
1.620748
 20
3.671969
 30
0.000000
 42
1.000000
  0
VERTEX
  8
20
 10
1.620748
 20
3.668031
 30
0.000000
  0
SEQEND
  8
0
  0
POLYLINE
  8
20
 66
1
 10
0.000000
 20
0.000000
 30
0.000000
 40
0.007874
 41
0.007874
 70
0
  0
VERTEX
  8
20
 10
3.556407
 20
3.529669
 30
0.000000
 42
0.414214
  0
VERTEX
  8
20
 10
3.416076
 20
3.670000
 30
0.000000
  0
SEQEND
  8
0
  0
POLYLINE
  8
20
 66
1
 10
0.000000
 20
0.000000
 30
0.000000
 40
0.003937
 41
0.003937
 70
0
  0
VERTEX
  8
20
 10
3.554439
 20
3.529669
 30
0.000000
 42
1.000000
  0
VERTEX
  8
20
 10
3.558376
 20
3.529669
 30
0.000000
  0
SEQEND
  8
0
  0
POLYLINE
  8
20
 66
1
 10
0.000000
 20
0.000000
 30
0.000000
 40
0.003937
 41
0.003937
 70
0
  0
VERTEX
  8
20
 10
3.416076
 20
3.671969
 30
0.000000
 42
1.000000
  0
VERTEX
  8
20
 10
3.416076
 20
3.668031
 30
0.000000
  0
SEQEND
  8
0
  0
POLYLINE
  8
20
 66
1
 10
0.000000
 20
0.000000
 30
0.000000
 40
0.007874
 41
0.007874
 70
0
  0
VERTEX
  8
20
 10
3.556407
 20
3.529669
 30
0.000000
  0
VERTEX
  8
20
 10
3.556407
 20
0.231841
 30
0.000000
  0
SEQEND
  8
0
  0
POLYLINE
  8
20
 66
1
 10
0.000000
 20
0.000000
 30
0.000000
 40
0.003937
 41
0.003937
 70
0
  0
VERTEX
  8
20
 10
3.554439
 20
0.231841
 30
0.000000
 42
1.000000
  0
VERTEX
  8
20
 10
3.558376
 20
0.231841
 30
0.000000
  0
SEQEND
  8
0
  0
POLYLINE
  8
20
 66
1
 10
0.000000
 20
0.000000
 30
0.000000
 40
0.003937
 41
0.003937
 70
0
  0
VERTEX
  8
20
 10
3.558376
 20
3.529669
 30
0.000000
 42
1.000000
  0
VERTEX
  8
20
 10
3.554439
 20
3.529669
 30
0.000000
  0
SEQEND
  8
0
  0
POLYLINE
  8
20
 66
1
 10
0.000000
 20
0.000000
 30
0.000000
 40
0.007874
 41
0.007874
 70
0
  0
VERTEX
  8
20
 10
3.450828
 20
0.126262
 30
0.000000
 42
0.414214
  0
VERTEX
  8
20
 10
3.556407
 20
0.231841
 30
0.000000
  0
SEQEND
  8
0
  0
POLYLINE
  8
20
 66
1
 10
0.000000
 20
0.000000
 30
0.000000
 40
0.003937
 41
0.003937
 70
0
  0
VERTEX
  8
20
 10
3.450828
 20
0.128230
 30
0.000000
 42
1.000000
  0
VERTEX
  8
20
 10
3.450828
 20
0.124293
 30
0.000000
  0
SEQEND
  8
0
  0
POLYLINE
  8
20
 66
1
 10
0.000000
 20
0.000000
 30
0.000000
 40
0.003937
 41
0.003937
 70
0
  0
VERTEX
  8
20
 10
3.558376
 20
0.231841
 30
0.000000
 42
1.000000
  0
VERTEX
  8
20
 10
3.554439
 20
0.231841
 30
0.000000
  0
SEQEND
  8
0
  0
POLYLINE
  8
20
 66
1
 10
0.000000
 20
0.000000
 30
0.000000
 40
0.007874
 41
0.007874
 70
0
  0
VERTEX
  8
20
 10
3.450828
 20
0.126262
 30
0.000000
  0
VERTEX
  8
20
 10
1.643907
 20
0.126262
 30
0.000000
  0
SEQEND
  8
0
  0
POLYLINE
  8
20
 66
1
 10
0.000000
 20
0.000000
 30
0.000000
 40
0.003937
 41
0.003937
 70
0
  0
VERTEX
  8
20
 10
1.643907
 20
0.128230
 30
0.000000
 42
1.000000
  0
VERTEX
  8
20
 10
1.643907
 20
0.124293
 30
0.000000
  0
SEQEND
  8
0
  0
POLYLINE
  8
20
 66
1
 10
0.000000
 20
0.000000
 30
0.000000
 40
0.003937
 41
0.003937
 70
0
  0
VERTEX
  8
20
 10
3.450828
 20
0.124293
 30
0.000000
 42
1.000000
  0
VERTEX
  8
20
 10
3.450828
 20
0.128230
 30
0.000000
  0
SEQEND
  8
0
  0
POLYLINE
  8
20
 66
1
 10
0.000000
 20
0.000000
 30
0.000000
 40
0.007874
 41
0.007874
 70
0
  0
VERTEX
  8
20
 10
1.518907
 20
0.251262
 30
0.000000
 42
0.414214
  0
VERTEX
  8
20
 10
1.643907
 20
0.126262
 30
0.000000
  0
SEQEND
  8
0
  0
POLYLINE
  8
20
 66
1
 10
0.000000
 20
0.000000
 30
0.000000
 40
0.003937
 41
0.003937
 70
0
  0
VERTEX
  8
20
 10
1.520876
 20
0.251262
 30
0.000000
 42
1.000000
  0
VERTEX
  8
20
 10
1.516939
 20
0.251262
 30
0.000000
  0
SEQEND
  8
0
  0
POLYLINE
  8
20
 66
1
 10
0.000000
 20
0.000000
 30
0.000000
 40
0.003937
 41
0.003937
 70
0
  0
VERTEX
  8
20
 10
1.643907
 20
0.124293
 30
0.000000
 42
1.000000
  0
VERTEX
  8
20
 10
1.643907
 20
0.128230
 30
0.000000
  0
SEQEND
  8
0
  0
POLYLINE
  8
20
 66
1
 10
0.000000
 20
0.000000
 30
0.000000
 40
0.007874
 41
0.007874
 70
0
  0
VERTEX
  8
20
 10
1.518907
 20
0.251262
 30
0.000000
  0
VERTEX
  8
20
 10
1.518907
 20
3.568159
 30
0.000000
  0
SEQEND
  8
0
  0
POLYLINE
  8
20
 66
1
 10
0.000000
 20
0.000000
 30
0.000000
 40
0.003937
 41
0.003937
 70
0
  0
VERTEX
  8
20
 10
1.520876
 20
3.568159
 30
0.000000
 42
1.000000
  0
VERTEX
  8
20
 10
1.516939
 20
3.568159
 30
0.000000
  0
SEQEND
  8
0
  0
POLYLINE
  8
20
 66
1
 10
0.000000
 20
0.000000
 30
0.000000
 40
0.003937
 41
0.003937
 70
0
  0
VERTEX
  8
20
 10
1.516939
 20
0.251262
 30
0.000000
 42
1.000000
  0
VERTEX
  8
20
 10
1.520876
 20
0.251262
 30
0.000000
  0
SEQEND
  8
0
  0
POLYLINE
  8
20
 66
1
 10
0.000000
 20
0.000000
 30
0.000000
 40
0.007874
 41
0.007874
 70
0
  0
VERTEX
  8
20
 10
1.620748
 20
3.670000
 30
0.000000
 42
0.414214
  0
VERTEX
  8
20
 10
1.518907
 20
3.568159
 30
0.000000
  0
SEQEND
  8
0
  0
POLYLINE
  8
20
 66
1
 10
0.000000
 20
0.000000
 30
0.000000
 40
0.003937
 41
0.003937
 70
0
  0
VERTEX
  8
20
 10
1.620748
 20
3.668031
 30
0.000000
 42
1.000000
  0
VERTEX
  8
20
 10
1.620748
 20
3.671969
 30
0.000000
  0
SEQEND
  8
0
  0
POLYLINE
  8
20
 66
1
 10
0.000000
 20
0.000000
 30
0.000000
 40
0.003937
 41
0.003937
 70
0
  0
VERTEX
  8
20
 10
1.516939
 20
3.568159
 30
0.000000
 42
1.000000
  0
VERTEX
  8
20
 10
1.520876
 20
3.568159
 30
0.000000
  0
SEQEND
  8
0
  0
POLYLINE
  8
20
 66
1
 10
0.000000
 20
0.000000
 30
0.000000
 40
0.007874
 41
0.007874
 70
0
  0
VERTEX
  8
20
 10
3.890000
 20
4.130000
 30
0.000000
  0
VERTEX
  8
20
 10
5.667558
 20
4.130000
 30
0.000000
  0
SEQEND
  8
0
  0
POLYLINE
  8
20
 66
1
 10
0.000000
 20
0.000000
 30
0.000000
 40
0.003937
 41
0.003937
 70
0
  0
VERTEX
  8
20
 10
5.667558
 20
4.128031
 30
0.000000
 42
1.000000
  0
VERTEX
  8
20
 10
5.667558
 20
4.131969
 30
0.000000
  0
SEQEND
  8
0
  0
POLYLINE
  8
20
 66
1
 10
0.000000
 20
0.000000
 30
0.000000
 40
0.003937
 41
0.003937
 70
0
  0
VERTEX
  8
20
 10
3.890000
 20
4.131969
 30
0.000000
 42
1.000000
  0
VERTEX
  8
20
 10
3.890000
 20
4.128031
 30
0.000000
  0
SEQEND
  8
0
  0
POLYLINE
  8
20
 66
1
 10
0.000000
 20
0.000000
 30
0.000000
 40
0.007874
 41
0.007874
 70
0
  0
VERTEX
  8
20
 10
5.786407
 20
4.011151
 30
0.000000
 42
0.414214
  0
VERTEX
  8
20
 10
5.667558
 20
4.130000
 30
0.000000
  0
SEQEND
  8
0
  0
POLYLINE
  8
20
 66
1
 10
0.000000
 20
0.000000
 30
0.000000
 40
0.003937
 41
0.003937
 70
0
  0
VERTEX
  8
20
 10
5.784439
 20
4.011151
 30
0.000000
 42
1.000000
  0
VERTEX
  8
20
 10
5.788376
 20
4.011151
 30
0.000000
  0
SEQEND
  8
0
  0
POLYLINE
  8
20
 66
1
 10
0.000000
 20
0.000000
 30
0.000000
 40
0.003937
 41
0.003937
 70
0
  0
VERTEX
  8
20
 10
5.667558
 20
4.131969
 30
0.000000
 42
1.000000
  0
VERTEX
  8
20
 10
5.667558
 20
4.128031
 30
0.000000
  0
SEQEND
  8
0
  0
POLYLINE
  8
20
 66
1
 10
0.000000
 20
0.000000
 30
0.000000
 40
0.007874
 41
0.007874
 70
0
  0
VERTEX
  8
20
 10
5.786407
 20
4.011151
 30
0.000000
  0
VERTEX
  8
20
 10
5.786407
 20
0.180244
 30
0.000000
  0
SEQEND
  8
0
  0
POLYLINE
  8
20
 66
1
 10
0.000000
 20
0.000000
 30
0.000000
 40
0.003937
 41
0.003937
 70
0
  0
VERTEX
  8
20
 10
5.784439
 20
0.180244
 30
0.000000
 42
1.000000
  0
VERTEX
  8
20
 10
5.788376
 20
0.180244
 30
0.000000
  0
SEQEND
  8
0
  0
POLYLINE
  8
20
 66
1
 10
0.000000
 20
0.000000
 30
0.000000
 40
0.003937
 41
0.003937
 70
0
  0
VERTEX
  8
20
 10
5.788376
 20
4.011151
 30
0.000000
 42
1.000000
  0
VERTEX
  8
20
 10
5.784439
 20
4.011151
 30
0.000000
  0
SEQEND
  8
0
  0
POLYLINE
  8
20
 66
1
 10
0.000000
 20
0.000000
 30
0.000000
 40
0.007874
 41
0.007874
 70
0
  0
VERTEX
  8
20
 10
5.661407
 20
0.055244
 30
0.000000
 42
0.414214
  0
VERTEX
  8
20
 10
5.786407
 20
0.180244
 30
0.000000
  0
SEQEND
  8
0
  0
POLYLINE
  8
20
 66
1
 10
0.000000
 20
0.000000
 30
0.000000
 40
0.003937
 41
0.003937
 70
0
  0
VERTEX
  8
20
 10
5.661407
 20
0.057213
 30
0.000000
 42
1.000000
  0
VERTEX
  8
20
 10
5.661407
 20
0.053276
 30
0.000000
  0
SEQEND
  8
0
  0
POLYLINE
  8
20
 66
1
 10
0.000000
 20
0.000000
 30
0.000000
 40
0.003937
 41
0.003937
 70
0
  0
VERTEX
  8
20
 10
5.788376
 20
0.180244
 30
0.000000
 42
1.000000
  0
VERTEX
  8
20
 10
5.784439
 20
0.180244
 30
0.000000
  0
SEQEND
  8
0
  0
POLYLINE
  8
20
 66
1
 10
0.000000
 20
0.000000
 30
0.000000
 40
0.007874
 41
0.007874
 70
0
  0
VERTEX
  8
20
 10
5.661407
 20
0.055244
 30
0.000000
  0
VERTEX
  8
20
 10
3.877671
 20
0.055244
 30
0.000000
  0
SEQEND
  8
0
  0
POLYLINE
  8
20
 66
1
 10
0.000000
 20
0.000000
 30
0.000000
 40
0.003937
 41
0.003937
 70
0
  0
VERTEX
  8
20
 10
3.877671
 20
0.057213
 30
0.000000
 42
1.000000
  0
VERTEX
  8
20
 10
3.877671
 20
0.053276
 30
0.000000
  0
SEQEND
  8
0
  0
POLYLINE
  8
20
 66
1
 10
0.000000
 20
0.000000
 30
0.000000
 40
0.003937
 41
0.003937
 70
0
  0
VERTEX
  8
20
 10
5.661407
 20
0.053276
 30
0.000000
 42
1.000000
  0
VERTEX
  8
20
 10
5.661407
 20
0.057213
 30
0.000000
  0
SEQEND
  8
0
  0
POLYLINE
  8
20
 66
1
 10
0.000000
 20
0.000000
 30
0.000000
 40
0.007874
 41
0.007874
 70
0
  0
VERTEX
  8
20
 10
3.748907
 20
0.184008
 30
0.000000
 42
0.414214
  0
VERTEX
  8
20
 10
3.877671
 20
0.055244
 30
0.000000
  0
SEQEND
  8
0
  0
POLYLINE
  8
20
 66
1
 10
0.000000
 20
0.000000
 30
0.000000
 40
0.003937
 41
0.003937
 70
0
  0
VERTEX
  8
20
 10
3.750876
 20
0.184008
 30
0.000000
 42
1.000000
  0
VERTEX
  8
20
 10
3.746939
 20
0.184008
 30
0.000000
  0
SEQEND
  8
0
  0
POLYLINE
  8
20
 66
1
 10
0.000000
 20
0.000000
 30
0.000000
 40
0.003937
 41
0.003937
 70
0
  0
VERTEX
  8
20
 10
3.877671
 20
0.053276
 30
0.000000
 42
1.000000
  0
VERTEX
  8
20
 10
3.877671
 20
0.057213
 30
0.000000
  0
SEQEND
  8
0
  0
POLYLINE
  8
20
 66
1
 10
0.000000
 20
0.000000
 30
0.000000
 40
0.007874
 41
0.007874
 70
0
  0
VERTEX
  8
20
 10
3.748907
 20
0.184008
 30
0.000000
  0
VERTEX
  8
20
 10
3.748907
 20
3.988907
 30
0.000000
  0
SEQEND
  8
0
  0
POLYLINE
  8
20
 66
1
 10
0.000000
 20
0.000000
 30
0.000000
 40
0.003937
 41
0.003937
 70
0
  0
VERTEX
  8
20
 10
3.750876
 20
3.988907
 30
0.000000
 42
1.000000
  0
VERTEX
  8
20
 10
3.746939
 20
3.988907
 30
0.000000
  0
SEQEND
  8
0
  0
POLYLINE
  8
20
 66
1
 10
0.000000
 20
0.000000
 30
0.000000
 40
0.003937
 41
0.003937
 70
0
  0
VERTEX
  8
20
 10
3.746939
 20
0.184008
 30
0.000000
 42
1.000000
  0
VERTEX
  8
20
 10
3.750876
 20
0.184008
 30
0.000000
  0
SEQEND
  8
0
  0
POLYLINE
  8
20
 66
1
 10
0.000000
 20
0.000000
 30
0.000000
 40
0.007874
 41
0.007874
 70
0
  0
VERTEX
  8
20
 10
3.890000
 20
4.130000
 30
0.000000
 42
0.414214
  0
VERTEX
  8
20
 10
3.748907
 20
3.988907
 30
0.000000
  0
SEQEND
  8
0
  0
POLYLINE
  8
20
 66
1
 10
0.000000
 20
0.000000
 30
0.000000
 40
0.003937
 41
0.003937
 70
0
  0
VERTEX
  8
20
 10
3.890000
 20
4.128031
 30
0.000000
 42
1.000000
  0
VERTEX
  8
20
 10
3.890000
 20
4.131969
 30
0.000000
  0
SEQEND
  8
0
  0
POLYLINE
  8
20
 66
1
 10
0.000000
 20
0.000000
 30
0.000000
 40
0.003937
 41
0.003937
 70
0
  0
VERTEX
  8
20
 10
3.746939
 20
3.988907
 30
0.000000
 42
1.000000
  0
VERTEX
  8
20
 10
3.750876
 20
3.988907
 30
0.000000
  0
SEQEND
  8
0
  0
CIRCLE
  8
20
 10
1.055800
 20
3.118750
 30
0.000000
 40
0.060000
  0
CIRCLE
  8
20
 10
1.055800
 20
0.370677
 30
0.000000
 40
0.060000
  0
CIRCLE
  8
20
 10
1.055800
 20
1.743583
 30
0.000000
 40
0.060000
  0
CIRCLE
  8
20
 10
0.816500
 20
3.491964
 30
0.000000
 40
0.060000
  0
CIRCLE
  8
20
 10
0.890000
 20
2.740000
 30
0.000000
 40
0.060000
  0
CIRCLE
  8
20
 10
0.890000
 20
1.020000
 30
0.000000
 40
0.060000
  0
CIRCLE
  8
20
 10
1.730000
 20
3.150000
 30
0.000000
 40
0.060000
  0
CIRCLE
  8
20
 10
1.730000
 20
0.290000
 30
0.000000
 40
0.060000
  0
CIRCLE
  8
20
 10
2.550000
 20
2.080000
 30
0.000000
 40
0.060000
  0
CIRCLE
  8
20
 10
2.780000
 20
0.620000
 30
0.000000
 40
0.060000
  0
CIRCLE
  8
20
 10
3.360000
 20
3.470000
 30
0.000000
 40
0.060000
  0
CIRCLE
  8
20
 10
3.960000
 20
3.390000
 30
0.000000
 40
0.060000
  0
CIRCLE
  8
20
 10
3.960000
 20
0.530000
 30
0.000000
 40
0.060000
  0
CIRCLE
  8
20
 10
4.780000
 20
2.320000
 30
0.000000
 40
0.060000
  0
CIRCLE
  8
20
 10
5.010000
 20
0.860000
 30
0.000000
 40
0.060000
  0
CIRCLE
  8
20
 10
5.590000
 20
3.710000
 30
0.000000
 40
0.060000
  0
ENDSEC
  0
EOF
