%TF.GenerationSoftware,KiCad,Pcbnew,9.0.4*%
%TF.CreationDate,2026-03-22T15:37:28-04:00*%
%TF.ProjectId,sensortest_brain,73656e73-6f72-4746-9573-745f62726169,rev?*%
%TF.SameCoordinates,Original*%
%TF.FileFunction,Copper,L1,Top*%
%TF.FilePolarity,Positive*%
%FSLAX46Y46*%
G04 Gerber Fmt 4.6, Leading zero omitted, Abs format (unit mm)*
G04 Created by KiCad (PCBNEW 9.0.4) date 2026-03-22 15:37:28*
%MOMM*%
%LPD*%
G01*
G04 APERTURE LIST*
G04 Aperture macros list*
%AMRoundRect*
0 Rectangle with rounded corners*
0 $1 Rounding radius*
0 $2 $3 $4 $5 $6 $7 $8 $9 X,Y pos of 4 corners*
0 Add a 4 corners polygon primitive as box body*
4,1,4,$2,$3,$4,$5,$6,$7,$8,$9,$2,$3,0*
0 Add four circle primitives for the rounded corners*
1,1,$1+$1,$2,$3*
1,1,$1+$1,$4,$5*
1,1,$1+$1,$6,$7*
1,1,$1+$1,$8,$9*
0 Add four rect primitives between the rounded corners*
20,1,$1+$1,$2,$3,$4,$5,0*
20,1,$1+$1,$4,$5,$6,$7,0*
20,1,$1+$1,$6,$7,$8,$9,0*
20,1,$1+$1,$8,$9,$2,$3,0*%
G04 Aperture macros list end*
%TA.AperFunction,SMDPad,CuDef*%
%ADD10RoundRect,0.250000X-0.412500X-0.650000X0.412500X-0.650000X0.412500X0.650000X-0.412500X0.650000X0*%
%TD*%
%TA.AperFunction,SMDPad,CuDef*%
%ADD11RoundRect,0.250000X-0.625000X0.400000X-0.625000X-0.400000X0.625000X-0.400000X0.625000X0.400000X0*%
%TD*%
%TA.AperFunction,SMDPad,CuDef*%
%ADD12RoundRect,0.250000X0.650000X-0.412500X0.650000X0.412500X-0.650000X0.412500X-0.650000X-0.412500X0*%
%TD*%
%TA.AperFunction,SMDPad,CuDef*%
%ADD13RoundRect,0.250000X0.400000X0.625000X-0.400000X0.625000X-0.400000X-0.625000X0.400000X-0.625000X0*%
%TD*%
%TA.AperFunction,SMDPad,CuDef*%
%ADD14RoundRect,0.250000X0.412500X0.650000X-0.412500X0.650000X-0.412500X-0.650000X0.412500X-0.650000X0*%
%TD*%
%TA.AperFunction,SMDPad,CuDef*%
%ADD15RoundRect,0.250000X-0.400000X-0.625000X0.400000X-0.625000X0.400000X0.625000X-0.400000X0.625000X0*%
%TD*%
%TA.AperFunction,ComponentPad*%
%ADD16R,1.308000X1.308000*%
%TD*%
%TA.AperFunction,ComponentPad*%
%ADD17C,1.308000*%
%TD*%
%TA.AperFunction,ComponentPad*%
%ADD18R,1.700000X1.700000*%
%TD*%
%TA.AperFunction,ComponentPad*%
%ADD19C,1.700000*%
%TD*%
%TA.AperFunction,SMDPad,CuDef*%
%ADD20RoundRect,0.250000X-0.650000X0.412500X-0.650000X-0.412500X0.650000X-0.412500X0.650000X0.412500X0*%
%TD*%
%TA.AperFunction,SMDPad,CuDef*%
%ADD21R,0.304800X1.168400*%
%TD*%
%TA.AperFunction,SMDPad,CuDef*%
%ADD22RoundRect,0.250000X0.625000X-0.400000X0.625000X0.400000X-0.625000X0.400000X-0.625000X-0.400000X0*%
%TD*%
%TA.AperFunction,ComponentPad*%
%ADD23C,1.066800*%
%TD*%
%TA.AperFunction,ViaPad*%
%ADD24C,0.800000*%
%TD*%
%TA.AperFunction,Conductor*%
%ADD25C,0.254000*%
%TD*%
%TA.AperFunction,Conductor*%
%ADD26C,1.000000*%
%TD*%
%TA.AperFunction,Conductor*%
%ADD27C,0.500000*%
%TD*%
G04 APERTURE END LIST*
D10*
%TO.P,C19,1*%
%TO.N,GND*%
X37945000Y-5080000D03*
%TO.P,C19,2*%
%TO.N,/IO2*%
X41070000Y-5080000D03*
%TD*%
D11*
%TO.P,R8,1*%
%TO.N,/VIN_A*%
X10590000Y-10769000D03*
%TO.P,R8,2*%
%TO.N,/OSCreturn*%
X10590000Y-13869000D03*
%TD*%
D12*
%TO.P,C22,1*%
%TO.N,GND*%
X38504000Y-19000000D03*
%TO.P,C22,2*%
%TO.N,/VIN_A*%
X38504000Y-15875000D03*
%TD*%
D11*
%TO.P,R94,1*%
%TO.N,Net-(U2-IO1)*%
X53490000Y-9245000D03*
%TO.P,R94,2*%
%TO.N,PWM*%
X53490000Y-12345000D03*
%TD*%
D12*
%TO.P,C17,1*%
%TO.N,/SUB_A*%
X27100000Y-13627500D03*
%TO.P,C17,2*%
%TO.N,Net-(U2-VDD)*%
X27100000Y-10502500D03*
%TD*%
D13*
%TO.P,R9,1*%
%TO.N,/CL2_A*%
X17220000Y-9525000D03*
%TO.P,R9,2*%
%TO.N,/CL2_B*%
X14120000Y-9525000D03*
%TD*%
D14*
%TO.P,C20,1*%
%TO.N,GND*%
X56322500Y-17145000D03*
%TO.P,C20,2*%
%TO.N,ext_vin*%
X53197500Y-17145000D03*
%TD*%
D15*
%TO.P,R103,1*%
%TO.N,/IO3*%
X37970000Y-8255000D03*
%TO.P,R103,2*%
%TO.N,/VIN_A*%
X41070000Y-8255000D03*
%TD*%
D16*
%TO.P,J13,1,1*%
%TO.N,ext_vin*%
X48870000Y-18415000D03*
D17*
%TO.P,J13,2,2*%
%TO.N,SENT*%
X46870000Y-18415000D03*
%TO.P,J13,3,3*%
%TO.N,PWM*%
X44870000Y-18415000D03*
%TO.P,J13,4,4*%
%TO.N,GND*%
X42870000Y-18415000D03*
%TD*%
D18*
%TO.P,J1,1,+12V*%
%TO.N,/CL1_B*%
X3970000Y-7925000D03*
D19*
%TO.P,J1,2,+12V*%
%TO.N,/osc1*%
X6510000Y-7925000D03*
%TO.P,J1,3,GND*%
%TO.N,/CL2_B*%
X3970000Y-10465000D03*
%TO.P,J1,4,GND*%
%TO.N,/OSCreturn*%
X6510000Y-10465000D03*
%TO.P,J1,5,GND*%
%TO.N,GND*%
X3970000Y-13005000D03*
%TO.P,J1,6,GND*%
%TO.N,/osc2*%
X6510000Y-13005000D03*
%TD*%
D11*
%TO.P,R59,1*%
%TO.N,Net-(C18-Pad2)*%
X50950000Y-9245000D03*
%TO.P,R59,2*%
%TO.N,SENT*%
X50950000Y-12345000D03*
%TD*%
D20*
%TO.P,C18,1*%
%TO.N,GND*%
X50950000Y-4152500D03*
%TO.P,C18,2*%
%TO.N,Net-(C18-Pad2)*%
X50950000Y-7277500D03*
%TD*%
D13*
%TO.P,R10,1*%
%TO.N,/CL1_A*%
X17220000Y-17145000D03*
%TO.P,R10,2*%
%TO.N,/CL1_B*%
X14120000Y-17145000D03*
%TD*%
D21*
%TO.P,U2,1,IO4*%
%TO.N,unconnected-(U2-IO4-Pad1)*%
X24130001Y-7156400D03*
%TO.P,U2,2,GND*%
%TO.N,GND*%
X23480000Y-7156400D03*
%TO.P,U2,3,IO3*%
%TO.N,/IO3*%
X22829999Y-7156400D03*
%TO.P,U2,4,VIN*%
%TO.N,/VIN_A*%
X22180000Y-7156400D03*
%TO.P,U2,5,VDD*%
%TO.N,Net-(U2-VDD)*%
X21530001Y-7156400D03*
%TO.P,U2,6,IO2*%
%TO.N,/IO2*%
X20880000Y-7156400D03*
%TO.P,U2,7,IO1*%
%TO.N,Net-(U2-IO1)*%
X20230001Y-7156400D03*
%TO.P,U2,8,CL1*%
%TO.N,/CL1_A*%
X20229999Y-12693600D03*
%TO.P,U2,9,GNDCL*%
%TO.N,GND*%
X20880000Y-12693600D03*
%TO.P,U2,10,CL2*%
%TO.N,/CL2_A*%
X21529999Y-12693600D03*
%TO.P,U2,11,SUB*%
%TO.N,/SUB_A*%
X22180000Y-12693600D03*
%TO.P,U2,12,OSC2*%
%TO.N,/osc2*%
X22829999Y-12693600D03*
%TO.P,U2,13,OSC1*%
%TO.N,/osc1*%
X23480000Y-12693600D03*
%TO.P,U2,14,NC*%
%TO.N,unconnected-(U2-NC-Pad14)*%
X24129999Y-12693600D03*
%TD*%
D20*
%TO.P,C13,1*%
%TO.N,/osc1*%
X25830000Y-16852500D03*
%TO.P,C13,2*%
%TO.N,GND*%
X25830000Y-19977500D03*
%TD*%
D22*
%TO.P,R93,1*%
%TO.N,PWM*%
X56030000Y-12345000D03*
%TO.P,R93,2*%
%TO.N,GND*%
X56030000Y-9245000D03*
%TD*%
D11*
%TO.P,R11,1*%
%TO.N,/IO2*%
X44600000Y-5435000D03*
%TO.P,R11,2*%
%TO.N,/VIN_A*%
X44600000Y-8535000D03*
%TD*%
D23*
%TO.P,J10,1,1*%
%TO.N,GND*%
X33550000Y-8115000D03*
%TO.P,J10,2,2*%
%TO.N,/VIN_A*%
X33550000Y-9365000D03*
%TO.P,J10,3,3*%
%TO.N,/IO3*%
X33550000Y-10615000D03*
%TO.P,J10,4,4*%
%TO.N,/IO2*%
X33550000Y-11865000D03*
%TD*%
D14*
%TO.P,C15,1*%
%TO.N,/CL1_A*%
X17232500Y-14605000D03*
%TO.P,C15,2*%
%TO.N,GND*%
X14107500Y-14605000D03*
%TD*%
D12*
%TO.P,C16,1*%
%TO.N,GND*%
X29800000Y-13627500D03*
%TO.P,C16,2*%
%TO.N,Net-(U2-VDD)*%
X29800000Y-10502500D03*
%TD*%
D11*
%TO.P,R12,1*%
%TO.N,/IO2*%
X48410000Y-5435000D03*
%TO.P,R12,2*%
%TO.N,Net-(C18-Pad2)*%
X48410000Y-8535000D03*
%TD*%
D20*
%TO.P,C12,1*%
%TO.N,/osc2*%
X22020000Y-16852500D03*
%TO.P,C12,2*%
%TO.N,GND*%
X22020000Y-19977500D03*
%TD*%
D13*
%TO.P,R64,1*%
%TO.N,SENT*%
X48690000Y-12065000D03*
%TO.P,R64,2*%
%TO.N,GND*%
X45590000Y-12065000D03*
%TD*%
D12*
%TO.P,C21,1*%
%TO.N,GND*%
X34440000Y-19000000D03*
%TO.P,C21,2*%
%TO.N,/VIN_A*%
X34440000Y-15875000D03*
%TD*%
D11*
%TO.P,R13,1*%
%TO.N,/VIN_A*%
X42060000Y-10515000D03*
%TO.P,R13,2*%
%TO.N,ext_vin*%
X42060000Y-13615000D03*
%TD*%
D14*
%TO.P,C14,1*%
%TO.N,/CL2_A*%
X17232500Y-12065000D03*
%TO.P,C14,2*%
%TO.N,GND*%
X14107500Y-12065000D03*
%TD*%
D24*
%TO.N,/osc2*%
X19988000Y-17653000D03*
%TO.N,GND*%
X56030000Y-7747000D03*
X44092000Y-12065000D03*
X31350000Y-15315000D03*
X12622000Y-12065000D03*
X36980000Y-19000000D03*
X24000000Y-5615000D03*
X48690000Y-3175000D03*
X21004000Y-14351000D03*
X23290000Y-8255000D03*
X35990000Y-5080000D03*
X24052000Y-20193000D03*
X55392000Y-19307000D03*
%TO.N,/osc1*%
X24306000Y-15113000D03*
%TO.N,/VIN_A*%
X23290000Y-9525000D03*
X15670000Y-6731000D03*
X22020000Y-10795000D03*
X10844000Y-9271000D03*
%TO.N,PWM*%
X49934000Y-14351000D03*
X46886000Y-14351000D03*
%TD*%
D25*
%TO.N,/osc2*%
X20788500Y-16852500D02*
X19988000Y-17653000D01*
X22829999Y-12693600D02*
X22829999Y-16042501D01*
X22020000Y-16852500D02*
X20788500Y-16852500D01*
X22829999Y-16042501D02*
X22020000Y-16852500D01*
%TO.N,GND*%
X23480000Y-8065000D02*
X23290000Y-8255000D01*
X23480000Y-7156400D02*
X23480000Y-6135000D01*
D26*
X24267500Y-19977500D02*
X24052000Y-20193000D01*
X36980000Y-19000000D02*
X34440000Y-19000000D01*
X45590000Y-12065000D02*
X44092000Y-12065000D01*
D27*
X12114000Y-15367000D02*
X12876000Y-14605000D01*
D26*
X55392000Y-19307000D02*
X56322500Y-18376500D01*
D25*
X23480000Y-6135000D02*
X24000000Y-5615000D01*
D27*
X12876000Y-14605000D02*
X14107500Y-14605000D01*
D26*
X22020000Y-19977500D02*
X23836500Y-19977500D01*
X56322500Y-18376500D02*
X56322500Y-17145000D01*
D25*
X29800000Y-13765000D02*
X31350000Y-15315000D01*
X20880000Y-12693600D02*
X20880000Y-14227000D01*
D26*
X50950000Y-4152500D02*
X49972500Y-3175000D01*
X14107500Y-12065000D02*
X12622000Y-12065000D01*
D27*
X3970000Y-13005000D02*
X6332000Y-15367000D01*
D26*
X38504000Y-19000000D02*
X36980000Y-19000000D01*
D25*
X29800000Y-13627500D02*
X29800000Y-13765000D01*
D26*
X56030000Y-9245000D02*
X56030000Y-7747000D01*
D25*
X37945000Y-5080000D02*
X35990000Y-5080000D01*
X23480000Y-7156400D02*
X23480000Y-8065000D01*
D27*
X6332000Y-15367000D02*
X12114000Y-15367000D01*
D26*
X25830000Y-19977500D02*
X24267500Y-19977500D01*
X23836500Y-19977500D02*
X24052000Y-20193000D01*
X49972500Y-3175000D02*
X48690000Y-3175000D01*
X14107500Y-12065000D02*
X14107500Y-14605000D01*
D25*
X20880000Y-14227000D02*
X21004000Y-14351000D01*
%TO.N,/osc1*%
X23480000Y-12693600D02*
X23480000Y-13779000D01*
X24814000Y-15113000D02*
X24306000Y-15113000D01*
X24814000Y-15113000D02*
X25830000Y-16129000D01*
X25830000Y-16129000D02*
X25830000Y-16852500D01*
X23480000Y-13779000D02*
X24814000Y-15113000D01*
%TO.N,/CL2_A*%
X17220000Y-9525000D02*
X17220000Y-12052500D01*
X17220000Y-12052500D02*
X17232500Y-12065000D01*
X21529999Y-11320999D02*
X21512000Y-11303000D01*
X21529999Y-12693600D02*
X21529999Y-11320999D01*
X21512000Y-11303000D02*
X17994500Y-11303000D01*
X17994500Y-11303000D02*
X17232500Y-12065000D01*
%TO.N,/CL1_A*%
X20242000Y-14097000D02*
X19734000Y-14605000D01*
X20229999Y-12693600D02*
X20242000Y-14097000D01*
X19734000Y-14605000D02*
X17232500Y-14605000D01*
X17232500Y-17132500D02*
X17220000Y-17145000D01*
X17232500Y-14605000D02*
X17232500Y-17132500D01*
%TO.N,Net-(U2-VDD)*%
X21512000Y-9271000D02*
X21530001Y-9252999D01*
X21530001Y-9252999D02*
X21530001Y-7156400D01*
X27100000Y-10502500D02*
X29800000Y-10502500D01*
X22743500Y-10502500D02*
X21512000Y-9271000D01*
X27100000Y-10502500D02*
X22743500Y-10502500D01*
%TO.N,/SUB_A*%
X22180000Y-11651000D02*
X22528000Y-11303000D01*
X26884500Y-13627500D02*
X27100000Y-13627500D01*
X22180000Y-12693600D02*
X22180000Y-11651000D01*
X22528000Y-11303000D02*
X24560000Y-11303000D01*
X24560000Y-11303000D02*
X26884500Y-13627500D01*
%TO.N,Net-(C18-Pad2)*%
X49120000Y-9245000D02*
X48410000Y-8535000D01*
X50950000Y-7277500D02*
X50950000Y-9245000D01*
X50950000Y-9245000D02*
X49120000Y-9245000D01*
%TO.N,/IO2*%
X43000000Y-5080000D02*
X44245000Y-5080000D01*
X48410000Y-5435000D02*
X48410000Y-5461000D01*
X33550000Y-11865000D02*
X36850000Y-11865000D01*
X41070000Y-5080000D02*
X43000000Y-5080000D01*
X36850000Y-11865000D02*
X36925000Y-11790000D01*
X44600000Y-5435000D02*
X48410000Y-5435000D01*
X20880000Y-7156400D02*
X20880000Y-5337000D01*
X36925000Y-11790000D02*
X39550000Y-9165000D01*
X41070000Y-5645000D02*
X41070000Y-5080000D01*
X39550000Y-9165000D02*
X39550000Y-7165000D01*
X38530000Y-2540000D02*
X41070000Y-5080000D01*
X20880000Y-5337000D02*
X23677000Y-2540000D01*
X23677000Y-2540000D02*
X38530000Y-2540000D01*
X39550000Y-7165000D02*
X41070000Y-5645000D01*
X44245000Y-5080000D02*
X44600000Y-5435000D01*
D26*
%TO.N,ext_vin*%
X40536000Y-16129000D02*
X42060000Y-14605000D01*
X50140000Y-17145000D02*
X48870000Y-18415000D01*
X53197500Y-17145000D02*
X50140000Y-17145000D01*
X47697644Y-20143355D02*
X41229221Y-20124221D01*
X41229221Y-20124221D02*
X40536000Y-19431000D01*
X48870000Y-18415000D02*
X48870000Y-18971000D01*
X48870000Y-18971000D02*
X47697644Y-20143355D01*
X42060000Y-14605000D02*
X42060000Y-13615000D01*
X40536000Y-19431000D02*
X40536000Y-16129000D01*
%TO.N,/VIN_A*%
X38504000Y-15875000D02*
X34440000Y-15875000D01*
D25*
X15670000Y-6731000D02*
X17321000Y-6731000D01*
D26*
X31850000Y-13615000D02*
X31850000Y-9765000D01*
X25520000Y-8565000D02*
X25195000Y-8890000D01*
D25*
X23290000Y-9525000D02*
X22180000Y-8255000D01*
D26*
X34440000Y-15875000D02*
X34440000Y-15113000D01*
D25*
X21385000Y-10795000D02*
X22020000Y-10795000D01*
D27*
X24560000Y-9525000D02*
X25195000Y-8890000D01*
D26*
X36050000Y-15115000D02*
X34440000Y-15113000D01*
X42060000Y-10515000D02*
X40700000Y-10515000D01*
D25*
X10590000Y-9525000D02*
X10844000Y-9271000D01*
D26*
X32250000Y-9365000D02*
X31450000Y-8565000D01*
X31450000Y-8565000D02*
X25520000Y-8565000D01*
D25*
X10590000Y-10769000D02*
X10590000Y-9525000D01*
X22180000Y-8255000D02*
X22180000Y-7156400D01*
D26*
X42060000Y-9245000D02*
X41070000Y-8255000D01*
X31850000Y-9765000D02*
X32250000Y-9365000D01*
X40700000Y-10515000D02*
X36050000Y-15115000D01*
X44040000Y-8535000D02*
X42060000Y-10515000D01*
X33348000Y-15113000D02*
X31850000Y-13615000D01*
X42060000Y-10515000D02*
X42060000Y-9245000D01*
D25*
X44600000Y-8535000D02*
X44040000Y-8535000D01*
X17321000Y-6731000D02*
X21385000Y-10795000D01*
D26*
X32250000Y-9365000D02*
X33550000Y-9365000D01*
D27*
X23290000Y-9525000D02*
X24560000Y-9525000D01*
D26*
X34440000Y-15113000D02*
X33348000Y-15113000D01*
D25*
%TO.N,/OSCreturn*%
X8558000Y-13335000D02*
X9092000Y-13869000D01*
X6510000Y-10465000D02*
X7720000Y-10465000D01*
X8558000Y-11303000D02*
X8558000Y-13335000D01*
X7720000Y-10465000D02*
X8558000Y-11303000D01*
X9092000Y-13869000D02*
X10590000Y-13869000D01*
%TO.N,/CL1_B*%
X5002000Y-17145000D02*
X2462000Y-14605000D01*
X2462000Y-9433000D02*
X3970000Y-7925000D01*
X2462000Y-14605000D02*
X2462000Y-9433000D01*
X14120000Y-17145000D02*
X5002000Y-17145000D01*
%TO.N,/CL2_B*%
X13130000Y-9525000D02*
X11352000Y-8509000D01*
X5259212Y-9175788D02*
X4277591Y-10157409D01*
X3970000Y-10465000D02*
X3300000Y-10465000D01*
X7766637Y-9175788D02*
X5259212Y-9175788D01*
X14120000Y-9525000D02*
X13130000Y-9525000D01*
X11352000Y-8509000D02*
X8433425Y-8509000D01*
X8433425Y-8509000D02*
X7766637Y-9175788D01*
%TO.N,/IO3*%
X33550000Y-10615000D02*
X35636000Y-10615000D01*
X35636000Y-10615000D02*
X35710000Y-10541000D01*
X24401998Y-3175000D02*
X28370000Y-3175000D01*
X28370000Y-3175000D02*
X31545000Y-6350000D01*
X36005000Y-10220000D02*
X37970000Y-8255000D01*
X35710000Y-10541000D02*
X35710000Y-10515000D01*
X22829999Y-7156400D02*
X22829999Y-4746999D01*
X22829999Y-4746999D02*
X24401998Y-3175000D01*
X35990000Y-10205000D02*
X36005000Y-10220000D01*
X35710000Y-10515000D02*
X36005000Y-10220000D01*
X31545000Y-6350000D02*
X34085000Y-6350000D01*
X34085000Y-6350000D02*
X35990000Y-8255000D01*
X35990000Y-8255000D02*
X35990000Y-10205000D01*
%TO.N,SENT*%
X50950000Y-12345000D02*
X48970000Y-12345000D01*
X46870000Y-18415000D02*
X46870000Y-16399000D01*
X46870000Y-16399000D02*
X48690000Y-14579000D01*
X48970000Y-12345000D02*
X48690000Y-12065000D01*
X48690000Y-14579000D02*
X48690000Y-12065000D01*
%TO.N,PWM*%
X56030000Y-12345000D02*
X53490000Y-12345000D01*
X52474000Y-14351000D02*
X49934000Y-14351000D01*
X53490000Y-12345000D02*
X53490000Y-13335000D01*
X44870000Y-16367000D02*
X44870000Y-18415000D01*
X46886000Y-14351000D02*
X44870000Y-16367000D01*
X53490000Y-13335000D02*
X52474000Y-14351000D01*
%TO.N,Net-(U2-IO1)*%
X20200000Y-3815000D02*
X22150000Y-1915000D01*
X25195000Y-1905000D02*
X51865000Y-1905000D01*
X20230001Y-7156400D02*
X20200000Y-3815000D01*
X53770000Y-8255000D02*
X53490000Y-8535000D01*
X51865000Y-1905000D02*
X53770000Y-3810000D01*
X22150000Y-1915000D02*
X25195000Y-1905000D01*
X53490000Y-8535000D02*
X53490000Y-9245000D01*
X53770000Y-3810000D02*
X53770000Y-8255000D01*
%TD*%
M02*
