%TF.GenerationSoftware,KiCad,Pcbnew,9.0.4*%
%TF.CreationDate,2026-03-22T15:37:28-04:00*%
%TF.ProjectId,sensortest_brain,73656e73-6f72-4746-9573-745f62726169,rev?*%
%TF.SameCoordinates,Original*%
%TF.FileFunction,Copper,L2,Bot*%
%TF.FilePolarity,Positive*%
%FSLAX46Y46*%
G04 Gerber Fmt 4.6, Leading zero omitted, Abs format (unit mm)*
G04 Created by KiCad (PCBNEW 9.0.4) date 2026-03-22 15:37:28*
%MOMM*%
%LPD*%
G01*
G04 APERTURE LIST*
%TA.AperFunction,ComponentPad*%
%ADD10R,1.308000X1.308000*%
%TD*%
%TA.AperFunction,ComponentPad*%
%ADD11C,1.308000*%
%TD*%
%TA.AperFunction,ComponentPad*%
%ADD12R,1.700000X1.700000*%
%TD*%
%TA.AperFunction,ComponentPad*%
%ADD13C,1.700000*%
%TD*%
%TA.AperFunction,ComponentPad*%
%ADD14C,1.066800*%
%TD*%
%TA.AperFunction,ViaPad*%
%ADD15C,0.800000*%
%TD*%
%TA.AperFunction,Conductor*%
%ADD16C,0.254000*%
%TD*%
%TA.AperFunction,Conductor*%
%ADD17C,1.000000*%
%TD*%
G04 APERTURE END LIST*
D10*
%TO.P,J13,1,1*%
%TO.N,ext_vin*%
X48870000Y-18415000D03*
D11*
%TO.P,J13,2,2*%
%TO.N,SENT*%
X46870000Y-18415000D03*
%TO.P,J13,3,3*%
%TO.N,PWM*%
X44870000Y-18415000D03*
%TO.P,J13,4,4*%
%TO.N,GND*%
X42870000Y-18415000D03*
%TD*%
D12*
%TO.P,J1,1,+12V*%
%TO.N,/CL1_B*%
X3970000Y-7925000D03*
D13*
%TO.P,J1,2,+12V*%
%TO.N,/osc1*%
X6510000Y-7925000D03*
%TO.P,J1,3,GND*%
%TO.N,/CL2_B*%
X3970000Y-10465000D03*
%TO.P,J1,4,GND*%
%TO.N,/OSCreturn*%
X6510000Y-10465000D03*
%TO.P,J1,5,GND*%
%TO.N,GND*%
X3970000Y-13005000D03*
%TO.P,J1,6,GND*%
%TO.N,/osc2*%
X6510000Y-13005000D03*
%TD*%
D14*
%TO.P,J10,1,1*%
%TO.N,GND*%
X33550000Y-8115000D03*
%TO.P,J10,2,2*%
%TO.N,/VIN_A*%
X33550000Y-9365000D03*
%TO.P,J10,3,3*%
%TO.N,/IO3*%
X33550000Y-10615000D03*
%TO.P,J10,4,4*%
%TO.N,/IO2*%
X33550000Y-11865000D03*
%TD*%
D15*
%TO.N,/osc2*%
X19988000Y-17653000D03*
%TO.N,GND*%
X56030000Y-7747000D03*
X44092000Y-12065000D03*
X31350000Y-15315000D03*
X12622000Y-12065000D03*
X36980000Y-19000000D03*
X24000000Y-5615000D03*
X48690000Y-3175000D03*
X21004000Y-14351000D03*
X23290000Y-8255000D03*
X35990000Y-5080000D03*
X24052000Y-20193000D03*
X55392000Y-19307000D03*
%TO.N,/osc1*%
X24306000Y-15113000D03*
%TO.N,/VIN_A*%
X23290000Y-9525000D03*
X15670000Y-6731000D03*
X22020000Y-10795000D03*
X10844000Y-9271000D03*
%TO.N,PWM*%
X49934000Y-14351000D03*
X46886000Y-14351000D03*
%TD*%
D16*
%TO.N,/osc2*%
X9066000Y-18923000D02*
X18718000Y-18923000D01*
X18718000Y-18923000D02*
X19988000Y-17653000D01*
X6510000Y-13005000D02*
X6510000Y-16367000D01*
X6510000Y-16367000D02*
X9066000Y-18923000D01*
D17*
%TO.N,GND*%
X42870000Y-19733000D02*
X42870000Y-18415000D01*
X43584000Y-20447000D02*
X42870000Y-19733000D01*
X53560000Y-3175000D02*
X56030000Y-5645000D01*
X22020000Y-14351000D02*
X22782000Y-13589000D01*
X26084000Y-14351000D02*
X26084000Y-18161000D01*
X26084000Y-18161000D02*
X24052000Y-20193000D01*
X55392000Y-19307000D02*
X56030000Y-18669000D01*
X21004000Y-14351000D02*
X22020000Y-14351000D01*
X40330000Y-15875000D02*
X42870000Y-18415000D01*
X31900000Y-15875000D02*
X40330000Y-15875000D01*
X48690000Y-3175000D02*
X53560000Y-3175000D01*
X42870000Y-18415000D02*
X42870000Y-12779000D01*
X21004000Y-11811000D02*
X21004000Y-14351000D01*
X54950000Y-19749000D02*
X55392000Y-19307000D01*
X25322000Y-13589000D02*
X26084000Y-14351000D01*
X43584000Y-12065000D02*
X44092000Y-12065000D01*
X56030000Y-18669000D02*
X56030000Y-7747000D01*
X54950000Y-20365000D02*
X54950000Y-19749000D01*
X56030000Y-5645000D02*
X56030000Y-7747000D01*
X42870000Y-12779000D02*
X43584000Y-12065000D01*
X22782000Y-13589000D02*
X25322000Y-13589000D01*
X54950000Y-20365000D02*
X43584000Y-20447000D01*
X21004000Y-11811000D02*
X12876000Y-11811000D01*
X29868000Y-13843000D02*
X31900000Y-15875000D01*
X12876000Y-11811000D02*
X12622000Y-12065000D01*
D16*
%TO.N,/osc1*%
X24306000Y-15113000D02*
X19734000Y-16637000D01*
X8050000Y-9017000D02*
X6958000Y-7925000D01*
X6958000Y-7925000D02*
X6510000Y-7925000D01*
X18210000Y-18161000D02*
X9828000Y-18161000D01*
X19734000Y-16637000D02*
X18210000Y-18161000D01*
X8050000Y-16383000D02*
X8050000Y-9017000D01*
X9828000Y-18161000D02*
X8050000Y-16383000D01*
%TO.N,/VIN_A*%
X11860000Y-6477000D02*
X15416000Y-6477000D01*
X10844000Y-9271000D02*
X11098000Y-9017000D01*
X15416000Y-6477000D02*
X15670000Y-6731000D01*
X11098000Y-9017000D02*
X11098000Y-7239000D01*
X23290000Y-9525000D02*
X22020000Y-10795000D01*
X11098000Y-7239000D02*
X11860000Y-6477000D01*
%TO.N,PWM*%
X49934000Y-14351000D02*
X46886000Y-14351000D01*
%TD*%
%TA.AperFunction,Conductor*%
%TO.N,GND*%
G36*
X57657539Y-520185D02*
G01*
X57703294Y-572989D01*
X57714500Y-624500D01*
X57714500Y-20965500D01*
X57694815Y-21032539D01*
X57642011Y-21078294D01*
X57590500Y-21089500D01*
X19078345Y-21089500D01*
X19011306Y-21069815D01*
X18965551Y-21017011D01*
X18954348Y-20964638D01*
X18963983Y-19578746D01*
X18984133Y-19511845D01*
X19019087Y-19476507D01*
X19118008Y-19410411D01*
X19205411Y-19323008D01*
X19938600Y-18589819D01*
X19999923Y-18556334D01*
X20026281Y-18553500D01*
X20076693Y-18553500D01*
X20076694Y-18553499D01*
X20134682Y-18541964D01*
X20250658Y-18518896D01*
X20250661Y-18518894D01*
X20250666Y-18518894D01*
X20414547Y-18451013D01*
X20562035Y-18352464D01*
X20605786Y-18308713D01*
X28924500Y-18308713D01*
X28924500Y-18521286D01*
X28950484Y-18685346D01*
X28957754Y-18731243D01*
X28984968Y-18815000D01*
X29023444Y-18933414D01*
X29119951Y-19122820D01*
X29244890Y-19294786D01*
X29395213Y-19445109D01*
X29567179Y-19570048D01*
X29567181Y-19570049D01*
X29567184Y-19570051D01*
X29756588Y-19666557D01*
X29958757Y-19732246D01*
X30168713Y-19765500D01*
X30168714Y-19765500D01*
X30381286Y-19765500D01*
X30381287Y-19765500D01*
X30591243Y-19732246D01*
X30793412Y-19666557D01*
X30982816Y-19570051D01*
X31009726Y-19550500D01*
X31154786Y-19445109D01*
X31154788Y-19445106D01*
X31154792Y-19445104D01*
X31305104Y-19294792D01*
X31316665Y-19278880D01*
X31323260Y-19269803D01*
X31391060Y-19176483D01*
X31430051Y-19122816D01*
X31526557Y-18933412D01*
X31592246Y-18731243D01*
X31625500Y-18521287D01*
X31625500Y-18324178D01*
X41716000Y-18324178D01*
X41716000Y-18505821D01*
X41744415Y-18685225D01*
X41800548Y-18857984D01*
X41883012Y-19019830D01*
X41883014Y-19019834D01*
X41895048Y-19036395D01*
X41895049Y-19036396D01*
X42470000Y-18461445D01*
X42470000Y-18467661D01*
X42497259Y-18569394D01*
X42549920Y-18660606D01*
X42624394Y-18735080D01*
X42715606Y-18787741D01*
X42817339Y-18815000D01*
X42823554Y-18815000D01*
X42248602Y-19389949D01*
X42248603Y-19389950D01*
X42265165Y-19401985D01*
X42265179Y-19401993D01*
X42427012Y-19484450D01*
X42599774Y-19540584D01*
X42779179Y-19569000D01*
X42960821Y-19569000D01*
X43140225Y-19540584D01*
X43312984Y-19484451D01*
X43474831Y-19401986D01*
X43491396Y-19389949D01*
X42916447Y-18815000D01*
X42922661Y-18815000D01*
X43024394Y-18787741D01*
X43115606Y-18735080D01*
X43190080Y-18660606D01*
X43242741Y-18569394D01*
X43270000Y-18467661D01*
X43270000Y-18461446D01*
X43853145Y-19044592D01*
X43890902Y-19052524D01*
X43932568Y-19088888D01*
X43989397Y-19167106D01*
X44117894Y-19295603D01*
X44264910Y-19402417D01*
X44426826Y-19484917D01*
X44426828Y-19484918D01*
X44512629Y-19512796D01*
X44599654Y-19541072D01*
X44779139Y-19569500D01*
X44779140Y-19569500D01*
X44960860Y-19569500D01*
X44960861Y-19569500D01*
X45140346Y-19541072D01*
X45140349Y-19541071D01*
X45140350Y-19541071D01*
X45313171Y-19484918D01*
X45313171Y-19484917D01*
X45313174Y-19484917D01*
X45475090Y-19402417D01*
X45622106Y-19295603D01*
X45750603Y-19167106D01*
X45769682Y-19140845D01*
X45825012Y-19098180D01*
X45894625Y-19092201D01*
X45956420Y-19124807D01*
X45970317Y-19140845D01*
X45989397Y-19167106D01*
X46117894Y-19295603D01*
X46264910Y-19402417D01*
X46426826Y-19484917D01*
X46426828Y-19484918D01*
X46512629Y-19512796D01*
X46599654Y-19541072D01*
X46779139Y-19569500D01*
X46779140Y-19569500D01*
X46960860Y-19569500D01*
X46960861Y-19569500D01*
X47140346Y-19541072D01*
X47140349Y-19541071D01*
X47140350Y-19541071D01*
X47313171Y-19484918D01*
X47313171Y-19484917D01*
X47313174Y-19484917D01*
X47475090Y-19402417D01*
X47612804Y-19302360D01*
X47678610Y-19278880D01*
X47746664Y-19294705D01*
X47784956Y-19328366D01*
X47858455Y-19426547D01*
X47973664Y-19512793D01*
X47973671Y-19512797D01*
X48108517Y-19563091D01*
X48108516Y-19563091D01*
X48115444Y-19563835D01*
X48168127Y-19569500D01*
X49571872Y-19569499D01*
X49631483Y-19563091D01*
X49766331Y-19512796D01*
X49881546Y-19426546D01*
X49967796Y-19311331D01*
X50018091Y-19176483D01*
X50024500Y-19116873D01*
X50024499Y-17713128D01*
X50018091Y-17653517D01*
X50012843Y-17639447D01*
X49967797Y-17518671D01*
X49967793Y-17518664D01*
X49881547Y-17403455D01*
X49881544Y-17403452D01*
X49766335Y-17317206D01*
X49766328Y-17317202D01*
X49631482Y-17266908D01*
X49631483Y-17266908D01*
X49571883Y-17260501D01*
X49571881Y-17260500D01*
X49571873Y-17260500D01*
X49571864Y-17260500D01*
X48168129Y-17260500D01*
X48168123Y-17260501D01*
X48108516Y-17266908D01*
X47973671Y-17317202D01*
X47973664Y-17317206D01*
X47858455Y-17403452D01*
X47784956Y-17501633D01*
X47729022Y-17543503D01*
X47659330Y-17548487D01*
X47612804Y-17527639D01*
X47600451Y-17518664D01*
X47475090Y-17427583D01*
X47313174Y-17345083D01*
X47313171Y-17345081D01*
X47140348Y-17288928D01*
X47001319Y-17266908D01*
X46960861Y-17260500D01*
X46779139Y-17260500D01*
X46738681Y-17266908D01*
X46599652Y-17288928D01*
X46599649Y-17288928D01*
X46426828Y-17345081D01*
X46426825Y-17345083D01*
X46264909Y-17427583D01*
X46181030Y-17488525D01*
X46117894Y-17534397D01*
X46117892Y-17534399D01*
X46117891Y-17534399D01*
X45989396Y-17662894D01*
X45970317Y-17689155D01*
X45914986Y-17731820D01*
X45845373Y-17737798D01*
X45783578Y-17705191D01*
X45769683Y-17689155D01*
X45750603Y-17662894D01*
X45622108Y-17534399D01*
X45622106Y-17534397D01*
X45475090Y-17427583D01*
X45313174Y-17345083D01*
X45313171Y-17345081D01*
X45140348Y-17288928D01*
X45001319Y-17266908D01*
X44960861Y-17260500D01*
X44779139Y-17260500D01*
X44738681Y-17266908D01*
X44599652Y-17288928D01*
X44599649Y-17288928D01*
X44426828Y-17345081D01*
X44426825Y-17345083D01*
X44264909Y-17427583D01*
X44181030Y-17488525D01*
X44117894Y-17534397D01*
X44117892Y-17534399D01*
X44117891Y-17534399D01*
X43989399Y-17662891D01*
X43989392Y-17662900D01*
X43932571Y-17741106D01*
X43877241Y-17783772D01*
X43850896Y-17787656D01*
X43270000Y-18368552D01*
X43270000Y-18362339D01*
X43242741Y-18260606D01*
X43190080Y-18169394D01*
X43115606Y-18094920D01*
X43024394Y-18042259D01*
X42922661Y-18015000D01*
X42916447Y-18015000D01*
X43491396Y-17440049D01*
X43491395Y-17440048D01*
X43474834Y-17428014D01*
X43474830Y-17428012D01*
X43312984Y-17345548D01*
X43140225Y-17289415D01*
X42960821Y-17261000D01*
X42779179Y-17261000D01*
X42599774Y-17289415D01*
X42427015Y-17345548D01*
X42265170Y-17428012D01*
X42265161Y-17428018D01*
X42248603Y-17440048D01*
X42248602Y-17440049D01*
X42823554Y-18015000D01*
X42817339Y-18015000D01*
X42715606Y-18042259D01*
X42624394Y-18094920D01*
X42549920Y-18169394D01*
X42497259Y-18260606D01*
X42470000Y-18362339D01*
X42470000Y-18368553D01*
X41895049Y-17793602D01*
X41895048Y-17793603D01*
X41883018Y-17810161D01*
X41883012Y-17810170D01*
X41800548Y-17972015D01*
X41744415Y-18144774D01*
X41716000Y-18324178D01*
X31625500Y-18324178D01*
X31625500Y-18308713D01*
X31592246Y-18098757D01*
X31526557Y-17896588D01*
X31430051Y-17707184D01*
X31397873Y-17662894D01*
X31323258Y-17560194D01*
X31323257Y-17560193D01*
X31305107Y-17535211D01*
X31154786Y-17384890D01*
X30982820Y-17259951D01*
X30793414Y-17163444D01*
X30793413Y-17163443D01*
X30793412Y-17163443D01*
X30591243Y-17097754D01*
X30591241Y-17097753D01*
X30591240Y-17097753D01*
X30397014Y-17066991D01*
X30381287Y-17064500D01*
X30168713Y-17064500D01*
X30152986Y-17066991D01*
X29958760Y-17097753D01*
X29756585Y-17163444D01*
X29567179Y-17259951D01*
X29395213Y-17384890D01*
X29244890Y-17535213D01*
X29119951Y-17707179D01*
X29023444Y-17896585D01*
X28957753Y-18098760D01*
X28924500Y-18308713D01*
X20605786Y-18308713D01*
X20687464Y-18227035D01*
X20786013Y-18079547D01*
X20853894Y-17915666D01*
X20857690Y-17896585D01*
X20879357Y-17787656D01*
X20888500Y-17741691D01*
X20888500Y-17564309D01*
X20888500Y-17564306D01*
X20888499Y-17564304D01*
X20853896Y-17390341D01*
X20853893Y-17390332D01*
X20851641Y-17384896D01*
X20823602Y-17317202D01*
X20786016Y-17226459D01*
X20786014Y-17226455D01*
X20786013Y-17226453D01*
X20786009Y-17226447D01*
X20724016Y-17133668D01*
X20703138Y-17066991D01*
X20721622Y-16999611D01*
X20773601Y-16952920D01*
X20787901Y-16947141D01*
X23843055Y-15928756D01*
X23912878Y-15926232D01*
X23929715Y-15931831D01*
X24043334Y-15978894D01*
X24217304Y-16013499D01*
X24217307Y-16013500D01*
X24217309Y-16013500D01*
X24394693Y-16013500D01*
X24394694Y-16013499D01*
X24452682Y-16001964D01*
X24568658Y-15978896D01*
X24568661Y-15978894D01*
X24568666Y-15978894D01*
X24732547Y-15911013D01*
X24880035Y-15812464D01*
X25005464Y-15687035D01*
X25104013Y-15539547D01*
X25171894Y-15375666D01*
X25206500Y-15201691D01*
X25206500Y-15024309D01*
X25206500Y-15024306D01*
X25206499Y-15024304D01*
X25171896Y-14850341D01*
X25171893Y-14850332D01*
X25104016Y-14686459D01*
X25104009Y-14686446D01*
X25005464Y-14538965D01*
X25005461Y-14538961D01*
X24880038Y-14413538D01*
X24880034Y-14413535D01*
X24798895Y-14359319D01*
X24732553Y-14314990D01*
X24732540Y-14314983D01*
X24605359Y-14262304D01*
X45985500Y-14262304D01*
X45985500Y-14439695D01*
X46020103Y-14613658D01*
X46020106Y-14613667D01*
X46087983Y-14777540D01*
X46087990Y-14777553D01*
X46186535Y-14925034D01*
X46186538Y-14925038D01*
X46311961Y-15050461D01*
X46311965Y-15050464D01*
X46459446Y-15149009D01*
X46459459Y-15149016D01*
X46582363Y-15199923D01*
X46623334Y-15216894D01*
X46623336Y-15216894D01*
X46623341Y-15216896D01*
X46797304Y-15251499D01*
X46797307Y-15251500D01*
X46797309Y-15251500D01*
X46974693Y-15251500D01*
X46974694Y-15251499D01*
X47032682Y-15239964D01*
X47148658Y-15216896D01*
X47148661Y-15216894D01*
X47148666Y-15216894D01*
X47312547Y-15149013D01*
X47460035Y-15050464D01*
X47495679Y-15014820D01*
X47557001Y-14981334D01*
X47583361Y-14978500D01*
X49236639Y-14978500D01*
X49303678Y-14998185D01*
X49324321Y-15014820D01*
X49359961Y-15050461D01*
X49359965Y-15050464D01*
X49507446Y-15149009D01*
X49507459Y-15149016D01*
X49630363Y-15199923D01*
X49671334Y-15216894D01*
X49671336Y-15216894D01*
X49671341Y-15216896D01*
X49845304Y-15251499D01*
X49845307Y-15251500D01*
X49845309Y-15251500D01*
X50022693Y-15251500D01*
X50022694Y-15251499D01*
X50080682Y-15239964D01*
X50196658Y-15216896D01*
X50196661Y-15216894D01*
X50196666Y-15216894D01*
X50360547Y-15149013D01*
X50508035Y-15050464D01*
X50633464Y-14925035D01*
X50732013Y-14777547D01*
X50799894Y-14613666D01*
X50834500Y-14439691D01*
X50834500Y-14262309D01*
X50834500Y-14262306D01*
X50834499Y-14262304D01*
X50799896Y-14088341D01*
X50799893Y-14088332D01*
X50732016Y-13924459D01*
X50732009Y-13924446D01*
X50633464Y-13776965D01*
X50633461Y-13776961D01*
X50508038Y-13651538D01*
X50508034Y-13651535D01*
X50360553Y-13552990D01*
X50360540Y-13552983D01*
X50196667Y-13485106D01*
X50196658Y-13485103D01*
X50022694Y-13450500D01*
X50022691Y-13450500D01*
X49845309Y-13450500D01*
X49845306Y-13450500D01*
X49671341Y-13485103D01*
X49671332Y-13485106D01*
X49507459Y-13552983D01*
X49507446Y-13552990D01*
X49359965Y-13651535D01*
X49359961Y-13651538D01*
X49324321Y-13687180D01*
X49262999Y-13720666D01*
X49236639Y-13723500D01*
X47583361Y-13723500D01*
X47516322Y-13703815D01*
X47495679Y-13687180D01*
X47460038Y-13651538D01*
X47460034Y-13651535D01*
X47312553Y-13552990D01*
X47312540Y-13552983D01*
X47148667Y-13485106D01*
X47148658Y-13485103D01*
X46974694Y-13450500D01*
X46974691Y-13450500D01*
X46797309Y-13450500D01*
X46797306Y-13450500D01*
X46623341Y-13485103D01*
X46623332Y-13485106D01*
X46459459Y-13552983D01*
X46459446Y-13552990D01*
X46311965Y-13651535D01*
X46311961Y-13651538D01*
X46186538Y-13776961D01*
X46186535Y-13776965D01*
X46087990Y-13924446D01*
X46087983Y-13924459D01*
X46020106Y-14088332D01*
X46020103Y-14088341D01*
X45985500Y-14262304D01*
X24605359Y-14262304D01*
X24568667Y-14247106D01*
X24568658Y-14247103D01*
X24394694Y-14212500D01*
X24394691Y-14212500D01*
X24217309Y-14212500D01*
X24217306Y-14212500D01*
X24043341Y-14247103D01*
X24043332Y-14247106D01*
X23879459Y-14314983D01*
X23879446Y-14314990D01*
X23731965Y-14413535D01*
X23731961Y-14413538D01*
X23606538Y-14538961D01*
X23606535Y-14538965D01*
X23504842Y-14691158D01*
X23451229Y-14735963D01*
X23440952Y-14739904D01*
X19580322Y-16026780D01*
X19580323Y-16026781D01*
X19572935Y-16029243D01*
X19550965Y-16033615D01*
X19514444Y-16048742D01*
X19510262Y-16050136D01*
X19510261Y-16050136D01*
X19476934Y-16061245D01*
X19476932Y-16061246D01*
X19464225Y-16068488D01*
X19464226Y-16068489D01*
X19457463Y-16072343D01*
X19436767Y-16080917D01*
X19403903Y-16102874D01*
X19400075Y-16105057D01*
X19369553Y-16122457D01*
X19358501Y-16132042D01*
X19346157Y-16141460D01*
X19333994Y-16149587D01*
X19333991Y-16149590D01*
X19309141Y-16174438D01*
X19309140Y-16174437D01*
X19306012Y-16177564D01*
X19276171Y-16203447D01*
X19262437Y-16221141D01*
X19256926Y-16226653D01*
X19256924Y-16226655D01*
X19199178Y-16284400D01*
X19137855Y-16317884D01*
X19068163Y-16312899D01*
X19012230Y-16271028D01*
X18987814Y-16205563D01*
X18987502Y-16195900D01*
X19025668Y-10706304D01*
X21119500Y-10706304D01*
X21119500Y-10883695D01*
X21154103Y-11057658D01*
X21154106Y-11057667D01*
X21221983Y-11221540D01*
X21221990Y-11221553D01*
X21320535Y-11369034D01*
X21320538Y-11369038D01*
X21445961Y-11494461D01*
X21445965Y-11494464D01*
X21593446Y-11593009D01*
X21593459Y-11593016D01*
X21716363Y-11643923D01*
X21757334Y-11660894D01*
X21757336Y-11660894D01*
X21757341Y-11660896D01*
X21931304Y-11695499D01*
X21931307Y-11695500D01*
X21931309Y-11695500D01*
X22108693Y-11695500D01*
X22108694Y-11695499D01*
X22166682Y-11683964D01*
X22282658Y-11660896D01*
X22282661Y-11660894D01*
X22282666Y-11660894D01*
X22446547Y-11593013D01*
X22594035Y-11494464D01*
X22719464Y-11369035D01*
X22818013Y-11221547D01*
X22885894Y-11057666D01*
X22920500Y-10883691D01*
X22920500Y-10833281D01*
X22940185Y-10766242D01*
X22956819Y-10745600D01*
X23240600Y-10461819D01*
X23301923Y-10428334D01*
X23328281Y-10425500D01*
X23378693Y-10425500D01*
X23378694Y-10425499D01*
X23436682Y-10413964D01*
X23552658Y-10390896D01*
X23552661Y-10390894D01*
X23552666Y-10390894D01*
X23716547Y-10323013D01*
X23864035Y-10224464D01*
X23989464Y-10099035D01*
X24088013Y-9951547D01*
X24155894Y-9787666D01*
X24190500Y-9613691D01*
X24190500Y-9436309D01*
X24190500Y-9436306D01*
X24190499Y-9436304D01*
X24159661Y-9281269D01*
X24156059Y-9263165D01*
X32516100Y-9263165D01*
X32516100Y-9466834D01*
X32555830Y-9666570D01*
X32555833Y-9666582D01*
X32633765Y-9854728D01*
X32633772Y-9854741D01*
X32678118Y-9921109D01*
X32698996Y-9987787D01*
X32680511Y-10055167D01*
X32678118Y-10058891D01*
X32633772Y-10125258D01*
X32633765Y-10125271D01*
X32555833Y-10313417D01*
X32555830Y-10313429D01*
X32516100Y-10513165D01*
X32516100Y-10716834D01*
X32555830Y-10916570D01*
X32555833Y-10916582D01*
X32633765Y-11104728D01*
X32633772Y-11104741D01*
X32678118Y-11171109D01*
X32698996Y-11237787D01*
X32680511Y-11305167D01*
X32678118Y-11308891D01*
X32633772Y-11375258D01*
X32633765Y-11375271D01*
X32555833Y-11563417D01*
X32555830Y-11563429D01*
X32516100Y-11763165D01*
X32516100Y-11966834D01*
X32555830Y-12166570D01*
X32555833Y-12166582D01*
X32633765Y-12354728D01*
X32633772Y-12354741D01*
X32746916Y-12524072D01*
X32746919Y-12524076D01*
X32890923Y-12668080D01*
X32890927Y-12668083D01*
X33060258Y-12781227D01*
X33060271Y-12781234D01*
X33248417Y-12859166D01*
X33248422Y-12859168D01*
X33448165Y-12898899D01*
X33448169Y-12898900D01*
X33448170Y-12898900D01*
X33651831Y-12898900D01*
X33651832Y-12898899D01*
X33851578Y-12859168D01*
X34039735Y-12781231D01*
X34209073Y-12668083D01*
X34353083Y-12524073D01*
X34466231Y-12354735D01*
X34544168Y-12166578D01*
X34583900Y-11966830D01*
X34583900Y-11763170D01*
X34544168Y-11563422D01*
X34515605Y-11494464D01*
X34466234Y-11375271D01*
X34466232Y-11375268D01*
X34466231Y-11375265D01*
X34421878Y-11308887D01*
X34401002Y-11242214D01*
X34419486Y-11174834D01*
X34421840Y-11171169D01*
X34466231Y-11104735D01*
X34544168Y-10916578D01*
X34583900Y-10716830D01*
X34583900Y-10513170D01*
X34544168Y-10313422D01*
X34544166Y-10313417D01*
X34466234Y-10125271D01*
X34466232Y-10125268D01*
X34466231Y-10125265D01*
X34421878Y-10058887D01*
X34401002Y-9992214D01*
X34419486Y-9924834D01*
X34421840Y-9921169D01*
X34466231Y-9854735D01*
X34544168Y-9666578D01*
X34583900Y-9466830D01*
X34583900Y-9263170D01*
X34544168Y-9063422D01*
X34497587Y-8950965D01*
X34466234Y-8875271D01*
X34466230Y-8875264D01*
X34433004Y-8825538D01*
X34421578Y-8808437D01*
X34400701Y-8741762D01*
X34419185Y-8674382D01*
X34421580Y-8670656D01*
X34465787Y-8604496D01*
X34543686Y-8416432D01*
X34543688Y-8416424D01*
X34583399Y-8216784D01*
X34583400Y-8216782D01*
X34583400Y-8013218D01*
X34583399Y-8013215D01*
X34543688Y-7813575D01*
X34543686Y-7813567D01*
X34465788Y-7625505D01*
X34465783Y-7625495D01*
X34436653Y-7581899D01*
X33815721Y-8202830D01*
X33829400Y-8151784D01*
X33829400Y-8078216D01*
X33810359Y-8007156D01*
X33773576Y-7943444D01*
X33721556Y-7891424D01*
X33657844Y-7854641D01*
X33586784Y-7835600D01*
X33513216Y-7835600D01*
X33442156Y-7854641D01*
X33378444Y-7891424D01*
X33326424Y-7943444D01*
X33289641Y-8007156D01*
X33270600Y-8078216D01*
X33270600Y-8151784D01*
X33284278Y-8202831D01*
X32663346Y-7581899D01*
X32634210Y-7625507D01*
X32556313Y-7813567D01*
X32556311Y-7813575D01*
X32516600Y-8013215D01*
X32516600Y-8216784D01*
X32556311Y-8416424D01*
X32556313Y-8416432D01*
X32634211Y-8604494D01*
X32634216Y-8604504D01*
X32678419Y-8670658D01*
X32699297Y-8737336D01*
X32680812Y-8804716D01*
X32678420Y-8808439D01*
X32633767Y-8875268D01*
X32555833Y-9063417D01*
X32555830Y-9063429D01*
X32516100Y-9263165D01*
X24156059Y-9263165D01*
X24155895Y-9262340D01*
X24155894Y-9262334D01*
X24138923Y-9221363D01*
X24088016Y-9098459D01*
X24088009Y-9098446D01*
X23989464Y-8950965D01*
X23989461Y-8950961D01*
X23864038Y-8825538D01*
X23864034Y-8825535D01*
X23716553Y-8726990D01*
X23716540Y-8726983D01*
X23552667Y-8659106D01*
X23552658Y-8659103D01*
X23378694Y-8624500D01*
X23378691Y-8624500D01*
X23201309Y-8624500D01*
X23201306Y-8624500D01*
X23027341Y-8659103D01*
X23027332Y-8659106D01*
X22863459Y-8726983D01*
X22863446Y-8726990D01*
X22715965Y-8825535D01*
X22715961Y-8825538D01*
X22590538Y-8950961D01*
X22590535Y-8950965D01*
X22491990Y-9098446D01*
X22491983Y-9098459D01*
X22424106Y-9262332D01*
X22424103Y-9262341D01*
X22389500Y-9436304D01*
X22389500Y-9486719D01*
X22369815Y-9553758D01*
X22353181Y-9574400D01*
X22069400Y-9858181D01*
X22008077Y-9891666D01*
X21981719Y-9894500D01*
X21931306Y-9894500D01*
X21757341Y-9929103D01*
X21757332Y-9929106D01*
X21593459Y-9996983D01*
X21593446Y-9996990D01*
X21445965Y-10095535D01*
X21445961Y-10095538D01*
X21320538Y-10220961D01*
X21320535Y-10220965D01*
X21221990Y-10368446D01*
X21221983Y-10368459D01*
X21154106Y-10532332D01*
X21154103Y-10532341D01*
X21119500Y-10706304D01*
X19025668Y-10706304D01*
X19049849Y-7228346D01*
X33016899Y-7228346D01*
X33550000Y-7761446D01*
X33550001Y-7761446D01*
X34083099Y-7228347D01*
X34083098Y-7228346D01*
X34039496Y-7199212D01*
X33851432Y-7121313D01*
X33851424Y-7121311D01*
X33651784Y-7081600D01*
X33448215Y-7081600D01*
X33248575Y-7121311D01*
X33248567Y-7121313D01*
X33060507Y-7199210D01*
X33016899Y-7228346D01*
X19049849Y-7228346D01*
X19079206Y-3005822D01*
X19095769Y-623638D01*
X19115919Y-556737D01*
X19169040Y-511350D01*
X19219766Y-500500D01*
X57590500Y-500500D01*
X57657539Y-520185D01*
G37*
%TD.AperFunction*%
%TD*%
M02*
