%TF.GenerationSoftware,KiCad,Pcbnew,9.0.4*%
%TF.CreationDate,2026-03-22T15:37:28-04:00*%
%TF.ProjectId,sensortest_brain,73656e73-6f72-4746-9573-745f62726169,rev?*%
%TF.SameCoordinates,Original*%
%TF.FileFunction,Soldermask,Top*%
%TF.FilePolarity,Negative*%
%FSLAX46Y46*%
G04 Gerber Fmt 4.6, Leading zero omitted, Abs format (unit mm)*
G04 Created by KiCad (PCBNEW 9.0.4) date 2026-03-22 15:37:28*
%MOMM*%
%LPD*%
G01*
G04 APERTURE LIST*
G04 Aperture macros list*
%AMRoundRect*
0 Rectangle with rounded corners*
0 $1 Rounding radius*
0 $2 $3 $4 $5 $6 $7 $8 $9 X,Y pos of 4 corners*
0 Add a 4 corners polygon primitive as box body*
4,1,4,$2,$3,$4,$5,$6,$7,$8,$9,$2,$3,0*
0 Add four circle primitives for the rounded corners*
1,1,$1+$1,$2,$3*
1,1,$1+$1,$4,$5*
1,1,$1+$1,$6,$7*
1,1,$1+$1,$8,$9*
0 Add four rect primitives between the rounded corners*
20,1,$1+$1,$2,$3,$4,$5,0*
20,1,$1+$1,$4,$5,$6,$7,0*
20,1,$1+$1,$6,$7,$8,$9,0*
20,1,$1+$1,$8,$9,$2,$3,0*%
G04 Aperture macros list end*
%ADD10RoundRect,0.250000X-0.412500X-0.650000X0.412500X-0.650000X0.412500X0.650000X-0.412500X0.650000X0*%
%ADD11RoundRect,0.250000X-0.625000X0.400000X-0.625000X-0.400000X0.625000X-0.400000X0.625000X0.400000X0*%
%ADD12RoundRect,0.250000X0.650000X-0.412500X0.650000X0.412500X-0.650000X0.412500X-0.650000X-0.412500X0*%
%ADD13RoundRect,0.250000X0.400000X0.625000X-0.400000X0.625000X-0.400000X-0.625000X0.400000X-0.625000X0*%
%ADD14RoundRect,0.250000X0.412500X0.650000X-0.412500X0.650000X-0.412500X-0.650000X0.412500X-0.650000X0*%
%ADD15RoundRect,0.250000X-0.400000X-0.625000X0.400000X-0.625000X0.400000X0.625000X-0.400000X0.625000X0*%
%ADD16RoundRect,0.102000X0.654000X0.654000X-0.654000X0.654000X-0.654000X-0.654000X0.654000X-0.654000X0*%
%ADD17C,1.512000*%
%ADD18R,1.700000X1.700000*%
%ADD19C,1.700000*%
%ADD20C,2.200000*%
%ADD21RoundRect,0.250000X-0.650000X0.412500X-0.650000X-0.412500X0.650000X-0.412500X0.650000X0.412500X0*%
%ADD22R,0.304800X1.168400*%
%ADD23RoundRect,0.250000X0.625000X-0.400000X0.625000X0.400000X-0.625000X0.400000X-0.625000X-0.400000X0*%
%ADD24C,1.166800*%
G04 APERTURE END LIST*
D10*
%TO.C,C19*%
X37945000Y-5080000D03*
X41070000Y-5080000D03*
%TD*%
D11*
%TO.C,R8*%
X10590000Y-10769000D03*
X10590000Y-13869000D03*
%TD*%
D12*
%TO.C,C22*%
X38504000Y-19000000D03*
X38504000Y-15875000D03*
%TD*%
D11*
%TO.C,R94*%
X53490000Y-9245000D03*
X53490000Y-12345000D03*
%TD*%
D12*
%TO.C,C17*%
X27100000Y-13627500D03*
X27100000Y-10502500D03*
%TD*%
D13*
%TO.C,R9*%
X17220000Y-9525000D03*
X14120000Y-9525000D03*
%TD*%
D14*
%TO.C,C20*%
X56322500Y-17145000D03*
X53197500Y-17145000D03*
%TD*%
D15*
%TO.C,R103*%
X37970000Y-8255000D03*
X41070000Y-8255000D03*
%TD*%
D16*
%TO.C,J13*%
X48870000Y-18415000D03*
D17*
X46870000Y-18415000D03*
X44870000Y-18415000D03*
X42870000Y-18415000D03*
%TD*%
D18*
%TO.C,J1*%
X3970000Y-7925000D03*
D19*
X6510000Y-7925000D03*
X3970000Y-10465000D03*
X6510000Y-10465000D03*
X3970000Y-13005000D03*
X6510000Y-13005000D03*
%TD*%
D20*
%TO.C,H2*%
X30275000Y-18415000D03*
%TD*%
D11*
%TO.C,R59*%
X50950000Y-9245000D03*
X50950000Y-12345000D03*
%TD*%
D21*
%TO.C,C18*%
X50950000Y-4152500D03*
X50950000Y-7277500D03*
%TD*%
D13*
%TO.C,R10*%
X17220000Y-17145000D03*
X14120000Y-17145000D03*
%TD*%
D22*
%TO.C,U2*%
X24130001Y-7156400D03*
X23480000Y-7156400D03*
X22829999Y-7156400D03*
X22180000Y-7156400D03*
X21530001Y-7156400D03*
X20880000Y-7156400D03*
X20230001Y-7156400D03*
X20229999Y-12693600D03*
X20880000Y-12693600D03*
X21529999Y-12693600D03*
X22180000Y-12693600D03*
X22829999Y-12693600D03*
X23480000Y-12693600D03*
X24129999Y-12693600D03*
%TD*%
D21*
%TO.C,C13*%
X25830000Y-16852500D03*
X25830000Y-19977500D03*
%TD*%
D23*
%TO.C,R93*%
X56030000Y-12345000D03*
X56030000Y-9245000D03*
%TD*%
D11*
%TO.C,R11*%
X44600000Y-5435000D03*
X44600000Y-8535000D03*
%TD*%
D24*
%TO.C,J10*%
X33550000Y-8115000D03*
X33550000Y-9365000D03*
X33550000Y-10615000D03*
X33550000Y-11865000D03*
%TD*%
D14*
%TO.C,C15*%
X17232500Y-14605000D03*
X14107500Y-14605000D03*
%TD*%
D12*
%TO.C,C16*%
X29800000Y-13627500D03*
X29800000Y-10502500D03*
%TD*%
D11*
%TO.C,R12*%
X48410000Y-5435000D03*
X48410000Y-8535000D03*
%TD*%
D21*
%TO.C,C12*%
X22020000Y-16852500D03*
X22020000Y-19977500D03*
%TD*%
D13*
%TO.C,R64*%
X48690000Y-12065000D03*
X45590000Y-12065000D03*
%TD*%
D20*
%TO.C,H1*%
X16250000Y-3315000D03*
%TD*%
D12*
%TO.C,C21*%
X34440000Y-19000000D03*
X34440000Y-15875000D03*
%TD*%
D11*
%TO.C,R13*%
X42060000Y-10515000D03*
X42060000Y-13615000D03*
%TD*%
D14*
%TO.C,C14*%
X17232500Y-12065000D03*
X14107500Y-12065000D03*
%TD*%
M02*
