M48
; DRILL file {KiCad 9.0.4} date 2026-03-22T15:37:31-0400
; FORMAT={-:-/ absolute / metric / decimal}
; #@! TF.CreationDate,2026-03-22T15:37:31-04:00
; #@! TF.GenerationSoftware,Kicad,Pcbnew,9.0.4
; #@! TF.FileFunction,Plated,1,2,PTH
FMAT,2
METRIC
; #@! TA.AperFunction,Plated,PTH,ViaDrill
T1C0.410
; #@! TA.AperFunction,Plated,PTH,ComponentDrill
T2C0.559
; #@! TA.AperFunction,Plated,PTH,ComponentDrill
T3C0.800
; #@! TA.AperFunction,Plated,PTH,ComponentDrill
T4C1.000
%
G90
G05
T1
X10.844Y-9.271
X12.622Y-12.065
X15.67Y-6.731
X19.988Y-17.653
X21.004Y-14.351
X22.02Y-10.795
X23.29Y-8.255
X23.29Y-9.525
X24.0Y-5.615
X24.052Y-20.193
X24.306Y-15.113
X31.35Y-15.315
X35.99Y-5.08
X36.98Y-19.0
X44.092Y-12.065
X46.886Y-14.351
X48.69Y-3.175
X49.934Y-14.351
X55.392Y-19.307
X56.03Y-7.747
T2
X33.55Y-8.115
X33.55Y-9.365
X33.55Y-10.615
X33.55Y-11.865
T3
X42.87Y-18.415
X44.87Y-18.415
X46.87Y-18.415
X48.87Y-18.415
T4
X3.97Y-7.925
X3.97Y-10.465
X3.97Y-13.005
X6.51Y-7.925
X6.51Y-10.465
X6.51Y-13.005
M30
