%TF.GenerationSoftware,KiCad,Pcbnew,9.0.4*%
%TF.CreationDate,2026-01-13T18:16:17-05:00*%
%TF.ProjectId,electrosteel_synthboard_multichannelbreakout,656c6563-7472-46f7-9374-65656c5f7379,rev?*%
%TF.SameCoordinates,Original*%
%TF.FileFunction,Copper,L2,Bot*%
%TF.FilePolarity,Positive*%
%FSLAX46Y46*%
G04 Gerber Fmt 4.6, Leading zero omitted, Abs format (unit mm)*
G04 Created by KiCad (PCBNEW 9.0.4) date 2026-01-13 18:16:17*
%MOMM*%
%LPD*%
G01*
G04 APERTURE LIST*
G04 Aperture macros list*
%AMRoundRect*
0 Rectangle with rounded corners*
0 $1 Rounding radius*
0 $2 $3 $4 $5 $6 $7 $8 $9 X,Y pos of 4 corners*
0 Add a 4 corners polygon primitive as box body*
4,1,4,$2,$3,$4,$5,$6,$7,$8,$9,$2,$3,0*
0 Add four circle primitives for the rounded corners*
1,1,$1+$1,$2,$3*
1,1,$1+$1,$4,$5*
1,1,$1+$1,$6,$7*
1,1,$1+$1,$8,$9*
0 Add four rect primitives between the rounded corners*
20,1,$1+$1,$2,$3,$4,$5,0*
20,1,$1+$1,$4,$5,$6,$7,0*
20,1,$1+$1,$6,$7,$8,$9,0*
20,1,$1+$1,$8,$9,$2,$3,0*%
G04 Aperture macros list end*
%TA.AperFunction,ComponentPad*%
%ADD10O,3.000000X3.800000*%
%TD*%
%TA.AperFunction,ComponentPad*%
%ADD11O,3.000000X4.500000*%
%TD*%
%TA.AperFunction,ComponentPad*%
%ADD12O,4.000000X2.000000*%
%TD*%
%TA.AperFunction,ComponentPad*%
%ADD13RoundRect,0.250000X-0.600000X-0.600000X0.600000X-0.600000X0.600000X0.600000X-0.600000X0.600000X0*%
%TD*%
%TA.AperFunction,ComponentPad*%
%ADD14C,1.700000*%
%TD*%
%TA.AperFunction,Conductor*%
%ADD15C,0.635000*%
%TD*%
%TA.AperFunction,Conductor*%
%ADD16C,0.254000*%
%TD*%
%TA.AperFunction,Conductor*%
%ADD17C,0.381000*%
%TD*%
%TA.AperFunction,Conductor*%
%ADD18C,0.508000*%
%TD*%
G04 APERTURE END LIST*
D10*
%TO.P,J2,S,SHEILD*%
%TO.N,GND*%
X136012000Y-23631000D03*
D11*
X126612000Y-23631000D03*
D12*
%TO.P,J2,TN,SW*%
%TO.N,unconnected-(J2-SW-PadTN)*%
X131312000Y-26331000D03*
%TO.P,J2,T,SIG*%
%TO.N,ch1*%
X131312000Y-18231000D03*
%TD*%
D10*
%TO.P,J11,S,SHEILD*%
%TO.N,GND*%
X189612000Y-37051000D03*
D11*
X180212000Y-37051000D03*
D12*
%TO.P,J11,TN,SW*%
%TO.N,unconnected-(J11-SW-PadTN)*%
X184912000Y-39751000D03*
%TO.P,J11,T,SIG*%
%TO.N,ch10*%
X184912000Y-31651000D03*
%TD*%
D10*
%TO.P,J5,S,SHEILD*%
%TO.N,GND*%
X176212000Y-23631000D03*
D11*
X166812000Y-23631000D03*
D12*
%TO.P,J5,TN,SW*%
%TO.N,unconnected-(J5-SW-PadTN)*%
X171512000Y-26331000D03*
%TO.P,J5,T,SIG*%
%TO.N,ch4*%
X171512000Y-18231000D03*
%TD*%
D10*
%TO.P,J3,S,SHEILD*%
%TO.N,GND*%
X149412000Y-23631000D03*
D11*
X140012000Y-23631000D03*
D12*
%TO.P,J3,TN,SW*%
%TO.N,unconnected-(J3-SW-PadTN)*%
X144712000Y-26331000D03*
%TO.P,J3,T,SIG*%
%TO.N,ch2*%
X144712000Y-18231000D03*
%TD*%
D10*
%TO.P,J7,S,SHEILD*%
%TO.N,GND*%
X136012000Y-37051000D03*
D11*
X126612000Y-37051000D03*
D12*
%TO.P,J7,TN,SW*%
%TO.N,unconnected-(J7-SW-PadTN)*%
X131312000Y-39751000D03*
%TO.P,J7,T,SIG*%
%TO.N,ch6*%
X131312000Y-31651000D03*
%TD*%
D10*
%TO.P,J12,S,SHEILD*%
%TO.N,GND*%
X122175000Y-23462000D03*
D11*
X112775000Y-23462000D03*
D12*
%TO.P,J12,TN,SW*%
%TO.N,unconnected-(J12-SW-PadTN)*%
X117475000Y-26162000D03*
%TO.P,J12,T,SIG*%
%TO.N,mix*%
X117475000Y-18062000D03*
%TD*%
D10*
%TO.P,J9,S,SHEILD*%
%TO.N,GND*%
X162812000Y-37051000D03*
D11*
X153412000Y-37051000D03*
D12*
%TO.P,J9,TN,SW*%
%TO.N,unconnected-(J9-SW-PadTN)*%
X158112000Y-39751000D03*
%TO.P,J9,T,SIG*%
%TO.N,ch8*%
X158112000Y-31651000D03*
%TD*%
D10*
%TO.P,J8,S,SHEILD*%
%TO.N,GND*%
X149412000Y-37051000D03*
D11*
X140012000Y-37051000D03*
D12*
%TO.P,J8,TN,SW*%
%TO.N,unconnected-(J8-SW-PadTN)*%
X144712000Y-39751000D03*
%TO.P,J8,T,SIG*%
%TO.N,ch7*%
X144712000Y-31651000D03*
%TD*%
D10*
%TO.P,J10,S,SHEILD*%
%TO.N,GND*%
X176212000Y-37051000D03*
D11*
X166812000Y-37051000D03*
D12*
%TO.P,J10,TN,SW*%
%TO.N,unconnected-(J10-SW-PadTN)*%
X171512000Y-39751000D03*
%TO.P,J10,T,SIG*%
%TO.N,ch9*%
X171512000Y-31651000D03*
%TD*%
D10*
%TO.P,J6,S,SHEILD*%
%TO.N,GND*%
X189612000Y-23631000D03*
D11*
X180212000Y-23631000D03*
D12*
%TO.P,J6,TN,SW*%
%TO.N,unconnected-(J6-SW-PadTN)*%
X184912000Y-26331000D03*
%TO.P,J6,T,SIG*%
%TO.N,ch5*%
X184912000Y-18231000D03*
%TD*%
D10*
%TO.P,J4,S,SHEILD*%
%TO.N,GND*%
X162812000Y-23631000D03*
D11*
X153412000Y-23631000D03*
D12*
%TO.P,J4,TN,SW*%
%TO.N,unconnected-(J4-SW-PadTN)*%
X158112000Y-26331000D03*
%TO.P,J4,T,SIG*%
%TO.N,ch3*%
X158112000Y-18231000D03*
%TD*%
D13*
%TO.P,J1,1,Pin_1*%
%TO.N,GND*%
X104013000Y-19939000D03*
D14*
%TO.P,J1,2,Pin_2*%
%TO.N,mix*%
X106553000Y-19939000D03*
%TO.P,J1,3,Pin_3*%
%TO.N,GND*%
X104013000Y-22479000D03*
%TO.P,J1,4,Pin_4*%
X106553000Y-22479000D03*
%TO.P,J1,5,Pin_5*%
%TO.N,ch5*%
X104013000Y-25019000D03*
%TO.P,J1,6,Pin_6*%
%TO.N,unconnected-(J1-Pin_6-Pad6)*%
X106553000Y-25019000D03*
%TO.P,J1,7,Pin_7*%
%TO.N,ch7*%
X104013000Y-27559000D03*
%TO.P,J1,8,Pin_8*%
%TO.N,unconnected-(J1-Pin_8-Pad8)*%
X106553000Y-27559000D03*
%TO.P,J1,9,Pin_9*%
%TO.N,ch1*%
X104013000Y-30099000D03*
%TO.P,J1,10,Pin_10*%
%TO.N,ch3*%
X106553000Y-30099000D03*
%TO.P,J1,11,Pin_11*%
%TO.N,ch6*%
X104013000Y-32639000D03*
%TO.P,J1,12,Pin_12*%
%TO.N,ch2*%
X106553000Y-32639000D03*
%TO.P,J1,13,Pin_13*%
%TO.N,ch10*%
X104013000Y-35179000D03*
%TO.P,J1,14,Pin_14*%
%TO.N,ch4*%
X106553000Y-35179000D03*
%TO.P,J1,15,Pin_15*%
%TO.N,ch9*%
X104013000Y-37719000D03*
%TO.P,J1,16,Pin_16*%
%TO.N,ch8*%
X106553000Y-37719000D03*
%TD*%
D15*
%TO.N,ch7*%
X101092000Y-26035000D02*
X101092000Y-17907000D01*
X104013000Y-27559000D02*
X102616000Y-27559000D01*
X105537000Y-13462000D02*
X157480000Y-13462000D01*
X102616000Y-27559000D02*
X101092000Y-26035000D01*
X101092000Y-17907000D02*
X105537000Y-13462000D01*
X157480000Y-13462000D02*
X160782000Y-16764000D01*
D16*
%TO.N,ch6*%
X104013000Y-32639000D02*
X105193297Y-33819297D01*
X105193297Y-33819297D02*
X129143703Y-33819297D01*
X129143703Y-33819297D02*
X131312000Y-31651000D01*
%TO.N,ch10*%
X104013000Y-35179000D02*
X105283000Y-36449000D01*
X119761000Y-36449000D02*
X124841000Y-41529000D01*
X105283000Y-36449000D02*
X119761000Y-36449000D01*
D15*
%TO.N,ch7*%
X148209000Y-29083000D02*
X145641000Y-31651000D01*
D17*
X160782000Y-16764000D02*
X160782000Y-27559000D01*
D15*
X160782000Y-27559000D02*
X159258000Y-29083000D01*
X159258000Y-29083000D02*
X148209000Y-29083000D01*
X145641000Y-31651000D02*
X144712000Y-31651000D01*
%TO.N,ch3*%
X106553000Y-30099000D02*
X109855000Y-26797000D01*
X109855000Y-26797000D02*
X109855000Y-19812000D01*
X114808000Y-14859000D02*
X154740000Y-14859000D01*
X109855000Y-19812000D02*
X114808000Y-14859000D01*
X154740000Y-14859000D02*
X158112000Y-18231000D01*
%TO.N,ch10*%
X124841000Y-41529000D02*
X125857000Y-42545000D01*
X125857000Y-42545000D02*
X125857000Y-42672000D01*
X125857000Y-42672000D02*
X178308000Y-42672000D01*
X182499000Y-38481000D02*
X182499000Y-32385000D01*
D18*
X178308000Y-42672000D02*
X182499000Y-38481000D01*
D15*
X182499000Y-32385000D02*
X183233000Y-31651000D01*
X183233000Y-31651000D02*
X184912000Y-31651000D01*
D16*
%TO.N,ch1*%
X120904000Y-30099000D02*
X119726000Y-31277000D01*
X119726000Y-31277000D02*
X105191000Y-31277000D01*
X105191000Y-31277000D02*
X104013000Y-30099000D01*
D15*
X124460000Y-26543000D02*
X120904000Y-30099000D01*
X131312000Y-18231000D02*
X127311000Y-18231000D01*
X124460000Y-21082000D02*
X124460000Y-26543000D01*
X127311000Y-18231000D02*
X124460000Y-21082000D01*
%TD*%
%TA.AperFunction,Conductor*%
%TO.N,GND*%
G36*
X139512000Y-37301000D02*
G01*
X136512000Y-37301000D01*
X136512000Y-36801000D01*
X139512000Y-36801000D01*
X139512000Y-37301000D01*
G37*
%TD.AperFunction*%
%TA.AperFunction,Conductor*%
G36*
X152912000Y-37301000D02*
G01*
X149912000Y-37301000D01*
X149912000Y-36801000D01*
X152912000Y-36801000D01*
X152912000Y-37301000D01*
G37*
%TD.AperFunction*%
%TA.AperFunction,Conductor*%
G36*
X166312000Y-37301000D02*
G01*
X163312000Y-37301000D01*
X163312000Y-36801000D01*
X166312000Y-36801000D01*
X166312000Y-37301000D01*
G37*
%TD.AperFunction*%
%TA.AperFunction,Conductor*%
G36*
X139512000Y-23881000D02*
G01*
X136512000Y-23881000D01*
X136512000Y-23381000D01*
X139512000Y-23381000D01*
X139512000Y-23881000D01*
G37*
%TD.AperFunction*%
%TA.AperFunction,Conductor*%
G36*
X152912000Y-23881000D02*
G01*
X149912000Y-23881000D01*
X149912000Y-23381000D01*
X152912000Y-23381000D01*
X152912000Y-23881000D01*
G37*
%TD.AperFunction*%
%TA.AperFunction,Conductor*%
G36*
X179712000Y-23881000D02*
G01*
X176712000Y-23881000D01*
X176712000Y-23381000D01*
X179712000Y-23381000D01*
X179712000Y-23881000D01*
G37*
%TD.AperFunction*%
%TA.AperFunction,Conductor*%
G36*
X105314059Y-12458185D02*
G01*
X105359814Y-12510989D01*
X105369758Y-12580147D01*
X105340733Y-12643703D01*
X105294472Y-12677061D01*
X105193132Y-12719037D01*
X105149533Y-12737096D01*
X105149528Y-12737099D01*
X105015559Y-12826614D01*
X105015551Y-12826620D01*
X100456620Y-17385551D01*
X100456617Y-17385555D01*
X100367100Y-17519525D01*
X100367093Y-17519538D01*
X100340566Y-17583583D01*
X100305436Y-17668393D01*
X100305433Y-17668405D01*
X100274000Y-17826429D01*
X100274000Y-26115570D01*
X100305433Y-26273595D01*
X100305436Y-26273606D01*
X100319451Y-26307437D01*
X100319452Y-26307443D01*
X100319453Y-26307443D01*
X100367097Y-26422468D01*
X100367098Y-26422471D01*
X100456617Y-26556444D01*
X100456620Y-26556448D01*
X102094554Y-28194382D01*
X102196001Y-28262166D01*
X102228531Y-28283902D01*
X102258787Y-28296434D01*
X102258788Y-28296435D01*
X102258789Y-28296435D01*
X102377398Y-28345565D01*
X102535429Y-28376999D01*
X102535433Y-28377000D01*
X102535434Y-28377000D01*
X102696565Y-28377000D01*
X102874820Y-28377000D01*
X102941859Y-28396685D01*
X102975137Y-28428113D01*
X102982895Y-28438790D01*
X102982897Y-28438793D01*
X103133213Y-28589109D01*
X103305182Y-28714050D01*
X103313946Y-28718516D01*
X103364742Y-28766491D01*
X103381536Y-28834312D01*
X103358998Y-28900447D01*
X103313946Y-28939484D01*
X103305182Y-28943949D01*
X103133213Y-29068890D01*
X102982890Y-29219213D01*
X102857951Y-29391179D01*
X102761444Y-29580585D01*
X102695753Y-29782760D01*
X102664564Y-29979679D01*
X102662500Y-29992713D01*
X102662500Y-30205287D01*
X102695754Y-30415243D01*
X102760068Y-30613181D01*
X102761444Y-30617414D01*
X102857951Y-30806820D01*
X102982890Y-30978786D01*
X103133213Y-31129109D01*
X103305182Y-31254050D01*
X103313946Y-31258516D01*
X103364742Y-31306491D01*
X103381536Y-31374312D01*
X103358998Y-31440447D01*
X103313946Y-31479484D01*
X103305182Y-31483949D01*
X103133213Y-31608890D01*
X102982890Y-31759213D01*
X102857951Y-31931179D01*
X102761444Y-32120585D01*
X102695753Y-32322760D01*
X102662500Y-32532713D01*
X102662500Y-32745286D01*
X102695753Y-32955239D01*
X102695753Y-32955241D01*
X102695754Y-32955243D01*
X102755468Y-33139024D01*
X102761444Y-33157414D01*
X102857951Y-33346820D01*
X102982890Y-33518786D01*
X103133213Y-33669109D01*
X103305182Y-33794050D01*
X103313946Y-33798516D01*
X103364742Y-33846491D01*
X103381536Y-33914312D01*
X103358998Y-33980447D01*
X103313946Y-34019484D01*
X103305182Y-34023949D01*
X103133213Y-34148890D01*
X102982890Y-34299213D01*
X102857951Y-34471179D01*
X102761444Y-34660585D01*
X102695753Y-34862760D01*
X102677268Y-34979473D01*
X102662500Y-35072713D01*
X102662500Y-35285287D01*
X102695754Y-35495243D01*
X102748228Y-35656742D01*
X102761444Y-35697414D01*
X102857951Y-35886820D01*
X102982890Y-36058786D01*
X103133213Y-36209109D01*
X103305182Y-36334050D01*
X103313946Y-36338516D01*
X103364742Y-36386491D01*
X103381536Y-36454312D01*
X103358998Y-36520447D01*
X103313946Y-36559484D01*
X103305182Y-36563949D01*
X103133213Y-36688890D01*
X102982890Y-36839213D01*
X102857951Y-37011179D01*
X102761444Y-37200585D01*
X102695753Y-37402760D01*
X102662500Y-37612713D01*
X102662500Y-37825286D01*
X102689220Y-37993993D01*
X102695754Y-38035243D01*
X102759676Y-38231975D01*
X102761444Y-38237414D01*
X102857951Y-38426820D01*
X102982890Y-38598786D01*
X103133213Y-38749109D01*
X103305179Y-38874048D01*
X103305181Y-38874049D01*
X103305184Y-38874051D01*
X103494588Y-38970557D01*
X103696757Y-39036246D01*
X103906713Y-39069500D01*
X103906714Y-39069500D01*
X104119286Y-39069500D01*
X104119287Y-39069500D01*
X104329243Y-39036246D01*
X104531412Y-38970557D01*
X104720816Y-38874051D01*
X104854698Y-38776781D01*
X104892786Y-38749109D01*
X104892788Y-38749106D01*
X104892792Y-38749104D01*
X105043104Y-38598792D01*
X105043106Y-38598788D01*
X105043109Y-38598786D01*
X105168048Y-38426820D01*
X105168047Y-38426820D01*
X105168051Y-38426816D01*
X105172514Y-38418054D01*
X105220488Y-38367259D01*
X105288308Y-38350463D01*
X105354444Y-38372999D01*
X105393484Y-38418054D01*
X105393855Y-38418781D01*
X105397951Y-38426820D01*
X105522890Y-38598786D01*
X105673213Y-38749109D01*
X105845179Y-38874048D01*
X105845181Y-38874049D01*
X105845184Y-38874051D01*
X106034588Y-38970557D01*
X106236757Y-39036246D01*
X106446713Y-39069500D01*
X106446714Y-39069500D01*
X106659286Y-39069500D01*
X106659287Y-39069500D01*
X106869243Y-39036246D01*
X107071412Y-38970557D01*
X107260816Y-38874051D01*
X107394698Y-38776781D01*
X107432786Y-38749109D01*
X107432788Y-38749106D01*
X107432792Y-38749104D01*
X107583104Y-38598792D01*
X107583106Y-38598788D01*
X107583109Y-38598786D01*
X107708048Y-38426820D01*
X107708047Y-38426820D01*
X107708051Y-38426816D01*
X107804557Y-38237412D01*
X107870246Y-38035243D01*
X107903500Y-37825287D01*
X107903500Y-37612713D01*
X107870246Y-37402757D01*
X107816977Y-37238815D01*
X107814983Y-37168977D01*
X107851063Y-37109144D01*
X107913764Y-37078316D01*
X107934909Y-37076500D01*
X119449719Y-37076500D01*
X119516758Y-37096185D01*
X119537400Y-37112819D01*
X123993633Y-41569052D01*
X124027118Y-41630375D01*
X124027569Y-41632541D01*
X124054434Y-41767595D01*
X124054436Y-41767603D01*
X124116097Y-41916468D01*
X124116098Y-41916471D01*
X124205617Y-42050444D01*
X124205620Y-42050448D01*
X125056288Y-42901115D01*
X125083168Y-42941343D01*
X125132096Y-43059464D01*
X125132101Y-43059474D01*
X125221617Y-43193445D01*
X125335552Y-43307380D01*
X125469533Y-43396903D01*
X125543965Y-43427733D01*
X125618398Y-43458565D01*
X125776429Y-43489999D01*
X125776433Y-43490000D01*
X125776434Y-43490000D01*
X178388567Y-43490000D01*
X178388568Y-43489999D01*
X178546602Y-43458565D01*
X178695468Y-43396902D01*
X178829445Y-43307382D01*
X178943382Y-43193445D01*
X179032902Y-43059468D01*
X179055528Y-43004842D01*
X179082404Y-42964619D01*
X180747376Y-41299648D01*
X194152500Y-41299648D01*
X194152500Y-41504351D01*
X194184522Y-41706534D01*
X194247781Y-41901223D01*
X194340715Y-42083613D01*
X194461028Y-42249213D01*
X194605786Y-42393971D01*
X194760749Y-42506556D01*
X194771390Y-42514287D01*
X194887607Y-42573503D01*
X194953776Y-42607218D01*
X194953778Y-42607218D01*
X194953781Y-42607220D01*
X195058137Y-42641127D01*
X195148465Y-42670477D01*
X195249557Y-42686488D01*
X195350648Y-42702500D01*
X195350649Y-42702500D01*
X195555351Y-42702500D01*
X195555352Y-42702500D01*
X195757534Y-42670477D01*
X195952219Y-42607220D01*
X196134610Y-42514287D01*
X196227590Y-42446732D01*
X196300213Y-42393971D01*
X196300215Y-42393968D01*
X196300219Y-42393966D01*
X196444966Y-42249219D01*
X196444968Y-42249215D01*
X196444971Y-42249213D01*
X196497732Y-42176590D01*
X196565287Y-42083610D01*
X196658220Y-41901219D01*
X196721477Y-41706534D01*
X196753500Y-41504352D01*
X196753500Y-41299648D01*
X196721477Y-41097466D01*
X196658220Y-40902781D01*
X196658218Y-40902778D01*
X196658218Y-40902776D01*
X196607938Y-40804097D01*
X196565287Y-40720390D01*
X196537129Y-40681633D01*
X196444971Y-40554786D01*
X196300213Y-40410028D01*
X196134613Y-40289715D01*
X196134612Y-40289714D01*
X196134610Y-40289713D01*
X196077653Y-40260691D01*
X195952223Y-40196781D01*
X195757534Y-40133522D01*
X195582995Y-40105878D01*
X195555352Y-40101500D01*
X195350648Y-40101500D01*
X195326329Y-40105351D01*
X195148465Y-40133522D01*
X194953776Y-40196781D01*
X194771386Y-40289715D01*
X194605786Y-40410028D01*
X194461028Y-40554786D01*
X194340715Y-40720386D01*
X194247781Y-40902776D01*
X194184522Y-41097465D01*
X194152500Y-41299648D01*
X180747376Y-41299648D01*
X182207482Y-39839542D01*
X182268803Y-39806059D01*
X182338495Y-39811043D01*
X182394428Y-39852915D01*
X182417634Y-39907827D01*
X182448446Y-40102368D01*
X182521433Y-40326996D01*
X182594916Y-40471213D01*
X182628657Y-40537433D01*
X182767483Y-40728510D01*
X182934490Y-40895517D01*
X183125567Y-41034343D01*
X183224991Y-41085002D01*
X183336003Y-41141566D01*
X183336005Y-41141566D01*
X183336008Y-41141568D01*
X183444579Y-41176845D01*
X183560631Y-41214553D01*
X183793903Y-41251500D01*
X183793908Y-41251500D01*
X186030097Y-41251500D01*
X186263368Y-41214553D01*
X186487992Y-41141568D01*
X186698433Y-41034343D01*
X186889510Y-40895517D01*
X187056517Y-40728510D01*
X187195343Y-40537433D01*
X187302568Y-40326992D01*
X187375553Y-40102368D01*
X187394552Y-39982412D01*
X187412500Y-39869097D01*
X187412500Y-39632902D01*
X187375553Y-39399631D01*
X187302566Y-39175003D01*
X187195342Y-38964566D01*
X187179230Y-38942390D01*
X187056517Y-38773490D01*
X186889510Y-38606483D01*
X186698433Y-38467657D01*
X186654467Y-38445255D01*
X186487996Y-38360433D01*
X186263368Y-38287446D01*
X186030097Y-38250500D01*
X186030092Y-38250500D01*
X183793908Y-38250500D01*
X183793903Y-38250500D01*
X183560630Y-38287447D01*
X183560627Y-38287447D01*
X183479318Y-38313867D01*
X183409477Y-38315862D01*
X183349644Y-38279782D01*
X183318816Y-38217081D01*
X183317000Y-38195936D01*
X183317000Y-36519905D01*
X187612000Y-36519905D01*
X187612000Y-36801000D01*
X189112000Y-36801000D01*
X189112000Y-37301000D01*
X187612000Y-37301000D01*
X187612000Y-37582094D01*
X187646220Y-37842009D01*
X187646222Y-37842020D01*
X187714075Y-38095255D01*
X187814404Y-38337471D01*
X187814409Y-38337482D01*
X187945496Y-38564528D01*
X188105092Y-38772519D01*
X188105098Y-38772526D01*
X188290473Y-38957901D01*
X188290480Y-38957907D01*
X188498471Y-39117503D01*
X188725517Y-39248590D01*
X188725528Y-39248595D01*
X188967744Y-39348924D01*
X189220979Y-39416777D01*
X189220992Y-39416780D01*
X189362000Y-39435343D01*
X189362000Y-37884012D01*
X189419007Y-37916925D01*
X189546174Y-37951000D01*
X189677826Y-37951000D01*
X189804993Y-37916925D01*
X189862000Y-37884012D01*
X189862000Y-39435342D01*
X190003007Y-39416780D01*
X190003020Y-39416777D01*
X190256255Y-39348924D01*
X190498471Y-39248595D01*
X190498482Y-39248590D01*
X190725528Y-39117503D01*
X190933519Y-38957907D01*
X190933526Y-38957901D01*
X191118901Y-38772526D01*
X191118907Y-38772519D01*
X191278503Y-38564528D01*
X191409590Y-38337482D01*
X191409595Y-38337471D01*
X191509924Y-38095255D01*
X191577777Y-37842020D01*
X191577779Y-37842009D01*
X191611999Y-37582094D01*
X191612000Y-37582080D01*
X191612000Y-37301000D01*
X190112000Y-37301000D01*
X190112000Y-36801000D01*
X191612000Y-36801000D01*
X191612000Y-36519919D01*
X191611999Y-36519905D01*
X191577779Y-36259990D01*
X191577777Y-36259979D01*
X191509924Y-36006744D01*
X191409595Y-35764528D01*
X191409590Y-35764517D01*
X191278503Y-35537471D01*
X191118907Y-35329480D01*
X191118901Y-35329473D01*
X190933526Y-35144098D01*
X190933519Y-35144092D01*
X190725528Y-34984496D01*
X190498482Y-34853409D01*
X190498471Y-34853404D01*
X190256255Y-34753075D01*
X190003016Y-34685221D01*
X189862000Y-34666654D01*
X189862000Y-36217988D01*
X189804993Y-36185075D01*
X189677826Y-36151000D01*
X189546174Y-36151000D01*
X189419007Y-36185075D01*
X189362000Y-36217988D01*
X189362000Y-34666654D01*
X189361999Y-34666654D01*
X189220983Y-34685221D01*
X188967744Y-34753075D01*
X188725528Y-34853404D01*
X188725517Y-34853409D01*
X188498471Y-34984496D01*
X188290480Y-35144092D01*
X188290473Y-35144098D01*
X188105098Y-35329473D01*
X188105092Y-35329480D01*
X187945496Y-35537471D01*
X187814409Y-35764517D01*
X187814404Y-35764528D01*
X187714075Y-36006744D01*
X187646222Y-36259979D01*
X187646220Y-36259990D01*
X187612000Y-36519905D01*
X183317000Y-36519905D01*
X183317000Y-33206063D01*
X183336685Y-33139024D01*
X183389489Y-33093269D01*
X183458647Y-33083325D01*
X183479308Y-33088129D01*
X183560632Y-33114553D01*
X183590654Y-33119308D01*
X183793903Y-33151500D01*
X183793908Y-33151500D01*
X186030097Y-33151500D01*
X186263368Y-33114553D01*
X186328873Y-33093269D01*
X186487992Y-33041568D01*
X186698433Y-32934343D01*
X186889510Y-32795517D01*
X187056517Y-32628510D01*
X187195343Y-32437433D01*
X187302568Y-32226992D01*
X187375553Y-32002368D01*
X187383628Y-31951385D01*
X187412500Y-31769097D01*
X187412500Y-31532902D01*
X187375553Y-31299631D01*
X187341689Y-31195412D01*
X187302568Y-31075008D01*
X187302566Y-31075004D01*
X187302566Y-31075003D01*
X187206042Y-30885565D01*
X187195343Y-30864567D01*
X187056517Y-30673490D01*
X186889510Y-30506483D01*
X186698433Y-30367657D01*
X186487996Y-30260433D01*
X186263368Y-30187446D01*
X186030097Y-30150500D01*
X186030092Y-30150500D01*
X183793908Y-30150500D01*
X183793903Y-30150500D01*
X183560631Y-30187446D01*
X183336003Y-30260433D01*
X183125566Y-30367657D01*
X183016550Y-30446862D01*
X182934490Y-30506483D01*
X182934488Y-30506485D01*
X182934487Y-30506485D01*
X182767485Y-30673487D01*
X182767485Y-30673488D01*
X182767483Y-30673490D01*
X182723242Y-30734382D01*
X182628657Y-30864566D01*
X182521433Y-31075004D01*
X182467707Y-31240352D01*
X182437457Y-31289714D01*
X181863620Y-31863551D01*
X181863617Y-31863555D01*
X181774098Y-31997528D01*
X181774097Y-31997531D01*
X181751947Y-32051007D01*
X181751947Y-32051008D01*
X181712435Y-32146397D01*
X181712433Y-32146405D01*
X181681000Y-32304429D01*
X181681000Y-34655811D01*
X181661315Y-34722850D01*
X181608511Y-34768605D01*
X181539353Y-34778549D01*
X181481514Y-34754187D01*
X181325528Y-34634496D01*
X181098482Y-34503409D01*
X181098471Y-34503404D01*
X180856255Y-34403075D01*
X180603016Y-34335221D01*
X180462000Y-34316654D01*
X180462000Y-35867988D01*
X180404993Y-35835075D01*
X180277826Y-35801000D01*
X180146174Y-35801000D01*
X180019007Y-35835075D01*
X179962000Y-35867988D01*
X179962000Y-34316654D01*
X179820983Y-34335221D01*
X179567744Y-34403075D01*
X179325528Y-34503404D01*
X179325517Y-34503409D01*
X179098471Y-34634496D01*
X178890480Y-34794092D01*
X178890473Y-34794098D01*
X178705098Y-34979473D01*
X178705092Y-34979480D01*
X178545496Y-35187471D01*
X178414409Y-35414517D01*
X178414404Y-35414528D01*
X178314076Y-35656742D01*
X178271486Y-35815692D01*
X178235121Y-35875352D01*
X178172274Y-35905881D01*
X178102898Y-35897586D01*
X178049020Y-35853101D01*
X178037150Y-35831050D01*
X178009598Y-35764533D01*
X178009590Y-35764517D01*
X177878503Y-35537471D01*
X177718907Y-35329480D01*
X177718901Y-35329473D01*
X177533526Y-35144098D01*
X177533519Y-35144092D01*
X177325528Y-34984496D01*
X177098482Y-34853409D01*
X177098471Y-34853404D01*
X176856255Y-34753075D01*
X176603016Y-34685221D01*
X176462000Y-34666654D01*
X176462000Y-36217988D01*
X176404993Y-36185075D01*
X176277826Y-36151000D01*
X176146174Y-36151000D01*
X176019007Y-36185075D01*
X175962000Y-36217988D01*
X175962000Y-34666654D01*
X175961999Y-34666654D01*
X175820983Y-34685221D01*
X175567744Y-34753075D01*
X175325528Y-34853404D01*
X175325517Y-34853409D01*
X175098471Y-34984496D01*
X174890480Y-35144092D01*
X174890473Y-35144098D01*
X174705098Y-35329473D01*
X174705092Y-35329480D01*
X174545496Y-35537471D01*
X174414409Y-35764517D01*
X174414404Y-35764528D01*
X174314075Y-36006744D01*
X174246222Y-36259979D01*
X174246220Y-36259990D01*
X174212000Y-36519905D01*
X174212000Y-36801000D01*
X175712000Y-36801000D01*
X175712000Y-37301000D01*
X174212000Y-37301000D01*
X174212000Y-37582094D01*
X174246220Y-37842009D01*
X174246222Y-37842020D01*
X174314075Y-38095255D01*
X174414404Y-38337471D01*
X174414409Y-38337482D01*
X174545496Y-38564528D01*
X174705092Y-38772519D01*
X174705098Y-38772526D01*
X174890473Y-38957901D01*
X174890480Y-38957907D01*
X175098471Y-39117503D01*
X175325517Y-39248590D01*
X175325528Y-39248595D01*
X175567744Y-39348924D01*
X175820979Y-39416777D01*
X175820992Y-39416780D01*
X175962000Y-39435343D01*
X175962000Y-37884012D01*
X176019007Y-37916925D01*
X176146174Y-37951000D01*
X176277826Y-37951000D01*
X176404993Y-37916925D01*
X176462000Y-37884012D01*
X176462000Y-39435343D01*
X176603007Y-39416780D01*
X176603020Y-39416777D01*
X176856255Y-39348924D01*
X177098471Y-39248595D01*
X177098482Y-39248590D01*
X177325528Y-39117503D01*
X177533519Y-38957907D01*
X177533526Y-38957901D01*
X177718901Y-38772526D01*
X177718907Y-38772519D01*
X177878503Y-38564528D01*
X178009590Y-38337482D01*
X178009598Y-38337466D01*
X178037150Y-38270949D01*
X178080990Y-38216545D01*
X178147284Y-38194480D01*
X178214984Y-38211759D01*
X178262594Y-38262896D01*
X178271486Y-38286308D01*
X178314075Y-38445255D01*
X178414404Y-38687471D01*
X178414409Y-38687482D01*
X178545496Y-38914528D01*
X178705092Y-39122519D01*
X178705098Y-39122526D01*
X178890473Y-39307901D01*
X178890480Y-39307907D01*
X179098471Y-39467503D01*
X179325517Y-39598590D01*
X179325528Y-39598595D01*
X179567744Y-39698924D01*
X179820979Y-39766777D01*
X179820995Y-39766780D01*
X179859064Y-39771792D01*
X179922961Y-39800057D01*
X179961433Y-39858381D01*
X179962266Y-39928245D01*
X179930562Y-39982412D01*
X178095294Y-41817681D01*
X178033971Y-41851166D01*
X178007613Y-41854000D01*
X126374189Y-41854000D01*
X126307150Y-41834315D01*
X126286508Y-41817681D01*
X125362448Y-40893620D01*
X125362444Y-40893617D01*
X125228471Y-40804098D01*
X125228468Y-40804097D01*
X125079603Y-40742436D01*
X125079595Y-40742434D01*
X124944541Y-40715569D01*
X124882630Y-40683183D01*
X124881052Y-40681633D01*
X120161005Y-35961586D01*
X120155661Y-35958016D01*
X120155654Y-35958012D01*
X120152851Y-35956139D01*
X120058233Y-35892917D01*
X120024784Y-35879062D01*
X120016637Y-35875687D01*
X120016635Y-35875686D01*
X119944035Y-35845614D01*
X119944027Y-35845612D01*
X119822807Y-35821500D01*
X119822803Y-35821500D01*
X107934909Y-35821500D01*
X107867870Y-35801815D01*
X107822115Y-35749011D01*
X107812171Y-35679853D01*
X107816975Y-35659192D01*
X107870246Y-35495243D01*
X107903500Y-35285287D01*
X107903500Y-35072713D01*
X107870246Y-34862757D01*
X107804557Y-34660588D01*
X107787490Y-34627092D01*
X107774594Y-34558423D01*
X107800870Y-34493682D01*
X107857977Y-34453425D01*
X107897975Y-34446797D01*
X125377794Y-34446797D01*
X125444833Y-34466482D01*
X125490588Y-34519286D01*
X125500532Y-34588444D01*
X125471507Y-34652000D01*
X125453280Y-34669173D01*
X125290480Y-34794092D01*
X125290473Y-34794098D01*
X125105098Y-34979473D01*
X125105092Y-34979480D01*
X124945496Y-35187471D01*
X124814409Y-35414517D01*
X124814404Y-35414528D01*
X124714075Y-35656744D01*
X124646222Y-35909979D01*
X124646220Y-35909990D01*
X124612000Y-36169905D01*
X124612000Y-36801000D01*
X126112000Y-36801000D01*
X126112000Y-37301000D01*
X124612000Y-37301000D01*
X124612000Y-37932094D01*
X124646220Y-38192009D01*
X124646222Y-38192020D01*
X124714075Y-38445255D01*
X124814404Y-38687471D01*
X124814409Y-38687482D01*
X124945496Y-38914528D01*
X125105092Y-39122519D01*
X125105098Y-39122526D01*
X125290473Y-39307901D01*
X125290480Y-39307907D01*
X125498471Y-39467503D01*
X125725517Y-39598590D01*
X125725528Y-39598595D01*
X125967744Y-39698924D01*
X126220979Y-39766777D01*
X126220992Y-39766780D01*
X126362000Y-39785343D01*
X126362000Y-38234012D01*
X126419007Y-38266925D01*
X126546174Y-38301000D01*
X126677826Y-38301000D01*
X126804993Y-38266925D01*
X126862000Y-38234012D01*
X126862000Y-39785342D01*
X127003007Y-39766780D01*
X127003020Y-39766777D01*
X127256255Y-39698924D01*
X127415646Y-39632902D01*
X128811500Y-39632902D01*
X128811500Y-39869097D01*
X128848446Y-40102368D01*
X128921433Y-40326996D01*
X128994916Y-40471213D01*
X129028657Y-40537433D01*
X129167483Y-40728510D01*
X129334490Y-40895517D01*
X129525567Y-41034343D01*
X129624991Y-41085002D01*
X129736003Y-41141566D01*
X129736005Y-41141566D01*
X129736008Y-41141568D01*
X129844579Y-41176845D01*
X129960631Y-41214553D01*
X130193903Y-41251500D01*
X130193908Y-41251500D01*
X132430097Y-41251500D01*
X132663368Y-41214553D01*
X132887992Y-41141568D01*
X133098433Y-41034343D01*
X133289510Y-40895517D01*
X133456517Y-40728510D01*
X133595343Y-40537433D01*
X133702568Y-40326992D01*
X133775553Y-40102368D01*
X133794552Y-39982412D01*
X133812500Y-39869097D01*
X133812500Y-39632902D01*
X133775553Y-39399631D01*
X133702566Y-39175003D01*
X133595342Y-38964566D01*
X133579230Y-38942390D01*
X133456517Y-38773490D01*
X133289510Y-38606483D01*
X133098433Y-38467657D01*
X133054467Y-38445255D01*
X132887996Y-38360433D01*
X132663368Y-38287446D01*
X132430097Y-38250500D01*
X132430092Y-38250500D01*
X130193908Y-38250500D01*
X130193903Y-38250500D01*
X129960631Y-38287446D01*
X129736003Y-38360433D01*
X129525566Y-38467657D01*
X129416550Y-38546862D01*
X129334490Y-38606483D01*
X129334488Y-38606485D01*
X129334487Y-38606485D01*
X129167485Y-38773487D01*
X129167485Y-38773488D01*
X129167483Y-38773490D01*
X129107862Y-38855550D01*
X129028657Y-38964566D01*
X128921433Y-39175003D01*
X128848446Y-39399631D01*
X128811500Y-39632902D01*
X127415646Y-39632902D01*
X127498471Y-39598595D01*
X127498475Y-39598593D01*
X127633478Y-39520649D01*
X127633479Y-39520648D01*
X127725528Y-39467503D01*
X127933519Y-39307907D01*
X127933526Y-39307901D01*
X128118901Y-39122526D01*
X128118907Y-39122519D01*
X128278503Y-38914528D01*
X128409590Y-38687482D01*
X128409595Y-38687471D01*
X128509924Y-38445255D01*
X128577777Y-38192020D01*
X128577779Y-38192009D01*
X128611999Y-37932094D01*
X128612000Y-37932080D01*
X128612000Y-37301000D01*
X127112000Y-37301000D01*
X127112000Y-36801000D01*
X128612000Y-36801000D01*
X128612000Y-36519905D01*
X134012000Y-36519905D01*
X134012000Y-36801000D01*
X135512000Y-36801000D01*
X135512000Y-37301000D01*
X134012000Y-37301000D01*
X134012000Y-37582094D01*
X134046220Y-37842009D01*
X134046222Y-37842020D01*
X134114075Y-38095255D01*
X134214404Y-38337471D01*
X134214409Y-38337482D01*
X134345496Y-38564528D01*
X134505092Y-38772519D01*
X134505098Y-38772526D01*
X134690473Y-38957901D01*
X134690480Y-38957907D01*
X134898471Y-39117503D01*
X135125517Y-39248590D01*
X135125528Y-39248595D01*
X135367744Y-39348924D01*
X135620979Y-39416777D01*
X135620992Y-39416780D01*
X135762000Y-39435343D01*
X135762000Y-37884012D01*
X135819007Y-37916925D01*
X135946174Y-37951000D01*
X136077826Y-37951000D01*
X136204993Y-37916925D01*
X136262000Y-37884012D01*
X136262000Y-39435342D01*
X136403007Y-39416780D01*
X136403020Y-39416777D01*
X136656255Y-39348924D01*
X136898471Y-39248595D01*
X136898482Y-39248590D01*
X137125528Y-39117503D01*
X137333519Y-38957907D01*
X137333526Y-38957901D01*
X137518901Y-38772526D01*
X137518907Y-38772519D01*
X137678503Y-38564528D01*
X137809590Y-38337482D01*
X137809598Y-38337466D01*
X137837150Y-38270949D01*
X137880990Y-38216545D01*
X137947284Y-38194480D01*
X138014984Y-38211759D01*
X138062594Y-38262896D01*
X138071486Y-38286308D01*
X138114075Y-38445255D01*
X138214404Y-38687471D01*
X138214409Y-38687482D01*
X138345496Y-38914528D01*
X138505092Y-39122519D01*
X138505098Y-39122526D01*
X138690473Y-39307901D01*
X138690480Y-39307907D01*
X138898471Y-39467503D01*
X139125517Y-39598590D01*
X139125528Y-39598595D01*
X139367744Y-39698924D01*
X139620979Y-39766777D01*
X139620992Y-39766780D01*
X139762000Y-39785343D01*
X139762000Y-38234012D01*
X139819007Y-38266925D01*
X139946174Y-38301000D01*
X140077826Y-38301000D01*
X140204993Y-38266925D01*
X140262000Y-38234012D01*
X140262000Y-39785342D01*
X140403007Y-39766780D01*
X140403020Y-39766777D01*
X140656255Y-39698924D01*
X140815646Y-39632902D01*
X142211500Y-39632902D01*
X142211500Y-39869097D01*
X142248446Y-40102368D01*
X142321433Y-40326996D01*
X142394916Y-40471213D01*
X142428657Y-40537433D01*
X142567483Y-40728510D01*
X142734490Y-40895517D01*
X142925567Y-41034343D01*
X143024991Y-41085002D01*
X143136003Y-41141566D01*
X143136005Y-41141566D01*
X143136008Y-41141568D01*
X143244579Y-41176845D01*
X143360631Y-41214553D01*
X143593903Y-41251500D01*
X143593908Y-41251500D01*
X145830097Y-41251500D01*
X146063368Y-41214553D01*
X146287992Y-41141568D01*
X146498433Y-41034343D01*
X146689510Y-40895517D01*
X146856517Y-40728510D01*
X146995343Y-40537433D01*
X147102568Y-40326992D01*
X147175553Y-40102368D01*
X147194552Y-39982412D01*
X147212500Y-39869097D01*
X147212500Y-39632902D01*
X147175553Y-39399631D01*
X147102566Y-39175003D01*
X146995342Y-38964566D01*
X146979230Y-38942390D01*
X146856517Y-38773490D01*
X146689510Y-38606483D01*
X146498433Y-38467657D01*
X146454467Y-38445255D01*
X146287996Y-38360433D01*
X146063368Y-38287446D01*
X145830097Y-38250500D01*
X145830092Y-38250500D01*
X143593908Y-38250500D01*
X143593903Y-38250500D01*
X143360631Y-38287446D01*
X143136003Y-38360433D01*
X142925566Y-38467657D01*
X142816550Y-38546862D01*
X142734490Y-38606483D01*
X142734488Y-38606485D01*
X142734487Y-38606485D01*
X142567485Y-38773487D01*
X142567485Y-38773488D01*
X142567483Y-38773490D01*
X142507862Y-38855550D01*
X142428657Y-38964566D01*
X142321433Y-39175003D01*
X142248446Y-39399631D01*
X142211500Y-39632902D01*
X140815646Y-39632902D01*
X140898471Y-39598595D01*
X140898475Y-39598593D01*
X141033478Y-39520649D01*
X141033479Y-39520648D01*
X141125528Y-39467503D01*
X141333519Y-39307907D01*
X141333526Y-39307901D01*
X141518901Y-39122526D01*
X141518907Y-39122519D01*
X141678503Y-38914528D01*
X141809590Y-38687482D01*
X141809595Y-38687471D01*
X141909924Y-38445255D01*
X141977777Y-38192020D01*
X141977779Y-38192009D01*
X142011999Y-37932094D01*
X142012000Y-37932080D01*
X142012000Y-37301000D01*
X140512000Y-37301000D01*
X140512000Y-36801000D01*
X142012000Y-36801000D01*
X142012000Y-36519905D01*
X147412000Y-36519905D01*
X147412000Y-36801000D01*
X148912000Y-36801000D01*
X148912000Y-37301000D01*
X147412000Y-37301000D01*
X147412000Y-37582094D01*
X147446220Y-37842009D01*
X147446222Y-37842020D01*
X147514075Y-38095255D01*
X147614404Y-38337471D01*
X147614409Y-38337482D01*
X147745496Y-38564528D01*
X147905092Y-38772519D01*
X147905098Y-38772526D01*
X148090473Y-38957901D01*
X148090480Y-38957907D01*
X148298471Y-39117503D01*
X148525517Y-39248590D01*
X148525528Y-39248595D01*
X148767744Y-39348924D01*
X149020979Y-39416777D01*
X149020992Y-39416780D01*
X149162000Y-39435343D01*
X149162000Y-37884012D01*
X149219007Y-37916925D01*
X149346174Y-37951000D01*
X149477826Y-37951000D01*
X149604993Y-37916925D01*
X149662000Y-37884012D01*
X149662000Y-39435342D01*
X149803007Y-39416780D01*
X149803020Y-39416777D01*
X150056255Y-39348924D01*
X150298471Y-39248595D01*
X150298482Y-39248590D01*
X150525528Y-39117503D01*
X150733519Y-38957907D01*
X150733526Y-38957901D01*
X150918901Y-38772526D01*
X150918907Y-38772519D01*
X151078503Y-38564528D01*
X151209590Y-38337482D01*
X151209598Y-38337466D01*
X151237150Y-38270949D01*
X151280990Y-38216545D01*
X151347284Y-38194480D01*
X151414984Y-38211759D01*
X151462594Y-38262896D01*
X151471486Y-38286308D01*
X151514075Y-38445255D01*
X151614404Y-38687471D01*
X151614409Y-38687482D01*
X151745496Y-38914528D01*
X151905092Y-39122519D01*
X151905098Y-39122526D01*
X152090473Y-39307901D01*
X152090480Y-39307907D01*
X152298471Y-39467503D01*
X152525517Y-39598590D01*
X152525528Y-39598595D01*
X152767744Y-39698924D01*
X153020979Y-39766777D01*
X153020992Y-39766780D01*
X153162000Y-39785343D01*
X153162000Y-38234012D01*
X153219007Y-38266925D01*
X153346174Y-38301000D01*
X153477826Y-38301000D01*
X153604993Y-38266925D01*
X153662000Y-38234012D01*
X153662000Y-39785342D01*
X153803007Y-39766780D01*
X153803020Y-39766777D01*
X154056255Y-39698924D01*
X154215646Y-39632902D01*
X155611500Y-39632902D01*
X155611500Y-39869097D01*
X155648446Y-40102368D01*
X155721433Y-40326996D01*
X155794916Y-40471213D01*
X155828657Y-40537433D01*
X155967483Y-40728510D01*
X156134490Y-40895517D01*
X156325567Y-41034343D01*
X156424991Y-41085002D01*
X156536003Y-41141566D01*
X156536005Y-41141566D01*
X156536008Y-41141568D01*
X156644579Y-41176845D01*
X156760631Y-41214553D01*
X156993903Y-41251500D01*
X156993908Y-41251500D01*
X159230097Y-41251500D01*
X159463368Y-41214553D01*
X159687992Y-41141568D01*
X159898433Y-41034343D01*
X160089510Y-40895517D01*
X160256517Y-40728510D01*
X160395343Y-40537433D01*
X160502568Y-40326992D01*
X160575553Y-40102368D01*
X160594552Y-39982412D01*
X160612500Y-39869097D01*
X160612500Y-39632902D01*
X160575553Y-39399631D01*
X160502566Y-39175003D01*
X160395342Y-38964566D01*
X160379230Y-38942390D01*
X160256517Y-38773490D01*
X160089510Y-38606483D01*
X159898433Y-38467657D01*
X159854467Y-38445255D01*
X159687996Y-38360433D01*
X159463368Y-38287446D01*
X159230097Y-38250500D01*
X159230092Y-38250500D01*
X156993908Y-38250500D01*
X156993903Y-38250500D01*
X156760631Y-38287446D01*
X156536003Y-38360433D01*
X156325566Y-38467657D01*
X156216550Y-38546862D01*
X156134490Y-38606483D01*
X156134488Y-38606485D01*
X156134487Y-38606485D01*
X155967485Y-38773487D01*
X155967485Y-38773488D01*
X155967483Y-38773490D01*
X155907862Y-38855550D01*
X155828657Y-38964566D01*
X155721433Y-39175003D01*
X155648446Y-39399631D01*
X155611500Y-39632902D01*
X154215646Y-39632902D01*
X154298471Y-39598595D01*
X154298475Y-39598593D01*
X154433478Y-39520649D01*
X154433479Y-39520648D01*
X154525528Y-39467503D01*
X154733519Y-39307907D01*
X154733526Y-39307901D01*
X154918901Y-39122526D01*
X154918907Y-39122519D01*
X155078503Y-38914528D01*
X155209590Y-38687482D01*
X155209595Y-38687471D01*
X155309924Y-38445255D01*
X155377777Y-38192020D01*
X155377779Y-38192009D01*
X155411999Y-37932094D01*
X155412000Y-37932080D01*
X155412000Y-37301000D01*
X153912000Y-37301000D01*
X153912000Y-36801000D01*
X155412000Y-36801000D01*
X155412000Y-36519905D01*
X160812000Y-36519905D01*
X160812000Y-36801000D01*
X162312000Y-36801000D01*
X162312000Y-37301000D01*
X160812000Y-37301000D01*
X160812000Y-37582094D01*
X160846220Y-37842009D01*
X160846222Y-37842020D01*
X160914075Y-38095255D01*
X161014404Y-38337471D01*
X161014409Y-38337482D01*
X161145496Y-38564528D01*
X161305092Y-38772519D01*
X161305098Y-38772526D01*
X161490473Y-38957901D01*
X161490480Y-38957907D01*
X161698471Y-39117503D01*
X161925517Y-39248590D01*
X161925528Y-39248595D01*
X162167744Y-39348924D01*
X162420979Y-39416777D01*
X162420992Y-39416780D01*
X162562000Y-39435343D01*
X162562000Y-37884012D01*
X162619007Y-37916925D01*
X162746174Y-37951000D01*
X162877826Y-37951000D01*
X163004993Y-37916925D01*
X163062000Y-37884012D01*
X163062000Y-39435342D01*
X163203007Y-39416780D01*
X163203020Y-39416777D01*
X163456255Y-39348924D01*
X163698471Y-39248595D01*
X163698482Y-39248590D01*
X163925528Y-39117503D01*
X164133519Y-38957907D01*
X164133526Y-38957901D01*
X164318901Y-38772526D01*
X164318907Y-38772519D01*
X164478503Y-38564528D01*
X164609590Y-38337482D01*
X164609598Y-38337466D01*
X164637150Y-38270949D01*
X164680990Y-38216545D01*
X164747284Y-38194480D01*
X164814984Y-38211759D01*
X164862594Y-38262896D01*
X164871486Y-38286308D01*
X164914075Y-38445255D01*
X165014404Y-38687471D01*
X165014409Y-38687482D01*
X165145496Y-38914528D01*
X165305092Y-39122519D01*
X165305098Y-39122526D01*
X165490473Y-39307901D01*
X165490480Y-39307907D01*
X165698471Y-39467503D01*
X165925517Y-39598590D01*
X165925528Y-39598595D01*
X166167744Y-39698924D01*
X166420979Y-39766777D01*
X166420992Y-39766780D01*
X166562000Y-39785343D01*
X166562000Y-38234012D01*
X166619007Y-38266925D01*
X166746174Y-38301000D01*
X166877826Y-38301000D01*
X167004993Y-38266925D01*
X167062000Y-38234012D01*
X167062000Y-39785343D01*
X167203007Y-39766780D01*
X167203020Y-39766777D01*
X167456255Y-39698924D01*
X167615646Y-39632902D01*
X169011500Y-39632902D01*
X169011500Y-39869097D01*
X169048446Y-40102368D01*
X169121433Y-40326996D01*
X169194916Y-40471213D01*
X169228657Y-40537433D01*
X169367483Y-40728510D01*
X169534490Y-40895517D01*
X169725567Y-41034343D01*
X169824991Y-41085002D01*
X169936003Y-41141566D01*
X169936005Y-41141566D01*
X169936008Y-41141568D01*
X170044579Y-41176845D01*
X170160631Y-41214553D01*
X170393903Y-41251500D01*
X170393908Y-41251500D01*
X172630097Y-41251500D01*
X172863368Y-41214553D01*
X173087992Y-41141568D01*
X173298433Y-41034343D01*
X173489510Y-40895517D01*
X173656517Y-40728510D01*
X173795343Y-40537433D01*
X173902568Y-40326992D01*
X173975553Y-40102368D01*
X173994552Y-39982412D01*
X174012500Y-39869097D01*
X174012500Y-39632902D01*
X173975553Y-39399631D01*
X173902566Y-39175003D01*
X173795342Y-38964566D01*
X173779230Y-38942390D01*
X173656517Y-38773490D01*
X173489510Y-38606483D01*
X173298433Y-38467657D01*
X173254467Y-38445255D01*
X173087996Y-38360433D01*
X172863368Y-38287446D01*
X172630097Y-38250500D01*
X172630092Y-38250500D01*
X170393908Y-38250500D01*
X170393903Y-38250500D01*
X170160631Y-38287446D01*
X169936003Y-38360433D01*
X169725566Y-38467657D01*
X169616550Y-38546862D01*
X169534490Y-38606483D01*
X169534488Y-38606485D01*
X169534487Y-38606485D01*
X169367485Y-38773487D01*
X169367485Y-38773488D01*
X169367483Y-38773490D01*
X169307862Y-38855550D01*
X169228657Y-38964566D01*
X169121433Y-39175003D01*
X169048446Y-39399631D01*
X169011500Y-39632902D01*
X167615646Y-39632902D01*
X167698471Y-39598595D01*
X167698475Y-39598593D01*
X167833478Y-39520649D01*
X167833479Y-39520648D01*
X167925528Y-39467503D01*
X168133519Y-39307907D01*
X168133526Y-39307901D01*
X168318901Y-39122526D01*
X168318907Y-39122519D01*
X168478503Y-38914528D01*
X168609590Y-38687482D01*
X168609595Y-38687471D01*
X168709924Y-38445255D01*
X168777777Y-38192020D01*
X168777779Y-38192009D01*
X168811999Y-37932094D01*
X168812000Y-37932080D01*
X168812000Y-37301000D01*
X167312000Y-37301000D01*
X167312000Y-36801000D01*
X168812000Y-36801000D01*
X168812000Y-36169919D01*
X168811999Y-36169905D01*
X168777779Y-35909990D01*
X168777777Y-35909979D01*
X168709924Y-35656744D01*
X168609595Y-35414528D01*
X168609590Y-35414517D01*
X168478503Y-35187471D01*
X168318907Y-34979480D01*
X168318901Y-34979473D01*
X168133526Y-34794098D01*
X168133519Y-34794092D01*
X167925528Y-34634496D01*
X167698482Y-34503409D01*
X167698471Y-34503404D01*
X167456255Y-34403075D01*
X167203016Y-34335221D01*
X167062000Y-34316654D01*
X167062000Y-35867988D01*
X167004993Y-35835075D01*
X166877826Y-35801000D01*
X166746174Y-35801000D01*
X166619007Y-35835075D01*
X166562000Y-35867988D01*
X166562000Y-34316654D01*
X166561999Y-34316654D01*
X166420983Y-34335221D01*
X166167744Y-34403075D01*
X165925528Y-34503404D01*
X165925517Y-34503409D01*
X165698471Y-34634496D01*
X165490480Y-34794092D01*
X165490473Y-34794098D01*
X165305098Y-34979473D01*
X165305092Y-34979480D01*
X165145496Y-35187471D01*
X165014409Y-35414517D01*
X165014404Y-35414528D01*
X164914076Y-35656742D01*
X164871486Y-35815692D01*
X164835121Y-35875352D01*
X164772274Y-35905881D01*
X164702898Y-35897586D01*
X164649020Y-35853101D01*
X164637150Y-35831050D01*
X164609598Y-35764533D01*
X164609590Y-35764517D01*
X164478503Y-35537471D01*
X164318907Y-35329480D01*
X164318901Y-35329473D01*
X164133526Y-35144098D01*
X164133519Y-35144092D01*
X163925528Y-34984496D01*
X163698482Y-34853409D01*
X163698471Y-34853404D01*
X163456255Y-34753075D01*
X163203016Y-34685221D01*
X163062000Y-34666654D01*
X163062000Y-36217988D01*
X163004993Y-36185075D01*
X162877826Y-36151000D01*
X162746174Y-36151000D01*
X162619007Y-36185075D01*
X162562000Y-36217988D01*
X162562000Y-34666654D01*
X162420983Y-34685221D01*
X162167744Y-34753075D01*
X161925528Y-34853404D01*
X161925517Y-34853409D01*
X161698471Y-34984496D01*
X161490480Y-35144092D01*
X161490473Y-35144098D01*
X161305098Y-35329473D01*
X161305092Y-35329480D01*
X161145496Y-35537471D01*
X161014409Y-35764517D01*
X161014404Y-35764528D01*
X160914075Y-36006744D01*
X160846222Y-36259979D01*
X160846220Y-36259990D01*
X160812000Y-36519905D01*
X155412000Y-36519905D01*
X155412000Y-36169919D01*
X155411999Y-36169905D01*
X155377779Y-35909990D01*
X155377777Y-35909979D01*
X155309924Y-35656744D01*
X155209595Y-35414528D01*
X155209590Y-35414517D01*
X155078503Y-35187471D01*
X154918907Y-34979480D01*
X154918901Y-34979473D01*
X154733526Y-34794098D01*
X154733519Y-34794092D01*
X154525528Y-34634496D01*
X154298482Y-34503409D01*
X154298471Y-34503404D01*
X154056255Y-34403075D01*
X153803016Y-34335221D01*
X153662000Y-34316654D01*
X153662000Y-35867988D01*
X153604993Y-35835075D01*
X153477826Y-35801000D01*
X153346174Y-35801000D01*
X153219007Y-35835075D01*
X153162000Y-35867988D01*
X153162000Y-34316654D01*
X153161999Y-34316654D01*
X153020983Y-34335221D01*
X152767744Y-34403075D01*
X152525528Y-34503404D01*
X152525517Y-34503409D01*
X152298471Y-34634496D01*
X152090480Y-34794092D01*
X152090473Y-34794098D01*
X151905098Y-34979473D01*
X151905092Y-34979480D01*
X151745496Y-35187471D01*
X151614409Y-35414517D01*
X151614404Y-35414528D01*
X151514076Y-35656742D01*
X151471486Y-35815692D01*
X151435121Y-35875352D01*
X151372274Y-35905881D01*
X151302898Y-35897586D01*
X151249020Y-35853101D01*
X151237150Y-35831050D01*
X151209598Y-35764533D01*
X151209590Y-35764517D01*
X151078503Y-35537471D01*
X150918907Y-35329480D01*
X150918901Y-35329473D01*
X150733526Y-35144098D01*
X150733519Y-35144092D01*
X150525528Y-34984496D01*
X150298482Y-34853409D01*
X150298471Y-34853404D01*
X150056255Y-34753075D01*
X149803016Y-34685221D01*
X149662000Y-34666654D01*
X149662000Y-36217988D01*
X149604993Y-36185075D01*
X149477826Y-36151000D01*
X149346174Y-36151000D01*
X149219007Y-36185075D01*
X149162000Y-36217988D01*
X149162000Y-34666654D01*
X149161999Y-34666654D01*
X149020983Y-34685221D01*
X148767744Y-34753075D01*
X148525528Y-34853404D01*
X148525517Y-34853409D01*
X148298471Y-34984496D01*
X148090480Y-35144092D01*
X148090473Y-35144098D01*
X147905098Y-35329473D01*
X147905092Y-35329480D01*
X147745496Y-35537471D01*
X147614409Y-35764517D01*
X147614404Y-35764528D01*
X147514075Y-36006744D01*
X147446222Y-36259979D01*
X147446220Y-36259990D01*
X147412000Y-36519905D01*
X142012000Y-36519905D01*
X142012000Y-36169919D01*
X142011999Y-36169905D01*
X141977779Y-35909990D01*
X141977777Y-35909979D01*
X141909924Y-35656744D01*
X141809595Y-35414528D01*
X141809590Y-35414517D01*
X141678503Y-35187471D01*
X141518907Y-34979480D01*
X141518901Y-34979473D01*
X141333526Y-34794098D01*
X141333519Y-34794092D01*
X141125528Y-34634496D01*
X140898482Y-34503409D01*
X140898471Y-34503404D01*
X140656255Y-34403075D01*
X140403016Y-34335221D01*
X140262000Y-34316654D01*
X140262000Y-35867988D01*
X140204993Y-35835075D01*
X140077826Y-35801000D01*
X139946174Y-35801000D01*
X139819007Y-35835075D01*
X139762000Y-35867988D01*
X139762000Y-34316654D01*
X139620983Y-34335221D01*
X139367744Y-34403075D01*
X139125528Y-34503404D01*
X139125517Y-34503409D01*
X138898471Y-34634496D01*
X138690480Y-34794092D01*
X138690473Y-34794098D01*
X138505098Y-34979473D01*
X138505092Y-34979480D01*
X138345496Y-35187471D01*
X138214409Y-35414517D01*
X138214404Y-35414528D01*
X138114076Y-35656742D01*
X138071486Y-35815692D01*
X138035121Y-35875352D01*
X137972274Y-35905881D01*
X137902898Y-35897586D01*
X137849020Y-35853101D01*
X137837150Y-35831050D01*
X137809598Y-35764533D01*
X137809590Y-35764517D01*
X137678503Y-35537471D01*
X137518907Y-35329480D01*
X137518901Y-35329473D01*
X137333526Y-35144098D01*
X137333519Y-35144092D01*
X137125528Y-34984496D01*
X136898482Y-34853409D01*
X136898471Y-34853404D01*
X136656255Y-34753075D01*
X136403016Y-34685221D01*
X136262000Y-34666654D01*
X136262000Y-36217988D01*
X136204993Y-36185075D01*
X136077826Y-36151000D01*
X135946174Y-36151000D01*
X135819007Y-36185075D01*
X135762000Y-36217988D01*
X135762000Y-34666654D01*
X135761999Y-34666654D01*
X135620983Y-34685221D01*
X135367744Y-34753075D01*
X135125528Y-34853404D01*
X135125517Y-34853409D01*
X134898471Y-34984496D01*
X134690480Y-35144092D01*
X134690473Y-35144098D01*
X134505098Y-35329473D01*
X134505092Y-35329480D01*
X134345496Y-35537471D01*
X134214409Y-35764517D01*
X134214404Y-35764528D01*
X134114075Y-36006744D01*
X134046222Y-36259979D01*
X134046220Y-36259990D01*
X134012000Y-36519905D01*
X128612000Y-36519905D01*
X128612000Y-36169919D01*
X128611999Y-36169905D01*
X128577779Y-35909990D01*
X128577777Y-35909979D01*
X128509924Y-35656744D01*
X128409595Y-35414528D01*
X128409590Y-35414517D01*
X128278503Y-35187471D01*
X128118907Y-34979480D01*
X128118901Y-34979473D01*
X127933526Y-34794098D01*
X127933519Y-34794092D01*
X127770720Y-34669173D01*
X127729517Y-34612745D01*
X127725362Y-34542999D01*
X127759574Y-34482079D01*
X127821291Y-34449326D01*
X127846206Y-34446797D01*
X129205507Y-34446797D01*
X129205508Y-34446796D01*
X129326738Y-34422683D01*
X129407487Y-34389234D01*
X129440936Y-34375380D01*
X129543711Y-34306708D01*
X129631114Y-34219305D01*
X130662600Y-33187819D01*
X130723923Y-33154334D01*
X130750281Y-33151500D01*
X132430097Y-33151500D01*
X132663368Y-33114553D01*
X132728873Y-33093269D01*
X132887992Y-33041568D01*
X133098433Y-32934343D01*
X133289510Y-32795517D01*
X133456517Y-32628510D01*
X133595343Y-32437433D01*
X133702568Y-32226992D01*
X133775553Y-32002368D01*
X133783628Y-31951385D01*
X133812500Y-31769097D01*
X133812500Y-31532902D01*
X133775553Y-31299631D01*
X133741689Y-31195412D01*
X133702568Y-31075008D01*
X133702566Y-31075004D01*
X133702566Y-31075003D01*
X133606042Y-30885565D01*
X133595343Y-30864567D01*
X133456517Y-30673490D01*
X133289510Y-30506483D01*
X133098433Y-30367657D01*
X132887996Y-30260433D01*
X132663368Y-30187446D01*
X132430097Y-30150500D01*
X132430092Y-30150500D01*
X130193908Y-30150500D01*
X130193903Y-30150500D01*
X129960631Y-30187446D01*
X129736003Y-30260433D01*
X129525566Y-30367657D01*
X129416550Y-30446862D01*
X129334490Y-30506483D01*
X129334488Y-30506485D01*
X129334487Y-30506485D01*
X129167485Y-30673487D01*
X129167485Y-30673488D01*
X129167483Y-30673490D01*
X129123242Y-30734382D01*
X129028657Y-30864566D01*
X128921433Y-31075003D01*
X128848446Y-31299631D01*
X128811500Y-31532902D01*
X128811500Y-31769097D01*
X128848446Y-32002368D01*
X128921433Y-32226996D01*
X128970228Y-32322760D01*
X129028657Y-32437433D01*
X129167483Y-32628510D01*
X129167485Y-32628512D01*
X129219596Y-32680623D01*
X129253081Y-32741946D01*
X129248097Y-32811638D01*
X129219596Y-32855985D01*
X128920103Y-33155478D01*
X128858780Y-33188963D01*
X128832422Y-33191797D01*
X107964056Y-33191797D01*
X107897017Y-33172112D01*
X107851262Y-33119308D01*
X107841318Y-33050150D01*
X107846125Y-33029479D01*
X107870246Y-32955243D01*
X107903500Y-32745287D01*
X107903500Y-32532713D01*
X107870246Y-32322757D01*
X107804557Y-32120588D01*
X107804554Y-32120582D01*
X107786320Y-32084794D01*
X107773424Y-32016125D01*
X107799701Y-31951385D01*
X107856807Y-31911128D01*
X107896805Y-31904500D01*
X119787804Y-31904500D01*
X119787805Y-31904499D01*
X119909035Y-31880386D01*
X119989784Y-31846937D01*
X120023233Y-31833083D01*
X120126008Y-31764411D01*
X120213411Y-31677008D01*
X120944054Y-30946364D01*
X121005375Y-30912881D01*
X121007541Y-30912430D01*
X121037369Y-30906496D01*
X121142602Y-30885564D01*
X121291468Y-30823903D01*
X121425445Y-30734382D01*
X125095382Y-27064445D01*
X125184902Y-26930469D01*
X125194625Y-26906996D01*
X125206815Y-26877567D01*
X125206815Y-26877566D01*
X125246565Y-26781602D01*
X125278000Y-26623566D01*
X125278000Y-26129777D01*
X125297685Y-26062738D01*
X125350489Y-26016983D01*
X125419647Y-26007039D01*
X125477486Y-26031401D01*
X125498471Y-26047503D01*
X125725517Y-26178590D01*
X125725528Y-26178595D01*
X125967744Y-26278924D01*
X126220979Y-26346777D01*
X126220992Y-26346780D01*
X126362000Y-26365343D01*
X126362000Y-24814012D01*
X126419007Y-24846925D01*
X126546174Y-24881000D01*
X126677826Y-24881000D01*
X126804993Y-24846925D01*
X126862000Y-24814012D01*
X126862000Y-26365342D01*
X127003007Y-26346780D01*
X127003020Y-26346777D01*
X127256255Y-26278924D01*
X127415646Y-26212902D01*
X128811500Y-26212902D01*
X128811500Y-26449097D01*
X128848446Y-26682368D01*
X128921433Y-26906996D01*
X129001658Y-27064444D01*
X129028657Y-27117433D01*
X129167483Y-27308510D01*
X129334490Y-27475517D01*
X129525567Y-27614343D01*
X129624991Y-27665002D01*
X129736003Y-27721566D01*
X129736005Y-27721566D01*
X129736008Y-27721568D01*
X129856412Y-27760689D01*
X129960631Y-27794553D01*
X130193903Y-27831500D01*
X130193908Y-27831500D01*
X132430097Y-27831500D01*
X132663368Y-27794553D01*
X132887992Y-27721568D01*
X133098433Y-27614343D01*
X133289510Y-27475517D01*
X133456517Y-27308510D01*
X133595343Y-27117433D01*
X133702568Y-26906992D01*
X133775553Y-26682368D01*
X133776053Y-26679213D01*
X133812500Y-26449097D01*
X133812500Y-26212902D01*
X133775553Y-25979631D01*
X133702566Y-25755003D01*
X133616458Y-25586008D01*
X133595343Y-25544567D01*
X133456517Y-25353490D01*
X133289510Y-25186483D01*
X133098433Y-25047657D01*
X133054467Y-25025255D01*
X132887996Y-24940433D01*
X132663368Y-24867446D01*
X132430097Y-24830500D01*
X132430092Y-24830500D01*
X130193908Y-24830500D01*
X130193903Y-24830500D01*
X129960631Y-24867446D01*
X129736003Y-24940433D01*
X129525566Y-25047657D01*
X129418720Y-25125286D01*
X129334490Y-25186483D01*
X129334488Y-25186485D01*
X129334487Y-25186485D01*
X129167485Y-25353487D01*
X129167485Y-25353488D01*
X129167483Y-25353490D01*
X129134279Y-25399191D01*
X129028657Y-25544566D01*
X128921433Y-25755003D01*
X128848446Y-25979631D01*
X128811500Y-26212902D01*
X127415646Y-26212902D01*
X127498471Y-26178595D01*
X127498475Y-26178593D01*
X127633478Y-26100649D01*
X127633479Y-26100648D01*
X127725528Y-26047503D01*
X127933519Y-25887907D01*
X127933526Y-25887901D01*
X128118901Y-25702526D01*
X128118907Y-25702519D01*
X128278503Y-25494528D01*
X128409590Y-25267482D01*
X128409595Y-25267471D01*
X128509924Y-25025255D01*
X128577777Y-24772020D01*
X128577779Y-24772009D01*
X128611999Y-24512094D01*
X128612000Y-24512080D01*
X128612000Y-23881000D01*
X127112000Y-23881000D01*
X127112000Y-23381000D01*
X128612000Y-23381000D01*
X128612000Y-23099905D01*
X134012000Y-23099905D01*
X134012000Y-23381000D01*
X135512000Y-23381000D01*
X135512000Y-23881000D01*
X134012000Y-23881000D01*
X134012000Y-24162094D01*
X134046220Y-24422009D01*
X134046222Y-24422020D01*
X134114075Y-24675255D01*
X134214404Y-24917471D01*
X134214409Y-24917482D01*
X134345496Y-25144528D01*
X134505092Y-25352519D01*
X134505098Y-25352526D01*
X134690473Y-25537901D01*
X134690480Y-25537907D01*
X134898471Y-25697503D01*
X135125517Y-25828590D01*
X135125528Y-25828595D01*
X135367744Y-25928924D01*
X135620979Y-25996777D01*
X135620992Y-25996780D01*
X135762000Y-26015343D01*
X135762000Y-24464012D01*
X135819007Y-24496925D01*
X135946174Y-24531000D01*
X136077826Y-24531000D01*
X136204993Y-24496925D01*
X136262000Y-24464012D01*
X136262000Y-26015343D01*
X136403007Y-25996780D01*
X136403020Y-25996777D01*
X136656255Y-25928924D01*
X136898471Y-25828595D01*
X136898482Y-25828590D01*
X137125528Y-25697503D01*
X137333519Y-25537907D01*
X137333526Y-25537901D01*
X137518901Y-25352526D01*
X137518907Y-25352519D01*
X137678503Y-25144528D01*
X137809590Y-24917482D01*
X137809598Y-24917466D01*
X137837150Y-24850949D01*
X137880990Y-24796545D01*
X137947284Y-24774480D01*
X138014984Y-24791759D01*
X138062594Y-24842896D01*
X138071486Y-24866308D01*
X138114075Y-25025255D01*
X138214404Y-25267471D01*
X138214409Y-25267482D01*
X138345496Y-25494528D01*
X138505092Y-25702519D01*
X138505098Y-25702526D01*
X138690473Y-25887901D01*
X138690480Y-25887907D01*
X138898471Y-26047503D01*
X139125517Y-26178590D01*
X139125528Y-26178595D01*
X139367744Y-26278924D01*
X139620979Y-26346777D01*
X139620992Y-26346780D01*
X139762000Y-26365343D01*
X139762000Y-24814012D01*
X139819007Y-24846925D01*
X139946174Y-24881000D01*
X140077826Y-24881000D01*
X140204993Y-24846925D01*
X140262000Y-24814012D01*
X140262000Y-26365343D01*
X140403007Y-26346780D01*
X140403020Y-26346777D01*
X140656255Y-26278924D01*
X140815646Y-26212902D01*
X142211500Y-26212902D01*
X142211500Y-26449097D01*
X142248446Y-26682368D01*
X142321433Y-26906996D01*
X142401658Y-27064444D01*
X142428657Y-27117433D01*
X142567483Y-27308510D01*
X142734490Y-27475517D01*
X142925567Y-27614343D01*
X143024991Y-27665002D01*
X143136003Y-27721566D01*
X143136005Y-27721566D01*
X143136008Y-27721568D01*
X143256412Y-27760689D01*
X143360631Y-27794553D01*
X143593903Y-27831500D01*
X143593908Y-27831500D01*
X145830097Y-27831500D01*
X146063368Y-27794553D01*
X146287992Y-27721568D01*
X146498433Y-27614343D01*
X146689510Y-27475517D01*
X146856517Y-27308510D01*
X146995343Y-27117433D01*
X147102568Y-26906992D01*
X147175553Y-26682368D01*
X147176053Y-26679213D01*
X147212500Y-26449097D01*
X147212500Y-26212902D01*
X147175553Y-25979631D01*
X147102566Y-25755003D01*
X147016458Y-25586008D01*
X146995343Y-25544567D01*
X146856517Y-25353490D01*
X146689510Y-25186483D01*
X146498433Y-25047657D01*
X146454467Y-25025255D01*
X146287996Y-24940433D01*
X146063368Y-24867446D01*
X145830097Y-24830500D01*
X145830092Y-24830500D01*
X143593908Y-24830500D01*
X143593903Y-24830500D01*
X143360631Y-24867446D01*
X143136003Y-24940433D01*
X142925566Y-25047657D01*
X142818720Y-25125286D01*
X142734490Y-25186483D01*
X142734488Y-25186485D01*
X142734487Y-25186485D01*
X142567485Y-25353487D01*
X142567485Y-25353488D01*
X142567483Y-25353490D01*
X142534279Y-25399191D01*
X142428657Y-25544566D01*
X142321433Y-25755003D01*
X142248446Y-25979631D01*
X142211500Y-26212902D01*
X140815646Y-26212902D01*
X140898471Y-26178595D01*
X140898475Y-26178593D01*
X141033478Y-26100649D01*
X141033479Y-26100648D01*
X141125528Y-26047503D01*
X141333519Y-25887907D01*
X141333526Y-25887901D01*
X141518901Y-25702526D01*
X141518907Y-25702519D01*
X141678503Y-25494528D01*
X141809590Y-25267482D01*
X141809595Y-25267471D01*
X141909924Y-25025255D01*
X141977777Y-24772020D01*
X141977779Y-24772009D01*
X142011999Y-24512094D01*
X142012000Y-24512080D01*
X142012000Y-23881000D01*
X140512000Y-23881000D01*
X140512000Y-23381000D01*
X142012000Y-23381000D01*
X142012000Y-23099905D01*
X147412000Y-23099905D01*
X147412000Y-23381000D01*
X148912000Y-23381000D01*
X148912000Y-23881000D01*
X147412000Y-23881000D01*
X147412000Y-24162094D01*
X147446220Y-24422009D01*
X147446222Y-24422020D01*
X147514075Y-24675255D01*
X147614404Y-24917471D01*
X147614409Y-24917482D01*
X147745496Y-25144528D01*
X147905092Y-25352519D01*
X147905098Y-25352526D01*
X148090473Y-25537901D01*
X148090480Y-25537907D01*
X148298471Y-25697503D01*
X148525517Y-25828590D01*
X148525528Y-25828595D01*
X148767744Y-25928924D01*
X149020979Y-25996777D01*
X149020992Y-25996780D01*
X149162000Y-26015343D01*
X149162000Y-24464012D01*
X149219007Y-24496925D01*
X149346174Y-24531000D01*
X149477826Y-24531000D01*
X149604993Y-24496925D01*
X149662000Y-24464012D01*
X149662000Y-26015342D01*
X149803007Y-25996780D01*
X149803020Y-25996777D01*
X150056255Y-25928924D01*
X150298471Y-25828595D01*
X150298482Y-25828590D01*
X150525528Y-25697503D01*
X150733519Y-25537907D01*
X150733526Y-25537901D01*
X150918901Y-25352526D01*
X150918907Y-25352519D01*
X151078503Y-25144528D01*
X151209590Y-24917482D01*
X151209598Y-24917466D01*
X151237150Y-24850949D01*
X151280990Y-24796545D01*
X151347284Y-24774480D01*
X151414984Y-24791759D01*
X151462594Y-24842896D01*
X151471486Y-24866308D01*
X151514075Y-25025255D01*
X151614404Y-25267471D01*
X151614409Y-25267482D01*
X151745496Y-25494528D01*
X151905092Y-25702519D01*
X151905098Y-25702526D01*
X152090473Y-25887901D01*
X152090480Y-25887907D01*
X152298471Y-26047503D01*
X152525517Y-26178590D01*
X152525528Y-26178595D01*
X152767744Y-26278924D01*
X153020979Y-26346777D01*
X153020992Y-26346780D01*
X153162000Y-26365343D01*
X153162000Y-24814012D01*
X153219007Y-24846925D01*
X153346174Y-24881000D01*
X153477826Y-24881000D01*
X153604993Y-24846925D01*
X153662000Y-24814012D01*
X153662000Y-26365342D01*
X153803007Y-26346780D01*
X153803020Y-26346777D01*
X154056255Y-26278924D01*
X154298471Y-26178595D01*
X154298482Y-26178590D01*
X154525528Y-26047503D01*
X154733519Y-25887907D01*
X154733526Y-25887901D01*
X154918901Y-25702526D01*
X154918907Y-25702519D01*
X155078503Y-25494528D01*
X155209590Y-25267482D01*
X155209595Y-25267471D01*
X155309924Y-25025255D01*
X155377777Y-24772020D01*
X155377779Y-24772009D01*
X155411999Y-24512094D01*
X155412000Y-24512080D01*
X155412000Y-23881000D01*
X153912000Y-23881000D01*
X153912000Y-23381000D01*
X155412000Y-23381000D01*
X155412000Y-22749919D01*
X155411999Y-22749905D01*
X155377779Y-22489990D01*
X155377777Y-22489979D01*
X155309924Y-22236744D01*
X155209595Y-21994528D01*
X155209590Y-21994517D01*
X155078503Y-21767471D01*
X154918907Y-21559480D01*
X154918901Y-21559473D01*
X154733526Y-21374098D01*
X154733519Y-21374092D01*
X154525528Y-21214496D01*
X154298482Y-21083409D01*
X154298471Y-21083404D01*
X154056255Y-20983075D01*
X153803016Y-20915221D01*
X153662000Y-20896654D01*
X153662000Y-22447988D01*
X153604993Y-22415075D01*
X153477826Y-22381000D01*
X153346174Y-22381000D01*
X153219007Y-22415075D01*
X153162000Y-22447988D01*
X153162000Y-20896654D01*
X153020983Y-20915221D01*
X152767744Y-20983075D01*
X152525528Y-21083404D01*
X152525517Y-21083409D01*
X152298471Y-21214496D01*
X152090480Y-21374092D01*
X152090473Y-21374098D01*
X151905098Y-21559473D01*
X151905092Y-21559480D01*
X151745496Y-21767471D01*
X151614409Y-21994517D01*
X151614404Y-21994528D01*
X151514076Y-22236742D01*
X151471486Y-22395692D01*
X151435121Y-22455352D01*
X151372274Y-22485881D01*
X151302898Y-22477586D01*
X151249020Y-22433101D01*
X151237150Y-22411050D01*
X151209598Y-22344533D01*
X151209590Y-22344517D01*
X151078503Y-22117471D01*
X150918907Y-21909480D01*
X150918901Y-21909473D01*
X150733526Y-21724098D01*
X150733519Y-21724092D01*
X150525528Y-21564496D01*
X150298482Y-21433409D01*
X150298471Y-21433404D01*
X150056255Y-21333075D01*
X149803016Y-21265221D01*
X149662000Y-21246654D01*
X149662000Y-22797988D01*
X149604993Y-22765075D01*
X149477826Y-22731000D01*
X149346174Y-22731000D01*
X149219007Y-22765075D01*
X149162000Y-22797988D01*
X149162000Y-21246654D01*
X149161999Y-21246654D01*
X149020983Y-21265221D01*
X148767744Y-21333075D01*
X148525528Y-21433404D01*
X148525517Y-21433409D01*
X148298471Y-21564496D01*
X148090480Y-21724092D01*
X148090473Y-21724098D01*
X147905098Y-21909473D01*
X147905092Y-21909480D01*
X147745496Y-22117471D01*
X147614409Y-22344517D01*
X147614404Y-22344528D01*
X147514075Y-22586744D01*
X147446222Y-22839979D01*
X147446220Y-22839990D01*
X147412000Y-23099905D01*
X142012000Y-23099905D01*
X142012000Y-22749919D01*
X142011999Y-22749905D01*
X141977779Y-22489990D01*
X141977777Y-22489979D01*
X141909924Y-22236744D01*
X141809595Y-21994528D01*
X141809590Y-21994517D01*
X141678503Y-21767471D01*
X141518907Y-21559480D01*
X141518901Y-21559473D01*
X141333526Y-21374098D01*
X141333519Y-21374092D01*
X141125528Y-21214496D01*
X140898482Y-21083409D01*
X140898471Y-21083404D01*
X140656255Y-20983075D01*
X140403016Y-20915221D01*
X140262000Y-20896654D01*
X140262000Y-22447988D01*
X140204993Y-22415075D01*
X140077826Y-22381000D01*
X139946174Y-22381000D01*
X139819007Y-22415075D01*
X139762000Y-22447988D01*
X139762000Y-20896654D01*
X139761999Y-20896654D01*
X139620983Y-20915221D01*
X139367744Y-20983075D01*
X139125528Y-21083404D01*
X139125517Y-21083409D01*
X138898471Y-21214496D01*
X138690480Y-21374092D01*
X138690473Y-21374098D01*
X138505098Y-21559473D01*
X138505092Y-21559480D01*
X138345496Y-21767471D01*
X138214409Y-21994517D01*
X138214404Y-21994528D01*
X138114076Y-22236742D01*
X138071486Y-22395692D01*
X138035121Y-22455352D01*
X137972274Y-22485881D01*
X137902898Y-22477586D01*
X137849020Y-22433101D01*
X137837150Y-22411050D01*
X137809598Y-22344533D01*
X137809590Y-22344517D01*
X137678503Y-22117471D01*
X137518907Y-21909480D01*
X137518901Y-21909473D01*
X137333526Y-21724098D01*
X137333519Y-21724092D01*
X137125528Y-21564496D01*
X136898482Y-21433409D01*
X136898471Y-21433404D01*
X136656255Y-21333075D01*
X136403016Y-21265221D01*
X136262000Y-21246654D01*
X136262000Y-22797988D01*
X136204993Y-22765075D01*
X136077826Y-22731000D01*
X135946174Y-22731000D01*
X135819007Y-22765075D01*
X135762000Y-22797988D01*
X135762000Y-21246654D01*
X135620983Y-21265221D01*
X135367744Y-21333075D01*
X135125528Y-21433404D01*
X135125517Y-21433409D01*
X134898471Y-21564496D01*
X134690480Y-21724092D01*
X134690473Y-21724098D01*
X134505098Y-21909473D01*
X134505092Y-21909480D01*
X134345496Y-22117471D01*
X134214409Y-22344517D01*
X134214404Y-22344528D01*
X134114075Y-22586744D01*
X134046222Y-22839979D01*
X134046220Y-22839990D01*
X134012000Y-23099905D01*
X128612000Y-23099905D01*
X128612000Y-22749919D01*
X128611999Y-22749905D01*
X128577779Y-22489990D01*
X128577777Y-22489979D01*
X128509924Y-22236744D01*
X128409595Y-21994528D01*
X128409590Y-21994517D01*
X128278503Y-21767471D01*
X128118907Y-21559480D01*
X128118901Y-21559473D01*
X127933526Y-21374098D01*
X127933519Y-21374092D01*
X127725528Y-21214496D01*
X127498482Y-21083409D01*
X127498471Y-21083404D01*
X127256255Y-20983075D01*
X127003016Y-20915221D01*
X126862000Y-20896654D01*
X126862000Y-22447988D01*
X126804993Y-22415075D01*
X126677826Y-22381000D01*
X126546174Y-22381000D01*
X126419007Y-22415075D01*
X126362000Y-22447988D01*
X126362000Y-20896654D01*
X126220983Y-20915221D01*
X126070517Y-20955538D01*
X126000667Y-20953875D01*
X125942805Y-20914712D01*
X125915301Y-20850484D01*
X125926888Y-20781582D01*
X125950740Y-20748085D01*
X127613507Y-19085319D01*
X127674830Y-19051834D01*
X127701188Y-19049000D01*
X128988411Y-19049000D01*
X129055450Y-19068685D01*
X129088727Y-19100112D01*
X129167483Y-19208510D01*
X129334490Y-19375517D01*
X129525567Y-19514343D01*
X129624991Y-19565002D01*
X129736003Y-19621566D01*
X129736005Y-19621566D01*
X129736008Y-19621568D01*
X129856412Y-19660689D01*
X129960631Y-19694553D01*
X130193903Y-19731500D01*
X130193908Y-19731500D01*
X132430097Y-19731500D01*
X132663368Y-19694553D01*
X132680458Y-19689000D01*
X132887992Y-19621568D01*
X133098433Y-19514343D01*
X133289510Y-19375517D01*
X133456517Y-19208510D01*
X133595343Y-19017433D01*
X133702568Y-18806992D01*
X133775553Y-18582368D01*
X133802320Y-18413368D01*
X133812500Y-18349097D01*
X133812500Y-18112902D01*
X142211500Y-18112902D01*
X142211500Y-18349097D01*
X142248446Y-18582368D01*
X142321433Y-18806996D01*
X142428657Y-19017433D01*
X142567483Y-19208510D01*
X142734490Y-19375517D01*
X142925567Y-19514343D01*
X143024991Y-19565002D01*
X143136003Y-19621566D01*
X143136005Y-19621566D01*
X143136008Y-19621568D01*
X143256412Y-19660689D01*
X143360631Y-19694553D01*
X143593903Y-19731500D01*
X143593908Y-19731500D01*
X145830097Y-19731500D01*
X146063368Y-19694553D01*
X146080458Y-19689000D01*
X146287992Y-19621568D01*
X146498433Y-19514343D01*
X146689510Y-19375517D01*
X146856517Y-19208510D01*
X146995343Y-19017433D01*
X147102568Y-18806992D01*
X147175553Y-18582368D01*
X147202320Y-18413368D01*
X147212500Y-18349097D01*
X147212500Y-18112902D01*
X147175553Y-17879631D01*
X147120291Y-17709555D01*
X147102568Y-17655008D01*
X147102566Y-17655005D01*
X147102566Y-17655003D01*
X147046002Y-17543991D01*
X146995343Y-17444567D01*
X146856517Y-17253490D01*
X146689510Y-17086483D01*
X146498433Y-16947657D01*
X146287996Y-16840433D01*
X146063368Y-16767446D01*
X145830097Y-16730500D01*
X145830092Y-16730500D01*
X143593908Y-16730500D01*
X143593903Y-16730500D01*
X143360631Y-16767446D01*
X143136003Y-16840433D01*
X142925566Y-16947657D01*
X142849950Y-17002596D01*
X142734490Y-17086483D01*
X142734488Y-17086485D01*
X142734487Y-17086485D01*
X142567485Y-17253487D01*
X142567485Y-17253488D01*
X142567483Y-17253490D01*
X142551444Y-17275566D01*
X142428657Y-17444566D01*
X142321433Y-17655003D01*
X142248446Y-17879631D01*
X142211500Y-18112902D01*
X133812500Y-18112902D01*
X133775553Y-17879631D01*
X133720291Y-17709555D01*
X133702568Y-17655008D01*
X133702566Y-17655005D01*
X133702566Y-17655003D01*
X133646002Y-17543991D01*
X133595343Y-17444567D01*
X133456517Y-17253490D01*
X133289510Y-17086483D01*
X133098433Y-16947657D01*
X132887996Y-16840433D01*
X132663368Y-16767446D01*
X132430097Y-16730500D01*
X132430092Y-16730500D01*
X130193908Y-16730500D01*
X130193903Y-16730500D01*
X129960631Y-16767446D01*
X129736003Y-16840433D01*
X129525566Y-16947657D01*
X129449950Y-17002596D01*
X129334490Y-17086483D01*
X129334488Y-17086485D01*
X129334487Y-17086485D01*
X129167485Y-17253487D01*
X129167485Y-17253488D01*
X129167483Y-17253490D01*
X129130988Y-17303721D01*
X129088729Y-17361886D01*
X129033399Y-17404551D01*
X128988411Y-17413000D01*
X127230429Y-17413000D01*
X127072405Y-17444433D01*
X127072393Y-17444436D01*
X126923536Y-17506094D01*
X126923534Y-17506095D01*
X126850249Y-17555063D01*
X126850246Y-17555065D01*
X126843219Y-17559761D01*
X126789555Y-17595618D01*
X126675618Y-17709555D01*
X126675616Y-17709557D01*
X126672986Y-17712186D01*
X126672978Y-17712194D01*
X123824620Y-20560551D01*
X123824617Y-20560555D01*
X123735100Y-20694525D01*
X123735093Y-20694538D01*
X123673436Y-20843393D01*
X123673433Y-20843405D01*
X123642000Y-21001429D01*
X123642000Y-21415276D01*
X123622315Y-21482315D01*
X123569511Y-21528070D01*
X123500353Y-21538014D01*
X123442514Y-21513652D01*
X123288528Y-21395496D01*
X123061482Y-21264409D01*
X123061471Y-21264404D01*
X122819255Y-21164075D01*
X122566016Y-21096221D01*
X122425000Y-21077654D01*
X122425000Y-22628988D01*
X122367993Y-22596075D01*
X122240826Y-22562000D01*
X122109174Y-22562000D01*
X121982007Y-22596075D01*
X121925000Y-22628988D01*
X121925000Y-21077654D01*
X121924999Y-21077654D01*
X121783983Y-21096221D01*
X121530744Y-21164075D01*
X121288528Y-21264404D01*
X121288517Y-21264409D01*
X121061471Y-21395496D01*
X120853480Y-21555092D01*
X120853473Y-21555098D01*
X120668098Y-21740473D01*
X120668092Y-21740480D01*
X120508496Y-21948471D01*
X120377409Y-22175517D01*
X120377404Y-22175528D01*
X120277075Y-22417744D01*
X120209222Y-22670979D01*
X120209220Y-22670990D01*
X120175000Y-22930905D01*
X120175000Y-23212000D01*
X121675000Y-23212000D01*
X121675000Y-23712000D01*
X120175000Y-23712000D01*
X120175000Y-23993094D01*
X120209220Y-24253009D01*
X120209222Y-24253020D01*
X120277075Y-24506255D01*
X120377404Y-24748471D01*
X120377409Y-24748482D01*
X120508496Y-24975528D01*
X120668092Y-25183519D01*
X120668098Y-25183526D01*
X120853473Y-25368901D01*
X120853480Y-25368907D01*
X121061471Y-25528503D01*
X121288517Y-25659590D01*
X121288528Y-25659595D01*
X121530744Y-25759924D01*
X121783979Y-25827777D01*
X121783992Y-25827780D01*
X121925000Y-25846343D01*
X121925000Y-24295012D01*
X121982007Y-24327925D01*
X122109174Y-24362000D01*
X122240826Y-24362000D01*
X122367993Y-24327925D01*
X122425000Y-24295012D01*
X122425000Y-25846342D01*
X122566007Y-25827780D01*
X122566020Y-25827777D01*
X122819255Y-25759924D01*
X123061471Y-25659595D01*
X123061482Y-25659590D01*
X123288528Y-25528503D01*
X123442514Y-25410347D01*
X123507683Y-25385153D01*
X123576128Y-25399191D01*
X123626117Y-25448005D01*
X123642000Y-25508723D01*
X123642000Y-26152810D01*
X123622315Y-26219849D01*
X123605681Y-26240491D01*
X120268620Y-29577551D01*
X120268617Y-29577555D01*
X120179098Y-29711528D01*
X120179097Y-29711531D01*
X120117436Y-29860396D01*
X120117434Y-29860402D01*
X120090569Y-29995459D01*
X120058183Y-30057369D01*
X120056633Y-30058947D01*
X119502400Y-30613181D01*
X119441077Y-30646666D01*
X119414719Y-30649500D01*
X107964802Y-30649500D01*
X107897763Y-30629815D01*
X107852008Y-30577011D01*
X107842064Y-30507853D01*
X107846871Y-30487182D01*
X107870246Y-30415243D01*
X107903500Y-30205287D01*
X107903500Y-29992713D01*
X107901435Y-29979677D01*
X107910389Y-29910385D01*
X107936224Y-29872601D01*
X110490382Y-27318445D01*
X110579902Y-27184468D01*
X110607669Y-27117433D01*
X110641565Y-27035602D01*
X110667147Y-26906992D01*
X110673000Y-26877567D01*
X110673000Y-24986963D01*
X110692685Y-24919924D01*
X110745489Y-24874169D01*
X110814647Y-24864225D01*
X110878203Y-24893250D01*
X110911561Y-24939511D01*
X110977401Y-25098466D01*
X110977409Y-25098482D01*
X111108496Y-25325528D01*
X111268092Y-25533519D01*
X111268098Y-25533526D01*
X111453473Y-25718901D01*
X111453480Y-25718907D01*
X111661471Y-25878503D01*
X111888517Y-26009590D01*
X111888528Y-26009595D01*
X112130744Y-26109924D01*
X112383979Y-26177777D01*
X112383992Y-26177780D01*
X112525000Y-26196343D01*
X112525000Y-24645012D01*
X112582007Y-24677925D01*
X112709174Y-24712000D01*
X112840826Y-24712000D01*
X112967993Y-24677925D01*
X113025000Y-24645012D01*
X113025000Y-26196342D01*
X113166007Y-26177780D01*
X113166020Y-26177777D01*
X113419255Y-26109924D01*
X113578646Y-26043902D01*
X114974500Y-26043902D01*
X114974500Y-26280097D01*
X115011446Y-26513368D01*
X115084433Y-26737996D01*
X115155548Y-26877566D01*
X115191657Y-26948433D01*
X115330483Y-27139510D01*
X115497490Y-27306517D01*
X115688567Y-27445343D01*
X115747781Y-27475514D01*
X115899003Y-27552566D01*
X115899005Y-27552566D01*
X115899008Y-27552568D01*
X116019360Y-27591673D01*
X116123631Y-27625553D01*
X116356903Y-27662500D01*
X116356908Y-27662500D01*
X118593097Y-27662500D01*
X118826368Y-27625553D01*
X119050992Y-27552568D01*
X119261433Y-27445343D01*
X119452510Y-27306517D01*
X119619517Y-27139510D01*
X119758343Y-26948433D01*
X119865568Y-26737992D01*
X119938553Y-26513368D01*
X119947295Y-26458173D01*
X119975500Y-26280097D01*
X119975500Y-26043902D01*
X119938553Y-25810631D01*
X119893833Y-25672999D01*
X119865568Y-25586008D01*
X119865566Y-25586005D01*
X119865566Y-25586003D01*
X119758342Y-25375566D01*
X119742303Y-25353490D01*
X119619517Y-25184490D01*
X119452510Y-25017483D01*
X119261433Y-24878657D01*
X119207053Y-24850949D01*
X119050996Y-24771433D01*
X118826368Y-24698446D01*
X118593097Y-24661500D01*
X118593092Y-24661500D01*
X116356908Y-24661500D01*
X116356903Y-24661500D01*
X116123631Y-24698446D01*
X115899003Y-24771433D01*
X115688566Y-24878657D01*
X115641693Y-24912713D01*
X115497490Y-25017483D01*
X115497488Y-25017485D01*
X115497487Y-25017485D01*
X115330485Y-25184487D01*
X115330485Y-25184488D01*
X115330483Y-25184490D01*
X115270862Y-25266550D01*
X115191657Y-25375566D01*
X115084433Y-25586003D01*
X115011446Y-25810631D01*
X114974500Y-26043902D01*
X113578646Y-26043902D01*
X113661471Y-26009595D01*
X113661475Y-26009593D01*
X113796478Y-25931649D01*
X113796479Y-25931648D01*
X113888528Y-25878503D01*
X114096519Y-25718907D01*
X114096526Y-25718901D01*
X114281901Y-25533526D01*
X114281907Y-25533519D01*
X114441503Y-25325528D01*
X114572590Y-25098482D01*
X114572595Y-25098471D01*
X114672924Y-24856255D01*
X114740777Y-24603020D01*
X114740779Y-24603009D01*
X114774999Y-24343094D01*
X114775000Y-24343080D01*
X114775000Y-23712000D01*
X113275000Y-23712000D01*
X113275000Y-23212000D01*
X114775000Y-23212000D01*
X114775000Y-22580919D01*
X114774999Y-22580905D01*
X114740779Y-22320990D01*
X114740777Y-22320979D01*
X114672924Y-22067744D01*
X114572595Y-21825528D01*
X114572590Y-21825517D01*
X114441503Y-21598471D01*
X114281907Y-21390480D01*
X114281901Y-21390473D01*
X114096526Y-21205098D01*
X114096519Y-21205092D01*
X113888528Y-21045496D01*
X113661482Y-20914409D01*
X113661471Y-20914404D01*
X113419255Y-20814075D01*
X113166016Y-20746221D01*
X113025000Y-20727654D01*
X113025000Y-22278988D01*
X112967993Y-22246075D01*
X112840826Y-22212000D01*
X112709174Y-22212000D01*
X112582007Y-22246075D01*
X112525000Y-22278988D01*
X112525000Y-20727654D01*
X112524999Y-20727654D01*
X112383983Y-20746221D01*
X112130744Y-20814075D01*
X111888528Y-20914404D01*
X111888517Y-20914409D01*
X111661471Y-21045496D01*
X111453480Y-21205092D01*
X111453473Y-21205098D01*
X111268098Y-21390473D01*
X111268092Y-21390480D01*
X111108496Y-21598471D01*
X110977409Y-21825517D01*
X110977404Y-21825528D01*
X110911561Y-21984489D01*
X110867720Y-22038892D01*
X110801426Y-22060957D01*
X110733727Y-22043678D01*
X110686116Y-21992541D01*
X110673000Y-21937036D01*
X110673000Y-20202188D01*
X110692685Y-20135149D01*
X110709319Y-20114507D01*
X112879924Y-17943902D01*
X114974500Y-17943902D01*
X114974500Y-18180097D01*
X115011446Y-18413368D01*
X115084433Y-18637996D01*
X115170542Y-18806992D01*
X115191657Y-18848433D01*
X115330483Y-19039510D01*
X115497490Y-19206517D01*
X115688567Y-19345343D01*
X115744863Y-19374027D01*
X115899003Y-19452566D01*
X115899005Y-19452566D01*
X115899008Y-19452568D01*
X115962122Y-19473075D01*
X116123631Y-19525553D01*
X116356903Y-19562500D01*
X116356908Y-19562500D01*
X118593097Y-19562500D01*
X118826368Y-19525553D01*
X118859151Y-19514901D01*
X119050992Y-19452568D01*
X119261433Y-19345343D01*
X119452510Y-19206517D01*
X119619517Y-19039510D01*
X119758343Y-18848433D01*
X119865568Y-18637992D01*
X119938553Y-18413368D01*
X119975500Y-18180097D01*
X119975500Y-17943902D01*
X119938553Y-17710631D01*
X119888005Y-17555063D01*
X119865568Y-17486008D01*
X119865566Y-17486005D01*
X119865566Y-17486003D01*
X119758342Y-17275566D01*
X119742303Y-17253490D01*
X119619517Y-17084490D01*
X119452510Y-16917483D01*
X119261433Y-16778657D01*
X119239430Y-16767446D01*
X119050996Y-16671433D01*
X118826368Y-16598446D01*
X118593097Y-16561500D01*
X118593092Y-16561500D01*
X116356908Y-16561500D01*
X116356903Y-16561500D01*
X116123631Y-16598446D01*
X115899003Y-16671433D01*
X115688566Y-16778657D01*
X115603541Y-16840432D01*
X115497490Y-16917483D01*
X115497488Y-16917485D01*
X115497487Y-16917485D01*
X115330485Y-17084487D01*
X115330485Y-17084488D01*
X115330483Y-17084490D01*
X115270862Y-17166550D01*
X115191657Y-17275566D01*
X115084433Y-17486003D01*
X115011446Y-17710631D01*
X114974500Y-17943902D01*
X112879924Y-17943902D01*
X115110507Y-15713319D01*
X115171830Y-15679834D01*
X115198188Y-15677000D01*
X154349811Y-15677000D01*
X154416850Y-15696685D01*
X154437492Y-15713319D01*
X155896879Y-17172706D01*
X155930364Y-17234029D01*
X155925380Y-17303721D01*
X155909516Y-17333272D01*
X155828659Y-17444562D01*
X155721433Y-17655003D01*
X155648446Y-17879631D01*
X155611500Y-18112902D01*
X155611500Y-18349097D01*
X155648446Y-18582368D01*
X155721433Y-18806996D01*
X155828657Y-19017433D01*
X155967483Y-19208510D01*
X156134490Y-19375517D01*
X156325567Y-19514343D01*
X156424991Y-19565002D01*
X156536003Y-19621566D01*
X156536005Y-19621566D01*
X156536008Y-19621568D01*
X156656412Y-19660689D01*
X156760631Y-19694553D01*
X156993903Y-19731500D01*
X156993908Y-19731500D01*
X159230097Y-19731500D01*
X159463368Y-19694553D01*
X159480458Y-19689000D01*
X159687992Y-19621568D01*
X159898433Y-19514343D01*
X159898439Y-19514338D01*
X159902211Y-19512028D01*
X159969657Y-19493784D01*
X160036260Y-19514901D01*
X160080872Y-19568674D01*
X160091000Y-19617756D01*
X160091000Y-24944243D01*
X160071315Y-25011282D01*
X160018511Y-25057037D01*
X159949353Y-25066981D01*
X159902221Y-25049977D01*
X159898441Y-25047661D01*
X159687996Y-24940433D01*
X159463368Y-24867446D01*
X159230097Y-24830500D01*
X159230092Y-24830500D01*
X156993908Y-24830500D01*
X156993903Y-24830500D01*
X156760631Y-24867446D01*
X156536003Y-24940433D01*
X156325566Y-25047657D01*
X156218720Y-25125286D01*
X156134490Y-25186483D01*
X156134488Y-25186485D01*
X156134487Y-25186485D01*
X155967485Y-25353487D01*
X155967485Y-25353488D01*
X155967483Y-25353490D01*
X155934279Y-25399191D01*
X155828657Y-25544566D01*
X155721433Y-25755003D01*
X155648446Y-25979631D01*
X155611500Y-26212902D01*
X155611500Y-26449097D01*
X155648446Y-26682368D01*
X155721433Y-26906996D01*
X155801658Y-27064444D01*
X155828657Y-27117433D01*
X155967483Y-27308510D01*
X156134490Y-27475517D01*
X156325567Y-27614343D01*
X156424991Y-27665002D01*
X156536003Y-27721566D01*
X156536005Y-27721566D01*
X156536008Y-27721568D01*
X156656412Y-27760689D01*
X156760631Y-27794553D01*
X156993903Y-27831500D01*
X159053311Y-27831500D01*
X159120350Y-27851185D01*
X159166105Y-27903989D01*
X159176049Y-27973147D01*
X159147024Y-28036703D01*
X159140992Y-28043181D01*
X158955492Y-28228681D01*
X158894169Y-28262166D01*
X158867811Y-28265000D01*
X148128429Y-28265000D01*
X147970405Y-28296433D01*
X147970397Y-28296435D01*
X147874545Y-28336139D01*
X147874544Y-28336139D01*
X147821537Y-28358094D01*
X147821524Y-28358101D01*
X147687555Y-28447617D01*
X147687551Y-28447620D01*
X146008212Y-30126959D01*
X145946889Y-30160444D01*
X145901133Y-30161751D01*
X145830096Y-30150500D01*
X145830092Y-30150500D01*
X143593908Y-30150500D01*
X143593903Y-30150500D01*
X143360631Y-30187446D01*
X143136003Y-30260433D01*
X142925566Y-30367657D01*
X142816550Y-30446862D01*
X142734490Y-30506483D01*
X142734488Y-30506485D01*
X142734487Y-30506485D01*
X142567485Y-30673487D01*
X142567485Y-30673488D01*
X142567483Y-30673490D01*
X142523242Y-30734382D01*
X142428657Y-30864566D01*
X142321433Y-31075003D01*
X142248446Y-31299631D01*
X142211500Y-31532902D01*
X142211500Y-31769097D01*
X142248446Y-32002368D01*
X142321433Y-32226996D01*
X142370228Y-32322760D01*
X142428657Y-32437433D01*
X142567483Y-32628510D01*
X142734490Y-32795517D01*
X142925567Y-32934343D01*
X142966578Y-32955239D01*
X143136003Y-33041566D01*
X143136005Y-33041566D01*
X143136008Y-33041568D01*
X143162421Y-33050150D01*
X143360631Y-33114553D01*
X143593903Y-33151500D01*
X143593908Y-33151500D01*
X145830097Y-33151500D01*
X146063368Y-33114553D01*
X146128873Y-33093269D01*
X146287992Y-33041568D01*
X146498433Y-32934343D01*
X146689510Y-32795517D01*
X146856517Y-32628510D01*
X146995343Y-32437433D01*
X147102568Y-32226992D01*
X147175553Y-32002368D01*
X147183628Y-31951385D01*
X147212500Y-31769097D01*
X147212500Y-31537569D01*
X147212500Y-31532908D01*
X147212499Y-31532902D01*
X155611500Y-31532902D01*
X155611500Y-31769097D01*
X155648446Y-32002368D01*
X155721433Y-32226996D01*
X155770228Y-32322760D01*
X155828657Y-32437433D01*
X155967483Y-32628510D01*
X156134490Y-32795517D01*
X156325567Y-32934343D01*
X156366578Y-32955239D01*
X156536003Y-33041566D01*
X156536005Y-33041566D01*
X156536008Y-33041568D01*
X156562421Y-33050150D01*
X156760631Y-33114553D01*
X156993903Y-33151500D01*
X156993908Y-33151500D01*
X159230097Y-33151500D01*
X159463368Y-33114553D01*
X159528873Y-33093269D01*
X159687992Y-33041568D01*
X159898433Y-32934343D01*
X160089510Y-32795517D01*
X160256517Y-32628510D01*
X160395343Y-32437433D01*
X160502568Y-32226992D01*
X160575553Y-32002368D01*
X160583628Y-31951385D01*
X160612500Y-31769097D01*
X160612500Y-31532902D01*
X169011500Y-31532902D01*
X169011500Y-31769097D01*
X169048446Y-32002368D01*
X169121433Y-32226996D01*
X169170228Y-32322760D01*
X169228657Y-32437433D01*
X169367483Y-32628510D01*
X169534490Y-32795517D01*
X169725567Y-32934343D01*
X169766578Y-32955239D01*
X169936003Y-33041566D01*
X169936005Y-33041566D01*
X169936008Y-33041568D01*
X169962421Y-33050150D01*
X170160631Y-33114553D01*
X170393903Y-33151500D01*
X170393908Y-33151500D01*
X172630097Y-33151500D01*
X172863368Y-33114553D01*
X172928873Y-33093269D01*
X173087992Y-33041568D01*
X173298433Y-32934343D01*
X173489510Y-32795517D01*
X173656517Y-32628510D01*
X173795343Y-32437433D01*
X173902568Y-32226992D01*
X173975553Y-32002368D01*
X173983628Y-31951385D01*
X174012500Y-31769097D01*
X174012500Y-31532902D01*
X173975553Y-31299631D01*
X173941689Y-31195412D01*
X173902568Y-31075008D01*
X173902566Y-31075004D01*
X173902566Y-31075003D01*
X173806042Y-30885565D01*
X173795343Y-30864567D01*
X173656517Y-30673490D01*
X173489510Y-30506483D01*
X173298433Y-30367657D01*
X173087996Y-30260433D01*
X172863368Y-30187446D01*
X172630097Y-30150500D01*
X172630092Y-30150500D01*
X170393908Y-30150500D01*
X170393903Y-30150500D01*
X170160631Y-30187446D01*
X169936003Y-30260433D01*
X169725566Y-30367657D01*
X169616550Y-30446862D01*
X169534490Y-30506483D01*
X169534488Y-30506485D01*
X169534487Y-30506485D01*
X169367485Y-30673487D01*
X169367485Y-30673488D01*
X169367483Y-30673490D01*
X169323242Y-30734382D01*
X169228657Y-30864566D01*
X169121433Y-31075003D01*
X169048446Y-31299631D01*
X169011500Y-31532902D01*
X160612500Y-31532902D01*
X160575553Y-31299631D01*
X160541689Y-31195412D01*
X160502568Y-31075008D01*
X160502566Y-31075004D01*
X160502566Y-31075003D01*
X160406042Y-30885565D01*
X160395343Y-30864567D01*
X160256517Y-30673490D01*
X160089510Y-30506483D01*
X159898433Y-30367657D01*
X159687996Y-30260433D01*
X159463368Y-30187446D01*
X159230097Y-30150500D01*
X159230092Y-30150500D01*
X156993908Y-30150500D01*
X156993903Y-30150500D01*
X156760631Y-30187446D01*
X156536003Y-30260433D01*
X156325566Y-30367657D01*
X156216550Y-30446862D01*
X156134490Y-30506483D01*
X156134488Y-30506485D01*
X156134487Y-30506485D01*
X155967485Y-30673487D01*
X155967485Y-30673488D01*
X155967483Y-30673490D01*
X155923242Y-30734382D01*
X155828657Y-30864566D01*
X155721433Y-31075003D01*
X155648446Y-31299631D01*
X155611500Y-31532902D01*
X147212499Y-31532902D01*
X147181762Y-31338835D01*
X147186357Y-31304266D01*
X147190786Y-31269987D01*
X147190943Y-31269756D01*
X147190968Y-31269575D01*
X147191482Y-31268967D01*
X147216621Y-31232204D01*
X148511508Y-29937319D01*
X148572831Y-29903834D01*
X148599189Y-29901000D01*
X159338567Y-29901000D01*
X159338568Y-29900999D01*
X159496602Y-29869565D01*
X159571035Y-29838733D01*
X159645468Y-29807903D01*
X159779445Y-29718382D01*
X161417382Y-28080445D01*
X161506902Y-27946469D01*
X161568564Y-27797602D01*
X161600000Y-27639566D01*
X161600000Y-27478435D01*
X161600000Y-27478432D01*
X161568565Y-27320403D01*
X161568564Y-27320402D01*
X161568564Y-27320398D01*
X161536406Y-27242761D01*
X161506905Y-27171538D01*
X161506895Y-27171520D01*
X161493898Y-27152068D01*
X161473020Y-27085391D01*
X161473000Y-27083178D01*
X161473000Y-25775940D01*
X161492685Y-25708901D01*
X161545489Y-25663146D01*
X161614647Y-25653202D01*
X161672487Y-25677565D01*
X161698470Y-25697503D01*
X161925517Y-25828590D01*
X161925528Y-25828595D01*
X162167744Y-25928924D01*
X162420979Y-25996777D01*
X162420992Y-25996780D01*
X162562000Y-26015343D01*
X162562000Y-24464012D01*
X162619007Y-24496925D01*
X162746174Y-24531000D01*
X162877826Y-24531000D01*
X163004993Y-24496925D01*
X163062000Y-24464012D01*
X163062000Y-26015342D01*
X163203007Y-25996780D01*
X163203020Y-25996777D01*
X163456255Y-25928924D01*
X163698471Y-25828595D01*
X163698482Y-25828590D01*
X163925528Y-25697503D01*
X164133519Y-25537907D01*
X164133526Y-25537901D01*
X164318901Y-25352526D01*
X164318907Y-25352519D01*
X164478503Y-25144528D01*
X164609590Y-24917482D01*
X164609598Y-24917466D01*
X164637150Y-24850949D01*
X164680990Y-24796545D01*
X164747284Y-24774480D01*
X164814984Y-24791759D01*
X164862594Y-24842896D01*
X164871486Y-24866308D01*
X164914075Y-25025255D01*
X165014404Y-25267471D01*
X165014409Y-25267482D01*
X165145496Y-25494528D01*
X165305092Y-25702519D01*
X165305098Y-25702526D01*
X165490473Y-25887901D01*
X165490480Y-25887907D01*
X165698471Y-26047503D01*
X165925517Y-26178590D01*
X165925528Y-26178595D01*
X166167744Y-26278924D01*
X166420979Y-26346777D01*
X166420992Y-26346780D01*
X166562000Y-26365343D01*
X166562000Y-24814012D01*
X166619007Y-24846925D01*
X166746174Y-24881000D01*
X166877826Y-24881000D01*
X167004993Y-24846925D01*
X167062000Y-24814012D01*
X167062000Y-26365342D01*
X167203007Y-26346780D01*
X167203020Y-26346777D01*
X167456255Y-26278924D01*
X167615646Y-26212902D01*
X169011500Y-26212902D01*
X169011500Y-26449097D01*
X169048446Y-26682368D01*
X169121433Y-26906996D01*
X169201658Y-27064444D01*
X169228657Y-27117433D01*
X169367483Y-27308510D01*
X169534490Y-27475517D01*
X169725567Y-27614343D01*
X169824991Y-27665002D01*
X169936003Y-27721566D01*
X169936005Y-27721566D01*
X169936008Y-27721568D01*
X170056412Y-27760689D01*
X170160631Y-27794553D01*
X170393903Y-27831500D01*
X170393908Y-27831500D01*
X172630097Y-27831500D01*
X172863368Y-27794553D01*
X173087992Y-27721568D01*
X173298433Y-27614343D01*
X173489510Y-27475517D01*
X173656517Y-27308510D01*
X173795343Y-27117433D01*
X173902568Y-26906992D01*
X173975553Y-26682368D01*
X173976053Y-26679213D01*
X174012500Y-26449097D01*
X174012500Y-26212902D01*
X173975553Y-25979631D01*
X173902566Y-25755003D01*
X173816458Y-25586008D01*
X173795343Y-25544567D01*
X173656517Y-25353490D01*
X173489510Y-25186483D01*
X173298433Y-25047657D01*
X173254467Y-25025255D01*
X173087996Y-24940433D01*
X172863368Y-24867446D01*
X172630097Y-24830500D01*
X172630092Y-24830500D01*
X170393908Y-24830500D01*
X170393903Y-24830500D01*
X170160631Y-24867446D01*
X169936003Y-24940433D01*
X169725566Y-25047657D01*
X169618720Y-25125286D01*
X169534490Y-25186483D01*
X169534488Y-25186485D01*
X169534487Y-25186485D01*
X169367485Y-25353487D01*
X169367485Y-25353488D01*
X169367483Y-25353490D01*
X169334279Y-25399191D01*
X169228657Y-25544566D01*
X169121433Y-25755003D01*
X169048446Y-25979631D01*
X169011500Y-26212902D01*
X167615646Y-26212902D01*
X167698471Y-26178595D01*
X167698475Y-26178593D01*
X167833478Y-26100649D01*
X167833479Y-26100648D01*
X167925528Y-26047503D01*
X168133519Y-25887907D01*
X168133526Y-25887901D01*
X168318901Y-25702526D01*
X168318907Y-25702519D01*
X168478503Y-25494528D01*
X168609590Y-25267482D01*
X168609595Y-25267471D01*
X168709924Y-25025255D01*
X168777777Y-24772020D01*
X168777779Y-24772009D01*
X168811999Y-24512094D01*
X168812000Y-24512080D01*
X168812000Y-23881000D01*
X167312000Y-23881000D01*
X167312000Y-23381000D01*
X168812000Y-23381000D01*
X168812000Y-23099905D01*
X174212000Y-23099905D01*
X174212000Y-23381000D01*
X175712000Y-23381000D01*
X175712000Y-23881000D01*
X174212000Y-23881000D01*
X174212000Y-24162094D01*
X174246220Y-24422009D01*
X174246222Y-24422020D01*
X174314075Y-24675255D01*
X174414404Y-24917471D01*
X174414409Y-24917482D01*
X174545496Y-25144528D01*
X174705092Y-25352519D01*
X174705098Y-25352526D01*
X174890473Y-25537901D01*
X174890480Y-25537907D01*
X175098471Y-25697503D01*
X175325517Y-25828590D01*
X175325528Y-25828595D01*
X175567744Y-25928924D01*
X175820979Y-25996777D01*
X175820992Y-25996780D01*
X175962000Y-26015343D01*
X175962000Y-24464012D01*
X176019007Y-24496925D01*
X176146174Y-24531000D01*
X176277826Y-24531000D01*
X176404993Y-24496925D01*
X176462000Y-24464012D01*
X176462000Y-26015342D01*
X176603007Y-25996780D01*
X176603020Y-25996777D01*
X176856255Y-25928924D01*
X177098471Y-25828595D01*
X177098482Y-25828590D01*
X177325528Y-25697503D01*
X177533519Y-25537907D01*
X177533526Y-25537901D01*
X177718901Y-25352526D01*
X177718907Y-25352519D01*
X177878503Y-25144528D01*
X178009590Y-24917482D01*
X178009598Y-24917466D01*
X178037150Y-24850949D01*
X178080990Y-24796545D01*
X178147284Y-24774480D01*
X178214984Y-24791759D01*
X178262594Y-24842896D01*
X178271486Y-24866308D01*
X178314075Y-25025255D01*
X178414404Y-25267471D01*
X178414409Y-25267482D01*
X178545496Y-25494528D01*
X178705092Y-25702519D01*
X178705098Y-25702526D01*
X178890473Y-25887901D01*
X178890480Y-25887907D01*
X179098471Y-26047503D01*
X179325517Y-26178590D01*
X179325528Y-26178595D01*
X179567744Y-26278924D01*
X179820979Y-26346777D01*
X179820992Y-26346780D01*
X179962000Y-26365343D01*
X179962000Y-24814012D01*
X180019007Y-24846925D01*
X180146174Y-24881000D01*
X180277826Y-24881000D01*
X180404993Y-24846925D01*
X180462000Y-24814012D01*
X180462000Y-26365342D01*
X180603007Y-26346780D01*
X180603020Y-26346777D01*
X180856255Y-26278924D01*
X181015646Y-26212902D01*
X182411500Y-26212902D01*
X182411500Y-26449097D01*
X182448446Y-26682368D01*
X182521433Y-26906996D01*
X182601658Y-27064444D01*
X182628657Y-27117433D01*
X182767483Y-27308510D01*
X182934490Y-27475517D01*
X183125567Y-27614343D01*
X183224991Y-27665002D01*
X183336003Y-27721566D01*
X183336005Y-27721566D01*
X183336008Y-27721568D01*
X183456412Y-27760689D01*
X183560631Y-27794553D01*
X183793903Y-27831500D01*
X183793908Y-27831500D01*
X186030097Y-27831500D01*
X186263368Y-27794553D01*
X186487992Y-27721568D01*
X186698433Y-27614343D01*
X186889510Y-27475517D01*
X187056517Y-27308510D01*
X187195343Y-27117433D01*
X187302568Y-26906992D01*
X187375553Y-26682368D01*
X187376053Y-26679213D01*
X187412500Y-26449097D01*
X187412500Y-26212902D01*
X187375553Y-25979631D01*
X187302566Y-25755003D01*
X187216458Y-25586008D01*
X187195343Y-25544567D01*
X187056517Y-25353490D01*
X186889510Y-25186483D01*
X186698433Y-25047657D01*
X186654467Y-25025255D01*
X186487996Y-24940433D01*
X186263368Y-24867446D01*
X186030097Y-24830500D01*
X186030092Y-24830500D01*
X183793908Y-24830500D01*
X183793903Y-24830500D01*
X183560631Y-24867446D01*
X183336003Y-24940433D01*
X183125566Y-25047657D01*
X183018720Y-25125286D01*
X182934490Y-25186483D01*
X182934488Y-25186485D01*
X182934487Y-25186485D01*
X182767485Y-25353487D01*
X182767485Y-25353488D01*
X182767483Y-25353490D01*
X182734279Y-25399191D01*
X182628657Y-25544566D01*
X182521433Y-25755003D01*
X182448446Y-25979631D01*
X182411500Y-26212902D01*
X181015646Y-26212902D01*
X181098471Y-26178595D01*
X181098475Y-26178593D01*
X181233478Y-26100649D01*
X181233479Y-26100648D01*
X181325528Y-26047503D01*
X181533519Y-25887907D01*
X181533526Y-25887901D01*
X181718901Y-25702526D01*
X181718907Y-25702519D01*
X181878503Y-25494528D01*
X182009590Y-25267482D01*
X182009595Y-25267471D01*
X182109924Y-25025255D01*
X182177777Y-24772020D01*
X182177779Y-24772009D01*
X182211999Y-24512094D01*
X182212000Y-24512080D01*
X182212000Y-23881000D01*
X180712000Y-23881000D01*
X180712000Y-23381000D01*
X182212000Y-23381000D01*
X182212000Y-23099905D01*
X187612000Y-23099905D01*
X187612000Y-23381000D01*
X189112000Y-23381000D01*
X189112000Y-23881000D01*
X187612000Y-23881000D01*
X187612000Y-24162094D01*
X187646220Y-24422009D01*
X187646222Y-24422020D01*
X187714075Y-24675255D01*
X187814404Y-24917471D01*
X187814409Y-24917482D01*
X187945496Y-25144528D01*
X188105092Y-25352519D01*
X188105098Y-25352526D01*
X188290473Y-25537901D01*
X188290480Y-25537907D01*
X188498471Y-25697503D01*
X188725517Y-25828590D01*
X188725528Y-25828595D01*
X188967744Y-25928924D01*
X189220979Y-25996777D01*
X189220992Y-25996780D01*
X189362000Y-26015343D01*
X189362000Y-24464012D01*
X189419007Y-24496925D01*
X189546174Y-24531000D01*
X189677826Y-24531000D01*
X189804993Y-24496925D01*
X189862000Y-24464012D01*
X189862000Y-26015342D01*
X190003007Y-25996780D01*
X190003020Y-25996777D01*
X190256255Y-25928924D01*
X190498471Y-25828595D01*
X190498482Y-25828590D01*
X190725528Y-25697503D01*
X190933519Y-25537907D01*
X190933526Y-25537901D01*
X191118901Y-25352526D01*
X191118907Y-25352519D01*
X191278503Y-25144528D01*
X191409590Y-24917482D01*
X191409595Y-24917471D01*
X191509924Y-24675255D01*
X191577777Y-24422020D01*
X191577779Y-24422009D01*
X191611999Y-24162094D01*
X191612000Y-24162080D01*
X191612000Y-23881000D01*
X190112000Y-23881000D01*
X190112000Y-23381000D01*
X191612000Y-23381000D01*
X191612000Y-23099919D01*
X191611999Y-23099905D01*
X191577779Y-22839990D01*
X191577777Y-22839979D01*
X191509924Y-22586744D01*
X191409595Y-22344528D01*
X191409590Y-22344517D01*
X191278503Y-22117471D01*
X191118907Y-21909480D01*
X191118901Y-21909473D01*
X190933526Y-21724098D01*
X190933519Y-21724092D01*
X190725528Y-21564496D01*
X190498482Y-21433409D01*
X190498471Y-21433404D01*
X190256255Y-21333075D01*
X190003016Y-21265221D01*
X189862000Y-21246654D01*
X189862000Y-22797988D01*
X189804993Y-22765075D01*
X189677826Y-22731000D01*
X189546174Y-22731000D01*
X189419007Y-22765075D01*
X189362000Y-22797988D01*
X189362000Y-21246654D01*
X189361999Y-21246654D01*
X189220983Y-21265221D01*
X188967744Y-21333075D01*
X188725528Y-21433404D01*
X188725517Y-21433409D01*
X188498471Y-21564496D01*
X188290480Y-21724092D01*
X188290473Y-21724098D01*
X188105098Y-21909473D01*
X188105092Y-21909480D01*
X187945496Y-22117471D01*
X187814409Y-22344517D01*
X187814404Y-22344528D01*
X187714075Y-22586744D01*
X187646222Y-22839979D01*
X187646220Y-22839990D01*
X187612000Y-23099905D01*
X182212000Y-23099905D01*
X182212000Y-22749919D01*
X182211999Y-22749905D01*
X182177779Y-22489990D01*
X182177777Y-22489979D01*
X182109924Y-22236744D01*
X182009595Y-21994528D01*
X182009590Y-21994517D01*
X181878503Y-21767471D01*
X181718907Y-21559480D01*
X181718901Y-21559473D01*
X181533526Y-21374098D01*
X181533519Y-21374092D01*
X181325528Y-21214496D01*
X181098482Y-21083409D01*
X181098471Y-21083404D01*
X180856255Y-20983075D01*
X180603016Y-20915221D01*
X180462000Y-20896654D01*
X180462000Y-22447988D01*
X180404993Y-22415075D01*
X180277826Y-22381000D01*
X180146174Y-22381000D01*
X180019007Y-22415075D01*
X179962000Y-22447988D01*
X179962000Y-20896654D01*
X179961999Y-20896654D01*
X179820983Y-20915221D01*
X179567744Y-20983075D01*
X179325528Y-21083404D01*
X179325517Y-21083409D01*
X179098471Y-21214496D01*
X178890480Y-21374092D01*
X178890473Y-21374098D01*
X178705098Y-21559473D01*
X178705092Y-21559480D01*
X178545496Y-21767471D01*
X178414409Y-21994517D01*
X178414404Y-21994528D01*
X178314076Y-22236742D01*
X178271486Y-22395692D01*
X178235121Y-22455352D01*
X178172274Y-22485881D01*
X178102898Y-22477586D01*
X178049020Y-22433101D01*
X178037150Y-22411050D01*
X178009598Y-22344533D01*
X178009590Y-22344517D01*
X177878503Y-22117471D01*
X177718907Y-21909480D01*
X177718901Y-21909473D01*
X177533526Y-21724098D01*
X177533519Y-21724092D01*
X177325528Y-21564496D01*
X177098482Y-21433409D01*
X177098471Y-21433404D01*
X176856255Y-21333075D01*
X176603016Y-21265221D01*
X176462000Y-21246654D01*
X176462000Y-22797988D01*
X176404993Y-22765075D01*
X176277826Y-22731000D01*
X176146174Y-22731000D01*
X176019007Y-22765075D01*
X175962000Y-22797988D01*
X175962000Y-21246654D01*
X175820983Y-21265221D01*
X175567744Y-21333075D01*
X175325528Y-21433404D01*
X175325517Y-21433409D01*
X175098471Y-21564496D01*
X174890480Y-21724092D01*
X174890473Y-21724098D01*
X174705098Y-21909473D01*
X174705092Y-21909480D01*
X174545496Y-22117471D01*
X174414409Y-22344517D01*
X174414404Y-22344528D01*
X174314075Y-22586744D01*
X174246222Y-22839979D01*
X174246220Y-22839990D01*
X174212000Y-23099905D01*
X168812000Y-23099905D01*
X168812000Y-22749919D01*
X168811999Y-22749905D01*
X168777779Y-22489990D01*
X168777777Y-22489979D01*
X168709924Y-22236744D01*
X168609595Y-21994528D01*
X168609590Y-21994517D01*
X168478503Y-21767471D01*
X168318907Y-21559480D01*
X168318901Y-21559473D01*
X168133526Y-21374098D01*
X168133519Y-21374092D01*
X167925528Y-21214496D01*
X167698482Y-21083409D01*
X167698471Y-21083404D01*
X167456255Y-20983075D01*
X167203016Y-20915221D01*
X167062000Y-20896654D01*
X167062000Y-22447988D01*
X167004993Y-22415075D01*
X166877826Y-22381000D01*
X166746174Y-22381000D01*
X166619007Y-22415075D01*
X166562000Y-22447988D01*
X166562000Y-20896654D01*
X166561999Y-20896654D01*
X166420983Y-20915221D01*
X166167744Y-20983075D01*
X165925528Y-21083404D01*
X165925517Y-21083409D01*
X165698471Y-21214496D01*
X165490480Y-21374092D01*
X165490473Y-21374098D01*
X165305098Y-21559473D01*
X165305092Y-21559480D01*
X165145496Y-21767471D01*
X165014409Y-21994517D01*
X165014404Y-21994528D01*
X164914076Y-22236742D01*
X164871486Y-22395692D01*
X164835121Y-22455352D01*
X164772274Y-22485881D01*
X164702898Y-22477586D01*
X164649020Y-22433101D01*
X164637150Y-22411050D01*
X164609598Y-22344533D01*
X164609590Y-22344517D01*
X164478503Y-22117471D01*
X164318907Y-21909480D01*
X164318901Y-21909473D01*
X164133526Y-21724098D01*
X164133519Y-21724092D01*
X163925528Y-21564496D01*
X163698482Y-21433409D01*
X163698471Y-21433404D01*
X163456255Y-21333075D01*
X163203016Y-21265221D01*
X163062000Y-21246654D01*
X163062000Y-22797988D01*
X163004993Y-22765075D01*
X162877826Y-22731000D01*
X162746174Y-22731000D01*
X162619007Y-22765075D01*
X162562000Y-22797988D01*
X162562000Y-21246654D01*
X162561999Y-21246654D01*
X162420983Y-21265221D01*
X162167744Y-21333075D01*
X161925528Y-21433404D01*
X161925517Y-21433409D01*
X161698472Y-21564495D01*
X161672485Y-21584436D01*
X161607316Y-21609629D01*
X161538871Y-21595590D01*
X161488882Y-21546775D01*
X161473000Y-21486059D01*
X161473000Y-18112902D01*
X169011500Y-18112902D01*
X169011500Y-18349097D01*
X169048446Y-18582368D01*
X169121433Y-18806996D01*
X169228657Y-19017433D01*
X169367483Y-19208510D01*
X169534490Y-19375517D01*
X169725567Y-19514343D01*
X169824991Y-19565002D01*
X169936003Y-19621566D01*
X169936005Y-19621566D01*
X169936008Y-19621568D01*
X170056412Y-19660689D01*
X170160631Y-19694553D01*
X170393903Y-19731500D01*
X170393908Y-19731500D01*
X172630097Y-19731500D01*
X172863368Y-19694553D01*
X172880458Y-19689000D01*
X173087992Y-19621568D01*
X173298433Y-19514343D01*
X173489510Y-19375517D01*
X173656517Y-19208510D01*
X173795343Y-19017433D01*
X173902568Y-18806992D01*
X173975553Y-18582368D01*
X174002320Y-18413368D01*
X174012500Y-18349097D01*
X174012500Y-18112902D01*
X182411500Y-18112902D01*
X182411500Y-18349097D01*
X182448446Y-18582368D01*
X182521433Y-18806996D01*
X182628657Y-19017433D01*
X182767483Y-19208510D01*
X182934490Y-19375517D01*
X183125567Y-19514343D01*
X183224991Y-19565002D01*
X183336003Y-19621566D01*
X183336005Y-19621566D01*
X183336008Y-19621568D01*
X183456412Y-19660689D01*
X183560631Y-19694553D01*
X183793903Y-19731500D01*
X183793908Y-19731500D01*
X186030097Y-19731500D01*
X186263368Y-19694553D01*
X186280458Y-19689000D01*
X186487992Y-19621568D01*
X186698433Y-19514343D01*
X186889510Y-19375517D01*
X187056517Y-19208510D01*
X187195343Y-19017433D01*
X187302568Y-18806992D01*
X187375553Y-18582368D01*
X187402320Y-18413368D01*
X187412500Y-18349097D01*
X187412500Y-18112902D01*
X187375553Y-17879631D01*
X187320291Y-17709555D01*
X187302568Y-17655008D01*
X187302566Y-17655005D01*
X187302566Y-17655003D01*
X187246002Y-17543991D01*
X187195343Y-17444567D01*
X187056517Y-17253490D01*
X186889510Y-17086483D01*
X186698433Y-16947657D01*
X186487996Y-16840433D01*
X186263368Y-16767446D01*
X186030097Y-16730500D01*
X186030092Y-16730500D01*
X183793908Y-16730500D01*
X183793903Y-16730500D01*
X183560631Y-16767446D01*
X183336003Y-16840433D01*
X183125566Y-16947657D01*
X183049950Y-17002596D01*
X182934490Y-17086483D01*
X182934488Y-17086485D01*
X182934487Y-17086485D01*
X182767485Y-17253487D01*
X182767485Y-17253488D01*
X182767483Y-17253490D01*
X182751444Y-17275566D01*
X182628657Y-17444566D01*
X182521433Y-17655003D01*
X182448446Y-17879631D01*
X182411500Y-18112902D01*
X174012500Y-18112902D01*
X173975553Y-17879631D01*
X173920291Y-17709555D01*
X173902568Y-17655008D01*
X173902566Y-17655005D01*
X173902566Y-17655003D01*
X173846002Y-17543991D01*
X173795343Y-17444567D01*
X173656517Y-17253490D01*
X173489510Y-17086483D01*
X173298433Y-16947657D01*
X173087996Y-16840433D01*
X172863368Y-16767446D01*
X172630097Y-16730500D01*
X172630092Y-16730500D01*
X170393908Y-16730500D01*
X170393903Y-16730500D01*
X170160631Y-16767446D01*
X169936003Y-16840433D01*
X169725566Y-16947657D01*
X169649950Y-17002596D01*
X169534490Y-17086483D01*
X169534488Y-17086485D01*
X169534487Y-17086485D01*
X169367485Y-17253487D01*
X169367485Y-17253488D01*
X169367483Y-17253490D01*
X169351444Y-17275566D01*
X169228657Y-17444566D01*
X169121433Y-17655003D01*
X169048446Y-17879631D01*
X169011500Y-18112902D01*
X161473000Y-18112902D01*
X161473000Y-17239820D01*
X161492685Y-17172781D01*
X161493898Y-17170929D01*
X161506902Y-17151468D01*
X161568564Y-17002602D01*
X161585495Y-16917485D01*
X161600000Y-16844567D01*
X161600000Y-16683431D01*
X161568565Y-16525403D01*
X161568564Y-16525402D01*
X161568564Y-16525398D01*
X161506902Y-16376532D01*
X161485610Y-16344666D01*
X161485609Y-16344663D01*
X161442835Y-16280648D01*
X193517500Y-16280648D01*
X193517500Y-16485351D01*
X193549522Y-16687534D01*
X193612781Y-16882223D01*
X193705715Y-17064613D01*
X193826028Y-17230213D01*
X193970786Y-17374971D01*
X194066579Y-17444567D01*
X194136390Y-17495287D01*
X194252607Y-17554503D01*
X194318776Y-17588218D01*
X194318778Y-17588218D01*
X194318781Y-17588220D01*
X194423137Y-17622127D01*
X194513465Y-17651477D01*
X194535759Y-17655008D01*
X194715648Y-17683500D01*
X194715649Y-17683500D01*
X194920351Y-17683500D01*
X194920352Y-17683500D01*
X195122534Y-17651477D01*
X195317219Y-17588220D01*
X195499610Y-17495287D01*
X195592590Y-17427732D01*
X195665213Y-17374971D01*
X195665215Y-17374968D01*
X195665219Y-17374966D01*
X195809966Y-17230219D01*
X195809968Y-17230215D01*
X195809971Y-17230213D01*
X195867185Y-17151463D01*
X195930287Y-17064610D01*
X196023220Y-16882219D01*
X196086477Y-16687534D01*
X196118500Y-16485352D01*
X196118500Y-16280648D01*
X196086477Y-16078466D01*
X196023220Y-15883781D01*
X196023218Y-15883778D01*
X196023218Y-15883776D01*
X195989503Y-15817607D01*
X195930287Y-15701390D01*
X195912567Y-15677000D01*
X195809971Y-15535786D01*
X195665213Y-15391028D01*
X195499613Y-15270715D01*
X195499612Y-15270714D01*
X195499610Y-15270713D01*
X195442653Y-15241691D01*
X195317223Y-15177781D01*
X195122534Y-15114522D01*
X194947995Y-15086878D01*
X194920352Y-15082500D01*
X194715648Y-15082500D01*
X194691329Y-15086351D01*
X194513465Y-15114522D01*
X194318776Y-15177781D01*
X194136386Y-15270715D01*
X193970786Y-15391028D01*
X193826028Y-15535786D01*
X193705715Y-15701386D01*
X193612781Y-15883776D01*
X193549522Y-16078465D01*
X193517500Y-16280648D01*
X161442835Y-16280648D01*
X161417385Y-16242559D01*
X161417379Y-16242551D01*
X158001448Y-12826620D01*
X158001444Y-12826617D01*
X157867474Y-12737100D01*
X157867461Y-12737093D01*
X157793036Y-12706266D01*
X157722528Y-12677061D01*
X157668124Y-12633220D01*
X157646059Y-12566926D01*
X157663338Y-12499227D01*
X157714475Y-12451616D01*
X157769980Y-12438500D01*
X199273500Y-12438500D01*
X199340539Y-12458185D01*
X199386294Y-12510989D01*
X199397500Y-12562500D01*
X199397500Y-45095500D01*
X199377815Y-45162539D01*
X199325011Y-45208294D01*
X199273500Y-45219500D01*
X100065500Y-45219500D01*
X99998461Y-45199815D01*
X99952706Y-45147011D01*
X99941500Y-45095500D01*
X99941500Y-39521648D01*
X114396500Y-39521648D01*
X114396500Y-39726351D01*
X114428522Y-39928534D01*
X114491781Y-40123223D01*
X114584715Y-40305613D01*
X114705028Y-40471213D01*
X114849786Y-40615971D01*
X114980585Y-40711000D01*
X115015390Y-40736287D01*
X115131607Y-40795503D01*
X115197776Y-40829218D01*
X115197778Y-40829218D01*
X115197781Y-40829220D01*
X115302137Y-40863127D01*
X115392465Y-40892477D01*
X115493557Y-40908488D01*
X115594648Y-40924500D01*
X115594649Y-40924500D01*
X115799351Y-40924500D01*
X115799352Y-40924500D01*
X116001534Y-40892477D01*
X116196219Y-40829220D01*
X116378610Y-40736287D01*
X116471590Y-40668732D01*
X116544213Y-40615971D01*
X116544215Y-40615968D01*
X116544219Y-40615966D01*
X116688966Y-40471219D01*
X116688968Y-40471215D01*
X116688971Y-40471213D01*
X116793752Y-40326992D01*
X116809287Y-40305610D01*
X116902220Y-40123219D01*
X116965477Y-39928534D01*
X116997500Y-39726352D01*
X116997500Y-39521648D01*
X116965477Y-39319466D01*
X116961721Y-39307907D01*
X116902218Y-39124776D01*
X116857109Y-39036246D01*
X116809287Y-38942390D01*
X116789044Y-38914528D01*
X116688971Y-38776786D01*
X116544213Y-38632028D01*
X116378613Y-38511715D01*
X116378612Y-38511714D01*
X116378610Y-38511713D01*
X116321653Y-38482691D01*
X116196223Y-38418781D01*
X116001534Y-38355522D01*
X115826995Y-38327878D01*
X115799352Y-38323500D01*
X115594648Y-38323500D01*
X115570329Y-38327351D01*
X115392465Y-38355522D01*
X115197776Y-38418781D01*
X115015386Y-38511715D01*
X114849786Y-38632028D01*
X114705028Y-38776786D01*
X114584715Y-38942386D01*
X114491781Y-39124776D01*
X114428522Y-39319465D01*
X114396500Y-39521648D01*
X99941500Y-39521648D01*
X99941500Y-12562500D01*
X99961185Y-12495461D01*
X100013989Y-12449706D01*
X100065500Y-12438500D01*
X105247020Y-12438500D01*
X105314059Y-12458185D01*
G37*
%TD.AperFunction*%
%TA.AperFunction,Conductor*%
G36*
X179712000Y-37301000D02*
G01*
X176712000Y-37301000D01*
X176712000Y-36801000D01*
X179712000Y-36801000D01*
X179712000Y-37301000D01*
G37*
%TD.AperFunction*%
%TA.AperFunction,Conductor*%
G36*
X113997850Y-14299685D02*
G01*
X114043605Y-14352489D01*
X114053549Y-14421647D01*
X114024524Y-14485203D01*
X114018492Y-14491681D01*
X109219620Y-19290551D01*
X109219617Y-19290555D01*
X109130100Y-19424525D01*
X109130093Y-19424538D01*
X109068436Y-19573393D01*
X109068433Y-19573405D01*
X109037000Y-19731429D01*
X109037000Y-26406811D01*
X109017315Y-26473850D01*
X109000681Y-26494492D01*
X108094583Y-27400589D01*
X108033260Y-27434074D01*
X107963568Y-27429090D01*
X107907635Y-27387218D01*
X107884429Y-27332305D01*
X107870247Y-27242761D01*
X107870246Y-27242760D01*
X107870246Y-27242757D01*
X107804557Y-27040588D01*
X107708051Y-26851184D01*
X107708049Y-26851181D01*
X107708048Y-26851179D01*
X107583109Y-26679213D01*
X107432786Y-26528890D01*
X107260820Y-26403951D01*
X107260115Y-26403591D01*
X107252054Y-26399485D01*
X107201259Y-26351512D01*
X107184463Y-26283692D01*
X107206999Y-26217556D01*
X107252054Y-26178515D01*
X107260816Y-26174051D01*
X107290052Y-26152810D01*
X107432786Y-26049109D01*
X107432788Y-26049106D01*
X107432792Y-26049104D01*
X107583104Y-25898792D01*
X107583106Y-25898788D01*
X107583109Y-25898786D01*
X107708048Y-25726820D01*
X107708047Y-25726820D01*
X107708051Y-25726816D01*
X107804557Y-25537412D01*
X107870246Y-25335243D01*
X107903500Y-25125287D01*
X107903500Y-24912713D01*
X107870246Y-24702757D01*
X107804557Y-24500588D01*
X107708051Y-24311184D01*
X107708049Y-24311181D01*
X107708048Y-24311179D01*
X107583109Y-24139213D01*
X107432786Y-23988890D01*
X107260817Y-23863949D01*
X107251504Y-23859204D01*
X107200707Y-23811230D01*
X107183912Y-23743409D01*
X107206449Y-23677274D01*
X107251507Y-23638232D01*
X107260555Y-23633622D01*
X107314716Y-23594270D01*
X107314717Y-23594270D01*
X106682408Y-22961962D01*
X106745993Y-22944925D01*
X106860007Y-22879099D01*
X106953099Y-22786007D01*
X107018925Y-22671993D01*
X107035962Y-22608408D01*
X107668270Y-23240717D01*
X107668270Y-23240716D01*
X107707622Y-23186554D01*
X107804095Y-22997217D01*
X107869757Y-22795130D01*
X107869757Y-22795127D01*
X107903000Y-22585246D01*
X107903000Y-22372753D01*
X107869757Y-22162872D01*
X107869757Y-22162869D01*
X107804095Y-21960782D01*
X107707624Y-21771449D01*
X107668270Y-21717282D01*
X107668269Y-21717282D01*
X107035962Y-22349590D01*
X107018925Y-22286007D01*
X106953099Y-22171993D01*
X106860007Y-22078901D01*
X106745993Y-22013075D01*
X106682409Y-21996037D01*
X107314716Y-21363728D01*
X107260547Y-21324373D01*
X107260547Y-21324372D01*
X107251500Y-21319763D01*
X107200706Y-21271788D01*
X107183912Y-21203966D01*
X107206451Y-21137832D01*
X107251508Y-21098793D01*
X107260816Y-21094051D01*
X107340007Y-21036515D01*
X107432786Y-20969109D01*
X107432788Y-20969106D01*
X107432792Y-20969104D01*
X107583104Y-20818792D01*
X107583106Y-20818788D01*
X107583109Y-20818786D01*
X107708048Y-20646820D01*
X107708047Y-20646820D01*
X107708051Y-20646816D01*
X107804557Y-20457412D01*
X107870246Y-20255243D01*
X107903500Y-20045287D01*
X107903500Y-19832713D01*
X107870246Y-19622757D01*
X107804557Y-19420588D01*
X107708051Y-19231184D01*
X107708049Y-19231181D01*
X107708048Y-19231179D01*
X107583109Y-19059213D01*
X107432786Y-18908890D01*
X107260820Y-18783951D01*
X107071414Y-18687444D01*
X107071413Y-18687443D01*
X107071412Y-18687443D01*
X106869243Y-18621754D01*
X106869241Y-18621753D01*
X106869240Y-18621753D01*
X106707957Y-18596208D01*
X106659287Y-18588500D01*
X106446713Y-18588500D01*
X106398042Y-18596208D01*
X106236760Y-18621753D01*
X106034585Y-18687444D01*
X105845179Y-18783951D01*
X105673213Y-18908890D01*
X105522892Y-19059211D01*
X105518974Y-19064605D01*
X105463643Y-19107270D01*
X105394029Y-19113248D01*
X105332235Y-19080641D01*
X105300951Y-19030723D01*
X105297357Y-19019878D01*
X105297356Y-19019875D01*
X105205315Y-18870654D01*
X105081345Y-18746684D01*
X104932124Y-18654643D01*
X104932119Y-18654641D01*
X104765697Y-18599494D01*
X104765690Y-18599493D01*
X104662986Y-18589000D01*
X104263000Y-18589000D01*
X104263000Y-19505988D01*
X104205993Y-19473075D01*
X104078826Y-19439000D01*
X103947174Y-19439000D01*
X103820007Y-19473075D01*
X103763000Y-19505988D01*
X103763000Y-18589000D01*
X103363028Y-18589000D01*
X103363012Y-18589001D01*
X103260302Y-18599494D01*
X103093880Y-18654641D01*
X103093875Y-18654643D01*
X102944654Y-18746684D01*
X102820684Y-18870654D01*
X102728643Y-19019875D01*
X102728641Y-19019880D01*
X102673494Y-19186302D01*
X102673493Y-19186309D01*
X102663000Y-19289013D01*
X102663000Y-19689000D01*
X103579988Y-19689000D01*
X103547075Y-19746007D01*
X103513000Y-19873174D01*
X103513000Y-20004826D01*
X103547075Y-20131993D01*
X103579988Y-20189000D01*
X102663001Y-20189000D01*
X102663001Y-20588986D01*
X102673494Y-20691697D01*
X102728641Y-20858119D01*
X102728643Y-20858124D01*
X102820684Y-21007345D01*
X102944654Y-21131315D01*
X103093875Y-21223356D01*
X103093882Y-21223359D01*
X103165809Y-21247193D01*
X103223254Y-21286965D01*
X103250078Y-21351481D01*
X103250245Y-21362691D01*
X103883591Y-21996037D01*
X103820007Y-22013075D01*
X103705993Y-22078901D01*
X103612901Y-22171993D01*
X103547075Y-22286007D01*
X103530037Y-22349591D01*
X102897728Y-21717282D01*
X102897727Y-21717282D01*
X102858380Y-21771439D01*
X102761904Y-21960782D01*
X102696242Y-22162869D01*
X102696242Y-22162872D01*
X102663000Y-22372753D01*
X102663000Y-22585246D01*
X102696242Y-22795127D01*
X102696242Y-22795130D01*
X102761904Y-22997217D01*
X102858375Y-23186550D01*
X102897728Y-23240716D01*
X103530036Y-22608407D01*
X103547075Y-22671993D01*
X103612901Y-22786007D01*
X103705993Y-22879099D01*
X103820007Y-22944925D01*
X103883590Y-22961962D01*
X103251282Y-23594269D01*
X103251282Y-23594270D01*
X103305452Y-23633626D01*
X103305451Y-23633626D01*
X103314495Y-23638234D01*
X103365292Y-23686208D01*
X103382087Y-23754029D01*
X103359550Y-23820164D01*
X103314499Y-23859202D01*
X103305182Y-23863949D01*
X103133213Y-23988890D01*
X102982890Y-24139213D01*
X102857951Y-24311179D01*
X102761444Y-24500585D01*
X102761443Y-24500587D01*
X102761443Y-24500588D01*
X102743000Y-24557349D01*
X102695753Y-24702760D01*
X102671442Y-24856255D01*
X102662500Y-24912713D01*
X102662500Y-25125287D01*
X102671723Y-25183519D01*
X102685021Y-25267482D01*
X102695754Y-25335243D01*
X102760180Y-25533526D01*
X102761444Y-25537414D01*
X102857951Y-25726820D01*
X102982890Y-25898786D01*
X103133213Y-26049109D01*
X103305182Y-26174050D01*
X103313946Y-26178516D01*
X103364742Y-26226491D01*
X103381536Y-26294312D01*
X103358998Y-26360447D01*
X103313946Y-26399484D01*
X103305182Y-26403949D01*
X103133215Y-26528889D01*
X103025646Y-26636458D01*
X102964323Y-26669942D01*
X102894631Y-26664958D01*
X102850284Y-26636457D01*
X101946319Y-25732492D01*
X101912834Y-25671169D01*
X101910000Y-25644811D01*
X101910000Y-18297189D01*
X101929685Y-18230150D01*
X101946319Y-18209508D01*
X105839508Y-14316319D01*
X105900831Y-14282834D01*
X105927189Y-14280000D01*
X113930811Y-14280000D01*
X113997850Y-14299685D01*
G37*
%TD.AperFunction*%
%TA.AperFunction,Conductor*%
G36*
X106087075Y-22671993D02*
G01*
X106152901Y-22786007D01*
X106245993Y-22879099D01*
X106360007Y-22944925D01*
X106423590Y-22961962D01*
X105791282Y-23594269D01*
X105791282Y-23594270D01*
X105845452Y-23633626D01*
X105845451Y-23633626D01*
X105854495Y-23638234D01*
X105905292Y-23686208D01*
X105922087Y-23754029D01*
X105899550Y-23820164D01*
X105854499Y-23859202D01*
X105845182Y-23863949D01*
X105673213Y-23988890D01*
X105522890Y-24139213D01*
X105397949Y-24311182D01*
X105393484Y-24319946D01*
X105345509Y-24370742D01*
X105277688Y-24387536D01*
X105211553Y-24364998D01*
X105172516Y-24319946D01*
X105168050Y-24311182D01*
X105043109Y-24139213D01*
X104892786Y-23988890D01*
X104720817Y-23863949D01*
X104711504Y-23859204D01*
X104660707Y-23811230D01*
X104643912Y-23743409D01*
X104666449Y-23677274D01*
X104711507Y-23638232D01*
X104720555Y-23633622D01*
X104774716Y-23594270D01*
X104774717Y-23594270D01*
X104142408Y-22961962D01*
X104205993Y-22944925D01*
X104320007Y-22879099D01*
X104413099Y-22786007D01*
X104478925Y-22671993D01*
X104495962Y-22608408D01*
X105128270Y-23240717D01*
X105128270Y-23240716D01*
X105167622Y-23186554D01*
X105172514Y-23176954D01*
X105220488Y-23126157D01*
X105288308Y-23109361D01*
X105354444Y-23131897D01*
X105393486Y-23176954D01*
X105398375Y-23186550D01*
X105437728Y-23240716D01*
X106070037Y-22608408D01*
X106087075Y-22671993D01*
G37*
%TD.AperFunction*%
%TA.AperFunction,Conductor*%
G36*
X166312000Y-23881000D02*
G01*
X163312000Y-23881000D01*
X163312000Y-23381000D01*
X166312000Y-23381000D01*
X166312000Y-23881000D01*
G37*
%TD.AperFunction*%
%TA.AperFunction,Conductor*%
G36*
X105474014Y-20775323D02*
G01*
X105518977Y-20813399D01*
X105522890Y-20818785D01*
X105522894Y-20818790D01*
X105673213Y-20969109D01*
X105845179Y-21094048D01*
X105845181Y-21094049D01*
X105845184Y-21094051D01*
X105854493Y-21098794D01*
X105905290Y-21146766D01*
X105922087Y-21214587D01*
X105899552Y-21280722D01*
X105854505Y-21319760D01*
X105845446Y-21324376D01*
X105845440Y-21324380D01*
X105791282Y-21363727D01*
X105791282Y-21363728D01*
X106423591Y-21996037D01*
X106360007Y-22013075D01*
X106245993Y-22078901D01*
X106152901Y-22171993D01*
X106087075Y-22286007D01*
X106070037Y-22349591D01*
X105437728Y-21717282D01*
X105437727Y-21717282D01*
X105398380Y-21771440D01*
X105393483Y-21781051D01*
X105345506Y-21831845D01*
X105277684Y-21848638D01*
X105211550Y-21826098D01*
X105172516Y-21781048D01*
X105167626Y-21771452D01*
X105128270Y-21717282D01*
X105128269Y-21717282D01*
X104495962Y-22349590D01*
X104478925Y-22286007D01*
X104413099Y-22171993D01*
X104320007Y-22078901D01*
X104205993Y-22013075D01*
X104142409Y-21996037D01*
X104778701Y-21359743D01*
X104789937Y-21306254D01*
X104838988Y-21256496D01*
X104860188Y-21247194D01*
X104932119Y-21223358D01*
X104932124Y-21223356D01*
X105081345Y-21131315D01*
X105205315Y-21007345D01*
X105297356Y-20858124D01*
X105297359Y-20858117D01*
X105300951Y-20847278D01*
X105340723Y-20789833D01*
X105405238Y-20763009D01*
X105474014Y-20775323D01*
G37*
%TD.AperFunction*%
%TD*%
M02*
