M48
; DRILL file {KiCad 9.0.4} date 2026-01-13T18:16:21-0500
; FORMAT={-:-/ absolute / metric / decimal}
; #@! TF.CreationDate,2026-01-13T18:16:21-05:00
; #@! TF.GenerationSoftware,Kicad,Pcbnew,9.0.4
; #@! TF.FileFunction,Plated,1,2,PTH
FMAT,2
METRIC
; #@! TA.AperFunction,Plated,PTH,ComponentDrill
T1C0.500
; #@! TA.AperFunction,Plated,PTH,ComponentDrill
T2C1.000
%
G90
G05
T2
X104.013Y-19.939
X104.013Y-22.479
X104.013Y-25.019
X104.013Y-27.559
X104.013Y-30.099
X104.013Y-32.639
X104.013Y-35.179
X104.013Y-37.719
X106.553Y-19.939
X106.553Y-22.479
X106.553Y-25.019
X106.553Y-27.559
X106.553Y-30.099
X106.553Y-32.639
X106.553Y-35.179
X106.553Y-37.719
T1
G00X116.475Y-18.062
M15
G01X118.475Y-18.062
M16
G05
G00X116.475Y-26.162
M15
G01X118.475Y-26.162
M16
G05
G00X130.312Y-18.231
M15
G01X132.312Y-18.231
M16
G05
G00X130.312Y-26.331
M15
G01X132.312Y-26.331
M16
G05
G00X130.312Y-31.651
M15
G01X132.312Y-31.651
M16
G05
G00X130.312Y-39.751
M15
G01X132.312Y-39.751
M16
G05
G00X143.712Y-18.231
M15
G01X145.712Y-18.231
M16
G05
G00X143.712Y-26.331
M15
G01X145.712Y-26.331
M16
G05
G00X143.712Y-31.651
M15
G01X145.712Y-31.651
M16
G05
G00X143.712Y-39.751
M15
G01X145.712Y-39.751
M16
G05
G00X157.112Y-18.231
M15
G01X159.112Y-18.231
M16
G05
G00X157.112Y-26.331
M15
G01X159.112Y-26.331
M16
G05
G00X157.112Y-31.651
M15
G01X159.112Y-31.651
M16
G05
G00X157.112Y-39.751
M15
G01X159.112Y-39.751
M16
G05
G00X170.512Y-18.231
M15
G01X172.512Y-18.231
M16
G05
G00X170.512Y-26.331
M15
G01X172.512Y-26.331
M16
G05
G00X170.512Y-31.651
M15
G01X172.512Y-31.651
M16
G05
G00X170.512Y-39.751
M15
G01X172.512Y-39.751
M16
G05
G00X183.912Y-18.231
M15
G01X185.912Y-18.231
M16
G05
G00X183.912Y-26.331
M15
G01X185.912Y-26.331
M16
G05
G00X183.912Y-31.651
M15
G01X185.912Y-31.651
M16
G05
G00X183.912Y-39.751
M15
G01X185.912Y-39.751
M16
G05
T2
G00X112.775Y-24.212
M15
G01X112.775Y-22.712
M16
G05
G00X122.175Y-23.862
M15
G01X122.175Y-23.062
M16
G05
G00X126.612Y-24.381
M15
G01X126.612Y-22.881
M16
G05
G00X126.612Y-37.801
M15
G01X126.612Y-36.301
M16
G05
G00X136.012Y-24.031
M15
G01X136.012Y-23.231
M16
G05
G00X136.012Y-37.451
M15
G01X136.012Y-36.651
M16
G05
G00X140.012Y-24.381
M15
G01X140.012Y-22.881
M16
G05
G00X140.012Y-37.801
M15
G01X140.012Y-36.301
M16
G05
G00X149.412Y-24.031
M15
G01X149.412Y-23.231
M16
G05
G00X149.412Y-37.451
M15
G01X149.412Y-36.651
M16
G05
G00X153.412Y-24.381
M15
G01X153.412Y-22.881
M16
G05
G00X153.412Y-37.801
M15
G01X153.412Y-36.301
M16
G05
G00X162.812Y-24.031
M15
G01X162.812Y-23.231
M16
G05
G00X162.812Y-37.451
M15
G01X162.812Y-36.651
M16
G05
G00X166.812Y-24.381
M15
G01X166.812Y-22.881
M16
G05
G00X166.812Y-37.801
M15
G01X166.812Y-36.301
M16
G05
G00X176.212Y-24.031
M15
G01X176.212Y-23.231
M16
G05
G00X176.212Y-37.451
M15
G01X176.212Y-36.651
M16
G05
G00X180.212Y-24.381
M15
G01X180.212Y-22.881
M16
G05
G00X180.212Y-37.801
M15
G01X180.212Y-36.301
M16
G05
G00X189.612Y-24.031
M15
G01X189.612Y-23.231
M16
G05
G00X189.612Y-37.451
M15
G01X189.612Y-36.651
M16
G05
M30
