%TF.GenerationSoftware,KiCad,Pcbnew,9.0.4*%
%TF.CreationDate,2026-01-13T18:16:17-05:00*%
%TF.ProjectId,electrosteel_synthboard_multichannelbreakout,656c6563-7472-46f7-9374-65656c5f7379,rev?*%
%TF.SameCoordinates,Original*%
%TF.FileFunction,Copper,L1,Top*%
%TF.FilePolarity,Positive*%
%FSLAX46Y46*%
G04 Gerber Fmt 4.6, Leading zero omitted, Abs format (unit mm)*
G04 Created by KiCad (PCBNEW 9.0.4) date 2026-01-13 18:16:17*
%MOMM*%
%LPD*%
G01*
G04 APERTURE LIST*
G04 Aperture macros list*
%AMRoundRect*
0 Rectangle with rounded corners*
0 $1 Rounding radius*
0 $2 $3 $4 $5 $6 $7 $8 $9 X,Y pos of 4 corners*
0 Add a 4 corners polygon primitive as box body*
4,1,4,$2,$3,$4,$5,$6,$7,$8,$9,$2,$3,0*
0 Add four circle primitives for the rounded corners*
1,1,$1+$1,$2,$3*
1,1,$1+$1,$4,$5*
1,1,$1+$1,$6,$7*
1,1,$1+$1,$8,$9*
0 Add four rect primitives between the rounded corners*
20,1,$1+$1,$2,$3,$4,$5,0*
20,1,$1+$1,$4,$5,$6,$7,0*
20,1,$1+$1,$6,$7,$8,$9,0*
20,1,$1+$1,$8,$9,$2,$3,0*%
G04 Aperture macros list end*
%TA.AperFunction,ComponentPad*%
%ADD10O,3.000000X3.800000*%
%TD*%
%TA.AperFunction,ComponentPad*%
%ADD11O,3.000000X4.500000*%
%TD*%
%TA.AperFunction,ComponentPad*%
%ADD12O,4.000000X2.000000*%
%TD*%
%TA.AperFunction,ComponentPad*%
%ADD13RoundRect,0.250000X-0.600000X-0.600000X0.600000X-0.600000X0.600000X0.600000X-0.600000X0.600000X0*%
%TD*%
%TA.AperFunction,ComponentPad*%
%ADD14C,1.700000*%
%TD*%
%TA.AperFunction,Conductor*%
%ADD15C,0.254000*%
%TD*%
%TA.AperFunction,Conductor*%
%ADD16C,0.635000*%
%TD*%
%TA.AperFunction,Conductor*%
%ADD17C,0.508000*%
%TD*%
G04 APERTURE END LIST*
D10*
%TO.P,J2,S,SHEILD*%
%TO.N,GND*%
X136012000Y-23631000D03*
D11*
X126612000Y-23631000D03*
D12*
%TO.P,J2,TN,SW*%
%TO.N,unconnected-(J2-SW-PadTN)*%
X131312000Y-26331000D03*
%TO.P,J2,T,SIG*%
%TO.N,ch1*%
X131312000Y-18231000D03*
%TD*%
D10*
%TO.P,J11,S,SHEILD*%
%TO.N,GND*%
X189612000Y-37051000D03*
D11*
X180212000Y-37051000D03*
D12*
%TO.P,J11,TN,SW*%
%TO.N,unconnected-(J11-SW-PadTN)*%
X184912000Y-39751000D03*
%TO.P,J11,T,SIG*%
%TO.N,ch10*%
X184912000Y-31651000D03*
%TD*%
D10*
%TO.P,J5,S,SHEILD*%
%TO.N,GND*%
X176212000Y-23631000D03*
D11*
X166812000Y-23631000D03*
D12*
%TO.P,J5,TN,SW*%
%TO.N,unconnected-(J5-SW-PadTN)*%
X171512000Y-26331000D03*
%TO.P,J5,T,SIG*%
%TO.N,ch4*%
X171512000Y-18231000D03*
%TD*%
D10*
%TO.P,J3,S,SHEILD*%
%TO.N,GND*%
X149412000Y-23631000D03*
D11*
X140012000Y-23631000D03*
D12*
%TO.P,J3,TN,SW*%
%TO.N,unconnected-(J3-SW-PadTN)*%
X144712000Y-26331000D03*
%TO.P,J3,T,SIG*%
%TO.N,ch2*%
X144712000Y-18231000D03*
%TD*%
D10*
%TO.P,J7,S,SHEILD*%
%TO.N,GND*%
X136012000Y-37051000D03*
D11*
X126612000Y-37051000D03*
D12*
%TO.P,J7,TN,SW*%
%TO.N,unconnected-(J7-SW-PadTN)*%
X131312000Y-39751000D03*
%TO.P,J7,T,SIG*%
%TO.N,ch6*%
X131312000Y-31651000D03*
%TD*%
D10*
%TO.P,J12,S,SHEILD*%
%TO.N,GND*%
X122175000Y-23462000D03*
D11*
X112775000Y-23462000D03*
D12*
%TO.P,J12,TN,SW*%
%TO.N,unconnected-(J12-SW-PadTN)*%
X117475000Y-26162000D03*
%TO.P,J12,T,SIG*%
%TO.N,mix*%
X117475000Y-18062000D03*
%TD*%
D10*
%TO.P,J9,S,SHEILD*%
%TO.N,GND*%
X162812000Y-37051000D03*
D11*
X153412000Y-37051000D03*
D12*
%TO.P,J9,TN,SW*%
%TO.N,unconnected-(J9-SW-PadTN)*%
X158112000Y-39751000D03*
%TO.P,J9,T,SIG*%
%TO.N,ch8*%
X158112000Y-31651000D03*
%TD*%
D10*
%TO.P,J8,S,SHEILD*%
%TO.N,GND*%
X149412000Y-37051000D03*
D11*
X140012000Y-37051000D03*
D12*
%TO.P,J8,TN,SW*%
%TO.N,unconnected-(J8-SW-PadTN)*%
X144712000Y-39751000D03*
%TO.P,J8,T,SIG*%
%TO.N,ch7*%
X144712000Y-31651000D03*
%TD*%
D10*
%TO.P,J10,S,SHEILD*%
%TO.N,GND*%
X176212000Y-37051000D03*
D11*
X166812000Y-37051000D03*
D12*
%TO.P,J10,TN,SW*%
%TO.N,unconnected-(J10-SW-PadTN)*%
X171512000Y-39751000D03*
%TO.P,J10,T,SIG*%
%TO.N,ch9*%
X171512000Y-31651000D03*
%TD*%
D10*
%TO.P,J6,S,SHEILD*%
%TO.N,GND*%
X189612000Y-23631000D03*
D11*
X180212000Y-23631000D03*
D12*
%TO.P,J6,TN,SW*%
%TO.N,unconnected-(J6-SW-PadTN)*%
X184912000Y-26331000D03*
%TO.P,J6,T,SIG*%
%TO.N,ch5*%
X184912000Y-18231000D03*
%TD*%
D10*
%TO.P,J4,S,SHEILD*%
%TO.N,GND*%
X162812000Y-23631000D03*
D11*
X153412000Y-23631000D03*
D12*
%TO.P,J4,TN,SW*%
%TO.N,unconnected-(J4-SW-PadTN)*%
X158112000Y-26331000D03*
%TO.P,J4,T,SIG*%
%TO.N,ch3*%
X158112000Y-18231000D03*
%TD*%
D13*
%TO.P,J1,1,Pin_1*%
%TO.N,GND*%
X104013000Y-19939000D03*
D14*
%TO.P,J1,2,Pin_2*%
%TO.N,mix*%
X106553000Y-19939000D03*
%TO.P,J1,3,Pin_3*%
%TO.N,GND*%
X104013000Y-22479000D03*
%TO.P,J1,4,Pin_4*%
X106553000Y-22479000D03*
%TO.P,J1,5,Pin_5*%
%TO.N,ch5*%
X104013000Y-25019000D03*
%TO.P,J1,6,Pin_6*%
%TO.N,unconnected-(J1-Pin_6-Pad6)*%
X106553000Y-25019000D03*
%TO.P,J1,7,Pin_7*%
%TO.N,ch7*%
X104013000Y-27559000D03*
%TO.P,J1,8,Pin_8*%
%TO.N,unconnected-(J1-Pin_8-Pad8)*%
X106553000Y-27559000D03*
%TO.P,J1,9,Pin_9*%
%TO.N,ch1*%
X104013000Y-30099000D03*
%TO.P,J1,10,Pin_10*%
%TO.N,ch3*%
X106553000Y-30099000D03*
%TO.P,J1,11,Pin_11*%
%TO.N,ch6*%
X104013000Y-32639000D03*
%TO.P,J1,12,Pin_12*%
%TO.N,ch2*%
X106553000Y-32639000D03*
%TO.P,J1,13,Pin_13*%
%TO.N,ch10*%
X104013000Y-35179000D03*
%TO.P,J1,14,Pin_14*%
%TO.N,ch4*%
X106553000Y-35179000D03*
%TO.P,J1,15,Pin_15*%
%TO.N,ch9*%
X104013000Y-37719000D03*
%TO.P,J1,16,Pin_16*%
%TO.N,ch8*%
X106553000Y-37719000D03*
%TD*%
D15*
%TO.N,ch5*%
X104013000Y-25019000D02*
X105283000Y-26289000D01*
X105283000Y-26289000D02*
X108966000Y-26289000D01*
X108966000Y-26289000D02*
X109058000Y-26197000D01*
D16*
%TO.N,ch2*%
X106553000Y-32639000D02*
X110744000Y-28448000D01*
X110744000Y-28448000D02*
X139065000Y-28448000D01*
X139065000Y-28448000D02*
X142621000Y-24892000D01*
X142621000Y-19939000D02*
X144329000Y-18231000D01*
X142621000Y-24892000D02*
X142621000Y-19939000D01*
X144329000Y-18231000D02*
X144712000Y-18231000D01*
%TO.N,ch4*%
X106553000Y-35179000D02*
X112141000Y-29591000D01*
X112141000Y-29591000D02*
X166116000Y-29591000D01*
X166116000Y-29591000D02*
X168910000Y-26797000D01*
X168910000Y-19939000D02*
X170618000Y-18231000D01*
X168910000Y-26797000D02*
X168910000Y-19939000D01*
X170618000Y-18231000D02*
X171512000Y-18231000D01*
D17*
%TO.N,ch5*%
X127635000Y-19939000D02*
X128270000Y-20574000D01*
X128270000Y-20574000D02*
X134239000Y-20574000D01*
X134239000Y-20574000D02*
X138938000Y-15875000D01*
X138938000Y-15875000D02*
X182556000Y-15875000D01*
X111379000Y-19939000D02*
X109855000Y-21463000D01*
X127635000Y-19939000D02*
X111379000Y-19939000D01*
X109855000Y-21463000D02*
X109855000Y-25400000D01*
X109855000Y-25400000D02*
X109058000Y-26197000D01*
D16*
%TO.N,ch9*%
X104013000Y-37719000D02*
X110363000Y-44069000D01*
X169164000Y-38303590D02*
X169164000Y-33999000D01*
X169164000Y-33999000D02*
X171512000Y-31651000D01*
X110363000Y-44069000D02*
X163398590Y-44069000D01*
X163398590Y-44069000D02*
X169164000Y-38303590D01*
%TO.N,ch5*%
X182556000Y-15875000D02*
X184912000Y-18231000D01*
%TO.N,ch8*%
X106553000Y-37719000D02*
X111506000Y-42672000D01*
X111506000Y-42672000D02*
X153797000Y-42672000D01*
X153797000Y-42672000D02*
X155448000Y-41021000D01*
X155448000Y-41021000D02*
X155448000Y-32639000D01*
X156436000Y-31651000D02*
X158112000Y-31651000D01*
X155448000Y-32639000D02*
X156436000Y-31651000D01*
%TO.N,mix*%
X106553000Y-19939000D02*
X108430000Y-18062000D01*
X108430000Y-18062000D02*
X117475000Y-18062000D01*
%TD*%
%TA.AperFunction,Conductor*%
%TO.N,GND*%
G36*
X139512000Y-37301000D02*
G01*
X136512000Y-37301000D01*
X136512000Y-36801000D01*
X139512000Y-36801000D01*
X139512000Y-37301000D01*
G37*
%TD.AperFunction*%
%TA.AperFunction,Conductor*%
G36*
X129199650Y-30428685D02*
G01*
X129245405Y-30481489D01*
X129255349Y-30550647D01*
X129226324Y-30614203D01*
X129220292Y-30620681D01*
X129167485Y-30673487D01*
X129167485Y-30673488D01*
X129167483Y-30673490D01*
X129126090Y-30730463D01*
X129028657Y-30864566D01*
X128921433Y-31075003D01*
X128848446Y-31299631D01*
X128811500Y-31532902D01*
X128811500Y-31769097D01*
X128848446Y-32002368D01*
X128921433Y-32226996D01*
X128970228Y-32322760D01*
X129028657Y-32437433D01*
X129167483Y-32628510D01*
X129334490Y-32795517D01*
X129525567Y-32934343D01*
X129566578Y-32955239D01*
X129736003Y-33041566D01*
X129736005Y-33041566D01*
X129736008Y-33041568D01*
X129856412Y-33080689D01*
X129960631Y-33114553D01*
X130193903Y-33151500D01*
X130193908Y-33151500D01*
X132430097Y-33151500D01*
X132663368Y-33114553D01*
X132688642Y-33106341D01*
X132887992Y-33041568D01*
X133098433Y-32934343D01*
X133289510Y-32795517D01*
X133456517Y-32628510D01*
X133595343Y-32437433D01*
X133702568Y-32226992D01*
X133775553Y-32002368D01*
X133785440Y-31939946D01*
X133812500Y-31769097D01*
X133812500Y-31532902D01*
X133775553Y-31299631D01*
X133741689Y-31195412D01*
X133702568Y-31075008D01*
X133702566Y-31075004D01*
X133702566Y-31075003D01*
X133595342Y-30864566D01*
X133553384Y-30806816D01*
X133456517Y-30673490D01*
X133403708Y-30620681D01*
X133370223Y-30559358D01*
X133375207Y-30489666D01*
X133417079Y-30433733D01*
X133482543Y-30409316D01*
X133491389Y-30409000D01*
X142532611Y-30409000D01*
X142599650Y-30428685D01*
X142645405Y-30481489D01*
X142655349Y-30550647D01*
X142626324Y-30614203D01*
X142620292Y-30620681D01*
X142567485Y-30673487D01*
X142567485Y-30673488D01*
X142567483Y-30673490D01*
X142526090Y-30730463D01*
X142428657Y-30864566D01*
X142321433Y-31075003D01*
X142248446Y-31299631D01*
X142211500Y-31532902D01*
X142211500Y-31769097D01*
X142248446Y-32002368D01*
X142321433Y-32226996D01*
X142370228Y-32322760D01*
X142428657Y-32437433D01*
X142567483Y-32628510D01*
X142734490Y-32795517D01*
X142925567Y-32934343D01*
X142966578Y-32955239D01*
X143136003Y-33041566D01*
X143136005Y-33041566D01*
X143136008Y-33041568D01*
X143256412Y-33080689D01*
X143360631Y-33114553D01*
X143593903Y-33151500D01*
X143593908Y-33151500D01*
X145830097Y-33151500D01*
X146063368Y-33114553D01*
X146088642Y-33106341D01*
X146287992Y-33041568D01*
X146498433Y-32934343D01*
X146689510Y-32795517D01*
X146856517Y-32628510D01*
X146995343Y-32437433D01*
X147102568Y-32226992D01*
X147175553Y-32002368D01*
X147185440Y-31939946D01*
X147212500Y-31769097D01*
X147212500Y-31532902D01*
X147175553Y-31299631D01*
X147141689Y-31195412D01*
X147102568Y-31075008D01*
X147102566Y-31075004D01*
X147102566Y-31075003D01*
X146995342Y-30864566D01*
X146953384Y-30806816D01*
X146856517Y-30673490D01*
X146803708Y-30620681D01*
X146770223Y-30559358D01*
X146775207Y-30489666D01*
X146817079Y-30433733D01*
X146882543Y-30409316D01*
X146891389Y-30409000D01*
X155932611Y-30409000D01*
X155999650Y-30428685D01*
X156045405Y-30481489D01*
X156055349Y-30550647D01*
X156026324Y-30614203D01*
X156020292Y-30620681D01*
X155967485Y-30673487D01*
X155967485Y-30673488D01*
X155967483Y-30673490D01*
X155926090Y-30730463D01*
X155828657Y-30864566D01*
X155721433Y-31075004D01*
X155666263Y-31244796D01*
X155636013Y-31294158D01*
X154812620Y-32117551D01*
X154812617Y-32117555D01*
X154723098Y-32251528D01*
X154723097Y-32251531D01*
X154708662Y-32286381D01*
X154708662Y-32286382D01*
X154661435Y-32400397D01*
X154661433Y-32400405D01*
X154630000Y-32558429D01*
X154630000Y-34480037D01*
X154610315Y-34547076D01*
X154557511Y-34592831D01*
X154488353Y-34602775D01*
X154444000Y-34587424D01*
X154298482Y-34503409D01*
X154298471Y-34503404D01*
X154056255Y-34403075D01*
X153803016Y-34335221D01*
X153662000Y-34316654D01*
X153662000Y-35867988D01*
X153604993Y-35835075D01*
X153477826Y-35801000D01*
X153346174Y-35801000D01*
X153219007Y-35835075D01*
X153162000Y-35867988D01*
X153162000Y-34316654D01*
X153020983Y-34335221D01*
X152767744Y-34403075D01*
X152525528Y-34503404D01*
X152525517Y-34503409D01*
X152298471Y-34634496D01*
X152090480Y-34794092D01*
X152090473Y-34794098D01*
X151905098Y-34979473D01*
X151905092Y-34979480D01*
X151745496Y-35187471D01*
X151614409Y-35414517D01*
X151614404Y-35414528D01*
X151514076Y-35656742D01*
X151471486Y-35815692D01*
X151435121Y-35875352D01*
X151372274Y-35905881D01*
X151302898Y-35897586D01*
X151249020Y-35853101D01*
X151237150Y-35831050D01*
X151209598Y-35764533D01*
X151209590Y-35764517D01*
X151078503Y-35537471D01*
X150918907Y-35329480D01*
X150918901Y-35329473D01*
X150733526Y-35144098D01*
X150733519Y-35144092D01*
X150525528Y-34984496D01*
X150298482Y-34853409D01*
X150298471Y-34853404D01*
X150056255Y-34753075D01*
X149803016Y-34685221D01*
X149662000Y-34666654D01*
X149662000Y-36217988D01*
X149604993Y-36185075D01*
X149477826Y-36151000D01*
X149346174Y-36151000D01*
X149219007Y-36185075D01*
X149162000Y-36217988D01*
X149162000Y-34666654D01*
X149161999Y-34666654D01*
X149020983Y-34685221D01*
X148767744Y-34753075D01*
X148525528Y-34853404D01*
X148525517Y-34853409D01*
X148298471Y-34984496D01*
X148090480Y-35144092D01*
X148090473Y-35144098D01*
X147905098Y-35329473D01*
X147905092Y-35329480D01*
X147745496Y-35537471D01*
X147614409Y-35764517D01*
X147614404Y-35764528D01*
X147514075Y-36006744D01*
X147446222Y-36259979D01*
X147446220Y-36259990D01*
X147412000Y-36519905D01*
X147412000Y-36801000D01*
X148912000Y-36801000D01*
X148912000Y-37301000D01*
X147412000Y-37301000D01*
X147412000Y-37582094D01*
X147446220Y-37842009D01*
X147446222Y-37842020D01*
X147514075Y-38095255D01*
X147614404Y-38337471D01*
X147614409Y-38337482D01*
X147745496Y-38564528D01*
X147905092Y-38772519D01*
X147905098Y-38772526D01*
X148090473Y-38957901D01*
X148090480Y-38957907D01*
X148298471Y-39117503D01*
X148525517Y-39248590D01*
X148525528Y-39248595D01*
X148767744Y-39348924D01*
X149020979Y-39416777D01*
X149020992Y-39416780D01*
X149162000Y-39435343D01*
X149162000Y-37884012D01*
X149219007Y-37916925D01*
X149346174Y-37951000D01*
X149477826Y-37951000D01*
X149604993Y-37916925D01*
X149662000Y-37884012D01*
X149662000Y-39435342D01*
X149803007Y-39416780D01*
X149803020Y-39416777D01*
X150056255Y-39348924D01*
X150298471Y-39248595D01*
X150298482Y-39248590D01*
X150525528Y-39117503D01*
X150733519Y-38957907D01*
X150733526Y-38957901D01*
X150918901Y-38772526D01*
X150918907Y-38772519D01*
X151078503Y-38564528D01*
X151209590Y-38337482D01*
X151209598Y-38337466D01*
X151237150Y-38270949D01*
X151280990Y-38216545D01*
X151347284Y-38194480D01*
X151414984Y-38211759D01*
X151462594Y-38262896D01*
X151471486Y-38286308D01*
X151514075Y-38445255D01*
X151614404Y-38687471D01*
X151614409Y-38687482D01*
X151745496Y-38914528D01*
X151905092Y-39122519D01*
X151905098Y-39122526D01*
X152090473Y-39307901D01*
X152090480Y-39307907D01*
X152298471Y-39467503D01*
X152525517Y-39598590D01*
X152525528Y-39598595D01*
X152767744Y-39698924D01*
X153020979Y-39766777D01*
X153020992Y-39766780D01*
X153162000Y-39785343D01*
X153162000Y-38234012D01*
X153219007Y-38266925D01*
X153346174Y-38301000D01*
X153477826Y-38301000D01*
X153604993Y-38266925D01*
X153662000Y-38234012D01*
X153662000Y-39785342D01*
X153803007Y-39766780D01*
X153803020Y-39766777D01*
X154056255Y-39698924D01*
X154298471Y-39598595D01*
X154298482Y-39598590D01*
X154444000Y-39514575D01*
X154511900Y-39498102D01*
X154577927Y-39520954D01*
X154621117Y-39575875D01*
X154630000Y-39621962D01*
X154630000Y-40630811D01*
X154610315Y-40697850D01*
X154593681Y-40718492D01*
X153494492Y-41817681D01*
X153433169Y-41851166D01*
X153406811Y-41854000D01*
X111896188Y-41854000D01*
X111829149Y-41834315D01*
X111808507Y-41817681D01*
X109595284Y-39604457D01*
X109512475Y-39521648D01*
X114396500Y-39521648D01*
X114396500Y-39726351D01*
X114428522Y-39928534D01*
X114491781Y-40123223D01*
X114584715Y-40305613D01*
X114705028Y-40471213D01*
X114849786Y-40615971D01*
X114990897Y-40718492D01*
X115015390Y-40736287D01*
X115131607Y-40795503D01*
X115197776Y-40829218D01*
X115197778Y-40829218D01*
X115197781Y-40829220D01*
X115302137Y-40863127D01*
X115392465Y-40892477D01*
X115493557Y-40908488D01*
X115594648Y-40924500D01*
X115594649Y-40924500D01*
X115799351Y-40924500D01*
X115799352Y-40924500D01*
X116001534Y-40892477D01*
X116196219Y-40829220D01*
X116378610Y-40736287D01*
X116471590Y-40668732D01*
X116544213Y-40615971D01*
X116544215Y-40615968D01*
X116544219Y-40615966D01*
X116688966Y-40471219D01*
X116688968Y-40471215D01*
X116688971Y-40471213D01*
X116793752Y-40326992D01*
X116809287Y-40305610D01*
X116902220Y-40123219D01*
X116965477Y-39928534D01*
X116997500Y-39726352D01*
X116997500Y-39521648D01*
X116965477Y-39319466D01*
X116961721Y-39307907D01*
X116902218Y-39124776D01*
X116857109Y-39036246D01*
X116809287Y-38942390D01*
X116789044Y-38914528D01*
X116688971Y-38776786D01*
X116544213Y-38632028D01*
X116378613Y-38511715D01*
X116378612Y-38511714D01*
X116378610Y-38511713D01*
X116321653Y-38482691D01*
X116196223Y-38418781D01*
X116001534Y-38355522D01*
X115826995Y-38327878D01*
X115799352Y-38323500D01*
X115594648Y-38323500D01*
X115570329Y-38327351D01*
X115392465Y-38355522D01*
X115197776Y-38418781D01*
X115015386Y-38511715D01*
X114849786Y-38632028D01*
X114705028Y-38776786D01*
X114584715Y-38942386D01*
X114491781Y-39124776D01*
X114428522Y-39319465D01*
X114396500Y-39521648D01*
X109512475Y-39521648D01*
X107936227Y-37945400D01*
X107902742Y-37884077D01*
X107901435Y-37838322D01*
X107903500Y-37825287D01*
X107903500Y-37612713D01*
X107870246Y-37402757D01*
X107804557Y-37200588D01*
X107708051Y-37011184D01*
X107708049Y-37011181D01*
X107708048Y-37011179D01*
X107583109Y-36839213D01*
X107432786Y-36688890D01*
X107260820Y-36563951D01*
X107260115Y-36563591D01*
X107252054Y-36559485D01*
X107201259Y-36511512D01*
X107184463Y-36443692D01*
X107206999Y-36377556D01*
X107252054Y-36338515D01*
X107260816Y-36334051D01*
X107362753Y-36259990D01*
X107432786Y-36209109D01*
X107432788Y-36209106D01*
X107432792Y-36209104D01*
X107471991Y-36169905D01*
X124612000Y-36169905D01*
X124612000Y-36801000D01*
X126112000Y-36801000D01*
X126112000Y-37301000D01*
X124612000Y-37301000D01*
X124612000Y-37932094D01*
X124646220Y-38192009D01*
X124646222Y-38192020D01*
X124714075Y-38445255D01*
X124814404Y-38687471D01*
X124814409Y-38687482D01*
X124945496Y-38914528D01*
X125105092Y-39122519D01*
X125105098Y-39122526D01*
X125290473Y-39307901D01*
X125290480Y-39307907D01*
X125498471Y-39467503D01*
X125725517Y-39598590D01*
X125725528Y-39598595D01*
X125967744Y-39698924D01*
X126220979Y-39766777D01*
X126220992Y-39766780D01*
X126362000Y-39785343D01*
X126362000Y-38234012D01*
X126419007Y-38266925D01*
X126546174Y-38301000D01*
X126677826Y-38301000D01*
X126804993Y-38266925D01*
X126862000Y-38234012D01*
X126862000Y-39785342D01*
X127003007Y-39766780D01*
X127003020Y-39766777D01*
X127256255Y-39698924D01*
X127415646Y-39632902D01*
X128811500Y-39632902D01*
X128811500Y-39869097D01*
X128848446Y-40102368D01*
X128921433Y-40326996D01*
X128994916Y-40471213D01*
X129028657Y-40537433D01*
X129167483Y-40728510D01*
X129334490Y-40895517D01*
X129525567Y-41034343D01*
X129609575Y-41077147D01*
X129736003Y-41141566D01*
X129736005Y-41141566D01*
X129736008Y-41141568D01*
X129834694Y-41173633D01*
X129960631Y-41214553D01*
X130193903Y-41251500D01*
X130193908Y-41251500D01*
X132430097Y-41251500D01*
X132663368Y-41214553D01*
X132887992Y-41141568D01*
X133098433Y-41034343D01*
X133289510Y-40895517D01*
X133456517Y-40728510D01*
X133595343Y-40537433D01*
X133702568Y-40326992D01*
X133775553Y-40102368D01*
X133775690Y-40101500D01*
X133812500Y-39869097D01*
X133812500Y-39632902D01*
X133775553Y-39399631D01*
X133702566Y-39175003D01*
X133595342Y-38964566D01*
X133579230Y-38942390D01*
X133456517Y-38773490D01*
X133289510Y-38606483D01*
X133098433Y-38467657D01*
X133054467Y-38445255D01*
X132887996Y-38360433D01*
X132663368Y-38287446D01*
X132430097Y-38250500D01*
X132430092Y-38250500D01*
X130193908Y-38250500D01*
X130193903Y-38250500D01*
X129960631Y-38287446D01*
X129736003Y-38360433D01*
X129525566Y-38467657D01*
X129416550Y-38546862D01*
X129334490Y-38606483D01*
X129334488Y-38606485D01*
X129334487Y-38606485D01*
X129167485Y-38773487D01*
X129167485Y-38773488D01*
X129167483Y-38773490D01*
X129107862Y-38855550D01*
X129028657Y-38964566D01*
X128921433Y-39175003D01*
X128848446Y-39399631D01*
X128811500Y-39632902D01*
X127415646Y-39632902D01*
X127498471Y-39598595D01*
X127498475Y-39598593D01*
X127633478Y-39520649D01*
X127633479Y-39520648D01*
X127725528Y-39467503D01*
X127933519Y-39307907D01*
X127933526Y-39307901D01*
X128118901Y-39122526D01*
X128118907Y-39122519D01*
X128278503Y-38914528D01*
X128409590Y-38687482D01*
X128409595Y-38687471D01*
X128509924Y-38445255D01*
X128577777Y-38192020D01*
X128577779Y-38192009D01*
X128611999Y-37932094D01*
X128612000Y-37932080D01*
X128612000Y-37301000D01*
X127112000Y-37301000D01*
X127112000Y-36801000D01*
X128612000Y-36801000D01*
X128612000Y-36519905D01*
X134012000Y-36519905D01*
X134012000Y-36801000D01*
X135512000Y-36801000D01*
X135512000Y-37301000D01*
X134012000Y-37301000D01*
X134012000Y-37582094D01*
X134046220Y-37842009D01*
X134046222Y-37842020D01*
X134114075Y-38095255D01*
X134214404Y-38337471D01*
X134214409Y-38337482D01*
X134345496Y-38564528D01*
X134505092Y-38772519D01*
X134505098Y-38772526D01*
X134690473Y-38957901D01*
X134690480Y-38957907D01*
X134898471Y-39117503D01*
X135125517Y-39248590D01*
X135125528Y-39248595D01*
X135367744Y-39348924D01*
X135620979Y-39416777D01*
X135620992Y-39416780D01*
X135762000Y-39435343D01*
X135762000Y-37884012D01*
X135819007Y-37916925D01*
X135946174Y-37951000D01*
X136077826Y-37951000D01*
X136204993Y-37916925D01*
X136262000Y-37884012D01*
X136262000Y-39435342D01*
X136403007Y-39416780D01*
X136403020Y-39416777D01*
X136656255Y-39348924D01*
X136898471Y-39248595D01*
X136898482Y-39248590D01*
X137125528Y-39117503D01*
X137333519Y-38957907D01*
X137333526Y-38957901D01*
X137518901Y-38772526D01*
X137518907Y-38772519D01*
X137678503Y-38564528D01*
X137809590Y-38337482D01*
X137809598Y-38337466D01*
X137837150Y-38270949D01*
X137880990Y-38216545D01*
X137947284Y-38194480D01*
X138014984Y-38211759D01*
X138062594Y-38262896D01*
X138071486Y-38286308D01*
X138114075Y-38445255D01*
X138214404Y-38687471D01*
X138214409Y-38687482D01*
X138345496Y-38914528D01*
X138505092Y-39122519D01*
X138505098Y-39122526D01*
X138690473Y-39307901D01*
X138690480Y-39307907D01*
X138898471Y-39467503D01*
X139125517Y-39598590D01*
X139125528Y-39598595D01*
X139367744Y-39698924D01*
X139620979Y-39766777D01*
X139620992Y-39766780D01*
X139762000Y-39785343D01*
X139762000Y-38234012D01*
X139819007Y-38266925D01*
X139946174Y-38301000D01*
X140077826Y-38301000D01*
X140204993Y-38266925D01*
X140262000Y-38234012D01*
X140262000Y-39785342D01*
X140403007Y-39766780D01*
X140403020Y-39766777D01*
X140656255Y-39698924D01*
X140815646Y-39632902D01*
X142211500Y-39632902D01*
X142211500Y-39869097D01*
X142248446Y-40102368D01*
X142321433Y-40326996D01*
X142394916Y-40471213D01*
X142428657Y-40537433D01*
X142567483Y-40728510D01*
X142734490Y-40895517D01*
X142925567Y-41034343D01*
X143009575Y-41077147D01*
X143136003Y-41141566D01*
X143136005Y-41141566D01*
X143136008Y-41141568D01*
X143234694Y-41173633D01*
X143360631Y-41214553D01*
X143593903Y-41251500D01*
X143593908Y-41251500D01*
X145830097Y-41251500D01*
X146063368Y-41214553D01*
X146287992Y-41141568D01*
X146498433Y-41034343D01*
X146689510Y-40895517D01*
X146856517Y-40728510D01*
X146995343Y-40537433D01*
X147102568Y-40326992D01*
X147175553Y-40102368D01*
X147175690Y-40101500D01*
X147212500Y-39869097D01*
X147212500Y-39632902D01*
X147175553Y-39399631D01*
X147102566Y-39175003D01*
X146995342Y-38964566D01*
X146979230Y-38942390D01*
X146856517Y-38773490D01*
X146689510Y-38606483D01*
X146498433Y-38467657D01*
X146454467Y-38445255D01*
X146287996Y-38360433D01*
X146063368Y-38287446D01*
X145830097Y-38250500D01*
X145830092Y-38250500D01*
X143593908Y-38250500D01*
X143593903Y-38250500D01*
X143360631Y-38287446D01*
X143136003Y-38360433D01*
X142925566Y-38467657D01*
X142816550Y-38546862D01*
X142734490Y-38606483D01*
X142734488Y-38606485D01*
X142734487Y-38606485D01*
X142567485Y-38773487D01*
X142567485Y-38773488D01*
X142567483Y-38773490D01*
X142507862Y-38855550D01*
X142428657Y-38964566D01*
X142321433Y-39175003D01*
X142248446Y-39399631D01*
X142211500Y-39632902D01*
X140815646Y-39632902D01*
X140898471Y-39598595D01*
X140898475Y-39598593D01*
X141033478Y-39520649D01*
X141033479Y-39520648D01*
X141125528Y-39467503D01*
X141333519Y-39307907D01*
X141333526Y-39307901D01*
X141518901Y-39122526D01*
X141518907Y-39122519D01*
X141678503Y-38914528D01*
X141809590Y-38687482D01*
X141809595Y-38687471D01*
X141909924Y-38445255D01*
X141977777Y-38192020D01*
X141977779Y-38192009D01*
X142011999Y-37932094D01*
X142012000Y-37932080D01*
X142012000Y-37301000D01*
X140512000Y-37301000D01*
X140512000Y-36801000D01*
X142012000Y-36801000D01*
X142012000Y-36169919D01*
X142011999Y-36169905D01*
X141977779Y-35909990D01*
X141977777Y-35909979D01*
X141909924Y-35656744D01*
X141809595Y-35414528D01*
X141809590Y-35414517D01*
X141678503Y-35187471D01*
X141518907Y-34979480D01*
X141518901Y-34979473D01*
X141333526Y-34794098D01*
X141333519Y-34794092D01*
X141125528Y-34634496D01*
X140898482Y-34503409D01*
X140898471Y-34503404D01*
X140656255Y-34403075D01*
X140403016Y-34335221D01*
X140262000Y-34316654D01*
X140262000Y-35867988D01*
X140204993Y-35835075D01*
X140077826Y-35801000D01*
X139946174Y-35801000D01*
X139819007Y-35835075D01*
X139762000Y-35867988D01*
X139762000Y-34316654D01*
X139761999Y-34316654D01*
X139620983Y-34335221D01*
X139367744Y-34403075D01*
X139125528Y-34503404D01*
X139125517Y-34503409D01*
X138898471Y-34634496D01*
X138690480Y-34794092D01*
X138690473Y-34794098D01*
X138505098Y-34979473D01*
X138505092Y-34979480D01*
X138345496Y-35187471D01*
X138214409Y-35414517D01*
X138214404Y-35414528D01*
X138114076Y-35656742D01*
X138071486Y-35815692D01*
X138035121Y-35875352D01*
X137972274Y-35905881D01*
X137902898Y-35897586D01*
X137849020Y-35853101D01*
X137837150Y-35831050D01*
X137809598Y-35764533D01*
X137809590Y-35764517D01*
X137678503Y-35537471D01*
X137518907Y-35329480D01*
X137518901Y-35329473D01*
X137333526Y-35144098D01*
X137333519Y-35144092D01*
X137125528Y-34984496D01*
X136898482Y-34853409D01*
X136898471Y-34853404D01*
X136656255Y-34753075D01*
X136403016Y-34685221D01*
X136262000Y-34666654D01*
X136262000Y-36217988D01*
X136204993Y-36185075D01*
X136077826Y-36151000D01*
X135946174Y-36151000D01*
X135819007Y-36185075D01*
X135762000Y-36217988D01*
X135762000Y-34666654D01*
X135620983Y-34685221D01*
X135367744Y-34753075D01*
X135125528Y-34853404D01*
X135125517Y-34853409D01*
X134898471Y-34984496D01*
X134690480Y-35144092D01*
X134690473Y-35144098D01*
X134505098Y-35329473D01*
X134505092Y-35329480D01*
X134345496Y-35537471D01*
X134214409Y-35764517D01*
X134214404Y-35764528D01*
X134114075Y-36006744D01*
X134046222Y-36259979D01*
X134046220Y-36259990D01*
X134012000Y-36519905D01*
X128612000Y-36519905D01*
X128612000Y-36169919D01*
X128611999Y-36169905D01*
X128577779Y-35909990D01*
X128577777Y-35909979D01*
X128509924Y-35656744D01*
X128409595Y-35414528D01*
X128409590Y-35414517D01*
X128278503Y-35187471D01*
X128118907Y-34979480D01*
X128118901Y-34979473D01*
X127933526Y-34794098D01*
X127933519Y-34794092D01*
X127725528Y-34634496D01*
X127498482Y-34503409D01*
X127498471Y-34503404D01*
X127256255Y-34403075D01*
X127003016Y-34335221D01*
X126862000Y-34316654D01*
X126862000Y-35867988D01*
X126804993Y-35835075D01*
X126677826Y-35801000D01*
X126546174Y-35801000D01*
X126419007Y-35835075D01*
X126362000Y-35867988D01*
X126362000Y-34316654D01*
X126361999Y-34316654D01*
X126220983Y-34335221D01*
X125967744Y-34403075D01*
X125725528Y-34503404D01*
X125725517Y-34503409D01*
X125498471Y-34634496D01*
X125290480Y-34794092D01*
X125290473Y-34794098D01*
X125105098Y-34979473D01*
X125105092Y-34979480D01*
X124945496Y-35187471D01*
X124814409Y-35414517D01*
X124814404Y-35414528D01*
X124714075Y-35656744D01*
X124646222Y-35909979D01*
X124646220Y-35909990D01*
X124612000Y-36169905D01*
X107471991Y-36169905D01*
X107583104Y-36058792D01*
X107583106Y-36058788D01*
X107583109Y-36058786D01*
X107708048Y-35886820D01*
X107708047Y-35886820D01*
X107708051Y-35886816D01*
X107804557Y-35697412D01*
X107870246Y-35495243D01*
X107903500Y-35285287D01*
X107903500Y-35072713D01*
X107901435Y-35059677D01*
X107910389Y-34990385D01*
X107936224Y-34952601D01*
X112443508Y-30445319D01*
X112504831Y-30411834D01*
X112531189Y-30409000D01*
X129132611Y-30409000D01*
X129199650Y-30428685D01*
G37*
%TD.AperFunction*%
%TA.AperFunction,Conductor*%
G36*
X152912000Y-37301000D02*
G01*
X149912000Y-37301000D01*
X149912000Y-36801000D01*
X152912000Y-36801000D01*
X152912000Y-37301000D01*
G37*
%TD.AperFunction*%
%TA.AperFunction,Conductor*%
G36*
X166312000Y-37301000D02*
G01*
X163312000Y-37301000D01*
X163312000Y-36801000D01*
X166312000Y-36801000D01*
X166312000Y-37301000D01*
G37*
%TD.AperFunction*%
%TA.AperFunction,Conductor*%
G36*
X143039599Y-16631294D02*
G01*
X143045861Y-16630119D01*
X143072720Y-16641020D01*
X143100526Y-16649185D01*
X143104696Y-16653998D01*
X143110602Y-16656395D01*
X143127306Y-16680091D01*
X143146281Y-16701989D01*
X143147187Y-16708293D01*
X143150859Y-16713502D01*
X143152100Y-16742460D01*
X143156225Y-16771147D01*
X143153578Y-16776942D01*
X143153851Y-16783307D01*
X143139241Y-16808336D01*
X143127200Y-16834703D01*
X143121034Y-16839527D01*
X143118629Y-16843649D01*
X143089782Y-16863985D01*
X142925566Y-16947657D01*
X142816550Y-17026862D01*
X142734490Y-17086483D01*
X142734488Y-17086485D01*
X142734487Y-17086485D01*
X142567485Y-17253487D01*
X142567485Y-17253488D01*
X142567483Y-17253490D01*
X142551444Y-17275566D01*
X142428657Y-17444566D01*
X142321433Y-17655003D01*
X142248446Y-17879631D01*
X142211500Y-18112902D01*
X142211500Y-18349097D01*
X142248446Y-18582368D01*
X142321434Y-18806999D01*
X142373269Y-18908731D01*
X142386165Y-18977400D01*
X142359888Y-19042140D01*
X142350465Y-19052706D01*
X141985620Y-19417551D01*
X141985617Y-19417555D01*
X141896098Y-19551528D01*
X141867087Y-19621569D01*
X141834436Y-19700393D01*
X141834433Y-19700405D01*
X141803000Y-19858429D01*
X141803000Y-21564425D01*
X141783315Y-21631464D01*
X141730511Y-21677219D01*
X141661353Y-21687163D01*
X141597797Y-21658138D01*
X141580624Y-21639911D01*
X141518907Y-21559480D01*
X141518901Y-21559473D01*
X141333526Y-21374098D01*
X141333519Y-21374092D01*
X141125528Y-21214496D01*
X140898482Y-21083409D01*
X140898471Y-21083404D01*
X140656255Y-20983075D01*
X140403016Y-20915221D01*
X140262000Y-20896654D01*
X140262000Y-22447988D01*
X140204993Y-22415075D01*
X140077826Y-22381000D01*
X139946174Y-22381000D01*
X139819007Y-22415075D01*
X139762000Y-22447988D01*
X139762000Y-20896654D01*
X139761999Y-20896654D01*
X139620983Y-20915221D01*
X139367744Y-20983075D01*
X139125528Y-21083404D01*
X139125517Y-21083409D01*
X138898471Y-21214496D01*
X138690480Y-21374092D01*
X138690473Y-21374098D01*
X138505098Y-21559473D01*
X138505092Y-21559480D01*
X138345496Y-21767471D01*
X138214409Y-21994517D01*
X138214404Y-21994528D01*
X138114076Y-22236742D01*
X138071486Y-22395692D01*
X138035121Y-22455352D01*
X137972274Y-22485881D01*
X137902898Y-22477586D01*
X137849020Y-22433101D01*
X137837150Y-22411050D01*
X137809598Y-22344533D01*
X137809590Y-22344517D01*
X137678503Y-22117471D01*
X137518907Y-21909480D01*
X137518901Y-21909473D01*
X137333526Y-21724098D01*
X137333519Y-21724092D01*
X137125528Y-21564496D01*
X136898482Y-21433409D01*
X136898471Y-21433404D01*
X136656255Y-21333075D01*
X136403016Y-21265221D01*
X136262000Y-21246654D01*
X136262000Y-22797988D01*
X136204993Y-22765075D01*
X136077826Y-22731000D01*
X135946174Y-22731000D01*
X135819007Y-22765075D01*
X135762000Y-22797988D01*
X135762000Y-21246654D01*
X135761999Y-21246654D01*
X135620983Y-21265221D01*
X135367744Y-21333075D01*
X135125528Y-21433404D01*
X135125517Y-21433409D01*
X134898471Y-21564496D01*
X134690480Y-21724092D01*
X134690473Y-21724098D01*
X134505098Y-21909473D01*
X134505092Y-21909480D01*
X134345496Y-22117471D01*
X134214409Y-22344517D01*
X134214404Y-22344528D01*
X134114075Y-22586744D01*
X134046222Y-22839979D01*
X134046220Y-22839990D01*
X134012000Y-23099905D01*
X134012000Y-23381000D01*
X135512000Y-23381000D01*
X135512000Y-23881000D01*
X134012000Y-23881000D01*
X134012000Y-24162094D01*
X134046220Y-24422009D01*
X134046222Y-24422020D01*
X134114075Y-24675255D01*
X134214404Y-24917471D01*
X134214409Y-24917482D01*
X134345496Y-25144528D01*
X134505092Y-25352519D01*
X134505098Y-25352526D01*
X134690473Y-25537901D01*
X134690480Y-25537907D01*
X134898471Y-25697503D01*
X135125517Y-25828590D01*
X135125528Y-25828595D01*
X135367744Y-25928924D01*
X135620979Y-25996777D01*
X135620992Y-25996780D01*
X135762000Y-26015343D01*
X135762000Y-24464012D01*
X135819007Y-24496925D01*
X135946174Y-24531000D01*
X136077826Y-24531000D01*
X136204993Y-24496925D01*
X136262000Y-24464012D01*
X136262000Y-26015342D01*
X136403007Y-25996780D01*
X136403020Y-25996777D01*
X136656255Y-25928924D01*
X136898471Y-25828595D01*
X136898482Y-25828590D01*
X137125528Y-25697503D01*
X137333519Y-25537907D01*
X137333526Y-25537901D01*
X137518901Y-25352526D01*
X137518907Y-25352519D01*
X137678503Y-25144528D01*
X137809590Y-24917482D01*
X137809598Y-24917466D01*
X137837150Y-24850949D01*
X137880990Y-24796545D01*
X137947284Y-24774480D01*
X138014984Y-24791759D01*
X138062594Y-24842896D01*
X138071486Y-24866308D01*
X138114075Y-25025255D01*
X138214404Y-25267471D01*
X138214409Y-25267482D01*
X138345496Y-25494528D01*
X138505092Y-25702519D01*
X138505098Y-25702526D01*
X138690473Y-25887901D01*
X138690480Y-25887907D01*
X138898471Y-26047503D01*
X139125517Y-26178590D01*
X139125528Y-26178595D01*
X139367744Y-26278924D01*
X139620979Y-26346777D01*
X139620992Y-26346780D01*
X139714911Y-26359145D01*
X139778808Y-26387411D01*
X139817279Y-26445736D01*
X139818110Y-26515601D01*
X139786407Y-26569765D01*
X138762492Y-27593681D01*
X138701169Y-27627166D01*
X138674811Y-27630000D01*
X133434389Y-27630000D01*
X133367350Y-27610315D01*
X133321595Y-27557511D01*
X133311651Y-27488353D01*
X133340676Y-27424797D01*
X133346708Y-27418319D01*
X133362600Y-27402427D01*
X133456517Y-27308510D01*
X133595343Y-27117433D01*
X133702568Y-26906992D01*
X133775553Y-26682368D01*
X133776053Y-26679213D01*
X133812500Y-26449097D01*
X133812500Y-26212902D01*
X133775553Y-25979631D01*
X133702566Y-25755003D01*
X133616458Y-25586008D01*
X133595343Y-25544567D01*
X133456517Y-25353490D01*
X133289510Y-25186483D01*
X133098433Y-25047657D01*
X133054467Y-25025255D01*
X132887996Y-24940433D01*
X132663368Y-24867446D01*
X132430097Y-24830500D01*
X132430092Y-24830500D01*
X130193908Y-24830500D01*
X130193903Y-24830500D01*
X129960631Y-24867446D01*
X129736003Y-24940433D01*
X129525566Y-25047657D01*
X129449185Y-25103152D01*
X129334490Y-25186483D01*
X129334488Y-25186485D01*
X129334487Y-25186485D01*
X129167485Y-25353487D01*
X129167485Y-25353488D01*
X129167483Y-25353490D01*
X129156282Y-25368907D01*
X129028657Y-25544566D01*
X128921433Y-25755003D01*
X128848446Y-25979631D01*
X128811500Y-26212902D01*
X128811500Y-26449097D01*
X128848446Y-26682368D01*
X128921433Y-26906996D01*
X129008982Y-27078819D01*
X129028657Y-27117433D01*
X129167483Y-27308510D01*
X129167485Y-27308512D01*
X129277292Y-27418319D01*
X129310777Y-27479642D01*
X129305793Y-27549334D01*
X129263921Y-27605267D01*
X129198457Y-27629684D01*
X129189611Y-27630000D01*
X119388907Y-27630000D01*
X119321868Y-27610315D01*
X119276113Y-27557511D01*
X119266169Y-27488353D01*
X119295194Y-27424797D01*
X119316019Y-27405683D01*
X119452510Y-27306517D01*
X119619517Y-27139510D01*
X119758343Y-26948433D01*
X119865568Y-26737992D01*
X119938553Y-26513368D01*
X119947471Y-26457064D01*
X119975500Y-26280097D01*
X119975500Y-26043902D01*
X119938553Y-25810631D01*
X119878296Y-25625181D01*
X119865568Y-25586008D01*
X119865566Y-25586005D01*
X119865566Y-25586003D01*
X119758342Y-25375566D01*
X119742303Y-25353490D01*
X119619517Y-25184490D01*
X119452510Y-25017483D01*
X119261433Y-24878657D01*
X119217467Y-24856255D01*
X119050996Y-24771433D01*
X118826368Y-24698446D01*
X118593097Y-24661500D01*
X118593092Y-24661500D01*
X116356908Y-24661500D01*
X116356903Y-24661500D01*
X116123631Y-24698446D01*
X115899003Y-24771433D01*
X115688566Y-24878657D01*
X115602524Y-24941171D01*
X115497490Y-25017483D01*
X115497488Y-25017485D01*
X115497487Y-25017485D01*
X115330485Y-25184487D01*
X115330485Y-25184488D01*
X115330483Y-25184490D01*
X115329034Y-25186485D01*
X115191657Y-25375566D01*
X115084433Y-25586003D01*
X115011446Y-25810631D01*
X114974500Y-26043902D01*
X114974500Y-26280097D01*
X115011446Y-26513368D01*
X115084433Y-26737996D01*
X115191657Y-26948433D01*
X115330483Y-27139510D01*
X115497490Y-27306517D01*
X115633979Y-27405682D01*
X115676644Y-27461012D01*
X115682623Y-27530626D01*
X115650017Y-27592421D01*
X115589178Y-27626778D01*
X115561093Y-27630000D01*
X110663429Y-27630000D01*
X110505405Y-27661433D01*
X110505393Y-27661436D01*
X110356538Y-27723093D01*
X110356525Y-27723100D01*
X110222555Y-27812617D01*
X110222551Y-27812620D01*
X108094583Y-29940589D01*
X108033260Y-29974074D01*
X107963568Y-29969090D01*
X107907635Y-29927218D01*
X107884429Y-29872305D01*
X107870247Y-29782761D01*
X107870246Y-29782760D01*
X107870246Y-29782757D01*
X107804557Y-29580588D01*
X107708051Y-29391184D01*
X107708049Y-29391181D01*
X107708048Y-29391179D01*
X107583109Y-29219213D01*
X107432786Y-29068890D01*
X107260820Y-28943951D01*
X107260115Y-28943591D01*
X107252054Y-28939485D01*
X107201259Y-28891512D01*
X107184463Y-28823692D01*
X107206999Y-28757556D01*
X107252054Y-28718515D01*
X107260816Y-28714051D01*
X107374641Y-28631353D01*
X107432786Y-28589109D01*
X107432788Y-28589106D01*
X107432792Y-28589104D01*
X107583104Y-28438792D01*
X107583106Y-28438788D01*
X107583109Y-28438786D01*
X107708048Y-28266820D01*
X107708047Y-28266820D01*
X107708051Y-28266816D01*
X107804557Y-28077412D01*
X107870246Y-27875243D01*
X107903500Y-27665287D01*
X107903500Y-27452713D01*
X107870246Y-27242757D01*
X107816977Y-27078815D01*
X107814983Y-27008977D01*
X107851063Y-26949144D01*
X107913764Y-26918316D01*
X107934909Y-26916500D01*
X108799730Y-26916500D01*
X108835720Y-26921838D01*
X108837918Y-26922504D01*
X108837919Y-26922504D01*
X108837921Y-26922505D01*
X108896697Y-26934196D01*
X108983685Y-26951501D01*
X108983688Y-26951501D01*
X109132314Y-26951501D01*
X109230373Y-26931994D01*
X109278079Y-26922505D01*
X109415389Y-26865630D01*
X109538966Y-26783059D01*
X110335963Y-25986060D01*
X110335966Y-25986059D01*
X110441059Y-25880966D01*
X110523629Y-25757390D01*
X110580505Y-25620080D01*
X110609500Y-25474312D01*
X110609500Y-24799522D01*
X110629185Y-24732483D01*
X110681989Y-24686728D01*
X110751147Y-24676784D01*
X110814703Y-24705809D01*
X110852477Y-24764587D01*
X110853275Y-24767429D01*
X110877075Y-24856255D01*
X110977404Y-25098471D01*
X110977409Y-25098482D01*
X111108496Y-25325528D01*
X111268092Y-25533519D01*
X111268098Y-25533526D01*
X111453473Y-25718901D01*
X111453480Y-25718907D01*
X111661471Y-25878503D01*
X111888517Y-26009590D01*
X111888528Y-26009595D01*
X112130744Y-26109924D01*
X112383979Y-26177777D01*
X112383992Y-26177780D01*
X112525000Y-26196343D01*
X112525000Y-24645012D01*
X112582007Y-24677925D01*
X112709174Y-24712000D01*
X112840826Y-24712000D01*
X112967993Y-24677925D01*
X113025000Y-24645012D01*
X113025000Y-26196342D01*
X113166007Y-26177780D01*
X113166020Y-26177777D01*
X113419255Y-26109924D01*
X113661471Y-26009595D01*
X113661482Y-26009590D01*
X113888528Y-25878503D01*
X114096519Y-25718907D01*
X114096526Y-25718901D01*
X114281901Y-25533526D01*
X114281907Y-25533519D01*
X114441503Y-25325528D01*
X114572590Y-25098482D01*
X114572595Y-25098471D01*
X114672924Y-24856255D01*
X114740777Y-24603020D01*
X114740779Y-24603009D01*
X114774999Y-24343094D01*
X114775000Y-24343080D01*
X114775000Y-23712000D01*
X113275000Y-23712000D01*
X113275000Y-23212000D01*
X114775000Y-23212000D01*
X114775000Y-22930905D01*
X120175000Y-22930905D01*
X120175000Y-23212000D01*
X121675000Y-23212000D01*
X121675000Y-23712000D01*
X120175000Y-23712000D01*
X120175000Y-23993094D01*
X120209220Y-24253009D01*
X120209222Y-24253020D01*
X120277075Y-24506255D01*
X120377404Y-24748471D01*
X120377409Y-24748482D01*
X120508496Y-24975528D01*
X120668092Y-25183519D01*
X120668098Y-25183526D01*
X120853473Y-25368901D01*
X120853480Y-25368907D01*
X121061471Y-25528503D01*
X121288517Y-25659590D01*
X121288528Y-25659595D01*
X121530744Y-25759924D01*
X121783979Y-25827777D01*
X121783992Y-25827780D01*
X121925000Y-25846343D01*
X121925000Y-24295012D01*
X121982007Y-24327925D01*
X122109174Y-24362000D01*
X122240826Y-24362000D01*
X122367993Y-24327925D01*
X122425000Y-24295012D01*
X122425000Y-25846342D01*
X122566007Y-25827780D01*
X122566020Y-25827777D01*
X122819255Y-25759924D01*
X123061471Y-25659595D01*
X123061482Y-25659590D01*
X123288528Y-25528503D01*
X123496519Y-25368907D01*
X123496526Y-25368901D01*
X123681901Y-25183526D01*
X123681907Y-25183519D01*
X123841503Y-24975528D01*
X123972590Y-24748482D01*
X123972595Y-24748471D01*
X124072924Y-24506255D01*
X124140777Y-24253020D01*
X124140779Y-24253009D01*
X124174999Y-23993094D01*
X124175000Y-23993080D01*
X124175000Y-23712000D01*
X122675000Y-23712000D01*
X122675000Y-23212000D01*
X124175000Y-23212000D01*
X124175000Y-22930919D01*
X124174999Y-22930905D01*
X124140779Y-22670990D01*
X124140777Y-22670979D01*
X124072924Y-22417744D01*
X123972595Y-22175528D01*
X123972590Y-22175517D01*
X123841503Y-21948471D01*
X123681907Y-21740480D01*
X123681901Y-21740473D01*
X123496526Y-21555098D01*
X123496519Y-21555092D01*
X123288528Y-21395496D01*
X123061482Y-21264409D01*
X123061471Y-21264404D01*
X122819255Y-21164075D01*
X122566016Y-21096221D01*
X122425000Y-21077654D01*
X122425000Y-22628988D01*
X122367993Y-22596075D01*
X122240826Y-22562000D01*
X122109174Y-22562000D01*
X121982007Y-22596075D01*
X121925000Y-22628988D01*
X121925000Y-21077654D01*
X121924999Y-21077654D01*
X121783983Y-21096221D01*
X121530744Y-21164075D01*
X121288528Y-21264404D01*
X121288517Y-21264409D01*
X121061471Y-21395496D01*
X120853480Y-21555092D01*
X120853473Y-21555098D01*
X120668098Y-21740473D01*
X120668092Y-21740480D01*
X120508496Y-21948471D01*
X120377409Y-22175517D01*
X120377404Y-22175528D01*
X120277075Y-22417744D01*
X120209222Y-22670979D01*
X120209220Y-22670990D01*
X120175000Y-22930905D01*
X114775000Y-22930905D01*
X114775000Y-22580919D01*
X114774999Y-22580905D01*
X114740779Y-22320990D01*
X114740777Y-22320979D01*
X114672924Y-22067744D01*
X114572595Y-21825528D01*
X114572590Y-21825517D01*
X114441503Y-21598471D01*
X114281907Y-21390480D01*
X114281901Y-21390473D01*
X114096526Y-21205098D01*
X114096519Y-21205092D01*
X113888528Y-21045496D01*
X113679629Y-20924887D01*
X113631413Y-20874320D01*
X113618191Y-20805713D01*
X113644159Y-20740848D01*
X113701073Y-20700320D01*
X113741629Y-20693500D01*
X126106584Y-20693500D01*
X126173623Y-20713185D01*
X126219378Y-20765989D01*
X126229322Y-20835147D01*
X126200297Y-20898703D01*
X126141519Y-20936477D01*
X126138677Y-20937275D01*
X125967744Y-20983075D01*
X125725528Y-21083404D01*
X125725517Y-21083409D01*
X125498471Y-21214496D01*
X125290480Y-21374092D01*
X125290473Y-21374098D01*
X125105098Y-21559473D01*
X125105092Y-21559480D01*
X124945496Y-21767471D01*
X124814409Y-21994517D01*
X124814404Y-21994528D01*
X124714075Y-22236744D01*
X124646222Y-22489979D01*
X124646220Y-22489990D01*
X124612000Y-22749905D01*
X124612000Y-23381000D01*
X126112000Y-23381000D01*
X126112000Y-23881000D01*
X124612000Y-23881000D01*
X124612000Y-24512094D01*
X124646220Y-24772009D01*
X124646222Y-24772020D01*
X124714075Y-25025255D01*
X124814404Y-25267471D01*
X124814409Y-25267482D01*
X124945496Y-25494528D01*
X125105092Y-25702519D01*
X125105098Y-25702526D01*
X125290473Y-25887901D01*
X125290480Y-25887907D01*
X125498471Y-26047503D01*
X125725517Y-26178590D01*
X125725528Y-26178595D01*
X125967744Y-26278924D01*
X126220979Y-26346777D01*
X126220992Y-26346780D01*
X126362000Y-26365343D01*
X126362000Y-24814012D01*
X126419007Y-24846925D01*
X126546174Y-24881000D01*
X126677826Y-24881000D01*
X126804993Y-24846925D01*
X126862000Y-24814012D01*
X126862000Y-26365342D01*
X127003007Y-26346780D01*
X127003020Y-26346777D01*
X127256255Y-26278924D01*
X127498471Y-26178595D01*
X127498482Y-26178590D01*
X127725528Y-26047503D01*
X127933519Y-25887907D01*
X127933526Y-25887901D01*
X128118901Y-25702526D01*
X128118907Y-25702519D01*
X128278503Y-25494528D01*
X128409590Y-25267482D01*
X128409595Y-25267471D01*
X128509924Y-25025255D01*
X128577777Y-24772020D01*
X128577779Y-24772009D01*
X128611999Y-24512094D01*
X128612000Y-24512080D01*
X128612000Y-23881000D01*
X127112000Y-23881000D01*
X127112000Y-23381000D01*
X128612000Y-23381000D01*
X128612000Y-22749919D01*
X128611999Y-22749905D01*
X128577779Y-22489990D01*
X128577777Y-22489979D01*
X128509924Y-22236744D01*
X128409595Y-21994528D01*
X128409590Y-21994517D01*
X128278503Y-21767471D01*
X128118907Y-21559480D01*
X128118901Y-21559473D01*
X128099358Y-21539930D01*
X128088701Y-21520414D01*
X128074166Y-21503587D01*
X128072282Y-21490345D01*
X128065873Y-21478607D01*
X128067459Y-21456428D01*
X128064328Y-21434413D01*
X128069902Y-21422255D01*
X128070857Y-21408915D01*
X128084182Y-21391114D01*
X128093451Y-21370902D01*
X128104714Y-21363687D01*
X128112729Y-21352982D01*
X128133560Y-21345212D01*
X128152287Y-21333218D01*
X128170190Y-21331549D01*
X128178193Y-21328565D01*
X128187229Y-21328249D01*
X128194477Y-21328260D01*
X128195688Y-21328501D01*
X128344312Y-21328501D01*
X128344317Y-21328500D01*
X134158554Y-21328500D01*
X134158574Y-21328501D01*
X134164688Y-21328501D01*
X134313314Y-21328501D01*
X134350009Y-21321200D01*
X134434894Y-21304315D01*
X134459080Y-21299505D01*
X134515955Y-21275946D01*
X134596389Y-21242630D01*
X134719966Y-21160059D01*
X139214205Y-16665818D01*
X139275528Y-16632334D01*
X139301886Y-16629500D01*
X143033487Y-16629500D01*
X143039599Y-16631294D01*
G37*
%TD.AperFunction*%
%TA.AperFunction,Conductor*%
G36*
X152912000Y-23881000D02*
G01*
X149912000Y-23881000D01*
X149912000Y-23381000D01*
X152912000Y-23381000D01*
X152912000Y-23881000D01*
G37*
%TD.AperFunction*%
%TA.AperFunction,Conductor*%
G36*
X156439599Y-16631294D02*
G01*
X156445861Y-16630119D01*
X156472720Y-16641020D01*
X156500526Y-16649185D01*
X156504696Y-16653998D01*
X156510602Y-16656395D01*
X156527306Y-16680091D01*
X156546281Y-16701989D01*
X156547187Y-16708293D01*
X156550859Y-16713502D01*
X156552100Y-16742460D01*
X156556225Y-16771147D01*
X156553578Y-16776942D01*
X156553851Y-16783307D01*
X156539241Y-16808336D01*
X156527200Y-16834703D01*
X156521034Y-16839527D01*
X156518629Y-16843649D01*
X156489782Y-16863985D01*
X156325566Y-16947657D01*
X156216550Y-17026862D01*
X156134490Y-17086483D01*
X156134488Y-17086485D01*
X156134487Y-17086485D01*
X155967485Y-17253487D01*
X155967485Y-17253488D01*
X155967483Y-17253490D01*
X155951444Y-17275566D01*
X155828657Y-17444566D01*
X155721433Y-17655003D01*
X155648446Y-17879631D01*
X155611500Y-18112902D01*
X155611500Y-18349097D01*
X155648446Y-18582368D01*
X155721433Y-18806996D01*
X155784675Y-18931114D01*
X155828657Y-19017433D01*
X155967483Y-19208510D01*
X156134490Y-19375517D01*
X156325567Y-19514343D01*
X156373765Y-19538901D01*
X156536003Y-19621566D01*
X156536005Y-19621566D01*
X156536008Y-19621568D01*
X156656412Y-19660689D01*
X156760631Y-19694553D01*
X156993903Y-19731500D01*
X156993908Y-19731500D01*
X159230097Y-19731500D01*
X159463368Y-19694553D01*
X159514765Y-19677853D01*
X159687992Y-19621568D01*
X159898433Y-19514343D01*
X160089510Y-19375517D01*
X160256517Y-19208510D01*
X160395343Y-19017433D01*
X160502568Y-18806992D01*
X160575553Y-18582368D01*
X160602320Y-18413368D01*
X160612500Y-18349097D01*
X160612500Y-18112902D01*
X160575553Y-17879631D01*
X160520641Y-17710631D01*
X160502568Y-17655008D01*
X160502566Y-17655005D01*
X160502566Y-17655003D01*
X160421186Y-17495287D01*
X160395343Y-17444567D01*
X160256517Y-17253490D01*
X160089510Y-17086483D01*
X159898433Y-16947657D01*
X159839213Y-16917483D01*
X159734218Y-16863985D01*
X159683422Y-16816010D01*
X159666627Y-16748189D01*
X159689164Y-16682054D01*
X159743880Y-16638603D01*
X159790513Y-16629500D01*
X169833487Y-16629500D01*
X169900526Y-16649185D01*
X169946281Y-16701989D01*
X169956225Y-16771147D01*
X169927200Y-16834703D01*
X169889782Y-16863985D01*
X169725566Y-16947657D01*
X169616550Y-17026862D01*
X169534490Y-17086483D01*
X169534488Y-17086485D01*
X169534487Y-17086485D01*
X169367485Y-17253487D01*
X169367485Y-17253488D01*
X169367483Y-17253490D01*
X169351444Y-17275566D01*
X169228657Y-17444566D01*
X169121433Y-17655003D01*
X169048446Y-17879631D01*
X169011500Y-18112902D01*
X169011500Y-18349097D01*
X169046952Y-18572933D01*
X169037997Y-18642227D01*
X169012160Y-18680012D01*
X168274620Y-19417551D01*
X168274617Y-19417555D01*
X168185098Y-19551528D01*
X168156087Y-19621569D01*
X168123436Y-19700393D01*
X168123433Y-19700405D01*
X168092000Y-19858429D01*
X168092000Y-21095833D01*
X168072315Y-21162872D01*
X168019511Y-21208627D01*
X167950353Y-21218571D01*
X167906000Y-21203220D01*
X167698482Y-21083409D01*
X167698471Y-21083404D01*
X167456255Y-20983075D01*
X167203016Y-20915221D01*
X167062000Y-20896654D01*
X167062000Y-22447988D01*
X167004993Y-22415075D01*
X166877826Y-22381000D01*
X166746174Y-22381000D01*
X166619007Y-22415075D01*
X166562000Y-22447988D01*
X166562000Y-20896654D01*
X166420983Y-20915221D01*
X166167744Y-20983075D01*
X165925528Y-21083404D01*
X165925517Y-21083409D01*
X165698471Y-21214496D01*
X165490480Y-21374092D01*
X165490473Y-21374098D01*
X165305098Y-21559473D01*
X165305092Y-21559480D01*
X165145496Y-21767471D01*
X165014409Y-21994517D01*
X165014404Y-21994528D01*
X164914076Y-22236742D01*
X164871486Y-22395692D01*
X164835121Y-22455352D01*
X164772274Y-22485881D01*
X164702898Y-22477586D01*
X164649020Y-22433101D01*
X164637150Y-22411050D01*
X164609598Y-22344533D01*
X164609590Y-22344517D01*
X164478503Y-22117471D01*
X164318907Y-21909480D01*
X164318901Y-21909473D01*
X164133526Y-21724098D01*
X164133519Y-21724092D01*
X163925528Y-21564496D01*
X163698482Y-21433409D01*
X163698471Y-21433404D01*
X163456255Y-21333075D01*
X163203016Y-21265221D01*
X163062000Y-21246654D01*
X163062000Y-22797988D01*
X163004993Y-22765075D01*
X162877826Y-22731000D01*
X162746174Y-22731000D01*
X162619007Y-22765075D01*
X162562000Y-22797988D01*
X162562000Y-21246654D01*
X162420983Y-21265221D01*
X162167744Y-21333075D01*
X161925528Y-21433404D01*
X161925517Y-21433409D01*
X161698471Y-21564496D01*
X161490480Y-21724092D01*
X161490473Y-21724098D01*
X161305098Y-21909473D01*
X161305092Y-21909480D01*
X161145496Y-22117471D01*
X161014409Y-22344517D01*
X161014404Y-22344528D01*
X160914075Y-22586744D01*
X160846222Y-22839979D01*
X160846220Y-22839990D01*
X160812000Y-23099905D01*
X160812000Y-23381000D01*
X162312000Y-23381000D01*
X162312000Y-23881000D01*
X160812000Y-23881000D01*
X160812000Y-24162094D01*
X160846220Y-24422009D01*
X160846222Y-24422020D01*
X160914075Y-24675255D01*
X161014404Y-24917471D01*
X161014409Y-24917482D01*
X161145496Y-25144528D01*
X161305092Y-25352519D01*
X161305098Y-25352526D01*
X161490473Y-25537901D01*
X161490480Y-25537907D01*
X161698471Y-25697503D01*
X161925517Y-25828590D01*
X161925528Y-25828595D01*
X162167744Y-25928924D01*
X162420979Y-25996777D01*
X162420992Y-25996780D01*
X162562000Y-26015343D01*
X162562000Y-24464012D01*
X162619007Y-24496925D01*
X162746174Y-24531000D01*
X162877826Y-24531000D01*
X163004993Y-24496925D01*
X163062000Y-24464012D01*
X163062000Y-26015342D01*
X163203007Y-25996780D01*
X163203020Y-25996777D01*
X163456255Y-25928924D01*
X163698471Y-25828595D01*
X163698482Y-25828590D01*
X163925528Y-25697503D01*
X164133519Y-25537907D01*
X164133526Y-25537901D01*
X164318901Y-25352526D01*
X164318907Y-25352519D01*
X164478503Y-25144528D01*
X164609590Y-24917482D01*
X164609598Y-24917466D01*
X164637150Y-24850949D01*
X164680990Y-24796545D01*
X164747284Y-24774480D01*
X164814984Y-24791759D01*
X164862594Y-24842896D01*
X164871486Y-24866308D01*
X164914075Y-25025255D01*
X165014404Y-25267471D01*
X165014409Y-25267482D01*
X165145496Y-25494528D01*
X165305092Y-25702519D01*
X165305098Y-25702526D01*
X165490473Y-25887901D01*
X165490480Y-25887907D01*
X165698471Y-26047503D01*
X165925517Y-26178590D01*
X165925528Y-26178595D01*
X166167744Y-26278924D01*
X166420979Y-26346777D01*
X166420992Y-26346780D01*
X166562000Y-26365343D01*
X166562000Y-24814012D01*
X166619007Y-24846925D01*
X166746174Y-24881000D01*
X166877826Y-24881000D01*
X167004993Y-24846925D01*
X167062000Y-24814012D01*
X167062000Y-26365343D01*
X167203007Y-26346780D01*
X167203020Y-26346777D01*
X167456255Y-26278924D01*
X167698471Y-26178595D01*
X167698475Y-26178593D01*
X167905999Y-26058778D01*
X167911901Y-26057345D01*
X167916489Y-26053371D01*
X167945451Y-26049206D01*
X167973899Y-26042305D01*
X167979637Y-26044291D01*
X167985647Y-26043427D01*
X168012269Y-26055585D01*
X168039926Y-26065157D01*
X168043679Y-26069929D01*
X168049203Y-26072452D01*
X168065027Y-26097075D01*
X168083117Y-26120078D01*
X168084533Y-26127428D01*
X168086977Y-26131230D01*
X168092000Y-26166165D01*
X168092000Y-26406811D01*
X168072315Y-26473850D01*
X168055681Y-26494492D01*
X165813492Y-28736681D01*
X165752169Y-28770166D01*
X165725811Y-28773000D01*
X140196189Y-28773000D01*
X140129150Y-28753315D01*
X140083395Y-28700511D01*
X140073451Y-28631353D01*
X140102476Y-28567797D01*
X140108508Y-28561319D01*
X140479364Y-28190463D01*
X142041362Y-26628463D01*
X142102683Y-26594980D01*
X142172374Y-26599964D01*
X142228308Y-26641836D01*
X142246972Y-26677828D01*
X142248446Y-26682367D01*
X142248447Y-26682368D01*
X142266520Y-26737992D01*
X142321433Y-26906994D01*
X142344110Y-26951501D01*
X142428657Y-27117433D01*
X142567483Y-27308510D01*
X142734490Y-27475517D01*
X142925567Y-27614343D01*
X142956296Y-27630000D01*
X143136003Y-27721566D01*
X143136005Y-27721566D01*
X143136008Y-27721568D01*
X143256412Y-27760689D01*
X143360631Y-27794553D01*
X143593903Y-27831500D01*
X143593908Y-27831500D01*
X145830097Y-27831500D01*
X146063368Y-27794553D01*
X146287992Y-27721568D01*
X146498433Y-27614343D01*
X146689510Y-27475517D01*
X146856517Y-27308510D01*
X146995343Y-27117433D01*
X147102568Y-26906992D01*
X147175553Y-26682368D01*
X147176053Y-26679213D01*
X147212500Y-26449097D01*
X147212500Y-26212902D01*
X147175553Y-25979631D01*
X147102566Y-25755003D01*
X147016458Y-25586008D01*
X146995343Y-25544567D01*
X146856517Y-25353490D01*
X146689510Y-25186483D01*
X146498433Y-25047657D01*
X146454467Y-25025255D01*
X146287996Y-24940433D01*
X146063368Y-24867446D01*
X145830097Y-24830500D01*
X145830092Y-24830500D01*
X143593908Y-24830500D01*
X143593907Y-24830500D01*
X143582396Y-24832323D01*
X143513102Y-24823367D01*
X143459651Y-24778369D01*
X143439013Y-24711617D01*
X143439000Y-24709849D01*
X143439000Y-23099905D01*
X147412000Y-23099905D01*
X147412000Y-23381000D01*
X148912000Y-23381000D01*
X148912000Y-23881000D01*
X147412000Y-23881000D01*
X147412000Y-24162094D01*
X147446220Y-24422009D01*
X147446222Y-24422020D01*
X147514075Y-24675255D01*
X147614404Y-24917471D01*
X147614409Y-24917482D01*
X147745496Y-25144528D01*
X147905092Y-25352519D01*
X147905098Y-25352526D01*
X148090473Y-25537901D01*
X148090480Y-25537907D01*
X148298471Y-25697503D01*
X148525517Y-25828590D01*
X148525528Y-25828595D01*
X148767744Y-25928924D01*
X149020979Y-25996777D01*
X149020992Y-25996780D01*
X149162000Y-26015343D01*
X149162000Y-24464012D01*
X149219007Y-24496925D01*
X149346174Y-24531000D01*
X149477826Y-24531000D01*
X149604993Y-24496925D01*
X149662000Y-24464012D01*
X149662000Y-26015342D01*
X149803007Y-25996780D01*
X149803020Y-25996777D01*
X150056255Y-25928924D01*
X150298471Y-25828595D01*
X150298482Y-25828590D01*
X150525528Y-25697503D01*
X150733519Y-25537907D01*
X150733526Y-25537901D01*
X150918901Y-25352526D01*
X150918907Y-25352519D01*
X151078503Y-25144528D01*
X151209590Y-24917482D01*
X151209598Y-24917466D01*
X151237150Y-24850949D01*
X151280990Y-24796545D01*
X151347284Y-24774480D01*
X151414984Y-24791759D01*
X151462594Y-24842896D01*
X151471486Y-24866308D01*
X151514075Y-25025255D01*
X151614404Y-25267471D01*
X151614409Y-25267482D01*
X151745496Y-25494528D01*
X151905092Y-25702519D01*
X151905098Y-25702526D01*
X152090473Y-25887901D01*
X152090480Y-25887907D01*
X152298471Y-26047503D01*
X152525517Y-26178590D01*
X152525528Y-26178595D01*
X152767744Y-26278924D01*
X153020979Y-26346777D01*
X153020992Y-26346780D01*
X153162000Y-26365343D01*
X153162000Y-24814012D01*
X153219007Y-24846925D01*
X153346174Y-24881000D01*
X153477826Y-24881000D01*
X153604993Y-24846925D01*
X153662000Y-24814012D01*
X153662000Y-26365342D01*
X153803007Y-26346780D01*
X153803020Y-26346777D01*
X154056255Y-26278924D01*
X154215646Y-26212902D01*
X155611500Y-26212902D01*
X155611500Y-26449097D01*
X155648446Y-26682368D01*
X155721433Y-26906996D01*
X155808982Y-27078819D01*
X155828657Y-27117433D01*
X155967483Y-27308510D01*
X156134490Y-27475517D01*
X156325567Y-27614343D01*
X156356296Y-27630000D01*
X156536003Y-27721566D01*
X156536005Y-27721566D01*
X156536008Y-27721568D01*
X156656412Y-27760689D01*
X156760631Y-27794553D01*
X156993903Y-27831500D01*
X156993908Y-27831500D01*
X159230097Y-27831500D01*
X159463368Y-27794553D01*
X159687992Y-27721568D01*
X159898433Y-27614343D01*
X160089510Y-27475517D01*
X160256517Y-27308510D01*
X160395343Y-27117433D01*
X160502568Y-26906992D01*
X160575553Y-26682368D01*
X160576053Y-26679213D01*
X160612500Y-26449097D01*
X160612500Y-26212902D01*
X160575553Y-25979631D01*
X160502566Y-25755003D01*
X160416458Y-25586008D01*
X160395343Y-25544567D01*
X160256517Y-25353490D01*
X160089510Y-25186483D01*
X159898433Y-25047657D01*
X159854467Y-25025255D01*
X159687996Y-24940433D01*
X159463368Y-24867446D01*
X159230097Y-24830500D01*
X159230092Y-24830500D01*
X156993908Y-24830500D01*
X156993903Y-24830500D01*
X156760631Y-24867446D01*
X156536003Y-24940433D01*
X156325566Y-25047657D01*
X156249185Y-25103152D01*
X156134490Y-25186483D01*
X156134488Y-25186485D01*
X156134487Y-25186485D01*
X155967485Y-25353487D01*
X155967485Y-25353488D01*
X155967483Y-25353490D01*
X155956282Y-25368907D01*
X155828657Y-25544566D01*
X155721433Y-25755003D01*
X155648446Y-25979631D01*
X155611500Y-26212902D01*
X154215646Y-26212902D01*
X154298471Y-26178595D01*
X154298475Y-26178593D01*
X154433478Y-26100649D01*
X154433479Y-26100648D01*
X154525528Y-26047503D01*
X154733519Y-25887907D01*
X154733526Y-25887901D01*
X154918901Y-25702526D01*
X154918907Y-25702519D01*
X155078503Y-25494528D01*
X155209590Y-25267482D01*
X155209595Y-25267471D01*
X155309924Y-25025255D01*
X155377777Y-24772020D01*
X155377779Y-24772009D01*
X155411999Y-24512094D01*
X155412000Y-24512080D01*
X155412000Y-23881000D01*
X153912000Y-23881000D01*
X153912000Y-23381000D01*
X155412000Y-23381000D01*
X155412000Y-22749919D01*
X155411999Y-22749905D01*
X155377779Y-22489990D01*
X155377777Y-22489979D01*
X155309924Y-22236744D01*
X155209595Y-21994528D01*
X155209590Y-21994517D01*
X155078503Y-21767471D01*
X154918907Y-21559480D01*
X154918901Y-21559473D01*
X154733526Y-21374098D01*
X154733519Y-21374092D01*
X154525528Y-21214496D01*
X154298482Y-21083409D01*
X154298471Y-21083404D01*
X154056255Y-20983075D01*
X153803016Y-20915221D01*
X153662000Y-20896654D01*
X153662000Y-22447988D01*
X153604993Y-22415075D01*
X153477826Y-22381000D01*
X153346174Y-22381000D01*
X153219007Y-22415075D01*
X153162000Y-22447988D01*
X153162000Y-20896654D01*
X153020983Y-20915221D01*
X152767744Y-20983075D01*
X152525528Y-21083404D01*
X152525517Y-21083409D01*
X152298471Y-21214496D01*
X152090480Y-21374092D01*
X152090473Y-21374098D01*
X151905098Y-21559473D01*
X151905092Y-21559480D01*
X151745496Y-21767471D01*
X151614409Y-21994517D01*
X151614404Y-21994528D01*
X151514076Y-22236742D01*
X151471486Y-22395692D01*
X151435121Y-22455352D01*
X151372274Y-22485881D01*
X151302898Y-22477586D01*
X151249020Y-22433101D01*
X151237150Y-22411050D01*
X151209598Y-22344533D01*
X151209590Y-22344517D01*
X151078503Y-22117471D01*
X150918907Y-21909480D01*
X150918901Y-21909473D01*
X150733526Y-21724098D01*
X150733519Y-21724092D01*
X150525528Y-21564496D01*
X150298482Y-21433409D01*
X150298471Y-21433404D01*
X150056255Y-21333075D01*
X149803016Y-21265221D01*
X149662000Y-21246654D01*
X149662000Y-22797988D01*
X149604993Y-22765075D01*
X149477826Y-22731000D01*
X149346174Y-22731000D01*
X149219007Y-22765075D01*
X149162000Y-22797988D01*
X149162000Y-21246654D01*
X149020983Y-21265221D01*
X148767744Y-21333075D01*
X148525528Y-21433404D01*
X148525517Y-21433409D01*
X148298471Y-21564496D01*
X148090480Y-21724092D01*
X148090473Y-21724098D01*
X147905098Y-21909473D01*
X147905092Y-21909480D01*
X147745496Y-22117471D01*
X147614409Y-22344517D01*
X147614404Y-22344528D01*
X147514075Y-22586744D01*
X147446222Y-22839979D01*
X147446220Y-22839990D01*
X147412000Y-23099905D01*
X143439000Y-23099905D01*
X143439000Y-20329188D01*
X143458685Y-20262149D01*
X143475319Y-20241507D01*
X143949008Y-19767819D01*
X144010331Y-19734334D01*
X144036689Y-19731500D01*
X145830097Y-19731500D01*
X146063368Y-19694553D01*
X146114765Y-19677853D01*
X146287992Y-19621568D01*
X146498433Y-19514343D01*
X146689510Y-19375517D01*
X146856517Y-19208510D01*
X146995343Y-19017433D01*
X147102568Y-18806992D01*
X147175553Y-18582368D01*
X147202320Y-18413368D01*
X147212500Y-18349097D01*
X147212500Y-18112902D01*
X147175553Y-17879631D01*
X147120641Y-17710631D01*
X147102568Y-17655008D01*
X147102566Y-17655005D01*
X147102566Y-17655003D01*
X147021186Y-17495287D01*
X146995343Y-17444567D01*
X146856517Y-17253490D01*
X146689510Y-17086483D01*
X146498433Y-16947657D01*
X146439213Y-16917483D01*
X146334218Y-16863985D01*
X146283422Y-16816010D01*
X146266627Y-16748189D01*
X146289164Y-16682054D01*
X146343880Y-16638603D01*
X146390513Y-16629500D01*
X156433487Y-16629500D01*
X156439599Y-16631294D01*
G37*
%TD.AperFunction*%
%TA.AperFunction,Conductor*%
G36*
X115156660Y-18881541D02*
G01*
X115162022Y-18880455D01*
X115189826Y-18891280D01*
X115218450Y-18899685D01*
X115223384Y-18904345D01*
X115227131Y-18905804D01*
X115251727Y-18931112D01*
X115292779Y-18987615D01*
X115316259Y-19053420D01*
X115300434Y-19121474D01*
X115250328Y-19170169D01*
X115192461Y-19184500D01*
X111304683Y-19184500D01*
X111158927Y-19213493D01*
X111158919Y-19213495D01*
X111021608Y-19270371D01*
X110898035Y-19352939D01*
X110898034Y-19352940D01*
X110845488Y-19405487D01*
X110792941Y-19458034D01*
X110792939Y-19458036D01*
X109268943Y-20982030D01*
X109268942Y-20982031D01*
X109186370Y-21105610D01*
X109186370Y-21105611D01*
X109163817Y-21160059D01*
X109163817Y-21160060D01*
X109129615Y-21242631D01*
X109129556Y-21242772D01*
X109129498Y-21242910D01*
X109129492Y-21242930D01*
X109100499Y-21388685D01*
X109100499Y-21543425D01*
X109100500Y-21543446D01*
X109100500Y-25036113D01*
X109080815Y-25103152D01*
X109064181Y-25123794D01*
X108562794Y-25625181D01*
X108501471Y-25658666D01*
X108475113Y-25661500D01*
X107934909Y-25661500D01*
X107867870Y-25641815D01*
X107822115Y-25589011D01*
X107812171Y-25519853D01*
X107816975Y-25499192D01*
X107870246Y-25335243D01*
X107903500Y-25125287D01*
X107903500Y-24912713D01*
X107870246Y-24702757D01*
X107804557Y-24500588D01*
X107708051Y-24311184D01*
X107708049Y-24311181D01*
X107708048Y-24311179D01*
X107583109Y-24139213D01*
X107432786Y-23988890D01*
X107260817Y-23863949D01*
X107251504Y-23859204D01*
X107200707Y-23811230D01*
X107183912Y-23743409D01*
X107206449Y-23677274D01*
X107251507Y-23638232D01*
X107260555Y-23633622D01*
X107314716Y-23594270D01*
X107314717Y-23594270D01*
X106682408Y-22961962D01*
X106745993Y-22944925D01*
X106860007Y-22879099D01*
X106953099Y-22786007D01*
X107018925Y-22671993D01*
X107035962Y-22608408D01*
X107668270Y-23240717D01*
X107668270Y-23240716D01*
X107707622Y-23186554D01*
X107804095Y-22997217D01*
X107869757Y-22795130D01*
X107869757Y-22795127D01*
X107903000Y-22585246D01*
X107903000Y-22372753D01*
X107869757Y-22162872D01*
X107869757Y-22162869D01*
X107804095Y-21960782D01*
X107707624Y-21771449D01*
X107668270Y-21717282D01*
X107668269Y-21717282D01*
X107035962Y-22349590D01*
X107018925Y-22286007D01*
X106953099Y-22171993D01*
X106860007Y-22078901D01*
X106745993Y-22013075D01*
X106682409Y-21996037D01*
X107314716Y-21363728D01*
X107260547Y-21324373D01*
X107260547Y-21324372D01*
X107251500Y-21319763D01*
X107200706Y-21271788D01*
X107183912Y-21203966D01*
X107206451Y-21137832D01*
X107251508Y-21098793D01*
X107260816Y-21094051D01*
X107340007Y-21036515D01*
X107432786Y-20969109D01*
X107432788Y-20969106D01*
X107432792Y-20969104D01*
X107583104Y-20818792D01*
X107583106Y-20818788D01*
X107583109Y-20818786D01*
X107708048Y-20646820D01*
X107708047Y-20646820D01*
X107708051Y-20646816D01*
X107804557Y-20457412D01*
X107870246Y-20255243D01*
X107903500Y-20045287D01*
X107903500Y-19832713D01*
X107901435Y-19819676D01*
X107910389Y-19750383D01*
X107936224Y-19712600D01*
X108732507Y-18916319D01*
X108793830Y-18882834D01*
X108820188Y-18880000D01*
X115151411Y-18880000D01*
X115156660Y-18881541D01*
G37*
%TD.AperFunction*%
%TA.AperFunction,Conductor*%
G36*
X106087075Y-22671993D02*
G01*
X106152901Y-22786007D01*
X106245993Y-22879099D01*
X106360007Y-22944925D01*
X106423590Y-22961962D01*
X105791282Y-23594269D01*
X105791282Y-23594270D01*
X105845452Y-23633626D01*
X105845451Y-23633626D01*
X105854495Y-23638234D01*
X105905292Y-23686208D01*
X105922087Y-23754029D01*
X105899550Y-23820164D01*
X105854499Y-23859202D01*
X105845182Y-23863949D01*
X105673213Y-23988890D01*
X105522890Y-24139213D01*
X105397949Y-24311182D01*
X105393484Y-24319946D01*
X105345509Y-24370742D01*
X105277688Y-24387536D01*
X105211553Y-24364998D01*
X105172516Y-24319946D01*
X105168050Y-24311182D01*
X105043109Y-24139213D01*
X104892786Y-23988890D01*
X104720817Y-23863949D01*
X104711504Y-23859204D01*
X104660707Y-23811230D01*
X104643912Y-23743409D01*
X104666449Y-23677274D01*
X104711507Y-23638232D01*
X104720555Y-23633622D01*
X104774716Y-23594270D01*
X104774717Y-23594270D01*
X104142408Y-22961962D01*
X104205993Y-22944925D01*
X104320007Y-22879099D01*
X104413099Y-22786007D01*
X104478925Y-22671993D01*
X104495962Y-22608408D01*
X105128270Y-23240717D01*
X105128270Y-23240716D01*
X105167622Y-23186554D01*
X105172514Y-23176954D01*
X105220488Y-23126157D01*
X105288308Y-23109361D01*
X105354444Y-23131897D01*
X105393486Y-23176954D01*
X105398375Y-23186550D01*
X105437728Y-23240716D01*
X106070037Y-22608408D01*
X106087075Y-22671993D01*
G37*
%TD.AperFunction*%
%TA.AperFunction,Conductor*%
G36*
X139512000Y-23881000D02*
G01*
X136512000Y-23881000D01*
X136512000Y-23381000D01*
X139512000Y-23381000D01*
X139512000Y-23881000D01*
G37*
%TD.AperFunction*%
%TA.AperFunction,Conductor*%
G36*
X166312000Y-23881000D02*
G01*
X163312000Y-23881000D01*
X163312000Y-23381000D01*
X166312000Y-23381000D01*
X166312000Y-23881000D01*
G37*
%TD.AperFunction*%
%TA.AperFunction,Conductor*%
G36*
X105474014Y-20775323D02*
G01*
X105518977Y-20813399D01*
X105522890Y-20818785D01*
X105522894Y-20818790D01*
X105673213Y-20969109D01*
X105845179Y-21094048D01*
X105845181Y-21094049D01*
X105845184Y-21094051D01*
X105854493Y-21098794D01*
X105905290Y-21146766D01*
X105922087Y-21214587D01*
X105899552Y-21280722D01*
X105854505Y-21319760D01*
X105845446Y-21324376D01*
X105845440Y-21324380D01*
X105791282Y-21363727D01*
X105791282Y-21363728D01*
X106423591Y-21996037D01*
X106360007Y-22013075D01*
X106245993Y-22078901D01*
X106152901Y-22171993D01*
X106087075Y-22286007D01*
X106070037Y-22349591D01*
X105437728Y-21717282D01*
X105437727Y-21717282D01*
X105398380Y-21771440D01*
X105393483Y-21781051D01*
X105345506Y-21831845D01*
X105277684Y-21848638D01*
X105211550Y-21826098D01*
X105172516Y-21781048D01*
X105167626Y-21771452D01*
X105128270Y-21717282D01*
X105128269Y-21717282D01*
X104495962Y-22349590D01*
X104478925Y-22286007D01*
X104413099Y-22171993D01*
X104320007Y-22078901D01*
X104205993Y-22013075D01*
X104142409Y-21996037D01*
X104778701Y-21359743D01*
X104789937Y-21306254D01*
X104838988Y-21256496D01*
X104860188Y-21247194D01*
X104932119Y-21223358D01*
X104932124Y-21223356D01*
X105081345Y-21131315D01*
X105205315Y-21007345D01*
X105297356Y-20858124D01*
X105297359Y-20858117D01*
X105300951Y-20847278D01*
X105340723Y-20789833D01*
X105405238Y-20763009D01*
X105474014Y-20775323D01*
G37*
%TD.AperFunction*%
%TA.AperFunction,Conductor*%
G36*
X179712000Y-37301000D02*
G01*
X176712000Y-37301000D01*
X176712000Y-36801000D01*
X179712000Y-36801000D01*
X179712000Y-37301000D01*
G37*
%TD.AperFunction*%
%TA.AperFunction,Conductor*%
G36*
X179712000Y-23881000D02*
G01*
X176712000Y-23881000D01*
X176712000Y-23381000D01*
X179712000Y-23381000D01*
X179712000Y-23881000D01*
G37*
%TD.AperFunction*%
%TA.AperFunction,Conductor*%
G36*
X199340539Y-12458185D02*
G01*
X199386294Y-12510989D01*
X199397500Y-12562500D01*
X199397500Y-45095500D01*
X199377815Y-45162539D01*
X199325011Y-45208294D01*
X199273500Y-45219500D01*
X100065500Y-45219500D01*
X99998461Y-45199815D01*
X99952706Y-45147011D01*
X99941500Y-45095500D01*
X99941500Y-24912713D01*
X102662500Y-24912713D01*
X102662500Y-25125287D01*
X102671723Y-25183519D01*
X102685021Y-25267482D01*
X102695754Y-25335243D01*
X102760180Y-25533526D01*
X102761444Y-25537414D01*
X102857951Y-25726820D01*
X102982890Y-25898786D01*
X103133213Y-26049109D01*
X103305182Y-26174050D01*
X103313946Y-26178516D01*
X103364742Y-26226491D01*
X103381536Y-26294312D01*
X103358998Y-26360447D01*
X103313946Y-26399484D01*
X103305182Y-26403949D01*
X103133213Y-26528890D01*
X102982890Y-26679213D01*
X102857951Y-26851179D01*
X102761444Y-27040585D01*
X102695753Y-27242760D01*
X102662500Y-27452713D01*
X102662500Y-27665286D01*
X102695753Y-27875239D01*
X102761444Y-28077414D01*
X102857951Y-28266820D01*
X102982890Y-28438786D01*
X103133213Y-28589109D01*
X103305182Y-28714050D01*
X103313946Y-28718516D01*
X103364742Y-28766491D01*
X103381536Y-28834312D01*
X103358998Y-28900447D01*
X103313946Y-28939484D01*
X103305182Y-28943949D01*
X103133213Y-29068890D01*
X102982890Y-29219213D01*
X102857951Y-29391179D01*
X102761444Y-29580585D01*
X102695753Y-29782760D01*
X102662500Y-29992713D01*
X102662500Y-30205286D01*
X102689786Y-30377566D01*
X102695754Y-30415243D01*
X102760400Y-30614203D01*
X102761444Y-30617414D01*
X102857951Y-30806820D01*
X102982890Y-30978786D01*
X103133213Y-31129109D01*
X103305182Y-31254050D01*
X103313946Y-31258516D01*
X103364742Y-31306491D01*
X103381536Y-31374312D01*
X103358998Y-31440447D01*
X103313946Y-31479484D01*
X103305182Y-31483949D01*
X103133213Y-31608890D01*
X102982890Y-31759213D01*
X102857951Y-31931179D01*
X102761444Y-32120585D01*
X102695753Y-32322760D01*
X102662500Y-32532713D01*
X102662500Y-32745286D01*
X102692443Y-32934343D01*
X102695754Y-32955243D01*
X102747517Y-33114553D01*
X102761444Y-33157414D01*
X102857951Y-33346820D01*
X102982890Y-33518786D01*
X103133213Y-33669109D01*
X103305182Y-33794050D01*
X103313946Y-33798516D01*
X103364742Y-33846491D01*
X103381536Y-33914312D01*
X103358998Y-33980447D01*
X103313946Y-34019484D01*
X103305182Y-34023949D01*
X103133213Y-34148890D01*
X102982890Y-34299213D01*
X102857951Y-34471179D01*
X102761444Y-34660585D01*
X102695753Y-34862760D01*
X102674448Y-34997275D01*
X102662500Y-35072713D01*
X102662500Y-35285287D01*
X102695754Y-35495243D01*
X102748228Y-35656742D01*
X102761444Y-35697414D01*
X102857951Y-35886820D01*
X102982890Y-36058786D01*
X103133213Y-36209109D01*
X103305182Y-36334050D01*
X103313946Y-36338516D01*
X103364742Y-36386491D01*
X103381536Y-36454312D01*
X103358998Y-36520447D01*
X103313946Y-36559484D01*
X103305182Y-36563949D01*
X103133213Y-36688890D01*
X102982890Y-36839213D01*
X102857951Y-37011179D01*
X102761444Y-37200585D01*
X102695753Y-37402760D01*
X102662500Y-37612713D01*
X102662500Y-37825286D01*
X102689220Y-37993993D01*
X102695754Y-38035243D01*
X102747974Y-38195960D01*
X102761444Y-38237414D01*
X102857951Y-38426820D01*
X102982890Y-38598786D01*
X103133213Y-38749109D01*
X103305179Y-38874048D01*
X103305181Y-38874049D01*
X103305184Y-38874051D01*
X103494588Y-38970557D01*
X103696757Y-39036246D01*
X103906713Y-39069500D01*
X103906714Y-39069500D01*
X104119282Y-39069500D01*
X104119287Y-39069500D01*
X104132320Y-39067435D01*
X104201611Y-39076388D01*
X104239400Y-39102227D01*
X109727617Y-44590444D01*
X109727618Y-44590445D01*
X109841552Y-44704379D01*
X109841554Y-44704381D01*
X109975533Y-44793903D01*
X110049959Y-44824731D01*
X110124398Y-44855565D01*
X110282429Y-44886999D01*
X110282433Y-44887000D01*
X110282434Y-44887000D01*
X163479157Y-44887000D01*
X163479158Y-44886999D01*
X163637192Y-44855565D01*
X163711625Y-44824733D01*
X163786058Y-44793903D01*
X163920035Y-44704382D01*
X167324768Y-41299648D01*
X194152500Y-41299648D01*
X194152500Y-41504351D01*
X194184522Y-41706534D01*
X194247781Y-41901223D01*
X194340715Y-42083613D01*
X194461028Y-42249213D01*
X194605786Y-42393971D01*
X194760749Y-42506556D01*
X194771390Y-42514287D01*
X194887607Y-42573503D01*
X194953776Y-42607218D01*
X194953778Y-42607218D01*
X194953781Y-42607220D01*
X195058137Y-42641127D01*
X195148465Y-42670477D01*
X195249557Y-42686488D01*
X195350648Y-42702500D01*
X195350649Y-42702500D01*
X195555351Y-42702500D01*
X195555352Y-42702500D01*
X195757534Y-42670477D01*
X195952219Y-42607220D01*
X196134610Y-42514287D01*
X196227590Y-42446732D01*
X196300213Y-42393971D01*
X196300215Y-42393968D01*
X196300219Y-42393966D01*
X196444966Y-42249219D01*
X196444968Y-42249215D01*
X196444971Y-42249213D01*
X196497732Y-42176590D01*
X196565287Y-42083610D01*
X196658220Y-41901219D01*
X196721477Y-41706534D01*
X196753500Y-41504352D01*
X196753500Y-41299648D01*
X196721477Y-41097466D01*
X196658220Y-40902781D01*
X196658218Y-40902778D01*
X196658218Y-40902776D01*
X196620738Y-40829218D01*
X196565287Y-40720390D01*
X196500205Y-40630811D01*
X196444971Y-40554786D01*
X196300213Y-40410028D01*
X196134613Y-40289715D01*
X196134612Y-40289714D01*
X196134610Y-40289713D01*
X196077653Y-40260691D01*
X195952223Y-40196781D01*
X195757534Y-40133522D01*
X195582995Y-40105878D01*
X195555352Y-40101500D01*
X195350648Y-40101500D01*
X195326329Y-40105351D01*
X195148465Y-40133522D01*
X194953776Y-40196781D01*
X194771386Y-40289715D01*
X194605786Y-40410028D01*
X194461028Y-40554786D01*
X194340715Y-40720386D01*
X194247781Y-40902776D01*
X194184522Y-41097465D01*
X194152500Y-41299648D01*
X167324768Y-41299648D01*
X168804389Y-39820026D01*
X168865712Y-39786542D01*
X168935404Y-39791526D01*
X168991337Y-39833398D01*
X169014543Y-39888310D01*
X169048446Y-40102368D01*
X169121433Y-40326996D01*
X169194916Y-40471213D01*
X169228657Y-40537433D01*
X169367483Y-40728510D01*
X169534490Y-40895517D01*
X169725567Y-41034343D01*
X169809575Y-41077147D01*
X169936003Y-41141566D01*
X169936005Y-41141566D01*
X169936008Y-41141568D01*
X170034694Y-41173633D01*
X170160631Y-41214553D01*
X170393903Y-41251500D01*
X170393908Y-41251500D01*
X172630097Y-41251500D01*
X172863368Y-41214553D01*
X173087992Y-41141568D01*
X173298433Y-41034343D01*
X173489510Y-40895517D01*
X173656517Y-40728510D01*
X173795343Y-40537433D01*
X173902568Y-40326992D01*
X173975553Y-40102368D01*
X173975690Y-40101500D01*
X174012500Y-39869097D01*
X174012500Y-39632902D01*
X173975553Y-39399631D01*
X173902566Y-39175003D01*
X173795342Y-38964566D01*
X173779230Y-38942390D01*
X173656517Y-38773490D01*
X173489510Y-38606483D01*
X173298433Y-38467657D01*
X173254467Y-38445255D01*
X173087996Y-38360433D01*
X172863368Y-38287446D01*
X172630097Y-38250500D01*
X172630092Y-38250500D01*
X170393908Y-38250500D01*
X170393903Y-38250500D01*
X170160630Y-38287447D01*
X170160627Y-38287447D01*
X170144318Y-38292747D01*
X170074476Y-38294742D01*
X170014644Y-38258661D01*
X169983816Y-38195960D01*
X169982000Y-38174816D01*
X169982000Y-36519905D01*
X174212000Y-36519905D01*
X174212000Y-36801000D01*
X175712000Y-36801000D01*
X175712000Y-37301000D01*
X174212000Y-37301000D01*
X174212000Y-37582094D01*
X174246220Y-37842009D01*
X174246222Y-37842020D01*
X174314075Y-38095255D01*
X174414404Y-38337471D01*
X174414409Y-38337482D01*
X174545496Y-38564528D01*
X174705092Y-38772519D01*
X174705098Y-38772526D01*
X174890473Y-38957901D01*
X174890480Y-38957907D01*
X175098471Y-39117503D01*
X175325517Y-39248590D01*
X175325528Y-39248595D01*
X175567744Y-39348924D01*
X175820979Y-39416777D01*
X175820992Y-39416780D01*
X175962000Y-39435343D01*
X175962000Y-37884012D01*
X176019007Y-37916925D01*
X176146174Y-37951000D01*
X176277826Y-37951000D01*
X176404993Y-37916925D01*
X176462000Y-37884012D01*
X176462000Y-39435342D01*
X176603007Y-39416780D01*
X176603020Y-39416777D01*
X176856255Y-39348924D01*
X177098471Y-39248595D01*
X177098482Y-39248590D01*
X177325528Y-39117503D01*
X177533519Y-38957907D01*
X177533526Y-38957901D01*
X177718901Y-38772526D01*
X177718907Y-38772519D01*
X177878503Y-38564528D01*
X178009590Y-38337482D01*
X178009598Y-38337466D01*
X178037150Y-38270949D01*
X178080990Y-38216545D01*
X178147284Y-38194480D01*
X178214984Y-38211759D01*
X178262594Y-38262896D01*
X178271486Y-38286308D01*
X178314075Y-38445255D01*
X178414404Y-38687471D01*
X178414409Y-38687482D01*
X178545496Y-38914528D01*
X178705092Y-39122519D01*
X178705098Y-39122526D01*
X178890473Y-39307901D01*
X178890480Y-39307907D01*
X179098471Y-39467503D01*
X179325517Y-39598590D01*
X179325528Y-39598595D01*
X179567744Y-39698924D01*
X179820979Y-39766777D01*
X179820992Y-39766780D01*
X179962000Y-39785343D01*
X179962000Y-38234012D01*
X180019007Y-38266925D01*
X180146174Y-38301000D01*
X180277826Y-38301000D01*
X180404993Y-38266925D01*
X180462000Y-38234012D01*
X180462000Y-39785342D01*
X180603007Y-39766780D01*
X180603020Y-39766777D01*
X180856255Y-39698924D01*
X181015646Y-39632902D01*
X182411500Y-39632902D01*
X182411500Y-39869097D01*
X182448446Y-40102368D01*
X182521433Y-40326996D01*
X182594916Y-40471213D01*
X182628657Y-40537433D01*
X182767483Y-40728510D01*
X182934490Y-40895517D01*
X183125567Y-41034343D01*
X183209575Y-41077147D01*
X183336003Y-41141566D01*
X183336005Y-41141566D01*
X183336008Y-41141568D01*
X183434694Y-41173633D01*
X183560631Y-41214553D01*
X183793903Y-41251500D01*
X183793908Y-41251500D01*
X186030097Y-41251500D01*
X186263368Y-41214553D01*
X186487992Y-41141568D01*
X186698433Y-41034343D01*
X186889510Y-40895517D01*
X187056517Y-40728510D01*
X187195343Y-40537433D01*
X187302568Y-40326992D01*
X187375553Y-40102368D01*
X187375690Y-40101500D01*
X187412500Y-39869097D01*
X187412500Y-39632902D01*
X187375553Y-39399631D01*
X187302566Y-39175003D01*
X187195342Y-38964566D01*
X187179230Y-38942390D01*
X187056517Y-38773490D01*
X186889510Y-38606483D01*
X186698433Y-38467657D01*
X186654467Y-38445255D01*
X186487996Y-38360433D01*
X186263368Y-38287446D01*
X186030097Y-38250500D01*
X186030092Y-38250500D01*
X183793908Y-38250500D01*
X183793903Y-38250500D01*
X183560631Y-38287446D01*
X183336003Y-38360433D01*
X183125566Y-38467657D01*
X183016550Y-38546862D01*
X182934490Y-38606483D01*
X182934488Y-38606485D01*
X182934487Y-38606485D01*
X182767485Y-38773487D01*
X182767485Y-38773488D01*
X182767483Y-38773490D01*
X182707862Y-38855550D01*
X182628657Y-38964566D01*
X182521433Y-39175003D01*
X182448446Y-39399631D01*
X182411500Y-39632902D01*
X181015646Y-39632902D01*
X181098471Y-39598595D01*
X181098475Y-39598593D01*
X181233478Y-39520649D01*
X181233479Y-39520648D01*
X181325528Y-39467503D01*
X181533519Y-39307907D01*
X181533526Y-39307901D01*
X181718901Y-39122526D01*
X181718907Y-39122519D01*
X181878503Y-38914528D01*
X182009590Y-38687482D01*
X182009595Y-38687471D01*
X182109924Y-38445255D01*
X182177777Y-38192020D01*
X182177779Y-38192009D01*
X182211999Y-37932094D01*
X182212000Y-37932080D01*
X182212000Y-37301000D01*
X180712000Y-37301000D01*
X180712000Y-36801000D01*
X182212000Y-36801000D01*
X182212000Y-36519905D01*
X187612000Y-36519905D01*
X187612000Y-36801000D01*
X189112000Y-36801000D01*
X189112000Y-37301000D01*
X187612000Y-37301000D01*
X187612000Y-37582094D01*
X187646220Y-37842009D01*
X187646222Y-37842020D01*
X187714075Y-38095255D01*
X187814404Y-38337471D01*
X187814409Y-38337482D01*
X187945496Y-38564528D01*
X188105092Y-38772519D01*
X188105098Y-38772526D01*
X188290473Y-38957901D01*
X188290480Y-38957907D01*
X188498471Y-39117503D01*
X188725517Y-39248590D01*
X188725528Y-39248595D01*
X188967744Y-39348924D01*
X189220979Y-39416777D01*
X189220992Y-39416780D01*
X189362000Y-39435343D01*
X189362000Y-37884012D01*
X189419007Y-37916925D01*
X189546174Y-37951000D01*
X189677826Y-37951000D01*
X189804993Y-37916925D01*
X189862000Y-37884012D01*
X189862000Y-39435343D01*
X190003007Y-39416780D01*
X190003020Y-39416777D01*
X190256255Y-39348924D01*
X190498471Y-39248595D01*
X190498482Y-39248590D01*
X190725528Y-39117503D01*
X190933519Y-38957907D01*
X190933526Y-38957901D01*
X191118901Y-38772526D01*
X191118907Y-38772519D01*
X191278503Y-38564528D01*
X191409590Y-38337482D01*
X191409595Y-38337471D01*
X191509924Y-38095255D01*
X191577777Y-37842020D01*
X191577779Y-37842009D01*
X191611999Y-37582094D01*
X191612000Y-37582080D01*
X191612000Y-37301000D01*
X190112000Y-37301000D01*
X190112000Y-36801000D01*
X191612000Y-36801000D01*
X191612000Y-36519919D01*
X191611999Y-36519905D01*
X191577779Y-36259990D01*
X191577777Y-36259979D01*
X191509924Y-36006744D01*
X191409595Y-35764528D01*
X191409590Y-35764517D01*
X191278503Y-35537471D01*
X191118907Y-35329480D01*
X191118901Y-35329473D01*
X190933526Y-35144098D01*
X190933519Y-35144092D01*
X190725528Y-34984496D01*
X190498482Y-34853409D01*
X190498471Y-34853404D01*
X190256255Y-34753075D01*
X190003016Y-34685221D01*
X189862000Y-34666654D01*
X189862000Y-36217988D01*
X189804993Y-36185075D01*
X189677826Y-36151000D01*
X189546174Y-36151000D01*
X189419007Y-36185075D01*
X189362000Y-36217988D01*
X189362000Y-34666654D01*
X189361999Y-34666654D01*
X189220983Y-34685221D01*
X188967744Y-34753075D01*
X188725528Y-34853404D01*
X188725517Y-34853409D01*
X188498471Y-34984496D01*
X188290480Y-35144092D01*
X188290473Y-35144098D01*
X188105098Y-35329473D01*
X188105092Y-35329480D01*
X187945496Y-35537471D01*
X187814409Y-35764517D01*
X187814404Y-35764528D01*
X187714075Y-36006744D01*
X187646222Y-36259979D01*
X187646220Y-36259990D01*
X187612000Y-36519905D01*
X182212000Y-36519905D01*
X182212000Y-36169919D01*
X182211999Y-36169905D01*
X182177779Y-35909990D01*
X182177777Y-35909979D01*
X182109924Y-35656744D01*
X182009595Y-35414528D01*
X182009590Y-35414517D01*
X181878503Y-35187471D01*
X181718907Y-34979480D01*
X181718901Y-34979473D01*
X181533526Y-34794098D01*
X181533519Y-34794092D01*
X181325528Y-34634496D01*
X181098482Y-34503409D01*
X181098471Y-34503404D01*
X180856255Y-34403075D01*
X180603016Y-34335221D01*
X180462000Y-34316654D01*
X180462000Y-35867988D01*
X180404993Y-35835075D01*
X180277826Y-35801000D01*
X180146174Y-35801000D01*
X180019007Y-35835075D01*
X179962000Y-35867988D01*
X179962000Y-34316654D01*
X179961999Y-34316654D01*
X179820983Y-34335221D01*
X179567744Y-34403075D01*
X179325528Y-34503404D01*
X179325517Y-34503409D01*
X179098471Y-34634496D01*
X178890480Y-34794092D01*
X178890473Y-34794098D01*
X178705098Y-34979473D01*
X178705092Y-34979480D01*
X178545496Y-35187471D01*
X178414409Y-35414517D01*
X178414404Y-35414528D01*
X178314076Y-35656742D01*
X178271486Y-35815692D01*
X178235121Y-35875352D01*
X178172274Y-35905881D01*
X178102898Y-35897586D01*
X178049020Y-35853101D01*
X178037150Y-35831050D01*
X178009598Y-35764533D01*
X178009590Y-35764517D01*
X177878503Y-35537471D01*
X177718907Y-35329480D01*
X177718901Y-35329473D01*
X177533526Y-35144098D01*
X177533519Y-35144092D01*
X177325528Y-34984496D01*
X177098482Y-34853409D01*
X177098471Y-34853404D01*
X176856255Y-34753075D01*
X176603016Y-34685221D01*
X176462000Y-34666654D01*
X176462000Y-36217988D01*
X176404993Y-36185075D01*
X176277826Y-36151000D01*
X176146174Y-36151000D01*
X176019007Y-36185075D01*
X175962000Y-36217988D01*
X175962000Y-34666654D01*
X175820983Y-34685221D01*
X175567744Y-34753075D01*
X175325528Y-34853404D01*
X175325517Y-34853409D01*
X175098471Y-34984496D01*
X174890480Y-35144092D01*
X174890473Y-35144098D01*
X174705098Y-35329473D01*
X174705092Y-35329480D01*
X174545496Y-35537471D01*
X174414409Y-35764517D01*
X174414404Y-35764528D01*
X174314075Y-36006744D01*
X174246222Y-36259979D01*
X174246220Y-36259990D01*
X174212000Y-36519905D01*
X169982000Y-36519905D01*
X169982000Y-34389189D01*
X170001685Y-34322150D01*
X170018319Y-34301508D01*
X171132008Y-33187819D01*
X171193331Y-33154334D01*
X171219689Y-33151500D01*
X172630097Y-33151500D01*
X172863368Y-33114553D01*
X172888642Y-33106341D01*
X173087992Y-33041568D01*
X173298433Y-32934343D01*
X173489510Y-32795517D01*
X173656517Y-32628510D01*
X173795343Y-32437433D01*
X173902568Y-32226992D01*
X173975553Y-32002368D01*
X173985440Y-31939946D01*
X174012500Y-31769097D01*
X174012500Y-31532902D01*
X182411500Y-31532902D01*
X182411500Y-31769097D01*
X182448446Y-32002368D01*
X182521433Y-32226996D01*
X182570228Y-32322760D01*
X182628657Y-32437433D01*
X182767483Y-32628510D01*
X182934490Y-32795517D01*
X183125567Y-32934343D01*
X183166578Y-32955239D01*
X183336003Y-33041566D01*
X183336005Y-33041566D01*
X183336008Y-33041568D01*
X183456412Y-33080689D01*
X183560631Y-33114553D01*
X183793903Y-33151500D01*
X183793908Y-33151500D01*
X186030097Y-33151500D01*
X186263368Y-33114553D01*
X186288642Y-33106341D01*
X186487992Y-33041568D01*
X186698433Y-32934343D01*
X186889510Y-32795517D01*
X187056517Y-32628510D01*
X187195343Y-32437433D01*
X187302568Y-32226992D01*
X187375553Y-32002368D01*
X187385440Y-31939946D01*
X187412500Y-31769097D01*
X187412500Y-31532902D01*
X187375553Y-31299631D01*
X187341689Y-31195412D01*
X187302568Y-31075008D01*
X187302566Y-31075004D01*
X187302566Y-31075003D01*
X187195342Y-30864566D01*
X187153384Y-30806816D01*
X187056517Y-30673490D01*
X186889510Y-30506483D01*
X186698433Y-30367657D01*
X186487996Y-30260433D01*
X186263368Y-30187446D01*
X186030097Y-30150500D01*
X186030092Y-30150500D01*
X183793908Y-30150500D01*
X183793903Y-30150500D01*
X183560631Y-30187446D01*
X183336003Y-30260433D01*
X183125566Y-30367657D01*
X183041569Y-30428685D01*
X182934490Y-30506483D01*
X182934488Y-30506485D01*
X182934487Y-30506485D01*
X182767485Y-30673487D01*
X182767485Y-30673488D01*
X182767483Y-30673490D01*
X182726090Y-30730463D01*
X182628657Y-30864566D01*
X182521433Y-31075003D01*
X182448446Y-31299631D01*
X182411500Y-31532902D01*
X174012500Y-31532902D01*
X173975553Y-31299631D01*
X173941689Y-31195412D01*
X173902568Y-31075008D01*
X173902566Y-31075004D01*
X173902566Y-31075003D01*
X173795342Y-30864566D01*
X173753384Y-30806816D01*
X173656517Y-30673490D01*
X173489510Y-30506483D01*
X173298433Y-30367657D01*
X173087996Y-30260433D01*
X172863368Y-30187446D01*
X172630097Y-30150500D01*
X172630092Y-30150500D01*
X170393908Y-30150500D01*
X170393903Y-30150500D01*
X170160631Y-30187446D01*
X169936003Y-30260433D01*
X169725566Y-30367657D01*
X169641569Y-30428685D01*
X169534490Y-30506483D01*
X169534488Y-30506485D01*
X169534487Y-30506485D01*
X169367485Y-30673487D01*
X169367485Y-30673488D01*
X169367483Y-30673490D01*
X169326090Y-30730463D01*
X169228657Y-30864566D01*
X169121433Y-31075003D01*
X169048446Y-31299631D01*
X169011500Y-31532902D01*
X169011500Y-31769097D01*
X169048446Y-32002368D01*
X169121433Y-32226996D01*
X169170228Y-32322760D01*
X169209790Y-32400405D01*
X169228659Y-32437436D01*
X169309516Y-32548727D01*
X169332996Y-32614533D01*
X169317170Y-32682587D01*
X169296879Y-32709293D01*
X168528620Y-33477551D01*
X168528617Y-33477555D01*
X168439100Y-33611525D01*
X168439093Y-33611538D01*
X168377436Y-33760393D01*
X168377433Y-33760405D01*
X168346000Y-33918429D01*
X168346000Y-34707210D01*
X168326315Y-34774249D01*
X168273511Y-34820004D01*
X168204353Y-34829948D01*
X168140797Y-34800923D01*
X168134319Y-34794891D01*
X168133526Y-34794098D01*
X168133519Y-34794092D01*
X167925528Y-34634496D01*
X167698482Y-34503409D01*
X167698471Y-34503404D01*
X167456255Y-34403075D01*
X167203016Y-34335221D01*
X167062000Y-34316654D01*
X167062000Y-35867988D01*
X167004993Y-35835075D01*
X166877826Y-35801000D01*
X166746174Y-35801000D01*
X166619007Y-35835075D01*
X166562000Y-35867988D01*
X166562000Y-34316654D01*
X166561999Y-34316654D01*
X166420983Y-34335221D01*
X166167744Y-34403075D01*
X165925528Y-34503404D01*
X165925517Y-34503409D01*
X165698471Y-34634496D01*
X165490480Y-34794092D01*
X165490473Y-34794098D01*
X165305098Y-34979473D01*
X165305092Y-34979480D01*
X165145496Y-35187471D01*
X165014409Y-35414517D01*
X165014404Y-35414528D01*
X164914076Y-35656742D01*
X164871486Y-35815692D01*
X164835121Y-35875352D01*
X164772274Y-35905881D01*
X164702898Y-35897586D01*
X164649020Y-35853101D01*
X164637150Y-35831050D01*
X164609598Y-35764533D01*
X164609590Y-35764517D01*
X164478503Y-35537471D01*
X164318907Y-35329480D01*
X164318901Y-35329473D01*
X164133526Y-35144098D01*
X164133519Y-35144092D01*
X163925528Y-34984496D01*
X163698482Y-34853409D01*
X163698471Y-34853404D01*
X163456255Y-34753075D01*
X163203016Y-34685221D01*
X163062000Y-34666654D01*
X163062000Y-36217988D01*
X163004993Y-36185075D01*
X162877826Y-36151000D01*
X162746174Y-36151000D01*
X162619007Y-36185075D01*
X162562000Y-36217988D01*
X162562000Y-34666654D01*
X162561999Y-34666654D01*
X162420983Y-34685221D01*
X162167744Y-34753075D01*
X161925528Y-34853404D01*
X161925517Y-34853409D01*
X161698471Y-34984496D01*
X161490480Y-35144092D01*
X161490473Y-35144098D01*
X161305098Y-35329473D01*
X161305092Y-35329480D01*
X161145496Y-35537471D01*
X161014409Y-35764517D01*
X161014404Y-35764528D01*
X160914075Y-36006744D01*
X160846222Y-36259979D01*
X160846220Y-36259990D01*
X160812000Y-36519905D01*
X160812000Y-36801000D01*
X162312000Y-36801000D01*
X162312000Y-37301000D01*
X160812000Y-37301000D01*
X160812000Y-37582094D01*
X160846220Y-37842009D01*
X160846222Y-37842020D01*
X160914075Y-38095255D01*
X161014404Y-38337471D01*
X161014409Y-38337482D01*
X161145496Y-38564528D01*
X161305092Y-38772519D01*
X161305098Y-38772526D01*
X161490473Y-38957901D01*
X161490480Y-38957907D01*
X161698471Y-39117503D01*
X161925517Y-39248590D01*
X161925528Y-39248595D01*
X162167744Y-39348924D01*
X162420979Y-39416777D01*
X162420992Y-39416780D01*
X162562000Y-39435343D01*
X162562000Y-37884012D01*
X162619007Y-37916925D01*
X162746174Y-37951000D01*
X162877826Y-37951000D01*
X163004993Y-37916925D01*
X163062000Y-37884012D01*
X163062000Y-39435343D01*
X163203007Y-39416780D01*
X163203020Y-39416777D01*
X163456255Y-39348924D01*
X163698471Y-39248595D01*
X163698482Y-39248590D01*
X163925528Y-39117503D01*
X164133519Y-38957907D01*
X164133526Y-38957901D01*
X164318901Y-38772526D01*
X164318907Y-38772519D01*
X164478503Y-38564528D01*
X164609590Y-38337482D01*
X164609598Y-38337466D01*
X164637150Y-38270949D01*
X164680990Y-38216545D01*
X164747284Y-38194480D01*
X164814984Y-38211759D01*
X164862594Y-38262896D01*
X164871486Y-38286308D01*
X164914075Y-38445255D01*
X165014404Y-38687471D01*
X165014409Y-38687482D01*
X165145496Y-38914528D01*
X165305092Y-39122519D01*
X165305098Y-39122526D01*
X165490473Y-39307901D01*
X165490480Y-39307907D01*
X165698471Y-39467503D01*
X165925517Y-39598590D01*
X165925528Y-39598595D01*
X166167744Y-39698924D01*
X166310533Y-39737184D01*
X166370194Y-39773549D01*
X166400723Y-39836396D01*
X166392428Y-39905771D01*
X166366121Y-39944640D01*
X163096082Y-43214681D01*
X163034759Y-43248166D01*
X163008401Y-43251000D01*
X154674189Y-43251000D01*
X154607150Y-43231315D01*
X154561395Y-43178511D01*
X154551451Y-43109353D01*
X154580476Y-43045797D01*
X154586508Y-43039319D01*
X155231860Y-42393966D01*
X155959235Y-41666589D01*
X155959240Y-41666586D01*
X155969443Y-41656382D01*
X155969445Y-41656382D01*
X156083382Y-41542445D01*
X156108834Y-41504352D01*
X156119236Y-41488784D01*
X156119238Y-41488780D01*
X156172903Y-41408468D01*
X156234565Y-41259602D01*
X156251666Y-41173633D01*
X156284051Y-41111722D01*
X156344767Y-41077147D01*
X156414536Y-41080887D01*
X156429578Y-41087339D01*
X156536003Y-41141566D01*
X156536005Y-41141566D01*
X156536008Y-41141568D01*
X156634694Y-41173633D01*
X156760631Y-41214553D01*
X156993903Y-41251500D01*
X156993908Y-41251500D01*
X159230097Y-41251500D01*
X159463368Y-41214553D01*
X159687992Y-41141568D01*
X159898433Y-41034343D01*
X160089510Y-40895517D01*
X160256517Y-40728510D01*
X160395343Y-40537433D01*
X160502568Y-40326992D01*
X160575553Y-40102368D01*
X160575690Y-40101500D01*
X160612500Y-39869097D01*
X160612500Y-39632902D01*
X160575553Y-39399631D01*
X160502566Y-39175003D01*
X160395342Y-38964566D01*
X160379230Y-38942390D01*
X160256517Y-38773490D01*
X160089510Y-38606483D01*
X159898433Y-38467657D01*
X159854467Y-38445255D01*
X159687996Y-38360433D01*
X159463368Y-38287446D01*
X159230097Y-38250500D01*
X159230092Y-38250500D01*
X156993908Y-38250500D01*
X156993903Y-38250500D01*
X156760631Y-38287446D01*
X156536003Y-38360433D01*
X156446295Y-38406143D01*
X156377626Y-38419039D01*
X156312885Y-38392763D01*
X156272628Y-38335656D01*
X156266000Y-38295658D01*
X156266000Y-33106341D01*
X156285685Y-33039302D01*
X156338489Y-32993547D01*
X156407647Y-32983603D01*
X156446293Y-32995856D01*
X156487065Y-33016630D01*
X156536001Y-33041565D01*
X156536004Y-33041565D01*
X156536008Y-33041568D01*
X156691151Y-33091977D01*
X156760631Y-33114553D01*
X156993903Y-33151500D01*
X156993908Y-33151500D01*
X159230097Y-33151500D01*
X159463368Y-33114553D01*
X159488642Y-33106341D01*
X159687992Y-33041568D01*
X159898433Y-32934343D01*
X160089510Y-32795517D01*
X160256517Y-32628510D01*
X160395343Y-32437433D01*
X160502568Y-32226992D01*
X160575553Y-32002368D01*
X160585440Y-31939946D01*
X160612500Y-31769097D01*
X160612500Y-31532902D01*
X160575553Y-31299631D01*
X160541689Y-31195412D01*
X160502568Y-31075008D01*
X160502566Y-31075004D01*
X160502566Y-31075003D01*
X160395342Y-30864566D01*
X160353384Y-30806816D01*
X160256517Y-30673490D01*
X160203708Y-30620681D01*
X160170223Y-30559358D01*
X160175207Y-30489666D01*
X160217079Y-30433733D01*
X160282543Y-30409316D01*
X160291389Y-30409000D01*
X166196567Y-30409000D01*
X166196568Y-30408999D01*
X166354602Y-30377565D01*
X166429035Y-30346733D01*
X166503468Y-30315903D01*
X166637445Y-30226382D01*
X169374937Y-27488887D01*
X169436258Y-27455404D01*
X169505949Y-27460388D01*
X169535500Y-27476251D01*
X169725567Y-27614343D01*
X169756296Y-27630000D01*
X169936003Y-27721566D01*
X169936005Y-27721566D01*
X169936008Y-27721568D01*
X170056412Y-27760689D01*
X170160631Y-27794553D01*
X170393903Y-27831500D01*
X170393908Y-27831500D01*
X172630097Y-27831500D01*
X172863368Y-27794553D01*
X173087992Y-27721568D01*
X173298433Y-27614343D01*
X173489510Y-27475517D01*
X173656517Y-27308510D01*
X173795343Y-27117433D01*
X173902568Y-26906992D01*
X173975553Y-26682368D01*
X173976053Y-26679213D01*
X174012500Y-26449097D01*
X174012500Y-26212902D01*
X173975553Y-25979631D01*
X173902566Y-25755003D01*
X173816458Y-25586008D01*
X173795343Y-25544567D01*
X173656517Y-25353490D01*
X173489510Y-25186483D01*
X173298433Y-25047657D01*
X173254467Y-25025255D01*
X173087996Y-24940433D01*
X172863368Y-24867446D01*
X172630097Y-24830500D01*
X172630092Y-24830500D01*
X170393908Y-24830500D01*
X170393903Y-24830500D01*
X170160631Y-24867446D01*
X169936000Y-24940434D01*
X169908294Y-24954552D01*
X169839625Y-24967448D01*
X169774884Y-24941171D01*
X169734628Y-24884064D01*
X169728000Y-24844067D01*
X169728000Y-23099905D01*
X174212000Y-23099905D01*
X174212000Y-23381000D01*
X175712000Y-23381000D01*
X175712000Y-23881000D01*
X174212000Y-23881000D01*
X174212000Y-24162094D01*
X174246220Y-24422009D01*
X174246222Y-24422020D01*
X174314075Y-24675255D01*
X174414404Y-24917471D01*
X174414409Y-24917482D01*
X174545496Y-25144528D01*
X174705092Y-25352519D01*
X174705098Y-25352526D01*
X174890473Y-25537901D01*
X174890480Y-25537907D01*
X175098471Y-25697503D01*
X175325517Y-25828590D01*
X175325528Y-25828595D01*
X175567744Y-25928924D01*
X175820979Y-25996777D01*
X175820992Y-25996780D01*
X175962000Y-26015343D01*
X175962000Y-24464012D01*
X176019007Y-24496925D01*
X176146174Y-24531000D01*
X176277826Y-24531000D01*
X176404993Y-24496925D01*
X176462000Y-24464012D01*
X176462000Y-26015342D01*
X176603007Y-25996780D01*
X176603020Y-25996777D01*
X176856255Y-25928924D01*
X177098471Y-25828595D01*
X177098482Y-25828590D01*
X177325528Y-25697503D01*
X177533519Y-25537907D01*
X177533526Y-25537901D01*
X177718901Y-25352526D01*
X177718907Y-25352519D01*
X177878503Y-25144528D01*
X178009590Y-24917482D01*
X178009598Y-24917466D01*
X178037150Y-24850949D01*
X178080990Y-24796545D01*
X178147284Y-24774480D01*
X178214984Y-24791759D01*
X178262594Y-24842896D01*
X178271486Y-24866308D01*
X178314075Y-25025255D01*
X178414404Y-25267471D01*
X178414409Y-25267482D01*
X178545496Y-25494528D01*
X178705092Y-25702519D01*
X178705098Y-25702526D01*
X178890473Y-25887901D01*
X178890480Y-25887907D01*
X179098471Y-26047503D01*
X179325517Y-26178590D01*
X179325528Y-26178595D01*
X179567744Y-26278924D01*
X179820979Y-26346777D01*
X179820992Y-26346780D01*
X179962000Y-26365343D01*
X179962000Y-24814012D01*
X180019007Y-24846925D01*
X180146174Y-24881000D01*
X180277826Y-24881000D01*
X180404993Y-24846925D01*
X180462000Y-24814012D01*
X180462000Y-26365343D01*
X180603007Y-26346780D01*
X180603020Y-26346777D01*
X180856255Y-26278924D01*
X181015646Y-26212902D01*
X182411500Y-26212902D01*
X182411500Y-26449097D01*
X182448446Y-26682368D01*
X182521433Y-26906996D01*
X182608982Y-27078819D01*
X182628657Y-27117433D01*
X182767483Y-27308510D01*
X182934490Y-27475517D01*
X183125567Y-27614343D01*
X183156296Y-27630000D01*
X183336003Y-27721566D01*
X183336005Y-27721566D01*
X183336008Y-27721568D01*
X183456412Y-27760689D01*
X183560631Y-27794553D01*
X183793903Y-27831500D01*
X183793908Y-27831500D01*
X186030097Y-27831500D01*
X186263368Y-27794553D01*
X186487992Y-27721568D01*
X186698433Y-27614343D01*
X186889510Y-27475517D01*
X187056517Y-27308510D01*
X187195343Y-27117433D01*
X187302568Y-26906992D01*
X187375553Y-26682368D01*
X187376053Y-26679213D01*
X187412500Y-26449097D01*
X187412500Y-26212902D01*
X187375553Y-25979631D01*
X187302566Y-25755003D01*
X187216458Y-25586008D01*
X187195343Y-25544567D01*
X187056517Y-25353490D01*
X186889510Y-25186483D01*
X186698433Y-25047657D01*
X186654467Y-25025255D01*
X186487996Y-24940433D01*
X186263368Y-24867446D01*
X186030097Y-24830500D01*
X186030092Y-24830500D01*
X183793908Y-24830500D01*
X183793903Y-24830500D01*
X183560631Y-24867446D01*
X183336003Y-24940433D01*
X183125566Y-25047657D01*
X183049185Y-25103152D01*
X182934490Y-25186483D01*
X182934488Y-25186485D01*
X182934487Y-25186485D01*
X182767485Y-25353487D01*
X182767485Y-25353488D01*
X182767483Y-25353490D01*
X182756282Y-25368907D01*
X182628657Y-25544566D01*
X182521433Y-25755003D01*
X182448446Y-25979631D01*
X182411500Y-26212902D01*
X181015646Y-26212902D01*
X181098471Y-26178595D01*
X181098475Y-26178593D01*
X181233478Y-26100649D01*
X181233479Y-26100648D01*
X181325528Y-26047503D01*
X181533519Y-25887907D01*
X181533526Y-25887901D01*
X181718901Y-25702526D01*
X181718907Y-25702519D01*
X181878503Y-25494528D01*
X182009590Y-25267482D01*
X182009595Y-25267471D01*
X182109924Y-25025255D01*
X182177777Y-24772020D01*
X182177779Y-24772009D01*
X182211999Y-24512094D01*
X182212000Y-24512080D01*
X182212000Y-23881000D01*
X180712000Y-23881000D01*
X180712000Y-23381000D01*
X182212000Y-23381000D01*
X182212000Y-23099905D01*
X187612000Y-23099905D01*
X187612000Y-23381000D01*
X189112000Y-23381000D01*
X189112000Y-23881000D01*
X187612000Y-23881000D01*
X187612000Y-24162094D01*
X187646220Y-24422009D01*
X187646222Y-24422020D01*
X187714075Y-24675255D01*
X187814404Y-24917471D01*
X187814409Y-24917482D01*
X187945496Y-25144528D01*
X188105092Y-25352519D01*
X188105098Y-25352526D01*
X188290473Y-25537901D01*
X188290480Y-25537907D01*
X188498471Y-25697503D01*
X188725517Y-25828590D01*
X188725528Y-25828595D01*
X188967744Y-25928924D01*
X189220979Y-25996777D01*
X189220992Y-25996780D01*
X189362000Y-26015343D01*
X189362000Y-24464012D01*
X189419007Y-24496925D01*
X189546174Y-24531000D01*
X189677826Y-24531000D01*
X189804993Y-24496925D01*
X189862000Y-24464012D01*
X189862000Y-26015342D01*
X190003007Y-25996780D01*
X190003020Y-25996777D01*
X190256255Y-25928924D01*
X190498471Y-25828595D01*
X190498482Y-25828590D01*
X190725528Y-25697503D01*
X190933519Y-25537907D01*
X190933526Y-25537901D01*
X191118901Y-25352526D01*
X191118907Y-25352519D01*
X191278503Y-25144528D01*
X191409590Y-24917482D01*
X191409595Y-24917471D01*
X191509924Y-24675255D01*
X191577777Y-24422020D01*
X191577779Y-24422009D01*
X191611999Y-24162094D01*
X191612000Y-24162080D01*
X191612000Y-23881000D01*
X190112000Y-23881000D01*
X190112000Y-23381000D01*
X191612000Y-23381000D01*
X191612000Y-23099919D01*
X191611999Y-23099905D01*
X191577779Y-22839990D01*
X191577777Y-22839979D01*
X191509924Y-22586744D01*
X191409595Y-22344528D01*
X191409590Y-22344517D01*
X191278503Y-22117471D01*
X191118907Y-21909480D01*
X191118901Y-21909473D01*
X190933526Y-21724098D01*
X190933519Y-21724092D01*
X190725528Y-21564496D01*
X190498482Y-21433409D01*
X190498471Y-21433404D01*
X190256255Y-21333075D01*
X190003016Y-21265221D01*
X189862000Y-21246654D01*
X189862000Y-22797988D01*
X189804993Y-22765075D01*
X189677826Y-22731000D01*
X189546174Y-22731000D01*
X189419007Y-22765075D01*
X189362000Y-22797988D01*
X189362000Y-21246654D01*
X189220983Y-21265221D01*
X188967744Y-21333075D01*
X188725528Y-21433404D01*
X188725517Y-21433409D01*
X188498471Y-21564496D01*
X188290480Y-21724092D01*
X188290473Y-21724098D01*
X188105098Y-21909473D01*
X188105092Y-21909480D01*
X187945496Y-22117471D01*
X187814409Y-22344517D01*
X187814404Y-22344528D01*
X187714075Y-22586744D01*
X187646222Y-22839979D01*
X187646220Y-22839990D01*
X187612000Y-23099905D01*
X182212000Y-23099905D01*
X182212000Y-22749919D01*
X182211999Y-22749905D01*
X182177779Y-22489990D01*
X182177777Y-22489979D01*
X182109924Y-22236744D01*
X182009595Y-21994528D01*
X182009590Y-21994517D01*
X181878503Y-21767471D01*
X181718907Y-21559480D01*
X181718901Y-21559473D01*
X181533526Y-21374098D01*
X181533519Y-21374092D01*
X181325528Y-21214496D01*
X181098482Y-21083409D01*
X181098471Y-21083404D01*
X180856255Y-20983075D01*
X180603016Y-20915221D01*
X180462000Y-20896654D01*
X180462000Y-22447988D01*
X180404993Y-22415075D01*
X180277826Y-22381000D01*
X180146174Y-22381000D01*
X180019007Y-22415075D01*
X179962000Y-22447988D01*
X179962000Y-20896654D01*
X179961999Y-20896654D01*
X179820983Y-20915221D01*
X179567744Y-20983075D01*
X179325528Y-21083404D01*
X179325517Y-21083409D01*
X179098471Y-21214496D01*
X178890480Y-21374092D01*
X178890473Y-21374098D01*
X178705098Y-21559473D01*
X178705092Y-21559480D01*
X178545496Y-21767471D01*
X178414409Y-21994517D01*
X178414404Y-21994528D01*
X178314076Y-22236742D01*
X178271486Y-22395692D01*
X178235121Y-22455352D01*
X178172274Y-22485881D01*
X178102898Y-22477586D01*
X178049020Y-22433101D01*
X178037150Y-22411050D01*
X178009598Y-22344533D01*
X178009590Y-22344517D01*
X177878503Y-22117471D01*
X177718907Y-21909480D01*
X177718901Y-21909473D01*
X177533526Y-21724098D01*
X177533519Y-21724092D01*
X177325528Y-21564496D01*
X177098482Y-21433409D01*
X177098471Y-21433404D01*
X176856255Y-21333075D01*
X176603016Y-21265221D01*
X176462000Y-21246654D01*
X176462000Y-22797988D01*
X176404993Y-22765075D01*
X176277826Y-22731000D01*
X176146174Y-22731000D01*
X176019007Y-22765075D01*
X175962000Y-22797988D01*
X175962000Y-21246654D01*
X175961999Y-21246654D01*
X175820983Y-21265221D01*
X175567744Y-21333075D01*
X175325528Y-21433404D01*
X175325517Y-21433409D01*
X175098471Y-21564496D01*
X174890480Y-21724092D01*
X174890473Y-21724098D01*
X174705098Y-21909473D01*
X174705092Y-21909480D01*
X174545496Y-22117471D01*
X174414409Y-22344517D01*
X174414404Y-22344528D01*
X174314075Y-22586744D01*
X174246222Y-22839979D01*
X174246220Y-22839990D01*
X174212000Y-23099905D01*
X169728000Y-23099905D01*
X169728000Y-20329187D01*
X169747685Y-20262148D01*
X169764315Y-20241510D01*
X170246000Y-19759824D01*
X170307323Y-19726340D01*
X170353079Y-19725033D01*
X170393908Y-19731500D01*
X170393909Y-19731500D01*
X172630097Y-19731500D01*
X172863368Y-19694553D01*
X172914765Y-19677853D01*
X173087992Y-19621568D01*
X173298433Y-19514343D01*
X173489510Y-19375517D01*
X173656517Y-19208510D01*
X173795343Y-19017433D01*
X173902568Y-18806992D01*
X173975553Y-18582368D01*
X174002320Y-18413368D01*
X174012500Y-18349097D01*
X174012500Y-18112902D01*
X173975553Y-17879631D01*
X173920641Y-17710631D01*
X173902568Y-17655008D01*
X173902566Y-17655005D01*
X173902566Y-17655003D01*
X173821186Y-17495287D01*
X173795343Y-17444567D01*
X173656517Y-17253490D01*
X173489510Y-17086483D01*
X173298433Y-16947657D01*
X173239213Y-16917483D01*
X173134218Y-16863985D01*
X173083422Y-16816010D01*
X173066627Y-16748189D01*
X173089164Y-16682054D01*
X173143880Y-16638603D01*
X173190513Y-16629500D01*
X182102311Y-16629500D01*
X182169350Y-16649185D01*
X182189992Y-16665819D01*
X182696879Y-17172706D01*
X182730364Y-17234029D01*
X182725380Y-17303721D01*
X182709516Y-17333272D01*
X182628659Y-17444562D01*
X182521433Y-17655003D01*
X182448446Y-17879631D01*
X182411500Y-18112902D01*
X182411500Y-18349097D01*
X182448446Y-18582368D01*
X182521433Y-18806996D01*
X182584675Y-18931114D01*
X182628657Y-19017433D01*
X182767483Y-19208510D01*
X182934490Y-19375517D01*
X183125567Y-19514343D01*
X183173765Y-19538901D01*
X183336003Y-19621566D01*
X183336005Y-19621566D01*
X183336008Y-19621568D01*
X183456412Y-19660689D01*
X183560631Y-19694553D01*
X183793903Y-19731500D01*
X183793908Y-19731500D01*
X186030097Y-19731500D01*
X186263368Y-19694553D01*
X186314765Y-19677853D01*
X186487992Y-19621568D01*
X186698433Y-19514343D01*
X186889510Y-19375517D01*
X187056517Y-19208510D01*
X187195343Y-19017433D01*
X187302568Y-18806992D01*
X187375553Y-18582368D01*
X187402320Y-18413368D01*
X187412500Y-18349097D01*
X187412500Y-18112902D01*
X187375553Y-17879631D01*
X187320641Y-17710631D01*
X187302568Y-17655008D01*
X187302566Y-17655005D01*
X187302566Y-17655003D01*
X187221186Y-17495287D01*
X187195343Y-17444567D01*
X187056517Y-17253490D01*
X186889510Y-17086483D01*
X186698433Y-16947657D01*
X186487996Y-16840433D01*
X186263368Y-16767446D01*
X186030097Y-16730500D01*
X186030092Y-16730500D01*
X184619689Y-16730500D01*
X184552650Y-16710815D01*
X184532008Y-16694181D01*
X184201284Y-16363457D01*
X184118475Y-16280648D01*
X193517500Y-16280648D01*
X193517500Y-16485351D01*
X193549522Y-16687534D01*
X193612781Y-16882223D01*
X193705715Y-17064613D01*
X193826028Y-17230213D01*
X193970786Y-17374971D01*
X194066579Y-17444567D01*
X194136390Y-17495287D01*
X194252607Y-17554503D01*
X194318776Y-17588218D01*
X194318778Y-17588218D01*
X194318781Y-17588220D01*
X194423137Y-17622127D01*
X194513465Y-17651477D01*
X194535759Y-17655008D01*
X194715648Y-17683500D01*
X194715649Y-17683500D01*
X194920351Y-17683500D01*
X194920352Y-17683500D01*
X195122534Y-17651477D01*
X195317219Y-17588220D01*
X195499610Y-17495287D01*
X195594128Y-17426616D01*
X195665213Y-17374971D01*
X195665219Y-17374966D01*
X195736464Y-17303721D01*
X195809966Y-17230219D01*
X195809968Y-17230215D01*
X195809971Y-17230213D01*
X195862732Y-17157590D01*
X195930287Y-17064610D01*
X196023220Y-16882219D01*
X196086477Y-16687534D01*
X196118500Y-16485352D01*
X196118500Y-16280648D01*
X196086477Y-16078466D01*
X196023220Y-15883781D01*
X196023218Y-15883778D01*
X196023218Y-15883776D01*
X195989503Y-15817607D01*
X195930287Y-15701390D01*
X195922556Y-15690749D01*
X195809971Y-15535786D01*
X195665213Y-15391028D01*
X195499613Y-15270715D01*
X195499612Y-15270714D01*
X195499610Y-15270713D01*
X195438581Y-15239617D01*
X195317223Y-15177781D01*
X195122534Y-15114522D01*
X194947995Y-15086878D01*
X194920352Y-15082500D01*
X194715648Y-15082500D01*
X194691329Y-15086351D01*
X194513465Y-15114522D01*
X194318776Y-15177781D01*
X194136386Y-15270715D01*
X193970786Y-15391028D01*
X193826028Y-15535786D01*
X193705715Y-15701386D01*
X193612781Y-15883776D01*
X193549522Y-16078465D01*
X193517500Y-16280648D01*
X184118475Y-16280648D01*
X183077448Y-15239620D01*
X183077444Y-15239617D01*
X182943471Y-15150098D01*
X182943468Y-15150097D01*
X182794603Y-15088436D01*
X182794595Y-15088434D01*
X182636568Y-15057000D01*
X182636566Y-15057000D01*
X182475434Y-15057000D01*
X182475432Y-15057000D01*
X182317404Y-15088434D01*
X182317401Y-15088435D01*
X182317399Y-15088435D01*
X182317398Y-15088436D01*
X182262771Y-15111062D01*
X182215323Y-15120500D01*
X139018446Y-15120500D01*
X139018426Y-15120499D01*
X139012312Y-15120499D01*
X138863688Y-15120499D01*
X138863686Y-15120499D01*
X138742105Y-15144684D01*
X138727540Y-15147581D01*
X138717918Y-15149495D01*
X138717917Y-15149495D01*
X138661045Y-15173052D01*
X138661045Y-15173053D01*
X138580611Y-15206370D01*
X138580609Y-15206371D01*
X138457033Y-15288941D01*
X138404487Y-15341487D01*
X138351941Y-15394034D01*
X133962794Y-19783181D01*
X133901471Y-19816666D01*
X133875113Y-19819500D01*
X133016026Y-19819500D01*
X132948987Y-19799815D01*
X132903232Y-19747011D01*
X132893288Y-19677853D01*
X132922313Y-19614297D01*
X132959731Y-19585015D01*
X133098433Y-19514343D01*
X133289510Y-19375517D01*
X133456517Y-19208510D01*
X133595343Y-19017433D01*
X133702568Y-18806992D01*
X133775553Y-18582368D01*
X133802320Y-18413368D01*
X133812500Y-18349097D01*
X133812500Y-18112902D01*
X133775553Y-17879631D01*
X133720641Y-17710631D01*
X133702568Y-17655008D01*
X133702566Y-17655005D01*
X133702566Y-17655003D01*
X133621186Y-17495287D01*
X133595343Y-17444567D01*
X133456517Y-17253490D01*
X133289510Y-17086483D01*
X133098433Y-16947657D01*
X132887996Y-16840433D01*
X132663368Y-16767446D01*
X132430097Y-16730500D01*
X132430092Y-16730500D01*
X130193908Y-16730500D01*
X130193903Y-16730500D01*
X129960631Y-16767446D01*
X129736003Y-16840433D01*
X129525566Y-16947657D01*
X129416550Y-17026862D01*
X129334490Y-17086483D01*
X129334488Y-17086485D01*
X129334487Y-17086485D01*
X129167485Y-17253487D01*
X129167485Y-17253488D01*
X129167483Y-17253490D01*
X129151444Y-17275566D01*
X129028657Y-17444566D01*
X128921433Y-17655003D01*
X128848446Y-17879631D01*
X128811500Y-18112902D01*
X128811500Y-18349097D01*
X128848446Y-18582368D01*
X128921433Y-18806996D01*
X128984675Y-18931114D01*
X129028657Y-19017433D01*
X129167483Y-19208510D01*
X129334490Y-19375517D01*
X129525567Y-19514343D01*
X129598547Y-19551528D01*
X129664269Y-19585015D01*
X129715065Y-19632990D01*
X129731860Y-19700810D01*
X129709323Y-19766945D01*
X129654608Y-19810397D01*
X129607974Y-19819500D01*
X128633886Y-19819500D01*
X128566847Y-19799815D01*
X128546205Y-19783181D01*
X128115969Y-19352943D01*
X128115968Y-19352942D01*
X127992392Y-19270372D01*
X127992391Y-19270371D01*
X127992389Y-19270370D01*
X127992386Y-19270368D01*
X127992381Y-19270366D01*
X127902197Y-19233011D01*
X127902191Y-19233009D01*
X127897785Y-19231184D01*
X127855080Y-19213495D01*
X127830019Y-19208510D01*
X127822755Y-19207065D01*
X127822752Y-19207064D01*
X127709314Y-19184499D01*
X127709312Y-19184499D01*
X127560688Y-19184499D01*
X127554574Y-19184499D01*
X127554554Y-19184500D01*
X119757539Y-19184500D01*
X119690500Y-19164815D01*
X119644745Y-19112011D01*
X119634801Y-19042853D01*
X119657220Y-18987616D01*
X119758343Y-18848433D01*
X119865568Y-18637992D01*
X119938553Y-18413368D01*
X119975500Y-18180097D01*
X119975500Y-17943902D01*
X119938553Y-17710631D01*
X119865566Y-17486003D01*
X119789694Y-17337097D01*
X119758343Y-17275567D01*
X119619517Y-17084490D01*
X119452510Y-16917483D01*
X119261433Y-16778657D01*
X119239430Y-16767446D01*
X119050996Y-16671433D01*
X118826368Y-16598446D01*
X118593097Y-16561500D01*
X118593092Y-16561500D01*
X116356908Y-16561500D01*
X116356903Y-16561500D01*
X116123631Y-16598446D01*
X115899003Y-16671433D01*
X115688566Y-16778657D01*
X115604787Y-16839527D01*
X115497490Y-16917483D01*
X115497488Y-16917485D01*
X115497487Y-16917485D01*
X115330485Y-17084487D01*
X115330485Y-17084488D01*
X115330483Y-17084490D01*
X115251729Y-17192886D01*
X115196399Y-17235551D01*
X115151411Y-17244000D01*
X108349429Y-17244000D01*
X108191405Y-17275433D01*
X108191393Y-17275436D01*
X108042536Y-17337094D01*
X107985856Y-17374967D01*
X107908556Y-17426616D01*
X107851587Y-17483585D01*
X107794618Y-17540555D01*
X107794616Y-17540557D01*
X106779401Y-18555771D01*
X106718078Y-18589256D01*
X106672327Y-18590564D01*
X106659292Y-18588500D01*
X106659287Y-18588500D01*
X106446713Y-18588500D01*
X106433682Y-18590564D01*
X106236760Y-18621753D01*
X106034585Y-18687444D01*
X105845179Y-18783951D01*
X105673213Y-18908890D01*
X105522892Y-19059211D01*
X105518974Y-19064605D01*
X105463643Y-19107270D01*
X105394029Y-19113248D01*
X105332235Y-19080641D01*
X105300951Y-19030723D01*
X105297357Y-19019878D01*
X105297356Y-19019875D01*
X105205315Y-18870654D01*
X105081345Y-18746684D01*
X104932124Y-18654643D01*
X104932119Y-18654641D01*
X104765697Y-18599494D01*
X104765690Y-18599493D01*
X104662986Y-18589000D01*
X104263000Y-18589000D01*
X104263000Y-19505988D01*
X104205993Y-19473075D01*
X104078826Y-19439000D01*
X103947174Y-19439000D01*
X103820007Y-19473075D01*
X103763000Y-19505988D01*
X103763000Y-18589000D01*
X103363028Y-18589000D01*
X103363012Y-18589001D01*
X103260302Y-18599494D01*
X103093880Y-18654641D01*
X103093875Y-18654643D01*
X102944654Y-18746684D01*
X102820684Y-18870654D01*
X102728643Y-19019875D01*
X102728641Y-19019880D01*
X102673494Y-19186302D01*
X102673493Y-19186309D01*
X102663000Y-19289013D01*
X102663000Y-19689000D01*
X103579988Y-19689000D01*
X103547075Y-19746007D01*
X103513000Y-19873174D01*
X103513000Y-20004826D01*
X103547075Y-20131993D01*
X103579988Y-20189000D01*
X102663001Y-20189000D01*
X102663001Y-20588986D01*
X102673494Y-20691697D01*
X102728641Y-20858119D01*
X102728643Y-20858124D01*
X102820684Y-21007345D01*
X102944654Y-21131315D01*
X103093875Y-21223356D01*
X103093882Y-21223359D01*
X103165809Y-21247193D01*
X103223254Y-21286965D01*
X103250078Y-21351481D01*
X103250245Y-21362691D01*
X103883591Y-21996037D01*
X103820007Y-22013075D01*
X103705993Y-22078901D01*
X103612901Y-22171993D01*
X103547075Y-22286007D01*
X103530037Y-22349591D01*
X102897728Y-21717282D01*
X102897727Y-21717282D01*
X102858380Y-21771439D01*
X102761904Y-21960782D01*
X102696242Y-22162869D01*
X102696242Y-22162872D01*
X102663000Y-22372753D01*
X102663000Y-22585246D01*
X102696242Y-22795127D01*
X102696242Y-22795130D01*
X102761904Y-22997217D01*
X102858375Y-23186550D01*
X102897728Y-23240716D01*
X103530036Y-22608407D01*
X103547075Y-22671993D01*
X103612901Y-22786007D01*
X103705993Y-22879099D01*
X103820007Y-22944925D01*
X103883590Y-22961962D01*
X103251282Y-23594269D01*
X103251282Y-23594270D01*
X103305452Y-23633626D01*
X103305451Y-23633626D01*
X103314495Y-23638234D01*
X103365292Y-23686208D01*
X103382087Y-23754029D01*
X103359550Y-23820164D01*
X103314499Y-23859202D01*
X103305182Y-23863949D01*
X103133213Y-23988890D01*
X102982890Y-24139213D01*
X102857951Y-24311179D01*
X102761444Y-24500585D01*
X102761443Y-24500587D01*
X102761443Y-24500588D01*
X102744357Y-24553173D01*
X102695753Y-24702760D01*
X102671442Y-24856255D01*
X102662500Y-24912713D01*
X99941500Y-24912713D01*
X99941500Y-12562500D01*
X99961185Y-12495461D01*
X100013989Y-12449706D01*
X100065500Y-12438500D01*
X199273500Y-12438500D01*
X199340539Y-12458185D01*
G37*
%TD.AperFunction*%
%TD*%
M02*
