G04 EAGLE Gerber RS-274X export*
G75*
%MOMM*%
%FSLAX34Y34*%
%LPD*%
%IN*%
%IPPOS*%
%AMOC8*
5,1,8,0,0,1.08239X$1,22.5*%
G01*
%ADD10C,0.076200*%
%ADD11C,0.127000*%
%ADD12C,0.050000*%
%ADD13C,0.000100*%


D10*
X93980Y1816100D02*
X93980Y1193800D01*
X1744980Y1193800D01*
X1851660Y1252220D01*
X1851660Y1432560D01*
X1752600Y1544320D01*
X1595120Y1651000D01*
X1498600Y1666240D01*
X947420Y1666240D01*
X947420Y1795780D01*
X924560Y1818640D01*
X93980Y1816100D01*
X789940Y1168400D02*
X787400Y419100D01*
X2364740Y419100D01*
X2364740Y1033780D01*
X2725420Y1033780D01*
X2725420Y1610360D01*
X1920240Y1610360D01*
X1920240Y1247140D01*
X1838960Y1168400D01*
X789940Y1168400D01*
X2057400Y1709420D02*
X2057400Y1877060D01*
X998220Y1877060D01*
X998220Y1709420D01*
X2057400Y1709420D01*
X505460Y365760D02*
X505460Y58420D01*
X505460Y365760D02*
X1577340Y365760D01*
X1577340Y60960D01*
X1203960Y60960D01*
X1202732Y60945D01*
X1201506Y60901D01*
X1200280Y60827D01*
X1199057Y60723D01*
X1197837Y60590D01*
X1196620Y60427D01*
X1195407Y60235D01*
X1194200Y60014D01*
X1192998Y59763D01*
X1191803Y59484D01*
X1190614Y59176D01*
X1189434Y58839D01*
X1188262Y58474D01*
X1187099Y58080D01*
X1185946Y57659D01*
X1184804Y57210D01*
X1183672Y56733D01*
X1182553Y56229D01*
X1181446Y55698D01*
X1180352Y55141D01*
X1179272Y54558D01*
X1178206Y53948D01*
X1177156Y53313D01*
X1176121Y52653D01*
X1175102Y51968D01*
X1174101Y51258D01*
X1173116Y50525D01*
X1172150Y49767D01*
X1171202Y48987D01*
X1170273Y48184D01*
X1169364Y47359D01*
X1168476Y46512D01*
X1167608Y45644D01*
X1166761Y44756D01*
X1165936Y43847D01*
X1165133Y42918D01*
X1164353Y41970D01*
X1163595Y41004D01*
X1162862Y40019D01*
X1162152Y39018D01*
X1161467Y37999D01*
X1160807Y36964D01*
X1160172Y35914D01*
X1159562Y34848D01*
X1158979Y33768D01*
X1158422Y32674D01*
X1157891Y31567D01*
X1157387Y30448D01*
X1156910Y29316D01*
X1156461Y28174D01*
X1156040Y27021D01*
X1155646Y25858D01*
X1155281Y24686D01*
X1154944Y23506D01*
X1154636Y22317D01*
X1154357Y21122D01*
X1154106Y19920D01*
X1153885Y18713D01*
X1153693Y17500D01*
X1153530Y16283D01*
X1153397Y15063D01*
X1153293Y13840D01*
X1153219Y12614D01*
X1153175Y11388D01*
X1153160Y10160D01*
X1153160Y-12700D01*
X828040Y-12700D01*
X828040Y7620D01*
X828025Y8848D01*
X827981Y10074D01*
X827907Y11300D01*
X827803Y12523D01*
X827670Y13743D01*
X827507Y14960D01*
X827315Y16173D01*
X827094Y17380D01*
X826843Y18582D01*
X826564Y19777D01*
X826256Y20966D01*
X825919Y22146D01*
X825554Y23318D01*
X825160Y24481D01*
X824739Y25634D01*
X824290Y26776D01*
X823813Y27908D01*
X823309Y29027D01*
X822778Y30134D01*
X822221Y31228D01*
X821638Y32308D01*
X821028Y33374D01*
X820393Y34424D01*
X819733Y35459D01*
X819048Y36478D01*
X818338Y37479D01*
X817605Y38464D01*
X816847Y39430D01*
X816067Y40378D01*
X815264Y41307D01*
X814439Y42216D01*
X813592Y43104D01*
X812724Y43972D01*
X811836Y44819D01*
X810927Y45644D01*
X809998Y46447D01*
X809050Y47227D01*
X808084Y47985D01*
X807099Y48718D01*
X806098Y49428D01*
X805079Y50113D01*
X804044Y50773D01*
X802994Y51408D01*
X801928Y52018D01*
X800848Y52601D01*
X799754Y53158D01*
X798647Y53689D01*
X797528Y54193D01*
X796396Y54670D01*
X795254Y55119D01*
X794101Y55540D01*
X792938Y55934D01*
X791766Y56299D01*
X790586Y56636D01*
X789397Y56944D01*
X788202Y57223D01*
X787000Y57474D01*
X785793Y57695D01*
X784580Y57887D01*
X783363Y58050D01*
X782143Y58183D01*
X780920Y58287D01*
X779694Y58361D01*
X778468Y58405D01*
X777240Y58420D01*
X505460Y58420D01*
X2529840Y86360D02*
X2529840Y363220D01*
X2529840Y86360D02*
X1625600Y86360D01*
X1625600Y363220D01*
X2529840Y363220D01*
X751840Y1165860D02*
X25400Y1165860D01*
X751840Y1165860D02*
X751840Y505460D01*
X25400Y505460D01*
X25400Y1165860D01*
X2139196Y2384552D02*
X2139205Y2384985D01*
X2139223Y2385417D01*
X2139253Y2385849D01*
X2139292Y2386280D01*
X2139342Y2386709D01*
X2139403Y2387138D01*
X2139473Y2387565D01*
X2139554Y2387990D01*
X2139646Y2388413D01*
X2139747Y2388834D01*
X2139859Y2389252D01*
X2139980Y2389667D01*
X2140112Y2390079D01*
X2140254Y2390488D01*
X2140405Y2390893D01*
X2140566Y2391295D01*
X2140737Y2391693D01*
X2140918Y2392086D01*
X2141107Y2392475D01*
X2141307Y2392859D01*
X2141515Y2393238D01*
X2141732Y2393612D01*
X2141959Y2393981D01*
X2142194Y2394344D01*
X2142438Y2394702D01*
X2142691Y2395053D01*
X2142952Y2395398D01*
X2143221Y2395737D01*
X2143499Y2396069D01*
X2143784Y2396394D01*
X2144077Y2396713D01*
X2144378Y2397024D01*
X2144686Y2397328D01*
X2145001Y2397624D01*
X2145324Y2397912D01*
X2145653Y2398193D01*
X2145989Y2398466D01*
X2146332Y2398730D01*
X2146681Y2398986D01*
X2147035Y2399234D01*
X2147396Y2399473D01*
X2147763Y2399703D01*
X2148135Y2399924D01*
X2148512Y2400136D01*
X2148894Y2400339D01*
X2149281Y2400533D01*
X2149672Y2400718D01*
X2150068Y2400892D01*
X2150468Y2401057D01*
X2150872Y2401213D01*
X2151279Y2401359D01*
X2151690Y2401494D01*
X2152104Y2401620D01*
X2152521Y2401736D01*
X2152941Y2401842D01*
X2153363Y2401937D01*
X2153787Y2402022D01*
X2154213Y2402097D01*
X2154641Y2402162D01*
X2155071Y2402216D01*
X2155501Y2402260D01*
X2155933Y2402294D01*
X2156365Y2402317D01*
X2156797Y2402329D01*
X2157230Y2402332D01*
X2159516Y2402332D01*
X2159949Y2402329D01*
X2160381Y2402317D01*
X2160813Y2402294D01*
X2161245Y2402260D01*
X2161675Y2402216D01*
X2162105Y2402162D01*
X2162533Y2402097D01*
X2162959Y2402022D01*
X2163383Y2401937D01*
X2163805Y2401842D01*
X2164225Y2401736D01*
X2164642Y2401620D01*
X2165056Y2401494D01*
X2165467Y2401359D01*
X2165874Y2401213D01*
X2166278Y2401057D01*
X2166678Y2400892D01*
X2167074Y2400718D01*
X2167465Y2400533D01*
X2167852Y2400339D01*
X2168234Y2400136D01*
X2168611Y2399924D01*
X2168983Y2399703D01*
X2169350Y2399473D01*
X2169711Y2399234D01*
X2170065Y2398986D01*
X2170414Y2398730D01*
X2170757Y2398466D01*
X2171093Y2398193D01*
X2171422Y2397912D01*
X2171745Y2397624D01*
X2172060Y2397328D01*
X2172368Y2397024D01*
X2172669Y2396713D01*
X2172962Y2396394D01*
X2173247Y2396069D01*
X2173525Y2395737D01*
X2173794Y2395398D01*
X2174055Y2395053D01*
X2174308Y2394702D01*
X2174552Y2394344D01*
X2174787Y2393981D01*
X2175014Y2393612D01*
X2175231Y2393238D01*
X2175439Y2392859D01*
X2175639Y2392475D01*
X2175828Y2392086D01*
X2176009Y2391693D01*
X2176180Y2391295D01*
X2176341Y2390893D01*
X2176492Y2390488D01*
X2176634Y2390079D01*
X2176766Y2389667D01*
X2176887Y2389252D01*
X2176999Y2388834D01*
X2177100Y2388413D01*
X2177192Y2387990D01*
X2177273Y2387565D01*
X2177343Y2387138D01*
X2177404Y2386709D01*
X2177454Y2386280D01*
X2177493Y2385849D01*
X2177523Y2385417D01*
X2177541Y2384985D01*
X2177550Y2384552D01*
X2249686Y2384552D01*
X2249898Y2384553D01*
X2250110Y2384548D01*
X2250321Y2384538D01*
X2250532Y2384523D01*
X2250743Y2384503D01*
X2250954Y2384478D01*
X2251163Y2384448D01*
X2251372Y2384413D01*
X2251580Y2384373D01*
X2251787Y2384328D01*
X2251993Y2384278D01*
X2252197Y2384223D01*
X2252400Y2384162D01*
X2252602Y2384097D01*
X2252802Y2384028D01*
X2253000Y2383953D01*
X2253196Y2383874D01*
X2253391Y2383790D01*
X2253583Y2383701D01*
X2253773Y2383607D01*
X2253961Y2383509D01*
X2254146Y2383407D01*
X2254329Y2383300D01*
X2254509Y2383189D01*
X2254686Y2383073D01*
X2254861Y2382953D01*
X2255033Y2382829D01*
X2255201Y2382701D01*
X2255367Y2382569D01*
X2255529Y2382432D01*
X2255688Y2382292D01*
X2255843Y2382149D01*
X2255995Y2382001D01*
X2256143Y2381850D01*
X2256288Y2381695D01*
X2256429Y2381537D01*
X2256566Y2381375D01*
X2256699Y2381211D01*
X2256828Y2381043D01*
X2256953Y2380872D01*
X2257073Y2380698D01*
X2257190Y2380521D01*
X2257302Y2380341D01*
X2257410Y2380159D01*
X2257513Y2379974D01*
X2257612Y2379787D01*
X2257706Y2379597D01*
X2257796Y2379405D01*
X2257881Y2379211D01*
X2257962Y2379015D01*
X2258037Y2378817D01*
X2258108Y2378618D01*
X2258174Y2378416D01*
X2258235Y2378214D01*
X2258291Y2378009D01*
X2258342Y2377804D01*
X2258388Y2377597D01*
X2258430Y2377390D01*
X2258466Y2377181D01*
X2258497Y2376971D01*
X2258523Y2376761D01*
X2258544Y2376550D01*
X2258560Y2376339D01*
X2258570Y2376128D01*
X2258576Y2375916D01*
X2258576Y2309622D01*
X2258574Y2309553D01*
X2258569Y2309485D01*
X2258559Y2309417D01*
X2258546Y2309349D01*
X2258530Y2309282D01*
X2258510Y2309216D01*
X2258486Y2309152D01*
X2258459Y2309089D01*
X2258428Y2309027D01*
X2258394Y2308967D01*
X2258357Y2308909D01*
X2258317Y2308853D01*
X2258274Y2308800D01*
X2258228Y2308749D01*
X2258179Y2308700D01*
X2258128Y2308654D01*
X2258075Y2308611D01*
X2258019Y2308571D01*
X2257961Y2308534D01*
X2257901Y2308500D01*
X2257839Y2308469D01*
X2257776Y2308442D01*
X2257712Y2308418D01*
X2257646Y2308398D01*
X2257579Y2308382D01*
X2257511Y2308369D01*
X2257443Y2308359D01*
X2257375Y2308354D01*
X2257306Y2308352D01*
X2256743Y2308345D01*
X2256181Y2308324D01*
X2255620Y2308290D01*
X2255059Y2308242D01*
X2254500Y2308180D01*
X2253943Y2308104D01*
X2253387Y2308015D01*
X2252834Y2307912D01*
X2252283Y2307796D01*
X2251736Y2307666D01*
X2251192Y2307523D01*
X2250652Y2307367D01*
X2250115Y2307197D01*
X2249583Y2307014D01*
X2249056Y2306819D01*
X2248533Y2306610D01*
X2248016Y2306389D01*
X2247504Y2306155D01*
X2246998Y2305909D01*
X2246499Y2305650D01*
X2246006Y2305379D01*
X2245519Y2305096D01*
X2245040Y2304802D01*
X2244568Y2304495D01*
X2244104Y2304178D01*
X2243648Y2303849D01*
X2243199Y2303508D01*
X2242760Y2303157D01*
X2242329Y2302796D01*
X2241907Y2302424D01*
X2241494Y2302041D01*
X2241091Y2301649D01*
X2240698Y2301247D01*
X2240314Y2300835D01*
X2239941Y2300414D01*
X2239578Y2299984D01*
X2239226Y2299546D01*
X2238884Y2299099D01*
X2238554Y2298643D01*
X2238235Y2298180D01*
X2237927Y2297709D01*
X2237631Y2297230D01*
X2237347Y2296745D01*
X2237075Y2296253D01*
X2236815Y2295754D01*
X2236567Y2295249D01*
X2236331Y2294738D01*
X2236109Y2294221D01*
X2235899Y2293699D01*
X2235702Y2293172D01*
X2235517Y2292641D01*
X2235346Y2292105D01*
X2235188Y2291565D01*
X2235044Y2291021D01*
X2234912Y2290474D01*
X2234794Y2289924D01*
X2234690Y2289371D01*
X2234599Y2288816D01*
X2234522Y2288259D01*
X2234459Y2287700D01*
X2234409Y2287139D01*
X2234373Y2286578D01*
X2234351Y2286016D01*
X2234342Y2285453D01*
X2234347Y2284890D01*
X2234366Y2284328D01*
X2234399Y2283767D01*
X2234446Y2283206D01*
X2234453Y2282647D01*
X2234473Y2282089D01*
X2234507Y2281532D01*
X2234554Y2280975D01*
X2234615Y2280420D01*
X2234689Y2279866D01*
X2234776Y2279315D01*
X2234877Y2278765D01*
X2234991Y2278218D01*
X2235118Y2277674D01*
X2235258Y2277134D01*
X2235411Y2276597D01*
X2235577Y2276063D01*
X2235756Y2275534D01*
X2235948Y2275010D01*
X2236152Y2274490D01*
X2236369Y2273975D01*
X2236599Y2273466D01*
X2236840Y2272962D01*
X2237094Y2272464D01*
X2237359Y2271973D01*
X2237636Y2271488D01*
X2237925Y2271010D01*
X2238226Y2270539D01*
X2238538Y2270076D01*
X2238860Y2269620D01*
X2239194Y2269172D01*
X2239539Y2268732D01*
X2239894Y2268301D01*
X2240259Y2267879D01*
X2240634Y2267465D01*
X2241020Y2267061D01*
X2241415Y2266666D01*
X2241819Y2266280D01*
X2242233Y2265905D01*
X2242655Y2265540D01*
X2243086Y2265185D01*
X2243526Y2264840D01*
X2243974Y2264506D01*
X2244430Y2264184D01*
X2244893Y2263872D01*
X2245364Y2263571D01*
X2245842Y2263282D01*
X2246327Y2263005D01*
X2246818Y2262740D01*
X2247316Y2262486D01*
X2247820Y2262245D01*
X2248329Y2262015D01*
X2248844Y2261798D01*
X2249364Y2261594D01*
X2249888Y2261402D01*
X2250417Y2261223D01*
X2250951Y2261057D01*
X2251488Y2260904D01*
X2252028Y2260764D01*
X2252572Y2260637D01*
X2253119Y2260523D01*
X2253669Y2260422D01*
X2254220Y2260335D01*
X2254774Y2260261D01*
X2255329Y2260200D01*
X2255886Y2260153D01*
X2256443Y2260119D01*
X2257001Y2260099D01*
X2257560Y2260092D01*
X2257621Y2260090D01*
X2257682Y2260085D01*
X2257743Y2260075D01*
X2257803Y2260062D01*
X2257862Y2260046D01*
X2257920Y2260026D01*
X2257977Y2260002D01*
X2258032Y2259976D01*
X2258086Y2259945D01*
X2258137Y2259912D01*
X2258187Y2259876D01*
X2258234Y2259836D01*
X2258278Y2259794D01*
X2258320Y2259750D01*
X2258360Y2259703D01*
X2258396Y2259653D01*
X2258429Y2259602D01*
X2258460Y2259548D01*
X2258486Y2259493D01*
X2258510Y2259436D01*
X2258530Y2259378D01*
X2258546Y2259319D01*
X2258559Y2259259D01*
X2258569Y2259198D01*
X2258574Y2259137D01*
X2258576Y2259076D01*
X2258576Y2191830D01*
X2258577Y2191830D02*
X2258575Y2191638D01*
X2258568Y2191446D01*
X2258556Y2191255D01*
X2258540Y2191064D01*
X2258519Y2190873D01*
X2258494Y2190683D01*
X2258464Y2190494D01*
X2258429Y2190305D01*
X2258390Y2190117D01*
X2258346Y2189930D01*
X2258298Y2189745D01*
X2258246Y2189560D01*
X2258188Y2189377D01*
X2258127Y2189195D01*
X2258061Y2189015D01*
X2257991Y2188837D01*
X2257916Y2188660D01*
X2257838Y2188485D01*
X2257755Y2188312D01*
X2257668Y2188141D01*
X2257577Y2187972D01*
X2257481Y2187806D01*
X2257382Y2187642D01*
X2257279Y2187480D01*
X2257172Y2187321D01*
X2257061Y2187164D01*
X2256946Y2187010D01*
X2256828Y2186859D01*
X2256706Y2186711D01*
X2256581Y2186566D01*
X2256452Y2186424D01*
X2256319Y2186285D01*
X2256184Y2186150D01*
X2256045Y2186017D01*
X2255903Y2185888D01*
X2255758Y2185763D01*
X2255610Y2185641D01*
X2255459Y2185523D01*
X2255305Y2185408D01*
X2255148Y2185297D01*
X2254989Y2185190D01*
X2254827Y2185087D01*
X2254663Y2184988D01*
X2254497Y2184892D01*
X2254328Y2184801D01*
X2254157Y2184714D01*
X2253984Y2184631D01*
X2253809Y2184553D01*
X2253632Y2184478D01*
X2253454Y2184408D01*
X2253274Y2184342D01*
X2253092Y2184281D01*
X2252909Y2184223D01*
X2252724Y2184171D01*
X2252539Y2184123D01*
X2252352Y2184079D01*
X2252164Y2184040D01*
X2251975Y2184005D01*
X2251786Y2183975D01*
X2251596Y2183950D01*
X2251405Y2183929D01*
X2251214Y2183913D01*
X2251023Y2183901D01*
X2250831Y2183894D01*
X2250639Y2183892D01*
X2112780Y2183892D01*
X2113034Y2384298D01*
X2139196Y2384552D01*
X431800Y469900D02*
X20320Y469900D01*
X431800Y469900D02*
X431800Y93980D01*
X20320Y93980D01*
X20320Y469900D01*
X2024380Y2085340D02*
X2024380Y2364740D01*
X1991360Y2397760D01*
X1196340Y2397760D01*
X1183640Y2410460D01*
X1041400Y2410460D01*
X1031240Y2400300D01*
X632460Y2400300D01*
X513080Y2379980D01*
X370840Y2286000D01*
X320040Y2199640D01*
X320040Y1998980D01*
X368300Y1930400D01*
X1645920Y1930400D01*
X1828800Y1998980D01*
X2009140Y2067560D01*
X2024380Y2085340D01*
X2324616Y2387092D02*
X2324625Y2387525D01*
X2324643Y2387957D01*
X2324673Y2388389D01*
X2324712Y2388820D01*
X2324762Y2389249D01*
X2324823Y2389678D01*
X2324893Y2390105D01*
X2324974Y2390530D01*
X2325066Y2390953D01*
X2325167Y2391374D01*
X2325279Y2391792D01*
X2325400Y2392207D01*
X2325532Y2392619D01*
X2325674Y2393028D01*
X2325825Y2393433D01*
X2325986Y2393835D01*
X2326157Y2394233D01*
X2326338Y2394626D01*
X2326527Y2395015D01*
X2326727Y2395399D01*
X2326935Y2395778D01*
X2327152Y2396152D01*
X2327379Y2396521D01*
X2327614Y2396884D01*
X2327858Y2397242D01*
X2328111Y2397593D01*
X2328372Y2397938D01*
X2328641Y2398277D01*
X2328919Y2398609D01*
X2329204Y2398934D01*
X2329497Y2399253D01*
X2329798Y2399564D01*
X2330106Y2399868D01*
X2330421Y2400164D01*
X2330744Y2400452D01*
X2331073Y2400733D01*
X2331409Y2401006D01*
X2331752Y2401270D01*
X2332101Y2401526D01*
X2332455Y2401774D01*
X2332816Y2402013D01*
X2333183Y2402243D01*
X2333555Y2402464D01*
X2333932Y2402676D01*
X2334314Y2402879D01*
X2334701Y2403073D01*
X2335092Y2403258D01*
X2335488Y2403432D01*
X2335888Y2403597D01*
X2336292Y2403753D01*
X2336699Y2403899D01*
X2337110Y2404034D01*
X2337524Y2404160D01*
X2337941Y2404276D01*
X2338361Y2404382D01*
X2338783Y2404477D01*
X2339207Y2404562D01*
X2339633Y2404637D01*
X2340061Y2404702D01*
X2340491Y2404756D01*
X2340921Y2404800D01*
X2341353Y2404834D01*
X2341785Y2404857D01*
X2342217Y2404869D01*
X2342650Y2404872D01*
X2344936Y2404872D01*
X2345369Y2404869D01*
X2345801Y2404857D01*
X2346233Y2404834D01*
X2346665Y2404800D01*
X2347095Y2404756D01*
X2347525Y2404702D01*
X2347953Y2404637D01*
X2348379Y2404562D01*
X2348803Y2404477D01*
X2349225Y2404382D01*
X2349645Y2404276D01*
X2350062Y2404160D01*
X2350476Y2404034D01*
X2350887Y2403899D01*
X2351294Y2403753D01*
X2351698Y2403597D01*
X2352098Y2403432D01*
X2352494Y2403258D01*
X2352885Y2403073D01*
X2353272Y2402879D01*
X2353654Y2402676D01*
X2354031Y2402464D01*
X2354403Y2402243D01*
X2354770Y2402013D01*
X2355131Y2401774D01*
X2355485Y2401526D01*
X2355834Y2401270D01*
X2356177Y2401006D01*
X2356513Y2400733D01*
X2356842Y2400452D01*
X2357165Y2400164D01*
X2357480Y2399868D01*
X2357788Y2399564D01*
X2358089Y2399253D01*
X2358382Y2398934D01*
X2358667Y2398609D01*
X2358945Y2398277D01*
X2359214Y2397938D01*
X2359475Y2397593D01*
X2359728Y2397242D01*
X2359972Y2396884D01*
X2360207Y2396521D01*
X2360434Y2396152D01*
X2360651Y2395778D01*
X2360859Y2395399D01*
X2361059Y2395015D01*
X2361248Y2394626D01*
X2361429Y2394233D01*
X2361600Y2393835D01*
X2361761Y2393433D01*
X2361912Y2393028D01*
X2362054Y2392619D01*
X2362186Y2392207D01*
X2362307Y2391792D01*
X2362419Y2391374D01*
X2362520Y2390953D01*
X2362612Y2390530D01*
X2362693Y2390105D01*
X2362763Y2389678D01*
X2362824Y2389249D01*
X2362874Y2388820D01*
X2362913Y2388389D01*
X2362943Y2387957D01*
X2362961Y2387525D01*
X2362970Y2387092D01*
X2435106Y2387092D01*
X2435318Y2387093D01*
X2435530Y2387088D01*
X2435741Y2387078D01*
X2435952Y2387063D01*
X2436163Y2387043D01*
X2436374Y2387018D01*
X2436583Y2386988D01*
X2436792Y2386953D01*
X2437000Y2386913D01*
X2437207Y2386868D01*
X2437413Y2386818D01*
X2437617Y2386763D01*
X2437820Y2386702D01*
X2438022Y2386637D01*
X2438222Y2386568D01*
X2438420Y2386493D01*
X2438616Y2386414D01*
X2438811Y2386330D01*
X2439003Y2386241D01*
X2439193Y2386147D01*
X2439381Y2386049D01*
X2439566Y2385947D01*
X2439749Y2385840D01*
X2439929Y2385729D01*
X2440106Y2385613D01*
X2440281Y2385493D01*
X2440453Y2385369D01*
X2440621Y2385241D01*
X2440787Y2385109D01*
X2440949Y2384972D01*
X2441108Y2384832D01*
X2441263Y2384689D01*
X2441415Y2384541D01*
X2441563Y2384390D01*
X2441708Y2384235D01*
X2441849Y2384077D01*
X2441986Y2383915D01*
X2442119Y2383751D01*
X2442248Y2383583D01*
X2442373Y2383412D01*
X2442493Y2383238D01*
X2442610Y2383061D01*
X2442722Y2382881D01*
X2442830Y2382699D01*
X2442933Y2382514D01*
X2443032Y2382327D01*
X2443126Y2382137D01*
X2443216Y2381945D01*
X2443301Y2381751D01*
X2443382Y2381555D01*
X2443457Y2381357D01*
X2443528Y2381158D01*
X2443594Y2380956D01*
X2443655Y2380754D01*
X2443711Y2380549D01*
X2443762Y2380344D01*
X2443808Y2380137D01*
X2443850Y2379930D01*
X2443886Y2379721D01*
X2443917Y2379511D01*
X2443943Y2379301D01*
X2443964Y2379090D01*
X2443980Y2378879D01*
X2443990Y2378668D01*
X2443996Y2378456D01*
X2443996Y2312162D01*
X2443994Y2312093D01*
X2443989Y2312025D01*
X2443979Y2311957D01*
X2443966Y2311889D01*
X2443950Y2311822D01*
X2443930Y2311756D01*
X2443906Y2311692D01*
X2443879Y2311629D01*
X2443848Y2311567D01*
X2443814Y2311507D01*
X2443777Y2311449D01*
X2443737Y2311393D01*
X2443694Y2311340D01*
X2443648Y2311289D01*
X2443599Y2311240D01*
X2443548Y2311194D01*
X2443495Y2311151D01*
X2443439Y2311111D01*
X2443381Y2311074D01*
X2443321Y2311040D01*
X2443259Y2311009D01*
X2443196Y2310982D01*
X2443132Y2310958D01*
X2443066Y2310938D01*
X2442999Y2310922D01*
X2442931Y2310909D01*
X2442863Y2310899D01*
X2442795Y2310894D01*
X2442726Y2310892D01*
X2442163Y2310885D01*
X2441601Y2310864D01*
X2441040Y2310830D01*
X2440479Y2310782D01*
X2439920Y2310720D01*
X2439363Y2310644D01*
X2438807Y2310555D01*
X2438254Y2310452D01*
X2437703Y2310336D01*
X2437156Y2310206D01*
X2436612Y2310063D01*
X2436072Y2309907D01*
X2435535Y2309737D01*
X2435003Y2309554D01*
X2434476Y2309359D01*
X2433953Y2309150D01*
X2433436Y2308929D01*
X2432924Y2308695D01*
X2432418Y2308449D01*
X2431919Y2308190D01*
X2431426Y2307919D01*
X2430939Y2307636D01*
X2430460Y2307342D01*
X2429988Y2307035D01*
X2429524Y2306718D01*
X2429068Y2306389D01*
X2428619Y2306048D01*
X2428180Y2305697D01*
X2427749Y2305336D01*
X2427327Y2304964D01*
X2426914Y2304581D01*
X2426511Y2304189D01*
X2426118Y2303787D01*
X2425734Y2303375D01*
X2425361Y2302954D01*
X2424998Y2302524D01*
X2424646Y2302086D01*
X2424304Y2301639D01*
X2423974Y2301183D01*
X2423655Y2300720D01*
X2423347Y2300249D01*
X2423051Y2299770D01*
X2422767Y2299285D01*
X2422495Y2298793D01*
X2422235Y2298294D01*
X2421987Y2297789D01*
X2421751Y2297278D01*
X2421529Y2296761D01*
X2421319Y2296239D01*
X2421122Y2295712D01*
X2420937Y2295181D01*
X2420766Y2294645D01*
X2420608Y2294105D01*
X2420464Y2293561D01*
X2420332Y2293014D01*
X2420214Y2292464D01*
X2420110Y2291911D01*
X2420019Y2291356D01*
X2419942Y2290799D01*
X2419879Y2290240D01*
X2419829Y2289679D01*
X2419793Y2289118D01*
X2419771Y2288556D01*
X2419762Y2287993D01*
X2419767Y2287430D01*
X2419786Y2286868D01*
X2419819Y2286307D01*
X2419866Y2285746D01*
X2419873Y2285187D01*
X2419893Y2284629D01*
X2419927Y2284072D01*
X2419974Y2283515D01*
X2420035Y2282960D01*
X2420109Y2282406D01*
X2420196Y2281855D01*
X2420297Y2281305D01*
X2420411Y2280758D01*
X2420538Y2280214D01*
X2420678Y2279674D01*
X2420831Y2279137D01*
X2420997Y2278603D01*
X2421176Y2278074D01*
X2421368Y2277550D01*
X2421572Y2277030D01*
X2421789Y2276515D01*
X2422019Y2276006D01*
X2422260Y2275502D01*
X2422514Y2275004D01*
X2422779Y2274513D01*
X2423056Y2274028D01*
X2423345Y2273550D01*
X2423646Y2273079D01*
X2423958Y2272616D01*
X2424280Y2272160D01*
X2424614Y2271712D01*
X2424959Y2271272D01*
X2425314Y2270841D01*
X2425679Y2270419D01*
X2426054Y2270005D01*
X2426440Y2269601D01*
X2426835Y2269206D01*
X2427239Y2268820D01*
X2427653Y2268445D01*
X2428075Y2268080D01*
X2428506Y2267725D01*
X2428946Y2267380D01*
X2429394Y2267046D01*
X2429850Y2266724D01*
X2430313Y2266412D01*
X2430784Y2266111D01*
X2431262Y2265822D01*
X2431747Y2265545D01*
X2432238Y2265280D01*
X2432736Y2265026D01*
X2433240Y2264785D01*
X2433749Y2264555D01*
X2434264Y2264338D01*
X2434784Y2264134D01*
X2435308Y2263942D01*
X2435837Y2263763D01*
X2436371Y2263597D01*
X2436908Y2263444D01*
X2437448Y2263304D01*
X2437992Y2263177D01*
X2438539Y2263063D01*
X2439089Y2262962D01*
X2439640Y2262875D01*
X2440194Y2262801D01*
X2440749Y2262740D01*
X2441306Y2262693D01*
X2441863Y2262659D01*
X2442421Y2262639D01*
X2442980Y2262632D01*
X2443041Y2262630D01*
X2443102Y2262625D01*
X2443163Y2262615D01*
X2443223Y2262602D01*
X2443282Y2262586D01*
X2443340Y2262566D01*
X2443397Y2262542D01*
X2443452Y2262516D01*
X2443506Y2262485D01*
X2443557Y2262452D01*
X2443607Y2262416D01*
X2443654Y2262376D01*
X2443698Y2262334D01*
X2443740Y2262290D01*
X2443780Y2262243D01*
X2443816Y2262193D01*
X2443849Y2262142D01*
X2443880Y2262088D01*
X2443906Y2262033D01*
X2443930Y2261976D01*
X2443950Y2261918D01*
X2443966Y2261859D01*
X2443979Y2261799D01*
X2443989Y2261738D01*
X2443994Y2261677D01*
X2443996Y2261616D01*
X2443996Y2194370D01*
X2443997Y2194370D02*
X2443995Y2194178D01*
X2443988Y2193986D01*
X2443976Y2193795D01*
X2443960Y2193604D01*
X2443939Y2193413D01*
X2443914Y2193223D01*
X2443884Y2193034D01*
X2443849Y2192845D01*
X2443810Y2192657D01*
X2443766Y2192470D01*
X2443718Y2192285D01*
X2443666Y2192100D01*
X2443608Y2191917D01*
X2443547Y2191735D01*
X2443481Y2191555D01*
X2443411Y2191377D01*
X2443336Y2191200D01*
X2443258Y2191025D01*
X2443175Y2190852D01*
X2443088Y2190681D01*
X2442997Y2190512D01*
X2442901Y2190346D01*
X2442802Y2190182D01*
X2442699Y2190020D01*
X2442592Y2189861D01*
X2442481Y2189704D01*
X2442366Y2189550D01*
X2442248Y2189399D01*
X2442126Y2189251D01*
X2442001Y2189106D01*
X2441872Y2188964D01*
X2441739Y2188825D01*
X2441604Y2188690D01*
X2441465Y2188557D01*
X2441323Y2188428D01*
X2441178Y2188303D01*
X2441030Y2188181D01*
X2440879Y2188063D01*
X2440725Y2187948D01*
X2440568Y2187837D01*
X2440409Y2187730D01*
X2440247Y2187627D01*
X2440083Y2187528D01*
X2439917Y2187432D01*
X2439748Y2187341D01*
X2439577Y2187254D01*
X2439404Y2187171D01*
X2439229Y2187093D01*
X2439052Y2187018D01*
X2438874Y2186948D01*
X2438694Y2186882D01*
X2438512Y2186821D01*
X2438329Y2186763D01*
X2438144Y2186711D01*
X2437959Y2186663D01*
X2437772Y2186619D01*
X2437584Y2186580D01*
X2437395Y2186545D01*
X2437206Y2186515D01*
X2437016Y2186490D01*
X2436825Y2186469D01*
X2436634Y2186453D01*
X2436443Y2186441D01*
X2436251Y2186434D01*
X2436059Y2186432D01*
X2298200Y2186432D01*
X2298454Y2386838D01*
X2324616Y2387092D01*
X2154690Y2158492D02*
X2154257Y2158489D01*
X2153825Y2158477D01*
X2153393Y2158454D01*
X2152961Y2158420D01*
X2152531Y2158376D01*
X2152101Y2158322D01*
X2151673Y2158257D01*
X2151247Y2158182D01*
X2150823Y2158097D01*
X2150401Y2158002D01*
X2149981Y2157896D01*
X2149564Y2157780D01*
X2149150Y2157654D01*
X2148739Y2157519D01*
X2148332Y2157373D01*
X2147928Y2157217D01*
X2147528Y2157052D01*
X2147132Y2156878D01*
X2146741Y2156693D01*
X2146354Y2156499D01*
X2145972Y2156296D01*
X2145595Y2156084D01*
X2145223Y2155863D01*
X2144856Y2155633D01*
X2144495Y2155394D01*
X2144141Y2155146D01*
X2143792Y2154890D01*
X2143449Y2154626D01*
X2143113Y2154353D01*
X2142784Y2154072D01*
X2142461Y2153784D01*
X2142146Y2153488D01*
X2141838Y2153184D01*
X2141537Y2152873D01*
X2141244Y2152554D01*
X2140959Y2152229D01*
X2140681Y2151897D01*
X2140412Y2151558D01*
X2140151Y2151213D01*
X2139898Y2150862D01*
X2139654Y2150504D01*
X2139419Y2150141D01*
X2139192Y2149772D01*
X2138975Y2149398D01*
X2138767Y2149019D01*
X2138567Y2148635D01*
X2138378Y2148246D01*
X2138197Y2147853D01*
X2138026Y2147455D01*
X2137865Y2147053D01*
X2137714Y2146648D01*
X2137572Y2146239D01*
X2137440Y2145827D01*
X2137319Y2145412D01*
X2137207Y2144994D01*
X2137106Y2144573D01*
X2137014Y2144150D01*
X2136933Y2143725D01*
X2136863Y2143298D01*
X2136802Y2142869D01*
X2136752Y2142440D01*
X2136713Y2142009D01*
X2136683Y2141577D01*
X2136665Y2141145D01*
X2136656Y2140712D01*
X2154690Y2158492D02*
X2156976Y2158492D01*
X2157409Y2158489D01*
X2157841Y2158477D01*
X2158273Y2158454D01*
X2158705Y2158420D01*
X2159135Y2158376D01*
X2159565Y2158322D01*
X2159993Y2158257D01*
X2160419Y2158182D01*
X2160843Y2158097D01*
X2161265Y2158002D01*
X2161685Y2157896D01*
X2162102Y2157780D01*
X2162516Y2157654D01*
X2162927Y2157519D01*
X2163334Y2157373D01*
X2163738Y2157217D01*
X2164138Y2157052D01*
X2164534Y2156878D01*
X2164925Y2156693D01*
X2165312Y2156499D01*
X2165694Y2156296D01*
X2166071Y2156084D01*
X2166443Y2155863D01*
X2166810Y2155633D01*
X2167171Y2155394D01*
X2167525Y2155146D01*
X2167874Y2154890D01*
X2168217Y2154626D01*
X2168553Y2154353D01*
X2168882Y2154072D01*
X2169205Y2153784D01*
X2169520Y2153488D01*
X2169828Y2153184D01*
X2170129Y2152873D01*
X2170422Y2152554D01*
X2170707Y2152229D01*
X2170985Y2151897D01*
X2171254Y2151558D01*
X2171515Y2151213D01*
X2171768Y2150862D01*
X2172012Y2150504D01*
X2172247Y2150141D01*
X2172474Y2149772D01*
X2172691Y2149398D01*
X2172899Y2149019D01*
X2173099Y2148635D01*
X2173288Y2148246D01*
X2173469Y2147853D01*
X2173640Y2147455D01*
X2173801Y2147053D01*
X2173952Y2146648D01*
X2174094Y2146239D01*
X2174226Y2145827D01*
X2174347Y2145412D01*
X2174459Y2144994D01*
X2174560Y2144573D01*
X2174652Y2144150D01*
X2174733Y2143725D01*
X2174803Y2143298D01*
X2174864Y2142869D01*
X2174914Y2142440D01*
X2174953Y2142009D01*
X2174983Y2141577D01*
X2175001Y2141145D01*
X2175010Y2140712D01*
X2247146Y2140712D01*
X2247358Y2140713D01*
X2247570Y2140708D01*
X2247781Y2140698D01*
X2247992Y2140683D01*
X2248203Y2140663D01*
X2248414Y2140638D01*
X2248623Y2140608D01*
X2248832Y2140573D01*
X2249040Y2140533D01*
X2249247Y2140488D01*
X2249453Y2140438D01*
X2249657Y2140383D01*
X2249860Y2140322D01*
X2250062Y2140257D01*
X2250262Y2140188D01*
X2250460Y2140113D01*
X2250656Y2140034D01*
X2250851Y2139950D01*
X2251043Y2139861D01*
X2251233Y2139767D01*
X2251421Y2139669D01*
X2251606Y2139567D01*
X2251789Y2139460D01*
X2251969Y2139349D01*
X2252146Y2139233D01*
X2252321Y2139113D01*
X2252493Y2138989D01*
X2252661Y2138861D01*
X2252827Y2138729D01*
X2252989Y2138592D01*
X2253148Y2138452D01*
X2253303Y2138309D01*
X2253455Y2138161D01*
X2253603Y2138010D01*
X2253748Y2137855D01*
X2253889Y2137697D01*
X2254026Y2137535D01*
X2254159Y2137371D01*
X2254288Y2137203D01*
X2254413Y2137032D01*
X2254533Y2136858D01*
X2254650Y2136681D01*
X2254762Y2136501D01*
X2254870Y2136319D01*
X2254973Y2136134D01*
X2255072Y2135947D01*
X2255166Y2135757D01*
X2255256Y2135565D01*
X2255341Y2135371D01*
X2255422Y2135175D01*
X2255497Y2134977D01*
X2255568Y2134778D01*
X2255634Y2134576D01*
X2255695Y2134374D01*
X2255751Y2134169D01*
X2255802Y2133964D01*
X2255848Y2133757D01*
X2255890Y2133550D01*
X2255926Y2133341D01*
X2255957Y2133131D01*
X2255983Y2132921D01*
X2256004Y2132710D01*
X2256020Y2132499D01*
X2256030Y2132288D01*
X2256036Y2132076D01*
X2256036Y2065782D01*
X2256034Y2065713D01*
X2256029Y2065645D01*
X2256019Y2065577D01*
X2256006Y2065509D01*
X2255990Y2065442D01*
X2255970Y2065376D01*
X2255946Y2065312D01*
X2255919Y2065249D01*
X2255888Y2065187D01*
X2255854Y2065127D01*
X2255817Y2065069D01*
X2255777Y2065013D01*
X2255734Y2064960D01*
X2255688Y2064909D01*
X2255639Y2064860D01*
X2255588Y2064814D01*
X2255535Y2064771D01*
X2255479Y2064731D01*
X2255421Y2064694D01*
X2255361Y2064660D01*
X2255299Y2064629D01*
X2255236Y2064602D01*
X2255172Y2064578D01*
X2255106Y2064558D01*
X2255039Y2064542D01*
X2254971Y2064529D01*
X2254903Y2064519D01*
X2254835Y2064514D01*
X2254766Y2064512D01*
X2254203Y2064505D01*
X2253641Y2064484D01*
X2253080Y2064450D01*
X2252519Y2064402D01*
X2251960Y2064340D01*
X2251403Y2064264D01*
X2250847Y2064175D01*
X2250294Y2064072D01*
X2249743Y2063956D01*
X2249196Y2063826D01*
X2248652Y2063683D01*
X2248112Y2063527D01*
X2247575Y2063357D01*
X2247043Y2063174D01*
X2246516Y2062979D01*
X2245993Y2062770D01*
X2245476Y2062549D01*
X2244964Y2062315D01*
X2244458Y2062069D01*
X2243959Y2061810D01*
X2243466Y2061539D01*
X2242979Y2061256D01*
X2242500Y2060962D01*
X2242028Y2060655D01*
X2241564Y2060338D01*
X2241108Y2060009D01*
X2240659Y2059668D01*
X2240220Y2059317D01*
X2239789Y2058956D01*
X2239367Y2058584D01*
X2238954Y2058201D01*
X2238551Y2057809D01*
X2238158Y2057407D01*
X2237774Y2056995D01*
X2237401Y2056574D01*
X2237038Y2056144D01*
X2236686Y2055706D01*
X2236344Y2055259D01*
X2236014Y2054803D01*
X2235695Y2054340D01*
X2235387Y2053869D01*
X2235091Y2053390D01*
X2234807Y2052905D01*
X2234535Y2052413D01*
X2234275Y2051914D01*
X2234027Y2051409D01*
X2233791Y2050898D01*
X2233569Y2050381D01*
X2233359Y2049859D01*
X2233162Y2049332D01*
X2232977Y2048801D01*
X2232806Y2048265D01*
X2232648Y2047725D01*
X2232504Y2047181D01*
X2232372Y2046634D01*
X2232254Y2046084D01*
X2232150Y2045531D01*
X2232059Y2044976D01*
X2231982Y2044419D01*
X2231919Y2043860D01*
X2231869Y2043299D01*
X2231833Y2042738D01*
X2231811Y2042176D01*
X2231802Y2041613D01*
X2231807Y2041050D01*
X2231826Y2040488D01*
X2231859Y2039927D01*
X2231906Y2039366D01*
X2231913Y2038807D01*
X2231933Y2038249D01*
X2231967Y2037692D01*
X2232014Y2037135D01*
X2232075Y2036580D01*
X2232149Y2036026D01*
X2232236Y2035475D01*
X2232337Y2034925D01*
X2232451Y2034378D01*
X2232578Y2033834D01*
X2232718Y2033294D01*
X2232871Y2032757D01*
X2233037Y2032223D01*
X2233216Y2031694D01*
X2233408Y2031170D01*
X2233612Y2030650D01*
X2233829Y2030135D01*
X2234059Y2029626D01*
X2234300Y2029122D01*
X2234554Y2028624D01*
X2234819Y2028133D01*
X2235096Y2027648D01*
X2235385Y2027170D01*
X2235686Y2026699D01*
X2235998Y2026236D01*
X2236320Y2025780D01*
X2236654Y2025332D01*
X2236999Y2024892D01*
X2237354Y2024461D01*
X2237719Y2024039D01*
X2238094Y2023625D01*
X2238480Y2023221D01*
X2238875Y2022826D01*
X2239279Y2022440D01*
X2239693Y2022065D01*
X2240115Y2021700D01*
X2240546Y2021345D01*
X2240986Y2021000D01*
X2241434Y2020666D01*
X2241890Y2020344D01*
X2242353Y2020032D01*
X2242824Y2019731D01*
X2243302Y2019442D01*
X2243787Y2019165D01*
X2244278Y2018900D01*
X2244776Y2018646D01*
X2245280Y2018405D01*
X2245789Y2018175D01*
X2246304Y2017958D01*
X2246824Y2017754D01*
X2247348Y2017562D01*
X2247877Y2017383D01*
X2248411Y2017217D01*
X2248948Y2017064D01*
X2249488Y2016924D01*
X2250032Y2016797D01*
X2250579Y2016683D01*
X2251129Y2016582D01*
X2251680Y2016495D01*
X2252234Y2016421D01*
X2252789Y2016360D01*
X2253346Y2016313D01*
X2253903Y2016279D01*
X2254461Y2016259D01*
X2255020Y2016252D01*
X2255081Y2016250D01*
X2255142Y2016245D01*
X2255203Y2016235D01*
X2255263Y2016222D01*
X2255322Y2016206D01*
X2255380Y2016186D01*
X2255437Y2016162D01*
X2255492Y2016136D01*
X2255546Y2016105D01*
X2255597Y2016072D01*
X2255647Y2016036D01*
X2255694Y2015996D01*
X2255738Y2015954D01*
X2255780Y2015910D01*
X2255820Y2015863D01*
X2255856Y2015813D01*
X2255889Y2015762D01*
X2255920Y2015708D01*
X2255946Y2015653D01*
X2255970Y2015596D01*
X2255990Y2015538D01*
X2256006Y2015479D01*
X2256019Y2015419D01*
X2256029Y2015358D01*
X2256034Y2015297D01*
X2256036Y2015236D01*
X2256036Y1947990D01*
X2256037Y1947990D02*
X2256035Y1947798D01*
X2256028Y1947606D01*
X2256016Y1947415D01*
X2256000Y1947224D01*
X2255979Y1947033D01*
X2255954Y1946843D01*
X2255924Y1946654D01*
X2255889Y1946465D01*
X2255850Y1946277D01*
X2255806Y1946090D01*
X2255758Y1945905D01*
X2255706Y1945720D01*
X2255648Y1945537D01*
X2255587Y1945355D01*
X2255521Y1945175D01*
X2255451Y1944997D01*
X2255376Y1944820D01*
X2255298Y1944645D01*
X2255215Y1944472D01*
X2255128Y1944301D01*
X2255037Y1944132D01*
X2254941Y1943966D01*
X2254842Y1943802D01*
X2254739Y1943640D01*
X2254632Y1943481D01*
X2254521Y1943324D01*
X2254406Y1943170D01*
X2254288Y1943019D01*
X2254166Y1942871D01*
X2254041Y1942726D01*
X2253912Y1942584D01*
X2253779Y1942445D01*
X2253644Y1942310D01*
X2253505Y1942177D01*
X2253363Y1942048D01*
X2253218Y1941923D01*
X2253070Y1941801D01*
X2252919Y1941683D01*
X2252765Y1941568D01*
X2252608Y1941457D01*
X2252449Y1941350D01*
X2252287Y1941247D01*
X2252123Y1941148D01*
X2251957Y1941052D01*
X2251788Y1940961D01*
X2251617Y1940874D01*
X2251444Y1940791D01*
X2251269Y1940713D01*
X2251092Y1940638D01*
X2250914Y1940568D01*
X2250734Y1940502D01*
X2250552Y1940441D01*
X2250369Y1940383D01*
X2250184Y1940331D01*
X2249999Y1940283D01*
X2249812Y1940239D01*
X2249624Y1940200D01*
X2249435Y1940165D01*
X2249246Y1940135D01*
X2249056Y1940110D01*
X2248865Y1940089D01*
X2248674Y1940073D01*
X2248483Y1940061D01*
X2248291Y1940054D01*
X2248099Y1940052D01*
X2110240Y1940052D01*
X2110494Y2140458D01*
X2136656Y2140712D01*
X2329696Y2140712D02*
X2329705Y2141145D01*
X2329723Y2141577D01*
X2329753Y2142009D01*
X2329792Y2142440D01*
X2329842Y2142869D01*
X2329903Y2143298D01*
X2329973Y2143725D01*
X2330054Y2144150D01*
X2330146Y2144573D01*
X2330247Y2144994D01*
X2330359Y2145412D01*
X2330480Y2145827D01*
X2330612Y2146239D01*
X2330754Y2146648D01*
X2330905Y2147053D01*
X2331066Y2147455D01*
X2331237Y2147853D01*
X2331418Y2148246D01*
X2331607Y2148635D01*
X2331807Y2149019D01*
X2332015Y2149398D01*
X2332232Y2149772D01*
X2332459Y2150141D01*
X2332694Y2150504D01*
X2332938Y2150862D01*
X2333191Y2151213D01*
X2333452Y2151558D01*
X2333721Y2151897D01*
X2333999Y2152229D01*
X2334284Y2152554D01*
X2334577Y2152873D01*
X2334878Y2153184D01*
X2335186Y2153488D01*
X2335501Y2153784D01*
X2335824Y2154072D01*
X2336153Y2154353D01*
X2336489Y2154626D01*
X2336832Y2154890D01*
X2337181Y2155146D01*
X2337535Y2155394D01*
X2337896Y2155633D01*
X2338263Y2155863D01*
X2338635Y2156084D01*
X2339012Y2156296D01*
X2339394Y2156499D01*
X2339781Y2156693D01*
X2340172Y2156878D01*
X2340568Y2157052D01*
X2340968Y2157217D01*
X2341372Y2157373D01*
X2341779Y2157519D01*
X2342190Y2157654D01*
X2342604Y2157780D01*
X2343021Y2157896D01*
X2343441Y2158002D01*
X2343863Y2158097D01*
X2344287Y2158182D01*
X2344713Y2158257D01*
X2345141Y2158322D01*
X2345571Y2158376D01*
X2346001Y2158420D01*
X2346433Y2158454D01*
X2346865Y2158477D01*
X2347297Y2158489D01*
X2347730Y2158492D01*
X2350016Y2158492D01*
X2350449Y2158489D01*
X2350881Y2158477D01*
X2351313Y2158454D01*
X2351745Y2158420D01*
X2352175Y2158376D01*
X2352605Y2158322D01*
X2353033Y2158257D01*
X2353459Y2158182D01*
X2353883Y2158097D01*
X2354305Y2158002D01*
X2354725Y2157896D01*
X2355142Y2157780D01*
X2355556Y2157654D01*
X2355967Y2157519D01*
X2356374Y2157373D01*
X2356778Y2157217D01*
X2357178Y2157052D01*
X2357574Y2156878D01*
X2357965Y2156693D01*
X2358352Y2156499D01*
X2358734Y2156296D01*
X2359111Y2156084D01*
X2359483Y2155863D01*
X2359850Y2155633D01*
X2360211Y2155394D01*
X2360565Y2155146D01*
X2360914Y2154890D01*
X2361257Y2154626D01*
X2361593Y2154353D01*
X2361922Y2154072D01*
X2362245Y2153784D01*
X2362560Y2153488D01*
X2362868Y2153184D01*
X2363169Y2152873D01*
X2363462Y2152554D01*
X2363747Y2152229D01*
X2364025Y2151897D01*
X2364294Y2151558D01*
X2364555Y2151213D01*
X2364808Y2150862D01*
X2365052Y2150504D01*
X2365287Y2150141D01*
X2365514Y2149772D01*
X2365731Y2149398D01*
X2365939Y2149019D01*
X2366139Y2148635D01*
X2366328Y2148246D01*
X2366509Y2147853D01*
X2366680Y2147455D01*
X2366841Y2147053D01*
X2366992Y2146648D01*
X2367134Y2146239D01*
X2367266Y2145827D01*
X2367387Y2145412D01*
X2367499Y2144994D01*
X2367600Y2144573D01*
X2367692Y2144150D01*
X2367773Y2143725D01*
X2367843Y2143298D01*
X2367904Y2142869D01*
X2367954Y2142440D01*
X2367993Y2142009D01*
X2368023Y2141577D01*
X2368041Y2141145D01*
X2368050Y2140712D01*
X2440186Y2140712D01*
X2440398Y2140713D01*
X2440610Y2140708D01*
X2440821Y2140698D01*
X2441032Y2140683D01*
X2441243Y2140663D01*
X2441454Y2140638D01*
X2441663Y2140608D01*
X2441872Y2140573D01*
X2442080Y2140533D01*
X2442287Y2140488D01*
X2442493Y2140438D01*
X2442697Y2140383D01*
X2442900Y2140322D01*
X2443102Y2140257D01*
X2443302Y2140188D01*
X2443500Y2140113D01*
X2443696Y2140034D01*
X2443891Y2139950D01*
X2444083Y2139861D01*
X2444273Y2139767D01*
X2444461Y2139669D01*
X2444646Y2139567D01*
X2444829Y2139460D01*
X2445009Y2139349D01*
X2445186Y2139233D01*
X2445361Y2139113D01*
X2445533Y2138989D01*
X2445701Y2138861D01*
X2445867Y2138729D01*
X2446029Y2138592D01*
X2446188Y2138452D01*
X2446343Y2138309D01*
X2446495Y2138161D01*
X2446643Y2138010D01*
X2446788Y2137855D01*
X2446929Y2137697D01*
X2447066Y2137535D01*
X2447199Y2137371D01*
X2447328Y2137203D01*
X2447453Y2137032D01*
X2447573Y2136858D01*
X2447690Y2136681D01*
X2447802Y2136501D01*
X2447910Y2136319D01*
X2448013Y2136134D01*
X2448112Y2135947D01*
X2448206Y2135757D01*
X2448296Y2135565D01*
X2448381Y2135371D01*
X2448462Y2135175D01*
X2448537Y2134977D01*
X2448608Y2134778D01*
X2448674Y2134576D01*
X2448735Y2134374D01*
X2448791Y2134169D01*
X2448842Y2133964D01*
X2448888Y2133757D01*
X2448930Y2133550D01*
X2448966Y2133341D01*
X2448997Y2133131D01*
X2449023Y2132921D01*
X2449044Y2132710D01*
X2449060Y2132499D01*
X2449070Y2132288D01*
X2449076Y2132076D01*
X2449076Y2065782D01*
X2449074Y2065713D01*
X2449069Y2065645D01*
X2449059Y2065577D01*
X2449046Y2065509D01*
X2449030Y2065442D01*
X2449010Y2065376D01*
X2448986Y2065312D01*
X2448959Y2065249D01*
X2448928Y2065187D01*
X2448894Y2065127D01*
X2448857Y2065069D01*
X2448817Y2065013D01*
X2448774Y2064960D01*
X2448728Y2064909D01*
X2448679Y2064860D01*
X2448628Y2064814D01*
X2448575Y2064771D01*
X2448519Y2064731D01*
X2448461Y2064694D01*
X2448401Y2064660D01*
X2448339Y2064629D01*
X2448276Y2064602D01*
X2448212Y2064578D01*
X2448146Y2064558D01*
X2448079Y2064542D01*
X2448011Y2064529D01*
X2447943Y2064519D01*
X2447875Y2064514D01*
X2447806Y2064512D01*
X2447243Y2064505D01*
X2446681Y2064484D01*
X2446120Y2064450D01*
X2445559Y2064402D01*
X2445000Y2064340D01*
X2444443Y2064264D01*
X2443887Y2064175D01*
X2443334Y2064072D01*
X2442783Y2063956D01*
X2442236Y2063826D01*
X2441692Y2063683D01*
X2441152Y2063527D01*
X2440615Y2063357D01*
X2440083Y2063174D01*
X2439556Y2062979D01*
X2439033Y2062770D01*
X2438516Y2062549D01*
X2438004Y2062315D01*
X2437498Y2062069D01*
X2436999Y2061810D01*
X2436506Y2061539D01*
X2436019Y2061256D01*
X2435540Y2060962D01*
X2435068Y2060655D01*
X2434604Y2060338D01*
X2434148Y2060009D01*
X2433699Y2059668D01*
X2433260Y2059317D01*
X2432829Y2058956D01*
X2432407Y2058584D01*
X2431994Y2058201D01*
X2431591Y2057809D01*
X2431198Y2057407D01*
X2430814Y2056995D01*
X2430441Y2056574D01*
X2430078Y2056144D01*
X2429726Y2055706D01*
X2429384Y2055259D01*
X2429054Y2054803D01*
X2428735Y2054340D01*
X2428427Y2053869D01*
X2428131Y2053390D01*
X2427847Y2052905D01*
X2427575Y2052413D01*
X2427315Y2051914D01*
X2427067Y2051409D01*
X2426831Y2050898D01*
X2426609Y2050381D01*
X2426399Y2049859D01*
X2426202Y2049332D01*
X2426017Y2048801D01*
X2425846Y2048265D01*
X2425688Y2047725D01*
X2425544Y2047181D01*
X2425412Y2046634D01*
X2425294Y2046084D01*
X2425190Y2045531D01*
X2425099Y2044976D01*
X2425022Y2044419D01*
X2424959Y2043860D01*
X2424909Y2043299D01*
X2424873Y2042738D01*
X2424851Y2042176D01*
X2424842Y2041613D01*
X2424847Y2041050D01*
X2424866Y2040488D01*
X2424899Y2039927D01*
X2424946Y2039366D01*
X2424953Y2038807D01*
X2424973Y2038249D01*
X2425007Y2037692D01*
X2425054Y2037135D01*
X2425115Y2036580D01*
X2425189Y2036026D01*
X2425276Y2035475D01*
X2425377Y2034925D01*
X2425491Y2034378D01*
X2425618Y2033834D01*
X2425758Y2033294D01*
X2425911Y2032757D01*
X2426077Y2032223D01*
X2426256Y2031694D01*
X2426448Y2031170D01*
X2426652Y2030650D01*
X2426869Y2030135D01*
X2427099Y2029626D01*
X2427340Y2029122D01*
X2427594Y2028624D01*
X2427859Y2028133D01*
X2428136Y2027648D01*
X2428425Y2027170D01*
X2428726Y2026699D01*
X2429038Y2026236D01*
X2429360Y2025780D01*
X2429694Y2025332D01*
X2430039Y2024892D01*
X2430394Y2024461D01*
X2430759Y2024039D01*
X2431134Y2023625D01*
X2431520Y2023221D01*
X2431915Y2022826D01*
X2432319Y2022440D01*
X2432733Y2022065D01*
X2433155Y2021700D01*
X2433586Y2021345D01*
X2434026Y2021000D01*
X2434474Y2020666D01*
X2434930Y2020344D01*
X2435393Y2020032D01*
X2435864Y2019731D01*
X2436342Y2019442D01*
X2436827Y2019165D01*
X2437318Y2018900D01*
X2437816Y2018646D01*
X2438320Y2018405D01*
X2438829Y2018175D01*
X2439344Y2017958D01*
X2439864Y2017754D01*
X2440388Y2017562D01*
X2440917Y2017383D01*
X2441451Y2017217D01*
X2441988Y2017064D01*
X2442528Y2016924D01*
X2443072Y2016797D01*
X2443619Y2016683D01*
X2444169Y2016582D01*
X2444720Y2016495D01*
X2445274Y2016421D01*
X2445829Y2016360D01*
X2446386Y2016313D01*
X2446943Y2016279D01*
X2447501Y2016259D01*
X2448060Y2016252D01*
X2448121Y2016250D01*
X2448182Y2016245D01*
X2448243Y2016235D01*
X2448303Y2016222D01*
X2448362Y2016206D01*
X2448420Y2016186D01*
X2448477Y2016162D01*
X2448532Y2016136D01*
X2448586Y2016105D01*
X2448637Y2016072D01*
X2448687Y2016036D01*
X2448734Y2015996D01*
X2448778Y2015954D01*
X2448820Y2015910D01*
X2448860Y2015863D01*
X2448896Y2015813D01*
X2448929Y2015762D01*
X2448960Y2015708D01*
X2448986Y2015653D01*
X2449010Y2015596D01*
X2449030Y2015538D01*
X2449046Y2015479D01*
X2449059Y2015419D01*
X2449069Y2015358D01*
X2449074Y2015297D01*
X2449076Y2015236D01*
X2449076Y1947990D01*
X2449077Y1947990D02*
X2449075Y1947798D01*
X2449068Y1947606D01*
X2449056Y1947415D01*
X2449040Y1947224D01*
X2449019Y1947033D01*
X2448994Y1946843D01*
X2448964Y1946654D01*
X2448929Y1946465D01*
X2448890Y1946277D01*
X2448846Y1946090D01*
X2448798Y1945905D01*
X2448746Y1945720D01*
X2448688Y1945537D01*
X2448627Y1945355D01*
X2448561Y1945175D01*
X2448491Y1944997D01*
X2448416Y1944820D01*
X2448338Y1944645D01*
X2448255Y1944472D01*
X2448168Y1944301D01*
X2448077Y1944132D01*
X2447981Y1943966D01*
X2447882Y1943802D01*
X2447779Y1943640D01*
X2447672Y1943481D01*
X2447561Y1943324D01*
X2447446Y1943170D01*
X2447328Y1943019D01*
X2447206Y1942871D01*
X2447081Y1942726D01*
X2446952Y1942584D01*
X2446819Y1942445D01*
X2446684Y1942310D01*
X2446545Y1942177D01*
X2446403Y1942048D01*
X2446258Y1941923D01*
X2446110Y1941801D01*
X2445959Y1941683D01*
X2445805Y1941568D01*
X2445648Y1941457D01*
X2445489Y1941350D01*
X2445327Y1941247D01*
X2445163Y1941148D01*
X2444997Y1941052D01*
X2444828Y1940961D01*
X2444657Y1940874D01*
X2444484Y1940791D01*
X2444309Y1940713D01*
X2444132Y1940638D01*
X2443954Y1940568D01*
X2443774Y1940502D01*
X2443592Y1940441D01*
X2443409Y1940383D01*
X2443224Y1940331D01*
X2443039Y1940283D01*
X2442852Y1940239D01*
X2442664Y1940200D01*
X2442475Y1940165D01*
X2442286Y1940135D01*
X2442096Y1940110D01*
X2441905Y1940089D01*
X2441714Y1940073D01*
X2441523Y1940061D01*
X2441331Y1940054D01*
X2441139Y1940052D01*
X2303280Y1940052D01*
X2303534Y2140458D01*
X2329696Y2140712D01*
X2504956Y2387092D02*
X2504965Y2387525D01*
X2504983Y2387957D01*
X2505013Y2388389D01*
X2505052Y2388820D01*
X2505102Y2389249D01*
X2505163Y2389678D01*
X2505233Y2390105D01*
X2505314Y2390530D01*
X2505406Y2390953D01*
X2505507Y2391374D01*
X2505619Y2391792D01*
X2505740Y2392207D01*
X2505872Y2392619D01*
X2506014Y2393028D01*
X2506165Y2393433D01*
X2506326Y2393835D01*
X2506497Y2394233D01*
X2506678Y2394626D01*
X2506867Y2395015D01*
X2507067Y2395399D01*
X2507275Y2395778D01*
X2507492Y2396152D01*
X2507719Y2396521D01*
X2507954Y2396884D01*
X2508198Y2397242D01*
X2508451Y2397593D01*
X2508712Y2397938D01*
X2508981Y2398277D01*
X2509259Y2398609D01*
X2509544Y2398934D01*
X2509837Y2399253D01*
X2510138Y2399564D01*
X2510446Y2399868D01*
X2510761Y2400164D01*
X2511084Y2400452D01*
X2511413Y2400733D01*
X2511749Y2401006D01*
X2512092Y2401270D01*
X2512441Y2401526D01*
X2512795Y2401774D01*
X2513156Y2402013D01*
X2513523Y2402243D01*
X2513895Y2402464D01*
X2514272Y2402676D01*
X2514654Y2402879D01*
X2515041Y2403073D01*
X2515432Y2403258D01*
X2515828Y2403432D01*
X2516228Y2403597D01*
X2516632Y2403753D01*
X2517039Y2403899D01*
X2517450Y2404034D01*
X2517864Y2404160D01*
X2518281Y2404276D01*
X2518701Y2404382D01*
X2519123Y2404477D01*
X2519547Y2404562D01*
X2519973Y2404637D01*
X2520401Y2404702D01*
X2520831Y2404756D01*
X2521261Y2404800D01*
X2521693Y2404834D01*
X2522125Y2404857D01*
X2522557Y2404869D01*
X2522990Y2404872D01*
X2525276Y2404872D01*
X2525709Y2404869D01*
X2526141Y2404857D01*
X2526573Y2404834D01*
X2527005Y2404800D01*
X2527435Y2404756D01*
X2527865Y2404702D01*
X2528293Y2404637D01*
X2528719Y2404562D01*
X2529143Y2404477D01*
X2529565Y2404382D01*
X2529985Y2404276D01*
X2530402Y2404160D01*
X2530816Y2404034D01*
X2531227Y2403899D01*
X2531634Y2403753D01*
X2532038Y2403597D01*
X2532438Y2403432D01*
X2532834Y2403258D01*
X2533225Y2403073D01*
X2533612Y2402879D01*
X2533994Y2402676D01*
X2534371Y2402464D01*
X2534743Y2402243D01*
X2535110Y2402013D01*
X2535471Y2401774D01*
X2535825Y2401526D01*
X2536174Y2401270D01*
X2536517Y2401006D01*
X2536853Y2400733D01*
X2537182Y2400452D01*
X2537505Y2400164D01*
X2537820Y2399868D01*
X2538128Y2399564D01*
X2538429Y2399253D01*
X2538722Y2398934D01*
X2539007Y2398609D01*
X2539285Y2398277D01*
X2539554Y2397938D01*
X2539815Y2397593D01*
X2540068Y2397242D01*
X2540312Y2396884D01*
X2540547Y2396521D01*
X2540774Y2396152D01*
X2540991Y2395778D01*
X2541199Y2395399D01*
X2541399Y2395015D01*
X2541588Y2394626D01*
X2541769Y2394233D01*
X2541940Y2393835D01*
X2542101Y2393433D01*
X2542252Y2393028D01*
X2542394Y2392619D01*
X2542526Y2392207D01*
X2542647Y2391792D01*
X2542759Y2391374D01*
X2542860Y2390953D01*
X2542952Y2390530D01*
X2543033Y2390105D01*
X2543103Y2389678D01*
X2543164Y2389249D01*
X2543214Y2388820D01*
X2543253Y2388389D01*
X2543283Y2387957D01*
X2543301Y2387525D01*
X2543310Y2387092D01*
X2615446Y2387092D01*
X2615658Y2387093D01*
X2615870Y2387088D01*
X2616081Y2387078D01*
X2616292Y2387063D01*
X2616503Y2387043D01*
X2616714Y2387018D01*
X2616923Y2386988D01*
X2617132Y2386953D01*
X2617340Y2386913D01*
X2617547Y2386868D01*
X2617753Y2386818D01*
X2617957Y2386763D01*
X2618160Y2386702D01*
X2618362Y2386637D01*
X2618562Y2386568D01*
X2618760Y2386493D01*
X2618956Y2386414D01*
X2619151Y2386330D01*
X2619343Y2386241D01*
X2619533Y2386147D01*
X2619721Y2386049D01*
X2619906Y2385947D01*
X2620089Y2385840D01*
X2620269Y2385729D01*
X2620446Y2385613D01*
X2620621Y2385493D01*
X2620793Y2385369D01*
X2620961Y2385241D01*
X2621127Y2385109D01*
X2621289Y2384972D01*
X2621448Y2384832D01*
X2621603Y2384689D01*
X2621755Y2384541D01*
X2621903Y2384390D01*
X2622048Y2384235D01*
X2622189Y2384077D01*
X2622326Y2383915D01*
X2622459Y2383751D01*
X2622588Y2383583D01*
X2622713Y2383412D01*
X2622833Y2383238D01*
X2622950Y2383061D01*
X2623062Y2382881D01*
X2623170Y2382699D01*
X2623273Y2382514D01*
X2623372Y2382327D01*
X2623466Y2382137D01*
X2623556Y2381945D01*
X2623641Y2381751D01*
X2623722Y2381555D01*
X2623797Y2381357D01*
X2623868Y2381158D01*
X2623934Y2380956D01*
X2623995Y2380754D01*
X2624051Y2380549D01*
X2624102Y2380344D01*
X2624148Y2380137D01*
X2624190Y2379930D01*
X2624226Y2379721D01*
X2624257Y2379511D01*
X2624283Y2379301D01*
X2624304Y2379090D01*
X2624320Y2378879D01*
X2624330Y2378668D01*
X2624336Y2378456D01*
X2624336Y2312162D01*
X2624334Y2312093D01*
X2624329Y2312025D01*
X2624319Y2311957D01*
X2624306Y2311889D01*
X2624290Y2311822D01*
X2624270Y2311756D01*
X2624246Y2311692D01*
X2624219Y2311629D01*
X2624188Y2311567D01*
X2624154Y2311507D01*
X2624117Y2311449D01*
X2624077Y2311393D01*
X2624034Y2311340D01*
X2623988Y2311289D01*
X2623939Y2311240D01*
X2623888Y2311194D01*
X2623835Y2311151D01*
X2623779Y2311111D01*
X2623721Y2311074D01*
X2623661Y2311040D01*
X2623599Y2311009D01*
X2623536Y2310982D01*
X2623472Y2310958D01*
X2623406Y2310938D01*
X2623339Y2310922D01*
X2623271Y2310909D01*
X2623203Y2310899D01*
X2623135Y2310894D01*
X2623066Y2310892D01*
X2622503Y2310885D01*
X2621941Y2310864D01*
X2621380Y2310830D01*
X2620819Y2310782D01*
X2620260Y2310720D01*
X2619703Y2310644D01*
X2619147Y2310555D01*
X2618594Y2310452D01*
X2618043Y2310336D01*
X2617496Y2310206D01*
X2616952Y2310063D01*
X2616412Y2309907D01*
X2615875Y2309737D01*
X2615343Y2309554D01*
X2614816Y2309359D01*
X2614293Y2309150D01*
X2613776Y2308929D01*
X2613264Y2308695D01*
X2612758Y2308449D01*
X2612259Y2308190D01*
X2611766Y2307919D01*
X2611279Y2307636D01*
X2610800Y2307342D01*
X2610328Y2307035D01*
X2609864Y2306718D01*
X2609408Y2306389D01*
X2608959Y2306048D01*
X2608520Y2305697D01*
X2608089Y2305336D01*
X2607667Y2304964D01*
X2607254Y2304581D01*
X2606851Y2304189D01*
X2606458Y2303787D01*
X2606074Y2303375D01*
X2605701Y2302954D01*
X2605338Y2302524D01*
X2604986Y2302086D01*
X2604644Y2301639D01*
X2604314Y2301183D01*
X2603995Y2300720D01*
X2603687Y2300249D01*
X2603391Y2299770D01*
X2603107Y2299285D01*
X2602835Y2298793D01*
X2602575Y2298294D01*
X2602327Y2297789D01*
X2602091Y2297278D01*
X2601869Y2296761D01*
X2601659Y2296239D01*
X2601462Y2295712D01*
X2601277Y2295181D01*
X2601106Y2294645D01*
X2600948Y2294105D01*
X2600804Y2293561D01*
X2600672Y2293014D01*
X2600554Y2292464D01*
X2600450Y2291911D01*
X2600359Y2291356D01*
X2600282Y2290799D01*
X2600219Y2290240D01*
X2600169Y2289679D01*
X2600133Y2289118D01*
X2600111Y2288556D01*
X2600102Y2287993D01*
X2600107Y2287430D01*
X2600126Y2286868D01*
X2600159Y2286307D01*
X2600206Y2285746D01*
X2600213Y2285187D01*
X2600233Y2284629D01*
X2600267Y2284072D01*
X2600314Y2283515D01*
X2600375Y2282960D01*
X2600449Y2282406D01*
X2600536Y2281855D01*
X2600637Y2281305D01*
X2600751Y2280758D01*
X2600878Y2280214D01*
X2601018Y2279674D01*
X2601171Y2279137D01*
X2601337Y2278603D01*
X2601516Y2278074D01*
X2601708Y2277550D01*
X2601912Y2277030D01*
X2602129Y2276515D01*
X2602359Y2276006D01*
X2602600Y2275502D01*
X2602854Y2275004D01*
X2603119Y2274513D01*
X2603396Y2274028D01*
X2603685Y2273550D01*
X2603986Y2273079D01*
X2604298Y2272616D01*
X2604620Y2272160D01*
X2604954Y2271712D01*
X2605299Y2271272D01*
X2605654Y2270841D01*
X2606019Y2270419D01*
X2606394Y2270005D01*
X2606780Y2269601D01*
X2607175Y2269206D01*
X2607579Y2268820D01*
X2607993Y2268445D01*
X2608415Y2268080D01*
X2608846Y2267725D01*
X2609286Y2267380D01*
X2609734Y2267046D01*
X2610190Y2266724D01*
X2610653Y2266412D01*
X2611124Y2266111D01*
X2611602Y2265822D01*
X2612087Y2265545D01*
X2612578Y2265280D01*
X2613076Y2265026D01*
X2613580Y2264785D01*
X2614089Y2264555D01*
X2614604Y2264338D01*
X2615124Y2264134D01*
X2615648Y2263942D01*
X2616177Y2263763D01*
X2616711Y2263597D01*
X2617248Y2263444D01*
X2617788Y2263304D01*
X2618332Y2263177D01*
X2618879Y2263063D01*
X2619429Y2262962D01*
X2619980Y2262875D01*
X2620534Y2262801D01*
X2621089Y2262740D01*
X2621646Y2262693D01*
X2622203Y2262659D01*
X2622761Y2262639D01*
X2623320Y2262632D01*
X2623381Y2262630D01*
X2623442Y2262625D01*
X2623503Y2262615D01*
X2623563Y2262602D01*
X2623622Y2262586D01*
X2623680Y2262566D01*
X2623737Y2262542D01*
X2623792Y2262516D01*
X2623846Y2262485D01*
X2623897Y2262452D01*
X2623947Y2262416D01*
X2623994Y2262376D01*
X2624038Y2262334D01*
X2624080Y2262290D01*
X2624120Y2262243D01*
X2624156Y2262193D01*
X2624189Y2262142D01*
X2624220Y2262088D01*
X2624246Y2262033D01*
X2624270Y2261976D01*
X2624290Y2261918D01*
X2624306Y2261859D01*
X2624319Y2261799D01*
X2624329Y2261738D01*
X2624334Y2261677D01*
X2624336Y2261616D01*
X2624336Y2194370D01*
X2624337Y2194370D02*
X2624335Y2194178D01*
X2624328Y2193986D01*
X2624316Y2193795D01*
X2624300Y2193604D01*
X2624279Y2193413D01*
X2624254Y2193223D01*
X2624224Y2193034D01*
X2624189Y2192845D01*
X2624150Y2192657D01*
X2624106Y2192470D01*
X2624058Y2192285D01*
X2624006Y2192100D01*
X2623948Y2191917D01*
X2623887Y2191735D01*
X2623821Y2191555D01*
X2623751Y2191377D01*
X2623676Y2191200D01*
X2623598Y2191025D01*
X2623515Y2190852D01*
X2623428Y2190681D01*
X2623337Y2190512D01*
X2623241Y2190346D01*
X2623142Y2190182D01*
X2623039Y2190020D01*
X2622932Y2189861D01*
X2622821Y2189704D01*
X2622706Y2189550D01*
X2622588Y2189399D01*
X2622466Y2189251D01*
X2622341Y2189106D01*
X2622212Y2188964D01*
X2622079Y2188825D01*
X2621944Y2188690D01*
X2621805Y2188557D01*
X2621663Y2188428D01*
X2621518Y2188303D01*
X2621370Y2188181D01*
X2621219Y2188063D01*
X2621065Y2187948D01*
X2620908Y2187837D01*
X2620749Y2187730D01*
X2620587Y2187627D01*
X2620423Y2187528D01*
X2620257Y2187432D01*
X2620088Y2187341D01*
X2619917Y2187254D01*
X2619744Y2187171D01*
X2619569Y2187093D01*
X2619392Y2187018D01*
X2619214Y2186948D01*
X2619034Y2186882D01*
X2618852Y2186821D01*
X2618669Y2186763D01*
X2618484Y2186711D01*
X2618299Y2186663D01*
X2618112Y2186619D01*
X2617924Y2186580D01*
X2617735Y2186545D01*
X2617546Y2186515D01*
X2617356Y2186490D01*
X2617165Y2186469D01*
X2616974Y2186453D01*
X2616783Y2186441D01*
X2616591Y2186434D01*
X2616399Y2186432D01*
X2478540Y2186432D01*
X2478794Y2386838D01*
X2504956Y2387092D01*
X2418080Y881380D02*
X2717800Y881380D01*
X2717800Y622300D01*
X2418080Y622300D01*
X2418080Y881380D01*
D11*
X2567940Y363220D02*
X2717800Y363220D01*
X2717800Y58420D01*
X2567940Y58420D01*
X2567940Y363220D01*
X2405380Y408940D02*
X2405380Y558800D01*
X2710180Y558800D01*
X2710180Y408940D01*
X2405380Y408940D01*
X248920Y1993900D02*
X99060Y1993900D01*
X99060Y2298700D01*
X248920Y2298700D01*
X248920Y1993900D01*
X2110740Y1892300D02*
X2110740Y1742440D01*
X2110740Y1892300D02*
X2415540Y1892300D01*
X2415540Y1742440D01*
X2110740Y1742440D01*
X2499360Y1742440D02*
X2649220Y1742440D01*
X2499360Y1742440D02*
X2499360Y2047240D01*
X2649220Y2047240D01*
X2649220Y1742440D01*
D12*
X1067060Y2308560D02*
X1067060Y2334560D01*
X1067060Y2308560D02*
X1049060Y2308560D01*
X1049060Y2334560D01*
X1067060Y2334560D01*
X1163060Y2308560D02*
X1181060Y2308560D01*
X1181060Y2334560D01*
X1163060Y2334560D01*
X1163060Y2308560D01*
D13*
X448380Y1675440D02*
X425380Y1675440D01*
X425380Y1682440D02*
X448380Y1682440D01*
X451880Y1678940D02*
X451878Y1678823D01*
X451872Y1678706D01*
X451862Y1678590D01*
X451849Y1678473D01*
X451831Y1678358D01*
X451810Y1678243D01*
X451785Y1678129D01*
X451756Y1678015D01*
X451723Y1677903D01*
X451686Y1677792D01*
X451646Y1677682D01*
X451602Y1677574D01*
X451555Y1677467D01*
X451504Y1677361D01*
X451449Y1677258D01*
X451391Y1677156D01*
X451330Y1677057D01*
X451266Y1676959D01*
X451198Y1676864D01*
X451127Y1676771D01*
X451053Y1676680D01*
X450976Y1676592D01*
X450896Y1676507D01*
X450813Y1676424D01*
X450728Y1676344D01*
X450640Y1676267D01*
X450549Y1676193D01*
X450456Y1676122D01*
X450361Y1676054D01*
X450263Y1675990D01*
X450164Y1675929D01*
X450062Y1675871D01*
X449959Y1675816D01*
X449853Y1675765D01*
X449746Y1675718D01*
X449638Y1675674D01*
X449528Y1675634D01*
X449417Y1675597D01*
X449305Y1675564D01*
X449191Y1675535D01*
X449077Y1675510D01*
X448962Y1675489D01*
X448847Y1675471D01*
X448730Y1675458D01*
X448614Y1675448D01*
X448497Y1675442D01*
X448380Y1675440D01*
X451880Y1678940D02*
X451878Y1679057D01*
X451872Y1679174D01*
X451862Y1679290D01*
X451849Y1679407D01*
X451831Y1679522D01*
X451810Y1679637D01*
X451785Y1679751D01*
X451756Y1679865D01*
X451723Y1679977D01*
X451686Y1680088D01*
X451646Y1680198D01*
X451602Y1680306D01*
X451555Y1680413D01*
X451504Y1680519D01*
X451449Y1680622D01*
X451391Y1680724D01*
X451330Y1680823D01*
X451266Y1680921D01*
X451198Y1681016D01*
X451127Y1681109D01*
X451053Y1681200D01*
X450976Y1681288D01*
X450896Y1681373D01*
X450813Y1681456D01*
X450728Y1681536D01*
X450640Y1681613D01*
X450549Y1681687D01*
X450456Y1681758D01*
X450361Y1681826D01*
X450263Y1681890D01*
X450164Y1681951D01*
X450062Y1682009D01*
X449959Y1682064D01*
X449853Y1682115D01*
X449746Y1682162D01*
X449638Y1682206D01*
X449528Y1682246D01*
X449417Y1682283D01*
X449305Y1682316D01*
X449191Y1682345D01*
X449077Y1682370D01*
X448962Y1682391D01*
X448847Y1682409D01*
X448730Y1682422D01*
X448614Y1682432D01*
X448497Y1682438D01*
X448380Y1682440D01*
X425380Y1675440D02*
X425263Y1675442D01*
X425146Y1675448D01*
X425030Y1675458D01*
X424913Y1675471D01*
X424798Y1675489D01*
X424683Y1675510D01*
X424569Y1675535D01*
X424455Y1675564D01*
X424343Y1675597D01*
X424232Y1675634D01*
X424122Y1675674D01*
X424014Y1675718D01*
X423907Y1675765D01*
X423801Y1675816D01*
X423698Y1675871D01*
X423596Y1675929D01*
X423497Y1675990D01*
X423399Y1676054D01*
X423304Y1676122D01*
X423211Y1676193D01*
X423120Y1676267D01*
X423032Y1676344D01*
X422947Y1676424D01*
X422864Y1676507D01*
X422784Y1676592D01*
X422707Y1676680D01*
X422633Y1676771D01*
X422562Y1676864D01*
X422494Y1676959D01*
X422430Y1677057D01*
X422369Y1677156D01*
X422311Y1677258D01*
X422256Y1677361D01*
X422205Y1677467D01*
X422158Y1677574D01*
X422114Y1677682D01*
X422074Y1677792D01*
X422037Y1677903D01*
X422004Y1678015D01*
X421975Y1678129D01*
X421950Y1678243D01*
X421929Y1678358D01*
X421911Y1678473D01*
X421898Y1678590D01*
X421888Y1678706D01*
X421882Y1678823D01*
X421880Y1678940D01*
X421882Y1679057D01*
X421888Y1679174D01*
X421898Y1679290D01*
X421911Y1679407D01*
X421929Y1679522D01*
X421950Y1679637D01*
X421975Y1679751D01*
X422004Y1679865D01*
X422037Y1679977D01*
X422074Y1680088D01*
X422114Y1680198D01*
X422158Y1680306D01*
X422205Y1680413D01*
X422256Y1680519D01*
X422311Y1680622D01*
X422369Y1680724D01*
X422430Y1680823D01*
X422494Y1680921D01*
X422562Y1681016D01*
X422633Y1681109D01*
X422707Y1681200D01*
X422784Y1681288D01*
X422864Y1681373D01*
X422947Y1681456D01*
X423032Y1681536D01*
X423120Y1681613D01*
X423211Y1681687D01*
X423304Y1681758D01*
X423399Y1681826D01*
X423497Y1681890D01*
X423596Y1681951D01*
X423698Y1682009D01*
X423801Y1682064D01*
X423907Y1682115D01*
X424014Y1682162D01*
X424122Y1682206D01*
X424232Y1682246D01*
X424343Y1682283D01*
X424455Y1682316D01*
X424569Y1682345D01*
X424683Y1682370D01*
X424798Y1682391D01*
X424913Y1682409D01*
X425030Y1682422D01*
X425146Y1682432D01*
X425263Y1682438D01*
X425380Y1682440D01*
X425380Y1736440D02*
X448380Y1736440D01*
X448380Y1743440D02*
X425380Y1743440D01*
X448380Y1736440D02*
X448497Y1736442D01*
X448614Y1736448D01*
X448730Y1736458D01*
X448847Y1736471D01*
X448962Y1736489D01*
X449077Y1736510D01*
X449191Y1736535D01*
X449305Y1736564D01*
X449417Y1736597D01*
X449528Y1736634D01*
X449638Y1736674D01*
X449746Y1736718D01*
X449853Y1736765D01*
X449959Y1736816D01*
X450062Y1736871D01*
X450164Y1736929D01*
X450263Y1736990D01*
X450361Y1737054D01*
X450456Y1737122D01*
X450549Y1737193D01*
X450640Y1737267D01*
X450728Y1737344D01*
X450813Y1737424D01*
X450896Y1737507D01*
X450976Y1737592D01*
X451053Y1737680D01*
X451127Y1737771D01*
X451198Y1737864D01*
X451266Y1737959D01*
X451330Y1738057D01*
X451391Y1738156D01*
X451449Y1738258D01*
X451504Y1738361D01*
X451555Y1738467D01*
X451602Y1738574D01*
X451646Y1738682D01*
X451686Y1738792D01*
X451723Y1738903D01*
X451756Y1739015D01*
X451785Y1739129D01*
X451810Y1739243D01*
X451831Y1739358D01*
X451849Y1739473D01*
X451862Y1739590D01*
X451872Y1739706D01*
X451878Y1739823D01*
X451880Y1739940D01*
X451878Y1740057D01*
X451872Y1740174D01*
X451862Y1740290D01*
X451849Y1740407D01*
X451831Y1740522D01*
X451810Y1740637D01*
X451785Y1740751D01*
X451756Y1740865D01*
X451723Y1740977D01*
X451686Y1741088D01*
X451646Y1741198D01*
X451602Y1741306D01*
X451555Y1741413D01*
X451504Y1741519D01*
X451449Y1741622D01*
X451391Y1741724D01*
X451330Y1741823D01*
X451266Y1741921D01*
X451198Y1742016D01*
X451127Y1742109D01*
X451053Y1742200D01*
X450976Y1742288D01*
X450896Y1742373D01*
X450813Y1742456D01*
X450728Y1742536D01*
X450640Y1742613D01*
X450549Y1742687D01*
X450456Y1742758D01*
X450361Y1742826D01*
X450263Y1742890D01*
X450164Y1742951D01*
X450062Y1743009D01*
X449959Y1743064D01*
X449853Y1743115D01*
X449746Y1743162D01*
X449638Y1743206D01*
X449528Y1743246D01*
X449417Y1743283D01*
X449305Y1743316D01*
X449191Y1743345D01*
X449077Y1743370D01*
X448962Y1743391D01*
X448847Y1743409D01*
X448730Y1743422D01*
X448614Y1743432D01*
X448497Y1743438D01*
X448380Y1743440D01*
X425380Y1736440D02*
X425263Y1736442D01*
X425146Y1736448D01*
X425030Y1736458D01*
X424913Y1736471D01*
X424798Y1736489D01*
X424683Y1736510D01*
X424569Y1736535D01*
X424455Y1736564D01*
X424343Y1736597D01*
X424232Y1736634D01*
X424122Y1736674D01*
X424014Y1736718D01*
X423907Y1736765D01*
X423801Y1736816D01*
X423698Y1736871D01*
X423596Y1736929D01*
X423497Y1736990D01*
X423399Y1737054D01*
X423304Y1737122D01*
X423211Y1737193D01*
X423120Y1737267D01*
X423032Y1737344D01*
X422947Y1737424D01*
X422864Y1737507D01*
X422784Y1737592D01*
X422707Y1737680D01*
X422633Y1737771D01*
X422562Y1737864D01*
X422494Y1737959D01*
X422430Y1738057D01*
X422369Y1738156D01*
X422311Y1738258D01*
X422256Y1738361D01*
X422205Y1738467D01*
X422158Y1738574D01*
X422114Y1738682D01*
X422074Y1738792D01*
X422037Y1738903D01*
X422004Y1739015D01*
X421975Y1739129D01*
X421950Y1739243D01*
X421929Y1739358D01*
X421911Y1739473D01*
X421898Y1739590D01*
X421888Y1739706D01*
X421882Y1739823D01*
X421880Y1739940D01*
X421882Y1740057D01*
X421888Y1740174D01*
X421898Y1740290D01*
X421911Y1740407D01*
X421929Y1740522D01*
X421950Y1740637D01*
X421975Y1740751D01*
X422004Y1740865D01*
X422037Y1740977D01*
X422074Y1741088D01*
X422114Y1741198D01*
X422158Y1741306D01*
X422205Y1741413D01*
X422256Y1741519D01*
X422311Y1741622D01*
X422369Y1741724D01*
X422430Y1741823D01*
X422494Y1741921D01*
X422562Y1742016D01*
X422633Y1742109D01*
X422707Y1742200D01*
X422784Y1742288D01*
X422864Y1742373D01*
X422947Y1742456D01*
X423032Y1742536D01*
X423120Y1742613D01*
X423211Y1742687D01*
X423304Y1742758D01*
X423399Y1742826D01*
X423497Y1742890D01*
X423596Y1742951D01*
X423698Y1743009D01*
X423801Y1743064D01*
X423907Y1743115D01*
X424014Y1743162D01*
X424122Y1743206D01*
X424232Y1743246D01*
X424343Y1743283D01*
X424455Y1743316D01*
X424569Y1743345D01*
X424683Y1743370D01*
X424798Y1743391D01*
X424913Y1743409D01*
X425030Y1743422D01*
X425146Y1743432D01*
X425263Y1743438D01*
X425380Y1743440D01*
X481380Y1720440D02*
X481380Y1697440D01*
X488380Y1697440D02*
X488380Y1720440D01*
X481380Y1697440D02*
X481382Y1697323D01*
X481388Y1697206D01*
X481398Y1697090D01*
X481411Y1696973D01*
X481429Y1696858D01*
X481450Y1696743D01*
X481475Y1696629D01*
X481504Y1696515D01*
X481537Y1696403D01*
X481574Y1696292D01*
X481614Y1696182D01*
X481658Y1696074D01*
X481705Y1695967D01*
X481756Y1695861D01*
X481811Y1695758D01*
X481869Y1695656D01*
X481930Y1695557D01*
X481994Y1695459D01*
X482062Y1695364D01*
X482133Y1695271D01*
X482207Y1695180D01*
X482284Y1695092D01*
X482364Y1695007D01*
X482447Y1694924D01*
X482532Y1694844D01*
X482620Y1694767D01*
X482711Y1694693D01*
X482804Y1694622D01*
X482899Y1694554D01*
X482997Y1694490D01*
X483096Y1694429D01*
X483198Y1694371D01*
X483301Y1694316D01*
X483407Y1694265D01*
X483514Y1694218D01*
X483622Y1694174D01*
X483732Y1694134D01*
X483843Y1694097D01*
X483955Y1694064D01*
X484069Y1694035D01*
X484183Y1694010D01*
X484298Y1693989D01*
X484413Y1693971D01*
X484530Y1693958D01*
X484646Y1693948D01*
X484763Y1693942D01*
X484880Y1693940D01*
X484997Y1693942D01*
X485114Y1693948D01*
X485230Y1693958D01*
X485347Y1693971D01*
X485462Y1693989D01*
X485577Y1694010D01*
X485691Y1694035D01*
X485805Y1694064D01*
X485917Y1694097D01*
X486028Y1694134D01*
X486138Y1694174D01*
X486246Y1694218D01*
X486353Y1694265D01*
X486459Y1694316D01*
X486562Y1694371D01*
X486664Y1694429D01*
X486763Y1694490D01*
X486861Y1694554D01*
X486956Y1694622D01*
X487049Y1694693D01*
X487140Y1694767D01*
X487228Y1694844D01*
X487313Y1694924D01*
X487396Y1695007D01*
X487476Y1695092D01*
X487553Y1695180D01*
X487627Y1695271D01*
X487698Y1695364D01*
X487766Y1695459D01*
X487830Y1695557D01*
X487891Y1695656D01*
X487949Y1695758D01*
X488004Y1695861D01*
X488055Y1695967D01*
X488102Y1696074D01*
X488146Y1696182D01*
X488186Y1696292D01*
X488223Y1696403D01*
X488256Y1696515D01*
X488285Y1696629D01*
X488310Y1696743D01*
X488331Y1696858D01*
X488349Y1696973D01*
X488362Y1697090D01*
X488372Y1697206D01*
X488378Y1697323D01*
X488380Y1697440D01*
X481380Y1720440D02*
X481382Y1720557D01*
X481388Y1720674D01*
X481398Y1720790D01*
X481411Y1720907D01*
X481429Y1721022D01*
X481450Y1721137D01*
X481475Y1721251D01*
X481504Y1721365D01*
X481537Y1721477D01*
X481574Y1721588D01*
X481614Y1721698D01*
X481658Y1721806D01*
X481705Y1721913D01*
X481756Y1722019D01*
X481811Y1722122D01*
X481869Y1722224D01*
X481930Y1722323D01*
X481994Y1722421D01*
X482062Y1722516D01*
X482133Y1722609D01*
X482207Y1722700D01*
X482284Y1722788D01*
X482364Y1722873D01*
X482447Y1722956D01*
X482532Y1723036D01*
X482620Y1723113D01*
X482711Y1723187D01*
X482804Y1723258D01*
X482899Y1723326D01*
X482997Y1723390D01*
X483096Y1723451D01*
X483198Y1723509D01*
X483301Y1723564D01*
X483407Y1723615D01*
X483514Y1723662D01*
X483622Y1723706D01*
X483732Y1723746D01*
X483843Y1723783D01*
X483955Y1723816D01*
X484069Y1723845D01*
X484183Y1723870D01*
X484298Y1723891D01*
X484413Y1723909D01*
X484530Y1723922D01*
X484646Y1723932D01*
X484763Y1723938D01*
X484880Y1723940D01*
X484997Y1723938D01*
X485114Y1723932D01*
X485230Y1723922D01*
X485347Y1723909D01*
X485462Y1723891D01*
X485577Y1723870D01*
X485691Y1723845D01*
X485805Y1723816D01*
X485917Y1723783D01*
X486028Y1723746D01*
X486138Y1723706D01*
X486246Y1723662D01*
X486353Y1723615D01*
X486459Y1723564D01*
X486562Y1723509D01*
X486664Y1723451D01*
X486763Y1723390D01*
X486861Y1723326D01*
X486956Y1723258D01*
X487049Y1723187D01*
X487140Y1723113D01*
X487228Y1723036D01*
X487313Y1722956D01*
X487396Y1722873D01*
X487476Y1722788D01*
X487553Y1722700D01*
X487627Y1722609D01*
X487698Y1722516D01*
X487766Y1722421D01*
X487830Y1722323D01*
X487891Y1722224D01*
X487949Y1722122D01*
X488004Y1722019D01*
X488055Y1721913D01*
X488102Y1721806D01*
X488146Y1721698D01*
X488186Y1721588D01*
X488223Y1721477D01*
X488256Y1721365D01*
X488285Y1721251D01*
X488310Y1721137D01*
X488331Y1721022D01*
X488349Y1720907D01*
X488362Y1720790D01*
X488372Y1720674D01*
X488378Y1720557D01*
X488380Y1720440D01*
M02*
