G04 EAGLE Gerber RS-274X export*
G75*
%MOIN*%
%FSLAX34Y34*%
%LPD*%
%INProfile_dxf*%
%IPPOS*%
%AMOC8*
5,1,8,0,0,1.08239X$1,22.5*%
G01*
%ADD10C,0.006000*%
%ADD11C,0.010000*%
%ADD12C,0.010000*%


D10*
X1000Y0D02*
X158000Y0D01*
X158000Y12000D01*
X1000Y12000D01*
X1000Y0D01*
D11*
X19500Y58900D02*
X-19500Y58900D01*
X19500Y58900D02*
X19500Y51500D01*
X17100Y48000D01*
X-3100Y48000D01*
X-3100Y45500D01*
X-15800Y45500D01*
X-15900Y45600D01*
X-15900Y48100D01*
X-16000Y48100D01*
X-19500Y51600D01*
X-19500Y58900D01*
D12*
X8000Y16000D02*
X136500Y16000D01*
X136500Y38500D01*
X8000Y38500D01*
X8000Y16000D01*
X-19500Y51600D02*
X-16000Y48100D01*
X-15900Y48100D01*
X-15900Y45600D01*
X-15800Y45500D01*
X-3100Y45500D01*
X-3100Y48000D01*
X17100Y48000D01*
X19500Y51500D01*
X19500Y58900D01*
X-19500Y58900D01*
X-19500Y51600D01*
X1000Y0D02*
X158000Y0D01*
X158000Y12000D01*
X1000Y12000D01*
X1000Y0D01*
X33075Y37130D02*
X33072Y37089D01*
X33067Y37048D01*
X33059Y37008D01*
X33048Y36968D01*
X33035Y36930D01*
X33020Y36892D01*
X33001Y36855D01*
X32981Y36820D01*
X32958Y36786D01*
X32933Y36753D01*
X32906Y36723D01*
X32877Y36694D01*
X32847Y36667D01*
X32814Y36642D01*
X32780Y36619D01*
X32745Y36599D01*
X32708Y36580D01*
X32670Y36565D01*
X32632Y36552D01*
X32592Y36541D01*
X32552Y36533D01*
X32511Y36528D01*
X32470Y36525D01*
X32430Y36525D01*
X32389Y36528D01*
X32348Y36533D01*
X32308Y36541D01*
X32268Y36552D01*
X32230Y36565D01*
X32192Y36580D01*
X32155Y36599D01*
X32120Y36619D01*
X32086Y36642D01*
X32053Y36667D01*
X32023Y36694D01*
X31994Y36723D01*
X31967Y36753D01*
X31942Y36786D01*
X31919Y36820D01*
X31899Y36855D01*
X31880Y36892D01*
X31865Y36930D01*
X31852Y36968D01*
X31841Y37008D01*
X31833Y37048D01*
X31828Y37089D01*
X31825Y37130D01*
X31825Y37170D01*
X31828Y37211D01*
X31833Y37252D01*
X31841Y37292D01*
X31852Y37332D01*
X31865Y37370D01*
X31880Y37408D01*
X31899Y37445D01*
X31919Y37480D01*
X31942Y37514D01*
X31967Y37547D01*
X31994Y37577D01*
X32023Y37606D01*
X32053Y37633D01*
X32086Y37658D01*
X32120Y37681D01*
X32155Y37701D01*
X32192Y37720D01*
X32230Y37735D01*
X32268Y37748D01*
X32308Y37759D01*
X32348Y37767D01*
X32389Y37772D01*
X32430Y37775D01*
X32470Y37775D01*
X32511Y37772D01*
X32552Y37767D01*
X32592Y37759D01*
X32632Y37748D01*
X32670Y37735D01*
X32708Y37720D01*
X32745Y37701D01*
X32780Y37681D01*
X32814Y37658D01*
X32847Y37633D01*
X32877Y37606D01*
X32906Y37577D01*
X32933Y37547D01*
X32958Y37514D01*
X32981Y37480D01*
X33001Y37445D01*
X33020Y37408D01*
X33035Y37370D01*
X33048Y37332D01*
X33059Y37292D01*
X33067Y37252D01*
X33072Y37211D01*
X33075Y37170D01*
X33075Y37130D01*
X60175Y35230D02*
X60172Y35189D01*
X60167Y35148D01*
X60159Y35108D01*
X60148Y35068D01*
X60135Y35030D01*
X60120Y34992D01*
X60101Y34955D01*
X60081Y34920D01*
X60058Y34886D01*
X60033Y34853D01*
X60006Y34823D01*
X59977Y34794D01*
X59947Y34767D01*
X59914Y34742D01*
X59880Y34719D01*
X59845Y34699D01*
X59808Y34680D01*
X59770Y34665D01*
X59732Y34652D01*
X59692Y34641D01*
X59652Y34633D01*
X59611Y34628D01*
X59570Y34625D01*
X59530Y34625D01*
X59489Y34628D01*
X59448Y34633D01*
X59408Y34641D01*
X59368Y34652D01*
X59330Y34665D01*
X59292Y34680D01*
X59255Y34699D01*
X59220Y34719D01*
X59186Y34742D01*
X59153Y34767D01*
X59123Y34794D01*
X59094Y34823D01*
X59067Y34853D01*
X59042Y34886D01*
X59019Y34920D01*
X58999Y34955D01*
X58980Y34992D01*
X58965Y35030D01*
X58952Y35068D01*
X58941Y35108D01*
X58933Y35148D01*
X58928Y35189D01*
X58925Y35230D01*
X58925Y35270D01*
X58928Y35311D01*
X58933Y35352D01*
X58941Y35392D01*
X58952Y35432D01*
X58965Y35470D01*
X58980Y35508D01*
X58999Y35545D01*
X59019Y35580D01*
X59042Y35614D01*
X59067Y35647D01*
X59094Y35677D01*
X59123Y35706D01*
X59153Y35733D01*
X59186Y35758D01*
X59220Y35781D01*
X59255Y35801D01*
X59292Y35820D01*
X59330Y35835D01*
X59368Y35848D01*
X59408Y35859D01*
X59448Y35867D01*
X59489Y35872D01*
X59530Y35875D01*
X59570Y35875D01*
X59611Y35872D01*
X59652Y35867D01*
X59692Y35859D01*
X59732Y35848D01*
X59770Y35835D01*
X59808Y35820D01*
X59845Y35801D01*
X59880Y35781D01*
X59914Y35758D01*
X59947Y35733D01*
X59977Y35706D01*
X60006Y35677D01*
X60033Y35647D01*
X60058Y35614D01*
X60081Y35580D01*
X60101Y35545D01*
X60120Y35508D01*
X60135Y35470D01*
X60148Y35432D01*
X60159Y35392D01*
X60167Y35352D01*
X60172Y35311D01*
X60175Y35270D01*
X60175Y35230D01*
X33075Y18180D02*
X33072Y18139D01*
X33067Y18098D01*
X33059Y18058D01*
X33048Y18018D01*
X33035Y17980D01*
X33020Y17942D01*
X33001Y17905D01*
X32981Y17870D01*
X32958Y17836D01*
X32933Y17803D01*
X32906Y17773D01*
X32877Y17744D01*
X32847Y17717D01*
X32814Y17692D01*
X32780Y17669D01*
X32745Y17649D01*
X32708Y17630D01*
X32670Y17615D01*
X32632Y17602D01*
X32592Y17591D01*
X32552Y17583D01*
X32511Y17578D01*
X32470Y17575D01*
X32430Y17575D01*
X32389Y17578D01*
X32348Y17583D01*
X32308Y17591D01*
X32268Y17602D01*
X32230Y17615D01*
X32192Y17630D01*
X32155Y17649D01*
X32120Y17669D01*
X32086Y17692D01*
X32053Y17717D01*
X32023Y17744D01*
X31994Y17773D01*
X31967Y17803D01*
X31942Y17836D01*
X31919Y17870D01*
X31899Y17905D01*
X31880Y17942D01*
X31865Y17980D01*
X31852Y18018D01*
X31841Y18058D01*
X31833Y18098D01*
X31828Y18139D01*
X31825Y18180D01*
X31825Y18220D01*
X31828Y18261D01*
X31833Y18302D01*
X31841Y18342D01*
X31852Y18382D01*
X31865Y18420D01*
X31880Y18458D01*
X31899Y18495D01*
X31919Y18530D01*
X31942Y18564D01*
X31967Y18597D01*
X31994Y18627D01*
X32023Y18656D01*
X32053Y18683D01*
X32086Y18708D01*
X32120Y18731D01*
X32155Y18751D01*
X32192Y18770D01*
X32230Y18785D01*
X32268Y18798D01*
X32308Y18809D01*
X32348Y18817D01*
X32389Y18822D01*
X32430Y18825D01*
X32470Y18825D01*
X32511Y18822D01*
X32552Y18817D01*
X32592Y18809D01*
X32632Y18798D01*
X32670Y18785D01*
X32708Y18770D01*
X32745Y18751D01*
X32780Y18731D01*
X32814Y18708D01*
X32847Y18683D01*
X32877Y18656D01*
X32906Y18627D01*
X32933Y18597D01*
X32958Y18564D01*
X32981Y18530D01*
X33001Y18495D01*
X33020Y18458D01*
X33035Y18420D01*
X33048Y18382D01*
X33059Y18342D01*
X33067Y18302D01*
X33072Y18261D01*
X33075Y18220D01*
X33075Y18180D01*
X68475Y36930D02*
X68472Y36889D01*
X68467Y36848D01*
X68459Y36808D01*
X68448Y36768D01*
X68435Y36730D01*
X68420Y36692D01*
X68401Y36655D01*
X68381Y36620D01*
X68358Y36586D01*
X68333Y36553D01*
X68306Y36523D01*
X68277Y36494D01*
X68247Y36467D01*
X68214Y36442D01*
X68180Y36419D01*
X68145Y36399D01*
X68108Y36380D01*
X68070Y36365D01*
X68032Y36352D01*
X67992Y36341D01*
X67952Y36333D01*
X67911Y36328D01*
X67870Y36325D01*
X67830Y36325D01*
X67789Y36328D01*
X67748Y36333D01*
X67708Y36341D01*
X67668Y36352D01*
X67630Y36365D01*
X67592Y36380D01*
X67555Y36399D01*
X67520Y36419D01*
X67486Y36442D01*
X67453Y36467D01*
X67423Y36494D01*
X67394Y36523D01*
X67367Y36553D01*
X67342Y36586D01*
X67319Y36620D01*
X67299Y36655D01*
X67280Y36692D01*
X67265Y36730D01*
X67252Y36768D01*
X67241Y36808D01*
X67233Y36848D01*
X67228Y36889D01*
X67225Y36930D01*
X67225Y36970D01*
X67228Y37011D01*
X67233Y37052D01*
X67241Y37092D01*
X67252Y37132D01*
X67265Y37170D01*
X67280Y37208D01*
X67299Y37245D01*
X67319Y37280D01*
X67342Y37314D01*
X67367Y37347D01*
X67394Y37377D01*
X67423Y37406D01*
X67453Y37433D01*
X67486Y37458D01*
X67520Y37481D01*
X67555Y37501D01*
X67592Y37520D01*
X67630Y37535D01*
X67668Y37548D01*
X67708Y37559D01*
X67748Y37567D01*
X67789Y37572D01*
X67830Y37575D01*
X67870Y37575D01*
X67911Y37572D01*
X67952Y37567D01*
X67992Y37559D01*
X68032Y37548D01*
X68070Y37535D01*
X68108Y37520D01*
X68145Y37501D01*
X68180Y37481D01*
X68214Y37458D01*
X68247Y37433D01*
X68277Y37406D01*
X68306Y37377D01*
X68333Y37347D01*
X68358Y37314D01*
X68381Y37280D01*
X68401Y37245D01*
X68420Y37208D01*
X68435Y37170D01*
X68448Y37132D01*
X68459Y37092D01*
X68467Y37052D01*
X68472Y37011D01*
X68475Y36970D01*
X68475Y36930D01*
X95575Y35030D02*
X95572Y34989D01*
X95567Y34948D01*
X95559Y34908D01*
X95548Y34868D01*
X95535Y34830D01*
X95520Y34792D01*
X95501Y34755D01*
X95481Y34720D01*
X95458Y34686D01*
X95433Y34653D01*
X95406Y34623D01*
X95377Y34594D01*
X95347Y34567D01*
X95314Y34542D01*
X95280Y34519D01*
X95245Y34499D01*
X95208Y34480D01*
X95170Y34465D01*
X95132Y34452D01*
X95092Y34441D01*
X95052Y34433D01*
X95011Y34428D01*
X94970Y34425D01*
X94930Y34425D01*
X94889Y34428D01*
X94848Y34433D01*
X94808Y34441D01*
X94768Y34452D01*
X94730Y34465D01*
X94692Y34480D01*
X94655Y34499D01*
X94620Y34519D01*
X94586Y34542D01*
X94553Y34567D01*
X94523Y34594D01*
X94494Y34623D01*
X94467Y34653D01*
X94442Y34686D01*
X94419Y34720D01*
X94399Y34755D01*
X94380Y34792D01*
X94365Y34830D01*
X94352Y34868D01*
X94341Y34908D01*
X94333Y34948D01*
X94328Y34989D01*
X94325Y35030D01*
X94325Y35070D01*
X94328Y35111D01*
X94333Y35152D01*
X94341Y35192D01*
X94352Y35232D01*
X94365Y35270D01*
X94380Y35308D01*
X94399Y35345D01*
X94419Y35380D01*
X94442Y35414D01*
X94467Y35447D01*
X94494Y35477D01*
X94523Y35506D01*
X94553Y35533D01*
X94586Y35558D01*
X94620Y35581D01*
X94655Y35601D01*
X94692Y35620D01*
X94730Y35635D01*
X94768Y35648D01*
X94808Y35659D01*
X94848Y35667D01*
X94889Y35672D01*
X94930Y35675D01*
X94970Y35675D01*
X95011Y35672D01*
X95052Y35667D01*
X95092Y35659D01*
X95132Y35648D01*
X95170Y35635D01*
X95208Y35620D01*
X95245Y35601D01*
X95280Y35581D01*
X95314Y35558D01*
X95347Y35533D01*
X95377Y35506D01*
X95406Y35477D01*
X95433Y35447D01*
X95458Y35414D01*
X95481Y35380D01*
X95501Y35345D01*
X95520Y35308D01*
X95535Y35270D01*
X95548Y35232D01*
X95559Y35192D01*
X95567Y35152D01*
X95572Y35111D01*
X95575Y35070D01*
X95575Y35030D01*
X68495Y17970D02*
X68492Y17929D01*
X68487Y17888D01*
X68479Y17848D01*
X68468Y17808D01*
X68455Y17770D01*
X68440Y17732D01*
X68421Y17695D01*
X68401Y17660D01*
X68378Y17626D01*
X68353Y17593D01*
X68326Y17563D01*
X68297Y17534D01*
X68267Y17507D01*
X68234Y17482D01*
X68200Y17459D01*
X68165Y17439D01*
X68128Y17420D01*
X68090Y17405D01*
X68052Y17392D01*
X68012Y17381D01*
X67972Y17373D01*
X67931Y17368D01*
X67890Y17365D01*
X67850Y17365D01*
X67809Y17368D01*
X67768Y17373D01*
X67728Y17381D01*
X67688Y17392D01*
X67650Y17405D01*
X67612Y17420D01*
X67575Y17439D01*
X67540Y17459D01*
X67506Y17482D01*
X67473Y17507D01*
X67443Y17534D01*
X67414Y17563D01*
X67387Y17593D01*
X67362Y17626D01*
X67339Y17660D01*
X67319Y17695D01*
X67300Y17732D01*
X67285Y17770D01*
X67272Y17808D01*
X67261Y17848D01*
X67253Y17888D01*
X67248Y17929D01*
X67245Y17970D01*
X67245Y18010D01*
X67248Y18051D01*
X67253Y18092D01*
X67261Y18132D01*
X67272Y18172D01*
X67285Y18210D01*
X67300Y18248D01*
X67319Y18285D01*
X67339Y18320D01*
X67362Y18354D01*
X67387Y18387D01*
X67414Y18417D01*
X67443Y18446D01*
X67473Y18473D01*
X67506Y18498D01*
X67540Y18521D01*
X67575Y18541D01*
X67612Y18560D01*
X67650Y18575D01*
X67688Y18588D01*
X67728Y18599D01*
X67768Y18607D01*
X67809Y18612D01*
X67850Y18615D01*
X67890Y18615D01*
X67931Y18612D01*
X67972Y18607D01*
X68012Y18599D01*
X68052Y18588D01*
X68090Y18575D01*
X68128Y18560D01*
X68165Y18541D01*
X68200Y18521D01*
X68234Y18498D01*
X68267Y18473D01*
X68297Y18446D01*
X68326Y18417D01*
X68353Y18387D01*
X68378Y18354D01*
X68401Y18320D01*
X68421Y18285D01*
X68440Y18248D01*
X68455Y18210D01*
X68468Y18172D01*
X68479Y18132D01*
X68487Y18092D01*
X68492Y18051D01*
X68495Y18010D01*
X68495Y17970D01*
X103675Y36840D02*
X103672Y36799D01*
X103667Y36758D01*
X103659Y36718D01*
X103648Y36678D01*
X103635Y36640D01*
X103620Y36602D01*
X103601Y36565D01*
X103581Y36530D01*
X103558Y36496D01*
X103533Y36463D01*
X103506Y36433D01*
X103477Y36404D01*
X103447Y36377D01*
X103414Y36352D01*
X103380Y36329D01*
X103345Y36309D01*
X103308Y36290D01*
X103270Y36275D01*
X103232Y36262D01*
X103192Y36251D01*
X103152Y36243D01*
X103111Y36238D01*
X103070Y36235D01*
X103030Y36235D01*
X102989Y36238D01*
X102948Y36243D01*
X102908Y36251D01*
X102868Y36262D01*
X102830Y36275D01*
X102792Y36290D01*
X102755Y36309D01*
X102720Y36329D01*
X102686Y36352D01*
X102653Y36377D01*
X102623Y36404D01*
X102594Y36433D01*
X102567Y36463D01*
X102542Y36496D01*
X102519Y36530D01*
X102499Y36565D01*
X102480Y36602D01*
X102465Y36640D01*
X102452Y36678D01*
X102441Y36718D01*
X102433Y36758D01*
X102428Y36799D01*
X102425Y36840D01*
X102425Y36880D01*
X102428Y36921D01*
X102433Y36962D01*
X102441Y37002D01*
X102452Y37042D01*
X102465Y37080D01*
X102480Y37118D01*
X102499Y37155D01*
X102519Y37190D01*
X102542Y37224D01*
X102567Y37257D01*
X102594Y37287D01*
X102623Y37316D01*
X102653Y37343D01*
X102686Y37368D01*
X102720Y37391D01*
X102755Y37411D01*
X102792Y37430D01*
X102830Y37445D01*
X102868Y37458D01*
X102908Y37469D01*
X102948Y37477D01*
X102989Y37482D01*
X103030Y37485D01*
X103070Y37485D01*
X103111Y37482D01*
X103152Y37477D01*
X103192Y37469D01*
X103232Y37458D01*
X103270Y37445D01*
X103308Y37430D01*
X103345Y37411D01*
X103380Y37391D01*
X103414Y37368D01*
X103447Y37343D01*
X103477Y37316D01*
X103506Y37287D01*
X103533Y37257D01*
X103558Y37224D01*
X103581Y37190D01*
X103601Y37155D01*
X103620Y37118D01*
X103635Y37080D01*
X103648Y37042D01*
X103659Y37002D01*
X103667Y36962D01*
X103672Y36921D01*
X103675Y36880D01*
X103675Y36840D01*
X130765Y34940D02*
X130762Y34899D01*
X130757Y34858D01*
X130749Y34818D01*
X130738Y34778D01*
X130725Y34740D01*
X130710Y34702D01*
X130691Y34665D01*
X130671Y34630D01*
X130648Y34596D01*
X130623Y34563D01*
X130596Y34533D01*
X130567Y34504D01*
X130537Y34477D01*
X130504Y34452D01*
X130470Y34429D01*
X130435Y34409D01*
X130398Y34390D01*
X130360Y34375D01*
X130322Y34362D01*
X130282Y34351D01*
X130242Y34343D01*
X130201Y34338D01*
X130160Y34335D01*
X130120Y34335D01*
X130079Y34338D01*
X130038Y34343D01*
X129998Y34351D01*
X129958Y34362D01*
X129920Y34375D01*
X129882Y34390D01*
X129845Y34409D01*
X129810Y34429D01*
X129776Y34452D01*
X129743Y34477D01*
X129713Y34504D01*
X129684Y34533D01*
X129657Y34563D01*
X129632Y34596D01*
X129609Y34630D01*
X129589Y34665D01*
X129570Y34702D01*
X129555Y34740D01*
X129542Y34778D01*
X129531Y34818D01*
X129523Y34858D01*
X129518Y34899D01*
X129515Y34940D01*
X129515Y34980D01*
X129518Y35021D01*
X129523Y35062D01*
X129531Y35102D01*
X129542Y35142D01*
X129555Y35180D01*
X129570Y35218D01*
X129589Y35255D01*
X129609Y35290D01*
X129632Y35324D01*
X129657Y35357D01*
X129684Y35387D01*
X129713Y35416D01*
X129743Y35443D01*
X129776Y35468D01*
X129810Y35491D01*
X129845Y35511D01*
X129882Y35530D01*
X129920Y35545D01*
X129958Y35558D01*
X129998Y35569D01*
X130038Y35577D01*
X130079Y35582D01*
X130120Y35585D01*
X130160Y35585D01*
X130201Y35582D01*
X130242Y35577D01*
X130282Y35569D01*
X130322Y35558D01*
X130360Y35545D01*
X130398Y35530D01*
X130435Y35511D01*
X130470Y35491D01*
X130504Y35468D01*
X130537Y35443D01*
X130567Y35416D01*
X130596Y35387D01*
X130623Y35357D01*
X130648Y35324D01*
X130671Y35290D01*
X130691Y35255D01*
X130710Y35218D01*
X130725Y35180D01*
X130738Y35142D01*
X130749Y35102D01*
X130757Y35062D01*
X130762Y35021D01*
X130765Y34980D01*
X130765Y34940D01*
X103705Y17870D02*
X103702Y17829D01*
X103697Y17788D01*
X103689Y17748D01*
X103678Y17708D01*
X103665Y17670D01*
X103650Y17632D01*
X103631Y17595D01*
X103611Y17560D01*
X103588Y17526D01*
X103563Y17493D01*
X103536Y17463D01*
X103507Y17434D01*
X103477Y17407D01*
X103444Y17382D01*
X103410Y17359D01*
X103375Y17339D01*
X103338Y17320D01*
X103300Y17305D01*
X103262Y17292D01*
X103222Y17281D01*
X103182Y17273D01*
X103141Y17268D01*
X103100Y17265D01*
X103060Y17265D01*
X103019Y17268D01*
X102978Y17273D01*
X102938Y17281D01*
X102898Y17292D01*
X102860Y17305D01*
X102822Y17320D01*
X102785Y17339D01*
X102750Y17359D01*
X102716Y17382D01*
X102683Y17407D01*
X102653Y17434D01*
X102624Y17463D01*
X102597Y17493D01*
X102572Y17526D01*
X102549Y17560D01*
X102529Y17595D01*
X102510Y17632D01*
X102495Y17670D01*
X102482Y17708D01*
X102471Y17748D01*
X102463Y17788D01*
X102458Y17829D01*
X102455Y17870D01*
X102455Y17910D01*
X102458Y17951D01*
X102463Y17992D01*
X102471Y18032D01*
X102482Y18072D01*
X102495Y18110D01*
X102510Y18148D01*
X102529Y18185D01*
X102549Y18220D01*
X102572Y18254D01*
X102597Y18287D01*
X102624Y18317D01*
X102653Y18346D01*
X102683Y18373D01*
X102716Y18398D01*
X102750Y18421D01*
X102785Y18441D01*
X102822Y18460D01*
X102860Y18475D01*
X102898Y18488D01*
X102938Y18499D01*
X102978Y18507D01*
X103019Y18512D01*
X103060Y18515D01*
X103100Y18515D01*
X103141Y18512D01*
X103182Y18507D01*
X103222Y18499D01*
X103262Y18488D01*
X103300Y18475D01*
X103338Y18460D01*
X103375Y18441D01*
X103410Y18421D01*
X103444Y18398D01*
X103477Y18373D01*
X103507Y18346D01*
X103536Y18317D01*
X103563Y18287D01*
X103588Y18254D01*
X103611Y18220D01*
X103631Y18185D01*
X103650Y18148D01*
X103665Y18110D01*
X103678Y18072D01*
X103689Y18032D01*
X103697Y17992D01*
X103702Y17951D01*
X103705Y17910D01*
X103705Y17870D01*
X46375Y28180D02*
X46372Y28139D01*
X46367Y28098D01*
X46359Y28058D01*
X46348Y28018D01*
X46335Y27980D01*
X46320Y27942D01*
X46301Y27905D01*
X46281Y27870D01*
X46258Y27836D01*
X46233Y27803D01*
X46206Y27773D01*
X46177Y27744D01*
X46147Y27717D01*
X46114Y27692D01*
X46080Y27669D01*
X46045Y27649D01*
X46008Y27630D01*
X45970Y27615D01*
X45932Y27602D01*
X45892Y27591D01*
X45852Y27583D01*
X45811Y27578D01*
X45770Y27575D01*
X45730Y27575D01*
X45689Y27578D01*
X45648Y27583D01*
X45608Y27591D01*
X45568Y27602D01*
X45530Y27615D01*
X45492Y27630D01*
X45455Y27649D01*
X45420Y27669D01*
X45386Y27692D01*
X45353Y27717D01*
X45323Y27744D01*
X45294Y27773D01*
X45267Y27803D01*
X45242Y27836D01*
X45219Y27870D01*
X45199Y27905D01*
X45180Y27942D01*
X45165Y27980D01*
X45152Y28018D01*
X45141Y28058D01*
X45133Y28098D01*
X45128Y28139D01*
X45125Y28180D01*
X45125Y28220D01*
X45128Y28261D01*
X45133Y28302D01*
X45141Y28342D01*
X45152Y28382D01*
X45165Y28420D01*
X45180Y28458D01*
X45199Y28495D01*
X45219Y28530D01*
X45242Y28564D01*
X45267Y28597D01*
X45294Y28627D01*
X45323Y28656D01*
X45353Y28683D01*
X45386Y28708D01*
X45420Y28731D01*
X45455Y28751D01*
X45492Y28770D01*
X45530Y28785D01*
X45568Y28798D01*
X45608Y28809D01*
X45648Y28817D01*
X45689Y28822D01*
X45730Y28825D01*
X45770Y28825D01*
X45811Y28822D01*
X45852Y28817D01*
X45892Y28809D01*
X45932Y28798D01*
X45970Y28785D01*
X46008Y28770D01*
X46045Y28751D01*
X46080Y28731D01*
X46114Y28708D01*
X46147Y28683D01*
X46177Y28656D01*
X46206Y28627D01*
X46233Y28597D01*
X46258Y28564D01*
X46281Y28530D01*
X46301Y28495D01*
X46320Y28458D01*
X46335Y28420D01*
X46348Y28382D01*
X46359Y28342D01*
X46367Y28302D01*
X46372Y28261D01*
X46375Y28220D01*
X46375Y28180D01*
X84875Y27580D02*
X84872Y27539D01*
X84867Y27498D01*
X84859Y27458D01*
X84848Y27418D01*
X84835Y27380D01*
X84820Y27342D01*
X84801Y27305D01*
X84781Y27270D01*
X84758Y27236D01*
X84733Y27203D01*
X84706Y27173D01*
X84677Y27144D01*
X84647Y27117D01*
X84614Y27092D01*
X84580Y27069D01*
X84545Y27049D01*
X84508Y27030D01*
X84470Y27015D01*
X84432Y27002D01*
X84392Y26991D01*
X84352Y26983D01*
X84311Y26978D01*
X84270Y26975D01*
X84230Y26975D01*
X84189Y26978D01*
X84148Y26983D01*
X84108Y26991D01*
X84068Y27002D01*
X84030Y27015D01*
X83992Y27030D01*
X83955Y27049D01*
X83920Y27069D01*
X83886Y27092D01*
X83853Y27117D01*
X83823Y27144D01*
X83794Y27173D01*
X83767Y27203D01*
X83742Y27236D01*
X83719Y27270D01*
X83699Y27305D01*
X83680Y27342D01*
X83665Y27380D01*
X83652Y27418D01*
X83641Y27458D01*
X83633Y27498D01*
X83628Y27539D01*
X83625Y27580D01*
X83625Y27620D01*
X83628Y27661D01*
X83633Y27702D01*
X83641Y27742D01*
X83652Y27782D01*
X83665Y27820D01*
X83680Y27858D01*
X83699Y27895D01*
X83719Y27930D01*
X83742Y27964D01*
X83767Y27997D01*
X83794Y28027D01*
X83823Y28056D01*
X83853Y28083D01*
X83886Y28108D01*
X83920Y28131D01*
X83955Y28151D01*
X83992Y28170D01*
X84030Y28185D01*
X84068Y28198D01*
X84108Y28209D01*
X84148Y28217D01*
X84189Y28222D01*
X84230Y28225D01*
X84270Y28225D01*
X84311Y28222D01*
X84352Y28217D01*
X84392Y28209D01*
X84432Y28198D01*
X84470Y28185D01*
X84508Y28170D01*
X84545Y28151D01*
X84580Y28131D01*
X84614Y28108D01*
X84647Y28083D01*
X84677Y28056D01*
X84706Y28027D01*
X84733Y27997D01*
X84758Y27964D01*
X84781Y27930D01*
X84801Y27895D01*
X84820Y27858D01*
X84835Y27820D01*
X84848Y27782D01*
X84859Y27742D01*
X84867Y27702D01*
X84872Y27661D01*
X84875Y27620D01*
X84875Y27580D01*
X117675Y28280D02*
X117672Y28239D01*
X117667Y28198D01*
X117659Y28158D01*
X117648Y28118D01*
X117635Y28080D01*
X117620Y28042D01*
X117601Y28005D01*
X117581Y27970D01*
X117558Y27936D01*
X117533Y27903D01*
X117506Y27873D01*
X117477Y27844D01*
X117447Y27817D01*
X117414Y27792D01*
X117380Y27769D01*
X117345Y27749D01*
X117308Y27730D01*
X117270Y27715D01*
X117232Y27702D01*
X117192Y27691D01*
X117152Y27683D01*
X117111Y27678D01*
X117070Y27675D01*
X117030Y27675D01*
X116989Y27678D01*
X116948Y27683D01*
X116908Y27691D01*
X116868Y27702D01*
X116830Y27715D01*
X116792Y27730D01*
X116755Y27749D01*
X116720Y27769D01*
X116686Y27792D01*
X116653Y27817D01*
X116623Y27844D01*
X116594Y27873D01*
X116567Y27903D01*
X116542Y27936D01*
X116519Y27970D01*
X116499Y28005D01*
X116480Y28042D01*
X116465Y28080D01*
X116452Y28118D01*
X116441Y28158D01*
X116433Y28198D01*
X116428Y28239D01*
X116425Y28280D01*
X116425Y28320D01*
X116428Y28361D01*
X116433Y28402D01*
X116441Y28442D01*
X116452Y28482D01*
X116465Y28520D01*
X116480Y28558D01*
X116499Y28595D01*
X116519Y28630D01*
X116542Y28664D01*
X116567Y28697D01*
X116594Y28727D01*
X116623Y28756D01*
X116653Y28783D01*
X116686Y28808D01*
X116720Y28831D01*
X116755Y28851D01*
X116792Y28870D01*
X116830Y28885D01*
X116868Y28898D01*
X116908Y28909D01*
X116948Y28917D01*
X116989Y28922D01*
X117030Y28925D01*
X117070Y28925D01*
X117111Y28922D01*
X117152Y28917D01*
X117192Y28909D01*
X117232Y28898D01*
X117270Y28885D01*
X117308Y28870D01*
X117345Y28851D01*
X117380Y28831D01*
X117414Y28808D01*
X117447Y28783D01*
X117477Y28756D01*
X117506Y28727D01*
X117533Y28697D01*
X117558Y28664D01*
X117581Y28630D01*
X117601Y28595D01*
X117620Y28558D01*
X117635Y28520D01*
X117648Y28482D01*
X117659Y28442D01*
X117667Y28402D01*
X117672Y28361D01*
X117675Y28320D01*
X117675Y28280D01*
X15825Y36130D02*
X15822Y36089D01*
X15817Y36048D01*
X15809Y36008D01*
X15798Y35968D01*
X15785Y35930D01*
X15770Y35892D01*
X15751Y35855D01*
X15731Y35820D01*
X15708Y35786D01*
X15683Y35753D01*
X15656Y35723D01*
X15627Y35694D01*
X15597Y35667D01*
X15564Y35642D01*
X15530Y35619D01*
X15495Y35599D01*
X15458Y35580D01*
X15420Y35565D01*
X15382Y35552D01*
X15342Y35541D01*
X15302Y35533D01*
X15261Y35528D01*
X15220Y35525D01*
X15180Y35525D01*
X15139Y35528D01*
X15098Y35533D01*
X15058Y35541D01*
X15018Y35552D01*
X14980Y35565D01*
X14942Y35580D01*
X14905Y35599D01*
X14870Y35619D01*
X14836Y35642D01*
X14803Y35667D01*
X14773Y35694D01*
X14744Y35723D01*
X14717Y35753D01*
X14692Y35786D01*
X14669Y35820D01*
X14649Y35855D01*
X14630Y35892D01*
X14615Y35930D01*
X14602Y35968D01*
X14591Y36008D01*
X14583Y36048D01*
X14578Y36089D01*
X14575Y36130D01*
X14575Y36170D01*
X14578Y36211D01*
X14583Y36252D01*
X14591Y36292D01*
X14602Y36332D01*
X14615Y36370D01*
X14630Y36408D01*
X14649Y36445D01*
X14669Y36480D01*
X14692Y36514D01*
X14717Y36547D01*
X14744Y36577D01*
X14773Y36606D01*
X14803Y36633D01*
X14836Y36658D01*
X14870Y36681D01*
X14905Y36701D01*
X14942Y36720D01*
X14980Y36735D01*
X15018Y36748D01*
X15058Y36759D01*
X15098Y36767D01*
X15139Y36772D01*
X15180Y36775D01*
X15220Y36775D01*
X15261Y36772D01*
X15302Y36767D01*
X15342Y36759D01*
X15382Y36748D01*
X15420Y36735D01*
X15458Y36720D01*
X15495Y36701D01*
X15530Y36681D01*
X15564Y36658D01*
X15597Y36633D01*
X15627Y36606D01*
X15656Y36577D01*
X15683Y36547D01*
X15708Y36514D01*
X15731Y36480D01*
X15751Y36445D01*
X15770Y36408D01*
X15785Y36370D01*
X15798Y36332D01*
X15809Y36292D01*
X15817Y36252D01*
X15822Y36211D01*
X15825Y36170D01*
X15825Y36130D01*
X130775Y17480D02*
X130772Y17439D01*
X130767Y17398D01*
X130759Y17358D01*
X130748Y17318D01*
X130735Y17280D01*
X130720Y17242D01*
X130701Y17205D01*
X130681Y17170D01*
X130658Y17136D01*
X130633Y17103D01*
X130606Y17073D01*
X130577Y17044D01*
X130547Y17017D01*
X130514Y16992D01*
X130480Y16969D01*
X130445Y16949D01*
X130408Y16930D01*
X130370Y16915D01*
X130332Y16902D01*
X130292Y16891D01*
X130252Y16883D01*
X130211Y16878D01*
X130170Y16875D01*
X130130Y16875D01*
X130089Y16878D01*
X130048Y16883D01*
X130008Y16891D01*
X129968Y16902D01*
X129930Y16915D01*
X129892Y16930D01*
X129855Y16949D01*
X129820Y16969D01*
X129786Y16992D01*
X129753Y17017D01*
X129723Y17044D01*
X129694Y17073D01*
X129667Y17103D01*
X129642Y17136D01*
X129619Y17170D01*
X129599Y17205D01*
X129580Y17242D01*
X129565Y17280D01*
X129552Y17318D01*
X129541Y17358D01*
X129533Y17398D01*
X129528Y17439D01*
X129525Y17480D01*
X129525Y17520D01*
X129528Y17561D01*
X129533Y17602D01*
X129541Y17642D01*
X129552Y17682D01*
X129565Y17720D01*
X129580Y17758D01*
X129599Y17795D01*
X129619Y17830D01*
X129642Y17864D01*
X129667Y17897D01*
X129694Y17927D01*
X129723Y17956D01*
X129753Y17983D01*
X129786Y18008D01*
X129820Y18031D01*
X129855Y18051D01*
X129892Y18070D01*
X129930Y18085D01*
X129968Y18098D01*
X130008Y18109D01*
X130048Y18117D01*
X130089Y18122D01*
X130130Y18125D01*
X130170Y18125D01*
X130211Y18122D01*
X130252Y18117D01*
X130292Y18109D01*
X130332Y18098D01*
X130370Y18085D01*
X130408Y18070D01*
X130445Y18051D01*
X130480Y18031D01*
X130514Y18008D01*
X130547Y17983D01*
X130577Y17956D01*
X130606Y17927D01*
X130633Y17897D01*
X130658Y17864D01*
X130681Y17830D01*
X130701Y17795D01*
X130720Y17758D01*
X130735Y17720D01*
X130748Y17682D01*
X130759Y17642D01*
X130767Y17602D01*
X130772Y17561D01*
X130775Y17520D01*
X130775Y17480D01*
X107175Y36780D02*
X107172Y36739D01*
X107167Y36698D01*
X107159Y36658D01*
X107148Y36618D01*
X107135Y36580D01*
X107120Y36542D01*
X107101Y36505D01*
X107081Y36470D01*
X107058Y36436D01*
X107033Y36403D01*
X107006Y36373D01*
X106977Y36344D01*
X106947Y36317D01*
X106914Y36292D01*
X106880Y36269D01*
X106845Y36249D01*
X106808Y36230D01*
X106770Y36215D01*
X106732Y36202D01*
X106692Y36191D01*
X106652Y36183D01*
X106611Y36178D01*
X106570Y36175D01*
X106530Y36175D01*
X106489Y36178D01*
X106448Y36183D01*
X106408Y36191D01*
X106368Y36202D01*
X106330Y36215D01*
X106292Y36230D01*
X106255Y36249D01*
X106220Y36269D01*
X106186Y36292D01*
X106153Y36317D01*
X106123Y36344D01*
X106094Y36373D01*
X106067Y36403D01*
X106042Y36436D01*
X106019Y36470D01*
X105999Y36505D01*
X105980Y36542D01*
X105965Y36580D01*
X105952Y36618D01*
X105941Y36658D01*
X105933Y36698D01*
X105928Y36739D01*
X105925Y36780D01*
X105925Y36820D01*
X105928Y36861D01*
X105933Y36902D01*
X105941Y36942D01*
X105952Y36982D01*
X105965Y37020D01*
X105980Y37058D01*
X105999Y37095D01*
X106019Y37130D01*
X106042Y37164D01*
X106067Y37197D01*
X106094Y37227D01*
X106123Y37256D01*
X106153Y37283D01*
X106186Y37308D01*
X106220Y37331D01*
X106255Y37351D01*
X106292Y37370D01*
X106330Y37385D01*
X106368Y37398D01*
X106408Y37409D01*
X106448Y37417D01*
X106489Y37422D01*
X106530Y37425D01*
X106570Y37425D01*
X106611Y37422D01*
X106652Y37417D01*
X106692Y37409D01*
X106732Y37398D01*
X106770Y37385D01*
X106808Y37370D01*
X106845Y37351D01*
X106880Y37331D01*
X106914Y37308D01*
X106947Y37283D01*
X106977Y37256D01*
X107006Y37227D01*
X107033Y37197D01*
X107058Y37164D01*
X107081Y37130D01*
X107101Y37095D01*
X107120Y37058D01*
X107135Y37020D01*
X107148Y36982D01*
X107159Y36942D01*
X107167Y36902D01*
X107172Y36861D01*
X107175Y36820D01*
X107175Y36780D01*
X35775Y19980D02*
X35772Y19939D01*
X35767Y19898D01*
X35759Y19858D01*
X35748Y19818D01*
X35735Y19780D01*
X35720Y19742D01*
X35701Y19705D01*
X35681Y19670D01*
X35658Y19636D01*
X35633Y19603D01*
X35606Y19573D01*
X35577Y19544D01*
X35547Y19517D01*
X35514Y19492D01*
X35480Y19469D01*
X35445Y19449D01*
X35408Y19430D01*
X35370Y19415D01*
X35332Y19402D01*
X35292Y19391D01*
X35252Y19383D01*
X35211Y19378D01*
X35170Y19375D01*
X35130Y19375D01*
X35089Y19378D01*
X35048Y19383D01*
X35008Y19391D01*
X34968Y19402D01*
X34930Y19415D01*
X34892Y19430D01*
X34855Y19449D01*
X34820Y19469D01*
X34786Y19492D01*
X34753Y19517D01*
X34723Y19544D01*
X34694Y19573D01*
X34667Y19603D01*
X34642Y19636D01*
X34619Y19670D01*
X34599Y19705D01*
X34580Y19742D01*
X34565Y19780D01*
X34552Y19818D01*
X34541Y19858D01*
X34533Y19898D01*
X34528Y19939D01*
X34525Y19980D01*
X34525Y20020D01*
X34528Y20061D01*
X34533Y20102D01*
X34541Y20142D01*
X34552Y20182D01*
X34565Y20220D01*
X34580Y20258D01*
X34599Y20295D01*
X34619Y20330D01*
X34642Y20364D01*
X34667Y20397D01*
X34694Y20427D01*
X34723Y20456D01*
X34753Y20483D01*
X34786Y20508D01*
X34820Y20531D01*
X34855Y20551D01*
X34892Y20570D01*
X34930Y20585D01*
X34968Y20598D01*
X35008Y20609D01*
X35048Y20617D01*
X35089Y20622D01*
X35130Y20625D01*
X35170Y20625D01*
X35211Y20622D01*
X35252Y20617D01*
X35292Y20609D01*
X35332Y20598D01*
X35370Y20585D01*
X35408Y20570D01*
X35445Y20551D01*
X35480Y20531D01*
X35514Y20508D01*
X35547Y20483D01*
X35577Y20456D01*
X35606Y20427D01*
X35633Y20397D01*
X35658Y20364D01*
X35681Y20330D01*
X35701Y20295D01*
X35720Y20258D01*
X35735Y20220D01*
X35748Y20182D01*
X35759Y20142D01*
X35767Y20102D01*
X35772Y20061D01*
X35775Y20020D01*
X35775Y19980D01*
X95775Y17680D02*
X95772Y17639D01*
X95767Y17598D01*
X95759Y17558D01*
X95748Y17518D01*
X95735Y17480D01*
X95720Y17442D01*
X95701Y17405D01*
X95681Y17370D01*
X95658Y17336D01*
X95633Y17303D01*
X95606Y17273D01*
X95577Y17244D01*
X95547Y17217D01*
X95514Y17192D01*
X95480Y17169D01*
X95445Y17149D01*
X95408Y17130D01*
X95370Y17115D01*
X95332Y17102D01*
X95292Y17091D01*
X95252Y17083D01*
X95211Y17078D01*
X95170Y17075D01*
X95130Y17075D01*
X95089Y17078D01*
X95048Y17083D01*
X95008Y17091D01*
X94968Y17102D01*
X94930Y17115D01*
X94892Y17130D01*
X94855Y17149D01*
X94820Y17169D01*
X94786Y17192D01*
X94753Y17217D01*
X94723Y17244D01*
X94694Y17273D01*
X94667Y17303D01*
X94642Y17336D01*
X94619Y17370D01*
X94599Y17405D01*
X94580Y17442D01*
X94565Y17480D01*
X94552Y17518D01*
X94541Y17558D01*
X94533Y17598D01*
X94528Y17639D01*
X94525Y17680D01*
X94525Y17720D01*
X94528Y17761D01*
X94533Y17802D01*
X94541Y17842D01*
X94552Y17882D01*
X94565Y17920D01*
X94580Y17958D01*
X94599Y17995D01*
X94619Y18030D01*
X94642Y18064D01*
X94667Y18097D01*
X94694Y18127D01*
X94723Y18156D01*
X94753Y18183D01*
X94786Y18208D01*
X94820Y18231D01*
X94855Y18251D01*
X94892Y18270D01*
X94930Y18285D01*
X94968Y18298D01*
X95008Y18309D01*
X95048Y18317D01*
X95089Y18322D01*
X95130Y18325D01*
X95170Y18325D01*
X95211Y18322D01*
X95252Y18317D01*
X95292Y18309D01*
X95332Y18298D01*
X95370Y18285D01*
X95408Y18270D01*
X95445Y18251D01*
X95480Y18231D01*
X95514Y18208D01*
X95547Y18183D01*
X95577Y18156D01*
X95606Y18127D01*
X95633Y18097D01*
X95658Y18064D01*
X95681Y18030D01*
X95701Y17995D01*
X95720Y17958D01*
X95735Y17920D01*
X95748Y17882D01*
X95759Y17842D01*
X95767Y17802D01*
X95772Y17761D01*
X95775Y17720D01*
X95775Y17680D01*
X15325Y17930D02*
X15322Y17889D01*
X15317Y17848D01*
X15309Y17808D01*
X15298Y17768D01*
X15285Y17730D01*
X15270Y17692D01*
X15251Y17655D01*
X15231Y17620D01*
X15208Y17586D01*
X15183Y17553D01*
X15156Y17523D01*
X15127Y17494D01*
X15097Y17467D01*
X15064Y17442D01*
X15030Y17419D01*
X14995Y17399D01*
X14958Y17380D01*
X14920Y17365D01*
X14882Y17352D01*
X14842Y17341D01*
X14802Y17333D01*
X14761Y17328D01*
X14720Y17325D01*
X14680Y17325D01*
X14639Y17328D01*
X14598Y17333D01*
X14558Y17341D01*
X14518Y17352D01*
X14480Y17365D01*
X14442Y17380D01*
X14405Y17399D01*
X14370Y17419D01*
X14336Y17442D01*
X14303Y17467D01*
X14273Y17494D01*
X14244Y17523D01*
X14217Y17553D01*
X14192Y17586D01*
X14169Y17620D01*
X14149Y17655D01*
X14130Y17692D01*
X14115Y17730D01*
X14102Y17768D01*
X14091Y17808D01*
X14083Y17848D01*
X14078Y17889D01*
X14075Y17930D01*
X14075Y17970D01*
X14078Y18011D01*
X14083Y18052D01*
X14091Y18092D01*
X14102Y18132D01*
X14115Y18170D01*
X14130Y18208D01*
X14149Y18245D01*
X14169Y18280D01*
X14192Y18314D01*
X14217Y18347D01*
X14244Y18377D01*
X14273Y18406D01*
X14303Y18433D01*
X14336Y18458D01*
X14370Y18481D01*
X14405Y18501D01*
X14442Y18520D01*
X14480Y18535D01*
X14518Y18548D01*
X14558Y18559D01*
X14598Y18567D01*
X14639Y18572D01*
X14680Y18575D01*
X14720Y18575D01*
X14761Y18572D01*
X14802Y18567D01*
X14842Y18559D01*
X14882Y18548D01*
X14920Y18535D01*
X14958Y18520D01*
X14995Y18501D01*
X15030Y18481D01*
X15064Y18458D01*
X15097Y18433D01*
X15127Y18406D01*
X15156Y18377D01*
X15183Y18347D01*
X15208Y18314D01*
X15231Y18280D01*
X15251Y18245D01*
X15270Y18208D01*
X15285Y18170D01*
X15298Y18132D01*
X15309Y18092D01*
X15317Y18052D01*
X15322Y18011D01*
X15325Y17970D01*
X15325Y17930D01*
X99505Y17970D02*
X99502Y17929D01*
X99497Y17888D01*
X99489Y17848D01*
X99478Y17808D01*
X99465Y17770D01*
X99450Y17732D01*
X99431Y17695D01*
X99411Y17660D01*
X99388Y17626D01*
X99363Y17593D01*
X99336Y17563D01*
X99307Y17534D01*
X99277Y17507D01*
X99244Y17482D01*
X99210Y17459D01*
X99175Y17439D01*
X99138Y17420D01*
X99100Y17405D01*
X99062Y17392D01*
X99022Y17381D01*
X98982Y17373D01*
X98941Y17368D01*
X98900Y17365D01*
X98860Y17365D01*
X98819Y17368D01*
X98778Y17373D01*
X98738Y17381D01*
X98698Y17392D01*
X98660Y17405D01*
X98622Y17420D01*
X98585Y17439D01*
X98550Y17459D01*
X98516Y17482D01*
X98483Y17507D01*
X98453Y17534D01*
X98424Y17563D01*
X98397Y17593D01*
X98372Y17626D01*
X98349Y17660D01*
X98329Y17695D01*
X98310Y17732D01*
X98295Y17770D01*
X98282Y17808D01*
X98271Y17848D01*
X98263Y17888D01*
X98258Y17929D01*
X98255Y17970D01*
X98255Y18010D01*
X98258Y18051D01*
X98263Y18092D01*
X98271Y18132D01*
X98282Y18172D01*
X98295Y18210D01*
X98310Y18248D01*
X98329Y18285D01*
X98349Y18320D01*
X98372Y18354D01*
X98397Y18387D01*
X98424Y18417D01*
X98453Y18446D01*
X98483Y18473D01*
X98516Y18498D01*
X98550Y18521D01*
X98585Y18541D01*
X98622Y18560D01*
X98660Y18575D01*
X98698Y18588D01*
X98738Y18599D01*
X98778Y18607D01*
X98819Y18612D01*
X98860Y18615D01*
X98900Y18615D01*
X98941Y18612D01*
X98982Y18607D01*
X99022Y18599D01*
X99062Y18588D01*
X99100Y18575D01*
X99138Y18560D01*
X99175Y18541D01*
X99210Y18521D01*
X99244Y18498D01*
X99277Y18473D01*
X99307Y18446D01*
X99336Y18417D01*
X99363Y18387D01*
X99388Y18354D01*
X99411Y18320D01*
X99431Y18285D01*
X99450Y18248D01*
X99465Y18210D01*
X99478Y18172D01*
X99489Y18132D01*
X99497Y18092D01*
X99502Y18051D01*
X99505Y18010D01*
X99505Y17970D01*
X134405Y17770D02*
X134402Y17729D01*
X134397Y17688D01*
X134389Y17648D01*
X134378Y17608D01*
X134365Y17570D01*
X134350Y17532D01*
X134331Y17495D01*
X134311Y17460D01*
X134288Y17426D01*
X134263Y17393D01*
X134236Y17363D01*
X134207Y17334D01*
X134177Y17307D01*
X134144Y17282D01*
X134110Y17259D01*
X134075Y17239D01*
X134038Y17220D01*
X134000Y17205D01*
X133962Y17192D01*
X133922Y17181D01*
X133882Y17173D01*
X133841Y17168D01*
X133800Y17165D01*
X133760Y17165D01*
X133719Y17168D01*
X133678Y17173D01*
X133638Y17181D01*
X133598Y17192D01*
X133560Y17205D01*
X133522Y17220D01*
X133485Y17239D01*
X133450Y17259D01*
X133416Y17282D01*
X133383Y17307D01*
X133353Y17334D01*
X133324Y17363D01*
X133297Y17393D01*
X133272Y17426D01*
X133249Y17460D01*
X133229Y17495D01*
X133210Y17532D01*
X133195Y17570D01*
X133182Y17608D01*
X133171Y17648D01*
X133163Y17688D01*
X133158Y17729D01*
X133155Y17770D01*
X133155Y17810D01*
X133158Y17851D01*
X133163Y17892D01*
X133171Y17932D01*
X133182Y17972D01*
X133195Y18010D01*
X133210Y18048D01*
X133229Y18085D01*
X133249Y18120D01*
X133272Y18154D01*
X133297Y18187D01*
X133324Y18217D01*
X133353Y18246D01*
X133383Y18273D01*
X133416Y18298D01*
X133450Y18321D01*
X133485Y18341D01*
X133522Y18360D01*
X133560Y18375D01*
X133598Y18388D01*
X133638Y18399D01*
X133678Y18407D01*
X133719Y18412D01*
X133760Y18415D01*
X133800Y18415D01*
X133841Y18412D01*
X133882Y18407D01*
X133922Y18399D01*
X133962Y18388D01*
X134000Y18375D01*
X134038Y18360D01*
X134075Y18341D01*
X134110Y18321D01*
X134144Y18298D01*
X134177Y18273D01*
X134207Y18246D01*
X134236Y18217D01*
X134263Y18187D01*
X134288Y18154D01*
X134311Y18120D01*
X134331Y18085D01*
X134350Y18048D01*
X134365Y18010D01*
X134378Y17972D01*
X134389Y17932D01*
X134397Y17892D01*
X134402Y17851D01*
X134405Y17810D01*
X134405Y17770D01*
X134505Y36170D02*
X134502Y36129D01*
X134497Y36088D01*
X134489Y36048D01*
X134478Y36008D01*
X134465Y35970D01*
X134450Y35932D01*
X134431Y35895D01*
X134411Y35860D01*
X134388Y35826D01*
X134363Y35793D01*
X134336Y35763D01*
X134307Y35734D01*
X134277Y35707D01*
X134244Y35682D01*
X134210Y35659D01*
X134175Y35639D01*
X134138Y35620D01*
X134100Y35605D01*
X134062Y35592D01*
X134022Y35581D01*
X133982Y35573D01*
X133941Y35568D01*
X133900Y35565D01*
X133860Y35565D01*
X133819Y35568D01*
X133778Y35573D01*
X133738Y35581D01*
X133698Y35592D01*
X133660Y35605D01*
X133622Y35620D01*
X133585Y35639D01*
X133550Y35659D01*
X133516Y35682D01*
X133483Y35707D01*
X133453Y35734D01*
X133424Y35763D01*
X133397Y35793D01*
X133372Y35826D01*
X133349Y35860D01*
X133329Y35895D01*
X133310Y35932D01*
X133295Y35970D01*
X133282Y36008D01*
X133271Y36048D01*
X133263Y36088D01*
X133258Y36129D01*
X133255Y36170D01*
X133255Y36210D01*
X133258Y36251D01*
X133263Y36292D01*
X133271Y36332D01*
X133282Y36372D01*
X133295Y36410D01*
X133310Y36448D01*
X133329Y36485D01*
X133349Y36520D01*
X133372Y36554D01*
X133397Y36587D01*
X133424Y36617D01*
X133453Y36646D01*
X133483Y36673D01*
X133516Y36698D01*
X133550Y36721D01*
X133585Y36741D01*
X133622Y36760D01*
X133660Y36775D01*
X133698Y36788D01*
X133738Y36799D01*
X133778Y36807D01*
X133819Y36812D01*
X133860Y36815D01*
X133900Y36815D01*
X133941Y36812D01*
X133982Y36807D01*
X134022Y36799D01*
X134062Y36788D01*
X134100Y36775D01*
X134138Y36760D01*
X134175Y36741D01*
X134210Y36721D01*
X134244Y36698D01*
X134277Y36673D01*
X134307Y36646D01*
X134336Y36617D01*
X134363Y36587D01*
X134388Y36554D01*
X134411Y36520D01*
X134431Y36485D01*
X134450Y36448D01*
X134465Y36410D01*
X134478Y36372D01*
X134489Y36332D01*
X134497Y36292D01*
X134502Y36251D01*
X134505Y36210D01*
X134505Y36170D01*
X99605Y34670D02*
X99602Y34629D01*
X99597Y34588D01*
X99589Y34548D01*
X99578Y34508D01*
X99565Y34470D01*
X99550Y34432D01*
X99531Y34395D01*
X99511Y34360D01*
X99488Y34326D01*
X99463Y34293D01*
X99436Y34263D01*
X99407Y34234D01*
X99377Y34207D01*
X99344Y34182D01*
X99310Y34159D01*
X99275Y34139D01*
X99238Y34120D01*
X99200Y34105D01*
X99162Y34092D01*
X99122Y34081D01*
X99082Y34073D01*
X99041Y34068D01*
X99000Y34065D01*
X98960Y34065D01*
X98919Y34068D01*
X98878Y34073D01*
X98838Y34081D01*
X98798Y34092D01*
X98760Y34105D01*
X98722Y34120D01*
X98685Y34139D01*
X98650Y34159D01*
X98616Y34182D01*
X98583Y34207D01*
X98553Y34234D01*
X98524Y34263D01*
X98497Y34293D01*
X98472Y34326D01*
X98449Y34360D01*
X98429Y34395D01*
X98410Y34432D01*
X98395Y34470D01*
X98382Y34508D01*
X98371Y34548D01*
X98363Y34588D01*
X98358Y34629D01*
X98355Y34670D01*
X98355Y34710D01*
X98358Y34751D01*
X98363Y34792D01*
X98371Y34832D01*
X98382Y34872D01*
X98395Y34910D01*
X98410Y34948D01*
X98429Y34985D01*
X98449Y35020D01*
X98472Y35054D01*
X98497Y35087D01*
X98524Y35117D01*
X98553Y35146D01*
X98583Y35173D01*
X98616Y35198D01*
X98650Y35221D01*
X98685Y35241D01*
X98722Y35260D01*
X98760Y35275D01*
X98798Y35288D01*
X98838Y35299D01*
X98878Y35307D01*
X98919Y35312D01*
X98960Y35315D01*
X99000Y35315D01*
X99041Y35312D01*
X99082Y35307D01*
X99122Y35299D01*
X99162Y35288D01*
X99200Y35275D01*
X99238Y35260D01*
X99275Y35241D01*
X99310Y35221D01*
X99344Y35198D01*
X99377Y35173D01*
X99407Y35146D01*
X99436Y35117D01*
X99463Y35087D01*
X99488Y35054D01*
X99511Y35020D01*
X99531Y34985D01*
X99550Y34948D01*
X99565Y34910D01*
X99578Y34872D01*
X99589Y34832D01*
X99597Y34792D01*
X99602Y34751D01*
X99605Y34710D01*
X99605Y34670D01*
X63905Y34570D02*
X63902Y34529D01*
X63897Y34488D01*
X63889Y34448D01*
X63878Y34408D01*
X63865Y34370D01*
X63850Y34332D01*
X63831Y34295D01*
X63811Y34260D01*
X63788Y34226D01*
X63763Y34193D01*
X63736Y34163D01*
X63707Y34134D01*
X63677Y34107D01*
X63644Y34082D01*
X63610Y34059D01*
X63575Y34039D01*
X63538Y34020D01*
X63500Y34005D01*
X63462Y33992D01*
X63422Y33981D01*
X63382Y33973D01*
X63341Y33968D01*
X63300Y33965D01*
X63260Y33965D01*
X63219Y33968D01*
X63178Y33973D01*
X63138Y33981D01*
X63098Y33992D01*
X63060Y34005D01*
X63022Y34020D01*
X62985Y34039D01*
X62950Y34059D01*
X62916Y34082D01*
X62883Y34107D01*
X62853Y34134D01*
X62824Y34163D01*
X62797Y34193D01*
X62772Y34226D01*
X62749Y34260D01*
X62729Y34295D01*
X62710Y34332D01*
X62695Y34370D01*
X62682Y34408D01*
X62671Y34448D01*
X62663Y34488D01*
X62658Y34529D01*
X62655Y34570D01*
X62655Y34610D01*
X62658Y34651D01*
X62663Y34692D01*
X62671Y34732D01*
X62682Y34772D01*
X62695Y34810D01*
X62710Y34848D01*
X62729Y34885D01*
X62749Y34920D01*
X62772Y34954D01*
X62797Y34987D01*
X62824Y35017D01*
X62853Y35046D01*
X62883Y35073D01*
X62916Y35098D01*
X62950Y35121D01*
X62985Y35141D01*
X63022Y35160D01*
X63060Y35175D01*
X63098Y35188D01*
X63138Y35199D01*
X63178Y35207D01*
X63219Y35212D01*
X63260Y35215D01*
X63300Y35215D01*
X63341Y35212D01*
X63382Y35207D01*
X63422Y35199D01*
X63462Y35188D01*
X63500Y35175D01*
X63538Y35160D01*
X63575Y35141D01*
X63610Y35121D01*
X63644Y35098D01*
X63677Y35073D01*
X63707Y35046D01*
X63736Y35017D01*
X63763Y34987D01*
X63788Y34954D01*
X63811Y34920D01*
X63831Y34885D01*
X63850Y34848D01*
X63865Y34810D01*
X63878Y34772D01*
X63889Y34732D01*
X63897Y34692D01*
X63902Y34651D01*
X63905Y34610D01*
X63905Y34570D01*
X11105Y17970D02*
X11102Y17929D01*
X11097Y17888D01*
X11089Y17848D01*
X11078Y17808D01*
X11065Y17770D01*
X11050Y17732D01*
X11031Y17695D01*
X11011Y17660D01*
X10988Y17626D01*
X10963Y17593D01*
X10936Y17563D01*
X10907Y17534D01*
X10877Y17507D01*
X10844Y17482D01*
X10810Y17459D01*
X10775Y17439D01*
X10738Y17420D01*
X10700Y17405D01*
X10662Y17392D01*
X10622Y17381D01*
X10582Y17373D01*
X10541Y17368D01*
X10500Y17365D01*
X10460Y17365D01*
X10419Y17368D01*
X10378Y17373D01*
X10338Y17381D01*
X10298Y17392D01*
X10260Y17405D01*
X10222Y17420D01*
X10185Y17439D01*
X10150Y17459D01*
X10116Y17482D01*
X10083Y17507D01*
X10053Y17534D01*
X10024Y17563D01*
X9997Y17593D01*
X9972Y17626D01*
X9949Y17660D01*
X9929Y17695D01*
X9910Y17732D01*
X9895Y17770D01*
X9882Y17808D01*
X9871Y17848D01*
X9863Y17888D01*
X9858Y17929D01*
X9855Y17970D01*
X9855Y18010D01*
X9858Y18051D01*
X9863Y18092D01*
X9871Y18132D01*
X9882Y18172D01*
X9895Y18210D01*
X9910Y18248D01*
X9929Y18285D01*
X9949Y18320D01*
X9972Y18354D01*
X9997Y18387D01*
X10024Y18417D01*
X10053Y18446D01*
X10083Y18473D01*
X10116Y18498D01*
X10150Y18521D01*
X10185Y18541D01*
X10222Y18560D01*
X10260Y18575D01*
X10298Y18588D01*
X10338Y18599D01*
X10378Y18607D01*
X10419Y18612D01*
X10460Y18615D01*
X10500Y18615D01*
X10541Y18612D01*
X10582Y18607D01*
X10622Y18599D01*
X10662Y18588D01*
X10700Y18575D01*
X10738Y18560D01*
X10775Y18541D01*
X10810Y18521D01*
X10844Y18498D01*
X10877Y18473D01*
X10907Y18446D01*
X10936Y18417D01*
X10963Y18387D01*
X10988Y18354D01*
X11011Y18320D01*
X11031Y18285D01*
X11050Y18248D01*
X11065Y18210D01*
X11078Y18172D01*
X11089Y18132D01*
X11097Y18092D01*
X11102Y18051D01*
X11105Y18010D01*
X11105Y17970D01*
X63905Y19370D02*
X63902Y19329D01*
X63897Y19288D01*
X63889Y19248D01*
X63878Y19208D01*
X63865Y19170D01*
X63850Y19132D01*
X63831Y19095D01*
X63811Y19060D01*
X63788Y19026D01*
X63763Y18993D01*
X63736Y18963D01*
X63707Y18934D01*
X63677Y18907D01*
X63644Y18882D01*
X63610Y18859D01*
X63575Y18839D01*
X63538Y18820D01*
X63500Y18805D01*
X63462Y18792D01*
X63422Y18781D01*
X63382Y18773D01*
X63341Y18768D01*
X63300Y18765D01*
X63260Y18765D01*
X63219Y18768D01*
X63178Y18773D01*
X63138Y18781D01*
X63098Y18792D01*
X63060Y18805D01*
X63022Y18820D01*
X62985Y18839D01*
X62950Y18859D01*
X62916Y18882D01*
X62883Y18907D01*
X62853Y18934D01*
X62824Y18963D01*
X62797Y18993D01*
X62772Y19026D01*
X62749Y19060D01*
X62729Y19095D01*
X62710Y19132D01*
X62695Y19170D01*
X62682Y19208D01*
X62671Y19248D01*
X62663Y19288D01*
X62658Y19329D01*
X62655Y19370D01*
X62655Y19410D01*
X62658Y19451D01*
X62663Y19492D01*
X62671Y19532D01*
X62682Y19572D01*
X62695Y19610D01*
X62710Y19648D01*
X62729Y19685D01*
X62749Y19720D01*
X62772Y19754D01*
X62797Y19787D01*
X62824Y19817D01*
X62853Y19846D01*
X62883Y19873D01*
X62916Y19898D01*
X62950Y19921D01*
X62985Y19941D01*
X63022Y19960D01*
X63060Y19975D01*
X63098Y19988D01*
X63138Y19999D01*
X63178Y20007D01*
X63219Y20012D01*
X63260Y20015D01*
X63300Y20015D01*
X63341Y20012D01*
X63382Y20007D01*
X63422Y19999D01*
X63462Y19988D01*
X63500Y19975D01*
X63538Y19960D01*
X63575Y19941D01*
X63610Y19921D01*
X63644Y19898D01*
X63677Y19873D01*
X63707Y19846D01*
X63736Y19817D01*
X63763Y19787D01*
X63788Y19754D01*
X63811Y19720D01*
X63831Y19685D01*
X63850Y19648D01*
X63865Y19610D01*
X63878Y19572D01*
X63889Y19532D01*
X63897Y19492D01*
X63902Y19451D01*
X63905Y19410D01*
X63905Y19370D01*
X28205Y19470D02*
X28202Y19429D01*
X28197Y19388D01*
X28189Y19348D01*
X28178Y19308D01*
X28165Y19270D01*
X28150Y19232D01*
X28131Y19195D01*
X28111Y19160D01*
X28088Y19126D01*
X28063Y19093D01*
X28036Y19063D01*
X28007Y19034D01*
X27977Y19007D01*
X27944Y18982D01*
X27910Y18959D01*
X27875Y18939D01*
X27838Y18920D01*
X27800Y18905D01*
X27762Y18892D01*
X27722Y18881D01*
X27682Y18873D01*
X27641Y18868D01*
X27600Y18865D01*
X27560Y18865D01*
X27519Y18868D01*
X27478Y18873D01*
X27438Y18881D01*
X27398Y18892D01*
X27360Y18905D01*
X27322Y18920D01*
X27285Y18939D01*
X27250Y18959D01*
X27216Y18982D01*
X27183Y19007D01*
X27153Y19034D01*
X27124Y19063D01*
X27097Y19093D01*
X27072Y19126D01*
X27049Y19160D01*
X27029Y19195D01*
X27010Y19232D01*
X26995Y19270D01*
X26982Y19308D01*
X26971Y19348D01*
X26963Y19388D01*
X26958Y19429D01*
X26955Y19470D01*
X26955Y19510D01*
X26958Y19551D01*
X26963Y19592D01*
X26971Y19632D01*
X26982Y19672D01*
X26995Y19710D01*
X27010Y19748D01*
X27029Y19785D01*
X27049Y19820D01*
X27072Y19854D01*
X27097Y19887D01*
X27124Y19917D01*
X27153Y19946D01*
X27183Y19973D01*
X27216Y19998D01*
X27250Y20021D01*
X27285Y20041D01*
X27322Y20060D01*
X27360Y20075D01*
X27398Y20088D01*
X27438Y20099D01*
X27478Y20107D01*
X27519Y20112D01*
X27560Y20115D01*
X27600Y20115D01*
X27641Y20112D01*
X27682Y20107D01*
X27722Y20099D01*
X27762Y20088D01*
X27800Y20075D01*
X27838Y20060D01*
X27875Y20041D01*
X27910Y20021D01*
X27944Y19998D01*
X27977Y19973D01*
X28007Y19946D01*
X28036Y19917D01*
X28063Y19887D01*
X28088Y19854D01*
X28111Y19820D01*
X28131Y19785D01*
X28150Y19748D01*
X28165Y19710D01*
X28178Y19672D01*
X28189Y19632D01*
X28197Y19592D01*
X28202Y19551D01*
X28205Y19510D01*
X28205Y19470D01*
X9936Y30355D02*
X9933Y30329D01*
X9927Y30303D01*
X9919Y30278D01*
X9907Y30254D01*
X9893Y30232D01*
X9876Y30211D01*
X9858Y30192D01*
X9837Y30176D01*
X9814Y30161D01*
X9791Y30150D01*
X9765Y30141D01*
X9740Y30135D01*
X9713Y30132D01*
X9687Y30132D01*
X9660Y30135D01*
X9635Y30141D01*
X9609Y30150D01*
X9586Y30161D01*
X9563Y30176D01*
X9542Y30192D01*
X9524Y30211D01*
X9507Y30232D01*
X9493Y30254D01*
X9481Y30278D01*
X9473Y30303D01*
X9467Y30329D01*
X9464Y30355D01*
X9464Y30382D01*
X9467Y30408D01*
X9473Y30434D01*
X9481Y30459D01*
X9493Y30483D01*
X9507Y30505D01*
X9524Y30526D01*
X9542Y30545D01*
X9563Y30561D01*
X9586Y30576D01*
X9609Y30587D01*
X9635Y30596D01*
X9660Y30602D01*
X9687Y30605D01*
X9713Y30605D01*
X9740Y30602D01*
X9765Y30596D01*
X9791Y30587D01*
X9814Y30576D01*
X9837Y30561D01*
X9858Y30545D01*
X9876Y30526D01*
X9893Y30505D01*
X9907Y30483D01*
X9919Y30459D01*
X9927Y30434D01*
X9933Y30408D01*
X9936Y30382D01*
X9936Y30355D01*
X8952Y30355D02*
X8949Y30329D01*
X8943Y30303D01*
X8934Y30278D01*
X8923Y30254D01*
X8909Y30232D01*
X8892Y30211D01*
X8873Y30192D01*
X8853Y30176D01*
X8830Y30161D01*
X8806Y30150D01*
X8781Y30141D01*
X8755Y30135D01*
X8729Y30132D01*
X8702Y30132D01*
X8676Y30135D01*
X8650Y30141D01*
X8625Y30150D01*
X8601Y30161D01*
X8579Y30176D01*
X8558Y30192D01*
X8539Y30211D01*
X8523Y30232D01*
X8509Y30254D01*
X8497Y30278D01*
X8488Y30303D01*
X8482Y30329D01*
X8480Y30355D01*
X8480Y30382D01*
X8482Y30408D01*
X8488Y30434D01*
X8497Y30459D01*
X8509Y30483D01*
X8523Y30505D01*
X8539Y30526D01*
X8558Y30545D01*
X8579Y30561D01*
X8601Y30576D01*
X8625Y30587D01*
X8650Y30596D01*
X8676Y30602D01*
X8702Y30605D01*
X8729Y30605D01*
X8755Y30602D01*
X8781Y30596D01*
X8806Y30587D01*
X8830Y30576D01*
X8853Y30561D01*
X8873Y30545D01*
X8892Y30526D01*
X8909Y30505D01*
X8923Y30483D01*
X8934Y30459D01*
X8943Y30434D01*
X8949Y30408D01*
X8952Y30382D01*
X8952Y30355D01*
X8952Y26418D02*
X8949Y26392D01*
X8943Y26366D01*
X8934Y26341D01*
X8923Y26317D01*
X8909Y26295D01*
X8892Y26274D01*
X8873Y26255D01*
X8853Y26239D01*
X8830Y26224D01*
X8806Y26213D01*
X8781Y26204D01*
X8755Y26198D01*
X8729Y26195D01*
X8702Y26195D01*
X8676Y26198D01*
X8650Y26204D01*
X8625Y26213D01*
X8601Y26224D01*
X8579Y26239D01*
X8558Y26255D01*
X8539Y26274D01*
X8523Y26295D01*
X8509Y26317D01*
X8497Y26341D01*
X8488Y26366D01*
X8482Y26392D01*
X8480Y26418D01*
X8480Y26445D01*
X8482Y26471D01*
X8488Y26497D01*
X8497Y26522D01*
X8509Y26546D01*
X8523Y26568D01*
X8539Y26589D01*
X8558Y26608D01*
X8579Y26624D01*
X8601Y26639D01*
X8625Y26650D01*
X8650Y26659D01*
X8676Y26665D01*
X8702Y26668D01*
X8729Y26668D01*
X8755Y26665D01*
X8781Y26659D01*
X8806Y26650D01*
X8830Y26639D01*
X8853Y26624D01*
X8873Y26608D01*
X8892Y26589D01*
X8909Y26568D01*
X8923Y26546D01*
X8934Y26522D01*
X8943Y26497D01*
X8949Y26471D01*
X8952Y26445D01*
X8952Y26418D01*
X9936Y26418D02*
X9933Y26392D01*
X9927Y26366D01*
X9919Y26341D01*
X9907Y26317D01*
X9893Y26295D01*
X9876Y26274D01*
X9858Y26255D01*
X9837Y26239D01*
X9814Y26224D01*
X9791Y26213D01*
X9765Y26204D01*
X9740Y26198D01*
X9713Y26195D01*
X9687Y26195D01*
X9660Y26198D01*
X9635Y26204D01*
X9609Y26213D01*
X9586Y26224D01*
X9563Y26239D01*
X9542Y26255D01*
X9524Y26274D01*
X9507Y26295D01*
X9493Y26317D01*
X9481Y26341D01*
X9473Y26366D01*
X9467Y26392D01*
X9464Y26418D01*
X9464Y26445D01*
X9467Y26471D01*
X9473Y26497D01*
X9481Y26522D01*
X9493Y26546D01*
X9507Y26568D01*
X9524Y26589D01*
X9542Y26608D01*
X9563Y26624D01*
X9586Y26639D01*
X9609Y26650D01*
X9635Y26659D01*
X9660Y26665D01*
X9687Y26668D01*
X9713Y26668D01*
X9740Y26665D01*
X9765Y26659D01*
X9791Y26650D01*
X9814Y26639D01*
X9837Y26624D01*
X9858Y26608D01*
X9876Y26589D01*
X9893Y26568D01*
X9907Y26546D01*
X9919Y26522D01*
X9927Y26497D01*
X9933Y26471D01*
X9936Y26445D01*
X9936Y26418D01*
X11905Y28387D02*
X11902Y28360D01*
X11896Y28335D01*
X11887Y28309D01*
X11876Y28286D01*
X11861Y28263D01*
X11845Y28242D01*
X11826Y28224D01*
X11805Y28207D01*
X11783Y28193D01*
X11759Y28181D01*
X11734Y28173D01*
X11708Y28167D01*
X11682Y28164D01*
X11655Y28164D01*
X11629Y28167D01*
X11603Y28173D01*
X11578Y28181D01*
X11554Y28193D01*
X11532Y28207D01*
X11511Y28224D01*
X11492Y28242D01*
X11476Y28263D01*
X11461Y28286D01*
X11450Y28309D01*
X11441Y28335D01*
X11435Y28360D01*
X11432Y28387D01*
X11432Y28413D01*
X11435Y28440D01*
X11441Y28465D01*
X11450Y28491D01*
X11461Y28514D01*
X11476Y28537D01*
X11492Y28558D01*
X11511Y28576D01*
X11532Y28593D01*
X11554Y28607D01*
X11578Y28619D01*
X11603Y28627D01*
X11629Y28633D01*
X11655Y28636D01*
X11682Y28636D01*
X11708Y28633D01*
X11734Y28627D01*
X11759Y28619D01*
X11783Y28607D01*
X11805Y28593D01*
X11826Y28576D01*
X11845Y28558D01*
X11861Y28537D01*
X11876Y28514D01*
X11887Y28491D01*
X11896Y28465D01*
X11902Y28440D01*
X11905Y28413D01*
X11905Y28387D01*
X9936Y24455D02*
X9933Y24429D01*
X9927Y24403D01*
X9919Y24378D01*
X9907Y24354D01*
X9893Y24332D01*
X9876Y24311D01*
X9858Y24292D01*
X9837Y24276D01*
X9814Y24261D01*
X9791Y24250D01*
X9765Y24241D01*
X9740Y24235D01*
X9713Y24232D01*
X9687Y24232D01*
X9660Y24235D01*
X9635Y24241D01*
X9609Y24250D01*
X9586Y24261D01*
X9563Y24276D01*
X9542Y24292D01*
X9524Y24311D01*
X9507Y24332D01*
X9493Y24354D01*
X9481Y24378D01*
X9473Y24403D01*
X9467Y24429D01*
X9464Y24455D01*
X9464Y24482D01*
X9467Y24508D01*
X9473Y24534D01*
X9481Y24559D01*
X9493Y24583D01*
X9507Y24605D01*
X9524Y24626D01*
X9542Y24645D01*
X9563Y24661D01*
X9586Y24676D01*
X9609Y24687D01*
X9635Y24696D01*
X9660Y24702D01*
X9687Y24705D01*
X9713Y24705D01*
X9740Y24702D01*
X9765Y24696D01*
X9791Y24687D01*
X9814Y24676D01*
X9837Y24661D01*
X9858Y24645D01*
X9876Y24626D01*
X9893Y24605D01*
X9907Y24583D01*
X9919Y24559D01*
X9927Y24534D01*
X9933Y24508D01*
X9936Y24482D01*
X9936Y24455D01*
X8952Y24455D02*
X8949Y24429D01*
X8943Y24403D01*
X8934Y24378D01*
X8923Y24354D01*
X8909Y24332D01*
X8892Y24311D01*
X8873Y24292D01*
X8853Y24276D01*
X8830Y24261D01*
X8806Y24250D01*
X8781Y24241D01*
X8755Y24235D01*
X8729Y24232D01*
X8702Y24232D01*
X8676Y24235D01*
X8650Y24241D01*
X8625Y24250D01*
X8601Y24261D01*
X8579Y24276D01*
X8558Y24292D01*
X8539Y24311D01*
X8523Y24332D01*
X8509Y24354D01*
X8497Y24378D01*
X8488Y24403D01*
X8482Y24429D01*
X8480Y24455D01*
X8480Y24482D01*
X8482Y24508D01*
X8488Y24534D01*
X8497Y24559D01*
X8509Y24583D01*
X8523Y24605D01*
X8539Y24626D01*
X8558Y24645D01*
X8579Y24661D01*
X8601Y24676D01*
X8625Y24687D01*
X8650Y24696D01*
X8676Y24702D01*
X8702Y24705D01*
X8729Y24705D01*
X8755Y24702D01*
X8781Y24696D01*
X8806Y24687D01*
X8830Y24676D01*
X8853Y24661D01*
X8873Y24645D01*
X8892Y24626D01*
X8909Y24605D01*
X8923Y24583D01*
X8934Y24559D01*
X8943Y24534D01*
X8949Y24508D01*
X8952Y24482D01*
X8952Y24455D01*
X8952Y20518D02*
X8949Y20492D01*
X8943Y20466D01*
X8934Y20441D01*
X8923Y20417D01*
X8909Y20395D01*
X8892Y20374D01*
X8873Y20355D01*
X8853Y20339D01*
X8830Y20324D01*
X8806Y20313D01*
X8781Y20304D01*
X8755Y20298D01*
X8729Y20295D01*
X8702Y20295D01*
X8676Y20298D01*
X8650Y20304D01*
X8625Y20313D01*
X8601Y20324D01*
X8579Y20339D01*
X8558Y20355D01*
X8539Y20374D01*
X8523Y20395D01*
X8509Y20417D01*
X8497Y20441D01*
X8488Y20466D01*
X8482Y20492D01*
X8480Y20518D01*
X8480Y20545D01*
X8482Y20571D01*
X8488Y20597D01*
X8497Y20622D01*
X8509Y20646D01*
X8523Y20668D01*
X8539Y20689D01*
X8558Y20708D01*
X8579Y20724D01*
X8601Y20739D01*
X8625Y20750D01*
X8650Y20759D01*
X8676Y20765D01*
X8702Y20768D01*
X8729Y20768D01*
X8755Y20765D01*
X8781Y20759D01*
X8806Y20750D01*
X8830Y20739D01*
X8853Y20724D01*
X8873Y20708D01*
X8892Y20689D01*
X8909Y20668D01*
X8923Y20646D01*
X8934Y20622D01*
X8943Y20597D01*
X8949Y20571D01*
X8952Y20545D01*
X8952Y20518D01*
X9936Y20518D02*
X9933Y20492D01*
X9927Y20466D01*
X9919Y20441D01*
X9907Y20417D01*
X9893Y20395D01*
X9876Y20374D01*
X9858Y20355D01*
X9837Y20339D01*
X9814Y20324D01*
X9791Y20313D01*
X9765Y20304D01*
X9740Y20298D01*
X9713Y20295D01*
X9687Y20295D01*
X9660Y20298D01*
X9635Y20304D01*
X9609Y20313D01*
X9586Y20324D01*
X9563Y20339D01*
X9542Y20355D01*
X9524Y20374D01*
X9507Y20395D01*
X9493Y20417D01*
X9481Y20441D01*
X9473Y20466D01*
X9467Y20492D01*
X9464Y20518D01*
X9464Y20545D01*
X9467Y20571D01*
X9473Y20597D01*
X9481Y20622D01*
X9493Y20646D01*
X9507Y20668D01*
X9524Y20689D01*
X9542Y20708D01*
X9563Y20724D01*
X9586Y20739D01*
X9609Y20750D01*
X9635Y20759D01*
X9660Y20765D01*
X9687Y20768D01*
X9713Y20768D01*
X9740Y20765D01*
X9765Y20759D01*
X9791Y20750D01*
X9814Y20739D01*
X9837Y20724D01*
X9858Y20708D01*
X9876Y20689D01*
X9893Y20668D01*
X9907Y20646D01*
X9919Y20622D01*
X9927Y20597D01*
X9933Y20571D01*
X9936Y20545D01*
X9936Y20518D01*
X11905Y22487D02*
X11902Y22460D01*
X11896Y22435D01*
X11887Y22409D01*
X11876Y22386D01*
X11861Y22363D01*
X11845Y22342D01*
X11826Y22324D01*
X11805Y22307D01*
X11783Y22293D01*
X11759Y22281D01*
X11734Y22273D01*
X11708Y22267D01*
X11682Y22264D01*
X11655Y22264D01*
X11629Y22267D01*
X11603Y22273D01*
X11578Y22281D01*
X11554Y22293D01*
X11532Y22307D01*
X11511Y22324D01*
X11492Y22342D01*
X11476Y22363D01*
X11461Y22386D01*
X11450Y22409D01*
X11441Y22435D01*
X11435Y22460D01*
X11432Y22487D01*
X11432Y22513D01*
X11435Y22540D01*
X11441Y22565D01*
X11450Y22591D01*
X11461Y22614D01*
X11476Y22637D01*
X11492Y22658D01*
X11511Y22676D01*
X11532Y22693D01*
X11554Y22707D01*
X11578Y22719D01*
X11603Y22727D01*
X11629Y22733D01*
X11655Y22736D01*
X11682Y22736D01*
X11708Y22733D01*
X11734Y22727D01*
X11759Y22719D01*
X11783Y22707D01*
X11805Y22693D01*
X11826Y22676D01*
X11845Y22658D01*
X11861Y22637D01*
X11876Y22614D01*
X11887Y22591D01*
X11896Y22565D01*
X11902Y22540D01*
X11905Y22513D01*
X11905Y22487D01*
X9936Y36855D02*
X9933Y36829D01*
X9927Y36803D01*
X9919Y36778D01*
X9907Y36754D01*
X9893Y36732D01*
X9876Y36711D01*
X9858Y36692D01*
X9837Y36676D01*
X9814Y36661D01*
X9791Y36650D01*
X9765Y36641D01*
X9740Y36635D01*
X9713Y36632D01*
X9687Y36632D01*
X9660Y36635D01*
X9635Y36641D01*
X9609Y36650D01*
X9586Y36661D01*
X9563Y36676D01*
X9542Y36692D01*
X9524Y36711D01*
X9507Y36732D01*
X9493Y36754D01*
X9481Y36778D01*
X9473Y36803D01*
X9467Y36829D01*
X9464Y36855D01*
X9464Y36882D01*
X9467Y36908D01*
X9473Y36934D01*
X9481Y36959D01*
X9493Y36983D01*
X9507Y37005D01*
X9524Y37026D01*
X9542Y37045D01*
X9563Y37061D01*
X9586Y37076D01*
X9609Y37087D01*
X9635Y37096D01*
X9660Y37102D01*
X9687Y37105D01*
X9713Y37105D01*
X9740Y37102D01*
X9765Y37096D01*
X9791Y37087D01*
X9814Y37076D01*
X9837Y37061D01*
X9858Y37045D01*
X9876Y37026D01*
X9893Y37005D01*
X9907Y36983D01*
X9919Y36959D01*
X9927Y36934D01*
X9933Y36908D01*
X9936Y36882D01*
X9936Y36855D01*
X8952Y36855D02*
X8949Y36829D01*
X8943Y36803D01*
X8934Y36778D01*
X8923Y36754D01*
X8909Y36732D01*
X8892Y36711D01*
X8873Y36692D01*
X8853Y36676D01*
X8830Y36661D01*
X8806Y36650D01*
X8781Y36641D01*
X8755Y36635D01*
X8729Y36632D01*
X8702Y36632D01*
X8676Y36635D01*
X8650Y36641D01*
X8625Y36650D01*
X8601Y36661D01*
X8579Y36676D01*
X8558Y36692D01*
X8539Y36711D01*
X8523Y36732D01*
X8509Y36754D01*
X8497Y36778D01*
X8488Y36803D01*
X8482Y36829D01*
X8480Y36855D01*
X8480Y36882D01*
X8482Y36908D01*
X8488Y36934D01*
X8497Y36959D01*
X8509Y36983D01*
X8523Y37005D01*
X8539Y37026D01*
X8558Y37045D01*
X8579Y37061D01*
X8601Y37076D01*
X8625Y37087D01*
X8650Y37096D01*
X8676Y37102D01*
X8702Y37105D01*
X8729Y37105D01*
X8755Y37102D01*
X8781Y37096D01*
X8806Y37087D01*
X8830Y37076D01*
X8853Y37061D01*
X8873Y37045D01*
X8892Y37026D01*
X8909Y37005D01*
X8923Y36983D01*
X8934Y36959D01*
X8943Y36934D01*
X8949Y36908D01*
X8952Y36882D01*
X8952Y36855D01*
X8952Y32918D02*
X8949Y32892D01*
X8943Y32866D01*
X8934Y32841D01*
X8923Y32817D01*
X8909Y32795D01*
X8892Y32774D01*
X8873Y32755D01*
X8853Y32739D01*
X8830Y32724D01*
X8806Y32713D01*
X8781Y32704D01*
X8755Y32698D01*
X8729Y32695D01*
X8702Y32695D01*
X8676Y32698D01*
X8650Y32704D01*
X8625Y32713D01*
X8601Y32724D01*
X8579Y32739D01*
X8558Y32755D01*
X8539Y32774D01*
X8523Y32795D01*
X8509Y32817D01*
X8497Y32841D01*
X8488Y32866D01*
X8482Y32892D01*
X8480Y32918D01*
X8480Y32945D01*
X8482Y32971D01*
X8488Y32997D01*
X8497Y33022D01*
X8509Y33046D01*
X8523Y33068D01*
X8539Y33089D01*
X8558Y33108D01*
X8579Y33124D01*
X8601Y33139D01*
X8625Y33150D01*
X8650Y33159D01*
X8676Y33165D01*
X8702Y33168D01*
X8729Y33168D01*
X8755Y33165D01*
X8781Y33159D01*
X8806Y33150D01*
X8830Y33139D01*
X8853Y33124D01*
X8873Y33108D01*
X8892Y33089D01*
X8909Y33068D01*
X8923Y33046D01*
X8934Y33022D01*
X8943Y32997D01*
X8949Y32971D01*
X8952Y32945D01*
X8952Y32918D01*
X9936Y32918D02*
X9933Y32892D01*
X9927Y32866D01*
X9919Y32841D01*
X9907Y32817D01*
X9893Y32795D01*
X9876Y32774D01*
X9858Y32755D01*
X9837Y32739D01*
X9814Y32724D01*
X9791Y32713D01*
X9765Y32704D01*
X9740Y32698D01*
X9713Y32695D01*
X9687Y32695D01*
X9660Y32698D01*
X9635Y32704D01*
X9609Y32713D01*
X9586Y32724D01*
X9563Y32739D01*
X9542Y32755D01*
X9524Y32774D01*
X9507Y32795D01*
X9493Y32817D01*
X9481Y32841D01*
X9473Y32866D01*
X9467Y32892D01*
X9464Y32918D01*
X9464Y32945D01*
X9467Y32971D01*
X9473Y32997D01*
X9481Y33022D01*
X9493Y33046D01*
X9507Y33068D01*
X9524Y33089D01*
X9542Y33108D01*
X9563Y33124D01*
X9586Y33139D01*
X9609Y33150D01*
X9635Y33159D01*
X9660Y33165D01*
X9687Y33168D01*
X9713Y33168D01*
X9740Y33165D01*
X9765Y33159D01*
X9791Y33150D01*
X9814Y33139D01*
X9837Y33124D01*
X9858Y33108D01*
X9876Y33089D01*
X9893Y33068D01*
X9907Y33046D01*
X9919Y33022D01*
X9927Y32997D01*
X9933Y32971D01*
X9936Y32945D01*
X9936Y32918D01*
X11905Y34887D02*
X11902Y34860D01*
X11896Y34835D01*
X11887Y34809D01*
X11876Y34786D01*
X11861Y34763D01*
X11845Y34742D01*
X11826Y34724D01*
X11805Y34707D01*
X11783Y34693D01*
X11759Y34681D01*
X11734Y34673D01*
X11708Y34667D01*
X11682Y34664D01*
X11655Y34664D01*
X11629Y34667D01*
X11603Y34673D01*
X11578Y34681D01*
X11554Y34693D01*
X11532Y34707D01*
X11511Y34724D01*
X11492Y34742D01*
X11476Y34763D01*
X11461Y34786D01*
X11450Y34809D01*
X11441Y34835D01*
X11435Y34860D01*
X11432Y34887D01*
X11432Y34913D01*
X11435Y34940D01*
X11441Y34965D01*
X11450Y34991D01*
X11461Y35014D01*
X11476Y35037D01*
X11492Y35058D01*
X11511Y35076D01*
X11532Y35093D01*
X11554Y35107D01*
X11578Y35119D01*
X11603Y35127D01*
X11629Y35133D01*
X11655Y35136D01*
X11682Y35136D01*
X11708Y35133D01*
X11734Y35127D01*
X11759Y35119D01*
X11783Y35107D01*
X11805Y35093D01*
X11826Y35076D01*
X11845Y35058D01*
X11861Y35037D01*
X11876Y35014D01*
X11887Y34991D01*
X11896Y34965D01*
X11902Y34940D01*
X11905Y34913D01*
X11905Y34887D01*
M02*
