G04 EAGLE Gerber RS-274X export*
G75*
%MOMM*%
%FSLAX34Y34*%
%LPD*%
%INBottom Copper*%
%IPPOS*%
%AMOC8*
5,1,8,0,0,1.08239X$1,22.5*%
G01*
%ADD10C,1.056400*%
%ADD11C,0.406400*%
%ADD12C,1.270000*%
%ADD13C,1.524000*%


D10*
X357270Y311200D03*
D11*
X5897010Y311200D02*
X5909710Y323900D01*
X5897010Y311200D02*
X5824620Y311200D01*
D12*
X5811950Y323871D01*
X363635Y311185D01*
X363620Y311200D01*
X357270Y311200D01*
X5909710Y323900D02*
X5909710Y342950D01*
D13*
X5909710Y342950D03*
X5909710Y368350D03*
D10*
X357470Y514400D03*
D11*
X5897210Y514400D02*
X5909910Y527100D01*
X5897210Y514400D02*
X5824820Y514400D01*
D12*
X5812150Y527071D01*
X363835Y514385D01*
X363820Y514400D01*
X357470Y514400D01*
X5909910Y527100D02*
X5909910Y546150D01*
D13*
X5909910Y546150D03*
X5909910Y571550D03*
D10*
X357370Y717500D03*
D11*
X5897110Y717500D02*
X5909810Y730200D01*
X5897110Y717500D02*
X5824720Y717500D01*
D12*
X5812050Y730171D01*
X363735Y717485D01*
X363720Y717500D01*
X357370Y717500D01*
X5909810Y730200D02*
X5909810Y749250D01*
D13*
X5909810Y749250D03*
X5909810Y774650D03*
D10*
X357770Y921200D03*
D11*
X5897510Y921200D02*
X5910210Y933900D01*
X5897510Y921200D02*
X5825120Y921200D01*
D12*
X5812450Y933871D01*
X364135Y921185D01*
X364120Y921200D01*
X357770Y921200D01*
X5910210Y933900D02*
X5910210Y952950D01*
D13*
X5910210Y952950D03*
X5910210Y978350D03*
M02*
