G04 EAGLE Gerber RS-274X export*
G75*
%MOMM*%
%FSLAX34Y34*%
%LPD*%
%INTop Copper*%
%IPPOS*%
%AMOC8*
5,1,8,0,0,1.08239X$1,22.5*%
G01*
%ADD10C,1.270000*%
%ADD11C,1.056400*%
%ADD12C,1.524000*%
%ADD13C,0.406400*%


D10*
X357270Y311200D02*
X369970Y311200D01*
D11*
X357270Y311200D03*
D12*
X5909710Y342950D03*
D10*
X371240Y311200D02*
X371240Y401370D01*
X376320Y401370D01*
X376320Y309930D01*
X369970Y309930D01*
X5822080Y400100D02*
X5829700Y400100D01*
X5829700Y311200D01*
X5822080Y311200D02*
X5822080Y398830D01*
X5909710Y384860D02*
X5909710Y368350D01*
D13*
X5909710Y384860D02*
X5895855Y400100D01*
X5830970Y400100D01*
D12*
X5909710Y368350D03*
D10*
X5829700Y311200D02*
X5822080Y311200D01*
X370170Y514400D02*
X357470Y514400D01*
D11*
X357470Y514400D03*
D12*
X5909910Y546150D03*
D10*
X371440Y514400D02*
X371440Y604570D01*
X376520Y604570D01*
X376520Y513130D01*
X370170Y513130D01*
X5822280Y603300D02*
X5829900Y603300D01*
X5829900Y514400D01*
X5822280Y514400D02*
X5822280Y602030D01*
X5909910Y588060D02*
X5909910Y571550D01*
D13*
X5909910Y588060D02*
X5896055Y603300D01*
X5831170Y603300D01*
D12*
X5909910Y571550D03*
D10*
X5829900Y514400D02*
X5822280Y514400D01*
X370070Y717500D02*
X357370Y717500D01*
D11*
X357370Y717500D03*
D12*
X5909810Y749250D03*
D10*
X371340Y717500D02*
X371340Y807670D01*
X376420Y807670D01*
X376420Y716230D01*
X370070Y716230D01*
X5822180Y806400D02*
X5829800Y806400D01*
X5829800Y717500D01*
X5822180Y717500D02*
X5822180Y805130D01*
X5909810Y791160D02*
X5909810Y774650D01*
D13*
X5909810Y791160D02*
X5895955Y806400D01*
X5831070Y806400D01*
D12*
X5909810Y774650D03*
D10*
X5829800Y717500D02*
X5822180Y717500D01*
X370470Y921200D02*
X357770Y921200D01*
D11*
X357770Y921200D03*
D12*
X5910210Y952950D03*
D10*
X371740Y921200D02*
X371740Y1011370D01*
X376820Y1011370D01*
X376820Y919930D01*
X370470Y919930D01*
X5822580Y1010100D02*
X5830200Y1010100D01*
X5830200Y921200D01*
X5822580Y921200D02*
X5822580Y1008830D01*
X5910210Y994860D02*
X5910210Y978350D01*
D13*
X5910210Y994860D02*
X5896355Y1010100D01*
X5831470Y1010100D01*
D12*
X5910210Y978350D03*
D10*
X5830200Y921200D02*
X5822580Y921200D01*
M02*
