G04 EAGLE Gerber RS-274X export*
G75*
%MOMM*%
%FSLAX34Y34*%
%LPD*%
%INSilkscreen Top*%
%IPPOS*%
%AMOC8*
5,1,8,0,0,1.08239X$1,22.5*%
G01*
%ADD10C,0.812800*%
%ADD11R,3.556000X82.550000*%


D10*
X4952994Y1071562D02*
X4952994Y246380D01*
X3786694Y246380D02*
X3786694Y1071562D01*
X5382098Y1071562D02*
X5382098Y246380D01*
X5305896Y246380D02*
X5305896Y1071562D01*
X5521913Y1071562D02*
X5521913Y246380D01*
X5454025Y246380D02*
X5454025Y1071562D01*
X5225160Y1071562D02*
X5225160Y246380D01*
X5139625Y246380D02*
X5139625Y1071562D01*
X5049002Y1071562D02*
X5049002Y246380D01*
X3948166Y246380D02*
X3948166Y1071562D01*
X3615625Y1071562D02*
X3615625Y246380D01*
X3434382Y246380D02*
X3434382Y1071562D01*
X3242359Y1071562D02*
X3242359Y246380D01*
X3038923Y246380D02*
X3038923Y1071562D01*
X2823384Y1071562D02*
X2823384Y246380D01*
X2595032Y246380D02*
X2595032Y1071562D01*
X2353100Y1071562D02*
X2353100Y246380D01*
X1232708Y246380D02*
X1232708Y1071562D01*
X909768Y1071562D02*
X909768Y246380D01*
X4851274Y246380D02*
X4851274Y1071562D01*
X1537519Y1071562D02*
X1537519Y246380D01*
X4508363Y246380D02*
X4508363Y1071562D01*
X4380205Y1071562D02*
X4380205Y246380D01*
X4244427Y246380D02*
X4244427Y1071562D01*
X4100574Y1071562D02*
X4100574Y246380D01*
X2096786Y246380D02*
X2096786Y1071562D01*
X1825226Y1071562D02*
X1825226Y246380D01*
X567626Y248920D02*
X567626Y1069340D01*
X5584126Y1069340D02*
X5584126Y248920D01*
X5584126Y1069340D02*
X567626Y1069340D01*
X4743504Y1071562D02*
X4743504Y246380D01*
X4629331Y246380D02*
X4629331Y1071562D01*
X5584126Y248920D02*
X567626Y248920D01*
D11*
X551180Y659130D03*
M02*
