%TF.GenerationSoftware,KiCad,Pcbnew,9.0.4*%
%TF.CreationDate,2025-12-26T17:22:34-05:00*%
%TF.ProjectId,new_fretboard_rev1,6e65775f-6672-4657-9462-6f6172645f72,rev?*%
%TF.SameCoordinates,Original*%
%TF.FileFunction,Copper,L2,Bot*%
%TF.FilePolarity,Positive*%
%FSLAX46Y46*%
G04 Gerber Fmt 4.6, Leading zero omitted, Abs format (unit mm)*
G04 Created by KiCad (PCBNEW 9.0.4) date 2025-12-26 17:22:34*
%MOMM*%
%LPD*%
G01*
G04 APERTURE LIST*
G04 Aperture macros list*
%AMOutline5P*
0 Free polygon, 5 corners , with rotation*
0 The origin of the aperture is its center*
0 number of corners: always 5*
0 $1 to $10 corner X, Y*
0 $11 Rotation angle, in degrees counterclockwise*
0 create outline with 5 corners*
4,1,5,$1,$2,$3,$4,$5,$6,$7,$8,$9,$10,$1,$2,$11*%
%AMOutline6P*
0 Free polygon, 6 corners , with rotation*
0 The origin of the aperture is its center*
0 number of corners: always 6*
0 $1 to $12 corner X, Y*
0 $13 Rotation angle, in degrees counterclockwise*
0 create outline with 6 corners*
4,1,6,$1,$2,$3,$4,$5,$6,$7,$8,$9,$10,$11,$12,$1,$2,$13*%
%AMOutline7P*
0 Free polygon, 7 corners , with rotation*
0 The origin of the aperture is its center*
0 number of corners: always 7*
0 $1 to $14 corner X, Y*
0 $15 Rotation angle, in degrees counterclockwise*
0 create outline with 7 corners*
4,1,7,$1,$2,$3,$4,$5,$6,$7,$8,$9,$10,$11,$12,$13,$14,$1,$2,$15*%
%AMOutline8P*
0 Free polygon, 8 corners , with rotation*
0 The origin of the aperture is its center*
0 number of corners: always 8*
0 $1 to $16 corner X, Y*
0 $17 Rotation angle, in degrees counterclockwise*
0 create outline with 8 corners*
4,1,8,$1,$2,$3,$4,$5,$6,$7,$8,$9,$10,$11,$12,$13,$14,$15,$16,$1,$2,$17*%
G04 Aperture macros list end*
%TA.AperFunction,EtchedComponent*%
%ADD10C,0.203200*%
%TD*%
%TA.AperFunction,SMDPad,CuDef*%
%ADD11C,0.203200*%
%TD*%
%TA.AperFunction,ComponentPad*%
%ADD12C,1.700000*%
%TD*%
%TA.AperFunction,ComponentPad*%
%ADD13Outline8P,-0.850000X0.425000X-0.425000X0.850000X0.425000X0.850000X0.850000X0.425000X0.850000X-0.425000X0.425000X-0.850000X-0.425000X-0.850000X-0.850000X-0.425000X270.000000*%
%TD*%
%TA.AperFunction,ViaPad*%
%ADD14C,0.600000*%
%TD*%
%TA.AperFunction,ViaPad*%
%ADD15C,0.406400*%
%TD*%
%TA.AperFunction,Conductor*%
%ADD16C,0.203200*%
%TD*%
%TA.AperFunction,Conductor*%
%ADD17C,0.152400*%
%TD*%
%TA.AperFunction,Conductor*%
%ADD18C,0.304800*%
%TD*%
G04 APERTURE END LIST*
D10*
%TO.C,J4*%
X599963736Y-106904523D02*
X599963736Y-107412523D01*
%TO.C,J5*%
X602227136Y-104691933D02*
X601719136Y-104691923D01*
%TO.C,J6*%
X602255146Y-103740123D02*
X601747146Y-103740123D01*
%TD*%
D11*
%TO.P,J4,1*%
%TO.N,OSC2B*%
X599963736Y-106904523D03*
%TO.P,J4,2*%
%TO.N,OSC12*%
X599963736Y-107412523D03*
%TD*%
D12*
%TO.P,CN1,6*%
%TO.N,NetCN1_6*%
X622830800Y-111365450D03*
%TO.P,CN1,5*%
%TO.N,NetCN1_5*%
X622830800Y-108825450D03*
%TO.P,CN1,4*%
%TO.N,NetC6_2*%
X622830800Y-106285450D03*
%TO.P,CN1,3*%
%TO.N,NetCN1_3*%
X622830800Y-103745450D03*
%TO.P,CN1,2*%
%TO.N,VIN*%
X622830800Y-101205450D03*
D13*
%TO.P,CN1,1*%
%TO.N,GND1*%
X622830800Y-98665450D03*
%TD*%
D11*
%TO.P,J5,1*%
%TO.N,CL1B*%
X601719136Y-104691923D03*
%TO.P,J5,2*%
%TO.N,GND1*%
X602227136Y-104691933D03*
%TD*%
%TO.P,J6,1*%
%TO.N,CL2B*%
X601747146Y-103740123D03*
%TO.P,J6,2*%
%TO.N,GND1*%
X602255146Y-103740123D03*
%TD*%
D14*
%TO.N,OSC12*%
X603000000Y-103000000D03*
%TO.N,OSC2B*%
X602346136Y-105963120D03*
%TO.N,CL1B*%
X602785338Y-105251871D03*
%TO.N,CL2B*%
X605000000Y-104000000D03*
D15*
%TO.N,NetCN1_5*%
X617236450Y-104018500D03*
%TO.N,SUB*%
X616715750Y-107104600D03*
X612938110Y-108705520D03*
%TO.N,NetCN1_6*%
X614889560Y-102790350D03*
%TO.N,NetCN1_3*%
X613581760Y-100887950D03*
%TO.N,CL1B*%
X29580305Y-105349620D03*
X450866320Y-103076580D03*
X566322136Y-104482970D03*
X29596769Y-104363340D03*
X452211712Y-103080390D03*
X164172065Y-106641970D03*
X583706104Y-105429890D03*
X165517457Y-106645780D03*
X164172065Y-103080390D03*
X452211712Y-106641970D03*
X165517457Y-103076580D03*
X450866320Y-106645780D03*
%TO.N,CL2B*%
X28960337Y-103107060D03*
X307424393Y-103086230D03*
X594740968Y-102773160D03*
X308769785Y-103090040D03*
X594734632Y-106509630D03*
X594734632Y-104201430D03*
X28960337Y-106615300D03*
X307424393Y-106636130D03*
X593696080Y-106062200D03*
X308769785Y-106632320D03*
%TO.N,OSC2B*%
X599306136Y-105860323D03*
%TO.N,OSC11*%
X605868170Y-102947640D03*
%TO.N,OSC12*%
X601007936Y-102482123D03*
X601160336Y-105911123D03*
X613581760Y-106818850D03*
%TO.N,GND1*%
X613125060Y-97712940D03*
X610505450Y-111981400D03*
X611584950Y-97706600D03*
X611598100Y-106837900D03*
X614624530Y-97712940D03*
X614224530Y-100918220D03*
X614988550Y-111943300D03*
X611998100Y-111955990D03*
X619681200Y-107136350D03*
X619681200Y-98233650D03*
X617623450Y-97712940D03*
X613499160Y-111949640D03*
%TO.N,VDD1*%
X612288300Y-100995900D03*
X615960100Y-104888450D03*
%TO.N,VIN1*%
X609692650Y-101973800D03*
X612938110Y-100614790D03*
%TD*%
D16*
%TO.N,OSC12*%
X613581760Y-106818850D02*
X613581760Y-105871280D01*
X613581760Y-105871280D02*
X611122220Y-103411750D01*
X605529900Y-103411750D02*
X605118150Y-103000000D01*
X611122220Y-103411750D02*
X605529900Y-103411750D01*
X605118150Y-103000000D02*
X603000000Y-103000000D01*
D17*
%TO.N,GND1*%
X605531880Y-105025610D02*
X605151073Y-104644803D01*
X605151073Y-104644803D02*
X602651956Y-104644803D01*
%TO.N,CL2B*%
X602956789Y-104000000D02*
X605000000Y-104000000D01*
X602793436Y-104163353D02*
X602956789Y-104000000D01*
%TO.N,CL1B*%
X598911906Y-104706503D02*
X598903363Y-104697960D01*
X598903363Y-104697960D02*
X596940136Y-104697960D01*
X583680208Y-105295250D02*
X583688872Y-105295050D01*
X584313832Y-105281200D02*
X584940064Y-105267300D01*
X594755272Y-105048480D02*
X595239280Y-105037660D01*
X583706104Y-105429890D02*
X583680208Y-105295250D01*
X589089376Y-105175020D02*
X589645744Y-105162620D01*
X584940064Y-105267300D02*
X585558544Y-105253570D01*
X586771024Y-105226630D02*
X587948728Y-105200430D01*
X583688872Y-105295050D02*
X584313832Y-105281200D01*
X598991457Y-104989660D02*
X599000000Y-104998203D01*
X586168984Y-105240010D02*
X586771024Y-105226630D01*
X599000000Y-104998203D02*
X598927046Y-104998203D01*
X590192992Y-105150410D02*
X590731216Y-105138410D01*
X585558544Y-105253570D02*
X586168984Y-105240010D01*
X587948728Y-105200430D02*
X589089376Y-105175020D01*
X593783752Y-105070210D02*
X594270664Y-105059320D01*
X595239280Y-105037660D02*
X596211832Y-105015900D01*
X589645744Y-105162620D02*
X590192992Y-105150410D01*
X590731216Y-105138410D02*
X591260560Y-105126590D01*
X591260560Y-105126590D02*
X591781120Y-105114970D01*
X591781120Y-105114970D02*
X592293040Y-105103530D01*
X592293040Y-105103530D02*
X593292928Y-105081190D01*
X593292928Y-105081190D02*
X593783752Y-105070210D01*
X594270664Y-105059320D02*
X594755272Y-105048480D01*
X596211832Y-105015900D02*
X596976472Y-104989660D01*
X596976472Y-104989660D02*
X598991457Y-104989660D01*
D18*
%TO.N,SUB*%
X616715750Y-107104600D02*
X615114830Y-108705520D01*
X615114830Y-108705520D02*
X612938110Y-108705520D01*
D17*
%TO.N,CL2B*%
X602462512Y-103777460D02*
X594735592Y-103777460D01*
X601546546Y-104119663D02*
X601212896Y-103786003D01*
X602749746Y-104119663D02*
X601546546Y-104119663D01*
X602793436Y-104163353D02*
X602749746Y-104119663D01*
X601747146Y-103740123D02*
X601463236Y-103456213D01*
X594740968Y-103447020D02*
X601454043Y-103447020D01*
X601454043Y-103447020D02*
X601479294Y-103472271D01*
X594734632Y-103778110D02*
X594734632Y-104201430D01*
X594740968Y-102773160D02*
X594740968Y-103447020D01*
X594734632Y-106509630D02*
X594734632Y-107066810D01*
X594734632Y-107066810D02*
X594227440Y-107066530D01*
X594227440Y-107066530D02*
X593694760Y-107066170D01*
X593694760Y-107066170D02*
X593136376Y-107065720D01*
X593136376Y-107065720D02*
X592553536Y-107065190D01*
X592553536Y-107065190D02*
X591947488Y-107064580D01*
X591947488Y-107064580D02*
X591320920Y-107063900D01*
X591320920Y-107063900D02*
X590679832Y-107063130D01*
X590679832Y-107063130D02*
X590030656Y-107062280D01*
X590030656Y-107062280D02*
X589379848Y-107061340D01*
X589379848Y-107061340D02*
X588732808Y-107060330D01*
X588732808Y-107060330D02*
X588093088Y-107059240D01*
X588093088Y-107059240D02*
X587464096Y-107058060D01*
X587464096Y-107058060D02*
X586849120Y-107056810D01*
X586849120Y-107056810D02*
X586249360Y-107055470D01*
X586249360Y-107055470D02*
X585662968Y-107054060D01*
X585662968Y-107054060D02*
X583963840Y-107049320D01*
X583963840Y-107049320D02*
X583410664Y-107047580D01*
X583410664Y-107047580D02*
X582860704Y-107045770D01*
X582860704Y-107045770D02*
X582311968Y-107043870D01*
X582311968Y-107043870D02*
X581762992Y-107041890D01*
X581762992Y-107041890D02*
X581212768Y-107039830D01*
X581212768Y-107039830D02*
X580660312Y-107037690D01*
X580660312Y-107037690D02*
X580104640Y-107035470D01*
X580104640Y-107035470D02*
X579544768Y-107033170D01*
X579544768Y-107033170D02*
X578979736Y-107030790D01*
X578979736Y-107030790D02*
X578408512Y-107028330D01*
X578408512Y-107028330D02*
X577830328Y-107025800D01*
X577830328Y-107025800D02*
X577245832Y-107023180D01*
X577245832Y-107023180D02*
X576656440Y-107020480D01*
X576656440Y-107020480D02*
X576063568Y-107017710D01*
X576063568Y-107017710D02*
X575468680Y-107014850D01*
X575468680Y-107014850D02*
X574873168Y-107011920D01*
X574873168Y-107011920D02*
X574278496Y-107008900D01*
X574278496Y-107008900D02*
X573686032Y-107005810D01*
X573686032Y-107005810D02*
X573097048Y-107002640D01*
X573097048Y-107002640D02*
X571350808Y-106992660D01*
X571350808Y-106992660D02*
X569063608Y-106978260D01*
X569063608Y-106978260D02*
X568497688Y-106974460D01*
X568497688Y-106974460D02*
X567933016Y-106970590D01*
X567933016Y-106970590D02*
X567368728Y-106966640D01*
X567368728Y-106966640D02*
X566803888Y-106962610D01*
X566803888Y-106962610D02*
X566237656Y-106958510D01*
X566237656Y-106958510D02*
X565669120Y-106954330D01*
X565669120Y-106954330D02*
X565097368Y-106950070D01*
X565097368Y-106950070D02*
X564521560Y-106945740D01*
X564521560Y-106945740D02*
X563941504Y-106941330D01*
X563941504Y-106941330D02*
X563358160Y-106936840D01*
X563358160Y-106936840D02*
X562772656Y-106932280D01*
X562772656Y-106932280D02*
X562186024Y-106927650D01*
X562186024Y-106927650D02*
X561599368Y-106922930D01*
X561599368Y-106922930D02*
X561013792Y-106918140D01*
X561013792Y-106918140D02*
X560430352Y-106913280D01*
X560430352Y-106913280D02*
X559850104Y-106908340D01*
X559850104Y-106908340D02*
X559273240Y-106903330D01*
X559273240Y-106903330D02*
X558699040Y-106898240D01*
X558699040Y-106898240D02*
X558126832Y-106893080D01*
X558126832Y-106893080D02*
X557555872Y-106887840D01*
X557555872Y-106887840D02*
X556985440Y-106882530D01*
X556985440Y-106882530D02*
X556414840Y-106877150D01*
X556414840Y-106877150D02*
X555843328Y-106871690D01*
X555843328Y-106871690D02*
X555270232Y-106866160D01*
X555270232Y-106866160D02*
X554695504Y-106860560D01*
X554695504Y-106860560D02*
X554119408Y-106854880D01*
X554119408Y-106854880D02*
X553542256Y-106849130D01*
X553542256Y-106849130D02*
X552964336Y-106843310D01*
X552964336Y-106843310D02*
X552385960Y-106837420D01*
X552385960Y-106837420D02*
X551807392Y-106831450D01*
X551807392Y-106831450D02*
X551228944Y-106825420D01*
X551228944Y-106825420D02*
X549495976Y-106806880D01*
X549495976Y-106806880D02*
X548342464Y-106794160D01*
X548342464Y-106794160D02*
X547190080Y-106781170D01*
X547190080Y-106781170D02*
X546038536Y-106767890D01*
X546038536Y-106767890D02*
X544887544Y-106754340D01*
X544887544Y-106754340D02*
X543736840Y-106740520D01*
X543736840Y-106740520D02*
X543161512Y-106733510D01*
X543161512Y-106733510D02*
X542586136Y-106726420D01*
X542586136Y-106726420D02*
X541435192Y-106712060D01*
X541435192Y-106712060D02*
X539708080Y-106690000D01*
X539708080Y-106690000D02*
X537980272Y-106667360D01*
X537980272Y-106667360D02*
X536251840Y-106644130D01*
X536251840Y-106644130D02*
X534522952Y-106620320D01*
X534522952Y-106620320D02*
X532793656Y-106595940D01*
X532793656Y-106595940D02*
X531064096Y-106571000D01*
X531064096Y-106571000D02*
X529334344Y-106545510D01*
X529334344Y-106545510D02*
X527604544Y-106519470D01*
X527604544Y-106519470D02*
X525874768Y-106492900D01*
X525874768Y-106492900D02*
X524145160Y-106465810D01*
X524145160Y-106465810D02*
X522992200Y-106447450D01*
X522992200Y-106447450D02*
X521839360Y-106428870D01*
X521839360Y-106428870D02*
X520686616Y-106410070D01*
X520686616Y-106410070D02*
X519533992Y-106391040D01*
X519533992Y-106391040D02*
X518381440Y-106371800D01*
X518381440Y-106371800D02*
X517228984Y-106352340D01*
X517228984Y-106352340D02*
X516076648Y-106332680D01*
X516076648Y-106332680D02*
X514924360Y-106312810D01*
X514924360Y-106312810D02*
X513772192Y-106292730D01*
X513772192Y-106292730D02*
X512620072Y-106272450D01*
X512620072Y-106272450D02*
X511468048Y-106251980D01*
X511468048Y-106251980D02*
X510316096Y-106231310D01*
X510316096Y-106231310D02*
X509164192Y-106210450D01*
X509164192Y-106210450D02*
X508012384Y-106189410D01*
X508012384Y-106189410D02*
X506860600Y-106168180D01*
X506860600Y-106168180D02*
X505708912Y-106146770D01*
X505708912Y-106146770D02*
X504557248Y-106125180D01*
X504557248Y-106125180D02*
X503405632Y-106103430D01*
X503405632Y-106103430D02*
X502254088Y-106081500D01*
X502254088Y-106081500D02*
X501678328Y-106070470D01*
X501678328Y-106070470D02*
X501102568Y-106059400D01*
X501102568Y-106059400D02*
X500526832Y-106048290D01*
X500526832Y-106048290D02*
X499951096Y-106037140D01*
X499951096Y-106037140D02*
X499375360Y-106025950D01*
X499375360Y-106025950D02*
X498799648Y-106014720D01*
X498799648Y-106014720D02*
X498223936Y-106003450D01*
X498223936Y-106003450D02*
X497648224Y-105992150D01*
X497648224Y-105992150D02*
X497072536Y-105980800D01*
X497072536Y-105980800D02*
X496496848Y-105969420D01*
X496496848Y-105969420D02*
X495921160Y-105958000D01*
X495921160Y-105958000D02*
X495345496Y-105946540D01*
X495345496Y-105946540D02*
X494769808Y-105935040D01*
X494769808Y-105935040D02*
X494194144Y-105923510D01*
X494194144Y-105923510D02*
X493618504Y-105911950D01*
X493618504Y-105911950D02*
X493042840Y-105900340D01*
X493042840Y-105900340D02*
X492467176Y-105888710D01*
X492467176Y-105888710D02*
X491891536Y-105877040D01*
X491891536Y-105877040D02*
X491315872Y-105865330D01*
X491315872Y-105865330D02*
X490740232Y-105853590D01*
X490740232Y-105853590D02*
X490164568Y-105841820D01*
X490164568Y-105841820D02*
X489588928Y-105830010D01*
X489588928Y-105830010D02*
X489013288Y-105818170D01*
X489013288Y-105818170D02*
X488437648Y-105806300D01*
X488437648Y-105806300D02*
X487862008Y-105794400D01*
X487862008Y-105794400D02*
X487286344Y-105782470D01*
X487286344Y-105782470D02*
X486710704Y-105770500D01*
X486710704Y-105770500D02*
X486135064Y-105758510D01*
X486135064Y-105758510D02*
X485559400Y-105746480D01*
X485559400Y-105746480D02*
X484983760Y-105734430D01*
X484983760Y-105734430D02*
X484408096Y-105722350D01*
X484408096Y-105722350D02*
X483832456Y-105710240D01*
X483832456Y-105710240D02*
X483256816Y-105698110D01*
X483256816Y-105698110D02*
X482681152Y-105685940D01*
X482681152Y-105685940D02*
X482105512Y-105673750D01*
X482105512Y-105673750D02*
X481529848Y-105661530D01*
X481529848Y-105661530D02*
X480954208Y-105649290D01*
X480954208Y-105649290D02*
X480378544Y-105637020D01*
X480378544Y-105637020D02*
X479802904Y-105624730D01*
X479802904Y-105624730D02*
X479227240Y-105612420D01*
X479227240Y-105612420D02*
X478651600Y-105600080D01*
X478651600Y-105600080D02*
X478075936Y-105587710D01*
X478075936Y-105587710D02*
X477500296Y-105575330D01*
X477500296Y-105575330D02*
X476924632Y-105562920D01*
X476924632Y-105562920D02*
X476348992Y-105550500D01*
X476348992Y-105550500D02*
X475773328Y-105538050D01*
X475773328Y-105538050D02*
X475197688Y-105525580D01*
X475197688Y-105525580D02*
X474622024Y-105513090D01*
X474622024Y-105513090D02*
X474046384Y-105500580D01*
X474046384Y-105500580D02*
X473470720Y-105488050D01*
X473470720Y-105488050D02*
X472895080Y-105475500D01*
X472895080Y-105475500D02*
X472319416Y-105462940D01*
X472319416Y-105462940D02*
X471743776Y-105450360D01*
X471743776Y-105450360D02*
X471168112Y-105437760D01*
X471168112Y-105437760D02*
X470592472Y-105425140D01*
X470592472Y-105425140D02*
X470016808Y-105412520D01*
X470016808Y-105412520D02*
X469441168Y-105399870D01*
X469441168Y-105399870D02*
X468865528Y-105387210D01*
X468865528Y-105387210D02*
X468289864Y-105374530D01*
X468289864Y-105374530D02*
X467714224Y-105361840D01*
X467714224Y-105361840D02*
X467138560Y-105349140D01*
X467138560Y-105349140D02*
X466562920Y-105336430D01*
X466562920Y-105336430D02*
X465987280Y-105323700D01*
X465987280Y-105323700D02*
X465411640Y-105310960D01*
X465411640Y-105310960D02*
X464835976Y-105298210D01*
X464835976Y-105298210D02*
X464260336Y-105285450D01*
X464260336Y-105285450D02*
X463684696Y-105272680D01*
X463684696Y-105272680D02*
X463109056Y-105259900D01*
X463109056Y-105259900D02*
X462533416Y-105247110D01*
X462533416Y-105247110D02*
X461957776Y-105234310D01*
X461957776Y-105234310D02*
X461382136Y-105221500D01*
X461382136Y-105221500D02*
X460806496Y-105208690D01*
X460806496Y-105208690D02*
X460230856Y-105195870D01*
X460230856Y-105195870D02*
X459655216Y-105183040D01*
X459655216Y-105183040D02*
X459079576Y-105170200D01*
X459079576Y-105170200D02*
X458503936Y-105157360D01*
X458503936Y-105157360D02*
X457928296Y-105144520D01*
X457928296Y-105144520D02*
X457352656Y-105131670D01*
X457352656Y-105131670D02*
X456777016Y-105118820D01*
X456777016Y-105118820D02*
X456201400Y-105105960D01*
X456201400Y-105105960D02*
X455625760Y-105093100D01*
X455625760Y-105093100D02*
X455050120Y-105080230D01*
X455050120Y-105080230D02*
X454474504Y-105067370D01*
X454474504Y-105067370D02*
X453898864Y-105054500D01*
X453898864Y-105054500D02*
X453323248Y-105041630D01*
X453323248Y-105041630D02*
X452747632Y-105028760D01*
X452747632Y-105028760D02*
X452171992Y-105015900D01*
X452171992Y-105015900D02*
X451596376Y-105003030D01*
X451596376Y-105003030D02*
X451020760Y-104990160D01*
X451020760Y-104990160D02*
X450445144Y-104977300D01*
X450445144Y-104977300D02*
X449869504Y-104964430D01*
X449869504Y-104964430D02*
X449293888Y-104951570D01*
X449293888Y-104951570D02*
X448718272Y-104938710D01*
X448718272Y-104938710D02*
X448142656Y-104925860D01*
X448142656Y-104925860D02*
X447567040Y-104913010D01*
X447567040Y-104913010D02*
X446991424Y-104900160D01*
X446991424Y-104900160D02*
X446415808Y-104887320D01*
X446415808Y-104887320D02*
X445840216Y-104874480D01*
X445840216Y-104874480D02*
X445264600Y-104861650D01*
X445264600Y-104861650D02*
X444688984Y-104848830D01*
X444688984Y-104848830D02*
X444113368Y-104836010D01*
X444113368Y-104836010D02*
X443537752Y-104823200D01*
X443537752Y-104823200D02*
X442962160Y-104810400D01*
X442962160Y-104810400D02*
X442386544Y-104797600D01*
X442386544Y-104797600D02*
X441810928Y-104784820D01*
X441810928Y-104784820D02*
X441235336Y-104772040D01*
X441235336Y-104772040D02*
X440659720Y-104759270D01*
X440659720Y-104759270D02*
X440084104Y-104746510D01*
X440084104Y-104746510D02*
X439508512Y-104733760D01*
X439508512Y-104733760D02*
X438932896Y-104721030D01*
X438932896Y-104721030D02*
X438357280Y-104708300D01*
X438357280Y-104708300D02*
X437781688Y-104695590D01*
X437781688Y-104695590D02*
X437206072Y-104682890D01*
X437206072Y-104682890D02*
X436630480Y-104670200D01*
X436630480Y-104670200D02*
X436054864Y-104657530D01*
X436054864Y-104657530D02*
X435479248Y-104644870D01*
X435479248Y-104644870D02*
X434903632Y-104632220D01*
X434903632Y-104632220D02*
X434328040Y-104619590D01*
X434328040Y-104619590D02*
X433752424Y-104606970D01*
X433752424Y-104606970D02*
X433176808Y-104594370D01*
X433176808Y-104594370D02*
X432601192Y-104581790D01*
X432601192Y-104581790D02*
X432025600Y-104569220D01*
X432025600Y-104569220D02*
X431449984Y-104556670D01*
X431449984Y-104556670D02*
X430874368Y-104544140D01*
X430874368Y-104544140D02*
X430298752Y-104531620D01*
X430298752Y-104531620D02*
X429723136Y-104519130D01*
X429723136Y-104519130D02*
X429147520Y-104506650D01*
X429147520Y-104506650D02*
X428571904Y-104494190D01*
X428571904Y-104494190D02*
X427996288Y-104481760D01*
X427996288Y-104481760D02*
X427420672Y-104469340D01*
X427420672Y-104469340D02*
X426845056Y-104456940D01*
X426845056Y-104456940D02*
X426269440Y-104444570D01*
X426269440Y-104444570D02*
X425693824Y-104432220D01*
X425693824Y-104432220D02*
X425118184Y-104419880D01*
X425118184Y-104419880D02*
X424542568Y-104407580D01*
X424542568Y-104407580D02*
X423966928Y-104395290D01*
X423966928Y-104395290D02*
X423391312Y-104383030D01*
X423391312Y-104383030D02*
X422815672Y-104370800D01*
X422815672Y-104370800D02*
X422240056Y-104358590D01*
X422240056Y-104358590D02*
X421664416Y-104346400D01*
X421664416Y-104346400D02*
X421088776Y-104334240D01*
X421088776Y-104334240D02*
X420513136Y-104322110D01*
X420513136Y-104322110D02*
X419937520Y-104310000D01*
X419937520Y-104310000D02*
X419361880Y-104297920D01*
X419361880Y-104297920D02*
X418786216Y-104285870D01*
X418786216Y-104285870D02*
X418210576Y-104273840D01*
X418210576Y-104273840D02*
X417634936Y-104261840D01*
X417634936Y-104261840D02*
X417059296Y-104249880D01*
X417059296Y-104249880D02*
X416483632Y-104237940D01*
X416483632Y-104237940D02*
X415907992Y-104226030D01*
X415907992Y-104226030D02*
X415332328Y-104214160D01*
X415332328Y-104214160D02*
X414756688Y-104202310D01*
X414756688Y-104202310D02*
X414181024Y-104190500D01*
X414181024Y-104190500D02*
X413605360Y-104178710D01*
X413605360Y-104178710D02*
X413029696Y-104166960D01*
X413029696Y-104166960D02*
X412454032Y-104155250D01*
X412454032Y-104155250D02*
X411878368Y-104143560D01*
X411878368Y-104143560D02*
X411302680Y-104131910D01*
X411302680Y-104131910D02*
X410727016Y-104120300D01*
X410727016Y-104120300D02*
X410151328Y-104108720D01*
X410151328Y-104108720D02*
X409575664Y-104097170D01*
X409575664Y-104097170D02*
X408999976Y-104085660D01*
X408999976Y-104085660D02*
X408424288Y-104074190D01*
X408424288Y-104074190D02*
X407848600Y-104062750D01*
X407848600Y-104062750D02*
X407272912Y-104051350D01*
X407272912Y-104051350D02*
X406697200Y-104039990D01*
X406697200Y-104039990D02*
X406121512Y-104028660D01*
X406121512Y-104028660D02*
X405545800Y-104017380D01*
X405545800Y-104017380D02*
X404970088Y-104006130D01*
X404970088Y-104006130D02*
X404394400Y-103994920D01*
X404394400Y-103994920D02*
X403818664Y-103983760D01*
X403818664Y-103983760D02*
X403242952Y-103972630D01*
X403242952Y-103972630D02*
X402667240Y-103961540D01*
X402667240Y-103961540D02*
X402091504Y-103950500D01*
X402091504Y-103950500D02*
X401515792Y-103939500D01*
X401515792Y-103939500D02*
X400940056Y-103928540D01*
X400940056Y-103928540D02*
X400364320Y-103917620D01*
X400364320Y-103917620D02*
X399788584Y-103906750D01*
X399788584Y-103906750D02*
X399212848Y-103895910D01*
X399212848Y-103895910D02*
X398637088Y-103885130D01*
X398637088Y-103885130D02*
X398061352Y-103874390D01*
X398061352Y-103874390D02*
X397485592Y-103863690D01*
X397485592Y-103863690D02*
X396909832Y-103853040D01*
X396909832Y-103853040D02*
X396334072Y-103842440D01*
X396334072Y-103842440D02*
X395758312Y-103831880D01*
X395758312Y-103831880D02*
X395182528Y-103821370D01*
X395182528Y-103821370D02*
X394606744Y-103810910D01*
X394606744Y-103810910D02*
X393455200Y-103790130D01*
X393455200Y-103790130D02*
X392303608Y-103769540D01*
X392303608Y-103769540D02*
X391152016Y-103749160D01*
X391152016Y-103749160D02*
X390000376Y-103728980D01*
X390000376Y-103728980D02*
X388848736Y-103709010D01*
X388848736Y-103709010D02*
X387697072Y-103689250D01*
X387697072Y-103689250D02*
X386545408Y-103669700D01*
X386545408Y-103669700D02*
X385393696Y-103650370D01*
X385393696Y-103650370D02*
X384241960Y-103631270D01*
X384241960Y-103631270D02*
X383090224Y-103612390D01*
X383090224Y-103612390D02*
X381938464Y-103593740D01*
X381938464Y-103593740D02*
X380786656Y-103575330D01*
X380786656Y-103575330D02*
X379634848Y-103557160D01*
X379634848Y-103557160D02*
X377907088Y-103530350D01*
X377907088Y-103530350D02*
X375603304Y-103495450D01*
X375603304Y-103495450D02*
X373299472Y-103461540D01*
X373299472Y-103461540D02*
X370995520Y-103428630D01*
X370995520Y-103428630D02*
X368691496Y-103396730D01*
X368691496Y-103396730D02*
X366387400Y-103365860D01*
X366387400Y-103365860D02*
X364083208Y-103336020D01*
X364083208Y-103336020D02*
X361778968Y-103307240D01*
X361778968Y-103307240D02*
X359474632Y-103279510D01*
X359474632Y-103279510D02*
X357170248Y-103252870D01*
X357170248Y-103252870D02*
X354865792Y-103227320D01*
X354865792Y-103227320D02*
X352561288Y-103202870D01*
X352561288Y-103202870D02*
X350256712Y-103179530D01*
X350256712Y-103179530D02*
X347952088Y-103157320D01*
X347952088Y-103157320D02*
X345647416Y-103136260D01*
X345647416Y-103136260D02*
X343342696Y-103116350D01*
X343342696Y-103116350D02*
X341037928Y-103097600D01*
X341037928Y-103097600D02*
X338733112Y-103080040D01*
X338733112Y-103080040D02*
X336428272Y-103063670D01*
X336428272Y-103063670D02*
X334123384Y-103048510D01*
X334123384Y-103048510D02*
X331818472Y-103034570D01*
X331818472Y-103034570D02*
X329513512Y-103021860D01*
X329513512Y-103021860D02*
X327208553Y-103010400D01*
X327208553Y-103010400D02*
X324903545Y-103000190D01*
X324903545Y-103000190D02*
X322598537Y-102991260D01*
X322598537Y-102991260D02*
X320293481Y-102983620D01*
X320293481Y-102983620D02*
X317988449Y-102977270D01*
X317988449Y-102977270D02*
X315107105Y-102971170D01*
X315107105Y-102971170D02*
X312225761Y-102967150D01*
X312225761Y-102967150D02*
X309344417Y-102965240D01*
X308769785Y-106632320D02*
X308754545Y-107067420D01*
X309344417Y-102965240D02*
X308769377Y-102965570D01*
X308754545Y-107067420D02*
X303579737Y-107064480D01*
X308769377Y-102965570D02*
X308769305Y-102965570D01*
X308769785Y-103090040D02*
X308753945Y-102965580D01*
X308769305Y-102965570D02*
X308753945Y-102965580D01*
X303579737Y-107064480D02*
X300697145Y-107060060D01*
X300697145Y-107060060D02*
X297814601Y-107053570D01*
X297814601Y-107053570D02*
X294932057Y-107045040D01*
X294932057Y-107045040D02*
X292049561Y-107034490D01*
X292049561Y-107034490D02*
X289743593Y-107024610D01*
X289743593Y-107024610D02*
X287437649Y-107013470D01*
X287437649Y-107013470D02*
X285131729Y-107001070D01*
X285131729Y-107001070D02*
X282825857Y-106987440D01*
X282825857Y-106987440D02*
X280520033Y-106972590D01*
X280520033Y-106972590D02*
X278214233Y-106956520D01*
X278214233Y-106956520D02*
X275908481Y-106939260D01*
X275908481Y-106939260D02*
X273602777Y-106920810D01*
X273602777Y-106920810D02*
X271297121Y-106901180D01*
X271297121Y-106901180D02*
X268991537Y-106880400D01*
X268991537Y-106880400D02*
X266686001Y-106858470D01*
X266686001Y-106858470D02*
X264380537Y-106835400D01*
X264380537Y-106835400D02*
X262075121Y-106811220D01*
X262075121Y-106811220D02*
X259769777Y-106785920D01*
X259769777Y-106785920D02*
X257464505Y-106759530D01*
X257464505Y-106759530D02*
X255159305Y-106732060D01*
X255159305Y-106732060D02*
X252854201Y-106703520D01*
X252854201Y-106703520D02*
X250549169Y-106673920D01*
X250549169Y-106673920D02*
X248244233Y-106643280D01*
X248244233Y-106643280D02*
X245939369Y-106611610D01*
X245939369Y-106611610D02*
X243634601Y-106578920D01*
X243634601Y-106578920D02*
X241329929Y-106545220D01*
X241329929Y-106545220D02*
X239025353Y-106510540D01*
X239025353Y-106510540D02*
X236720873Y-106474870D01*
X236720873Y-106474870D02*
X235568681Y-106456680D01*
X235568681Y-106456680D02*
X234416513Y-106438240D01*
X234416513Y-106438240D02*
X233264369Y-106419570D01*
X233264369Y-106419570D02*
X232112249Y-106400670D01*
X232112249Y-106400670D02*
X230960153Y-106381540D01*
X230960153Y-106381540D02*
X229808105Y-106362190D01*
X229808105Y-106362190D02*
X228656057Y-106342620D01*
X228656057Y-106342620D02*
X227504033Y-106322840D01*
X227504033Y-106322840D02*
X226352033Y-106302840D01*
X226352033Y-106302840D02*
X225200081Y-106282630D01*
X225200081Y-106282630D02*
X224048129Y-106262220D01*
X224048129Y-106262220D02*
X222896201Y-106241610D01*
X222896201Y-106241610D02*
X221744297Y-106220810D01*
X221744297Y-106220810D02*
X221168369Y-106210330D01*
X221168369Y-106210330D02*
X220592417Y-106199810D01*
X220592417Y-106199810D02*
X220016489Y-106189240D01*
X220016489Y-106189240D02*
X219440561Y-106178620D01*
X219440561Y-106178620D02*
X218864657Y-106167960D01*
X218864657Y-106167960D02*
X218288729Y-106157250D01*
X218288729Y-106157250D02*
X217712825Y-106146500D01*
X217712825Y-106146500D02*
X217136921Y-106135700D01*
X217136921Y-106135700D02*
X216561041Y-106124860D01*
X216561041Y-106124860D02*
X215985137Y-106113970D01*
X215985137Y-106113970D02*
X215409257Y-106103040D01*
X215409257Y-106103040D02*
X214833377Y-106092070D01*
X214833377Y-106092070D02*
X214257497Y-106081060D01*
X214257497Y-106081060D02*
X213681617Y-106070000D01*
X213681617Y-106070000D02*
X213105761Y-106058900D01*
X213105761Y-106058900D02*
X212529905Y-106047760D01*
X212529905Y-106047760D02*
X211954049Y-106036590D01*
X211954049Y-106036590D02*
X211378193Y-106025370D01*
X211378193Y-106025370D02*
X210802337Y-106014110D01*
X210802337Y-106014110D02*
X210226505Y-106002810D01*
X210226505Y-106002810D02*
X209650673Y-105991480D01*
X209650673Y-105991480D02*
X209074841Y-105980100D01*
X209074841Y-105980100D02*
X208499009Y-105968690D01*
X208499009Y-105968690D02*
X207923201Y-105957250D01*
X207923201Y-105957250D02*
X207347369Y-105945760D01*
X207347369Y-105945760D02*
X206771561Y-105934240D01*
X206771561Y-105934240D02*
X206195753Y-105922690D01*
X206195753Y-105922690D02*
X205619945Y-105911090D01*
X205619945Y-105911090D02*
X205044161Y-105899470D01*
X205044161Y-105899470D02*
X204468353Y-105887810D01*
X204468353Y-105887810D02*
X203892569Y-105876120D01*
X203892569Y-105876120D02*
X203316785Y-105864390D01*
X203316785Y-105864390D02*
X202741025Y-105852630D01*
X202741025Y-105852630D02*
X202165241Y-105840840D01*
X202165241Y-105840840D02*
X201589457Y-105829020D01*
X201589457Y-105829020D02*
X201013697Y-105817170D01*
X201013697Y-105817170D02*
X200437937Y-105805280D01*
X200437937Y-105805280D02*
X199862177Y-105793370D01*
X199862177Y-105793370D02*
X199286417Y-105781430D01*
X199286417Y-105781430D02*
X198710681Y-105769450D01*
X198710681Y-105769450D02*
X198134921Y-105757450D01*
X198134921Y-105757450D02*
X197559185Y-105745420D01*
X197559185Y-105745420D02*
X196983449Y-105733360D01*
X196983449Y-105733360D02*
X196407713Y-105721280D01*
X196407713Y-105721280D02*
X195832001Y-105709170D01*
X195832001Y-105709170D02*
X195256265Y-105697030D01*
X195256265Y-105697030D02*
X194680529Y-105684860D01*
X194680529Y-105684860D02*
X194104817Y-105672670D01*
X194104817Y-105672670D02*
X193529105Y-105660460D01*
X193529105Y-105660460D02*
X192953393Y-105648220D01*
X192953393Y-105648220D02*
X192377705Y-105635960D01*
X192377705Y-105635960D02*
X191801993Y-105623670D01*
X191801993Y-105623670D02*
X191226305Y-105611360D01*
X191226305Y-105611360D02*
X190650593Y-105599030D01*
X190650593Y-105599030D02*
X190074905Y-105586680D01*
X190074905Y-105586680D02*
X189499217Y-105574310D01*
X189499217Y-105574310D02*
X188923529Y-105561910D01*
X188923529Y-105561910D02*
X188347865Y-105549490D01*
X188347865Y-105549490D02*
X187772177Y-105537060D01*
X187772177Y-105537060D02*
X187196513Y-105524600D01*
X187196513Y-105524600D02*
X186620825Y-105512130D01*
X186620825Y-105512130D02*
X186045161Y-105499630D01*
X186045161Y-105499630D02*
X185469521Y-105487120D01*
X185469521Y-105487120D02*
X184893857Y-105474590D01*
X184893857Y-105474590D02*
X184318193Y-105462050D01*
X184318193Y-105462050D02*
X183742529Y-105449480D01*
X183742529Y-105449480D02*
X183166889Y-105436900D01*
X183166889Y-105436900D02*
X182591225Y-105424310D01*
X182591225Y-105424310D02*
X182015585Y-105411700D01*
X182015585Y-105411700D02*
X181439945Y-105399070D01*
X181439945Y-105399070D02*
X180864305Y-105386430D01*
X180864305Y-105386430D02*
X180288689Y-105373780D01*
X180288689Y-105373780D02*
X179713049Y-105361120D01*
X179713049Y-105361120D02*
X179137409Y-105348440D01*
X179137409Y-105348440D02*
X178561793Y-105335750D01*
X178561793Y-105335750D02*
X177986153Y-105323050D01*
X177986153Y-105323050D02*
X177410537Y-105310330D01*
X177410537Y-105310330D02*
X176834921Y-105297610D01*
X176834921Y-105297610D02*
X176259305Y-105284870D01*
X176259305Y-105284870D02*
X175683689Y-105272130D01*
X175683689Y-105272130D02*
X175108073Y-105259370D01*
X175108073Y-105259370D02*
X174532481Y-105246610D01*
X174532481Y-105246610D02*
X173956865Y-105233840D01*
X173956865Y-105233840D02*
X173381273Y-105221060D01*
X173381273Y-105221060D02*
X172805657Y-105208270D01*
X172805657Y-105208270D02*
X172230065Y-105195470D01*
X172230065Y-105195470D02*
X171654473Y-105182680D01*
X171654473Y-105182680D02*
X171078881Y-105169870D01*
X171078881Y-105169870D02*
X170503289Y-105157060D01*
X170503289Y-105157060D02*
X169927697Y-105144240D01*
X169927697Y-105144240D02*
X169352129Y-105131420D01*
X169352129Y-105131420D02*
X168776537Y-105118590D01*
X168776537Y-105118590D02*
X168200945Y-105105760D01*
X168200945Y-105105760D02*
X167625377Y-105092930D01*
X167625377Y-105092930D02*
X167049785Y-105080100D01*
X167049785Y-105080100D02*
X166474217Y-105067260D01*
X166474217Y-105067260D02*
X165898649Y-105054420D01*
X165898649Y-105054420D02*
X165323081Y-105041580D01*
X165323081Y-105041580D02*
X164747489Y-105028740D01*
X164747489Y-105028740D02*
X164171921Y-105015900D01*
X164171921Y-105015900D02*
X163596377Y-105003060D01*
X163596377Y-105003060D02*
X163020809Y-104990220D01*
X163020809Y-104990220D02*
X162445241Y-104977380D01*
X162445241Y-104977380D02*
X161869673Y-104964540D01*
X161869673Y-104964540D02*
X161294129Y-104951710D01*
X161294129Y-104951710D02*
X160718561Y-104938880D01*
X160718561Y-104938880D02*
X160143017Y-104926050D01*
X160143017Y-104926050D02*
X159567449Y-104913220D01*
X159567449Y-104913220D02*
X158991905Y-104900400D01*
X158991905Y-104900400D02*
X158416337Y-104887580D01*
X158416337Y-104887580D02*
X157840793Y-104874770D01*
X157840793Y-104874770D02*
X157265249Y-104861970D01*
X157265249Y-104861970D02*
X156689681Y-104849170D01*
X156689681Y-104849170D02*
X156114137Y-104836370D01*
X156114137Y-104836370D02*
X155538593Y-104823580D01*
X155538593Y-104823580D02*
X154963049Y-104810800D01*
X154963049Y-104810800D02*
X154387481Y-104798030D01*
X154387481Y-104798030D02*
X153811937Y-104785270D01*
X153811937Y-104785270D02*
X153236393Y-104772510D01*
X153236393Y-104772510D02*
X152660849Y-104759770D01*
X152660849Y-104759770D02*
X152085305Y-104747030D01*
X152085305Y-104747030D02*
X151509737Y-104734310D01*
X151509737Y-104734310D02*
X150934193Y-104721590D01*
X150934193Y-104721590D02*
X150358649Y-104708890D01*
X150358649Y-104708890D02*
X149783105Y-104696190D01*
X149783105Y-104696190D02*
X149207561Y-104683520D01*
X149207561Y-104683520D02*
X148632017Y-104670850D01*
X148632017Y-104670850D02*
X148056449Y-104658190D01*
X148056449Y-104658190D02*
X147480905Y-104645550D01*
X147480905Y-104645550D02*
X146905361Y-104632920D01*
X146905361Y-104632920D02*
X146329793Y-104620310D01*
X146329793Y-104620310D02*
X145754249Y-104607710D01*
X145754249Y-104607710D02*
X145178681Y-104595130D01*
X145178681Y-104595130D02*
X144603137Y-104582560D01*
X144603137Y-104582560D02*
X144027569Y-104570010D01*
X144027569Y-104570010D02*
X143452025Y-104557480D01*
X143452025Y-104557480D02*
X142876457Y-104544960D01*
X142876457Y-104544960D02*
X142300889Y-104532460D01*
X142300889Y-104532460D02*
X141725345Y-104519980D01*
X141725345Y-104519980D02*
X141149777Y-104507520D01*
X141149777Y-104507520D02*
X140574209Y-104495080D01*
X140574209Y-104495080D02*
X139998641Y-104482650D01*
X139998641Y-104482650D02*
X139423073Y-104470250D01*
X139423073Y-104470250D02*
X138847505Y-104457870D01*
X138847505Y-104457870D02*
X138271913Y-104445500D01*
X138271913Y-104445500D02*
X137696345Y-104433170D01*
X137696345Y-104433170D02*
X137120753Y-104420850D01*
X137120753Y-104420850D02*
X136545185Y-104408550D01*
X136545185Y-104408550D02*
X135969593Y-104396280D01*
X135969593Y-104396280D02*
X135394001Y-104384030D01*
X135394001Y-104384030D02*
X134818409Y-104371800D01*
X134818409Y-104371800D02*
X134242817Y-104359600D01*
X134242817Y-104359600D02*
X133667225Y-104347420D01*
X133667225Y-104347420D02*
X133091633Y-104335270D01*
X133091633Y-104335270D02*
X132516041Y-104323140D01*
X132516041Y-104323140D02*
X131940425Y-104311040D01*
X131940425Y-104311040D02*
X131364833Y-104298970D01*
X131364833Y-104298970D02*
X130789217Y-104286920D01*
X130789217Y-104286920D02*
X130213601Y-104274910D01*
X130213601Y-104274910D02*
X129637985Y-104262910D01*
X129637985Y-104262910D02*
X129062345Y-104250950D01*
X129062345Y-104250950D02*
X128486729Y-104239020D01*
X128486729Y-104239020D02*
X127911089Y-104227120D01*
X127911089Y-104227120D02*
X127335473Y-104215240D01*
X127335473Y-104215240D02*
X126759833Y-104203400D01*
X126759833Y-104203400D02*
X126184193Y-104191590D01*
X126184193Y-104191590D02*
X125608529Y-104179810D01*
X125608529Y-104179810D02*
X125032889Y-104168060D01*
X125032889Y-104168060D02*
X124457225Y-104156340D01*
X124457225Y-104156340D02*
X123881585Y-104144650D01*
X123881585Y-104144650D02*
X123305921Y-104133000D01*
X123305921Y-104133000D02*
X122730257Y-104121390D01*
X122730257Y-104121390D02*
X122154569Y-104109800D01*
X122154569Y-104109800D02*
X121578905Y-104098250D01*
X121578905Y-104098250D02*
X121003217Y-104086740D01*
X121003217Y-104086740D02*
X120427529Y-104075260D01*
X120427529Y-104075260D02*
X119851841Y-104063820D01*
X119851841Y-104063820D02*
X119276129Y-104052410D01*
X119276129Y-104052410D02*
X118700441Y-104041040D01*
X118700441Y-104041040D02*
X118124729Y-104029710D01*
X118124729Y-104029710D02*
X117549017Y-104018420D01*
X117549017Y-104018420D02*
X116973281Y-104007170D01*
X116973281Y-104007170D02*
X116397569Y-103995950D01*
X116397569Y-103995950D02*
X115821833Y-103984770D01*
X115821833Y-103984770D02*
X115246097Y-103973640D01*
X115246097Y-103973640D02*
X114670361Y-103962540D01*
X114670361Y-103962540D02*
X114094601Y-103951490D01*
X114094601Y-103951490D02*
X113518865Y-103940470D01*
X113518865Y-103940470D02*
X112943105Y-103929500D01*
X112943105Y-103929500D02*
X112367321Y-103918570D01*
X112367321Y-103918570D02*
X111791537Y-103907680D01*
X111791537Y-103907680D02*
X111215777Y-103896840D01*
X111215777Y-103896840D02*
X110639993Y-103886030D01*
X110639993Y-103886030D02*
X110064185Y-103875280D01*
X110064185Y-103875280D02*
X109488377Y-103864560D01*
X109488377Y-103864560D02*
X108912593Y-103853900D01*
X108912593Y-103853900D02*
X108336761Y-103843270D01*
X108336761Y-103843270D02*
X107760953Y-103832700D01*
X107760953Y-103832700D02*
X107185121Y-103822170D01*
X107185121Y-103822170D02*
X106609289Y-103811690D01*
X106609289Y-103811690D02*
X105457601Y-103790860D01*
X105457601Y-103790860D02*
X104305865Y-103770230D01*
X104305865Y-103770230D02*
X103154105Y-103749800D01*
X103154105Y-103749800D02*
X102002321Y-103729560D01*
X102002321Y-103729560D02*
X100850513Y-103709530D01*
X100850513Y-103709530D02*
X99698657Y-103689710D01*
X99698657Y-103689710D02*
X98546777Y-103670110D01*
X98546777Y-103670110D02*
X97394873Y-103650710D01*
X97394873Y-103650710D02*
X96242921Y-103631540D01*
X96242921Y-103631540D02*
X95090921Y-103612590D01*
X95090921Y-103612590D02*
X93938897Y-103593860D01*
X93938897Y-103593860D02*
X92786825Y-103575370D01*
X92786825Y-103575370D02*
X91634729Y-103557110D01*
X91634729Y-103557110D02*
X89906537Y-103530170D01*
X89906537Y-103530170D02*
X88178297Y-103503770D01*
X88178297Y-103503770D02*
X86450081Y-103477920D01*
X86450081Y-103477920D02*
X84721937Y-103452620D01*
X84721937Y-103452620D02*
X82993913Y-103427880D01*
X82993913Y-103427880D02*
X81266057Y-103403710D01*
X81266057Y-103403710D02*
X79538393Y-103380110D01*
X79538393Y-103380110D02*
X77810969Y-103357090D01*
X77810969Y-103357090D02*
X76083857Y-103334660D01*
X76083857Y-103334660D02*
X74357081Y-103312830D01*
X74357081Y-103312830D02*
X73206089Y-103298610D01*
X73206089Y-103298610D02*
X72055097Y-103284650D01*
X72055097Y-103284650D02*
X70903913Y-103270970D01*
X70903913Y-103270970D02*
X69752369Y-103257560D01*
X69752369Y-103257560D02*
X68600225Y-103244430D01*
X68600225Y-103244430D02*
X67447313Y-103231580D01*
X67447313Y-103231580D02*
X66293441Y-103219010D01*
X66293441Y-103219010D02*
X63982193Y-103194730D01*
X63982193Y-103194730D02*
X63403841Y-103188840D01*
X63403841Y-103188840D02*
X62247017Y-103177270D01*
X62247017Y-103177270D02*
X61090697Y-103165990D01*
X61090697Y-103165990D02*
X59935577Y-103155010D01*
X59935577Y-103155010D02*
X58782377Y-103144320D01*
X58782377Y-103144320D02*
X57057737Y-103128840D01*
X57057737Y-103128840D02*
X55912457Y-103118900D01*
X55912457Y-103118900D02*
X55341113Y-103114030D01*
X55341113Y-103114030D02*
X54770129Y-103109250D01*
X54770129Y-103109250D02*
X54199049Y-103104540D01*
X54199049Y-103104540D02*
X53627345Y-103099900D01*
X53627345Y-103099900D02*
X53054609Y-103095340D01*
X53054609Y-103095340D02*
X52480313Y-103090860D01*
X52480313Y-103090860D02*
X51904025Y-103086450D01*
X51904025Y-103086450D02*
X51325337Y-103082120D01*
X51325337Y-103082120D02*
X50744513Y-103077860D01*
X50744513Y-103077860D02*
X50162225Y-103073690D01*
X50162225Y-103073690D02*
X49579169Y-103069580D01*
X49579169Y-103069580D02*
X48996041Y-103065560D01*
X48996041Y-103065560D02*
X48413537Y-103061610D01*
X48413537Y-103061610D02*
X47832353Y-103057740D01*
X47832353Y-103057740D02*
X47253161Y-103053950D01*
X47253161Y-103053950D02*
X46676561Y-103050230D01*
X46676561Y-103050230D02*
X46102313Y-103046590D01*
X46102313Y-103046590D02*
X45530009Y-103043030D01*
X45530009Y-103043030D02*
X44959169Y-103039550D01*
X44959169Y-103039550D02*
X44389337Y-103036150D01*
X44389337Y-103036150D02*
X43820057Y-103032820D01*
X43820057Y-103032820D02*
X43250873Y-103029570D01*
X43250873Y-103029570D02*
X42681329Y-103026410D01*
X42681329Y-103026410D02*
X42110969Y-103023320D01*
X42110969Y-103023320D02*
X41539313Y-103020300D01*
X41539313Y-103020300D02*
X40965929Y-103017370D01*
X40965929Y-103017370D02*
X40390361Y-103014520D01*
X40390361Y-103014520D02*
X39812153Y-103011740D01*
X39812153Y-103011740D02*
X38057009Y-103003890D01*
X38057009Y-103003890D02*
X37464473Y-103001430D01*
X37464473Y-103001430D02*
X36870377Y-102999060D01*
X36870377Y-102999060D02*
X36276977Y-102996760D01*
X36276977Y-102996760D02*
X35686505Y-102994540D01*
X35686505Y-102994540D02*
X35101193Y-102992400D01*
X35101193Y-102992400D02*
X34523297Y-102990340D01*
X34523297Y-102990340D02*
X33955073Y-102988360D01*
X33955073Y-102988360D02*
X33398633Y-102986460D01*
X33398633Y-102986460D02*
X32853233Y-102984650D01*
X32853233Y-102984650D02*
X32314553Y-102982910D01*
X32314553Y-102982910D02*
X31778153Y-102981250D01*
X31778153Y-102981250D02*
X31239569Y-102979680D01*
X31239569Y-102979680D02*
X30694313Y-102978180D01*
X30694313Y-102978180D02*
X30137921Y-102976760D01*
X30137921Y-102976760D02*
X28974209Y-102974170D01*
X28974209Y-102974170D02*
X28960337Y-103107060D01*
X28974209Y-106748190D02*
X28961801Y-106748210D01*
X28974209Y-106748190D02*
X28960337Y-106615300D01*
X28961801Y-106748210D02*
X28362689Y-106749360D01*
X28362689Y-106749360D02*
X27734441Y-106750450D01*
X27734441Y-106750450D02*
X27092489Y-106751470D01*
X27092489Y-106751470D02*
X26440241Y-106752400D01*
X26440241Y-106752400D02*
X25784129Y-106753250D01*
X25784129Y-106753250D02*
X25132217Y-106754020D01*
X25132217Y-106754020D02*
X24492689Y-106754710D01*
X24492689Y-106754710D02*
X23873153Y-106755310D01*
X23873153Y-106755310D02*
X23277497Y-106755840D01*
X23277497Y-106755840D02*
X22708001Y-106756290D01*
X22708001Y-106756290D02*
X22166945Y-106756650D01*
X22166945Y-106756650D02*
X21654809Y-106756930D01*
X21654809Y-106756930D02*
X21162833Y-106757140D01*
X21162833Y-102655580D02*
X21162833Y-106757140D01*
X21655673Y-102655550D02*
X21163409Y-102655340D01*
X21163409Y-102655340D02*
X21162833Y-102655580D01*
X22168025Y-102655830D02*
X21655673Y-102655550D01*
X22709321Y-102656190D02*
X22168025Y-102655830D01*
X23279009Y-102656640D02*
X22709321Y-102656190D01*
X23874833Y-102657170D02*
X23279009Y-102656640D01*
X24494537Y-102657780D02*
X23874833Y-102657170D01*
X25134233Y-102658460D02*
X24494537Y-102657780D01*
X25786337Y-102659230D02*
X25134233Y-102658460D01*
X26442665Y-102660090D02*
X25786337Y-102659230D01*
X27095177Y-102661020D02*
X26442665Y-102660090D01*
X27737417Y-102662030D02*
X27095177Y-102661020D01*
X28365977Y-102663120D02*
X27737417Y-102662030D01*
X28977809Y-102664300D02*
X28365977Y-102663120D01*
X30142193Y-102666890D02*
X28977809Y-102664300D01*
X30698921Y-102668310D02*
X30142193Y-102666890D01*
X31244489Y-102669800D02*
X30698921Y-102668310D01*
X31783385Y-102671380D02*
X31244489Y-102669800D01*
X32320073Y-102673040D02*
X31783385Y-102671380D01*
X32858993Y-102674780D02*
X32320073Y-102673040D01*
X33404657Y-102676600D02*
X32858993Y-102674780D01*
X33961313Y-102678500D02*
X33404657Y-102676600D01*
X34529753Y-102680470D02*
X33961313Y-102678500D01*
X35107817Y-102682530D02*
X34529753Y-102680470D01*
X35693297Y-102684670D02*
X35107817Y-102682530D01*
X36283937Y-102686890D02*
X35693297Y-102684670D01*
X36877505Y-102689190D02*
X36283937Y-102686890D01*
X37471769Y-102691570D02*
X36877505Y-102689190D01*
X38064473Y-102694030D02*
X37471769Y-102691570D01*
X39820217Y-102701880D02*
X38064473Y-102694030D01*
X40398665Y-102704650D02*
X39820217Y-102701880D01*
X40974497Y-102707510D02*
X40398665Y-102704650D01*
X41548121Y-102710450D02*
X40974497Y-102707510D01*
X42120017Y-102713460D02*
X41548121Y-102710450D01*
X42690641Y-102716550D02*
X42120017Y-102713460D01*
X43260473Y-102719720D02*
X42690641Y-102716550D01*
X43829921Y-102722970D02*
X43260473Y-102719720D01*
X44399489Y-102726300D02*
X43829921Y-102722970D01*
X44969585Y-102729700D02*
X44399489Y-102726300D01*
X45540713Y-102733190D02*
X44969585Y-102729700D01*
X46113281Y-102736750D02*
X45540713Y-102733190D01*
X46687793Y-102740390D02*
X46113281Y-102736750D01*
X47264681Y-102744110D02*
X46687793Y-102740390D01*
X47844137Y-102747900D02*
X47264681Y-102744110D01*
X48425585Y-102751770D02*
X47844137Y-102747900D01*
X49008353Y-102755720D02*
X48425585Y-102751770D01*
X49591721Y-102759750D02*
X49008353Y-102755720D01*
X50175041Y-102763850D02*
X49591721Y-102759750D01*
X50757569Y-102768030D02*
X50175041Y-102763850D01*
X51338657Y-102772290D02*
X50757569Y-102768030D01*
X51917585Y-102776620D02*
X51338657Y-102772290D01*
X52494113Y-102781030D02*
X51917585Y-102776620D01*
X53068625Y-102785520D02*
X52494113Y-102781030D01*
X53641625Y-102790080D02*
X53068625Y-102785520D01*
X54213545Y-102794720D02*
X53641625Y-102790080D01*
X54784865Y-102799430D02*
X54213545Y-102794720D01*
X55356089Y-102804220D02*
X54784865Y-102799430D01*
X55927649Y-102809080D02*
X55356089Y-102804220D01*
X57073409Y-102819030D02*
X55927649Y-102809080D01*
X58798745Y-102834520D02*
X57073409Y-102819030D01*
X59952425Y-102845210D02*
X58798745Y-102834520D01*
X61108001Y-102856200D02*
X59952425Y-102845210D01*
X62264777Y-102867480D02*
X61108001Y-102856200D01*
X63422033Y-102879050D02*
X62264777Y-102867480D01*
X64000625Y-102884940D02*
X63422033Y-102879050D01*
X66312737Y-102909240D02*
X64000625Y-102884940D01*
X67467041Y-102921810D02*
X66312737Y-102909240D01*
X68620385Y-102934670D02*
X67467041Y-102921810D01*
X69772937Y-102947800D02*
X68620385Y-102934670D01*
X70924937Y-102961210D02*
X69772937Y-102947800D01*
X72076529Y-102974900D02*
X70924937Y-102961210D01*
X73227929Y-102988860D02*
X72076529Y-102974900D01*
X74379329Y-103003090D02*
X73227929Y-102988860D01*
X76106705Y-103024930D02*
X74379329Y-103003090D01*
X77834441Y-103047370D02*
X76106705Y-103024930D01*
X79562465Y-103070390D02*
X77834441Y-103047370D01*
X81290705Y-103094000D02*
X79562465Y-103070390D01*
X83019161Y-103118180D02*
X81290705Y-103094000D01*
X84747785Y-103142920D02*
X83019161Y-103118180D01*
X86476481Y-103168230D02*
X84747785Y-103142920D01*
X88205249Y-103194090D02*
X86476481Y-103168230D01*
X89934041Y-103220500D02*
X88205249Y-103194090D01*
X91662785Y-103247450D02*
X89934041Y-103220500D01*
X92815241Y-103265720D02*
X91662785Y-103247450D01*
X93967649Y-103284220D02*
X92815241Y-103265720D01*
X95120033Y-103302940D02*
X93967649Y-103284220D01*
X96272345Y-103321900D02*
X95120033Y-103302940D01*
X97424633Y-103341080D02*
X96272345Y-103321900D01*
X98576897Y-103360480D02*
X97424633Y-103341080D01*
X99729089Y-103380090D02*
X98576897Y-103360480D01*
X100881257Y-103399920D02*
X99729089Y-103380090D01*
X102033401Y-103419950D02*
X100881257Y-103399920D01*
X103185497Y-103440190D02*
X102033401Y-103419950D01*
X104337545Y-103460630D02*
X103185497Y-103440190D01*
X105489569Y-103481270D02*
X104337545Y-103460630D01*
X106641569Y-103502100D02*
X105489569Y-103481270D01*
X107217545Y-103512580D02*
X106641569Y-103502100D01*
X107793521Y-103523110D02*
X107217545Y-103512580D01*
X108369473Y-103533690D02*
X107793521Y-103523110D01*
X108945449Y-103544320D02*
X108369473Y-103533690D01*
X109521377Y-103554990D02*
X108945449Y-103544320D01*
X110097329Y-103565700D02*
X109521377Y-103554990D01*
X110673257Y-103576460D02*
X110097329Y-103565700D01*
X111249185Y-103587270D02*
X110673257Y-103576460D01*
X111825089Y-103598110D02*
X111249185Y-103587270D01*
X112400993Y-103609000D02*
X111825089Y-103598110D01*
X112976897Y-103619940D02*
X112400993Y-103609000D01*
X113552801Y-103630910D02*
X112976897Y-103619940D01*
X114128681Y-103641930D02*
X113552801Y-103630910D01*
X114704561Y-103652990D02*
X114128681Y-103641930D01*
X115280417Y-103664090D02*
X114704561Y-103652990D01*
X115856297Y-103675230D02*
X115280417Y-103664090D01*
X116432153Y-103686410D02*
X115856297Y-103675230D01*
X117007985Y-103697620D02*
X116432153Y-103686410D01*
X117583841Y-103708880D02*
X117007985Y-103697620D01*
X118159673Y-103720170D02*
X117583841Y-103708880D01*
X118735505Y-103731510D02*
X118159673Y-103720170D01*
X119311313Y-103742880D02*
X118735505Y-103731510D01*
X119887121Y-103754290D02*
X119311313Y-103742880D01*
X120462953Y-103765730D02*
X119887121Y-103754290D01*
X121038737Y-103777210D02*
X120462953Y-103765730D01*
X121614545Y-103788730D02*
X121038737Y-103777210D01*
X122190329Y-103800280D02*
X121614545Y-103788730D01*
X122766113Y-103811860D02*
X122190329Y-103800280D01*
X123341873Y-103823480D02*
X122766113Y-103811860D01*
X123917657Y-103835140D02*
X123341873Y-103823480D01*
X124493417Y-103846820D02*
X123917657Y-103835140D01*
X125069177Y-103858540D02*
X124493417Y-103846820D01*
X125644937Y-103870290D02*
X125069177Y-103858540D01*
X126220673Y-103882080D02*
X125644937Y-103870290D01*
X126796409Y-103893890D02*
X126220673Y-103882080D01*
X127372145Y-103905740D02*
X126796409Y-103893890D01*
X127947881Y-103917610D02*
X127372145Y-103905740D01*
X128523593Y-103929520D02*
X127947881Y-103917610D01*
X129099329Y-103941450D02*
X128523593Y-103929520D01*
X129675041Y-103953420D02*
X129099329Y-103941450D01*
X130250753Y-103965410D02*
X129675041Y-103953420D01*
X130826441Y-103977430D02*
X130250753Y-103965410D01*
X131402153Y-103989480D02*
X130826441Y-103977430D01*
X131977841Y-104001550D02*
X131402153Y-103989480D01*
X132553529Y-104013660D02*
X131977841Y-104001550D01*
X133129217Y-104025780D02*
X132553529Y-104013660D01*
X133704905Y-104037940D02*
X133129217Y-104025780D01*
X134280569Y-104050120D02*
X133704905Y-104037940D01*
X134856257Y-104062320D02*
X134280569Y-104050120D01*
X135431921Y-104074550D02*
X134856257Y-104062320D01*
X136007585Y-104086800D02*
X135431921Y-104074550D01*
X136583249Y-104099070D02*
X136007585Y-104086800D01*
X137158889Y-104111370D02*
X136583249Y-104099070D01*
X137734553Y-104123690D02*
X137158889Y-104111370D01*
X138310193Y-104136030D02*
X137734553Y-104123690D01*
X138885833Y-104148400D02*
X138310193Y-104136030D01*
X139461497Y-104160780D02*
X138885833Y-104148400D01*
X140037113Y-104173190D02*
X139461497Y-104160780D01*
X140612753Y-104185610D02*
X140037113Y-104173190D01*
X141188393Y-104198060D02*
X140612753Y-104185610D01*
X141764009Y-104210520D02*
X141188393Y-104198060D01*
X142339625Y-104223000D02*
X141764009Y-104210520D01*
X142915265Y-104235500D02*
X142339625Y-104223000D01*
X143490857Y-104248020D02*
X142915265Y-104235500D01*
X144066473Y-104260560D02*
X143490857Y-104248020D01*
X144642089Y-104273110D02*
X144066473Y-104260560D01*
X145217705Y-104285670D02*
X144642089Y-104273110D01*
X145793321Y-104298260D02*
X145217705Y-104285670D01*
X146368913Y-104310860D02*
X145793321Y-104298260D01*
X146944505Y-104323470D02*
X146368913Y-104310860D01*
X147520121Y-104336100D02*
X146944505Y-104323470D01*
X148095713Y-104348740D02*
X147520121Y-104336100D01*
X148671305Y-104361400D02*
X148095713Y-104348740D01*
X149246897Y-104374070D02*
X148671305Y-104361400D01*
X149822489Y-104386750D02*
X149246897Y-104374070D01*
X150398081Y-104399440D02*
X149822489Y-104386750D01*
X150973649Y-104412150D02*
X150398081Y-104399440D01*
X151549241Y-104424860D02*
X150973649Y-104412150D01*
X152124833Y-104437590D02*
X151549241Y-104424860D01*
X152700401Y-104450330D02*
X152124833Y-104437590D01*
X153275993Y-104463070D02*
X152700401Y-104450330D01*
X153851561Y-104475830D02*
X153275993Y-104463070D01*
X154427153Y-104488590D02*
X153851561Y-104475830D01*
X155002721Y-104501370D02*
X154427153Y-104488590D01*
X155578289Y-104514150D02*
X155002721Y-104501370D01*
X156153857Y-104526930D02*
X155578289Y-104514150D01*
X156729425Y-104539730D02*
X156153857Y-104526930D01*
X157304993Y-104552530D02*
X156729425Y-104539730D01*
X157880585Y-104565340D02*
X157304993Y-104552530D01*
X158456129Y-104578150D02*
X157880585Y-104565340D01*
X159031721Y-104590970D02*
X158456129Y-104578150D01*
X159607289Y-104603790D02*
X159031721Y-104590970D01*
X160182833Y-104616610D02*
X159607289Y-104603790D01*
X160758401Y-104629440D02*
X160182833Y-104616610D01*
X161333969Y-104642270D02*
X160758401Y-104629440D01*
X161909537Y-104655110D02*
X161333969Y-104642270D01*
X162485105Y-104667940D02*
X161909537Y-104655110D01*
X163060673Y-104680780D02*
X162485105Y-104667940D01*
X163636241Y-104693620D02*
X163060673Y-104680780D01*
X164211809Y-104706460D02*
X163636241Y-104693620D01*
X164787377Y-104719300D02*
X164211809Y-104706460D01*
X165362945Y-104732150D02*
X164787377Y-104719300D01*
X165938513Y-104744990D02*
X165362945Y-104732150D01*
X166514081Y-104757820D02*
X165938513Y-104744990D01*
X167089649Y-104770660D02*
X166514081Y-104757820D01*
X167665217Y-104783490D02*
X167089649Y-104770660D01*
X168240785Y-104796330D02*
X167665217Y-104783490D01*
X168816353Y-104809160D02*
X168240785Y-104796330D01*
X169391921Y-104821980D02*
X168816353Y-104809160D01*
X169967489Y-104834800D02*
X169391921Y-104821980D01*
X170543081Y-104847620D02*
X169967489Y-104834800D01*
X171118649Y-104860430D02*
X170543081Y-104847620D01*
X171694217Y-104873240D02*
X171118649Y-104860430D01*
X172269785Y-104886040D02*
X171694217Y-104873240D01*
X172845353Y-104898830D02*
X172269785Y-104886040D01*
X173420945Y-104911620D02*
X172845353Y-104898830D01*
X173996513Y-104924400D02*
X173420945Y-104911620D01*
X174572081Y-104937170D02*
X173996513Y-104924400D01*
X175147673Y-104949930D02*
X174572081Y-104937170D01*
X175723241Y-104962680D02*
X175147673Y-104949930D01*
X176298833Y-104975430D02*
X175723241Y-104962680D01*
X176874401Y-104988160D02*
X176298833Y-104975430D01*
X177449993Y-105000890D02*
X176874401Y-104988160D01*
X178025585Y-105013600D02*
X177449993Y-105000890D01*
X178601153Y-105026300D02*
X178025585Y-105013600D01*
X179176745Y-105038990D02*
X178601153Y-105026300D01*
X179752337Y-105051670D02*
X179176745Y-105038990D01*
X180327929Y-105064330D02*
X179752337Y-105051670D01*
X180903497Y-105076980D02*
X180327929Y-105064330D01*
X181479089Y-105089620D02*
X180903497Y-105076980D01*
X182054705Y-105102250D02*
X181479089Y-105089620D01*
X182630297Y-105114860D02*
X182054705Y-105102250D01*
X183205889Y-105127450D02*
X182630297Y-105114860D01*
X183781481Y-105140030D02*
X183205889Y-105127450D01*
X184357073Y-105152590D02*
X183781481Y-105140030D01*
X184932689Y-105165130D02*
X184357073Y-105152590D01*
X185508281Y-105177660D02*
X184932689Y-105165130D01*
X186083897Y-105190170D02*
X185508281Y-105177660D01*
X186659489Y-105202660D02*
X186083897Y-105190170D01*
X187235105Y-105215140D02*
X186659489Y-105202660D01*
X187810721Y-105227590D02*
X187235105Y-105215140D01*
X188386313Y-105240020D02*
X187810721Y-105227590D01*
X188961929Y-105252440D02*
X188386313Y-105240020D01*
X189537545Y-105264830D02*
X188961929Y-105252440D01*
X190113185Y-105277210D02*
X189537545Y-105264830D01*
X190688801Y-105289560D02*
X190113185Y-105277210D01*
X191264417Y-105301890D02*
X190688801Y-105289560D01*
X191840033Y-105314190D02*
X191264417Y-105301890D01*
X192415673Y-105326480D02*
X191840033Y-105314190D01*
X192991289Y-105338740D02*
X192415673Y-105326480D01*
X193566929Y-105350980D02*
X192991289Y-105338740D01*
X194142545Y-105363190D02*
X193566929Y-105350980D01*
X194718185Y-105375380D02*
X194142545Y-105363190D01*
X195293825Y-105387540D02*
X194718185Y-105375380D01*
X195869465Y-105399680D02*
X195293825Y-105387540D01*
X196445129Y-105411790D02*
X195869465Y-105399680D01*
X197020769Y-105423870D02*
X196445129Y-105411790D01*
X197596409Y-105435930D02*
X197020769Y-105423870D01*
X198172073Y-105447950D02*
X197596409Y-105435930D01*
X198747713Y-105459960D02*
X198172073Y-105447950D01*
X199323377Y-105471930D02*
X198747713Y-105459960D01*
X199899041Y-105483870D02*
X199323377Y-105471930D01*
X200474705Y-105495780D02*
X199899041Y-105483870D01*
X201050369Y-105507660D02*
X200474705Y-105495780D01*
X201626033Y-105519510D02*
X201050369Y-105507660D01*
X202201697Y-105531330D02*
X201626033Y-105519510D01*
X202777385Y-105543120D02*
X202201697Y-105531330D01*
X203353049Y-105554880D02*
X202777385Y-105543120D01*
X203928737Y-105566600D02*
X203353049Y-105554880D01*
X204504425Y-105578290D02*
X203928737Y-105566600D01*
X205080113Y-105589950D02*
X204504425Y-105578290D01*
X205655801Y-105601570D02*
X205080113Y-105589950D01*
X206231489Y-105613160D02*
X205655801Y-105601570D01*
X206807177Y-105624710D02*
X206231489Y-105613160D01*
X207382889Y-105636230D02*
X206807177Y-105624710D01*
X207958577Y-105647710D02*
X207382889Y-105636230D01*
X208534289Y-105659160D02*
X207958577Y-105647710D01*
X209110001Y-105670570D02*
X208534289Y-105659160D01*
X209685713Y-105681940D02*
X209110001Y-105670570D01*
X210261425Y-105693270D02*
X209685713Y-105681940D01*
X210837137Y-105704560D02*
X210261425Y-105693270D01*
X211412873Y-105715820D02*
X210837137Y-105704560D01*
X211988609Y-105727040D02*
X211412873Y-105715820D01*
X212564345Y-105738210D02*
X211988609Y-105727040D01*
X213140057Y-105749350D02*
X212564345Y-105738210D01*
X213715817Y-105760440D02*
X213140057Y-105749350D01*
X214291553Y-105771500D02*
X213715817Y-105760440D01*
X214867289Y-105782510D02*
X214291553Y-105771500D01*
X215443049Y-105793480D02*
X214867289Y-105782510D01*
X216018785Y-105804410D02*
X215443049Y-105793480D01*
X216594569Y-105815290D02*
X216018785Y-105804410D01*
X217170329Y-105826130D02*
X216594569Y-105815290D01*
X217746089Y-105836930D02*
X217170329Y-105826130D01*
X218321849Y-105847680D02*
X217746089Y-105836930D01*
X218897633Y-105858380D02*
X218321849Y-105847680D01*
X219473417Y-105869040D02*
X218897633Y-105858380D01*
X220049201Y-105879660D02*
X219473417Y-105869040D01*
X220624985Y-105890220D02*
X220049201Y-105879660D01*
X221200769Y-105900740D02*
X220624985Y-105890220D01*
X221776577Y-105911220D02*
X221200769Y-105900740D01*
X222928169Y-105932020D02*
X221776577Y-105911220D01*
X224079785Y-105952620D02*
X222928169Y-105932020D01*
X225231449Y-105973030D02*
X224079785Y-105952620D01*
X226383089Y-105993230D02*
X225231449Y-105973030D01*
X227534777Y-106013220D02*
X226383089Y-105993230D01*
X228686465Y-106033000D02*
X227534777Y-106013220D01*
X229838201Y-106052560D02*
X228686465Y-106033000D01*
X230989937Y-106071910D02*
X229838201Y-106052560D01*
X232141697Y-106091030D02*
X230989937Y-106071910D01*
X233293481Y-106109930D02*
X232141697Y-106091030D01*
X234445265Y-106128590D02*
X233293481Y-106109930D01*
X235597097Y-106147020D02*
X234445265Y-106128590D01*
X237324857Y-106174220D02*
X235597097Y-106147020D01*
X239628641Y-106209630D02*
X237324857Y-106174220D01*
X241932497Y-106244060D02*
X239628641Y-106209630D01*
X244236425Y-106277490D02*
X241932497Y-106244060D01*
X246540449Y-106309920D02*
X244236425Y-106277490D01*
X248844521Y-106341320D02*
X246540449Y-106309920D01*
X251148689Y-106371700D02*
X248844521Y-106341320D01*
X253452905Y-106401020D02*
X251148689Y-106371700D01*
X255757217Y-106429290D02*
X253452905Y-106401020D01*
X258061577Y-106456480D02*
X255757217Y-106429290D01*
X260365985Y-106482590D02*
X258061577Y-106456480D01*
X262670465Y-106507600D02*
X260365985Y-106482590D01*
X264975017Y-106531490D02*
X262670465Y-106507600D01*
X267279593Y-106554270D02*
X264975017Y-106531490D01*
X269584241Y-106575900D02*
X267279593Y-106554270D01*
X271888913Y-106596390D02*
X269584241Y-106575900D01*
X274193657Y-106615710D02*
X271888913Y-106596390D01*
X276498425Y-106633860D02*
X274193657Y-106615710D01*
X278803241Y-106650820D02*
X276498425Y-106633860D01*
X281108081Y-106666580D02*
X278803241Y-106650820D01*
X283412969Y-106681120D02*
X281108081Y-106666580D01*
X285717905Y-106694440D02*
X283412969Y-106681120D01*
X288022841Y-106706520D02*
X285717905Y-106694440D01*
X290327801Y-106717340D02*
X288022841Y-106706520D01*
X292632785Y-106726890D02*
X290327801Y-106717340D01*
X295514057Y-106737040D02*
X292632785Y-106726890D01*
X298395353Y-106745160D02*
X295514057Y-106737040D01*
X301276673Y-106751240D02*
X298395353Y-106745160D01*
X304158017Y-106755230D02*
X301276673Y-106751240D01*
X307449377Y-102657920D02*
X307424393Y-103086230D01*
X307423961Y-106757290D02*
X304158017Y-106755230D01*
X309921449Y-102655570D02*
X307449377Y-102657920D01*
X307429889Y-106757290D02*
X307424393Y-106636130D01*
X307424105Y-106757290D02*
X307423961Y-106757290D01*
X307429889Y-106757290D02*
X307424105Y-106757290D01*
X312804041Y-102657910D02*
X309921449Y-102655570D01*
X315686633Y-102662350D02*
X312804041Y-102657910D01*
X318569201Y-102668860D02*
X315686633Y-102662350D01*
X320875241Y-102675540D02*
X318569201Y-102668860D01*
X323181281Y-102683510D02*
X320875241Y-102675540D01*
X325487273Y-102692760D02*
X323181281Y-102683510D01*
X327793241Y-102703290D02*
X325487273Y-102692760D01*
X330099184Y-102715070D02*
X327793241Y-102703290D01*
X332405104Y-102728090D02*
X330099184Y-102715070D01*
X334710976Y-102742350D02*
X332405104Y-102728090D01*
X337016824Y-102757820D02*
X334710976Y-102742350D01*
X339322600Y-102774490D02*
X337016824Y-102757820D01*
X341628352Y-102792360D02*
X339322600Y-102774490D01*
X343934032Y-102811400D02*
X341628352Y-102792360D01*
X346239688Y-102831610D02*
X343934032Y-102811400D01*
X348545248Y-102852970D02*
X346239688Y-102831610D01*
X350850760Y-102875470D02*
X348545248Y-102852970D01*
X353156224Y-102899100D02*
X350850760Y-102875470D01*
X355461592Y-102923840D02*
X353156224Y-102899100D01*
X357766912Y-102949670D02*
X355461592Y-102923840D01*
X360072136Y-102976600D02*
X357766912Y-102949670D01*
X362377264Y-103004600D02*
X360072136Y-102976600D01*
X364682320Y-103033660D02*
X362377264Y-103004600D01*
X366987304Y-103063760D02*
X364682320Y-103033660D01*
X369292192Y-103094910D02*
X366987304Y-103063760D01*
X371596960Y-103127070D02*
X369292192Y-103094910D01*
X373901656Y-103160240D02*
X371596960Y-103127070D01*
X376206232Y-103194410D02*
X373901656Y-103160240D01*
X378510712Y-103229560D02*
X376206232Y-103194410D01*
X380239000Y-103256560D02*
X378510712Y-103229560D01*
X381391144Y-103274860D02*
X380239000Y-103256560D01*
X382543264Y-103293390D02*
X381391144Y-103274860D01*
X383695360Y-103312160D02*
X382543264Y-103293390D01*
X384847432Y-103331160D02*
X383695360Y-103312160D01*
X385999480Y-103350380D02*
X384847432Y-103331160D01*
X387151504Y-103369820D02*
X385999480Y-103350380D01*
X388303480Y-103389480D02*
X387151504Y-103369820D01*
X389455456Y-103409350D02*
X388303480Y-103389480D01*
X390607408Y-103429440D02*
X389455456Y-103409350D01*
X391759312Y-103449720D02*
X390607408Y-103429440D01*
X392911216Y-103470210D02*
X391759312Y-103449720D01*
X394063072Y-103490900D02*
X392911216Y-103470210D01*
X395214928Y-103511780D02*
X394063072Y-103490900D01*
X395790856Y-103522300D02*
X395214928Y-103511780D01*
X396366760Y-103532850D02*
X395790856Y-103522300D01*
X396942664Y-103543460D02*
X396366760Y-103532850D01*
X397518568Y-103554110D02*
X396942664Y-103543460D01*
X398094448Y-103564810D02*
X397518568Y-103554110D01*
X398670328Y-103575550D02*
X398094448Y-103564810D01*
X399246208Y-103586340D02*
X398670328Y-103575550D01*
X399822088Y-103597170D02*
X399246208Y-103586340D01*
X400397968Y-103608050D02*
X399822088Y-103597170D01*
X400973848Y-103618970D02*
X400397968Y-103608050D01*
X401549704Y-103629930D02*
X400973848Y-103618970D01*
X402125560Y-103640940D02*
X401549704Y-103629930D01*
X402701416Y-103651990D02*
X402125560Y-103640940D01*
X403277248Y-103663080D02*
X402701416Y-103651990D01*
X403853104Y-103674200D02*
X403277248Y-103663080D01*
X404428936Y-103685370D02*
X403853104Y-103674200D01*
X405004768Y-103696580D02*
X404428936Y-103685370D01*
X405580600Y-103707830D02*
X405004768Y-103696580D01*
X406156408Y-103719120D02*
X405580600Y-103707830D01*
X406732240Y-103730450D02*
X406156408Y-103719120D01*
X407308048Y-103741810D02*
X406732240Y-103730450D01*
X407883856Y-103753210D02*
X407308048Y-103741810D01*
X408459664Y-103764650D02*
X407883856Y-103753210D01*
X409035448Y-103776130D02*
X408459664Y-103764650D01*
X409611256Y-103787640D02*
X409035448Y-103776130D01*
X410187040Y-103799190D02*
X409611256Y-103787640D01*
X410762824Y-103810770D02*
X410187040Y-103799190D01*
X411338608Y-103822390D02*
X410762824Y-103810770D01*
X411914392Y-103834040D02*
X411338608Y-103822390D01*
X412490152Y-103845730D02*
X411914392Y-103834040D01*
X413065936Y-103857450D02*
X412490152Y-103845730D01*
X413641696Y-103869200D02*
X413065936Y-103857450D01*
X414217456Y-103880980D02*
X413641696Y-103869200D01*
X414793216Y-103892800D02*
X414217456Y-103880980D01*
X415368976Y-103904650D02*
X414793216Y-103892800D01*
X415944736Y-103916530D02*
X415368976Y-103904650D01*
X416520472Y-103928440D02*
X415944736Y-103916530D01*
X417096232Y-103940370D02*
X416520472Y-103928440D01*
X417671968Y-103952350D02*
X417096232Y-103940370D01*
X418247704Y-103964340D02*
X417671968Y-103952350D01*
X418823440Y-103976370D02*
X418247704Y-103964340D01*
X419399152Y-103988420D02*
X418823440Y-103976370D01*
X419974888Y-104000500D02*
X419399152Y-103988420D01*
X420550600Y-104012610D02*
X419974888Y-104000500D01*
X421126336Y-104024750D02*
X420550600Y-104012610D01*
X421702048Y-104036910D02*
X421126336Y-104024750D01*
X422277760Y-104049100D02*
X421702048Y-104036910D01*
X422853472Y-104061310D02*
X422277760Y-104049100D01*
X423429184Y-104073550D02*
X422853472Y-104061310D01*
X424004872Y-104085810D02*
X423429184Y-104073550D01*
X424580584Y-104098100D02*
X424004872Y-104085810D01*
X425156272Y-104110410D02*
X424580584Y-104098100D01*
X425731984Y-104122740D02*
X425156272Y-104110410D01*
X426307672Y-104135090D02*
X425731984Y-104122740D01*
X426883360Y-104147470D02*
X426307672Y-104135090D01*
X427459048Y-104159870D02*
X426883360Y-104147470D01*
X428034736Y-104172280D02*
X427459048Y-104159870D01*
X428610424Y-104184730D02*
X428034736Y-104172280D01*
X429186088Y-104197180D02*
X428610424Y-104184730D01*
X429761776Y-104209660D02*
X429186088Y-104197180D01*
X430337440Y-104222160D02*
X429761776Y-104209660D01*
X430913128Y-104234670D02*
X430337440Y-104222160D01*
X431488792Y-104247210D02*
X430913128Y-104234670D01*
X432064456Y-104259760D02*
X431488792Y-104247210D01*
X432640120Y-104272330D02*
X432064456Y-104259760D01*
X433215784Y-104284920D02*
X432640120Y-104272330D01*
X433791448Y-104297520D02*
X433215784Y-104284920D01*
X434367112Y-104310140D02*
X433791448Y-104297520D01*
X434942776Y-104322770D02*
X434367112Y-104310140D01*
X435518416Y-104335420D02*
X434942776Y-104322770D01*
X436094080Y-104348080D02*
X435518416Y-104335420D01*
X436669744Y-104360750D02*
X436094080Y-104348080D01*
X437245384Y-104373440D02*
X436669744Y-104360750D01*
X437821024Y-104386140D02*
X437245384Y-104373440D01*
X438396688Y-104398850D02*
X437821024Y-104386140D01*
X438972328Y-104411580D02*
X438396688Y-104398850D01*
X439547968Y-104424320D02*
X438972328Y-104411580D01*
X440123608Y-104437070D02*
X439547968Y-104424320D01*
X440699248Y-104449820D02*
X440123608Y-104437070D01*
X441274888Y-104462590D02*
X440699248Y-104449820D01*
X441850528Y-104475370D02*
X441274888Y-104462590D01*
X442426168Y-104488160D02*
X441850528Y-104475370D01*
X443001808Y-104500960D02*
X442426168Y-104488160D01*
X443577448Y-104513760D02*
X443001808Y-104500960D01*
X444153088Y-104526570D02*
X443577448Y-104513760D01*
X444728704Y-104539390D02*
X444153088Y-104526570D01*
X445304344Y-104552210D02*
X444728704Y-104539390D01*
X445879984Y-104565050D02*
X445304344Y-104552210D01*
X446455600Y-104577880D02*
X445879984Y-104565050D01*
X447031240Y-104590730D02*
X446455600Y-104577880D01*
X447606856Y-104603570D02*
X447031240Y-104590730D01*
X448182496Y-104616420D02*
X447606856Y-104603570D01*
X448758112Y-104629280D02*
X448182496Y-104616420D01*
X449333752Y-104642140D02*
X448758112Y-104629280D01*
X449909368Y-104655000D02*
X449333752Y-104642140D01*
X450485008Y-104667860D02*
X449909368Y-104655000D01*
X451060624Y-104680730D02*
X450485008Y-104667860D01*
X451636240Y-104693590D02*
X451060624Y-104680730D01*
X452211880Y-104706460D02*
X451636240Y-104693590D01*
X452787496Y-104719330D02*
X452211880Y-104706460D01*
X453363112Y-104732200D02*
X452787496Y-104719330D01*
X453938752Y-104745070D02*
X453363112Y-104732200D01*
X454514368Y-104757930D02*
X453938752Y-104745070D01*
X455089984Y-104770800D02*
X454514368Y-104757930D01*
X455665624Y-104783660D02*
X455089984Y-104770800D01*
X456241240Y-104796520D02*
X455665624Y-104783660D01*
X456816856Y-104809380D02*
X456241240Y-104796520D01*
X457392472Y-104822230D02*
X456816856Y-104809380D01*
X457968112Y-104835080D02*
X457392472Y-104822230D01*
X458543728Y-104847930D02*
X457968112Y-104835080D01*
X459119344Y-104860770D02*
X458543728Y-104847930D01*
X459694960Y-104873600D02*
X459119344Y-104860770D01*
X460270576Y-104886430D02*
X459694960Y-104873600D01*
X460846192Y-104899250D02*
X460270576Y-104886430D01*
X461421808Y-104912060D02*
X460846192Y-104899250D01*
X461997424Y-104924870D02*
X461421808Y-104912060D01*
X462573040Y-104937670D02*
X461997424Y-104924870D01*
X463148656Y-104950460D02*
X462573040Y-104937670D01*
X463724272Y-104963240D02*
X463148656Y-104950460D01*
X464299888Y-104976010D02*
X463724272Y-104963240D01*
X464875504Y-104988770D02*
X464299888Y-104976010D01*
X465451120Y-105001520D02*
X464875504Y-104988770D01*
X466026712Y-105014260D02*
X465451120Y-105001520D01*
X466602328Y-105026980D02*
X466026712Y-105014260D01*
X467177944Y-105039700D02*
X466602328Y-105026980D01*
X467753560Y-105052400D02*
X467177944Y-105039700D01*
X468329152Y-105065090D02*
X467753560Y-105052400D01*
X468904768Y-105077760D02*
X468329152Y-105065090D01*
X469480360Y-105090420D02*
X468904768Y-105077760D01*
X470055976Y-105103060D02*
X469480360Y-105090420D01*
X470631568Y-105115690D02*
X470055976Y-105103060D01*
X471207160Y-105128310D02*
X470631568Y-105115690D01*
X471782776Y-105140910D02*
X471207160Y-105128310D01*
X472358368Y-105153490D02*
X471782776Y-105140910D01*
X472933960Y-105166050D02*
X472358368Y-105153490D01*
X473509552Y-105178590D02*
X472933960Y-105166050D01*
X474085144Y-105191120D02*
X473509552Y-105178590D01*
X474660736Y-105203630D02*
X474085144Y-105191120D01*
X475236328Y-105216120D02*
X474660736Y-105203630D01*
X475811920Y-105228580D02*
X475236328Y-105216120D01*
X476387512Y-105241030D02*
X475811920Y-105228580D01*
X476963104Y-105253460D02*
X476387512Y-105241030D01*
X477538672Y-105265860D02*
X476963104Y-105253460D01*
X478114264Y-105278250D02*
X477538672Y-105265860D01*
X478689856Y-105290610D02*
X478114264Y-105278250D01*
X479265424Y-105302940D02*
X478689856Y-105290610D01*
X479840992Y-105315260D02*
X479265424Y-105302940D01*
X480416584Y-105327550D02*
X479840992Y-105315260D01*
X480992152Y-105339820D02*
X480416584Y-105327550D01*
X481567720Y-105352060D02*
X480992152Y-105339820D01*
X482143288Y-105364270D02*
X481567720Y-105352060D01*
X482718880Y-105376460D02*
X482143288Y-105364270D01*
X483294424Y-105388620D02*
X482718880Y-105376460D01*
X483869992Y-105400760D02*
X483294424Y-105388620D01*
X484445560Y-105412860D02*
X483869992Y-105400760D01*
X485021128Y-105424940D02*
X484445560Y-105412860D01*
X485596672Y-105437000D02*
X485021128Y-105424940D01*
X486172240Y-105449020D02*
X485596672Y-105437000D01*
X486747784Y-105461010D02*
X486172240Y-105449020D01*
X487323352Y-105472970D02*
X486747784Y-105461010D01*
X487898896Y-105484900D02*
X487323352Y-105472970D01*
X488474440Y-105496800D02*
X487898896Y-105484900D01*
X489049984Y-105508670D02*
X488474440Y-105496800D01*
X489625528Y-105520510D02*
X489049984Y-105508670D01*
X490201072Y-105532310D02*
X489625528Y-105520510D01*
X490776640Y-105544080D02*
X490201072Y-105532310D01*
X491352160Y-105555820D02*
X490776640Y-105544080D01*
X491927704Y-105567520D02*
X491352160Y-105555820D01*
X492503248Y-105579190D02*
X491927704Y-105567520D01*
X493078816Y-105590830D02*
X492503248Y-105579190D01*
X493654360Y-105602430D02*
X493078816Y-105590830D01*
X494229904Y-105613990D02*
X493654360Y-105602430D01*
X494805448Y-105625520D02*
X494229904Y-105613990D01*
X495381016Y-105637010D02*
X494805448Y-105625520D01*
X495956584Y-105648470D02*
X495381016Y-105637010D01*
X496532128Y-105659890D02*
X495956584Y-105648470D01*
X497107720Y-105671270D02*
X496532128Y-105659890D01*
X497683288Y-105682610D02*
X497107720Y-105671270D01*
X498258856Y-105693920D02*
X497683288Y-105682610D01*
X498834448Y-105705180D02*
X498258856Y-105693920D01*
X499410040Y-105716410D02*
X498834448Y-105705180D01*
X499985632Y-105727600D02*
X499410040Y-105716410D01*
X500561248Y-105738750D02*
X499985632Y-105727600D01*
X501136864Y-105749850D02*
X500561248Y-105738750D01*
X501712480Y-105760920D02*
X501136864Y-105749850D01*
X502288120Y-105771940D02*
X501712480Y-105760920D01*
X503439400Y-105793870D02*
X502288120Y-105771940D01*
X504590752Y-105815620D02*
X503439400Y-105793870D01*
X505742128Y-105837200D02*
X504590752Y-105815620D01*
X506893552Y-105858600D02*
X505742128Y-105837200D01*
X508045024Y-105879830D02*
X506893552Y-105858600D01*
X509196568Y-105900870D02*
X508045024Y-105879830D01*
X510348160Y-105921720D02*
X509196568Y-105900870D01*
X511499824Y-105942380D02*
X510348160Y-105921720D01*
X512651560Y-105962850D02*
X511499824Y-105942380D01*
X513803344Y-105983120D02*
X512651560Y-105962850D01*
X514955224Y-106003190D02*
X513803344Y-105983120D01*
X516107176Y-106023060D02*
X514955224Y-106003190D01*
X517259224Y-106042720D02*
X516107176Y-106023060D01*
X518411344Y-106062170D02*
X517259224Y-106042720D01*
X519563560Y-106081410D02*
X518411344Y-106062170D01*
X520715848Y-106100430D02*
X519563560Y-106081410D01*
X521868256Y-106119220D02*
X520715848Y-106100430D01*
X523020760Y-106137800D02*
X521868256Y-106119220D01*
X524173384Y-106156150D02*
X523020760Y-106137800D01*
X525902488Y-106183240D02*
X524173384Y-106156150D01*
X527631712Y-106209800D02*
X525902488Y-106183240D01*
X529360984Y-106235830D02*
X527631712Y-106209800D01*
X531090184Y-106261310D02*
X529360984Y-106235830D01*
X532819192Y-106286240D02*
X531090184Y-106261310D01*
X534547888Y-106310610D02*
X532819192Y-106286240D01*
X536276200Y-106334410D02*
X534547888Y-106310610D01*
X538004008Y-106357640D02*
X536276200Y-106334410D01*
X539731168Y-106380270D02*
X538004008Y-106357640D01*
X541457632Y-106402320D02*
X539731168Y-106380270D01*
X542608144Y-106416680D02*
X541457632Y-106402320D01*
X543183280Y-106423760D02*
X542608144Y-106416680D01*
X543758392Y-106430770D02*
X543183280Y-106423760D01*
X544908640Y-106444590D02*
X543758392Y-106430770D01*
X546059152Y-106458130D02*
X544908640Y-106444590D01*
X547210240Y-106471400D02*
X546059152Y-106458130D01*
X548362192Y-106484390D02*
X547210240Y-106471400D01*
X549515272Y-106497100D02*
X548362192Y-106484390D01*
X551247640Y-106515630D02*
X549515272Y-106497100D01*
X551825896Y-106521670D02*
X551247640Y-106515630D01*
X552404272Y-106527630D02*
X551825896Y-106521670D01*
X552982480Y-106533520D02*
X552404272Y-106527630D01*
X553560208Y-106539340D02*
X552982480Y-106533520D01*
X554137168Y-106545090D02*
X553560208Y-106539340D01*
X554713048Y-106550760D02*
X554137168Y-106545090D01*
X555287584Y-106556370D02*
X554713048Y-106550760D01*
X555860464Y-106561890D02*
X555287584Y-106556370D01*
X556431736Y-106567350D02*
X555860464Y-106561890D01*
X557002120Y-106572730D02*
X556431736Y-106567350D01*
X557572288Y-106578040D02*
X557002120Y-106572730D01*
X558142984Y-106583270D02*
X557572288Y-106578040D01*
X558714928Y-106588430D02*
X558142984Y-106583270D01*
X559288840Y-106593520D02*
X558714928Y-106588430D01*
X559865440Y-106598530D02*
X559288840Y-106593520D01*
X560445424Y-106603460D02*
X559865440Y-106598530D01*
X561028600Y-106608320D02*
X560445424Y-106603460D01*
X561613936Y-106613110D02*
X561028600Y-106608320D01*
X562200328Y-106617820D02*
X561613936Y-106613110D01*
X562786720Y-106622460D02*
X562200328Y-106617820D01*
X563372032Y-106627020D02*
X562786720Y-106622460D01*
X563955136Y-106631500D02*
X563372032Y-106627020D01*
X564535000Y-106635910D02*
X563955136Y-106631500D01*
X565110616Y-106640240D02*
X564535000Y-106635910D01*
X565682200Y-106644500D02*
X565110616Y-106640240D01*
X566250568Y-106648680D02*
X565682200Y-106644500D01*
X566816656Y-106652780D02*
X566250568Y-106648680D01*
X567381304Y-106656800D02*
X566816656Y-106652780D01*
X567945400Y-106660750D02*
X567381304Y-106656800D01*
X568509856Y-106664620D02*
X567945400Y-106660750D01*
X569075536Y-106668410D02*
X568509856Y-106664620D01*
X571361488Y-106682810D02*
X569075536Y-106668410D01*
X573106744Y-106692790D02*
X571361488Y-106682810D01*
X573695440Y-106695960D02*
X573106744Y-106692790D01*
X574287592Y-106699050D02*
X573695440Y-106695960D01*
X574882048Y-106702060D02*
X574287592Y-106699050D01*
X575477344Y-106704990D02*
X574882048Y-106702060D01*
X576072040Y-106707850D02*
X575477344Y-106704990D01*
X576664720Y-106710620D02*
X576072040Y-106707850D01*
X577253920Y-106713320D02*
X576664720Y-106710620D01*
X577838272Y-106715930D02*
X577253920Y-106713320D01*
X578416288Y-106718470D02*
X577838272Y-106715930D01*
X578987320Y-106720930D02*
X578416288Y-106718470D01*
X579552184Y-106723310D02*
X578987320Y-106720930D01*
X580111864Y-106725600D02*
X579552184Y-106723310D01*
X580667320Y-106727820D02*
X580111864Y-106725600D01*
X581219584Y-106729960D02*
X580667320Y-106727820D01*
X581769568Y-106732020D02*
X581219584Y-106729960D01*
X582318304Y-106734000D02*
X581769568Y-106732020D01*
X582866776Y-106735900D02*
X582318304Y-106734000D01*
X583416424Y-106737710D02*
X582866776Y-106735900D01*
X583969288Y-106739450D02*
X583416424Y-106737710D01*
X585667432Y-106744180D02*
X583969288Y-106739450D01*
X586253488Y-106745600D02*
X585667432Y-106744180D01*
X586852912Y-106746930D02*
X586253488Y-106745600D01*
X587467576Y-106748190D02*
X586852912Y-106746930D01*
X588096304Y-106749360D02*
X587467576Y-106748190D01*
X588735736Y-106750450D02*
X588096304Y-106749360D01*
X589382512Y-106751470D02*
X588735736Y-106750450D01*
X590033104Y-106752400D02*
X589382512Y-106751470D01*
X590682064Y-106753250D02*
X590033104Y-106752400D01*
X591322984Y-106754020D02*
X590682064Y-106753250D01*
X591949360Y-106754710D02*
X591322984Y-106754020D01*
X592555240Y-106755310D02*
X591949360Y-106754710D01*
X592555240Y-106755310D02*
X592555240Y-106755980D01*
X593137888Y-106755840D02*
X592555240Y-106755310D01*
X593696080Y-106756290D02*
X593137888Y-106755840D01*
X593696080Y-106062200D02*
X593696080Y-106756290D01*
D16*
%TO.N,OSC12*%
X613581760Y-106488450D02*
X613581760Y-106488450D01*
D18*
%TO.N,NetCN1_5*%
X618856970Y-105639020D02*
X617236450Y-104018500D01*
X620203160Y-105639020D02*
X618856970Y-105639020D01*
X622830800Y-108266650D02*
X620203160Y-105639020D01*
X622830800Y-108266650D02*
X622830800Y-108825450D01*
%TO.N,NetCN1_6*%
X618270360Y-106171150D02*
X614889560Y-102790350D01*
X619706600Y-106171150D02*
X618270360Y-106171150D01*
X620900400Y-107364950D02*
X619706600Y-106171150D01*
X620900400Y-107364950D02*
X620900400Y-109419150D01*
X622830800Y-111349550D02*
X620900400Y-109419150D01*
X622830800Y-111349550D02*
X622830800Y-111365450D01*
%TO.N,NetCN1_3*%
X613581760Y-100887950D02*
X613581760Y-100957950D01*
X613585200Y-100891390D02*
X613581760Y-100887950D01*
X613585200Y-100891390D02*
X613585200Y-101535650D01*
X614093200Y-102043650D02*
X613585200Y-101535650D01*
X621129000Y-102043650D02*
X614093200Y-102043650D01*
X622830800Y-103745450D02*
X621129000Y-102043650D01*
D17*
%TO.N,CL1B*%
X369807256Y-105983390D02*
X368655592Y-105963100D01*
X142863017Y-107012180D02*
X139404017Y-106992880D01*
X165533129Y-107066600D02*
X165517457Y-106645780D01*
X95049569Y-106200900D02*
X93323513Y-106174220D01*
X376688296Y-106410240D02*
X375536176Y-106391250D01*
X344438296Y-105805760D02*
X343862536Y-105793850D01*
X314503577Y-105157210D02*
X313927961Y-105144380D01*
X515027680Y-103118530D02*
X513299536Y-103094370D01*
X579101776Y-104325930D02*
X578440384Y-104311370D01*
X360594640Y-105815660D02*
X360018880Y-105804790D01*
X256940633Y-103928500D02*
X256364873Y-103917570D01*
X268454753Y-104155290D02*
X267879065Y-104143600D01*
X160156817Y-107065410D02*
X156698129Y-107060640D01*
X304182641Y-104616490D02*
X303607025Y-104603650D01*
X271908713Y-104226100D02*
X271333049Y-104214220D01*
X489071824Y-103128860D02*
X486766336Y-103109210D01*
X543793240Y-103906750D02*
X543215296Y-103895890D01*
X256364873Y-103917570D02*
X255789137Y-103906700D01*
X542637424Y-103885070D02*
X542059720Y-103874300D01*
X48036041Y-105319680D02*
X47526641Y-105308850D01*
X449309440Y-107065930D02*
X446427088Y-107062590D01*
X308747537Y-105028750D02*
X308171945Y-105015900D01*
X64551713Y-105660320D02*
X63988217Y-105649170D01*
X573327640Y-104199460D02*
X572732728Y-104186550D01*
X367472152Y-106252220D02*
X366320248Y-106231530D01*
X362897680Y-105858730D02*
X362321920Y-105848030D01*
X299002145Y-104501080D02*
X298426529Y-104488290D01*
X341596816Y-105436400D02*
X341021176Y-105424350D01*
X77786417Y-105911630D02*
X76633001Y-105890640D01*
X29019377Y-104508930D02*
X28435049Y-104521940D01*
X260395001Y-103994900D02*
X259819289Y-103983730D01*
X410110456Y-106852010D02*
X407804920Y-106828710D01*
X181486241Y-102693470D02*
X178603841Y-102682040D01*
X479862328Y-102747730D02*
X476403232Y-102726070D01*
X72012545Y-105804710D02*
X71434625Y-105793760D01*
X313352345Y-105131550D02*
X312776753Y-105118710D01*
X363473464Y-105869380D02*
X362897680Y-105858730D01*
X502904824Y-103271320D02*
X501175912Y-103251290D01*
X273672713Y-103952430D02*
X273096977Y-103940460D01*
X296084537Y-104746660D02*
X295508945Y-104733920D01*
X78939233Y-105932410D02*
X77786417Y-105911630D01*
X446429584Y-106752720D02*
X443548456Y-106747320D01*
X469477936Y-103001120D02*
X466020640Y-102988020D01*
X254061857Y-103874330D02*
X253486097Y-103863630D01*
X81243281Y-105973360D02*
X80091497Y-105952990D01*
X538597360Y-103810740D02*
X537444544Y-103789950D01*
X46482617Y-105286560D02*
X45946145Y-105275050D01*
X63952889Y-105958700D02*
X63389801Y-105947520D01*
X70822817Y-106092320D02*
X70245017Y-106081290D01*
X520210264Y-103194300D02*
X518483080Y-103168500D01*
X594755272Y-104673880D02*
X594270664Y-104663040D01*
X497717800Y-103213090D02*
X495988624Y-103194940D01*
X84696329Y-106033210D02*
X83545625Y-106013470D01*
X67937849Y-106036840D02*
X67363193Y-106025680D01*
X282845729Y-104457090D02*
X282270113Y-104444710D01*
X494277112Y-102867640D02*
X492547240Y-102850780D01*
X565813000Y-104349190D02*
X565286080Y-104338120D01*
X318532865Y-105246850D02*
X317957249Y-105234070D01*
X294933353Y-104721180D02*
X294357761Y-104708460D01*
X450866320Y-103076580D02*
X450850648Y-102655760D01*
X305869577Y-104964480D02*
X305293985Y-104951620D01*
X589645744Y-104559740D02*
X589089376Y-104547340D01*
X509842456Y-103047760D02*
X508113568Y-103025320D01*
X403194064Y-106778790D02*
X400888744Y-106752190D01*
X382476784Y-106191990D02*
X380173000Y-106156150D01*
X75478889Y-105869450D02*
X74324057Y-105848060D01*
X244879769Y-103399330D02*
X243727745Y-103379560D01*
X542059720Y-103874300D02*
X540904888Y-103852910D01*
X319148057Y-104950180D02*
X318572465Y-104937410D01*
X332962432Y-105252880D02*
X332386816Y-105240460D01*
X333538048Y-105265270D02*
X332962432Y-105252880D01*
X320874833Y-104988440D02*
X320299241Y-104975700D01*
X39912473Y-105454250D02*
X39260057Y-105439930D01*
X32109473Y-104971750D02*
X31483265Y-104957860D01*
X350807416Y-105625170D02*
X350231752Y-105613620D01*
X560617792Y-104240440D02*
X560000920Y-104227620D01*
X594270664Y-104663040D02*
X593783752Y-104652150D01*
X423956728Y-106657910D02*
X421651888Y-106641550D01*
X33383753Y-105000000D02*
X32743073Y-104985800D01*
X57579185Y-105829780D02*
X56963609Y-105817050D01*
X323752793Y-105052000D02*
X323177201Y-105039310D01*
X55728857Y-105791410D02*
X55115129Y-105778630D01*
X353075056Y-105980550D02*
X352499224Y-105969140D01*
X545526976Y-103939590D02*
X544949152Y-103928600D01*
X54543665Y-105456440D02*
X53941865Y-105443860D01*
X51601361Y-105705090D02*
X51060257Y-105693730D01*
X237362609Y-103584490D02*
X236210753Y-103566210D01*
X339832408Y-105709640D02*
X339256696Y-105697500D01*
X571022896Y-104149600D02*
X570475888Y-104137840D01*
X63389801Y-105947520D02*
X62826353Y-105936300D01*
X336991744Y-105339200D02*
X336416128Y-105326940D01*
X26190785Y-104571950D02*
X25652561Y-104583950D01*
X298386905Y-104797730D02*
X297811313Y-104784950D01*
X499466584Y-102922100D02*
X497736808Y-102903310D01*
X414721672Y-106895220D02*
X412416040Y-106874190D01*
X115784201Y-106477610D02*
X114055241Y-106457790D01*
X354837328Y-105705000D02*
X354261616Y-105693710D01*
X419333080Y-106933830D02*
X417027352Y-106915110D01*
X73168481Y-105826470D02*
X72590537Y-105815610D01*
X93871121Y-106492840D02*
X92144801Y-106465810D01*
X35339225Y-105043260D02*
X34682969Y-105028750D01*
X121530017Y-106848950D02*
X119800169Y-106831220D01*
X262157081Y-103719110D02*
X261581249Y-103707820D01*
X303567209Y-104913090D02*
X302991617Y-104900250D01*
X417042280Y-106605290D02*
X414737512Y-106585420D01*
X362288800Y-106157600D02*
X361712896Y-106146860D01*
X35959121Y-105367260D02*
X35299865Y-105352700D01*
X544949152Y-103928600D02*
X544371232Y-103917650D01*
X118070369Y-106812860D02*
X116340617Y-106793850D01*
X302991617Y-104900250D02*
X302416025Y-104887410D01*
X587948728Y-104521940D02*
X587364376Y-104508930D01*
X373232032Y-106352600D02*
X372080008Y-106332940D01*
X286299377Y-104531780D02*
X285723785Y-104519280D01*
X329470000Y-105487520D02*
X328894336Y-105474990D01*
X257516369Y-103939460D02*
X256940633Y-103928500D01*
X365168392Y-106210640D02*
X364592464Y-106200130D01*
X327167369Y-105437280D02*
X326591729Y-105424680D01*
X337567384Y-105351440D02*
X336991744Y-105339200D01*
X320835353Y-105297890D02*
X320259737Y-105285140D01*
X58226153Y-105532860D02*
X57615977Y-105520280D01*
X558157624Y-104189500D02*
X557555632Y-104177140D01*
X265576337Y-104097190D02*
X265000649Y-104085670D01*
X534020200Y-103419230D02*
X532868896Y-103399280D01*
X43094873Y-105213440D02*
X42487001Y-105200210D01*
X346741336Y-105853110D02*
X346165552Y-105841320D01*
X266727713Y-104120320D02*
X266152025Y-104108740D01*
X374384104Y-106372040D02*
X373232032Y-106352600D01*
X577780576Y-104296860D02*
X577123720Y-104282430D01*
X275938241Y-104310100D02*
X275362601Y-104298010D01*
X335226760Y-105611820D02*
X334651072Y-105599480D01*
X398583496Y-106724510D02*
X396278320Y-106695770D01*
X132485609Y-106945840D02*
X129026129Y-106918170D01*
X254094977Y-103564760D02*
X253519073Y-103554060D01*
X550734904Y-103730200D02*
X550165336Y-103719030D01*
X316845713Y-104899040D02*
X316270121Y-104886230D01*
X30864809Y-104944130D02*
X30254393Y-104930570D01*
X262697873Y-104039980D02*
X262122161Y-104028650D01*
X293821529Y-104386300D02*
X293245889Y-104373600D01*
X278854217Y-104061440D02*
X278278505Y-104049220D01*
X29612753Y-104495730D02*
X29019377Y-104508930D01*
X569939320Y-104126330D02*
X569412568Y-104115070D01*
X387058552Y-106570400D02*
X384753856Y-106536530D01*
X407823496Y-106518940D02*
X405518920Y-106494530D01*
X568385608Y-104093210D02*
X567881200Y-104082520D01*
X222386849Y-103366110D02*
X220082585Y-103336320D01*
X421638856Y-106951380D02*
X419333080Y-106933830D01*
X275399921Y-103988520D02*
X274824185Y-103976460D01*
X62261585Y-105925010D02*
X61694561Y-105913640D01*
X523635520Y-103557150D02*
X521909584Y-103530300D01*
X354261616Y-105693710D02*
X353685904Y-105682380D01*
X312776753Y-105118710D02*
X312201137Y-105105870D01*
X286913777Y-104234840D02*
X286338113Y-104222320D01*
X372080008Y-106332940D02*
X370928008Y-106313070D01*
X24602657Y-104607390D02*
X24090737Y-104618830D01*
X550165336Y-103719030D02*
X549593800Y-103707860D01*
X536323960Y-103459780D02*
X535171864Y-103439400D01*
X25123217Y-104595770D02*
X24602657Y-104607390D01*
X542092864Y-103564730D02*
X540937744Y-103543330D01*
X358257616Y-106081460D02*
X357681760Y-106070410D01*
X44271617Y-105238950D02*
X43689689Y-105226350D01*
X300689249Y-104848940D02*
X300113657Y-104836130D01*
X248335649Y-103459880D02*
X247183721Y-103439490D01*
X146321897Y-107028650D02*
X142863017Y-107012180D01*
X574555432Y-104226210D02*
X573935608Y-104212690D01*
X32069921Y-105281200D02*
X31443713Y-105267300D01*
X550699888Y-104039740D02*
X550130440Y-104028570D01*
X30214793Y-105240010D02*
X29612753Y-105226630D01*
X31443713Y-105267300D02*
X30825209Y-105253570D01*
X224691041Y-103396930D02*
X222386849Y-103366110D01*
X393973240Y-106665970D02*
X391668256Y-106635140D01*
X544371232Y-103917650D02*
X543793240Y-103906750D01*
X269066681Y-103857490D02*
X268490897Y-103845770D01*
X29059049Y-104903990D02*
X28474721Y-104890990D01*
X581083912Y-104369660D02*
X580424656Y-104355100D01*
X27334121Y-104865580D02*
X26777777Y-104853180D01*
X354802528Y-106014540D02*
X354226696Y-106003250D01*
X308211833Y-104706460D02*
X307636217Y-104693610D01*
X539750776Y-103831720D02*
X538597360Y-103810740D01*
X251215385Y-103511720D02*
X250639457Y-103501250D01*
X34682969Y-105028750D02*
X34030769Y-105014320D01*
X391692712Y-106325430D02*
X389388616Y-106293580D01*
X49042745Y-105340990D02*
X48540329Y-105330370D01*
X303607025Y-104603650D02*
X303031409Y-104590810D01*
X419347072Y-106624010D02*
X417042280Y-106605290D01*
X289792049Y-104297680D02*
X289216409Y-104285080D01*
X33991313Y-105323770D02*
X33344297Y-105309440D01*
X259819289Y-103983730D02*
X259243577Y-103972600D01*
X342711064Y-105769930D02*
X342135328Y-105757930D01*
X82394633Y-105993520D02*
X81243281Y-105973360D01*
X66789977Y-106014500D02*
X66218417Y-106003330D01*
X262732913Y-103730440D02*
X262157081Y-103719110D01*
X36659513Y-105072400D02*
X35998457Y-105057810D01*
X259277873Y-103663050D02*
X258702017Y-103651960D01*
X324289145Y-105374120D02*
X323713505Y-105361450D01*
X30825209Y-105253570D02*
X30214793Y-105240010D01*
X197036705Y-103098350D02*
X194731889Y-103080810D01*
X65648873Y-105992160D02*
X65081561Y-105981000D01*
X405518920Y-106494530D02*
X403214392Y-106469030D01*
X288026201Y-104569380D02*
X287450585Y-104556830D01*
X558767776Y-104202080D02*
X558157624Y-104189500D01*
X405499456Y-106804300D02*
X403194064Y-106778790D01*
X310514201Y-104757880D02*
X309938609Y-104745030D01*
X370928008Y-106313070D02*
X369776032Y-106292990D01*
X317421305Y-104911840D02*
X316845713Y-104899040D01*
X362321920Y-105848030D02*
X361746160Y-105837280D01*
X369776032Y-106292990D02*
X368624080Y-106272710D01*
X313967753Y-104834950D02*
X313392161Y-104822110D01*
X68513633Y-106048000D02*
X67937849Y-106036840D01*
X69090257Y-106059130D02*
X68513633Y-106048000D01*
X281694497Y-104432350D02*
X281118881Y-104420020D01*
X524814328Y-103265680D02*
X523663576Y-103247490D01*
X548411344Y-103995060D02*
X547835680Y-103983910D01*
X70856801Y-105782770D02*
X70279145Y-105771740D01*
X246031745Y-103419300D02*
X244879769Y-103399330D01*
X563617864Y-104303120D02*
X563035096Y-104290910D01*
X61730393Y-105604120D02*
X61160345Y-105592640D01*
X263308721Y-103741810D02*
X262732913Y-103730440D01*
X393996928Y-106356250D02*
X391692712Y-106325430D01*
X275362601Y-104298010D02*
X274786961Y-104285960D01*
X124989809Y-106882450D02*
X123259913Y-106866030D01*
X42487001Y-105200210D02*
X41867225Y-105186700D01*
X258702017Y-103651960D02*
X258126161Y-103640900D01*
X350231752Y-105613620D02*
X349656064Y-105602040D01*
X602728736Y-104998203D02*
X599000000Y-104998203D01*
X443548456Y-106747320D02*
X440667328Y-106739890D01*
X285186785Y-104197340D02*
X284611097Y-104184880D01*
X54506441Y-105765930D02*
X53904593Y-105753360D01*
X596940136Y-104697960D02*
X596211832Y-104706460D01*
X584940064Y-104455060D02*
X584313832Y-104441160D01*
X351383104Y-105636690D02*
X350807416Y-105625170D01*
X273635681Y-104261930D02*
X273060017Y-104249960D01*
X24130553Y-104794100D02*
X23627033Y-104782840D01*
X164171753Y-106756770D02*
X159006185Y-106754280D01*
X330045664Y-105500040D02*
X329470000Y-105487520D01*
X110597729Y-106416300D02*
X108869201Y-106394650D01*
X191862665Y-102750710D02*
X189556841Y-102735850D01*
X56382857Y-105494740D02*
X55765961Y-105481920D01*
X39951569Y-105144790D02*
X39299177Y-105130480D01*
X339869896Y-105400150D02*
X339294256Y-105388010D01*
X134804393Y-106652920D02*
X131346473Y-106627100D01*
X260429561Y-103685350D02*
X259853729Y-103674180D01*
X52765889Y-105419240D02*
X52195337Y-105407280D01*
X307636217Y-104693610D02*
X307060625Y-104680750D01*
X429142720Y-106690310D02*
X426261616Y-106673070D01*
X264424961Y-104074190D02*
X263849273Y-104062750D01*
X359409352Y-106103430D02*
X358833472Y-106092470D01*
X298426529Y-104488290D02*
X297850913Y-104475510D01*
X49508873Y-105661100D02*
X49005065Y-105650470D01*
X39260057Y-105439930D02*
X38603177Y-105425500D01*
X267915113Y-103834080D02*
X267339329Y-103822420D01*
X50533265Y-105682660D02*
X50017217Y-105671810D01*
X298962473Y-104810530D02*
X298386905Y-104797730D01*
X190122161Y-103049290D02*
X187817273Y-103035340D01*
X525936184Y-103593750D02*
X524785912Y-103575330D01*
X301840433Y-104874580D02*
X301264841Y-104861760D01*
X300113657Y-104836130D02*
X299538065Y-104823320D01*
X564225808Y-104005590D02*
X563655184Y-103993630D01*
X39299177Y-105130480D02*
X38642369Y-105116050D01*
X322562249Y-105336060D02*
X321986609Y-105323350D01*
X268490897Y-103845770D02*
X267915113Y-103834080D01*
X73713041Y-106146860D02*
X73135025Y-106136040D01*
X542670736Y-103575500D02*
X542092864Y-103564730D01*
X69124625Y-105749580D02*
X68548097Y-105738450D01*
X292630985Y-104670360D02*
X292055393Y-104657690D01*
X328318672Y-105462440D02*
X327743033Y-105449870D01*
X107693873Y-106689620D02*
X105965057Y-106666990D01*
X267879065Y-104143600D02*
X267303401Y-104131940D01*
X529386688Y-103650330D02*
X528236488Y-103631250D01*
X452191768Y-107067180D02*
X449309440Y-107065930D01*
X340983856Y-105733840D02*
X340408144Y-105721750D01*
X355413040Y-105716250D02*
X354837328Y-105705000D01*
X450851080Y-106755770D02*
X449310688Y-106756050D01*
X334689256Y-105290010D02*
X334113664Y-105277650D01*
X45946145Y-105275050D02*
X45399233Y-105263290D01*
X561268648Y-103943730D02*
X560654920Y-103930950D01*
X359985232Y-106114350D02*
X359409352Y-106103430D01*
X269642441Y-103869250D02*
X269066681Y-103857490D01*
X53311385Y-105740940D02*
X52728569Y-105728730D01*
X66253337Y-105693790D02*
X65683889Y-105682620D01*
X269030417Y-104167010D02*
X268454753Y-104155290D01*
X210864857Y-103227830D02*
X208560281Y-103203420D01*
X423944656Y-106967740D02*
X421638856Y-106951380D01*
X73746353Y-105837290D02*
X73168481Y-105826470D01*
X50054753Y-105362320D02*
X49546481Y-105351620D01*
X271945481Y-103916600D02*
X271369721Y-103904720D01*
X373262296Y-106042970D02*
X372110584Y-106023320D01*
X51060257Y-105693730D02*
X50533265Y-105682660D01*
X57615977Y-105520280D02*
X57000545Y-105507550D01*
X102508145Y-106620000D02*
X100780097Y-106595660D01*
X34643561Y-105338190D02*
X33991313Y-105323770D01*
X70245017Y-106081290D02*
X69667481Y-106070230D01*
X396278320Y-106695770D02*
X393973240Y-106665970D01*
X33344297Y-105309440D02*
X32703569Y-105295250D01*
X565323496Y-104028630D02*
X564782392Y-104017270D01*
X292055393Y-104657690D02*
X291479777Y-104645030D01*
X437786176Y-106730460D02*
X434905000Y-106719030D01*
X305293985Y-104951620D02*
X304718393Y-104938770D01*
X374414032Y-106062400D02*
X373262296Y-106042970D01*
X521909584Y-103530300D02*
X520183312Y-103503970D01*
X518456656Y-103478180D02*
X516729688Y-103452930D01*
X293782169Y-104695750D02*
X293206577Y-104683050D01*
X258126161Y-103640900D02*
X257550281Y-103629900D01*
X443544712Y-107057200D02*
X440662312Y-107049760D01*
X57000545Y-105507550D02*
X56382857Y-105494740D01*
X60586217Y-105581030D02*
X60006953Y-105569280D01*
X266187761Y-103799210D02*
X265611953Y-103787660D01*
X304142801Y-104925930D02*
X303567209Y-104913090D01*
X258092105Y-103950460D02*
X257516369Y-103939460D01*
X506384488Y-103003470D02*
X504655216Y-102982210D01*
X283421345Y-104469480D02*
X282845729Y-104457090D01*
X528236488Y-103631250D02*
X527086336Y-103612390D01*
X214918697Y-102963420D02*
X212613353Y-102937090D01*
X370958896Y-106003460D02*
X369807256Y-105983390D01*
X78330761Y-106231630D02*
X77177345Y-106210740D01*
X274248449Y-103964430D02*
X273672713Y-103952430D01*
X96775985Y-106227040D02*
X95049569Y-106200900D01*
X546104632Y-103950620D02*
X545526976Y-103939590D01*
X466020640Y-102988020D02*
X462563392Y-102977840D01*
X591781120Y-104607390D02*
X591260560Y-104595770D01*
X347353360Y-105555350D02*
X346777696Y-105543590D01*
X520183312Y-103503970D02*
X518456656Y-103478180D01*
X499446880Y-103231870D02*
X497717800Y-103213090D01*
X250639457Y-103501250D02*
X249487577Y-103480460D01*
X24642449Y-104805530D02*
X24130553Y-104794100D01*
X280581305Y-104098230D02*
X280005617Y-104085940D01*
X323177201Y-105039310D02*
X322601609Y-105026610D01*
X527115448Y-103302740D02*
X525964936Y-103284100D01*
X112881473Y-106753980D02*
X111152105Y-106733130D01*
X338680984Y-105685330D02*
X338105272Y-105673140D01*
X554086504Y-104106870D02*
X553521832Y-104095590D01*
X336378160Y-105636420D02*
X335802448Y-105624130D01*
X496006984Y-102885150D02*
X494277112Y-102867640D01*
X228749033Y-103143640D02*
X226444217Y-103111020D01*
X265611953Y-103787660D02*
X265036169Y-103776140D01*
X294397169Y-104399010D02*
X293821529Y-104386300D01*
X360561112Y-106125230D02*
X359985232Y-106114350D01*
X252334553Y-103842380D02*
X251758769Y-103831820D01*
X252367241Y-103532790D02*
X251791313Y-103522230D01*
X288640745Y-104272490D02*
X288065081Y-104259920D01*
X343286800Y-105781910D02*
X342711064Y-105769930D01*
X562479160Y-103969010D02*
X561877336Y-103956430D01*
X543215296Y-103895890D02*
X542637424Y-103885070D01*
X563072392Y-103981420D02*
X562479160Y-103969010D01*
X175721465Y-102672600D02*
X172839065Y-102665170D01*
X127888313Y-106598530D02*
X126159161Y-106583220D01*
X590192992Y-104571950D02*
X589645744Y-104559740D01*
X247183721Y-103439490D02*
X246031745Y-103419300D01*
X335802448Y-105624130D02*
X335226760Y-105611820D01*
X90994121Y-106447500D02*
X89843585Y-106428970D01*
X557555632Y-104177140D02*
X555797560Y-104141330D01*
X543248728Y-103586320D02*
X542670736Y-103575500D01*
X327781985Y-105140410D02*
X327206369Y-105127820D01*
X551832064Y-104062040D02*
X551267104Y-104050900D01*
X313927961Y-105144380D02*
X313352345Y-105131550D01*
X51097697Y-105384240D02*
X50570753Y-105373170D01*
X315654785Y-105182860D02*
X315079169Y-105170040D01*
X412416040Y-106874190D02*
X410110456Y-106852010D01*
X37282001Y-105396430D02*
X36620201Y-105381840D01*
X551867296Y-103752510D02*
X551302216Y-103741360D01*
X210307937Y-102911850D02*
X208002473Y-102887720D01*
X566329024Y-104360040D02*
X566322136Y-104482970D01*
X255822665Y-103597130D02*
X255246761Y-103586290D01*
X288601793Y-104581950D02*
X288026201Y-104569380D01*
X546682072Y-103961690D02*
X546104632Y-103950620D01*
X294972785Y-104411740D02*
X294397169Y-104399010D01*
X267303401Y-104131940D02*
X266727713Y-104120320D01*
X417027352Y-106915110D02*
X414721672Y-106895220D01*
X194731889Y-103080810D02*
X192427049Y-103064450D01*
X274211321Y-104273930D02*
X273635681Y-104261930D01*
X560000920Y-104227620D02*
X559383232Y-104214810D01*
X253519073Y-103554060D02*
X252943169Y-103543400D01*
X342748096Y-105460430D02*
X342172456Y-105448430D01*
X38603177Y-105425500D02*
X37943369Y-105410990D01*
X432015160Y-107015490D02*
X429132808Y-107000160D01*
X272521241Y-103928510D02*
X271945481Y-103916600D01*
X372110584Y-106023320D02*
X370958896Y-106003460D01*
X37982609Y-105101540D02*
X37321265Y-105086980D01*
X349656064Y-105602040D02*
X349080376Y-105590420D01*
X511571128Y-103070780D02*
X509842456Y-103047760D01*
X582392464Y-104398600D02*
X581740216Y-104384170D01*
X508090696Y-103335050D02*
X506362240Y-103313210D01*
X348468640Y-105888280D02*
X347892880Y-105876590D01*
X524785912Y-103575330D02*
X523635520Y-103557150D01*
X61694561Y-105913640D02*
X61124369Y-105902160D01*
X308171945Y-105015900D02*
X307596353Y-105003040D01*
X326591729Y-105424680D02*
X326016065Y-105412060D01*
X555259384Y-103820200D02*
X554689216Y-103808720D01*
X593292928Y-104641180D02*
X592796560Y-104630080D01*
X332348344Y-105549920D02*
X331772656Y-105537480D01*
X263849273Y-104062750D02*
X263273561Y-104051350D01*
X273060017Y-104249960D02*
X272484377Y-104238010D01*
X287489441Y-104247370D02*
X286913777Y-104234840D01*
X338718640Y-105375850D02*
X338143000Y-105363660D01*
X396301192Y-106386040D02*
X393996928Y-106356250D01*
X25652561Y-104583950D02*
X25123217Y-104595770D01*
X48502553Y-105639850D02*
X47998169Y-105629150D01*
X255246761Y-103586290D02*
X254670881Y-103575500D01*
X365200792Y-105901050D02*
X364625008Y-105890540D01*
X56963609Y-105817050D02*
X56345825Y-105804240D01*
X561231472Y-104253220D02*
X560617792Y-104240440D01*
X62297273Y-105615490D02*
X61730393Y-105604120D01*
X291479777Y-104645030D02*
X290904185Y-104632380D01*
X459109192Y-102660720D02*
X455650504Y-102656450D01*
X56345825Y-105804240D02*
X55728857Y-105791410D01*
X338105272Y-105673140D02*
X337529560Y-105660920D01*
X51638753Y-105395600D02*
X51097697Y-105384240D01*
X107140865Y-106372420D02*
X105412721Y-106349600D01*
X43056137Y-105522900D02*
X42448169Y-105509670D01*
X203391329Y-102842810D02*
X201085697Y-102822060D01*
X561877336Y-103956430D02*
X561268648Y-103943730D01*
X74324057Y-105848060D02*
X73746353Y-105837290D01*
X282270113Y-104444710D02*
X281694497Y-104432350D01*
X69667481Y-106070230D02*
X69090257Y-106059130D01*
X307020761Y-104990180D02*
X306445169Y-104977330D01*
X561840112Y-104265920D02*
X561231472Y-104253220D01*
X377840416Y-106429000D02*
X376688296Y-106410240D01*
X169956689Y-102659770D02*
X167074337Y-102656430D01*
X80091497Y-105952990D02*
X78939233Y-105932410D01*
X296699681Y-104449970D02*
X296124041Y-104437220D01*
X355988752Y-105727460D02*
X355413040Y-105716250D01*
X282308393Y-104135240D02*
X281732705Y-104122880D01*
X339294256Y-105388010D02*
X338718640Y-105375850D01*
X565286080Y-104338120D02*
X564745024Y-104326760D01*
X65683889Y-105682620D02*
X65116673Y-105671460D01*
X60550097Y-105890550D02*
X59970713Y-105878790D01*
X185512361Y-103022620D02*
X182631233Y-103008450D01*
X490801024Y-103144390D02*
X489071824Y-103128860D01*
X116340617Y-106793850D02*
X114610985Y-106774230D01*
X226444217Y-103111020D02*
X224139281Y-103079410D01*
X483308320Y-103082010D02*
X479850472Y-103057570D01*
X139404017Y-106992880D02*
X135944897Y-106970750D01*
X345589792Y-105829500D02*
X345014056Y-105817650D01*
X555797560Y-104141330D02*
X555223432Y-104129720D01*
X378992584Y-106447520D02*
X377840416Y-106429000D01*
X47488697Y-105618320D02*
X46971185Y-105607290D01*
X114610985Y-106774230D02*
X112881473Y-106753980D01*
X290904185Y-104632380D02*
X290328593Y-104619750D01*
X590731216Y-104583950D02*
X590192992Y-104571950D01*
X259243577Y-103972600D02*
X258667841Y-103961510D01*
X340445536Y-105412260D02*
X339869896Y-105400150D01*
X356564488Y-105738630D02*
X355988752Y-105727460D01*
X532868896Y-103399280D02*
X531717880Y-103379540D01*
X349044424Y-105899940D02*
X348468640Y-105888280D01*
X280543265Y-104407710D02*
X279967649Y-104395420D01*
X579763552Y-104340520D02*
X579101776Y-104325930D01*
X309898745Y-105054460D02*
X309323153Y-105041610D01*
X483321592Y-102772180D02*
X479862328Y-102747730D01*
X305333825Y-104642190D02*
X304758233Y-104629340D01*
X585558544Y-104468790D02*
X584940064Y-104455060D01*
X350771800Y-105934700D02*
X350196016Y-105923150D01*
X548985880Y-104006230D02*
X548411344Y-103995060D01*
X536292280Y-103769370D02*
X535140496Y-103749000D01*
X289216409Y-104285080D02*
X288640745Y-104272490D01*
X317957249Y-105234070D02*
X317381633Y-105221280D01*
X310474337Y-105067320D02*
X309898745Y-105054460D01*
X291518993Y-104335580D02*
X290943353Y-104322930D01*
X567881200Y-104082520D02*
X567378712Y-104071890D01*
X375536176Y-106391250D02*
X374384104Y-106372040D01*
X217223969Y-102990830D02*
X214918697Y-102963420D01*
X276513881Y-104322210D02*
X275938241Y-104310100D01*
X50017217Y-105671810D02*
X49508873Y-105661100D01*
X295508945Y-104733920D02*
X294933353Y-104721180D01*
X265000649Y-104085670D02*
X264424961Y-104074190D01*
X306485033Y-104667900D02*
X305909441Y-104655040D01*
X601719136Y-104691923D02*
X601704556Y-104706503D01*
X66824777Y-105704960D02*
X66253337Y-105693790D01*
X452211952Y-102965070D02*
X452191768Y-102965060D01*
X400909912Y-106442440D02*
X398605528Y-106414770D01*
X452191768Y-102655180D02*
X450850648Y-102655760D01*
X330621328Y-105512540D02*
X330045664Y-105500040D01*
X309323153Y-105041610D02*
X308747537Y-105028750D01*
X242575721Y-103360020D02*
X241423649Y-103340690D01*
X320299241Y-104975700D02*
X319723649Y-104962950D01*
X156698129Y-107060640D02*
X153239417Y-107052910D01*
X165517913Y-102965430D02*
X165344441Y-102965310D01*
X135944897Y-106970750D02*
X132485609Y-106945840D01*
X247728161Y-103759260D02*
X246576521Y-103738980D01*
X302455817Y-104577980D02*
X301880201Y-104565150D01*
X86997089Y-106072030D02*
X85846793Y-106052720D01*
X502925800Y-102961560D02*
X501196240Y-102941520D01*
X533989144Y-103728840D02*
X532838152Y-103708890D01*
X284572577Y-104494340D02*
X283996961Y-104481910D01*
X270757409Y-104202370D02*
X270181745Y-104190550D01*
X462563392Y-102977840D02*
X459106192Y-102970600D01*
X173987777Y-102977770D02*
X171106625Y-102971560D01*
X45399233Y-105263290D02*
X44841257Y-105251270D01*
X126719681Y-106898210D02*
X124989809Y-106882450D01*
X545560960Y-103630040D02*
X544983016Y-103619040D01*
X153239417Y-107052910D02*
X149780681Y-107042230D01*
X70279145Y-105771740D02*
X69701705Y-105760680D01*
X255213377Y-103895860D02*
X254637617Y-103885080D01*
X29612753Y-105226630D02*
X29580305Y-105349620D01*
X196474265Y-102784030D02*
X194168489Y-102766780D01*
X205696937Y-102864700D02*
X203391329Y-102842810D01*
X65116673Y-105671460D02*
X64551713Y-105660320D01*
X290328593Y-104619750D02*
X289753001Y-104607130D01*
X272484377Y-104238010D02*
X271908713Y-104226100D01*
X361170400Y-105826500D02*
X360594640Y-105815660D01*
X529416448Y-103340700D02*
X528265936Y-103321610D01*
X63425273Y-105637990D02*
X62861921Y-105626770D01*
X101957177Y-106302240D02*
X100229801Y-106277730D01*
X58189481Y-105842360D02*
X57579185Y-105829780D01*
X278240777Y-104358700D02*
X277665137Y-104346510D01*
X63988217Y-105649170D02*
X63425273Y-105637990D01*
X321410969Y-105310620D02*
X320835353Y-105297890D01*
X278278505Y-104049220D02*
X277702793Y-104037030D01*
X117513233Y-106496820D02*
X115784201Y-106477610D01*
X284035433Y-104172440D02*
X283459745Y-104160020D01*
X566329024Y-104360040D02*
X565813000Y-104349190D01*
X489087472Y-102819050D02*
X486781048Y-102799390D01*
X591260560Y-104595770D02*
X590731216Y-104583950D01*
X235662881Y-103247500D02*
X233358377Y-103211900D01*
X572150728Y-104173940D02*
X571580968Y-104161630D01*
X243121481Y-103679390D02*
X241969745Y-103659960D01*
X276551369Y-104012720D02*
X275975633Y-104000610D01*
X277702793Y-104037030D02*
X277127081Y-104024860D01*
X440662312Y-107049760D02*
X437779936Y-107040320D01*
X486781048Y-102799390D02*
X483321592Y-102772180D01*
X509818984Y-103357490D02*
X508090696Y-103335050D01*
X300153377Y-104526690D02*
X299577761Y-104513880D01*
X283459745Y-104160020D02*
X282884081Y-104147620D01*
X343899400Y-105484350D02*
X343323760Y-105472400D01*
X251791313Y-103522230D02*
X251215385Y-103511720D01*
X124429961Y-106567250D02*
X122700737Y-106550620D01*
X92144801Y-106465810D02*
X90994121Y-106447500D01*
X77177345Y-106210740D02*
X76023305Y-106189650D01*
X246576521Y-103738980D02*
X245424857Y-103718900D01*
X566366560Y-104050550D02*
X565850488Y-104039700D01*
X179750081Y-102996240D02*
X176868905Y-102986000D01*
X212613353Y-102937090D02*
X210307937Y-102911850D01*
X311049929Y-105080170D02*
X310474337Y-105067320D01*
X400888744Y-106752190D02*
X398583496Y-106724510D01*
X580424656Y-104355100D02*
X579763552Y-104340520D01*
X326016065Y-105412060D02*
X325440425Y-105399430D01*
X361136992Y-106136070D02*
X360561112Y-106125230D01*
X285723785Y-104519280D02*
X285148169Y-104506800D01*
X148634489Y-106728160D02*
X145177145Y-106713620D01*
X322026017Y-105013900D02*
X321450425Y-105001180D01*
X316270121Y-104886230D02*
X315694529Y-104873420D01*
X462567904Y-102667960D02*
X459109192Y-102660720D01*
X560654920Y-103930950D02*
X560037952Y-103918120D01*
X295548425Y-104424470D02*
X294972785Y-104411740D01*
X297275297Y-104462740D02*
X296699681Y-104449970D01*
X563655184Y-103993630D02*
X563072392Y-103981420D01*
X346777696Y-105543590D02*
X346202032Y-105531810D01*
X351958816Y-105648170D02*
X351383104Y-105636690D01*
X114055241Y-106457790D02*
X112326425Y-106437350D01*
X389363344Y-106603280D02*
X387058552Y-106570400D01*
X345014056Y-105817650D02*
X344438296Y-105805760D01*
X549559000Y-104017400D02*
X548985880Y-104006230D01*
X347317096Y-105864870D02*
X346741336Y-105853110D01*
X38642369Y-105116050D02*
X37982609Y-105101540D01*
X259853729Y-103674180D02*
X259277873Y-103663050D01*
X497736808Y-102903310D02*
X496006984Y-102885150D01*
X384753856Y-106536530D02*
X382449256Y-106501660D01*
X449310688Y-106756050D02*
X446429584Y-106752720D01*
X357105904Y-106059310D02*
X356530048Y-106048180D01*
X319684097Y-105272390D02*
X319108481Y-105259620D01*
X48540329Y-105330370D02*
X48036041Y-105319680D01*
X258667841Y-103961510D02*
X258092105Y-103950460D01*
X426261616Y-106673070D02*
X423956728Y-106657910D01*
X342135328Y-105757930D02*
X341559592Y-105745900D01*
X469485424Y-102691250D02*
X466026640Y-102678150D01*
X555833656Y-103831810D02*
X555259384Y-103820200D01*
X364049224Y-105879980D02*
X363473464Y-105869380D01*
X49546481Y-105351620D02*
X49042745Y-105340990D01*
X239666225Y-103621760D02*
X238514417Y-103603010D01*
X342172456Y-105448430D02*
X341596816Y-105436400D01*
X495988624Y-103194940D02*
X494259424Y-103177430D01*
X159006185Y-106754280D02*
X155548985Y-106748510D01*
X331196992Y-105525020D02*
X330621328Y-105512540D01*
X284611097Y-104184880D02*
X284035433Y-104172440D01*
X266763545Y-103810800D02*
X266187761Y-103799210D01*
X282884081Y-104147620D02*
X282308393Y-104135240D01*
X350196016Y-105923150D02*
X349620208Y-105911560D01*
X357681760Y-106070410D02*
X357105904Y-106059310D01*
X530536984Y-103669640D02*
X529386688Y-103650330D01*
X327206369Y-105127820D02*
X326630777Y-105115230D01*
X155548985Y-106748510D02*
X152091761Y-106739800D01*
X434905000Y-106719030D02*
X432023848Y-106705640D01*
X233358377Y-103211900D02*
X231053753Y-103177270D01*
X279392009Y-104383160D02*
X278816393Y-104370920D01*
X83545625Y-106013470D02*
X82394633Y-105993520D01*
X353685904Y-105682380D02*
X353110192Y-105671010D01*
X236815097Y-103265670D02*
X235662881Y-103247500D01*
X240817985Y-103640750D02*
X239666225Y-103621760D01*
X250607201Y-103810840D02*
X250031393Y-103800430D01*
X355954192Y-106037010D02*
X355378360Y-106025790D01*
X318572465Y-104937410D02*
X317996873Y-104924630D01*
X243727745Y-103379560D02*
X242575721Y-103360020D01*
X171106625Y-102971560D02*
X168225521Y-102967400D01*
X231603137Y-103495510D02*
X229299185Y-103461650D01*
X103684841Y-106326210D02*
X101957177Y-106302240D01*
X359443144Y-105793870D02*
X358867408Y-105782900D01*
X354226696Y-106003250D02*
X353650864Y-105991920D01*
X320259737Y-105285140D02*
X319684097Y-105272390D01*
X239119409Y-103302720D02*
X237967265Y-103284070D01*
X333499696Y-105574750D02*
X332924032Y-105562340D01*
X550130440Y-104028570D02*
X549559000Y-104017400D01*
X566874904Y-104061260D02*
X566366560Y-104050550D01*
X187250969Y-102722200D02*
X184368617Y-102706870D01*
X98502737Y-106252660D02*
X96775985Y-106227040D01*
X490817344Y-102834580D02*
X489087472Y-102819050D01*
X513299536Y-103094370D02*
X511571128Y-103070780D01*
X577123720Y-104282430D02*
X576471280Y-104268120D01*
X274786961Y-104285960D02*
X274211321Y-104273930D01*
X60006953Y-105569280D02*
X58226153Y-105532860D01*
X317996873Y-104924630D02*
X317421305Y-104911840D01*
X37943369Y-105410990D02*
X37282001Y-105396430D01*
X508113568Y-103025320D02*
X506384488Y-103003470D01*
X65081561Y-105981000D02*
X64516481Y-105969850D01*
X311089793Y-104770740D02*
X310514201Y-104757880D01*
X544404928Y-103608090D02*
X543826816Y-103597190D01*
X547835680Y-103983910D02*
X547259152Y-103972790D01*
X287450585Y-104556830D02*
X286874993Y-104544300D01*
X69701705Y-105760680D02*
X69124625Y-105749580D01*
X122700737Y-106550620D02*
X120971537Y-106533330D01*
X584313832Y-104441160D02*
X583680208Y-104427110D01*
X558804592Y-103892580D02*
X558194296Y-103880000D01*
X571580968Y-104161630D02*
X571022896Y-104149600D01*
X303031409Y-104590810D02*
X302455817Y-104577980D01*
X358833472Y-106092470D02*
X358257616Y-106081460D01*
X86392025Y-106372030D02*
X85241321Y-106352620D01*
X345626368Y-105519990D02*
X345050704Y-105508140D01*
X363440608Y-106178960D02*
X362864704Y-106168310D01*
X412432792Y-106564390D02*
X410128120Y-106542230D01*
X277127081Y-104024860D02*
X276551369Y-104012720D01*
X553557424Y-103786060D02*
X552993952Y-103774840D01*
X297811313Y-104784950D02*
X297235721Y-104772180D01*
X67397897Y-105716130D02*
X66824777Y-105704960D01*
X421651888Y-106641550D02*
X419347072Y-106624010D01*
X264460361Y-103764660D02*
X263884529Y-103753220D01*
X344475064Y-105496260D02*
X343899400Y-105484350D01*
X492530224Y-103160580D02*
X490801024Y-103144390D01*
X292670249Y-104360910D02*
X292094633Y-104348240D01*
X511547032Y-103380500D02*
X509818984Y-103357490D01*
X99052361Y-106570760D02*
X97324913Y-106545320D01*
X299538065Y-104823320D02*
X298962473Y-104810530D01*
X304758233Y-104629340D02*
X304182641Y-104616490D01*
X279967649Y-104395420D02*
X279392009Y-104383160D01*
X389388616Y-106293580D02*
X387084568Y-106260720D01*
X429132808Y-107000160D02*
X426250480Y-106982910D01*
X248879801Y-103779740D02*
X247728161Y-103759260D01*
X592796560Y-104630080D02*
X592293040Y-104618830D01*
X407804920Y-106828710D02*
X405499456Y-106804300D01*
X358867408Y-105782900D02*
X358291672Y-105771900D01*
X26738033Y-104559740D02*
X26190785Y-104571950D01*
X322601609Y-105026610D02*
X322026017Y-105013900D01*
X88693097Y-106410210D02*
X87542585Y-106391230D01*
X323713505Y-105361450D02*
X323137865Y-105348760D01*
X24090737Y-104618830D02*
X23587193Y-104630080D01*
X293206577Y-104683050D02*
X292630985Y-104670360D01*
X299577761Y-104513880D02*
X299002145Y-104501080D01*
X72556937Y-106125180D02*
X71978825Y-106114270D01*
X112326425Y-106437350D02*
X110597729Y-106416300D01*
X324864785Y-105386780D02*
X324289145Y-105374120D01*
X339256696Y-105697500D02*
X338680984Y-105685330D01*
X25163009Y-104817150D02*
X24642449Y-104805530D01*
X279429905Y-104073680D02*
X278854217Y-104061440D01*
X528265936Y-103321610D02*
X527115448Y-103302740D01*
X304718393Y-104938770D02*
X304142801Y-104925930D01*
X315118937Y-104860600D02*
X314543345Y-104847780D01*
X42448169Y-105509670D02*
X41828345Y-105496160D01*
X581740216Y-104384170D02*
X581083912Y-104369660D01*
X59970713Y-105878790D02*
X58189481Y-105842360D01*
X349080376Y-105590420D02*
X348504712Y-105578760D01*
X586168984Y-104482350D02*
X585558544Y-104468790D01*
X459106192Y-102970600D02*
X455648992Y-102966330D01*
X434897536Y-107028890D02*
X432015160Y-107015490D01*
X328894336Y-105474990D02*
X328318672Y-105462440D01*
X578440384Y-104311370D02*
X577780576Y-104296860D01*
X568895080Y-104104040D02*
X568385608Y-104093210D01*
X324328385Y-105064670D02*
X323752793Y-105052000D01*
X67972433Y-105727300D02*
X67397897Y-105716130D01*
X353110192Y-105671010D02*
X352534504Y-105659610D01*
X549593800Y-103707860D02*
X549020560Y-103696680D01*
X527086336Y-103612390D02*
X525936184Y-103593750D01*
X192427049Y-103064450D02*
X190122161Y-103049290D01*
X551302216Y-103741360D02*
X550734904Y-103730200D01*
X564782392Y-104017270D02*
X564225808Y-104005590D01*
X270181745Y-104190550D02*
X269606081Y-104178770D01*
X539783344Y-103522140D02*
X538629640Y-103501150D01*
X337529560Y-105660920D02*
X336953848Y-105648680D01*
X76633001Y-105890640D02*
X75478889Y-105869450D01*
X547259152Y-103972790D02*
X546682072Y-103961690D01*
X87542585Y-106391230D02*
X86392025Y-106372030D01*
X270218201Y-103881040D02*
X269642441Y-103869250D01*
X294357761Y-104708460D02*
X293782169Y-104695750D01*
X231053753Y-103177270D02*
X228749033Y-103143640D01*
X472935328Y-103017090D02*
X469477936Y-103001120D01*
X165518657Y-102967100D02*
X165517457Y-103076580D01*
X357715936Y-105760850D02*
X357140200Y-105749760D01*
X368624080Y-106272710D02*
X367472152Y-106252220D01*
X506362240Y-103313210D02*
X504633616Y-103291960D01*
X271369721Y-103904720D02*
X270793961Y-103892860D01*
X308787425Y-104719320D02*
X308211833Y-104706460D01*
X25692329Y-104828970D02*
X25163009Y-104817150D01*
X564188440Y-104315080D02*
X563617864Y-104303120D01*
X164192009Y-102655180D02*
X164172065Y-103080390D01*
X245424857Y-103718900D02*
X244273169Y-103699040D01*
X164192009Y-102655180D02*
X164192009Y-102655180D01*
X311625545Y-105093020D02*
X311049929Y-105080170D01*
X559420168Y-103905310D02*
X558804592Y-103892580D01*
X367503976Y-105942620D02*
X366352384Y-105921930D01*
X492547240Y-102850780D02*
X490817344Y-102834580D01*
X229299185Y-103461650D02*
X226995161Y-103428780D01*
X321450425Y-105001180D02*
X320874833Y-104988440D01*
X79483601Y-106252320D02*
X78330761Y-106231630D01*
X52195337Y-105407280D02*
X51638753Y-105395600D01*
X263273561Y-104051350D02*
X262697873Y-104039980D01*
X317381633Y-105221280D02*
X316806017Y-105208480D01*
X358291672Y-105771900D02*
X357715936Y-105760850D01*
X312201137Y-105105870D02*
X311625545Y-105093020D01*
X206255657Y-103180130D02*
X203950961Y-103157970D01*
X332386816Y-105240460D02*
X331811200Y-105228020D01*
X552993952Y-103774840D02*
X552430888Y-103763660D01*
X36620201Y-105381840D02*
X35959121Y-105367260D01*
X288065081Y-104259920D02*
X287489441Y-104247370D01*
X595239280Y-104684700D02*
X594755272Y-104673880D01*
X575824768Y-104253950D02*
X575185648Y-104239970D01*
X297235721Y-104772180D02*
X296660129Y-104759420D01*
X357140200Y-105749760D02*
X356564488Y-105738630D01*
X329508784Y-105178060D02*
X328933168Y-105165530D01*
X325479593Y-105089980D02*
X324903977Y-105077330D01*
X29612753Y-104495730D02*
X29596769Y-104363340D01*
X82939265Y-106313130D02*
X81787769Y-106293070D01*
X410128120Y-106542230D02*
X407823496Y-106518940D01*
X80635913Y-106272800D02*
X79483601Y-106252320D01*
X331811200Y-105228020D02*
X331235608Y-105215560D01*
X43651049Y-105535810D02*
X43056137Y-105522900D01*
X356530048Y-106048180D02*
X355954192Y-106037010D01*
X73135025Y-106136040D02*
X72556937Y-106125180D01*
X55765961Y-105481920D02*
X55152305Y-105469140D01*
X532838152Y-103708890D02*
X531687448Y-103689160D01*
X301304609Y-104552320D02*
X300728993Y-104539500D01*
X549020560Y-103696680D02*
X548445928Y-103685520D01*
X126159161Y-106583220D02*
X124429961Y-106567250D01*
X525964936Y-103284100D02*
X524814328Y-103265680D01*
X44841257Y-105251270D02*
X44271617Y-105238950D01*
X297850913Y-104475510D02*
X297275297Y-104462740D01*
X551267104Y-104050900D02*
X550699888Y-104039740D01*
X414737512Y-106585420D02*
X412432792Y-106564390D01*
X361746160Y-105837280D02*
X361170400Y-105826500D01*
X286874993Y-104544300D02*
X286299377Y-104531780D01*
X311665385Y-104783590D02*
X311089793Y-104770740D01*
X328357576Y-105152980D02*
X327781985Y-105140410D01*
X76023305Y-106189650D02*
X74868545Y-106168350D01*
X548445928Y-103685520D02*
X547870144Y-103674370D01*
X27899729Y-104878180D02*
X27334121Y-104865580D01*
X275975633Y-104000610D02*
X275399921Y-103988520D01*
X387084568Y-106260720D02*
X384780640Y-106226850D01*
X575185648Y-104239970D02*
X574555432Y-104226210D01*
X267339329Y-103822420D02*
X266763545Y-103810800D01*
X149780681Y-107042230D02*
X146321897Y-107028650D01*
X89843585Y-106428970D02*
X88693097Y-106410210D01*
X347892880Y-105876590D02*
X347317096Y-105864870D01*
X364592464Y-106200130D02*
X364016536Y-106189570D01*
X543826816Y-103597190D02*
X543248728Y-103586320D01*
X306445169Y-104977330D02*
X305869577Y-104964480D01*
X546716296Y-103652140D02*
X546138760Y-103641070D01*
X343323760Y-105472400D02*
X342748096Y-105460430D01*
X544983016Y-103619040D02*
X544404928Y-103608090D01*
X271333049Y-104214220D02*
X270757409Y-104202370D01*
X29652377Y-104917190D02*
X29059049Y-104903990D01*
X41237081Y-105172940D02*
X40598033Y-105158960D01*
X55115129Y-105778630D02*
X54506441Y-105765930D01*
X345050704Y-105508140D02*
X344475064Y-105496260D01*
X384780640Y-106226850D02*
X382476784Y-106191990D01*
X219529169Y-103019310D02*
X217223969Y-102990830D01*
X323137865Y-105348760D02*
X322562249Y-105336060D01*
X71434625Y-105793760D02*
X70856801Y-105782770D01*
X89297417Y-106109970D02*
X88147289Y-106091110D01*
X129026129Y-106918170D02*
X126719681Y-106898210D01*
X182631233Y-103008450D02*
X179750081Y-102996240D01*
X521937112Y-103220630D02*
X520210264Y-103194300D01*
X309938609Y-104745030D02*
X309363017Y-104732180D01*
X261581249Y-103707820D02*
X261005417Y-103696570D01*
X324903977Y-105077330D02*
X324328385Y-105064670D01*
X523663576Y-103247490D02*
X521937112Y-103220630D01*
X366352384Y-105921930D02*
X365200792Y-105901050D01*
X364625008Y-105890540D02*
X364049224Y-105879980D01*
X319723649Y-104962950D02*
X319148057Y-104950180D01*
X31483265Y-104957860D02*
X30864809Y-104944130D01*
X450866320Y-106645780D02*
X450851080Y-106755770D01*
X187817273Y-103035340D02*
X185512361Y-103022620D01*
X398605528Y-106414770D02*
X396301192Y-106386040D01*
X178603841Y-102682040D02*
X175721465Y-102672600D01*
X233906993Y-103530370D02*
X231603137Y-103495510D01*
X353650864Y-105991920D02*
X353075056Y-105980550D01*
X351347608Y-105946220D02*
X350771800Y-105934700D01*
X380144776Y-106465810D02*
X378992584Y-106447520D01*
X26777777Y-104853180D02*
X26230553Y-104840980D01*
X531687448Y-103689160D02*
X530536984Y-103669640D01*
X592293040Y-104618830D02*
X591781120Y-104607390D01*
X45907889Y-105584520D02*
X45360881Y-105572760D01*
X74868545Y-106168350D02*
X73713041Y-106146860D01*
X321986609Y-105323350D02*
X321410969Y-105310620D01*
X109422881Y-106711670D02*
X107693873Y-106689620D01*
X237967265Y-103284070D02*
X236815097Y-103265670D01*
X62826353Y-105936300D02*
X62261585Y-105925010D01*
X256398545Y-103608010D02*
X255822665Y-103597130D01*
X93323513Y-106174220D02*
X91597841Y-106147030D01*
X366320248Y-106231530D02*
X365168392Y-106210640D01*
X208560281Y-103203420D02*
X206255657Y-103180130D01*
X199341497Y-103117070D02*
X197036705Y-103098350D01*
X504633616Y-103291960D02*
X502904824Y-103271320D01*
X327743033Y-105449870D02*
X327167369Y-105437280D01*
X164187905Y-106756780D02*
X164171753Y-106756770D01*
X501175912Y-103251290D02*
X499446880Y-103231870D01*
X309363017Y-104732180D02*
X308787425Y-104719320D01*
X307596353Y-105003040D02*
X307020761Y-104990180D01*
X530567080Y-103360010D02*
X529416448Y-103340700D01*
X296660129Y-104759420D02*
X296084537Y-104746660D01*
X44233049Y-105548420D02*
X43651049Y-105535810D01*
X281732705Y-104122880D02*
X281157017Y-104110540D01*
X518483080Y-103168500D02*
X516755536Y-103143240D01*
X346202032Y-105531810D02*
X345626368Y-105519990D01*
X53941865Y-105443860D02*
X53348681Y-105431450D01*
X266152025Y-104108740D02*
X265576337Y-104097190D01*
X334651072Y-105599480D02*
X334075384Y-105587130D01*
X45360881Y-105572760D02*
X44802809Y-105560730D01*
X537444544Y-103789950D02*
X536292280Y-103769370D01*
X559383232Y-104214810D02*
X558767776Y-104202080D01*
X273096977Y-103940460D02*
X272521241Y-103928510D01*
X328933168Y-105165530D02*
X328357576Y-105152980D01*
X32743073Y-104985800D02*
X32109473Y-104971750D01*
X455648992Y-102966330D02*
X452211952Y-102965070D01*
X289177409Y-104594540D02*
X288601793Y-104581950D01*
X30254393Y-104930570D02*
X29652377Y-104917190D01*
X494259424Y-103177430D02*
X492530224Y-103160580D01*
X277089497Y-104334350D02*
X276513881Y-104322210D01*
X108869201Y-106394650D02*
X107140865Y-106372420D01*
X540904888Y-103852910D02*
X539750776Y-103831720D01*
X27860033Y-104534740D02*
X27294401Y-104547340D01*
X40598033Y-105158960D02*
X39951569Y-105144790D01*
X601704556Y-104706503D02*
X598911906Y-104706503D01*
X50570753Y-105373170D02*
X50054753Y-105362320D01*
X476392816Y-103035920D02*
X472935328Y-103017090D01*
X252910313Y-103852980D02*
X252334553Y-103842380D01*
X586771024Y-104495730D02*
X586168984Y-104482350D01*
X572732728Y-104186550D02*
X572150728Y-104173940D01*
X455650504Y-102656450D02*
X452191768Y-102655180D01*
X53348681Y-105431450D02*
X52765889Y-105419240D01*
X352534504Y-105659610D02*
X351958816Y-105648170D01*
X540937744Y-103543330D02*
X539783344Y-103522140D01*
X301880201Y-104565150D02*
X301304609Y-104552320D01*
X138262145Y-106675970D02*
X134804393Y-106652920D01*
X41867225Y-105186700D02*
X41237081Y-105172940D01*
X46444457Y-105596030D02*
X45907889Y-105584520D01*
X307060625Y-104680750D02*
X306485033Y-104667900D01*
X62861921Y-105626770D02*
X62297273Y-105615490D01*
X278816393Y-104370920D02*
X278240777Y-104358700D01*
X251758769Y-103831820D02*
X251182985Y-103821310D01*
X241969745Y-103659960D02*
X240817985Y-103640750D01*
X334075384Y-105587130D02*
X333499696Y-105574750D01*
X403214392Y-106469030D02*
X400909912Y-106442440D01*
X315694529Y-104873420D02*
X315118937Y-104860600D01*
X172839065Y-102665170D02*
X169956689Y-102659770D01*
X203950961Y-103157970D02*
X201646265Y-103136940D01*
X152091761Y-106739800D02*
X148634489Y-106728160D01*
X565850488Y-104039700D02*
X565323496Y-104028630D01*
X562441912Y-104278500D02*
X561840112Y-104265920D01*
X552395536Y-104073190D02*
X551832064Y-104062040D01*
X332924032Y-105562340D02*
X332348344Y-105549920D01*
X380173000Y-106156150D02*
X379021168Y-106137870D01*
X167074337Y-102656430D02*
X164192009Y-102655180D01*
X71400761Y-106103320D02*
X70822817Y-106092320D01*
X269606081Y-104178770D02*
X269030417Y-104167010D01*
X316230401Y-105195670D02*
X315654785Y-105182860D01*
X331235608Y-105215560D02*
X330659992Y-105203080D01*
X552430888Y-103763660D02*
X551867296Y-103752510D01*
X587364376Y-104508930D02*
X586771024Y-104495730D01*
X261005417Y-103696570D02*
X260429561Y-103685350D01*
X131346473Y-106627100D02*
X127888313Y-106598530D01*
X164192009Y-107067180D02*
X160156817Y-107065410D01*
X360018880Y-105804790D02*
X359443144Y-105793870D01*
X67363193Y-106025680D02*
X66789977Y-106014500D01*
X348504712Y-105578760D02*
X347929024Y-105567070D01*
X61160345Y-105592640D02*
X60586217Y-105581030D01*
X281118881Y-104420020D02*
X280543265Y-104407710D01*
X198779993Y-102802460D02*
X196474265Y-102784030D01*
X28474721Y-104890990D02*
X27899729Y-104878180D01*
X375565768Y-106081610D02*
X374414032Y-106062400D01*
X302416025Y-104887410D02*
X301840433Y-104874580D01*
X472944280Y-102707240D02*
X469485424Y-102691250D01*
X123259913Y-106866030D02*
X121530017Y-106848950D01*
X326055185Y-105102610D02*
X325479593Y-105089980D01*
X263884529Y-103753220D02*
X263308721Y-103741810D01*
X220082585Y-103336320D02*
X217778249Y-103307590D01*
X326630777Y-105115230D02*
X326055185Y-105102610D01*
X330659992Y-105203080D02*
X330084376Y-105190580D01*
X168225521Y-102967400D02*
X165517913Y-102965430D01*
X100229801Y-106277730D02*
X98502737Y-106252660D01*
X535140496Y-103749000D02*
X533989144Y-103728840D01*
X547293496Y-103663240D02*
X546716296Y-103652140D01*
X164187905Y-106756780D02*
X164172065Y-106641970D01*
X504655216Y-102982210D02*
X502925800Y-102961560D01*
X361712896Y-106146860D02*
X361136992Y-106136070D01*
X238514417Y-103603010D02*
X237362609Y-103584490D01*
X554689216Y-103808720D02*
X554122192Y-103797350D01*
X564745024Y-104326760D02*
X564188440Y-104315080D01*
X224139281Y-103079410D02*
X221834273Y-103048840D01*
X55152305Y-105469140D02*
X54543665Y-105456440D01*
X552958504Y-104084370D02*
X552395536Y-104073190D01*
X300728993Y-104539500D02*
X300153377Y-104526690D01*
X382449256Y-106501660D02*
X380144776Y-106465810D01*
X261546449Y-104017360D02*
X260970737Y-104006110D01*
X34030769Y-105014320D02*
X33383753Y-105000000D01*
X66218417Y-106003330D02*
X65648873Y-105992160D01*
X569412568Y-104115070D02*
X568895080Y-104104040D01*
X119242361Y-106515390D02*
X117513233Y-106496820D01*
X576471280Y-104268120D02*
X575824768Y-104253950D01*
X538629640Y-103501150D02*
X537476512Y-103480360D01*
X347929024Y-105567070D02*
X347353360Y-105555350D01*
X47998169Y-105629150D02*
X47488697Y-105618320D01*
X437779936Y-107040320D02*
X434897536Y-107028890D01*
X593783752Y-104652150D02*
X593292928Y-104641180D01*
X336416128Y-105326940D02*
X335840512Y-105314650D01*
X251182985Y-103821310D02*
X250607201Y-103810840D01*
X253486097Y-103863630D02*
X252910313Y-103852980D01*
X368655592Y-105963100D02*
X367503976Y-105942620D01*
X341559592Y-105745900D02*
X340983856Y-105733840D01*
X27294401Y-104547340D02*
X26738033Y-104559740D01*
X49005065Y-105650470D02*
X48502553Y-105639850D01*
X97324913Y-106545320D02*
X95597849Y-106519340D01*
X28435049Y-104521940D02*
X27860033Y-104534740D01*
X513274864Y-103404080D02*
X511547032Y-103380500D01*
X72590537Y-105815610D02*
X72012545Y-105804710D01*
X257550281Y-103629900D02*
X256974425Y-103618930D01*
X440667328Y-106739890D02*
X437786176Y-106730460D01*
X256974425Y-103618930D02*
X256398545Y-103608010D01*
X285762449Y-104209820D02*
X285186785Y-104197340D01*
X563035096Y-104290910D02*
X562441912Y-104278500D01*
X336953848Y-105648680D02*
X336378160Y-105636420D01*
X352499224Y-105969140D02*
X351923416Y-105957700D01*
X35299865Y-105352700D02*
X34643561Y-105338190D01*
X379021168Y-106137870D02*
X377869360Y-106119350D01*
X215473841Y-103279920D02*
X213169385Y-103253330D01*
X189556841Y-102735850D02*
X187250969Y-102722200D01*
X391668256Y-106635140D02*
X389363344Y-106603280D01*
X452211712Y-106641970D02*
X452191768Y-107067180D01*
X47526641Y-105308850D02*
X47009249Y-105297820D01*
X119800169Y-106831220D02*
X118070369Y-106812860D01*
X252943169Y-103543400D02*
X252367241Y-103532790D01*
X274824185Y-103976460D02*
X274248449Y-103964430D01*
X41828345Y-105496160D02*
X41198105Y-105482390D01*
X244273169Y-103699040D02*
X243121481Y-103679390D01*
X44802809Y-105560730D02*
X44233049Y-105548420D01*
X340408144Y-105721750D02*
X339832408Y-105709640D01*
X249487577Y-103480460D02*
X248335649Y-103459880D01*
X312240977Y-104796430D02*
X311665385Y-104783590D01*
X289753001Y-104607130D02*
X289177409Y-104594540D01*
X349620208Y-105911560D02*
X349044424Y-105899940D01*
X260970737Y-104006110D02*
X260395001Y-103994900D01*
X84090425Y-106332980D02*
X82939265Y-106313130D01*
X68548097Y-105738450D02*
X67972433Y-105727300D01*
X236210753Y-103566210D02*
X233906993Y-103530370D01*
X105412721Y-106349600D02*
X103684841Y-106326210D01*
X47009249Y-105297820D02*
X46482617Y-105286560D01*
X85241321Y-106352620D02*
X84090425Y-106332980D01*
X95597849Y-106519340D02*
X93871121Y-106492840D01*
X355378360Y-106025790D02*
X354802528Y-106014540D01*
X330084376Y-105190580D02*
X329508784Y-105178060D01*
X346165552Y-105841320D02*
X345589792Y-105829500D01*
X555223432Y-104129720D02*
X554653384Y-104118250D01*
X111152105Y-106733130D02*
X109422881Y-106711670D01*
X105965057Y-106666990D02*
X104236481Y-106643780D01*
X290367689Y-104310300D02*
X289792049Y-104297680D01*
X535171864Y-103439400D02*
X534020200Y-103419230D01*
X120971537Y-106533330D02*
X119242361Y-106515390D01*
X265036169Y-103776140D02*
X264460361Y-103764660D01*
X208002473Y-102887720D02*
X205696937Y-102864700D01*
X341021176Y-105424350D02*
X340445536Y-105412260D01*
X280005617Y-104085940D02*
X279429905Y-104073680D01*
X557592160Y-103867630D02*
X555833656Y-103831810D01*
X553521832Y-104095590D02*
X552958504Y-104084370D01*
X547870144Y-103674370D02*
X547293496Y-103663240D01*
X61124369Y-105902160D02*
X60550097Y-105890550D01*
X213169385Y-103253330D02*
X210864857Y-103227830D01*
X104236481Y-106643780D02*
X102508145Y-106620000D01*
X194168489Y-102766780D02*
X191862665Y-102750710D01*
X88147289Y-106091110D02*
X86997089Y-106072030D01*
X583680208Y-104427110D02*
X583039480Y-104412920D01*
X221834273Y-103048840D02*
X219529169Y-103019310D01*
X277665137Y-104346510D02*
X277089497Y-104334350D01*
X43689689Y-105226350D02*
X43094873Y-105213440D01*
X596211832Y-104706460D02*
X595239280Y-104684700D01*
X554122192Y-103797350D02*
X553557424Y-103786060D01*
X567378712Y-104071890D02*
X566874904Y-104061260D01*
X283996961Y-104481910D02*
X283421345Y-104469480D01*
X35998457Y-105057810D02*
X35339225Y-105043260D01*
X335840512Y-105314650D02*
X335264896Y-105302340D01*
X41198105Y-105482390D02*
X40559009Y-105468410D01*
X426250480Y-106982910D02*
X423944656Y-106967740D01*
X286338113Y-104222320D02*
X285762449Y-104209820D01*
X301264841Y-104861760D02*
X300689249Y-104848940D01*
X313392161Y-104822110D02*
X312816569Y-104809270D01*
X296124041Y-104437220D02*
X295548425Y-104424470D01*
X40559009Y-105468410D02*
X39912473Y-105454250D01*
X52728569Y-105728730D02*
X52157969Y-105716770D01*
X537476512Y-103480360D02*
X536323960Y-103459780D01*
X476403232Y-102726070D02*
X472944280Y-102707240D01*
X165533129Y-107066600D02*
X164192009Y-107067180D01*
X560037952Y-103918120D02*
X559420168Y-103905310D01*
X515002408Y-103428230D02*
X513274864Y-103404080D01*
X343862536Y-105793850D02*
X343286800Y-105781910D01*
X37321265Y-105086980D02*
X36659513Y-105072400D01*
X314543345Y-104847780D02*
X313967753Y-104834950D01*
X570475888Y-104137840D02*
X569939320Y-104126330D01*
X351923416Y-105957700D02*
X351347608Y-105946220D01*
X201646265Y-103136940D02*
X199341497Y-103117070D01*
X573935608Y-104212690D02*
X573327640Y-104199460D01*
X81787769Y-106293070D02*
X80635913Y-106272800D01*
X53904593Y-105753360D02*
X53311385Y-105740940D01*
X516755536Y-103143240D02*
X515027680Y-103118530D01*
X338143000Y-105363660D02*
X337567384Y-105351440D01*
X254637617Y-103885080D02*
X254061857Y-103874330D01*
X362864704Y-106168310D02*
X362288800Y-106157600D01*
X26230553Y-104840980D02*
X25692329Y-104828970D01*
X546138760Y-103641070D02*
X545560960Y-103630040D01*
X290943353Y-104322930D02*
X290367689Y-104310300D01*
X452211712Y-103080390D02*
X452191768Y-102965060D01*
X432023848Y-106705640D02*
X429142720Y-106690310D01*
X285148169Y-104506800D02*
X284572577Y-104494340D01*
X293245889Y-104373600D02*
X292670249Y-104360910D01*
X71978825Y-106114270D02*
X71400761Y-106103320D01*
X262122161Y-104028650D02*
X261546449Y-104017360D01*
X312816569Y-104809270D02*
X312240977Y-104796430D01*
X325440425Y-105399430D02*
X324864785Y-105386780D01*
X554653384Y-104118250D02*
X554086504Y-104106870D01*
X292094633Y-104348240D02*
X291518993Y-104335580D01*
X335264896Y-105302340D02*
X334689256Y-105290010D01*
X588523744Y-104534740D02*
X587948728Y-104521940D01*
X176868905Y-102986000D02*
X173987777Y-102977770D01*
X255789137Y-103906700D02*
X255213377Y-103895860D01*
X217778249Y-103307590D02*
X215473841Y-103279920D01*
X466026640Y-102678150D02*
X462567904Y-102667960D01*
X52157969Y-105716770D02*
X51601361Y-105705090D01*
X531717880Y-103379540D02*
X530567080Y-103360010D01*
X334113664Y-105277650D02*
X333538048Y-105265270D01*
X254670881Y-103575500D02*
X254094977Y-103564760D01*
X32703569Y-105295250D02*
X32069921Y-105281200D01*
X486766336Y-103109210D02*
X483308320Y-103082010D01*
X250031393Y-103800430D02*
X248879801Y-103779740D01*
X281157017Y-104110540D02*
X280581305Y-104098230D01*
X376717552Y-106100600D02*
X375565768Y-106081610D01*
X240271553Y-103321590D02*
X239119409Y-103302720D01*
X583039480Y-104412920D02*
X582392464Y-104398600D01*
X241423649Y-103340690D02*
X240271553Y-103321590D01*
X100780097Y-106595660D02*
X99052361Y-106570760D01*
X377869360Y-106119350D02*
X376717552Y-106100600D01*
X501196240Y-102941520D02*
X499466584Y-102922100D01*
X226995161Y-103428780D02*
X224691041Y-103396930D01*
X331772656Y-105537480D02*
X331196992Y-105525020D01*
X589089376Y-104547340D02*
X588523744Y-104534740D01*
X184368617Y-102706870D02*
X181486241Y-102693470D01*
X201085697Y-102822060D02*
X198779993Y-102802460D01*
X64516481Y-105969850D02*
X63952889Y-105958700D01*
X316806017Y-105208480D02*
X316230401Y-105195670D01*
X516729688Y-103452930D02*
X515002408Y-103428230D01*
X145177145Y-106713620D02*
X141719729Y-106696210D01*
X315079169Y-105170040D02*
X314503577Y-105157210D01*
X91597841Y-106147030D02*
X90447593Y-106128610D01*
X90447593Y-106128610D02*
X89297417Y-106109970D01*
X305909441Y-104655040D02*
X305333825Y-104642190D01*
X270793961Y-103892860D02*
X270218201Y-103881040D01*
X479850472Y-103057570D02*
X476392816Y-103035920D01*
X141719729Y-106696210D02*
X138262145Y-106675970D01*
X319108481Y-105259620D02*
X318532865Y-105246850D01*
X558194296Y-103880000D02*
X557592160Y-103867630D01*
X364016536Y-106189570D02*
X363440608Y-106178960D01*
X85846793Y-106052720D02*
X84696329Y-106033210D01*
X446427088Y-107062590D02*
X443544712Y-107057200D01*
X46971185Y-105607290D02*
X46444457Y-105596030D01*
X23627035Y-104782849D02*
G75*
G02*
X23587201Y-104630075I-62635J65249D01*
G01*
%TO.N,GND1*%
X602649416Y-104691933D02*
X602227136Y-104691933D01*
X610925050Y-106837900D02*
X609794000Y-105706840D01*
X611622800Y-106002750D02*
X609696400Y-104076350D01*
X611598100Y-106837900D02*
X610925050Y-106837900D01*
X611622800Y-106813200D02*
X611598100Y-106837900D01*
X611622800Y-106002750D02*
X611622800Y-106813200D01*
X609794000Y-105706840D02*
X606213100Y-105706840D01*
X602651956Y-104689383D02*
X602649416Y-104691933D01*
D16*
%TO.N,OSC2B*%
X599963736Y-105959123D02*
X599963736Y-106904523D01*
X599864936Y-105860323D02*
X599306136Y-105860323D01*
X599963736Y-105959123D02*
X599864936Y-105860323D01*
X601905556Y-105374403D02*
X601869246Y-105338103D01*
X601869246Y-105338103D02*
X599828356Y-105338103D01*
X602166916Y-105374403D02*
X601905556Y-105374403D01*
X602205796Y-105413283D02*
X602166916Y-105374403D01*
X599828356Y-105338103D02*
X599306136Y-105860323D01*
%TO.N,*%
X601259136Y-101996723D02*
X599912936Y-101996723D01*
X599342608Y-101988180D02*
X595813648Y-101988180D01*
X305034449Y-101988180D02*
X16066289Y-101988180D01*
X16913489Y-102340980D02*
X16913489Y-107401180D01*
%TO.N,OSC12*%
X601160336Y-105911123D02*
X600626936Y-105911123D01*
X600626936Y-105911123D02*
X600370136Y-106167923D01*
%TO.N,*%
X308692049Y-107403980D02*
X305955569Y-107403980D01*
X595813648Y-101988180D02*
X306497489Y-101988180D01*
X16059089Y-101990980D02*
X16059089Y-107731380D01*
X305163089Y-107734180D02*
X16059089Y-107731380D01*
%TO.N,OSC12*%
X600370136Y-106167923D02*
X600319336Y-106167923D01*
%TO.N,*%
X601896936Y-102634523D02*
X601259136Y-101996723D01*
X305863505Y-107403980D02*
X16918289Y-107403980D01*
%TO.N,OSC12*%
X600319336Y-107742723D02*
X599915736Y-107742723D01*
X600677736Y-102482123D02*
X600522536Y-102326923D01*
X600522536Y-102326923D02*
X599557336Y-102326923D01*
X599915736Y-107742723D02*
X599915726Y-107742713D01*
%TO.N,*%
X599464528Y-107403980D02*
X308692049Y-107403980D01*
%TO.N,OSC12*%
X599557336Y-102326923D02*
X598795336Y-102326923D01*
%TO.N,*%
X306497489Y-101988180D02*
X305163089Y-101988180D01*
X599349328Y-107734180D02*
X305345969Y-107734180D01*
X595691728Y-102318380D02*
X16966289Y-102318380D01*
%TO.N,OSC12*%
X601007936Y-102482123D02*
X600677736Y-102482123D01*
%TO.N,*%
X306497489Y-101988180D02*
X306131729Y-101988180D01*
%TO.N,OSC12*%
X600319336Y-106167923D02*
X600319336Y-107742723D01*
%TO.N,*%
X596660368Y-102318380D02*
X595691728Y-102318380D01*
D18*
%TO.N,VDD1*%
X612288300Y-100995900D02*
X612288300Y-101216650D01*
X615960100Y-104888450D02*
X612288300Y-101216650D01*
%TO.N,VIN1*%
X611230830Y-100435620D02*
X609692650Y-101973800D01*
X612938110Y-100614790D02*
X612758930Y-100435620D01*
X612758930Y-100435620D02*
X611230830Y-100435620D01*
D17*
%TO.N,GND1*%
X606213100Y-105706840D02*
X605531880Y-105025610D01*
%TD*%
%TA.AperFunction,Conductor*%
%TO.N,GND1*%
G36*
X624438809Y-96905105D02*
G01*
X624484564Y-96957909D01*
X624495770Y-97009420D01*
X624495770Y-112877210D01*
X624476085Y-112944249D01*
X624423281Y-112990004D01*
X624371770Y-113001210D01*
X609985560Y-113001210D01*
X609918521Y-112981525D01*
X609872766Y-112928721D01*
X609861560Y-112877210D01*
X609861560Y-108636207D01*
X612234410Y-108636207D01*
X612234410Y-108774832D01*
X612261451Y-108910774D01*
X612261454Y-108910786D01*
X612314496Y-109038843D01*
X612391511Y-109154105D01*
X612489524Y-109252118D01*
X612604786Y-109329133D01*
X612698281Y-109367859D01*
X612732848Y-109382177D01*
X612868797Y-109409219D01*
X612868800Y-109409220D01*
X612868802Y-109409220D01*
X613007420Y-109409220D01*
X613007421Y-109409219D01*
X613052736Y-109400205D01*
X613143364Y-109382179D01*
X613143367Y-109382177D01*
X613143372Y-109382177D01*
X613177939Y-109367858D01*
X613225391Y-109358420D01*
X615179137Y-109358420D01*
X615263995Y-109341539D01*
X615305274Y-109333329D01*
X615424094Y-109284112D01*
X615436712Y-109275681D01*
X615531030Y-109212661D01*
X616974283Y-107769406D01*
X617014506Y-107742530D01*
X617049077Y-107728211D01*
X617164333Y-107651200D01*
X617262350Y-107553183D01*
X617339361Y-107437927D01*
X617392407Y-107309862D01*
X617419450Y-107173908D01*
X617419450Y-107035292D01*
X617419450Y-107035289D01*
X617419449Y-107035287D01*
X617392408Y-106899345D01*
X617392407Y-106899338D01*
X617361222Y-106824050D01*
X617339363Y-106771276D01*
X617262348Y-106656014D01*
X617164335Y-106558001D01*
X617049073Y-106480986D01*
X616921016Y-106427944D01*
X616921004Y-106427941D01*
X616785061Y-106400900D01*
X616785058Y-106400900D01*
X616646442Y-106400900D01*
X616646439Y-106400900D01*
X616510495Y-106427941D01*
X616510483Y-106427944D01*
X616382426Y-106480986D01*
X616267164Y-106558001D01*
X616169151Y-106656014D01*
X616092137Y-106771276D01*
X616077818Y-106805843D01*
X616050940Y-106846067D01*
X614880708Y-108016301D01*
X614819385Y-108049786D01*
X614793027Y-108052620D01*
X613225391Y-108052620D01*
X613177939Y-108043181D01*
X613143373Y-108028863D01*
X613143364Y-108028860D01*
X613007421Y-108001820D01*
X613007418Y-108001820D01*
X612868802Y-108001820D01*
X612868799Y-108001820D01*
X612732855Y-108028861D01*
X612732843Y-108028864D01*
X612604786Y-108081906D01*
X612489524Y-108158921D01*
X612391511Y-108256934D01*
X612314496Y-108372196D01*
X612261454Y-108500253D01*
X612261451Y-108500265D01*
X612234410Y-108636207D01*
X609861560Y-108636207D01*
X609861560Y-107700792D01*
X609881245Y-107633753D01*
X609897879Y-107613111D01*
X609960848Y-107550142D01*
X610073400Y-107437590D01*
X610012940Y-107377140D01*
X606054910Y-107377140D01*
X605987871Y-107357455D01*
X605942116Y-107304651D01*
X605930910Y-107253140D01*
X605930910Y-104137850D01*
X605950595Y-104070811D01*
X606003399Y-104025056D01*
X606054910Y-104013850D01*
X610821461Y-104013850D01*
X610888500Y-104033535D01*
X610909142Y-104050169D01*
X611122836Y-104263862D01*
X612626018Y-105767038D01*
X612943341Y-106084359D01*
X612958044Y-106111286D01*
X612974637Y-106137105D01*
X612975528Y-106143305D01*
X612976826Y-106145682D01*
X612979660Y-106172040D01*
X612979660Y-106415714D01*
X612960777Y-106480018D01*
X612961022Y-106480149D01*
X612960395Y-106481321D01*
X612959975Y-106482753D01*
X612958765Y-106484600D01*
X612958155Y-106485512D01*
X612958147Y-106485526D01*
X612905103Y-106613587D01*
X612905101Y-106613595D01*
X612878060Y-106749537D01*
X612878060Y-106888162D01*
X612905101Y-107024104D01*
X612905104Y-107024116D01*
X612958146Y-107152173D01*
X613035161Y-107267435D01*
X613133174Y-107365448D01*
X613248436Y-107442463D01*
X613376493Y-107495505D01*
X613376498Y-107495507D01*
X613512447Y-107522549D01*
X613512450Y-107522550D01*
X613512452Y-107522550D01*
X613651070Y-107522550D01*
X613651071Y-107522549D01*
X613787022Y-107495507D01*
X613851054Y-107468984D01*
X613915083Y-107442463D01*
X613915084Y-107442462D01*
X613915087Y-107442461D01*
X614030343Y-107365450D01*
X614128360Y-107267433D01*
X614205371Y-107152177D01*
X614258417Y-107024112D01*
X614285460Y-106888158D01*
X614285460Y-106749542D01*
X614285460Y-106749539D01*
X614285459Y-106749537D01*
X614271287Y-106678290D01*
X614258417Y-106613588D01*
X614205371Y-106485523D01*
X614205364Y-106485512D01*
X614204755Y-106484600D01*
X614204582Y-106484049D01*
X614202498Y-106480149D01*
X614203237Y-106479753D01*
X614183880Y-106417922D01*
X614183860Y-106415714D01*
X614183860Y-105792013D01*
X614183860Y-105792012D01*
X614173929Y-105754951D01*
X614142827Y-105638878D01*
X614086519Y-105541349D01*
X614063560Y-105501582D01*
X613951458Y-105389480D01*
X613951456Y-105389479D01*
X611491917Y-102929949D01*
X611491916Y-102929948D01*
X611354620Y-102850682D01*
X611354621Y-102850682D01*
X611257539Y-102824669D01*
X611257539Y-102824668D01*
X611213332Y-102812823D01*
X611201488Y-102809650D01*
X611201487Y-102809650D01*
X610117112Y-102809650D01*
X610050073Y-102789965D01*
X610004318Y-102737161D01*
X609994374Y-102668003D01*
X610023399Y-102604447D01*
X610048219Y-102582548D01*
X610141233Y-102520400D01*
X610239250Y-102422383D01*
X610316261Y-102307127D01*
X610330579Y-102272557D01*
X610357456Y-102232333D01*
X611415101Y-101174689D01*
X611443898Y-101158964D01*
X611472111Y-101142225D01*
X611474405Y-101142306D01*
X611476422Y-101141206D01*
X611509160Y-101143547D01*
X611541936Y-101144717D01*
X611543821Y-101146026D01*
X611546114Y-101146190D01*
X611572377Y-101165851D01*
X611599330Y-101184563D01*
X611600893Y-101187198D01*
X611602047Y-101188062D01*
X611617340Y-101214916D01*
X611625960Y-101235725D01*
X611633771Y-101274996D01*
X611634803Y-101274895D01*
X611635399Y-101280954D01*
X611638679Y-101297441D01*
X611648181Y-101345206D01*
X611657240Y-101390750D01*
X611660491Y-101407094D01*
X611709707Y-101525912D01*
X611781162Y-101632854D01*
X611781163Y-101632855D01*
X615295289Y-105146979D01*
X615322169Y-105187206D01*
X615336488Y-105221776D01*
X615413501Y-105337035D01*
X615511514Y-105435048D01*
X615626776Y-105512063D01*
X615722982Y-105551912D01*
X615754838Y-105565107D01*
X615890787Y-105592149D01*
X615890790Y-105592150D01*
X615890792Y-105592150D01*
X616029410Y-105592150D01*
X616029411Y-105592149D01*
X616165362Y-105565107D01*
X616229394Y-105538584D01*
X616293423Y-105512063D01*
X616293424Y-105512062D01*
X616293427Y-105512061D01*
X616408683Y-105435050D01*
X616422119Y-105421613D01*
X616483439Y-105388129D01*
X616553131Y-105393111D01*
X616597482Y-105421613D01*
X617854157Y-106678288D01*
X617854160Y-106678290D01*
X617960747Y-106749508D01*
X617960783Y-106749552D01*
X617960793Y-106749539D01*
X617960797Y-106749542D01*
X617961096Y-106749742D01*
X618079916Y-106798959D01*
X618079920Y-106798959D01*
X618079921Y-106798960D01*
X618206052Y-106824050D01*
X618206055Y-106824050D01*
X619384797Y-106824050D01*
X619451836Y-106843735D01*
X619472478Y-106860369D01*
X620211181Y-107599071D01*
X620244666Y-107660394D01*
X620247500Y-107686752D01*
X620247500Y-109483455D01*
X620247500Y-109483457D01*
X620247499Y-109483457D01*
X620272589Y-109609588D01*
X620272591Y-109609594D01*
X620321807Y-109728412D01*
X620393262Y-109835354D01*
X620393263Y-109835355D01*
X621482767Y-110924857D01*
X621516252Y-110986180D01*
X621513360Y-111044144D01*
X621514692Y-111044464D01*
X621513554Y-111049203D01*
X621480300Y-111259163D01*
X621480300Y-111471736D01*
X621513553Y-111681689D01*
X621579244Y-111883864D01*
X621675751Y-112073270D01*
X621800690Y-112245236D01*
X621951013Y-112395559D01*
X622122979Y-112520498D01*
X622122981Y-112520499D01*
X622122984Y-112520501D01*
X622312388Y-112617007D01*
X622514557Y-112682696D01*
X622724513Y-112715950D01*
X622724514Y-112715950D01*
X622937086Y-112715950D01*
X622937087Y-112715950D01*
X623147043Y-112682696D01*
X623349212Y-112617007D01*
X623538616Y-112520501D01*
X623560589Y-112504536D01*
X623710586Y-112395559D01*
X623710588Y-112395556D01*
X623710592Y-112395554D01*
X623860904Y-112245242D01*
X623860906Y-112245238D01*
X623860909Y-112245236D01*
X623985848Y-112073270D01*
X623985847Y-112073270D01*
X623985851Y-112073266D01*
X624082357Y-111883862D01*
X624148046Y-111681693D01*
X624181300Y-111471737D01*
X624181300Y-111259163D01*
X624148046Y-111049207D01*
X624082357Y-110847038D01*
X623985851Y-110657634D01*
X623985849Y-110657631D01*
X623985848Y-110657629D01*
X623860909Y-110485663D01*
X623710586Y-110335340D01*
X623538620Y-110210401D01*
X623537915Y-110210041D01*
X623529854Y-110205935D01*
X623479059Y-110157962D01*
X623462263Y-110090142D01*
X623484799Y-110024006D01*
X623529854Y-109984965D01*
X623538616Y-109980501D01*
X623560589Y-109964536D01*
X623710586Y-109855559D01*
X623710588Y-109855556D01*
X623710592Y-109855554D01*
X623860904Y-109705242D01*
X623860906Y-109705238D01*
X623860909Y-109705236D01*
X623985848Y-109533270D01*
X623985847Y-109533270D01*
X623985851Y-109533266D01*
X624082357Y-109343862D01*
X624148046Y-109141693D01*
X624181300Y-108931737D01*
X624181300Y-108719163D01*
X624148046Y-108509207D01*
X624082357Y-108307038D01*
X623985851Y-108117634D01*
X623985849Y-108117631D01*
X623985848Y-108117629D01*
X623860909Y-107945663D01*
X623710586Y-107795340D01*
X623538620Y-107670401D01*
X623537915Y-107670041D01*
X623529854Y-107665935D01*
X623479059Y-107617962D01*
X623462263Y-107550142D01*
X623484799Y-107484006D01*
X623529854Y-107444965D01*
X623538616Y-107440501D01*
X623641916Y-107365450D01*
X623710586Y-107315559D01*
X623710588Y-107315556D01*
X623710592Y-107315554D01*
X623860904Y-107165242D01*
X623860906Y-107165238D01*
X623860909Y-107165236D01*
X623985848Y-106993270D01*
X623985847Y-106993270D01*
X623985851Y-106993266D01*
X624082357Y-106803862D01*
X624148046Y-106601693D01*
X624181300Y-106391737D01*
X624181300Y-106179163D01*
X624148046Y-105969207D01*
X624082357Y-105767038D01*
X623985851Y-105577634D01*
X623985849Y-105577631D01*
X623985848Y-105577629D01*
X623860909Y-105405663D01*
X623710586Y-105255340D01*
X623538620Y-105130401D01*
X623537915Y-105130041D01*
X623529854Y-105125935D01*
X623479059Y-105077962D01*
X623462263Y-105010142D01*
X623484799Y-104944006D01*
X623529854Y-104904965D01*
X623538616Y-104900501D01*
X623560589Y-104884536D01*
X623710586Y-104775559D01*
X623710588Y-104775556D01*
X623710592Y-104775554D01*
X623860904Y-104625242D01*
X623860906Y-104625238D01*
X623860909Y-104625236D01*
X623985848Y-104453270D01*
X623985847Y-104453270D01*
X623985851Y-104453266D01*
X624082357Y-104263862D01*
X624148046Y-104061693D01*
X624181300Y-103851737D01*
X624181300Y-103639163D01*
X624148046Y-103429207D01*
X624082357Y-103227038D01*
X623985851Y-103037634D01*
X623985849Y-103037631D01*
X623985848Y-103037629D01*
X623860909Y-102865663D01*
X623710586Y-102715340D01*
X623538620Y-102590401D01*
X623537915Y-102590041D01*
X623529854Y-102585935D01*
X623479059Y-102537962D01*
X623462263Y-102470142D01*
X623484799Y-102404006D01*
X623529854Y-102364965D01*
X623538616Y-102360501D01*
X623588820Y-102324026D01*
X623710586Y-102235559D01*
X623710588Y-102235556D01*
X623710592Y-102235554D01*
X623860904Y-102085242D01*
X623860906Y-102085238D01*
X623860909Y-102085236D01*
X623985848Y-101913270D01*
X623985847Y-101913270D01*
X623985851Y-101913266D01*
X624082357Y-101723862D01*
X624148046Y-101521693D01*
X624181300Y-101311737D01*
X624181300Y-101099163D01*
X624148046Y-100889207D01*
X624082357Y-100687038D01*
X623985851Y-100497634D01*
X623985849Y-100497631D01*
X623985848Y-100497629D01*
X623860909Y-100325663D01*
X623710586Y-100175340D01*
X623538620Y-100050401D01*
X623386910Y-99973101D01*
X623336114Y-99925126D01*
X623319319Y-99857305D01*
X623341856Y-99791171D01*
X623355524Y-99774935D01*
X623934800Y-99195659D01*
X623934800Y-98792450D01*
X623262645Y-98792450D01*
X623280800Y-98724694D01*
X623280800Y-98606206D01*
X623262645Y-98538450D01*
X623934800Y-98538450D01*
X623934800Y-98135240D01*
X623361010Y-97561450D01*
X622957800Y-97561450D01*
X622957800Y-98233605D01*
X622890044Y-98215450D01*
X622771556Y-98215450D01*
X622703800Y-98233605D01*
X622703800Y-97561450D01*
X622300589Y-97561450D01*
X621726800Y-98135239D01*
X621726800Y-98538450D01*
X622398955Y-98538450D01*
X622380800Y-98606206D01*
X622380800Y-98724694D01*
X622398955Y-98792450D01*
X621726800Y-98792450D01*
X621726800Y-99195660D01*
X622306075Y-99774935D01*
X622339560Y-99836258D01*
X622334576Y-99905950D01*
X622292704Y-99961883D01*
X622274689Y-99973101D01*
X622122980Y-100050401D01*
X621951013Y-100175340D01*
X621800690Y-100325663D01*
X621675751Y-100497629D01*
X621579244Y-100687035D01*
X621513553Y-100889210D01*
X621480300Y-101099163D01*
X621480300Y-101297441D01*
X621473963Y-101319019D01*
X621472230Y-101341443D01*
X621464309Y-101351897D01*
X621460615Y-101364480D01*
X621443620Y-101379206D01*
X621430037Y-101397135D01*
X621417721Y-101401647D01*
X621407811Y-101410235D01*
X621385551Y-101413435D01*
X621364433Y-101421174D01*
X621346257Y-101419085D01*
X621338653Y-101420179D01*
X621329244Y-101418453D01*
X621321651Y-101416755D01*
X621319444Y-101415841D01*
X621303819Y-101412733D01*
X621302383Y-101412447D01*
X621302377Y-101412446D01*
X621193307Y-101390750D01*
X621193305Y-101390750D01*
X614415003Y-101390750D01*
X614385565Y-101382105D01*
X614355575Y-101375582D01*
X614350559Y-101371827D01*
X614347964Y-101371065D01*
X614327321Y-101354430D01*
X614274418Y-101301526D01*
X614240934Y-101240203D01*
X614238100Y-101213846D01*
X614238100Y-101166926D01*
X614247539Y-101119473D01*
X614258417Y-101093212D01*
X614285460Y-100957258D01*
X614285460Y-100818642D01*
X614285460Y-100818639D01*
X614285459Y-100818637D01*
X614270247Y-100742162D01*
X614258417Y-100682688D01*
X614258415Y-100682683D01*
X614205373Y-100554626D01*
X614128358Y-100439364D01*
X614030345Y-100341351D01*
X613915083Y-100264336D01*
X613787026Y-100211294D01*
X613787014Y-100211291D01*
X613651071Y-100184250D01*
X613651068Y-100184250D01*
X613554116Y-100184250D01*
X613487077Y-100164565D01*
X613466435Y-100147931D01*
X613386695Y-100068191D01*
X613329065Y-100029684D01*
X613271437Y-99991179D01*
X613271435Y-99991178D01*
X613236849Y-99976852D01*
X613229919Y-99972222D01*
X613224879Y-99971126D01*
X613196645Y-99949990D01*
X613196627Y-99949978D01*
X613175129Y-99928480D01*
X613175122Y-99928475D01*
X613175115Y-99928468D01*
X613109876Y-99884879D01*
X613109876Y-99884878D01*
X613109874Y-99884877D01*
X613109873Y-99884877D01*
X613108008Y-99883631D01*
X613068194Y-99857028D01*
X613068187Y-99857025D01*
X613068178Y-99857019D01*
X613068156Y-99857010D01*
X613068155Y-99857009D01*
X613009791Y-99832837D01*
X612949374Y-99807811D01*
X612949371Y-99807810D01*
X612949362Y-99807807D01*
X612904591Y-99798903D01*
X612904591Y-99798902D01*
X612904586Y-99798902D01*
X612884801Y-99794966D01*
X612823233Y-99782719D01*
X612823217Y-99782719D01*
X612792956Y-99782719D01*
X612791064Y-99782720D01*
X611166522Y-99782720D01*
X611040473Y-99807792D01*
X611040474Y-99807793D01*
X611040391Y-99807809D01*
X611040382Y-99807812D01*
X610921567Y-99857027D01*
X610814625Y-99928482D01*
X610814624Y-99928483D01*
X609922111Y-100820997D01*
X609860788Y-100854482D01*
X609791096Y-100849498D01*
X609735163Y-100807626D01*
X609710746Y-100742162D01*
X609710430Y-100733316D01*
X609710430Y-97009420D01*
X609730115Y-96942381D01*
X609782919Y-96896626D01*
X609834430Y-96885420D01*
X624371770Y-96885420D01*
X624438809Y-96905105D01*
G37*
%TD.AperFunction*%
%TD*%
M02*
