%TF.GenerationSoftware,KiCad,Pcbnew,9.0.4*%
%TF.CreationDate,2025-12-26T17:22:34-05:00*%
%TF.ProjectId,new_fretboard_rev1,6e65775f-6672-4657-9462-6f6172645f72,rev?*%
%TF.SameCoordinates,Original*%
%TF.FileFunction,Legend,Top*%
%TF.FilePolarity,Positive*%
%FSLAX46Y46*%
G04 Gerber Fmt 4.6, Leading zero omitted, Abs format (unit mm)*
G04 Created by KiCad (PCBNEW 9.0.4) date 2025-12-26 17:22:34*
%MOMM*%
%LPD*%
G01*
G04 APERTURE LIST*
G04 Aperture macros list*
%AMRoundRect*
0 Rectangle with rounded corners*
0 $1 Rounding radius*
0 $2 $3 $4 $5 $6 $7 $8 $9 X,Y pos of 4 corners*
0 Add a 4 corners polygon primitive as box body*
4,1,4,$2,$3,$4,$5,$6,$7,$8,$9,$2,$3,0*
0 Add four circle primitives for the rounded corners*
1,1,$1+$1,$2,$3*
1,1,$1+$1,$4,$5*
1,1,$1+$1,$6,$7*
1,1,$1+$1,$8,$9*
0 Add four rect primitives between the rounded corners*
20,1,$1+$1,$2,$3,$4,$5,0*
20,1,$1+$1,$4,$5,$6,$7,0*
20,1,$1+$1,$6,$7,$8,$9,0*
20,1,$1+$1,$8,$9,$2,$3,0*%
%AMFreePoly0*
4,1,25,0.484719,0.932196,0.496842,0.921842,0.921842,0.496842,0.950349,0.440894,0.951600,0.425000,0.951600,-0.425000,0.932196,-0.484719,0.921842,-0.496842,0.496842,-0.921842,0.440894,-0.950349,0.425000,-0.951600,-0.425000,-0.951600,-0.484719,-0.932196,-0.496842,-0.921842,-0.921842,-0.496842,-0.950349,-0.440894,-0.951600,-0.425000,-0.951600,0.425000,-0.932196,0.484719,-0.921842,0.496842,
-0.496842,0.921842,-0.440894,0.950349,-0.425000,0.951600,0.425000,0.951600,0.484719,0.932196,0.484719,0.932196,$1*%
G04 Aperture macros list end*
%ADD10C,0.127000*%
%ADD11C,0.200000*%
%ADD12RoundRect,0.250800X0.300800X0.250800X-0.300800X0.250800X-0.300800X-0.250800X0.300800X-0.250800X0*%
%ADD13RoundRect,0.250800X-0.300800X-0.250800X0.300800X-0.250800X0.300800X0.250800X-0.300800X0.250800X0*%
%ADD14C,0.203200*%
%ADD15RoundRect,0.250800X0.250800X-0.300800X0.250800X0.300800X-0.250800X0.300800X-0.250800X-0.300800X0*%
%ADD16RoundRect,0.250800X-0.250800X0.300800X-0.250800X-0.300800X0.250800X-0.300800X0.250800X0.300800X0*%
%ADD17O,0.550000X1.550000*%
%ADD18C,1.903200*%
%ADD19FreePoly0,270.000000*%
%ADD20C,0.609600*%
G04 APERTURE END LIST*
D10*
X301069169Y-102588280D02*
X301069169Y-105588480D01*
X212269649Y-102588280D02*
X212269649Y-107588380D01*
X27467729Y-102588280D02*
X27467729Y-105588480D01*
X579470608Y-102588280D02*
X579470608Y-105588480D01*
X392270368Y-102588280D02*
X392270368Y-105588480D01*
X411471088Y-102588280D02*
X411471088Y-105588480D01*
X437870368Y-102588280D02*
X437870368Y-105588480D01*
X538671088Y-102588280D02*
X538671088Y-105588480D01*
X70668689Y-102588280D02*
X70668689Y-105588480D01*
X229069169Y-102588280D02*
X229069169Y-105588480D01*
X471471088Y-102588280D02*
X471471088Y-105588480D01*
X77868929Y-102588280D02*
X77868929Y-105588480D01*
X68268449Y-102588280D02*
X68268449Y-107588380D01*
X113869169Y-102588280D02*
X113869169Y-105588480D01*
X382671088Y-102588280D02*
X382671088Y-105588480D01*
X80268449Y-102588280D02*
X80268449Y-105588480D01*
X481071328Y-102588280D02*
X481071328Y-105588480D01*
X269869169Y-102588280D02*
X269869169Y-105588480D01*
X322669409Y-102588280D02*
X322669409Y-105588480D01*
X550670848Y-102588280D02*
X550670848Y-105588480D01*
X581870848Y-102588280D02*
X581870848Y-105588480D01*
X493071328Y-102588280D02*
X493071328Y-105588480D01*
X524270848Y-102588280D02*
X524270848Y-107588380D01*
X329869408Y-102588280D02*
X329869408Y-105588480D01*
X106669169Y-102588280D02*
X106669169Y-105588480D01*
X152268929Y-102588280D02*
X152268929Y-105588480D01*
X490670848Y-102588280D02*
X490670848Y-105588480D01*
X409070848Y-102588280D02*
X409070848Y-105588480D01*
X248269169Y-102588280D02*
X248269169Y-105588480D01*
X22667705Y-102588280D02*
X22667705Y-105588480D01*
X97068689Y-102588280D02*
X97068689Y-105588480D01*
X109069409Y-102588280D02*
X109069409Y-105588480D01*
X183469409Y-102588280D02*
X183469409Y-105588480D01*
X298668929Y-102588280D02*
X298668929Y-105588480D01*
X92268929Y-102588280D02*
X92268929Y-107588380D01*
X34667705Y-102588280D02*
X34667705Y-105588480D01*
X197869409Y-102588280D02*
X197869409Y-105588480D01*
X241068929Y-102588280D02*
X241068929Y-105588480D01*
X193069649Y-102588280D02*
X193069649Y-105588480D01*
X308269169Y-102588280D02*
X308269169Y-107588380D01*
X25067249Y-102588280D02*
X25067249Y-105588480D01*
X185868929Y-102588280D02*
X185868929Y-105588480D01*
X205069649Y-102588280D02*
X205069649Y-105588480D01*
X507470608Y-102588280D02*
X507470608Y-105588480D01*
X459470368Y-102588280D02*
X459470368Y-105588480D01*
X541070608Y-102588280D02*
X541070608Y-105588480D01*
X195469169Y-102588280D02*
X195469169Y-105588480D01*
X94669409Y-102588280D02*
X94669409Y-105588480D01*
X221869169Y-102588280D02*
X221869169Y-105588480D01*
X416270848Y-102588280D02*
X416270848Y-105588480D01*
X104268689Y-102588280D02*
X104268689Y-105588480D01*
X593870608Y-102588280D02*
X593870608Y-105588480D01*
X548269888Y-102588280D02*
X308269169Y-102588280D01*
X327469889Y-102588280D02*
X327469889Y-105588480D01*
X373070608Y-102588280D02*
X373070608Y-105588480D01*
X567471088Y-102588280D02*
X567471088Y-105588480D01*
X209869409Y-102588280D02*
X209869409Y-105588480D01*
X385070368Y-102588280D02*
X385070368Y-105588480D01*
X529070608Y-102588280D02*
X529070608Y-105588480D01*
X332269648Y-102588280D02*
X332269648Y-107588380D01*
X51468209Y-102588280D02*
X51468209Y-105588480D01*
X497871088Y-102588280D02*
X497871088Y-105588480D01*
X512270368Y-102588280D02*
X512270368Y-105588480D01*
X368270128Y-102588280D02*
X368270128Y-105588480D01*
X128269169Y-102588280D02*
X128269169Y-105588480D01*
X457071088Y-102588280D02*
X457071088Y-105588480D01*
X370670368Y-102588280D02*
X370670368Y-105588480D01*
X56267729Y-102588280D02*
X56267729Y-105588480D01*
X531471088Y-102588280D02*
X531471088Y-105588480D01*
X267469649Y-102588280D02*
X267469649Y-105588480D01*
X142668449Y-102588280D02*
X142668449Y-105588480D01*
X61068449Y-102588280D02*
X61068449Y-105588480D01*
X260268689Y-102588280D02*
X260268689Y-107588380D01*
X521870608Y-102588280D02*
X521870608Y-105588480D01*
X565070608Y-102588280D02*
X565070608Y-105588480D01*
X365870608Y-102588280D02*
X365870608Y-105588480D01*
X574671088Y-102588280D02*
X574671088Y-105588480D01*
X361069888Y-102588280D02*
X361069888Y-105588480D01*
X591471088Y-102588280D02*
X591471088Y-105588480D01*
X356270128Y-102588280D02*
X356270128Y-107588380D01*
X243469409Y-102588280D02*
X243469409Y-105588480D01*
X536270848Y-102588280D02*
X536270848Y-105588480D01*
X236269169Y-102588280D02*
X236269169Y-107588380D01*
X255469169Y-102588280D02*
X255469169Y-105588480D01*
X387470848Y-102588280D02*
X387470848Y-105588480D01*
X29867969Y-102588280D02*
X29867969Y-105588480D01*
X509870848Y-102588280D02*
X509870848Y-105588480D01*
X87469169Y-102588280D02*
X87469169Y-105588480D01*
X161869169Y-102588280D02*
X161869169Y-105588480D01*
X356270128Y-102588280D02*
X356270128Y-107588380D01*
X421070608Y-102588280D02*
X421070608Y-105588480D01*
X425871328Y-102588280D02*
X425871328Y-105588480D01*
X202669169Y-102588280D02*
X202669169Y-105588480D01*
X181069169Y-102588280D02*
X181069169Y-105588480D01*
X377870368Y-102588280D02*
X377870368Y-105588480D01*
X375470848Y-102588280D02*
X375470848Y-105588480D01*
X231468689Y-102588280D02*
X231468689Y-105588480D01*
X413870608Y-102588280D02*
X413870608Y-105588480D01*
X495471568Y-102588280D02*
X495471568Y-105588480D01*
X73068209Y-102588280D02*
X73068209Y-105588480D01*
X169069409Y-102588280D02*
X169069409Y-105588480D01*
X320269169Y-102588280D02*
X320269169Y-105588480D01*
X63467969Y-102588280D02*
X63467969Y-105588480D01*
X135469409Y-102588280D02*
X135469409Y-105588480D01*
X121069169Y-102588280D02*
X121069169Y-105588480D01*
X339469888Y-102588280D02*
X339469888Y-105588480D01*
X418671328Y-102588280D02*
X418671328Y-105588480D01*
X238668689Y-102588280D02*
X238668689Y-105588480D01*
X75468689Y-102588280D02*
X75468689Y-105588480D01*
X164268689Y-102588280D02*
X164268689Y-107588380D01*
X219468929Y-102588280D02*
X219468929Y-105588480D01*
X265069409Y-102588280D02*
X265069409Y-105588480D01*
X445070368Y-102588280D02*
X445070368Y-105588480D01*
X526670368Y-102588280D02*
X526670368Y-105588480D01*
X281869649Y-102588280D02*
X281869649Y-105588480D01*
X469070848Y-102588280D02*
X469070848Y-105588480D01*
X253068929Y-102588280D02*
X253068929Y-105588480D01*
X488271568Y-102588280D02*
X488271568Y-105588480D01*
X483470848Y-102588280D02*
X483470848Y-105588480D01*
X473870608Y-102588280D02*
X473870608Y-105588480D01*
X272269169Y-102588280D02*
X272269169Y-105588480D01*
X452270368Y-102588280D02*
X452270368Y-107588380D01*
X358670368Y-102588280D02*
X358670368Y-105588480D01*
X553071088Y-102588280D02*
X553071088Y-105588480D01*
X305868929Y-102588280D02*
X305868929Y-105588480D01*
X32267465Y-102588280D02*
X32267465Y-105588480D01*
X478671088Y-102588280D02*
X478671088Y-105588480D01*
X440270608Y-102588280D02*
X440270608Y-105588480D01*
X173868929Y-102588280D02*
X173868929Y-105588480D01*
X454670848Y-102588280D02*
X454670848Y-105588480D01*
X157068689Y-102588280D02*
X157068689Y-105588480D01*
X111468929Y-102588280D02*
X111468929Y-105588480D01*
X118668929Y-102588280D02*
X118668929Y-105588480D01*
X308269169Y-102588280D02*
X68268449Y-102588280D01*
X548270368Y-102588280D02*
X548270368Y-107588380D01*
X279469409Y-102588280D02*
X279469409Y-105588480D01*
X284268929Y-102588280D02*
X284268929Y-107588380D01*
X214669169Y-102588280D02*
X214669169Y-105588480D01*
X125868929Y-102588280D02*
X125868929Y-105588480D01*
X545871088Y-102588280D02*
X545871088Y-105588480D01*
X137869649Y-102588280D02*
X137869649Y-105588480D01*
X353869888Y-102588280D02*
X353869888Y-105588480D01*
X286669409Y-102588280D02*
X286669409Y-105588480D01*
X433070608Y-102588280D02*
X433070608Y-105588480D01*
X289069409Y-102588280D02*
X289069409Y-105588480D01*
X166669169Y-102588280D02*
X166669169Y-105588480D01*
X363470368Y-102588280D02*
X363470368Y-105588480D01*
X449870848Y-102588280D02*
X449870848Y-105588480D01*
X346669888Y-102588280D02*
X346669888Y-105588480D01*
X351469648Y-102588280D02*
X351469648Y-105588480D01*
X85068929Y-102588280D02*
X85068929Y-105588480D01*
X423471088Y-102588280D02*
X423471088Y-105588480D01*
X200269889Y-102588280D02*
X200269889Y-105588480D01*
X344269408Y-102588280D02*
X344269408Y-105588480D01*
X464271088Y-102588280D02*
X464271088Y-105588480D01*
X442670128Y-102588280D02*
X442670128Y-105588480D01*
X461870608Y-102588280D02*
X461870608Y-105588480D01*
X586670608Y-102588280D02*
X586670608Y-105588480D01*
X406670608Y-102588280D02*
X406670608Y-105588480D01*
X569871328Y-102588280D02*
X569871328Y-105588480D01*
X250669409Y-102588280D02*
X250669409Y-105588480D01*
X502670848Y-102588280D02*
X502670848Y-105588480D01*
X58668209Y-102588280D02*
X58668209Y-105588480D01*
X303469409Y-102588280D02*
X303469409Y-105588480D01*
X543470848Y-102588280D02*
X543470848Y-105588480D01*
X53868449Y-102588280D02*
X53868449Y-105588480D01*
X154668449Y-102588280D02*
X154668449Y-105588480D01*
X296269409Y-102588280D02*
X296269409Y-105588480D01*
X310669409Y-102588280D02*
X310669409Y-105588480D01*
X596270848Y-102588280D02*
X356270128Y-102588280D01*
X572270608Y-102588280D02*
X572270608Y-107588380D01*
X389871088Y-102588280D02*
X389871088Y-105588480D01*
X557870848Y-102588280D02*
X557870848Y-105588480D01*
X577071088Y-102588280D02*
X577071088Y-105588480D01*
X207469889Y-102588280D02*
X207469889Y-105588480D01*
X65868185Y-102588280D02*
X65868185Y-105588480D01*
X39468209Y-102588280D02*
X39468209Y-105588480D01*
X394670848Y-102588280D02*
X394670848Y-105588480D01*
X130669649Y-102588280D02*
X130669649Y-105588480D01*
X404271088Y-102588280D02*
X404271088Y-107588380D01*
X49067729Y-102588280D02*
X49067729Y-105588480D01*
X560270848Y-102588280D02*
X560270848Y-105588480D01*
X476270848Y-102588280D02*
X476270848Y-107588380D01*
X224268689Y-102588280D02*
X224268689Y-105588480D01*
X293869169Y-102588280D02*
X293869169Y-105588480D01*
X89868689Y-102588280D02*
X89868689Y-105588480D01*
X341870128Y-102588280D02*
X341870128Y-105588480D01*
X82668689Y-102588280D02*
X82668689Y-105588480D01*
X116269409Y-102588280D02*
X116269409Y-107588380D01*
X260268209Y-102588280D02*
X20267465Y-102588280D01*
X101869409Y-102588280D02*
X101869409Y-105588480D01*
X447470608Y-102588280D02*
X447470608Y-105588480D01*
X315469409Y-102588280D02*
X315469409Y-105588480D01*
X217068449Y-102588280D02*
X217068449Y-105588480D01*
X596270848Y-102588280D02*
X596270848Y-107588380D01*
X517070848Y-102588280D02*
X517070848Y-105588480D01*
X584271088Y-102588280D02*
X584271088Y-105588480D01*
X334670128Y-102588280D02*
X334670128Y-105588480D01*
X178668689Y-102588280D02*
X178668689Y-105588480D01*
X397071088Y-102588280D02*
X397071088Y-105588480D01*
X46668425Y-102588280D02*
X46668425Y-105588480D01*
X133068929Y-102588280D02*
X133068929Y-105588480D01*
X68268449Y-102588280D02*
X68268449Y-107588380D01*
X262669169Y-102588280D02*
X262669169Y-105588480D01*
X171468689Y-102588280D02*
X171468689Y-105588480D01*
X147468209Y-102588280D02*
X147468209Y-105588480D01*
X380270608Y-102588280D02*
X380270608Y-107588380D01*
X226668929Y-102588280D02*
X226668929Y-105588480D01*
X500271328Y-102588280D02*
X500271328Y-107588380D01*
X257869409Y-102588280D02*
X257869409Y-105588480D01*
X188269169Y-102588280D02*
X188269169Y-107588380D01*
X325069649Y-102588280D02*
X325069649Y-105588480D01*
X41867729Y-102588280D02*
X41867729Y-105588480D01*
X313068929Y-102588280D02*
X313068929Y-105588480D01*
X145068929Y-102588280D02*
X145068929Y-105588480D01*
X176269409Y-102588280D02*
X176269409Y-105588480D01*
X277068929Y-102588280D02*
X277068929Y-105588480D01*
X514670608Y-102588280D02*
X514670608Y-105588480D01*
X44267969Y-102588280D02*
X44267969Y-107588380D01*
X245868929Y-102588280D02*
X245868929Y-105588480D01*
X519470368Y-102588280D02*
X519470368Y-105588480D01*
X533870608Y-102588280D02*
X533870608Y-105588480D01*
X99469169Y-102588280D02*
X99469169Y-105588480D01*
X401870848Y-102588280D02*
X401870848Y-105588480D01*
X430670128Y-102588280D02*
X430670128Y-105588480D01*
X190669409Y-102588280D02*
X190669409Y-105588480D01*
X428269888Y-102588280D02*
X428269888Y-107588380D01*
X399470608Y-102588280D02*
X399470608Y-105588480D01*
X317869649Y-102588280D02*
X317869649Y-105588480D01*
X149868689Y-102588280D02*
X149868689Y-105588480D01*
X562671328Y-102588280D02*
X562671328Y-105588480D01*
X505070128Y-102588280D02*
X505070128Y-105588480D01*
X555471328Y-102588280D02*
X555471328Y-105588480D01*
X140268209Y-102588280D02*
X140268209Y-107588380D01*
X435469888Y-102588280D02*
X435469888Y-105588480D01*
X589070848Y-102588280D02*
X589070848Y-105588480D01*
X274669649Y-102588280D02*
X274669649Y-105588480D01*
X337069408Y-102588280D02*
X337069408Y-105588480D01*
X233868929Y-102588280D02*
X233868929Y-105588480D01*
X485871088Y-102588280D02*
X485871088Y-105588480D01*
X37067969Y-102588280D02*
X37067969Y-105588480D01*
X20267465Y-102588280D02*
X20267465Y-107588380D01*
X466670368Y-102588280D02*
X466670368Y-105588480D01*
X123469409Y-102588280D02*
X123469409Y-105588480D01*
X159468929Y-102588280D02*
X159468929Y-105588480D01*
X291468929Y-102588280D02*
X291468929Y-105588480D01*
X349070128Y-102588280D02*
X349070128Y-105588480D01*
X620946253Y-97104049D02*
X620970443Y-97055668D01*
X620970443Y-97055668D02*
X620970443Y-96983097D01*
X620970443Y-96983097D02*
X620946253Y-96910525D01*
X620946253Y-96910525D02*
X620897872Y-96862144D01*
X620897872Y-96862144D02*
X620849491Y-96837954D01*
X620849491Y-96837954D02*
X620752729Y-96813763D01*
X620752729Y-96813763D02*
X620680157Y-96813763D01*
X620680157Y-96813763D02*
X620583395Y-96837954D01*
X620583395Y-96837954D02*
X620535014Y-96862144D01*
X620535014Y-96862144D02*
X620486634Y-96910525D01*
X620486634Y-96910525D02*
X620462443Y-96983097D01*
X620462443Y-96983097D02*
X620462443Y-97031478D01*
X620462443Y-97031478D02*
X620486634Y-97104049D01*
X620486634Y-97104049D02*
X620510824Y-97128240D01*
X620510824Y-97128240D02*
X620680157Y-97128240D01*
X620680157Y-97128240D02*
X620680157Y-97031478D01*
X620801110Y-97345954D02*
X620462443Y-97345954D01*
X620752729Y-97345954D02*
X620776919Y-97370144D01*
X620776919Y-97370144D02*
X620801110Y-97418525D01*
X620801110Y-97418525D02*
X620801110Y-97491097D01*
X620801110Y-97491097D02*
X620776919Y-97539478D01*
X620776919Y-97539478D02*
X620728538Y-97563668D01*
X620728538Y-97563668D02*
X620462443Y-97563668D01*
X620462443Y-98023287D02*
X620970443Y-98023287D01*
X620486634Y-98023287D02*
X620462443Y-97974906D01*
X620462443Y-97974906D02*
X620462443Y-97878144D01*
X620462443Y-97878144D02*
X620486634Y-97829763D01*
X620486634Y-97829763D02*
X620510824Y-97805573D01*
X620510824Y-97805573D02*
X620559205Y-97781382D01*
X620559205Y-97781382D02*
X620704348Y-97781382D01*
X620704348Y-97781382D02*
X620752729Y-97805573D01*
X620752729Y-97805573D02*
X620776919Y-97829763D01*
X620776919Y-97829763D02*
X620801110Y-97878144D01*
X620801110Y-97878144D02*
X620801110Y-97974906D01*
X620801110Y-97974906D02*
X620776919Y-98023287D01*
X620445683Y-108140954D02*
X620953683Y-108140954D01*
X620953683Y-108140954D02*
X620953683Y-108334478D01*
X620953683Y-108334478D02*
X620929493Y-108382859D01*
X620929493Y-108382859D02*
X620905302Y-108407049D01*
X620905302Y-108407049D02*
X620856921Y-108431240D01*
X620856921Y-108431240D02*
X620784350Y-108431240D01*
X620784350Y-108431240D02*
X620735969Y-108407049D01*
X620735969Y-108407049D02*
X620711778Y-108382859D01*
X620711778Y-108382859D02*
X620687588Y-108334478D01*
X620687588Y-108334478D02*
X620687588Y-108140954D01*
X620953683Y-108600573D02*
X620445683Y-108721525D01*
X620445683Y-108721525D02*
X620808540Y-108818287D01*
X620808540Y-108818287D02*
X620445683Y-108915049D01*
X620445683Y-108915049D02*
X620953683Y-109036002D01*
X620445683Y-109229525D02*
X620953683Y-109229525D01*
X620953683Y-109229525D02*
X620590826Y-109398858D01*
X620590826Y-109398858D02*
X620953683Y-109568192D01*
X620953683Y-109568192D02*
X620445683Y-109568192D01*
X474269958Y-107001323D02*
X474511863Y-107001323D01*
X474511863Y-107001323D02*
X474536054Y-106759418D01*
X474536054Y-106759418D02*
X474511863Y-106783609D01*
X474511863Y-106783609D02*
X474463482Y-106807799D01*
X474463482Y-106807799D02*
X474342530Y-106807799D01*
X474342530Y-106807799D02*
X474294149Y-106783609D01*
X474294149Y-106783609D02*
X474269958Y-106759418D01*
X474269958Y-106759418D02*
X474245768Y-106711037D01*
X474245768Y-106711037D02*
X474245768Y-106590085D01*
X474245768Y-106590085D02*
X474269958Y-106541704D01*
X474269958Y-106541704D02*
X474294149Y-106517514D01*
X474294149Y-106517514D02*
X474342530Y-106493323D01*
X474342530Y-106493323D02*
X474463482Y-106493323D01*
X474463482Y-106493323D02*
X474511863Y-106517514D01*
X474511863Y-106517514D02*
X474536054Y-106541704D01*
X473931291Y-107001323D02*
X473882910Y-107001323D01*
X473882910Y-107001323D02*
X473834529Y-106977133D01*
X473834529Y-106977133D02*
X473810339Y-106952942D01*
X473810339Y-106952942D02*
X473786148Y-106904561D01*
X473786148Y-106904561D02*
X473761958Y-106807799D01*
X473761958Y-106807799D02*
X473761958Y-106686847D01*
X473761958Y-106686847D02*
X473786148Y-106590085D01*
X473786148Y-106590085D02*
X473810339Y-106541704D01*
X473810339Y-106541704D02*
X473834529Y-106517514D01*
X473834529Y-106517514D02*
X473882910Y-106493323D01*
X473882910Y-106493323D02*
X473931291Y-106493323D01*
X473931291Y-106493323D02*
X473979672Y-106517514D01*
X473979672Y-106517514D02*
X474003863Y-106541704D01*
X474003863Y-106541704D02*
X474028053Y-106590085D01*
X474028053Y-106590085D02*
X474052244Y-106686847D01*
X474052244Y-106686847D02*
X474052244Y-106807799D01*
X474052244Y-106807799D02*
X474028053Y-106904561D01*
X474028053Y-106904561D02*
X474003863Y-106952942D01*
X474003863Y-106952942D02*
X473979672Y-106977133D01*
X473979672Y-106977133D02*
X473931291Y-107001323D01*
X570245768Y-106493323D02*
X570536054Y-106493323D01*
X570390911Y-106493323D02*
X570390911Y-107001323D01*
X570390911Y-107001323D02*
X570439292Y-106928752D01*
X570439292Y-106928752D02*
X570487673Y-106880371D01*
X570487673Y-106880371D02*
X570536054Y-106856180D01*
X569931291Y-107001323D02*
X569882910Y-107001323D01*
X569882910Y-107001323D02*
X569834529Y-106977133D01*
X569834529Y-106977133D02*
X569810339Y-106952942D01*
X569810339Y-106952942D02*
X569786148Y-106904561D01*
X569786148Y-106904561D02*
X569761958Y-106807799D01*
X569761958Y-106807799D02*
X569761958Y-106686847D01*
X569761958Y-106686847D02*
X569786148Y-106590085D01*
X569786148Y-106590085D02*
X569810339Y-106541704D01*
X569810339Y-106541704D02*
X569834529Y-106517514D01*
X569834529Y-106517514D02*
X569882910Y-106493323D01*
X569882910Y-106493323D02*
X569931291Y-106493323D01*
X569931291Y-106493323D02*
X569979672Y-106517514D01*
X569979672Y-106517514D02*
X570003863Y-106541704D01*
X570003863Y-106541704D02*
X570028053Y-106590085D01*
X570028053Y-106590085D02*
X570052244Y-106686847D01*
X570052244Y-106686847D02*
X570052244Y-106807799D01*
X570052244Y-106807799D02*
X570028053Y-106904561D01*
X570028053Y-106904561D02*
X570003863Y-106952942D01*
X570003863Y-106952942D02*
X569979672Y-106977133D01*
X569979672Y-106977133D02*
X569931291Y-107001323D01*
X313646889Y-106493323D02*
X313937175Y-106493323D01*
X313792032Y-106493323D02*
X313792032Y-107001323D01*
X313792032Y-107001323D02*
X313840413Y-106928752D01*
X313840413Y-106928752D02*
X313888794Y-106880371D01*
X313888794Y-106880371D02*
X313937175Y-106856180D01*
X313453365Y-106952942D02*
X313429174Y-106977133D01*
X313429174Y-106977133D02*
X313380793Y-107001323D01*
X313380793Y-107001323D02*
X313259841Y-107001323D01*
X313259841Y-107001323D02*
X313211460Y-106977133D01*
X313211460Y-106977133D02*
X313187269Y-106952942D01*
X313187269Y-106952942D02*
X313163079Y-106904561D01*
X313163079Y-106904561D02*
X313163079Y-106856180D01*
X313163079Y-106856180D02*
X313187269Y-106783609D01*
X313187269Y-106783609D02*
X313477555Y-106493323D01*
X313477555Y-106493323D02*
X313163079Y-106493323D01*
X312848602Y-107001323D02*
X312800221Y-107001323D01*
X312800221Y-107001323D02*
X312751840Y-106977133D01*
X312751840Y-106977133D02*
X312727650Y-106952942D01*
X312727650Y-106952942D02*
X312703459Y-106904561D01*
X312703459Y-106904561D02*
X312679269Y-106807799D01*
X312679269Y-106807799D02*
X312679269Y-106686847D01*
X312679269Y-106686847D02*
X312703459Y-106590085D01*
X312703459Y-106590085D02*
X312727650Y-106541704D01*
X312727650Y-106541704D02*
X312751840Y-106517514D01*
X312751840Y-106517514D02*
X312800221Y-106493323D01*
X312800221Y-106493323D02*
X312848602Y-106493323D01*
X312848602Y-106493323D02*
X312896983Y-106517514D01*
X312896983Y-106517514D02*
X312921174Y-106541704D01*
X312921174Y-106541704D02*
X312945364Y-106590085D01*
X312945364Y-106590085D02*
X312969555Y-106686847D01*
X312969555Y-106686847D02*
X312969555Y-106807799D01*
X312969555Y-106807799D02*
X312945364Y-106904561D01*
X312945364Y-106904561D02*
X312921174Y-106952942D01*
X312921174Y-106952942D02*
X312896983Y-106977133D01*
X312896983Y-106977133D02*
X312848602Y-107001323D01*
X498294149Y-106831990D02*
X498294149Y-106493323D01*
X498415101Y-107025514D02*
X498536054Y-106662656D01*
X498536054Y-106662656D02*
X498221577Y-106662656D01*
X497931291Y-107001323D02*
X497882910Y-107001323D01*
X497882910Y-107001323D02*
X497834529Y-106977133D01*
X497834529Y-106977133D02*
X497810339Y-106952942D01*
X497810339Y-106952942D02*
X497786148Y-106904561D01*
X497786148Y-106904561D02*
X497761958Y-106807799D01*
X497761958Y-106807799D02*
X497761958Y-106686847D01*
X497761958Y-106686847D02*
X497786148Y-106590085D01*
X497786148Y-106590085D02*
X497810339Y-106541704D01*
X497810339Y-106541704D02*
X497834529Y-106517514D01*
X497834529Y-106517514D02*
X497882910Y-106493323D01*
X497882910Y-106493323D02*
X497931291Y-106493323D01*
X497931291Y-106493323D02*
X497979672Y-106517514D01*
X497979672Y-106517514D02*
X498003863Y-106541704D01*
X498003863Y-106541704D02*
X498028053Y-106590085D01*
X498028053Y-106590085D02*
X498052244Y-106686847D01*
X498052244Y-106686847D02*
X498052244Y-106807799D01*
X498052244Y-106807799D02*
X498028053Y-106904561D01*
X498028053Y-106904561D02*
X498003863Y-106952942D01*
X498003863Y-106952942D02*
X497979672Y-106977133D01*
X497979672Y-106977133D02*
X497931291Y-107001323D01*
X546536054Y-106952942D02*
X546511863Y-106977133D01*
X546511863Y-106977133D02*
X546463482Y-107001323D01*
X546463482Y-107001323D02*
X546342530Y-107001323D01*
X546342530Y-107001323D02*
X546294149Y-106977133D01*
X546294149Y-106977133D02*
X546269958Y-106952942D01*
X546269958Y-106952942D02*
X546245768Y-106904561D01*
X546245768Y-106904561D02*
X546245768Y-106856180D01*
X546245768Y-106856180D02*
X546269958Y-106783609D01*
X546269958Y-106783609D02*
X546560244Y-106493323D01*
X546560244Y-106493323D02*
X546245768Y-106493323D01*
X545931291Y-107001323D02*
X545882910Y-107001323D01*
X545882910Y-107001323D02*
X545834529Y-106977133D01*
X545834529Y-106977133D02*
X545810339Y-106952942D01*
X545810339Y-106952942D02*
X545786148Y-106904561D01*
X545786148Y-106904561D02*
X545761958Y-106807799D01*
X545761958Y-106807799D02*
X545761958Y-106686847D01*
X545761958Y-106686847D02*
X545786148Y-106590085D01*
X545786148Y-106590085D02*
X545810339Y-106541704D01*
X545810339Y-106541704D02*
X545834529Y-106517514D01*
X545834529Y-106517514D02*
X545882910Y-106493323D01*
X545882910Y-106493323D02*
X545931291Y-106493323D01*
X545931291Y-106493323D02*
X545979672Y-106517514D01*
X545979672Y-106517514D02*
X546003863Y-106541704D01*
X546003863Y-106541704D02*
X546028053Y-106590085D01*
X546028053Y-106590085D02*
X546052244Y-106686847D01*
X546052244Y-106686847D02*
X546052244Y-106807799D01*
X546052244Y-106807799D02*
X546028053Y-106904561D01*
X546028053Y-106904561D02*
X546003863Y-106952942D01*
X546003863Y-106952942D02*
X545979672Y-106977133D01*
X545979672Y-106977133D02*
X545931291Y-107001323D01*
X378487673Y-106493323D02*
X378390911Y-106493323D01*
X378390911Y-106493323D02*
X378342530Y-106517514D01*
X378342530Y-106517514D02*
X378318339Y-106541704D01*
X378318339Y-106541704D02*
X378269958Y-106614275D01*
X378269958Y-106614275D02*
X378245768Y-106711037D01*
X378245768Y-106711037D02*
X378245768Y-106904561D01*
X378245768Y-106904561D02*
X378269958Y-106952942D01*
X378269958Y-106952942D02*
X378294149Y-106977133D01*
X378294149Y-106977133D02*
X378342530Y-107001323D01*
X378342530Y-107001323D02*
X378439292Y-107001323D01*
X378439292Y-107001323D02*
X378487673Y-106977133D01*
X378487673Y-106977133D02*
X378511863Y-106952942D01*
X378511863Y-106952942D02*
X378536054Y-106904561D01*
X378536054Y-106904561D02*
X378536054Y-106783609D01*
X378536054Y-106783609D02*
X378511863Y-106735228D01*
X378511863Y-106735228D02*
X378487673Y-106711037D01*
X378487673Y-106711037D02*
X378439292Y-106686847D01*
X378439292Y-106686847D02*
X378342530Y-106686847D01*
X378342530Y-106686847D02*
X378294149Y-106711037D01*
X378294149Y-106711037D02*
X378269958Y-106735228D01*
X378269958Y-106735228D02*
X378245768Y-106783609D01*
X377931291Y-107001323D02*
X377882910Y-107001323D01*
X377882910Y-107001323D02*
X377834529Y-106977133D01*
X377834529Y-106977133D02*
X377810339Y-106952942D01*
X377810339Y-106952942D02*
X377786148Y-106904561D01*
X377786148Y-106904561D02*
X377761958Y-106807799D01*
X377761958Y-106807799D02*
X377761958Y-106686847D01*
X377761958Y-106686847D02*
X377786148Y-106590085D01*
X377786148Y-106590085D02*
X377810339Y-106541704D01*
X377810339Y-106541704D02*
X377834529Y-106517514D01*
X377834529Y-106517514D02*
X377882910Y-106493323D01*
X377882910Y-106493323D02*
X377931291Y-106493323D01*
X377931291Y-106493323D02*
X377979672Y-106517514D01*
X377979672Y-106517514D02*
X378003863Y-106541704D01*
X378003863Y-106541704D02*
X378028053Y-106590085D01*
X378028053Y-106590085D02*
X378052244Y-106686847D01*
X378052244Y-106686847D02*
X378052244Y-106807799D01*
X378052244Y-106807799D02*
X378028053Y-106904561D01*
X378028053Y-106904561D02*
X378003863Y-106952942D01*
X378003863Y-106952942D02*
X377979672Y-106977133D01*
X377979672Y-106977133D02*
X377931291Y-107001323D01*
X620411643Y-110846054D02*
X620919643Y-110846054D01*
X620919643Y-111184721D02*
X620919643Y-111281483D01*
X620919643Y-111281483D02*
X620895453Y-111329864D01*
X620895453Y-111329864D02*
X620847072Y-111378245D01*
X620847072Y-111378245D02*
X620750310Y-111402435D01*
X620750310Y-111402435D02*
X620580976Y-111402435D01*
X620580976Y-111402435D02*
X620484214Y-111378245D01*
X620484214Y-111378245D02*
X620435834Y-111329864D01*
X620435834Y-111329864D02*
X620411643Y-111281483D01*
X620411643Y-111281483D02*
X620411643Y-111184721D01*
X620411643Y-111184721D02*
X620435834Y-111136340D01*
X620435834Y-111136340D02*
X620484214Y-111087959D01*
X620484214Y-111087959D02*
X620580976Y-111063768D01*
X620580976Y-111063768D02*
X620750310Y-111063768D01*
X620750310Y-111063768D02*
X620847072Y-111087959D01*
X620847072Y-111087959D02*
X620895453Y-111136340D01*
X620895453Y-111136340D02*
X620919643Y-111184721D01*
X620411643Y-111620149D02*
X620919643Y-111620149D01*
X620411643Y-111862054D02*
X620919643Y-111862054D01*
X620919643Y-111862054D02*
X620411643Y-112152340D01*
X620411643Y-112152340D02*
X620919643Y-112152340D01*
X330245768Y-106493323D02*
X330536054Y-106493323D01*
X330390911Y-106493323D02*
X330390911Y-107001323D01*
X330390911Y-107001323D02*
X330439292Y-106928752D01*
X330439292Y-106928752D02*
X330487673Y-106880371D01*
X330487673Y-106880371D02*
X330536054Y-106856180D01*
X329761958Y-106493323D02*
X330052244Y-106493323D01*
X329907101Y-106493323D02*
X329907101Y-107001323D01*
X329907101Y-107001323D02*
X329955482Y-106928752D01*
X329955482Y-106928752D02*
X330003863Y-106880371D01*
X330003863Y-106880371D02*
X330052244Y-106856180D01*
X329447481Y-107001323D02*
X329399100Y-107001323D01*
X329399100Y-107001323D02*
X329350719Y-106977133D01*
X329350719Y-106977133D02*
X329326529Y-106952942D01*
X329326529Y-106952942D02*
X329302338Y-106904561D01*
X329302338Y-106904561D02*
X329278148Y-106807799D01*
X329278148Y-106807799D02*
X329278148Y-106686847D01*
X329278148Y-106686847D02*
X329302338Y-106590085D01*
X329302338Y-106590085D02*
X329326529Y-106541704D01*
X329326529Y-106541704D02*
X329350719Y-106517514D01*
X329350719Y-106517514D02*
X329399100Y-106493323D01*
X329399100Y-106493323D02*
X329447481Y-106493323D01*
X329447481Y-106493323D02*
X329495862Y-106517514D01*
X329495862Y-106517514D02*
X329520053Y-106541704D01*
X329520053Y-106541704D02*
X329544243Y-106590085D01*
X329544243Y-106590085D02*
X329568434Y-106686847D01*
X329568434Y-106686847D02*
X329568434Y-106807799D01*
X329568434Y-106807799D02*
X329544243Y-106904561D01*
X329544243Y-106904561D02*
X329520053Y-106952942D01*
X329520053Y-106952942D02*
X329495862Y-106977133D01*
X329495862Y-106977133D02*
X329447481Y-107001323D01*
X522560244Y-107001323D02*
X522245768Y-107001323D01*
X522245768Y-107001323D02*
X522415101Y-106807799D01*
X522415101Y-106807799D02*
X522342530Y-106807799D01*
X522342530Y-106807799D02*
X522294149Y-106783609D01*
X522294149Y-106783609D02*
X522269958Y-106759418D01*
X522269958Y-106759418D02*
X522245768Y-106711037D01*
X522245768Y-106711037D02*
X522245768Y-106590085D01*
X522245768Y-106590085D02*
X522269958Y-106541704D01*
X522269958Y-106541704D02*
X522294149Y-106517514D01*
X522294149Y-106517514D02*
X522342530Y-106493323D01*
X522342530Y-106493323D02*
X522487673Y-106493323D01*
X522487673Y-106493323D02*
X522536054Y-106517514D01*
X522536054Y-106517514D02*
X522560244Y-106541704D01*
X521931291Y-107001323D02*
X521882910Y-107001323D01*
X521882910Y-107001323D02*
X521834529Y-106977133D01*
X521834529Y-106977133D02*
X521810339Y-106952942D01*
X521810339Y-106952942D02*
X521786148Y-106904561D01*
X521786148Y-106904561D02*
X521761958Y-106807799D01*
X521761958Y-106807799D02*
X521761958Y-106686847D01*
X521761958Y-106686847D02*
X521786148Y-106590085D01*
X521786148Y-106590085D02*
X521810339Y-106541704D01*
X521810339Y-106541704D02*
X521834529Y-106517514D01*
X521834529Y-106517514D02*
X521882910Y-106493323D01*
X521882910Y-106493323D02*
X521931291Y-106493323D01*
X521931291Y-106493323D02*
X521979672Y-106517514D01*
X521979672Y-106517514D02*
X522003863Y-106541704D01*
X522003863Y-106541704D02*
X522028053Y-106590085D01*
X522028053Y-106590085D02*
X522052244Y-106686847D01*
X522052244Y-106686847D02*
X522052244Y-106807799D01*
X522052244Y-106807799D02*
X522028053Y-106904561D01*
X522028053Y-106904561D02*
X522003863Y-106952942D01*
X522003863Y-106952942D02*
X521979672Y-106977133D01*
X521979672Y-106977133D02*
X521931291Y-107001323D01*
X620448534Y-104852863D02*
X620424343Y-104925435D01*
X620424343Y-104925435D02*
X620424343Y-105046387D01*
X620424343Y-105046387D02*
X620448534Y-105094768D01*
X620448534Y-105094768D02*
X620472724Y-105118959D01*
X620472724Y-105118959D02*
X620521105Y-105143149D01*
X620521105Y-105143149D02*
X620569486Y-105143149D01*
X620569486Y-105143149D02*
X620617867Y-105118959D01*
X620617867Y-105118959D02*
X620642057Y-105094768D01*
X620642057Y-105094768D02*
X620666248Y-105046387D01*
X620666248Y-105046387D02*
X620690438Y-104949625D01*
X620690438Y-104949625D02*
X620714629Y-104901244D01*
X620714629Y-104901244D02*
X620738819Y-104877054D01*
X620738819Y-104877054D02*
X620787200Y-104852863D01*
X620787200Y-104852863D02*
X620835581Y-104852863D01*
X620835581Y-104852863D02*
X620883962Y-104877054D01*
X620883962Y-104877054D02*
X620908153Y-104901244D01*
X620908153Y-104901244D02*
X620932343Y-104949625D01*
X620932343Y-104949625D02*
X620932343Y-105070578D01*
X620932343Y-105070578D02*
X620908153Y-105143149D01*
X620690438Y-105360864D02*
X620690438Y-105530197D01*
X620424343Y-105602769D02*
X620424343Y-105360864D01*
X620424343Y-105360864D02*
X620932343Y-105360864D01*
X620932343Y-105360864D02*
X620932343Y-105602769D01*
X620424343Y-105820483D02*
X620932343Y-105820483D01*
X620932343Y-105820483D02*
X620424343Y-106110769D01*
X620424343Y-106110769D02*
X620932343Y-106110769D01*
X620932343Y-106280101D02*
X620932343Y-106570387D01*
X620424343Y-106425244D02*
X620932343Y-106425244D01*
X620919643Y-99279982D02*
X620411643Y-99449316D01*
X620411643Y-99449316D02*
X620919643Y-99618649D01*
X620411643Y-99787983D02*
X620750310Y-99787983D01*
X620919643Y-99787983D02*
X620895453Y-99763792D01*
X620895453Y-99763792D02*
X620871262Y-99787983D01*
X620871262Y-99787983D02*
X620895453Y-99812173D01*
X620895453Y-99812173D02*
X620919643Y-99787983D01*
X620919643Y-99787983D02*
X620871262Y-99787983D01*
X620750310Y-100029888D02*
X620411643Y-100029888D01*
X620701929Y-100029888D02*
X620726119Y-100054078D01*
X620726119Y-100054078D02*
X620750310Y-100102459D01*
X620750310Y-100102459D02*
X620750310Y-100175031D01*
X620750310Y-100175031D02*
X620726119Y-100223412D01*
X620726119Y-100223412D02*
X620677738Y-100247602D01*
X620677738Y-100247602D02*
X620411643Y-100247602D01*
X402439292Y-106783609D02*
X402487673Y-106807799D01*
X402487673Y-106807799D02*
X402511863Y-106831990D01*
X402511863Y-106831990D02*
X402536054Y-106880371D01*
X402536054Y-106880371D02*
X402536054Y-106904561D01*
X402536054Y-106904561D02*
X402511863Y-106952942D01*
X402511863Y-106952942D02*
X402487673Y-106977133D01*
X402487673Y-106977133D02*
X402439292Y-107001323D01*
X402439292Y-107001323D02*
X402342530Y-107001323D01*
X402342530Y-107001323D02*
X402294149Y-106977133D01*
X402294149Y-106977133D02*
X402269958Y-106952942D01*
X402269958Y-106952942D02*
X402245768Y-106904561D01*
X402245768Y-106904561D02*
X402245768Y-106880371D01*
X402245768Y-106880371D02*
X402269958Y-106831990D01*
X402269958Y-106831990D02*
X402294149Y-106807799D01*
X402294149Y-106807799D02*
X402342530Y-106783609D01*
X402342530Y-106783609D02*
X402439292Y-106783609D01*
X402439292Y-106783609D02*
X402487673Y-106759418D01*
X402487673Y-106759418D02*
X402511863Y-106735228D01*
X402511863Y-106735228D02*
X402536054Y-106686847D01*
X402536054Y-106686847D02*
X402536054Y-106590085D01*
X402536054Y-106590085D02*
X402511863Y-106541704D01*
X402511863Y-106541704D02*
X402487673Y-106517514D01*
X402487673Y-106517514D02*
X402439292Y-106493323D01*
X402439292Y-106493323D02*
X402342530Y-106493323D01*
X402342530Y-106493323D02*
X402294149Y-106517514D01*
X402294149Y-106517514D02*
X402269958Y-106541704D01*
X402269958Y-106541704D02*
X402245768Y-106590085D01*
X402245768Y-106590085D02*
X402245768Y-106686847D01*
X402245768Y-106686847D02*
X402269958Y-106735228D01*
X402269958Y-106735228D02*
X402294149Y-106759418D01*
X402294149Y-106759418D02*
X402342530Y-106783609D01*
X401931291Y-107001323D02*
X401882910Y-107001323D01*
X401882910Y-107001323D02*
X401834529Y-106977133D01*
X401834529Y-106977133D02*
X401810339Y-106952942D01*
X401810339Y-106952942D02*
X401786148Y-106904561D01*
X401786148Y-106904561D02*
X401761958Y-106807799D01*
X401761958Y-106807799D02*
X401761958Y-106686847D01*
X401761958Y-106686847D02*
X401786148Y-106590085D01*
X401786148Y-106590085D02*
X401810339Y-106541704D01*
X401810339Y-106541704D02*
X401834529Y-106517514D01*
X401834529Y-106517514D02*
X401882910Y-106493323D01*
X401882910Y-106493323D02*
X401931291Y-106493323D01*
X401931291Y-106493323D02*
X401979672Y-106517514D01*
X401979672Y-106517514D02*
X402003863Y-106541704D01*
X402003863Y-106541704D02*
X402028053Y-106590085D01*
X402028053Y-106590085D02*
X402052244Y-106686847D01*
X402052244Y-106686847D02*
X402052244Y-106807799D01*
X402052244Y-106807799D02*
X402028053Y-106904561D01*
X402028053Y-106904561D02*
X402003863Y-106952942D01*
X402003863Y-106952942D02*
X401979672Y-106977133D01*
X401979672Y-106977133D02*
X401931291Y-107001323D01*
X594415101Y-107001323D02*
X594366720Y-107001323D01*
X594366720Y-107001323D02*
X594318339Y-106977133D01*
X594318339Y-106977133D02*
X594294149Y-106952942D01*
X594294149Y-106952942D02*
X594269958Y-106904561D01*
X594269958Y-106904561D02*
X594245768Y-106807799D01*
X594245768Y-106807799D02*
X594245768Y-106686847D01*
X594245768Y-106686847D02*
X594269958Y-106590085D01*
X594269958Y-106590085D02*
X594294149Y-106541704D01*
X594294149Y-106541704D02*
X594318339Y-106517514D01*
X594318339Y-106517514D02*
X594366720Y-106493323D01*
X594366720Y-106493323D02*
X594415101Y-106493323D01*
X594415101Y-106493323D02*
X594463482Y-106517514D01*
X594463482Y-106517514D02*
X594487673Y-106541704D01*
X594487673Y-106541704D02*
X594511863Y-106590085D01*
X594511863Y-106590085D02*
X594536054Y-106686847D01*
X594536054Y-106686847D02*
X594536054Y-106807799D01*
X594536054Y-106807799D02*
X594511863Y-106904561D01*
X594511863Y-106904561D02*
X594487673Y-106952942D01*
X594487673Y-106952942D02*
X594463482Y-106977133D01*
X594463482Y-106977133D02*
X594415101Y-107001323D01*
X354245768Y-106493323D02*
X354536054Y-106493323D01*
X354390911Y-106493323D02*
X354390911Y-107001323D01*
X354390911Y-107001323D02*
X354439292Y-106928752D01*
X354439292Y-106928752D02*
X354487673Y-106880371D01*
X354487673Y-106880371D02*
X354536054Y-106856180D01*
X353931291Y-107001323D02*
X353882910Y-107001323D01*
X353882910Y-107001323D02*
X353834529Y-106977133D01*
X353834529Y-106977133D02*
X353810339Y-106952942D01*
X353810339Y-106952942D02*
X353786148Y-106904561D01*
X353786148Y-106904561D02*
X353761958Y-106807799D01*
X353761958Y-106807799D02*
X353761958Y-106686847D01*
X353761958Y-106686847D02*
X353786148Y-106590085D01*
X353786148Y-106590085D02*
X353810339Y-106541704D01*
X353810339Y-106541704D02*
X353834529Y-106517514D01*
X353834529Y-106517514D02*
X353882910Y-106493323D01*
X353882910Y-106493323D02*
X353931291Y-106493323D01*
X353931291Y-106493323D02*
X353979672Y-106517514D01*
X353979672Y-106517514D02*
X354003863Y-106541704D01*
X354003863Y-106541704D02*
X354028053Y-106590085D01*
X354028053Y-106590085D02*
X354052244Y-106686847D01*
X354052244Y-106686847D02*
X354052244Y-106807799D01*
X354052244Y-106807799D02*
X354028053Y-106904561D01*
X354028053Y-106904561D02*
X354003863Y-106952942D01*
X354003863Y-106952942D02*
X353979672Y-106977133D01*
X353979672Y-106977133D02*
X353931291Y-107001323D01*
X353447481Y-107001323D02*
X353399100Y-107001323D01*
X353399100Y-107001323D02*
X353350719Y-106977133D01*
X353350719Y-106977133D02*
X353326529Y-106952942D01*
X353326529Y-106952942D02*
X353302338Y-106904561D01*
X353302338Y-106904561D02*
X353278148Y-106807799D01*
X353278148Y-106807799D02*
X353278148Y-106686847D01*
X353278148Y-106686847D02*
X353302338Y-106590085D01*
X353302338Y-106590085D02*
X353326529Y-106541704D01*
X353326529Y-106541704D02*
X353350719Y-106517514D01*
X353350719Y-106517514D02*
X353399100Y-106493323D01*
X353399100Y-106493323D02*
X353447481Y-106493323D01*
X353447481Y-106493323D02*
X353495862Y-106517514D01*
X353495862Y-106517514D02*
X353520053Y-106541704D01*
X353520053Y-106541704D02*
X353544243Y-106590085D01*
X353544243Y-106590085D02*
X353568434Y-106686847D01*
X353568434Y-106686847D02*
X353568434Y-106807799D01*
X353568434Y-106807799D02*
X353544243Y-106904561D01*
X353544243Y-106904561D02*
X353520053Y-106952942D01*
X353520053Y-106952942D02*
X353495862Y-106977133D01*
X353495862Y-106977133D02*
X353447481Y-107001323D01*
X620709186Y-101797813D02*
X620709186Y-102039718D01*
X620564043Y-101749432D02*
X621072043Y-101918766D01*
X621072043Y-101918766D02*
X620564043Y-102088099D01*
X620564043Y-102330004D02*
X620588234Y-102281623D01*
X620588234Y-102281623D02*
X620612424Y-102257433D01*
X620612424Y-102257433D02*
X620660805Y-102233242D01*
X620660805Y-102233242D02*
X620805948Y-102233242D01*
X620805948Y-102233242D02*
X620854329Y-102257433D01*
X620854329Y-102257433D02*
X620878519Y-102281623D01*
X620878519Y-102281623D02*
X620902710Y-102330004D01*
X620902710Y-102330004D02*
X620902710Y-102402576D01*
X620902710Y-102402576D02*
X620878519Y-102450957D01*
X620878519Y-102450957D02*
X620854329Y-102475147D01*
X620854329Y-102475147D02*
X620805948Y-102499338D01*
X620805948Y-102499338D02*
X620660805Y-102499338D01*
X620660805Y-102499338D02*
X620612424Y-102475147D01*
X620612424Y-102475147D02*
X620588234Y-102450957D01*
X620588234Y-102450957D02*
X620564043Y-102402576D01*
X620564043Y-102402576D02*
X620564043Y-102330004D01*
X620902710Y-102934766D02*
X620564043Y-102934766D01*
X620902710Y-102717052D02*
X620636614Y-102717052D01*
X620636614Y-102717052D02*
X620588234Y-102741242D01*
X620588234Y-102741242D02*
X620564043Y-102789623D01*
X620564043Y-102789623D02*
X620564043Y-102862195D01*
X620564043Y-102862195D02*
X620588234Y-102910576D01*
X620588234Y-102910576D02*
X620612424Y-102934766D01*
X620902710Y-103104099D02*
X620902710Y-103297623D01*
X621072043Y-103176671D02*
X620636614Y-103176671D01*
X620636614Y-103176671D02*
X620588234Y-103200861D01*
X620588234Y-103200861D02*
X620564043Y-103249242D01*
X620564043Y-103249242D02*
X620564043Y-103297623D01*
X426560244Y-107001323D02*
X426221577Y-107001323D01*
X426221577Y-107001323D02*
X426439292Y-106493323D01*
X425931291Y-107001323D02*
X425882910Y-107001323D01*
X425882910Y-107001323D02*
X425834529Y-106977133D01*
X425834529Y-106977133D02*
X425810339Y-106952942D01*
X425810339Y-106952942D02*
X425786148Y-106904561D01*
X425786148Y-106904561D02*
X425761958Y-106807799D01*
X425761958Y-106807799D02*
X425761958Y-106686847D01*
X425761958Y-106686847D02*
X425786148Y-106590085D01*
X425786148Y-106590085D02*
X425810339Y-106541704D01*
X425810339Y-106541704D02*
X425834529Y-106517514D01*
X425834529Y-106517514D02*
X425882910Y-106493323D01*
X425882910Y-106493323D02*
X425931291Y-106493323D01*
X425931291Y-106493323D02*
X425979672Y-106517514D01*
X425979672Y-106517514D02*
X426003863Y-106541704D01*
X426003863Y-106541704D02*
X426028053Y-106590085D01*
X426028053Y-106590085D02*
X426052244Y-106686847D01*
X426052244Y-106686847D02*
X426052244Y-106807799D01*
X426052244Y-106807799D02*
X426028053Y-106904561D01*
X426028053Y-106904561D02*
X426003863Y-106952942D01*
X426003863Y-106952942D02*
X425979672Y-106977133D01*
X425979672Y-106977133D02*
X425931291Y-107001323D01*
X450294149Y-107001323D02*
X450390911Y-107001323D01*
X450390911Y-107001323D02*
X450439292Y-106977133D01*
X450439292Y-106977133D02*
X450463482Y-106952942D01*
X450463482Y-106952942D02*
X450511863Y-106880371D01*
X450511863Y-106880371D02*
X450536054Y-106783609D01*
X450536054Y-106783609D02*
X450536054Y-106590085D01*
X450536054Y-106590085D02*
X450511863Y-106541704D01*
X450511863Y-106541704D02*
X450487673Y-106517514D01*
X450487673Y-106517514D02*
X450439292Y-106493323D01*
X450439292Y-106493323D02*
X450342530Y-106493323D01*
X450342530Y-106493323D02*
X450294149Y-106517514D01*
X450294149Y-106517514D02*
X450269958Y-106541704D01*
X450269958Y-106541704D02*
X450245768Y-106590085D01*
X450245768Y-106590085D02*
X450245768Y-106711037D01*
X450245768Y-106711037D02*
X450269958Y-106759418D01*
X450269958Y-106759418D02*
X450294149Y-106783609D01*
X450294149Y-106783609D02*
X450342530Y-106807799D01*
X450342530Y-106807799D02*
X450439292Y-106807799D01*
X450439292Y-106807799D02*
X450487673Y-106783609D01*
X450487673Y-106783609D02*
X450511863Y-106759418D01*
X450511863Y-106759418D02*
X450536054Y-106711037D01*
X449931291Y-107001323D02*
X449882910Y-107001323D01*
X449882910Y-107001323D02*
X449834529Y-106977133D01*
X449834529Y-106977133D02*
X449810339Y-106952942D01*
X449810339Y-106952942D02*
X449786148Y-106904561D01*
X449786148Y-106904561D02*
X449761958Y-106807799D01*
X449761958Y-106807799D02*
X449761958Y-106686847D01*
X449761958Y-106686847D02*
X449786148Y-106590085D01*
X449786148Y-106590085D02*
X449810339Y-106541704D01*
X449810339Y-106541704D02*
X449834529Y-106517514D01*
X449834529Y-106517514D02*
X449882910Y-106493323D01*
X449882910Y-106493323D02*
X449931291Y-106493323D01*
X449931291Y-106493323D02*
X449979672Y-106517514D01*
X449979672Y-106517514D02*
X450003863Y-106541704D01*
X450003863Y-106541704D02*
X450028053Y-106590085D01*
X450028053Y-106590085D02*
X450052244Y-106686847D01*
X450052244Y-106686847D02*
X450052244Y-106807799D01*
X450052244Y-106807799D02*
X450028053Y-106904561D01*
X450028053Y-106904561D02*
X450003863Y-106952942D01*
X450003863Y-106952942D02*
X449979672Y-106977133D01*
X449979672Y-106977133D02*
X449931291Y-107001323D01*
X615185909Y-112334774D02*
X615210100Y-112310584D01*
X615210100Y-112310584D02*
X615282671Y-112286393D01*
X615282671Y-112286393D02*
X615331052Y-112286393D01*
X615331052Y-112286393D02*
X615403624Y-112310584D01*
X615403624Y-112310584D02*
X615452005Y-112358964D01*
X615452005Y-112358964D02*
X615476195Y-112407345D01*
X615476195Y-112407345D02*
X615500386Y-112504107D01*
X615500386Y-112504107D02*
X615500386Y-112576679D01*
X615500386Y-112576679D02*
X615476195Y-112673441D01*
X615476195Y-112673441D02*
X615452005Y-112721822D01*
X615452005Y-112721822D02*
X615403624Y-112770203D01*
X615403624Y-112770203D02*
X615331052Y-112794393D01*
X615331052Y-112794393D02*
X615282671Y-112794393D01*
X615282671Y-112794393D02*
X615210100Y-112770203D01*
X615210100Y-112770203D02*
X615185909Y-112746012D01*
X614702100Y-112286393D02*
X614992386Y-112286393D01*
X614847243Y-112286393D02*
X614847243Y-112794393D01*
X614847243Y-112794393D02*
X614895624Y-112721822D01*
X614895624Y-112721822D02*
X614944005Y-112673441D01*
X614944005Y-112673441D02*
X614992386Y-112649250D01*
X613661909Y-112296674D02*
X613686100Y-112272484D01*
X613686100Y-112272484D02*
X613758671Y-112248293D01*
X613758671Y-112248293D02*
X613807052Y-112248293D01*
X613807052Y-112248293D02*
X613879624Y-112272484D01*
X613879624Y-112272484D02*
X613928005Y-112320864D01*
X613928005Y-112320864D02*
X613952195Y-112369245D01*
X613952195Y-112369245D02*
X613976386Y-112466007D01*
X613976386Y-112466007D02*
X613976386Y-112538579D01*
X613976386Y-112538579D02*
X613952195Y-112635341D01*
X613952195Y-112635341D02*
X613928005Y-112683722D01*
X613928005Y-112683722D02*
X613879624Y-112732103D01*
X613879624Y-112732103D02*
X613807052Y-112756293D01*
X613807052Y-112756293D02*
X613758671Y-112756293D01*
X613758671Y-112756293D02*
X613686100Y-112732103D01*
X613686100Y-112732103D02*
X613661909Y-112707912D01*
X613468386Y-112707912D02*
X613444195Y-112732103D01*
X613444195Y-112732103D02*
X613395814Y-112756293D01*
X613395814Y-112756293D02*
X613274862Y-112756293D01*
X613274862Y-112756293D02*
X613226481Y-112732103D01*
X613226481Y-112732103D02*
X613202290Y-112707912D01*
X613202290Y-112707912D02*
X613178100Y-112659531D01*
X613178100Y-112659531D02*
X613178100Y-112611150D01*
X613178100Y-112611150D02*
X613202290Y-112538579D01*
X613202290Y-112538579D02*
X613492576Y-112248293D01*
X613492576Y-112248293D02*
X613178100Y-112248293D01*
X614690609Y-96764574D02*
X614714800Y-96740384D01*
X614714800Y-96740384D02*
X614787371Y-96716193D01*
X614787371Y-96716193D02*
X614835752Y-96716193D01*
X614835752Y-96716193D02*
X614908324Y-96740384D01*
X614908324Y-96740384D02*
X614956705Y-96788764D01*
X614956705Y-96788764D02*
X614980895Y-96837145D01*
X614980895Y-96837145D02*
X615005086Y-96933907D01*
X615005086Y-96933907D02*
X615005086Y-97006479D01*
X615005086Y-97006479D02*
X614980895Y-97103241D01*
X614980895Y-97103241D02*
X614956705Y-97151622D01*
X614956705Y-97151622D02*
X614908324Y-97200003D01*
X614908324Y-97200003D02*
X614835752Y-97224193D01*
X614835752Y-97224193D02*
X614787371Y-97224193D01*
X614787371Y-97224193D02*
X614714800Y-97200003D01*
X614714800Y-97200003D02*
X614690609Y-97175812D01*
X614521276Y-97224193D02*
X614206800Y-97224193D01*
X614206800Y-97224193D02*
X614376133Y-97030669D01*
X614376133Y-97030669D02*
X614303562Y-97030669D01*
X614303562Y-97030669D02*
X614255181Y-97006479D01*
X614255181Y-97006479D02*
X614230990Y-96982288D01*
X614230990Y-96982288D02*
X614206800Y-96933907D01*
X614206800Y-96933907D02*
X614206800Y-96812955D01*
X614206800Y-96812955D02*
X614230990Y-96764574D01*
X614230990Y-96764574D02*
X614255181Y-96740384D01*
X614255181Y-96740384D02*
X614303562Y-96716193D01*
X614303562Y-96716193D02*
X614448705Y-96716193D01*
X614448705Y-96716193D02*
X614497086Y-96740384D01*
X614497086Y-96740384D02*
X614521276Y-96764574D01*
X613179309Y-96764574D02*
X613203500Y-96740384D01*
X613203500Y-96740384D02*
X613276071Y-96716193D01*
X613276071Y-96716193D02*
X613324452Y-96716193D01*
X613324452Y-96716193D02*
X613397024Y-96740384D01*
X613397024Y-96740384D02*
X613445405Y-96788764D01*
X613445405Y-96788764D02*
X613469595Y-96837145D01*
X613469595Y-96837145D02*
X613493786Y-96933907D01*
X613493786Y-96933907D02*
X613493786Y-97006479D01*
X613493786Y-97006479D02*
X613469595Y-97103241D01*
X613469595Y-97103241D02*
X613445405Y-97151622D01*
X613445405Y-97151622D02*
X613397024Y-97200003D01*
X613397024Y-97200003D02*
X613324452Y-97224193D01*
X613324452Y-97224193D02*
X613276071Y-97224193D01*
X613276071Y-97224193D02*
X613203500Y-97200003D01*
X613203500Y-97200003D02*
X613179309Y-97175812D01*
X612743881Y-97054860D02*
X612743881Y-96716193D01*
X612864833Y-97248384D02*
X612985786Y-96885526D01*
X612985786Y-96885526D02*
X612671309Y-96885526D01*
X611668009Y-96789974D02*
X611692200Y-96765784D01*
X611692200Y-96765784D02*
X611764771Y-96741593D01*
X611764771Y-96741593D02*
X611813152Y-96741593D01*
X611813152Y-96741593D02*
X611885724Y-96765784D01*
X611885724Y-96765784D02*
X611934105Y-96814164D01*
X611934105Y-96814164D02*
X611958295Y-96862545D01*
X611958295Y-96862545D02*
X611982486Y-96959307D01*
X611982486Y-96959307D02*
X611982486Y-97031879D01*
X611982486Y-97031879D02*
X611958295Y-97128641D01*
X611958295Y-97128641D02*
X611934105Y-97177022D01*
X611934105Y-97177022D02*
X611885724Y-97225403D01*
X611885724Y-97225403D02*
X611813152Y-97249593D01*
X611813152Y-97249593D02*
X611764771Y-97249593D01*
X611764771Y-97249593D02*
X611692200Y-97225403D01*
X611692200Y-97225403D02*
X611668009Y-97201212D01*
X611208390Y-97249593D02*
X611450295Y-97249593D01*
X611450295Y-97249593D02*
X611474486Y-97007688D01*
X611474486Y-97007688D02*
X611450295Y-97031879D01*
X611450295Y-97031879D02*
X611401914Y-97056069D01*
X611401914Y-97056069D02*
X611280962Y-97056069D01*
X611280962Y-97056069D02*
X611232581Y-97031879D01*
X611232581Y-97031879D02*
X611208390Y-97007688D01*
X611208390Y-97007688D02*
X611184200Y-96959307D01*
X611184200Y-96959307D02*
X611184200Y-96838355D01*
X611184200Y-96838355D02*
X611208390Y-96789974D01*
X611208390Y-96789974D02*
X611232581Y-96765784D01*
X611232581Y-96765784D02*
X611280962Y-96741593D01*
X611280962Y-96741593D02*
X611401914Y-96741593D01*
X611401914Y-96741593D02*
X611450295Y-96765784D01*
X611450295Y-96765784D02*
X611474486Y-96789974D01*
X619586409Y-107529654D02*
X619610600Y-107505464D01*
X619610600Y-107505464D02*
X619683171Y-107481273D01*
X619683171Y-107481273D02*
X619731552Y-107481273D01*
X619731552Y-107481273D02*
X619804124Y-107505464D01*
X619804124Y-107505464D02*
X619852505Y-107553844D01*
X619852505Y-107553844D02*
X619876695Y-107602225D01*
X619876695Y-107602225D02*
X619900886Y-107698987D01*
X619900886Y-107698987D02*
X619900886Y-107771559D01*
X619900886Y-107771559D02*
X619876695Y-107868321D01*
X619876695Y-107868321D02*
X619852505Y-107916702D01*
X619852505Y-107916702D02*
X619804124Y-107965083D01*
X619804124Y-107965083D02*
X619731552Y-107989273D01*
X619731552Y-107989273D02*
X619683171Y-107989273D01*
X619683171Y-107989273D02*
X619610600Y-107965083D01*
X619610600Y-107965083D02*
X619586409Y-107940892D01*
X619150981Y-107989273D02*
X619247743Y-107989273D01*
X619247743Y-107989273D02*
X619296124Y-107965083D01*
X619296124Y-107965083D02*
X619320314Y-107940892D01*
X619320314Y-107940892D02*
X619368695Y-107868321D01*
X619368695Y-107868321D02*
X619392886Y-107771559D01*
X619392886Y-107771559D02*
X619392886Y-107578035D01*
X619392886Y-107578035D02*
X619368695Y-107529654D01*
X619368695Y-107529654D02*
X619344505Y-107505464D01*
X619344505Y-107505464D02*
X619296124Y-107481273D01*
X619296124Y-107481273D02*
X619199362Y-107481273D01*
X619199362Y-107481273D02*
X619150981Y-107505464D01*
X619150981Y-107505464D02*
X619126790Y-107529654D01*
X619126790Y-107529654D02*
X619102600Y-107578035D01*
X619102600Y-107578035D02*
X619102600Y-107698987D01*
X619102600Y-107698987D02*
X619126790Y-107747368D01*
X619126790Y-107747368D02*
X619150981Y-107771559D01*
X619150981Y-107771559D02*
X619199362Y-107795749D01*
X619199362Y-107795749D02*
X619296124Y-107795749D01*
X619296124Y-107795749D02*
X619344505Y-107771559D01*
X619344505Y-107771559D02*
X619368695Y-107747368D01*
X619368695Y-107747368D02*
X619392886Y-107698987D01*
X612049009Y-112334774D02*
X612073200Y-112310584D01*
X612073200Y-112310584D02*
X612145771Y-112286393D01*
X612145771Y-112286393D02*
X612194152Y-112286393D01*
X612194152Y-112286393D02*
X612266724Y-112310584D01*
X612266724Y-112310584D02*
X612315105Y-112358964D01*
X612315105Y-112358964D02*
X612339295Y-112407345D01*
X612339295Y-112407345D02*
X612363486Y-112504107D01*
X612363486Y-112504107D02*
X612363486Y-112576679D01*
X612363486Y-112576679D02*
X612339295Y-112673441D01*
X612339295Y-112673441D02*
X612315105Y-112721822D01*
X612315105Y-112721822D02*
X612266724Y-112770203D01*
X612266724Y-112770203D02*
X612194152Y-112794393D01*
X612194152Y-112794393D02*
X612145771Y-112794393D01*
X612145771Y-112794393D02*
X612073200Y-112770203D01*
X612073200Y-112770203D02*
X612049009Y-112746012D01*
X611879676Y-112794393D02*
X611541009Y-112794393D01*
X611541009Y-112794393D02*
X611758724Y-112286393D01*
X617764009Y-96802674D02*
X617788200Y-96778484D01*
X617788200Y-96778484D02*
X617860771Y-96754293D01*
X617860771Y-96754293D02*
X617909152Y-96754293D01*
X617909152Y-96754293D02*
X617981724Y-96778484D01*
X617981724Y-96778484D02*
X618030105Y-96826864D01*
X618030105Y-96826864D02*
X618054295Y-96875245D01*
X618054295Y-96875245D02*
X618078486Y-96972007D01*
X618078486Y-96972007D02*
X618078486Y-97044579D01*
X618078486Y-97044579D02*
X618054295Y-97141341D01*
X618054295Y-97141341D02*
X618030105Y-97189722D01*
X618030105Y-97189722D02*
X617981724Y-97238103D01*
X617981724Y-97238103D02*
X617909152Y-97262293D01*
X617909152Y-97262293D02*
X617860771Y-97262293D01*
X617860771Y-97262293D02*
X617788200Y-97238103D01*
X617788200Y-97238103D02*
X617764009Y-97213912D01*
X617473724Y-97044579D02*
X617522105Y-97068769D01*
X617522105Y-97068769D02*
X617546295Y-97092960D01*
X617546295Y-97092960D02*
X617570486Y-97141341D01*
X617570486Y-97141341D02*
X617570486Y-97165531D01*
X617570486Y-97165531D02*
X617546295Y-97213912D01*
X617546295Y-97213912D02*
X617522105Y-97238103D01*
X617522105Y-97238103D02*
X617473724Y-97262293D01*
X617473724Y-97262293D02*
X617376962Y-97262293D01*
X617376962Y-97262293D02*
X617328581Y-97238103D01*
X617328581Y-97238103D02*
X617304390Y-97213912D01*
X617304390Y-97213912D02*
X617280200Y-97165531D01*
X617280200Y-97165531D02*
X617280200Y-97141341D01*
X617280200Y-97141341D02*
X617304390Y-97092960D01*
X617304390Y-97092960D02*
X617328581Y-97068769D01*
X617328581Y-97068769D02*
X617376962Y-97044579D01*
X617376962Y-97044579D02*
X617473724Y-97044579D01*
X617473724Y-97044579D02*
X617522105Y-97020388D01*
X617522105Y-97020388D02*
X617546295Y-96996198D01*
X617546295Y-96996198D02*
X617570486Y-96947817D01*
X617570486Y-96947817D02*
X617570486Y-96851055D01*
X617570486Y-96851055D02*
X617546295Y-96802674D01*
X617546295Y-96802674D02*
X617522105Y-96778484D01*
X617522105Y-96778484D02*
X617473724Y-96754293D01*
X617473724Y-96754293D02*
X617376962Y-96754293D01*
X617376962Y-96754293D02*
X617328581Y-96778484D01*
X617328581Y-96778484D02*
X617304390Y-96802674D01*
X617304390Y-96802674D02*
X617280200Y-96851055D01*
X617280200Y-96851055D02*
X617280200Y-96947817D01*
X617280200Y-96947817D02*
X617304390Y-96996198D01*
X617304390Y-96996198D02*
X617328581Y-97020388D01*
X617328581Y-97020388D02*
X617376962Y-97044579D01*
X610457829Y-112372874D02*
X610482020Y-112348684D01*
X610482020Y-112348684D02*
X610554591Y-112324493D01*
X610554591Y-112324493D02*
X610602972Y-112324493D01*
X610602972Y-112324493D02*
X610675544Y-112348684D01*
X610675544Y-112348684D02*
X610723925Y-112397064D01*
X610723925Y-112397064D02*
X610748115Y-112445445D01*
X610748115Y-112445445D02*
X610772306Y-112542207D01*
X610772306Y-112542207D02*
X610772306Y-112614779D01*
X610772306Y-112614779D02*
X610748115Y-112711541D01*
X610748115Y-112711541D02*
X610723925Y-112759922D01*
X610723925Y-112759922D02*
X610675544Y-112808303D01*
X610675544Y-112808303D02*
X610602972Y-112832493D01*
X610602972Y-112832493D02*
X610554591Y-112832493D01*
X610554591Y-112832493D02*
X610482020Y-112808303D01*
X610482020Y-112808303D02*
X610457829Y-112784112D01*
X610215925Y-112324493D02*
X610119163Y-112324493D01*
X610119163Y-112324493D02*
X610070782Y-112348684D01*
X610070782Y-112348684D02*
X610046591Y-112372874D01*
X610046591Y-112372874D02*
X609998210Y-112445445D01*
X609998210Y-112445445D02*
X609974020Y-112542207D01*
X609974020Y-112542207D02*
X609974020Y-112735731D01*
X609974020Y-112735731D02*
X609998210Y-112784112D01*
X609998210Y-112784112D02*
X610022401Y-112808303D01*
X610022401Y-112808303D02*
X610070782Y-112832493D01*
X610070782Y-112832493D02*
X610167544Y-112832493D01*
X610167544Y-112832493D02*
X610215925Y-112808303D01*
X610215925Y-112808303D02*
X610240115Y-112784112D01*
X610240115Y-112784112D02*
X610264306Y-112735731D01*
X610264306Y-112735731D02*
X610264306Y-112614779D01*
X610264306Y-112614779D02*
X610240115Y-112566398D01*
X610240115Y-112566398D02*
X610215925Y-112542207D01*
X610215925Y-112542207D02*
X610167544Y-112518017D01*
X610167544Y-112518017D02*
X610070782Y-112518017D01*
X610070782Y-112518017D02*
X610022401Y-112542207D01*
X610022401Y-112542207D02*
X609998210Y-112566398D01*
X609998210Y-112566398D02*
X609974020Y-112614779D01*
X617078209Y-107457974D02*
X617102400Y-107433784D01*
X617102400Y-107433784D02*
X617174971Y-107409593D01*
X617174971Y-107409593D02*
X617223352Y-107409593D01*
X617223352Y-107409593D02*
X617295924Y-107433784D01*
X617295924Y-107433784D02*
X617344305Y-107482164D01*
X617344305Y-107482164D02*
X617368495Y-107530545D01*
X617368495Y-107530545D02*
X617392686Y-107627307D01*
X617392686Y-107627307D02*
X617392686Y-107699879D01*
X617392686Y-107699879D02*
X617368495Y-107796641D01*
X617368495Y-107796641D02*
X617344305Y-107845022D01*
X617344305Y-107845022D02*
X617295924Y-107893403D01*
X617295924Y-107893403D02*
X617223352Y-107917593D01*
X617223352Y-107917593D02*
X617174971Y-107917593D01*
X617174971Y-107917593D02*
X617102400Y-107893403D01*
X617102400Y-107893403D02*
X617078209Y-107869212D01*
X616594400Y-107409593D02*
X616884686Y-107409593D01*
X616739543Y-107409593D02*
X616739543Y-107917593D01*
X616739543Y-107917593D02*
X616787924Y-107845022D01*
X616787924Y-107845022D02*
X616836305Y-107796641D01*
X616836305Y-107796641D02*
X616884686Y-107772450D01*
X616279923Y-107917593D02*
X616231542Y-107917593D01*
X616231542Y-107917593D02*
X616183161Y-107893403D01*
X616183161Y-107893403D02*
X616158971Y-107869212D01*
X616158971Y-107869212D02*
X616134780Y-107820831D01*
X616134780Y-107820831D02*
X616110590Y-107724069D01*
X616110590Y-107724069D02*
X616110590Y-107603117D01*
X616110590Y-107603117D02*
X616134780Y-107506355D01*
X616134780Y-107506355D02*
X616158971Y-107457974D01*
X616158971Y-107457974D02*
X616183161Y-107433784D01*
X616183161Y-107433784D02*
X616231542Y-107409593D01*
X616231542Y-107409593D02*
X616279923Y-107409593D01*
X616279923Y-107409593D02*
X616328304Y-107433784D01*
X616328304Y-107433784D02*
X616352495Y-107457974D01*
X616352495Y-107457974D02*
X616376685Y-107506355D01*
X616376685Y-107506355D02*
X616400876Y-107603117D01*
X616400876Y-107603117D02*
X616400876Y-107724069D01*
X616400876Y-107724069D02*
X616376685Y-107820831D01*
X616376685Y-107820831D02*
X616352495Y-107869212D01*
X616352495Y-107869212D02*
X616328304Y-107893403D01*
X616328304Y-107893403D02*
X616279923Y-107917593D01*
X619453869Y-97237524D02*
X619478060Y-97213334D01*
X619478060Y-97213334D02*
X619550631Y-97189143D01*
X619550631Y-97189143D02*
X619599012Y-97189143D01*
X619599012Y-97189143D02*
X619671584Y-97213334D01*
X619671584Y-97213334D02*
X619719965Y-97261714D01*
X619719965Y-97261714D02*
X619744155Y-97310095D01*
X619744155Y-97310095D02*
X619768346Y-97406857D01*
X619768346Y-97406857D02*
X619768346Y-97479429D01*
X619768346Y-97479429D02*
X619744155Y-97576191D01*
X619744155Y-97576191D02*
X619719965Y-97624572D01*
X619719965Y-97624572D02*
X619671584Y-97672953D01*
X619671584Y-97672953D02*
X619599012Y-97697143D01*
X619599012Y-97697143D02*
X619550631Y-97697143D01*
X619550631Y-97697143D02*
X619478060Y-97672953D01*
X619478060Y-97672953D02*
X619453869Y-97648762D01*
X618970060Y-97189143D02*
X619260346Y-97189143D01*
X619115203Y-97189143D02*
X619115203Y-97697143D01*
X619115203Y-97697143D02*
X619163584Y-97624572D01*
X619163584Y-97624572D02*
X619211965Y-97576191D01*
X619211965Y-97576191D02*
X619260346Y-97552000D01*
X618486250Y-97189143D02*
X618776536Y-97189143D01*
X618631393Y-97189143D02*
X618631393Y-97697143D01*
X618631393Y-97697143D02*
X618679774Y-97624572D01*
X618679774Y-97624572D02*
X618728155Y-97576191D01*
X618728155Y-97576191D02*
X618776536Y-97552000D01*
X618536409Y-100580163D02*
X618705743Y-100822068D01*
X618826695Y-100580163D02*
X618826695Y-101088163D01*
X618826695Y-101088163D02*
X618633171Y-101088163D01*
X618633171Y-101088163D02*
X618584790Y-101063973D01*
X618584790Y-101063973D02*
X618560600Y-101039782D01*
X618560600Y-101039782D02*
X618536409Y-100991401D01*
X618536409Y-100991401D02*
X618536409Y-100918830D01*
X618536409Y-100918830D02*
X618560600Y-100870449D01*
X618560600Y-100870449D02*
X618584790Y-100846258D01*
X618584790Y-100846258D02*
X618633171Y-100822068D01*
X618633171Y-100822068D02*
X618826695Y-100822068D01*
X618052600Y-100580163D02*
X618342886Y-100580163D01*
X618197743Y-100580163D02*
X618197743Y-101088163D01*
X618197743Y-101088163D02*
X618246124Y-101015592D01*
X618246124Y-101015592D02*
X618294505Y-100967211D01*
X618294505Y-100967211D02*
X618342886Y-100943020D01*
X618132309Y-104132993D02*
X618301643Y-104374898D01*
X618422595Y-104132993D02*
X618422595Y-104640993D01*
X618422595Y-104640993D02*
X618229071Y-104640993D01*
X618229071Y-104640993D02*
X618180690Y-104616803D01*
X618180690Y-104616803D02*
X618156500Y-104592612D01*
X618156500Y-104592612D02*
X618132309Y-104544231D01*
X618132309Y-104544231D02*
X618132309Y-104471660D01*
X618132309Y-104471660D02*
X618156500Y-104423279D01*
X618156500Y-104423279D02*
X618180690Y-104399088D01*
X618180690Y-104399088D02*
X618229071Y-104374898D01*
X618229071Y-104374898D02*
X618422595Y-104374898D01*
X617938786Y-104592612D02*
X617914595Y-104616803D01*
X617914595Y-104616803D02*
X617866214Y-104640993D01*
X617866214Y-104640993D02*
X617745262Y-104640993D01*
X617745262Y-104640993D02*
X617696881Y-104616803D01*
X617696881Y-104616803D02*
X617672690Y-104592612D01*
X617672690Y-104592612D02*
X617648500Y-104544231D01*
X617648500Y-104544231D02*
X617648500Y-104495850D01*
X617648500Y-104495850D02*
X617672690Y-104423279D01*
X617672690Y-104423279D02*
X617962976Y-104132993D01*
X617962976Y-104132993D02*
X617648500Y-104132993D01*
X606237489Y-102098453D02*
X606406823Y-102340358D01*
X606527775Y-102098453D02*
X606527775Y-102606453D01*
X606527775Y-102606453D02*
X606334251Y-102606453D01*
X606334251Y-102606453D02*
X606285870Y-102582263D01*
X606285870Y-102582263D02*
X606261680Y-102558072D01*
X606261680Y-102558072D02*
X606237489Y-102509691D01*
X606237489Y-102509691D02*
X606237489Y-102437120D01*
X606237489Y-102437120D02*
X606261680Y-102388739D01*
X606261680Y-102388739D02*
X606285870Y-102364548D01*
X606285870Y-102364548D02*
X606334251Y-102340358D01*
X606334251Y-102340358D02*
X606527775Y-102340358D01*
X606068156Y-102606453D02*
X605753680Y-102606453D01*
X605753680Y-102606453D02*
X605923013Y-102412929D01*
X605923013Y-102412929D02*
X605850442Y-102412929D01*
X605850442Y-102412929D02*
X605802061Y-102388739D01*
X605802061Y-102388739D02*
X605777870Y-102364548D01*
X605777870Y-102364548D02*
X605753680Y-102316167D01*
X605753680Y-102316167D02*
X605753680Y-102195215D01*
X605753680Y-102195215D02*
X605777870Y-102146834D01*
X605777870Y-102146834D02*
X605802061Y-102122644D01*
X605802061Y-102122644D02*
X605850442Y-102098453D01*
X605850442Y-102098453D02*
X605995585Y-102098453D01*
X605995585Y-102098453D02*
X606043966Y-102122644D01*
X606043966Y-102122644D02*
X606068156Y-102146834D01*
X616621009Y-100678593D02*
X616790343Y-100920498D01*
X616911295Y-100678593D02*
X616911295Y-101186593D01*
X616911295Y-101186593D02*
X616717771Y-101186593D01*
X616717771Y-101186593D02*
X616669390Y-101162403D01*
X616669390Y-101162403D02*
X616645200Y-101138212D01*
X616645200Y-101138212D02*
X616621009Y-101089831D01*
X616621009Y-101089831D02*
X616621009Y-101017260D01*
X616621009Y-101017260D02*
X616645200Y-100968879D01*
X616645200Y-100968879D02*
X616669390Y-100944688D01*
X616669390Y-100944688D02*
X616717771Y-100920498D01*
X616717771Y-100920498D02*
X616911295Y-100920498D01*
X616185581Y-101017260D02*
X616185581Y-100678593D01*
X616306533Y-101210784D02*
X616427486Y-100847926D01*
X616427486Y-100847926D02*
X616113009Y-100847926D01*
X606018029Y-104187603D02*
X606187363Y-104429508D01*
X606308315Y-104187603D02*
X606308315Y-104695603D01*
X606308315Y-104695603D02*
X606114791Y-104695603D01*
X606114791Y-104695603D02*
X606066410Y-104671413D01*
X606066410Y-104671413D02*
X606042220Y-104647222D01*
X606042220Y-104647222D02*
X606018029Y-104598841D01*
X606018029Y-104598841D02*
X606018029Y-104526270D01*
X606018029Y-104526270D02*
X606042220Y-104477889D01*
X606042220Y-104477889D02*
X606066410Y-104453698D01*
X606066410Y-104453698D02*
X606114791Y-104429508D01*
X606114791Y-104429508D02*
X606308315Y-104429508D01*
X605558410Y-104695603D02*
X605800315Y-104695603D01*
X605800315Y-104695603D02*
X605824506Y-104453698D01*
X605824506Y-104453698D02*
X605800315Y-104477889D01*
X605800315Y-104477889D02*
X605751934Y-104502079D01*
X605751934Y-104502079D02*
X605630982Y-104502079D01*
X605630982Y-104502079D02*
X605582601Y-104477889D01*
X605582601Y-104477889D02*
X605558410Y-104453698D01*
X605558410Y-104453698D02*
X605534220Y-104405317D01*
X605534220Y-104405317D02*
X605534220Y-104284365D01*
X605534220Y-104284365D02*
X605558410Y-104235984D01*
X605558410Y-104235984D02*
X605582601Y-104211794D01*
X605582601Y-104211794D02*
X605630982Y-104187603D01*
X605630982Y-104187603D02*
X605751934Y-104187603D01*
X605751934Y-104187603D02*
X605800315Y-104211794D01*
X605800315Y-104211794D02*
X605824506Y-104235984D01*
X616163809Y-97020993D02*
X616333143Y-97262898D01*
X616454095Y-97020993D02*
X616454095Y-97528993D01*
X616454095Y-97528993D02*
X616260571Y-97528993D01*
X616260571Y-97528993D02*
X616212190Y-97504803D01*
X616212190Y-97504803D02*
X616188000Y-97480612D01*
X616188000Y-97480612D02*
X616163809Y-97432231D01*
X616163809Y-97432231D02*
X616163809Y-97359660D01*
X616163809Y-97359660D02*
X616188000Y-97311279D01*
X616188000Y-97311279D02*
X616212190Y-97287088D01*
X616212190Y-97287088D02*
X616260571Y-97262898D01*
X616260571Y-97262898D02*
X616454095Y-97262898D01*
X615728381Y-97528993D02*
X615825143Y-97528993D01*
X615825143Y-97528993D02*
X615873524Y-97504803D01*
X615873524Y-97504803D02*
X615897714Y-97480612D01*
X615897714Y-97480612D02*
X615946095Y-97408041D01*
X615946095Y-97408041D02*
X615970286Y-97311279D01*
X615970286Y-97311279D02*
X615970286Y-97117755D01*
X615970286Y-97117755D02*
X615946095Y-97069374D01*
X615946095Y-97069374D02*
X615921905Y-97045184D01*
X615921905Y-97045184D02*
X615873524Y-97020993D01*
X615873524Y-97020993D02*
X615776762Y-97020993D01*
X615776762Y-97020993D02*
X615728381Y-97045184D01*
X615728381Y-97045184D02*
X615704190Y-97069374D01*
X615704190Y-97069374D02*
X615680000Y-97117755D01*
X615680000Y-97117755D02*
X615680000Y-97238707D01*
X615680000Y-97238707D02*
X615704190Y-97287088D01*
X615704190Y-97287088D02*
X615728381Y-97311279D01*
X615728381Y-97311279D02*
X615776762Y-97335469D01*
X615776762Y-97335469D02*
X615873524Y-97335469D01*
X615873524Y-97335469D02*
X615921905Y-97311279D01*
X615921905Y-97311279D02*
X615946095Y-97287088D01*
X615946095Y-97287088D02*
X615970286Y-97238707D01*
X606130049Y-105886863D02*
X606299383Y-106128768D01*
X606420335Y-105886863D02*
X606420335Y-106394863D01*
X606420335Y-106394863D02*
X606226811Y-106394863D01*
X606226811Y-106394863D02*
X606178430Y-106370673D01*
X606178430Y-106370673D02*
X606154240Y-106346482D01*
X606154240Y-106346482D02*
X606130049Y-106298101D01*
X606130049Y-106298101D02*
X606130049Y-106225530D01*
X606130049Y-106225530D02*
X606154240Y-106177149D01*
X606154240Y-106177149D02*
X606178430Y-106152958D01*
X606178430Y-106152958D02*
X606226811Y-106128768D01*
X606226811Y-106128768D02*
X606420335Y-106128768D01*
X605960716Y-106394863D02*
X605622049Y-106394863D01*
X605622049Y-106394863D02*
X605839764Y-105886863D01*
X609867206Y-107853675D02*
X610278444Y-107853675D01*
X610278444Y-107853675D02*
X610326825Y-107829485D01*
X610326825Y-107829485D02*
X610351016Y-107805294D01*
X610351016Y-107805294D02*
X610375206Y-107756913D01*
X610375206Y-107756913D02*
X610375206Y-107660151D01*
X610375206Y-107660151D02*
X610351016Y-107611770D01*
X610351016Y-107611770D02*
X610326825Y-107587580D01*
X610326825Y-107587580D02*
X610278444Y-107563389D01*
X610278444Y-107563389D02*
X609867206Y-107563389D01*
X610375206Y-107055390D02*
X610375206Y-107345676D01*
X610375206Y-107200533D02*
X609867206Y-107200533D01*
X609867206Y-107200533D02*
X609939777Y-107248914D01*
X609939777Y-107248914D02*
X609988158Y-107297295D01*
X609988158Y-107297295D02*
X610012349Y-107345676D01*
X619516609Y-111814074D02*
X619540800Y-111789884D01*
X619540800Y-111789884D02*
X619613371Y-111765693D01*
X619613371Y-111765693D02*
X619661752Y-111765693D01*
X619661752Y-111765693D02*
X619734324Y-111789884D01*
X619734324Y-111789884D02*
X619782705Y-111838264D01*
X619782705Y-111838264D02*
X619806895Y-111886645D01*
X619806895Y-111886645D02*
X619831086Y-111983407D01*
X619831086Y-111983407D02*
X619831086Y-112055979D01*
X619831086Y-112055979D02*
X619806895Y-112152741D01*
X619806895Y-112152741D02*
X619782705Y-112201122D01*
X619782705Y-112201122D02*
X619734324Y-112249503D01*
X619734324Y-112249503D02*
X619661752Y-112273693D01*
X619661752Y-112273693D02*
X619613371Y-112273693D01*
X619613371Y-112273693D02*
X619540800Y-112249503D01*
X619540800Y-112249503D02*
X619516609Y-112225312D01*
X619298895Y-111765693D02*
X619298895Y-112273693D01*
X619298895Y-112273693D02*
X619008609Y-111765693D01*
X619008609Y-111765693D02*
X619008609Y-112273693D01*
X618500610Y-111765693D02*
X618790896Y-111765693D01*
X618645753Y-111765693D02*
X618645753Y-112273693D01*
X618645753Y-112273693D02*
X618694134Y-112201122D01*
X618694134Y-112201122D02*
X618742515Y-112152741D01*
X618742515Y-112152741D02*
X618790896Y-112128550D01*
D11*
%TO.C,C1*%
X614631560Y-110412950D02*
X614631560Y-110612950D01*
X615381560Y-110412950D02*
X615381560Y-110612950D01*
%TO.C,C2*%
X613130500Y-110412950D02*
X613130500Y-110612950D01*
X613880500Y-110412950D02*
X613880500Y-110612950D01*
%TO.C,C3*%
X614255870Y-99048050D02*
X614255870Y-99248050D01*
X615005870Y-99048050D02*
X615005870Y-99248050D01*
%TO.C,C4*%
X612756410Y-99048050D02*
X612756410Y-99248050D01*
X613506410Y-99048050D02*
X613506410Y-99248050D01*
%TO.C,C5*%
X611256940Y-99048050D02*
X611256940Y-99248050D01*
X612006950Y-99048050D02*
X612006950Y-99248050D01*
%TO.C,C6*%
X619331600Y-105588450D02*
X619331600Y-105788450D01*
X620081600Y-105588450D02*
X620081600Y-105788450D01*
%TO.C,C7*%
X611629450Y-110412950D02*
X611629450Y-110612950D01*
X612379450Y-110412950D02*
X612379450Y-110612950D01*
%TO.C,C8*%
X617254800Y-99048050D02*
X617254800Y-99248050D01*
X618004800Y-99048050D02*
X618004800Y-99248050D01*
%TO.C,C9*%
X610128390Y-110412950D02*
X610128390Y-110612950D01*
X610878400Y-110412950D02*
X610878400Y-110612950D01*
%TO.C,C10*%
X616334400Y-105588450D02*
X616334400Y-105788450D01*
X617084400Y-105588450D02*
X617084400Y-105788450D01*
%TO.C,C11*%
X619306200Y-99568750D02*
X619306200Y-99768750D01*
X620056200Y-99568750D02*
X620056200Y-99768750D01*
%TO.C,R1*%
X619306200Y-102604050D02*
X619306200Y-102804050D01*
X620056200Y-102604050D02*
X620056200Y-102804050D01*
%TO.C,R2*%
X617820300Y-102604050D02*
X617820300Y-102804050D01*
X618570300Y-102604050D02*
X618570300Y-102804050D01*
%TO.C,R3*%
X608503600Y-102186870D02*
X608303600Y-102186870D01*
X608503600Y-102936870D02*
X608303600Y-102936870D01*
%TO.C,R4*%
X616309000Y-102604050D02*
X616309000Y-102804050D01*
X617059000Y-102604050D02*
X617059000Y-102804050D01*
%TO.C,R5*%
X608554390Y-103883960D02*
X608354390Y-103883960D01*
X608554390Y-104633960D02*
X608354390Y-104633960D01*
%TO.C,R6*%
X615755330Y-99048050D02*
X615755330Y-99248050D01*
X616505340Y-99048050D02*
X616505340Y-99248050D01*
%TO.C,R7*%
X608554390Y-105349620D02*
X608354390Y-105349620D01*
X608554390Y-106099620D02*
X608354390Y-106099620D01*
%TO.C,U1*%
X610381750Y-103111870D02*
X610381750Y-106511870D01*
X615481750Y-103111870D02*
X610381750Y-103111870D01*
X615481750Y-103111870D02*
X615481750Y-106511870D01*
X615481750Y-106511870D02*
X610381750Y-106511870D01*
%TO.C,CN1*%
X624230800Y-112715450D02*
X621430800Y-112715450D01*
X624230800Y-99965450D02*
X621430800Y-99965450D01*
X624230800Y-97265450D02*
X624230800Y-112715450D01*
X624230800Y-97265450D02*
X621680800Y-97265450D01*
X621680800Y-97265450D02*
X621430800Y-97515450D01*
X621430800Y-97515450D02*
X621430800Y-112715450D01*
%TD*%
%LPC*%
D12*
%TO.C,C1*%
X615006560Y-111312950D03*
X615006560Y-109712950D03*
%TD*%
%TO.C,C2*%
X613505500Y-111312950D03*
X613505500Y-109712950D03*
%TD*%
D13*
%TO.C,C3*%
X614630870Y-98348050D03*
X614630870Y-99948050D03*
%TD*%
%TO.C,C4*%
X613131410Y-98348050D03*
X613131410Y-99948050D03*
%TD*%
%TO.C,C5*%
X611631940Y-98348050D03*
X611631940Y-99948050D03*
%TD*%
D12*
%TO.C,C6*%
X619706600Y-106488450D03*
X619706600Y-104888450D03*
%TD*%
%TO.C,C7*%
X612004450Y-111312950D03*
X612004450Y-109712950D03*
%TD*%
D13*
%TO.C,C8*%
X617629800Y-98348050D03*
X617629800Y-99948050D03*
%TD*%
D12*
%TO.C,C9*%
X610503390Y-111312950D03*
X610503390Y-109712950D03*
%TD*%
%TO.C,C10*%
X616709400Y-106488450D03*
X616709400Y-104888450D03*
%TD*%
D13*
%TO.C,C11*%
X619681200Y-98868750D03*
X619681200Y-100468750D03*
%TD*%
D14*
%TO.C,J3*%
X599966536Y-105250723D03*
%TD*%
D12*
%TO.C,R1*%
X619681200Y-103504050D03*
X619681200Y-101904050D03*
%TD*%
%TO.C,R2*%
X618195300Y-103504050D03*
X618195300Y-101904050D03*
%TD*%
D15*
%TO.C,R3*%
X607603600Y-102561870D03*
X609203600Y-102561870D03*
%TD*%
D12*
%TO.C,R4*%
X616684000Y-103504050D03*
X616684000Y-101904050D03*
%TD*%
D16*
%TO.C,R5*%
X609254400Y-104258960D03*
X607654390Y-104258960D03*
%TD*%
D13*
%TO.C,R6*%
X616130340Y-98348050D03*
X616130340Y-99948050D03*
%TD*%
D16*
%TO.C,R7*%
X609254400Y-105724620D03*
X607654390Y-105724620D03*
%TD*%
D17*
%TO.C,U1*%
X614881760Y-101861870D03*
X614231750Y-101861870D03*
X613581760Y-101861870D03*
X612931750Y-101861870D03*
X612281760Y-101861870D03*
X611631750Y-101861870D03*
X610981760Y-101861870D03*
X610981760Y-107761870D03*
X611631750Y-107761870D03*
X612281760Y-107761870D03*
X612931750Y-107761870D03*
X613581760Y-107761870D03*
X614231750Y-107761870D03*
X614881760Y-107761870D03*
%TD*%
D18*
%TO.C,CN1*%
X622830800Y-111365450D03*
X622830800Y-108825450D03*
X622830800Y-106285450D03*
X622830800Y-103745450D03*
X622830800Y-101205450D03*
D19*
X622830800Y-98665450D03*
%TD*%
D20*
X617236450Y-104018500D03*
X616715750Y-107104600D03*
X612938110Y-108705520D03*
X614889560Y-102790350D03*
X613581760Y-100887950D03*
X29580305Y-105349620D03*
X450866320Y-103076580D03*
X566322136Y-104482970D03*
X29596769Y-104363340D03*
X452211712Y-103080390D03*
X164172065Y-106641970D03*
X583706104Y-105429890D03*
X165517457Y-106645780D03*
X164172065Y-103080390D03*
X452211712Y-106641970D03*
X165517457Y-103076580D03*
X450866320Y-106645780D03*
X28960337Y-103107060D03*
X307424393Y-103086230D03*
X594740968Y-102773160D03*
X308769785Y-103090040D03*
X594734632Y-106509630D03*
X594734632Y-104201430D03*
X28960337Y-106615300D03*
X307424393Y-106636130D03*
X593696080Y-106062200D03*
X308769785Y-106632320D03*
X599306136Y-105860323D03*
X605868170Y-102947640D03*
X601007936Y-102482123D03*
X601160336Y-105911123D03*
X613581760Y-106818850D03*
X613125060Y-97712940D03*
X610505450Y-111981400D03*
X611584950Y-97706600D03*
X611598100Y-106837900D03*
X614624530Y-97712940D03*
X614224530Y-100918220D03*
X614988550Y-111943300D03*
X611998100Y-111955990D03*
X619681200Y-107136350D03*
X619681200Y-98233650D03*
X617623450Y-97712940D03*
X613499160Y-111949640D03*
X612288300Y-100995900D03*
X615960100Y-104888450D03*
X609692650Y-101973800D03*
X612938110Y-100614790D03*
%LPD*%
M02*
