M48
; DRILL file {KiCad 9.0.4} date 2025-12-26T17:22:02-0500
; FORMAT={-:-/ absolute / metric / decimal}
; #@! TF.CreationDate,2025-12-26T17:22:02-05:00
; #@! TF.GenerationSoftware,Kicad,Pcbnew,9.0.4
; #@! TF.FileFunction,Plated,1,2,PTH
FMAT,2
METRIC
; #@! TA.AperFunction,Plated,PTH,ViaDrill
T1C0.203
; #@! TA.AperFunction,Plated,PTH,ViaDrill
T2C0.300
; #@! TA.AperFunction,Plated,PTH,ComponentDrill
T3C0.900
%
G90
G05
T1
X28.96Y-103.107
X28.96Y-106.615
X29.58Y-105.35
X29.597Y-104.363
X164.172Y-103.08
X164.172Y-106.642
X165.517Y-103.077
X165.517Y-106.646
X307.424Y-103.086
X307.424Y-106.636
X308.77Y-103.09
X308.77Y-106.632
X450.866Y-103.077
X450.866Y-106.646
X452.212Y-103.08
X452.212Y-106.642
X566.322Y-104.483
X583.706Y-105.43
X593.696Y-106.062
X594.735Y-104.201
X594.735Y-106.51
X594.741Y-102.773
X599.306Y-105.86
X601.008Y-102.482
X601.16Y-105.911
X605.868Y-102.948
X609.693Y-101.974
X610.505Y-111.981
X611.585Y-97.707
X611.598Y-106.838
X611.998Y-111.956
X612.288Y-100.996
X612.938Y-100.615
X612.938Y-108.706
X613.125Y-97.713
X613.499Y-111.95
X613.582Y-100.888
X613.582Y-106.819
X614.225Y-100.918
X614.625Y-97.713
X614.89Y-102.79
X614.989Y-111.943
X615.96Y-104.888
X616.716Y-107.105
X617.236Y-104.018
X617.623Y-97.713
X619.681Y-98.234
X619.681Y-107.136
T2
X602.346Y-105.963
X602.785Y-105.252
X603.0Y-103.0
X605.0Y-104.0
T3
X622.831Y-98.665
X622.831Y-101.205
X622.831Y-103.745
X622.831Y-106.285
X622.831Y-108.825
X622.831Y-111.365
M30
