%TF.GenerationSoftware,KiCad,Pcbnew,9.0.4*%
%TF.CreationDate,2025-12-26T17:22:34-05:00*%
%TF.ProjectId,new_fretboard_rev1,6e65775f-6672-4657-9462-6f6172645f72,rev?*%
%TF.SameCoordinates,Original*%
%TF.FileFunction,Soldermask,Top*%
%TF.FilePolarity,Negative*%
%FSLAX46Y46*%
G04 Gerber Fmt 4.6, Leading zero omitted, Abs format (unit mm)*
G04 Created by KiCad (PCBNEW 9.0.4) date 2025-12-26 17:22:34*
%MOMM*%
%LPD*%
G01*
G04 APERTURE LIST*
G04 Aperture macros list*
%AMRoundRect*
0 Rectangle with rounded corners*
0 $1 Rounding radius*
0 $2 $3 $4 $5 $6 $7 $8 $9 X,Y pos of 4 corners*
0 Add a 4 corners polygon primitive as box body*
4,1,4,$2,$3,$4,$5,$6,$7,$8,$9,$2,$3,0*
0 Add four circle primitives for the rounded corners*
1,1,$1+$1,$2,$3*
1,1,$1+$1,$4,$5*
1,1,$1+$1,$6,$7*
1,1,$1+$1,$8,$9*
0 Add four rect primitives between the rounded corners*
20,1,$1+$1,$2,$3,$4,$5,0*
20,1,$1+$1,$4,$5,$6,$7,0*
20,1,$1+$1,$6,$7,$8,$9,0*
20,1,$1+$1,$8,$9,$2,$3,0*%
%AMFreePoly0*
4,1,25,0.484719,0.932196,0.496842,0.921842,0.921842,0.496842,0.950349,0.440894,0.951600,0.425000,0.951600,-0.425000,0.932196,-0.484719,0.921842,-0.496842,0.496842,-0.921842,0.440894,-0.950349,0.425000,-0.951600,-0.425000,-0.951600,-0.484719,-0.932196,-0.496842,-0.921842,-0.921842,-0.496842,-0.950349,-0.440894,-0.951600,-0.425000,-0.951600,0.425000,-0.932196,0.484719,-0.921842,0.496842,
-0.496842,0.921842,-0.440894,0.950349,-0.425000,0.951600,0.425000,0.951600,0.484719,0.932196,0.484719,0.932196,$1*%
G04 Aperture macros list end*
%ADD10RoundRect,0.250800X0.300800X0.250800X-0.300800X0.250800X-0.300800X-0.250800X0.300800X-0.250800X0*%
%ADD11RoundRect,0.250800X-0.300800X-0.250800X0.300800X-0.250800X0.300800X0.250800X-0.300800X0.250800X0*%
%ADD12C,0.203200*%
%ADD13RoundRect,0.250800X0.250800X-0.300800X0.250800X0.300800X-0.250800X0.300800X-0.250800X-0.300800X0*%
%ADD14RoundRect,0.250800X-0.250800X0.300800X-0.250800X-0.300800X0.250800X-0.300800X0.250800X0.300800X0*%
%ADD15O,0.550000X1.550000*%
%ADD16C,1.903200*%
%ADD17FreePoly0,270.000000*%
%ADD18C,0.609600*%
G04 APERTURE END LIST*
D10*
%TO.C,C1*%
X615006560Y-111312950D03*
X615006560Y-109712950D03*
%TD*%
%TO.C,C2*%
X613505500Y-111312950D03*
X613505500Y-109712950D03*
%TD*%
D11*
%TO.C,C3*%
X614630870Y-98348050D03*
X614630870Y-99948050D03*
%TD*%
%TO.C,C4*%
X613131410Y-98348050D03*
X613131410Y-99948050D03*
%TD*%
%TO.C,C5*%
X611631940Y-98348050D03*
X611631940Y-99948050D03*
%TD*%
D10*
%TO.C,C6*%
X619706600Y-106488450D03*
X619706600Y-104888450D03*
%TD*%
%TO.C,C7*%
X612004450Y-111312950D03*
X612004450Y-109712950D03*
%TD*%
D11*
%TO.C,C8*%
X617629800Y-98348050D03*
X617629800Y-99948050D03*
%TD*%
D10*
%TO.C,C9*%
X610503390Y-111312950D03*
X610503390Y-109712950D03*
%TD*%
%TO.C,C10*%
X616709400Y-106488450D03*
X616709400Y-104888450D03*
%TD*%
D11*
%TO.C,C11*%
X619681200Y-98868750D03*
X619681200Y-100468750D03*
%TD*%
D12*
%TO.C,J3*%
X599966536Y-105250723D03*
%TD*%
D10*
%TO.C,R1*%
X619681200Y-103504050D03*
X619681200Y-101904050D03*
%TD*%
%TO.C,R2*%
X618195300Y-103504050D03*
X618195300Y-101904050D03*
%TD*%
D13*
%TO.C,R3*%
X607603600Y-102561870D03*
X609203600Y-102561870D03*
%TD*%
D10*
%TO.C,R4*%
X616684000Y-103504050D03*
X616684000Y-101904050D03*
%TD*%
D14*
%TO.C,R5*%
X609254400Y-104258960D03*
X607654390Y-104258960D03*
%TD*%
D11*
%TO.C,R6*%
X616130340Y-98348050D03*
X616130340Y-99948050D03*
%TD*%
D14*
%TO.C,R7*%
X609254400Y-105724620D03*
X607654390Y-105724620D03*
%TD*%
D15*
%TO.C,U1*%
X614881760Y-101861870D03*
X614231750Y-101861870D03*
X613581760Y-101861870D03*
X612931750Y-101861870D03*
X612281760Y-101861870D03*
X611631750Y-101861870D03*
X610981760Y-101861870D03*
X610981760Y-107761870D03*
X611631750Y-107761870D03*
X612281760Y-107761870D03*
X612931750Y-107761870D03*
X613581760Y-107761870D03*
X614231750Y-107761870D03*
X614881760Y-107761870D03*
%TD*%
D16*
%TO.C,CN1*%
X622830800Y-111365450D03*
X622830800Y-108825450D03*
X622830800Y-106285450D03*
X622830800Y-103745450D03*
X622830800Y-101205450D03*
D17*
X622830800Y-98665450D03*
%TD*%
D18*
X617236450Y-104018500D03*
X616715750Y-107104600D03*
X612938110Y-108705520D03*
X614889560Y-102790350D03*
X613581760Y-100887950D03*
X29580305Y-105349620D03*
X450866320Y-103076580D03*
X566322136Y-104482970D03*
X29596769Y-104363340D03*
X452211712Y-103080390D03*
X164172065Y-106641970D03*
X583706104Y-105429890D03*
X165517457Y-106645780D03*
X164172065Y-103080390D03*
X452211712Y-106641970D03*
X165517457Y-103076580D03*
X450866320Y-106645780D03*
X28960337Y-103107060D03*
X307424393Y-103086230D03*
X594740968Y-102773160D03*
X308769785Y-103090040D03*
X594734632Y-106509630D03*
X594734632Y-104201430D03*
X28960337Y-106615300D03*
X307424393Y-106636130D03*
X593696080Y-106062200D03*
X308769785Y-106632320D03*
X599306136Y-105860323D03*
X605868170Y-102947640D03*
X601007936Y-102482123D03*
X601160336Y-105911123D03*
X613581760Y-106818850D03*
X613125060Y-97712940D03*
X610505450Y-111981400D03*
X611584950Y-97706600D03*
X611598100Y-106837900D03*
X614624530Y-97712940D03*
X614224530Y-100918220D03*
X614988550Y-111943300D03*
X611998100Y-111955990D03*
X619681200Y-107136350D03*
X619681200Y-98233650D03*
X617623450Y-97712940D03*
X613499160Y-111949640D03*
X612288300Y-100995900D03*
X615960100Y-104888450D03*
X609692650Y-101973800D03*
X612938110Y-100614790D03*
M02*
