M48
; DRILL file {KiCad 9.0.4} date 2026-01-09T16:11:49-0500
; FORMAT={-:-/ absolute / metric / decimal}
; #@! TF.CreationDate,2026-01-09T16:11:49-05:00
; #@! TF.GenerationSoftware,Kicad,Pcbnew,9.0.4
; #@! TF.FileFunction,Plated,1,2,PTH
FMAT,2
METRIC
; #@! TA.AperFunction,Plated,PTH,ViaDrill
T1C0.203
; #@! TA.AperFunction,Plated,PTH,ViaDrill
T2C0.300
; #@! TA.AperFunction,Plated,PTH,ComponentDrill
T3C0.500
; #@! TA.AperFunction,Plated,PTH,ComponentDrill
T4C0.559
; #@! TA.AperFunction,Plated,PTH,ComponentDrill
T5C0.800
; #@! TA.AperFunction,Plated,PTH,ComponentDrill
T6C1.000
%
G90
G05
T1
X5.55Y-98.41
X8.99Y-101.71
X10.28Y-101.6
X36.44Y-115.53
X37.3Y-113.09
X56.166Y-125.377
X56.168Y-118.27
X56.194Y-96.763
X56.217Y-103.425
X56.218Y-90.079
X56.225Y-75.762
X56.229Y-132.602
X56.237Y-82.904
X56.271Y-128.807
X56.283Y-121.7
X56.296Y-110.947
X56.325Y-136.032
X56.338Y-100.192
X56.348Y-106.855
X56.373Y-93.507
X56.4Y-79.189
X56.401Y-86.331
X56.42Y-114.377
X57.81Y-125.442
X57.812Y-118.331
X57.838Y-96.765
X57.862Y-103.479
X57.863Y-90.12
X57.871Y-75.794
X57.873Y-132.671
X57.882Y-82.94
X57.94Y-111.003
X61.832Y-128.564
X61.843Y-121.442
X61.85Y-127.136
X61.857Y-120.014
X61.87Y-124.828
X61.871Y-117.706
X61.887Y-135.804
X61.892Y-96.106
X61.895Y-99.842
X61.897Y-98.414
X61.907Y-106.571
X61.909Y-134.376
X61.914Y-89.448
X61.914Y-105.143
X61.918Y-102.835
X61.918Y-75.099
X61.927Y-91.756
X61.93Y-93.184
X61.931Y-82.256
X61.935Y-132.068
X61.944Y-77.407
X61.951Y-84.565
X61.955Y-78.835
X61.957Y-85.993
X61.979Y-114.104
X61.99Y-112.676
X61.997Y-110.367
X62.788Y-125.284
X62.79Y-118.159
X62.814Y-96.551
X62.838Y-89.89
X62.838Y-103.284
X62.844Y-75.536
X62.851Y-132.526
X62.856Y-82.696
X62.917Y-110.818
X71.643Y-125.993
X71.647Y-118.843
X71.677Y-97.162
X71.698Y-103.928
X71.702Y-90.471
X71.705Y-133.258
X71.712Y-76.068
X71.722Y-83.253
X71.776Y-111.48
X87.054Y-127.075
X87.06Y-119.882
X87.098Y-98.071
X87.112Y-134.38
X87.117Y-104.897
X87.127Y-91.329
X87.141Y-76.84
X87.149Y-84.068
X87.193Y-112.478
X188.253Y-129.36
X188.266Y-121.885
X188.285Y-125.799
X188.287Y-118.324
X188.306Y-136.931
X188.309Y-95.665
X188.317Y-99.226
X188.326Y-73.533
X188.329Y-88.587
X188.331Y-106.441
X188.335Y-102.879
X188.343Y-81.043
X188.346Y-133.37
X188.349Y-92.149
X188.367Y-77.094
X188.373Y-84.604
X188.403Y-114.216
X188.415Y-110.654
X189.447Y-129.375
X189.46Y-121.896
X189.478Y-125.806
X189.481Y-118.327
X189.499Y-136.948
X189.502Y-95.658
X189.511Y-99.227
X189.519Y-73.515
X189.522Y-88.577
X189.524Y-106.446
X189.529Y-102.877
X189.536Y-81.029
X189.54Y-133.379
X189.543Y-92.146
X189.56Y-77.084
X189.567Y-84.598
X189.597Y-114.224
X189.608Y-110.655
X315.482Y-130.461
X315.497Y-122.63
X315.513Y-126.919
X315.518Y-119.088
X315.531Y-138.365
X315.541Y-95.363
X315.55Y-98.906
X315.551Y-72.099
X315.56Y-87.864
X315.563Y-106.609
X315.568Y-103.066
X315.571Y-134.823
X315.571Y-79.965
X315.58Y-91.406
X315.591Y-75.641
X315.602Y-83.507
X315.636Y-114.628
X315.647Y-111.086
X316.675Y-130.475
X316.69Y-122.641
X316.706Y-126.926
X316.711Y-119.091
X316.724Y-138.382
X316.735Y-95.357
X316.743Y-98.906
X316.744Y-72.082
X316.753Y-87.853
X316.757Y-106.614
X316.762Y-103.064
X316.764Y-134.832
X316.765Y-79.951
X316.773Y-91.403
X316.785Y-75.631
X316.795Y-83.5
X316.829Y-114.636
X316.841Y-111.086
X442.542Y-131.583
X442.56Y-123.398
X442.573Y-128.014
X442.581Y-119.829
X442.587Y-139.82
X442.606Y-95.039
X442.608Y-70.644
X442.614Y-98.609
X442.622Y-87.119
X442.628Y-136.251
X442.628Y-106.799
X442.631Y-78.864
X442.633Y-103.23
X442.643Y-90.688
X442.648Y-74.213
X442.662Y-82.434
X442.7Y-115.063
X442.711Y-111.494
X443.735Y-131.59
X443.753Y-123.401
X443.766Y-128.029
X443.774Y-119.84
X443.781Y-139.829
X443.799Y-95.04
X443.801Y-70.634
X443.808Y-98.602
X443.816Y-87.116
X443.821Y-136.268
X443.821Y-106.797
X443.825Y-78.858
X443.826Y-103.236
X443.836Y-90.677
X443.841Y-74.196
X443.855Y-82.42
X443.893Y-115.063
X443.905Y-111.502
X563.11Y-131.349
X563.127Y-122.827
X563.133Y-130.363
X563.147Y-121.84
X563.156Y-139.901
X563.173Y-97.027
X563.182Y-138.915
X563.185Y-96.041
X563.187Y-71.559
X563.191Y-70.572
X563.191Y-105.681
X563.195Y-88.707
X563.204Y-87.721
X563.207Y-104.695
X563.208Y-80.116
X563.214Y-79.129
X563.265Y-114.176
X563.283Y-113.19
X563.663Y-132.61
X563.684Y-124.086
X563.694Y-129.102
X563.705Y-120.578
X563.706Y-141.163
X563.726Y-69.3
X563.732Y-94.774
X563.74Y-98.282
X563.746Y-137.655
X563.747Y-86.452
X563.753Y-77.859
X563.754Y-106.938
X563.759Y-103.43
X563.766Y-72.808
X563.767Y-89.96
X563.783Y-81.367
X563.825Y-115.434
X563.837Y-111.926
T2
X3.6Y-113.0
X3.8Y-105.4
X4.0Y-111.0
X4.8Y-109.6
X5.2Y-120.4
X7.4Y-118.0
X7.83Y-94.35
X8.048Y-108.023
X9.4Y-95.8
X9.41Y-98.16
X9.7Y-113.7
X10.4Y-123.2
X11.0Y-86.0
X11.0Y-96.2
X11.0Y-130.8
X12.4Y-97.4
X12.71Y-101.52
X13.12Y-98.25
X13.2Y-117.0
X13.58Y-119.38
X14.0Y-96.2
X14.54Y-97.95
X15.352Y-124.0
X15.8Y-91.6
X16.0Y-93.2
X16.02Y-97.16
X16.8Y-121.6
X17.4Y-122.8
X17.4Y-125.6
X17.8Y-127.2
X18.2Y-102.0
X18.2Y-117.6
X18.4Y-113.6
X18.737Y-86.784
X18.8Y-83.4
X19.117Y-121.772
X19.2Y-96.2
X19.275Y-87.863
X19.574Y-129.997
X19.6Y-113.8
X19.8Y-104.8
X20.1Y-107.12
X20.24Y-88.14
X20.4Y-102.2
X20.42Y-108.64
X20.6Y-85.6
X20.6Y-119.6
X21.0Y-126.6
X21.09Y-92.31
X21.103Y-121.2
X21.6Y-94.4
X21.988Y-83.589
X22.2Y-123.6
X22.23Y-82.587
X22.32Y-96.72
X22.361Y-125.771
X22.62Y-124.773
X23.2Y-93.2
X23.2Y-121.0
X23.37Y-112.58
X23.415Y-96.587
X23.756Y-85.574
X23.91Y-99.47
X24.0Y-111.8
X24.04Y-103.09
X24.094Y-127.786
X24.6Y-115.8
X25.0Y-96.48
X25.0Y-97.8
X25.167Y-105.208
X25.2Y-120.8
X25.552Y-101.6
X25.6Y-104.106
X25.948Y-94.8
X26.4Y-98.4
X26.4Y-115.2
X26.41Y-99.3
X26.6Y-117.8
X26.825Y-105.425
X27.352Y-82.421
X27.6Y-96.313
X27.64Y-109.97
X27.744Y-124.695
X27.8Y-99.588
X27.8Y-134.6
X28.006Y-85.638
X28.27Y-110.95
X28.343Y-127.923
X28.364Y-113.083
X28.4Y-121.4
X28.451Y-82.311
X28.6Y-89.0
X28.7Y-96.21
X28.701Y-115.233
X28.845Y-124.605
X28.943Y-110.278
X29.006Y-85.63
X29.235Y-99.532
X29.343Y-127.932
X29.364Y-113.086
X29.366Y-87.848
X29.71Y-80.22
X30.2Y-134.6
X30.228Y-96.679
X30.368Y-125.091
X30.4Y-105.4
X30.4Y-109.89
X30.4Y-130.6
X30.49Y-92.4
X30.501Y-85.017
X30.56Y-99.322
X30.6Y-102.8
X30.616Y-84.143
X30.848Y-127.345
X30.855Y-98.055
X30.865Y-112.491
X30.979Y-126.473
X30.991Y-111.619
X31.097Y-117.775
X31.23Y-82.51
X31.26Y-101.79
X31.477Y-96.426
X31.6Y-99.553
X31.62Y-124.852
X31.624Y-109.994
X32.0Y-113.122
X33.0Y-134.6
X33.067Y-80.67
X33.325Y-94.369
X33.484Y-107.947
X33.491Y-122.816
X33.8Y-114.2
X33.8Y-117.8
X34.0Y-105.4
X34.0Y-118.8
X34.103Y-80.236
X34.18Y-130.78
X34.364Y-94.168
X34.38Y-100.39
X34.524Y-107.753
X34.529Y-122.96
X34.6Y-87.4
X34.6Y-134.2
X34.691Y-119.709
X34.732Y-82.73
X34.745Y-85.855
X34.8Y-120.6
X34.978Y-96.667
X34.987Y-99.917
X35.0Y-78.0
X35.053Y-83.978
X35.089Y-128.382
X35.112Y-113.505
X35.117Y-125.132
X35.123Y-110.255
X35.2Y-104.8
X35.292Y-97.916
X35.4Y-118.0
X35.418Y-126.385
X35.43Y-111.506
X35.54Y-79.07
X35.6Y-76.6
X35.6Y-91.2
X35.8Y-122.0
X35.8Y-133.0
X35.96Y-100.43
X35.969Y-81.22
X35.992Y-83.97
X36.0Y-121.2
X36.2Y-114.2
X36.514Y-122.945
X36.55Y-137.17
X36.584Y-108.189
X36.6Y-123.962
X36.619Y-94.984
X36.655Y-80.776
X36.97Y-81.77
X37.8Y-92.6
X37.8Y-104.8
X37.8Y-120.6
X37.8Y-133.8
X38.0Y-77.4
X38.2Y-123.2
X38.4Y-109.4
X38.6Y-111.6
X38.95Y-113.902
X39.289Y-118.712
X39.34Y-103.943
X39.345Y-90.718
X39.348Y-132.952
X39.35Y-97.14
X39.545Y-117.713
X39.589Y-89.716
X39.592Y-102.944
X39.595Y-75.492
X39.609Y-131.954
X40.13Y-101.08
X40.62Y-77.481
X41.027Y-120.722
X41.075Y-134.971
X41.087Y-105.946
X41.106Y-92.708
X41.129Y-78.475
X41.2Y-123.2
X44.6Y-120.8
X44.668Y-117.621
X44.711Y-89.564
X44.715Y-102.828
X44.716Y-75.311
X44.733Y-131.89
X45.324Y-135.12
X45.337Y-106.052
X45.357Y-92.783
X45.38Y-78.527
X45.6Y-137.4
X45.769Y-117.527
X45.8Y-108.2
X45.802Y-94.786
X45.811Y-89.458
X45.815Y-102.729
X45.815Y-75.199
X45.834Y-131.802
X45.9Y-111.09
X46.0Y-80.8
X46.276Y-120.853
X46.324Y-135.131
X46.337Y-106.053
X46.357Y-92.777
X46.38Y-78.516
X46.6Y-82.0
X46.8Y-109.6
X47.293Y-118.009
X47.341Y-89.922
X47.341Y-103.204
X47.348Y-75.654
X47.356Y-132.292
X47.6Y-81.8
X47.78Y-120.262
X47.83Y-134.548
X47.838Y-105.455
X47.853Y-92.169
X47.873Y-77.899
X47.908Y-119.39
X47.962Y-104.582
X47.963Y-133.676
X47.971Y-91.295
X47.986Y-77.024
X48.46Y-109.372
X48.545Y-117.767
X48.589Y-89.664
X48.592Y-102.956
X48.595Y-75.39
X48.609Y-132.057
X48.97Y-113.81
X49.6Y-81.2
X49.72Y-114.09
X50.41Y-115.725
X50.424Y-73.317
X50.43Y-87.601
X50.447Y-100.906
X50.485Y-130.025
X50.66Y-83.92
X51.451Y-115.534
X51.462Y-73.108
X51.469Y-87.398
X51.488Y-100.71
X51.527Y-129.84
X52.024Y-121.287
X52.043Y-118.037
X52.069Y-135.596
X52.087Y-106.461
X52.09Y-89.894
X52.091Y-103.211
X52.097Y-75.6
X52.106Y-132.346
X52.109Y-93.144
X52.11Y-99.021
X52.134Y-78.85
X52.347Y-119.289
X52.401Y-104.462
X52.402Y-133.6
X52.409Y-91.143
X52.422Y-76.847
X52.848Y-125.952
X52.973Y-85.148
X53.006Y-104.015
X53.014Y-118.941
X53.302Y-116.545
X53.32Y-97.812
X53.33Y-74.086
X53.332Y-88.387
X53.341Y-133.61
X53.343Y-101.713
X53.348Y-91.137
X53.361Y-76.836
X53.373Y-130.861
X53.416Y-111.979
X53.425Y-109.229
X53.77Y-127.625
X53.778Y-120.525
X53.827Y-134.843
X53.855Y-92.361
X53.875Y-78.057
X53.912Y-113.208
X53.915Y-105.699
X53.926Y-125.127
X53.927Y-118.027
X53.951Y-96.539
X53.975Y-89.862
X53.976Y-103.192
X53.981Y-75.557
X53.99Y-132.346
X53.993Y-82.693
X54.055Y-110.709
X54.206Y-128.295
X54.217Y-121.194
X54.262Y-135.515
X54.267Y-99.704
X54.279Y-106.358
X54.301Y-93.025
X54.325Y-78.719
X54.328Y-85.855
X54.352Y-113.876
X54.571Y-126.794
X54.67Y-84.35
X54.695Y-119.754
X54.711Y-125.282
X54.713Y-118.179
X54.738Y-96.685
X54.751Y-104.916
X54.762Y-103.341
X54.762Y-90.005
X54.769Y-75.696
X54.774Y-132.503
X54.78Y-82.834
X54.84Y-110.86
T3
X24.42Y-106.38
X24.42Y-108.24
X36.08Y-88.32
X52.94Y-95.77
T4
X21.168Y-89.125
X22.418Y-89.125
X23.668Y-89.125
X24.918Y-89.125
X27.065Y-120.35
X27.25Y-131.8
X28.315Y-120.35
X28.5Y-131.8
X29.565Y-120.35
X29.75Y-131.8
X30.09Y-136.92
X30.815Y-120.35
X31.0Y-131.8
X31.34Y-136.92
X32.265Y-103.15
X32.59Y-136.92
X33.515Y-103.15
X33.84Y-136.92
X34.765Y-103.15
X36.015Y-103.15
X39.678Y-109.925
X40.764Y-82.6
X40.928Y-109.925
X42.014Y-82.6
X42.178Y-109.925
X43.264Y-82.6
X43.428Y-109.925
X44.514Y-82.6
X44.568Y-96.325
X45.818Y-96.325
X47.068Y-96.325
X48.15Y-110.6
X48.318Y-96.325
X49.4Y-110.6
X50.65Y-110.6
X51.9Y-110.6
T5
X8.0Y-82.6
X10.0Y-82.6
X11.8Y-134.0
X12.0Y-82.6
X13.8Y-134.0
X14.0Y-82.6
X15.8Y-134.0
X17.8Y-134.0
X24.0Y-74.2
X26.0Y-74.2
X28.0Y-74.2
X30.0Y-74.2
T6
X3.64Y-91.32
X3.64Y-93.86
X3.64Y-96.4
X3.64Y-98.94
X3.64Y-101.48
X3.7Y-83.74
X3.7Y-86.28
X4.4Y-74.75
X4.4Y-77.29
X11.215Y-72.67
X11.215Y-75.21
M30
