%TF.GenerationSoftware,KiCad,Pcbnew,9.0.4*%
%TF.CreationDate,2026-01-09T16:11:44-05:00*%
%TF.ProjectId,new_fretboard_rev1,6e65775f-6672-4657-9462-6f6172645f72,rev?*%
%TF.SameCoordinates,Original*%
%TF.FileFunction,Soldermask,Bot*%
%TF.FilePolarity,Negative*%
%FSLAX46Y46*%
G04 Gerber Fmt 4.6, Leading zero omitted, Abs format (unit mm)*
G04 Created by KiCad (PCBNEW 9.0.4) date 2026-01-09 16:11:44*
%MOMM*%
%LPD*%
G01*
G04 APERTURE LIST*
G04 Aperture macros list*
%AMRoundRect*
0 Rectangle with rounded corners*
0 $1 Rounding radius*
0 $2 $3 $4 $5 $6 $7 $8 $9 X,Y pos of 4 corners*
0 Add a 4 corners polygon primitive as box body*
4,1,4,$2,$3,$4,$5,$6,$7,$8,$9,$2,$3,0*
0 Add four circle primitives for the rounded corners*
1,1,$1+$1,$2,$3*
1,1,$1+$1,$4,$5*
1,1,$1+$1,$6,$7*
1,1,$1+$1,$8,$9*
0 Add four rect primitives between the rounded corners*
20,1,$1+$1,$2,$3,$4,$5,0*
20,1,$1+$1,$4,$5,$6,$7,0*
20,1,$1+$1,$6,$7,$8,$9,0*
20,1,$1+$1,$8,$9,$2,$3,0*%
G04 Aperture macros list end*
%ADD10C,0.561000*%
%ADD11R,1.700000X1.700000*%
%ADD12C,1.700000*%
%ADD13C,1.270000*%
%ADD14RoundRect,0.102000X-0.654000X-0.654000X0.654000X-0.654000X0.654000X0.654000X-0.654000X0.654000X0*%
%ADD15C,1.512000*%
%ADD16C,1.020000*%
%ADD17C,1.166800*%
%ADD18R,0.850000X0.850000*%
%ADD19C,2.100000*%
%ADD20C,0.406400*%
G04 APERTURE END LIST*
%TO.C,J3*%
D10*
X7505500Y-90200000D02*
G75*
G02*
X6944500Y-90200000I-280500J0D01*
G01*
X6944500Y-90200000D02*
G75*
G02*
X7505500Y-90200000I280500J0D01*
G01*
X13855500Y-90200000D02*
G75*
G02*
X13294500Y-90200000I-280500J0D01*
G01*
X13294500Y-90200000D02*
G75*
G02*
X13855500Y-90200000I280500J0D01*
G01*
%TD*%
D11*
%TO.C,J17*%
X11215000Y-75210000D03*
D12*
X11215000Y-72670000D03*
%TD*%
D11*
%TO.C,J16*%
X4400000Y-77290000D03*
D12*
X4400000Y-74750000D03*
%TD*%
D11*
%TO.C,J15*%
X3700000Y-83740000D03*
D12*
X3700000Y-86280000D03*
%TD*%
D11*
%TO.C,J14*%
X3640000Y-101480000D03*
D12*
X3640000Y-98940000D03*
X3640000Y-96400000D03*
X3640000Y-93860000D03*
X3640000Y-91320000D03*
%TD*%
D13*
%TO.C,H13*%
X572610000Y-105150000D03*
%TD*%
D14*
%TO.C,J12*%
X11800000Y-134000000D03*
D15*
X13800000Y-134000000D03*
X15800000Y-134000000D03*
X17800000Y-134000000D03*
%TD*%
D13*
%TO.C,H9*%
X569930000Y-135110000D03*
%TD*%
%TO.C,H6*%
X569920000Y-109320000D03*
%TD*%
D16*
%TO.C,J3*%
X13575000Y-90200000D03*
X7225000Y-90200000D03*
%TD*%
D17*
%TO.C,J9*%
X24918400Y-89125312D03*
X23668400Y-89125312D03*
X22418400Y-89125312D03*
X21168400Y-89125312D03*
%TD*%
D13*
%TO.C,H11*%
X572460000Y-70950000D03*
%TD*%
D18*
%TO.C,TP2*%
X52940000Y-95770000D03*
%TD*%
D13*
%TO.C,H3*%
X569920000Y-83930000D03*
%TD*%
%TO.C,H5*%
X569920000Y-100780000D03*
%TD*%
%TO.C,H7*%
X569890000Y-118060000D03*
%TD*%
D18*
%TO.C,TP4*%
X24420000Y-106380000D03*
%TD*%
D17*
%TO.C,J7*%
X36014600Y-103149912D03*
X34764600Y-103149912D03*
X33514600Y-103149912D03*
X32264600Y-103149912D03*
%TD*%
D18*
%TO.C,TP1*%
X36080000Y-88320000D03*
%TD*%
D17*
%TO.C,J10*%
X44513924Y-82600000D03*
X43263924Y-82600000D03*
X42013924Y-82600000D03*
X40763924Y-82600000D03*
%TD*%
D13*
%TO.C,H4*%
X569900000Y-92440000D03*
%TD*%
D19*
%TO.C,H23*%
X6750000Y-139980000D03*
%TD*%
D17*
%TO.C,J5*%
X43428400Y-109925312D03*
X42178400Y-109925312D03*
X40928400Y-109925312D03*
X39678400Y-109925312D03*
%TD*%
%TO.C,J4*%
X30814600Y-120349912D03*
X29564600Y-120349912D03*
X28314600Y-120349912D03*
X27064600Y-120349912D03*
%TD*%
%TO.C,J2*%
X33840000Y-136920000D03*
X32590000Y-136920000D03*
X31340000Y-136920000D03*
X30090000Y-136920000D03*
%TD*%
D14*
%TO.C,J11*%
X8000000Y-82600000D03*
D15*
X10000000Y-82600000D03*
X12000000Y-82600000D03*
X14000000Y-82600000D03*
%TD*%
D13*
%TO.C,H2*%
X569930000Y-75370000D03*
%TD*%
D17*
%TO.C,J8*%
X48318400Y-96325312D03*
X47068400Y-96325312D03*
X45818400Y-96325312D03*
X44568400Y-96325312D03*
%TD*%
%TO.C,J6*%
X51900000Y-110600000D03*
X50650000Y-110600000D03*
X49400000Y-110600000D03*
X48150000Y-110600000D03*
%TD*%
D13*
%TO.C,H8*%
X569910000Y-126580000D03*
%TD*%
D17*
%TO.C,J1*%
X31000000Y-131800000D03*
X29750000Y-131800000D03*
X28500000Y-131800000D03*
X27250000Y-131800000D03*
%TD*%
D18*
%TO.C,TP3*%
X24420000Y-108240000D03*
%TD*%
D13*
%TO.C,H12*%
X572500000Y-139540000D03*
%TD*%
%TO.C,H1*%
X569900000Y-66870000D03*
%TD*%
%TO.C,H10*%
X569930000Y-143810000D03*
%TD*%
D19*
%TO.C,H22*%
X6780000Y-70130000D03*
%TD*%
D14*
%TO.C,J13*%
X24000000Y-74200000D03*
D15*
X26000000Y-74200000D03*
X28000000Y-74200000D03*
X30000000Y-74200000D03*
%TD*%
D20*
X56399560Y-79189421D03*
X56225489Y-75762177D03*
X57870635Y-75794316D03*
X563766036Y-72808309D03*
X316784548Y-75631174D03*
X61954700Y-78835342D03*
X315591220Y-75640903D03*
X61917931Y-75099050D03*
X61944117Y-77407101D03*
X563726236Y-69300295D03*
X316744276Y-72081506D03*
X62844144Y-75536001D03*
X315551035Y-72098853D03*
X563190719Y-70572132D03*
X189559859Y-77084206D03*
X87141185Y-76839678D03*
X563187305Y-71558514D03*
X188366529Y-77093934D03*
X443800848Y-70634192D03*
X71711856Y-76067747D03*
X442607520Y-70643920D03*
X443841253Y-74195542D03*
X188326126Y-73532587D03*
X442648011Y-74212890D03*
X189519369Y-73515239D03*
X56217758Y-90079098D03*
X56372686Y-93507261D03*
X57862700Y-90120424D03*
X61929717Y-93184212D03*
X563766885Y-89959901D03*
X315580119Y-91406389D03*
X61927110Y-91755934D03*
X316773484Y-91403326D03*
X61913816Y-89447774D03*
X563746679Y-86451724D03*
X62837574Y-89889890D03*
X316753038Y-87853489D03*
X315559718Y-87864173D03*
X71702178Y-90471154D03*
X87126955Y-91329247D03*
X443815711Y-87115812D03*
X442642906Y-90688012D03*
X443836225Y-90677329D03*
X442622347Y-87118876D03*
X189542665Y-92145782D03*
X188349301Y-92148845D03*
X563204065Y-87720549D03*
X563195143Y-88706893D03*
X188328787Y-88587326D03*
X189522109Y-88576643D03*
X56193515Y-96763371D03*
X56337671Y-100192005D03*
X57838287Y-96764980D03*
X315541371Y-95363294D03*
X316743394Y-98906453D03*
X61895123Y-99842239D03*
X61891612Y-96105769D03*
X563740224Y-98282095D03*
X315550026Y-98905560D03*
X563731652Y-94773870D03*
X316734720Y-95356569D03*
X61897253Y-98413959D03*
X62813898Y-96550945D03*
X188308741Y-95664533D03*
X563184835Y-96040889D03*
X443807845Y-98601816D03*
X442605775Y-95039357D03*
X443799143Y-95040252D03*
X189510813Y-99226993D03*
X189502092Y-95657807D03*
X87098373Y-98070841D03*
X188317444Y-99226100D03*
X563172641Y-97027199D03*
X442614496Y-98608542D03*
X71676527Y-97161601D03*
X56347562Y-106854602D03*
X56217170Y-103425423D03*
X57861772Y-103478519D03*
X563754154Y-106938138D03*
X563759052Y-103429906D03*
X62838169Y-103283589D03*
X315563392Y-106608617D03*
X316761704Y-103064202D03*
X61906762Y-106571327D03*
X315568338Y-103066346D03*
X61914376Y-105143065D03*
X316756748Y-106614094D03*
X61917599Y-102834874D03*
X188335491Y-102879047D03*
X189523874Y-106446094D03*
X563191394Y-105681070D03*
X442628065Y-106799493D03*
X188330517Y-106440618D03*
X563207374Y-104694815D03*
X442633048Y-103230301D03*
X87116628Y-104896717D03*
X71698386Y-103928272D03*
X443821431Y-106797350D03*
X189528858Y-102876902D03*
X443826404Y-103235778D03*
X56295931Y-110947082D03*
X56419738Y-114376508D03*
X57940428Y-111003335D03*
X563836871Y-111925975D03*
X61979473Y-114103906D03*
X62917190Y-110817960D03*
X316828909Y-114635949D03*
X563825237Y-115434193D03*
X316840680Y-111086071D03*
X61997483Y-110367479D03*
X61989829Y-112675663D03*
X315635565Y-114628182D03*
X315647312Y-111085924D03*
X442711473Y-111493827D03*
X563264892Y-114176047D03*
X87192508Y-112477698D03*
X188415057Y-110654356D03*
X188403246Y-114215913D03*
X563282765Y-113189822D03*
X443904816Y-111501594D03*
X443893005Y-115063151D03*
X71776154Y-111479651D03*
X442699637Y-115063004D03*
X189608426Y-110654503D03*
X189596590Y-114223680D03*
X56282778Y-121700117D03*
X56167950Y-118270379D03*
X57812295Y-118330938D03*
X61871000Y-117705705D03*
X61857302Y-120013865D03*
X62789525Y-118158594D03*
X61843207Y-121442071D03*
X315497056Y-122630415D03*
X316711440Y-119091474D03*
X563683767Y-124086181D03*
X563704586Y-120578005D03*
X315518077Y-119088202D03*
X316690375Y-122641306D03*
X443752918Y-123401159D03*
X442580734Y-119828755D03*
X188287389Y-118323542D03*
X71646725Y-118843475D03*
X563147172Y-121840399D03*
X442559555Y-123397888D03*
X443774053Y-119839646D03*
X563126718Y-122826573D03*
X189480753Y-118326813D03*
X188266254Y-121885054D03*
X189459574Y-121895945D03*
X87060414Y-119881879D03*
X56271029Y-128806919D03*
X56165778Y-125376871D03*
X57809947Y-125442022D03*
X62787640Y-125283577D03*
X315512614Y-126918931D03*
X315481702Y-130461074D03*
X61832157Y-128564402D03*
X563663380Y-132609902D03*
X563693995Y-129101797D03*
X61850241Y-127136236D03*
X316705963Y-126925535D03*
X316674985Y-130475298D03*
X61870383Y-124828125D03*
X188253474Y-129360422D03*
X442572708Y-128014307D03*
X189477905Y-125805583D03*
X71642893Y-125993189D03*
X443734911Y-131589974D03*
X563109849Y-131348744D03*
X442541561Y-131583369D03*
X87053622Y-127074632D03*
X443765991Y-128028531D03*
X189446759Y-129374646D03*
X188284555Y-125798979D03*
X563133059Y-130362630D03*
X56229124Y-132601621D03*
X56325395Y-136031932D03*
X57873118Y-132671075D03*
X61908962Y-134375862D03*
X315530848Y-138364693D03*
X563745849Y-137655237D03*
X563706050Y-141163251D03*
X62851208Y-132525663D03*
X315571033Y-134822643D03*
X61935147Y-132067811D03*
X61887139Y-135803975D03*
X316764361Y-134832372D03*
X316724090Y-138382040D03*
X71704574Y-133258456D03*
X188305939Y-136930962D03*
X189499182Y-136948309D03*
X563181615Y-138914598D03*
X188346343Y-133369613D03*
X442587334Y-139819625D03*
X442627824Y-136250656D03*
X87112418Y-134380240D03*
X443780662Y-139829353D03*
X443821067Y-136268003D03*
X563155823Y-139900648D03*
X189539673Y-133379342D03*
X56236610Y-82903706D03*
X56401108Y-86331424D03*
X57881658Y-82940438D03*
X316795017Y-83500321D03*
X315601667Y-83506717D03*
X61957215Y-85992858D03*
X61950621Y-84564592D03*
X316764659Y-79950553D03*
X563783425Y-81367165D03*
X315571373Y-79964569D03*
X62855870Y-82696014D03*
X563753422Y-77859057D03*
X61930881Y-82256478D03*
X442661950Y-82433516D03*
X87149176Y-84067536D03*
X443824778Y-78858054D03*
X188342956Y-81043017D03*
X563214355Y-79129393D03*
X188373415Y-84604465D03*
X443855237Y-82419501D03*
X563208187Y-80115761D03*
X189566767Y-84598069D03*
X189536243Y-81029001D03*
X71722063Y-83252520D03*
X442631427Y-78864450D03*
M02*
