%TF.GenerationSoftware,KiCad,Pcbnew,9.0.4*%
%TF.CreationDate,2026-01-09T16:28:47-05:00*%
%TF.ProjectId,new_fretboard_rev1,6e65775f-6672-4657-9462-6f6172645f72,rev?*%
%TF.SameCoordinates,Original*%
%TF.FileFunction,Legend,Bot*%
%TF.FilePolarity,Positive*%
%FSLAX46Y46*%
G04 Gerber Fmt 4.6, Leading zero omitted, Abs format (unit mm)*
G04 Created by KiCad (PCBNEW 9.0.4) date 2026-01-09 16:28:47*
%MOMM*%
%LPD*%
G01*
G04 APERTURE LIST*
G04 Aperture macros list*
%AMRoundRect*
0 Rectangle with rounded corners*
0 $1 Rounding radius*
0 $2 $3 $4 $5 $6 $7 $8 $9 X,Y pos of 4 corners*
0 Add a 4 corners polygon primitive as box body*
4,1,4,$2,$3,$4,$5,$6,$7,$8,$9,$2,$3,0*
0 Add four circle primitives for the rounded corners*
1,1,$1+$1,$2,$3*
1,1,$1+$1,$4,$5*
1,1,$1+$1,$6,$7*
1,1,$1+$1,$8,$9*
0 Add four rect primitives between the rounded corners*
20,1,$1+$1,$2,$3,$4,$5,0*
20,1,$1+$1,$4,$5,$6,$7,0*
20,1,$1+$1,$6,$7,$8,$9,0*
20,1,$1+$1,$8,$9,$2,$3,0*%
G04 Aperture macros list end*
%ADD10C,0.084658*%
%ADD11C,0.000000*%
%ADD12C,0.381000*%
%ADD13C,0.508000*%
%ADD14C,0.561000*%
%ADD15R,1.700000X1.700000*%
%ADD16C,1.700000*%
%ADD17C,1.270000*%
%ADD18RoundRect,0.102000X-0.654000X-0.654000X0.654000X-0.654000X0.654000X0.654000X-0.654000X0.654000X0*%
%ADD19C,1.512000*%
%ADD20C,1.020000*%
%ADD21C,1.166800*%
%ADD22R,0.850000X0.850000*%
%ADD23C,2.100000*%
%ADD24C,0.406400*%
G04 APERTURE END LIST*
D10*
X569978474Y-142568164D02*
X570041944Y-142572990D01*
X570104491Y-142580939D01*
X570166037Y-142591930D01*
X570226502Y-142605886D01*
X570285808Y-142622728D01*
X570343878Y-142642377D01*
X570400632Y-142664755D01*
X570455992Y-142689784D01*
X570509879Y-142717385D01*
X570562215Y-142747479D01*
X570612921Y-142779987D01*
X570661920Y-142814832D01*
X570709131Y-142851935D01*
X570754478Y-142891217D01*
X570797880Y-142932600D01*
X570839261Y-142976005D01*
X570878540Y-143021353D01*
X570915641Y-143068566D01*
X570950484Y-143117566D01*
X570982990Y-143168274D01*
X571013082Y-143220611D01*
X571040681Y-143274500D01*
X571065707Y-143329860D01*
X571088084Y-143386614D01*
X571107731Y-143444684D01*
X571124572Y-143503990D01*
X571138526Y-143564455D01*
X571149516Y-143625999D01*
X571157464Y-143688544D01*
X571162290Y-143752012D01*
X571163916Y-143816324D01*
X571162290Y-143880636D01*
X571157464Y-143944104D01*
X571149516Y-144006649D01*
X571138526Y-144068193D01*
X571124572Y-144128658D01*
X571107731Y-144187964D01*
X571088084Y-144246034D01*
X571065707Y-144302788D01*
X571040681Y-144358149D01*
X571013082Y-144412037D01*
X570982990Y-144464374D01*
X570950484Y-144515082D01*
X570915641Y-144564082D01*
X570878540Y-144611295D01*
X570839261Y-144656644D01*
X570797880Y-144700048D01*
X570754478Y-144741431D01*
X570709131Y-144780713D01*
X570661920Y-144817816D01*
X570612921Y-144852661D01*
X570562215Y-144885170D01*
X570509879Y-144915264D01*
X570455992Y-144942864D01*
X570400632Y-144967893D01*
X570343878Y-144990271D01*
X570285808Y-145009921D01*
X570226502Y-145026763D01*
X570166037Y-145040718D01*
X570104491Y-145051710D01*
X570041944Y-145059658D01*
X569978474Y-145064484D01*
X569914160Y-145066110D01*
X569849845Y-145064484D01*
X569786375Y-145059658D01*
X569723828Y-145051710D01*
X569662283Y-145040718D01*
X569601818Y-145026763D01*
X569542511Y-145009921D01*
X569484442Y-144990271D01*
X569427688Y-144967893D01*
X569372328Y-144942864D01*
X569318441Y-144915264D01*
X569266105Y-144885170D01*
X569215398Y-144852661D01*
X569166400Y-144817816D01*
X569119189Y-144780713D01*
X569073842Y-144741431D01*
X569030439Y-144700048D01*
X568989059Y-144656644D01*
X568949779Y-144611295D01*
X568912679Y-144564082D01*
X568877836Y-144515082D01*
X568845329Y-144464374D01*
X568815238Y-144412037D01*
X568787639Y-144358149D01*
X568762612Y-144302788D01*
X568740236Y-144246034D01*
X568720588Y-144187964D01*
X568703748Y-144128658D01*
X568689794Y-144068193D01*
X568678803Y-144006649D01*
X568670856Y-143944104D01*
X568666030Y-143880636D01*
X568664404Y-143816324D01*
X568666030Y-143752012D01*
X568670856Y-143688544D01*
X568678803Y-143625999D01*
X568689794Y-143564455D01*
X568703748Y-143503990D01*
X568720588Y-143444684D01*
X568740236Y-143386614D01*
X568762612Y-143329860D01*
X568787639Y-143274500D01*
X568815238Y-143220611D01*
X568845329Y-143168274D01*
X568877836Y-143117566D01*
X568912679Y-143068566D01*
X568949779Y-143021353D01*
X568989059Y-142976005D01*
X569030439Y-142932600D01*
X569073842Y-142891217D01*
X569119189Y-142851935D01*
X569166400Y-142814832D01*
X569215398Y-142779987D01*
X569266105Y-142747479D01*
X569318441Y-142717385D01*
X569372328Y-142689784D01*
X569427688Y-142664755D01*
X569484442Y-142642377D01*
X569542511Y-142622728D01*
X569601818Y-142605886D01*
X569662283Y-142591930D01*
X569723828Y-142580939D01*
X569786375Y-142572990D01*
X569849845Y-142568164D01*
X569914160Y-142566538D01*
X569978474Y-142568164D01*
D11*
G36*
X378148760Y-97224176D02*
G01*
X378148760Y-113263147D01*
X370838518Y-117382333D01*
X370838518Y-93104989D01*
X378148760Y-97224176D01*
G37*
D12*
X578060000Y-109320000D02*
X563819234Y-109287628D01*
X549352163Y-109254663D01*
X534645666Y-109221072D01*
X519685153Y-109186822D01*
X504454318Y-109151874D01*
X488934837Y-109116184D01*
X473105991Y-109079704D01*
X456944196Y-109042377D01*
X440422399Y-109004139D01*
X423509303Y-108964917D01*
X406168353Y-108924623D01*
X388356379Y-108883156D01*
X370021749Y-108840393D01*
X351101795Y-108796186D01*
X331519114Y-108750353D01*
X311176106Y-108702661D01*
X289946533Y-108652812D01*
X267661894Y-108600408D01*
X244088006Y-108544895D01*
X218881512Y-108485460D01*
X191500062Y-108420820D01*
X160986375Y-108348710D01*
X125307293Y-108264321D01*
X78556311Y-108153681D01*
D11*
G36*
X503568315Y-98760049D02*
G01*
X503568315Y-111393075D01*
X499913225Y-114637551D01*
X499913225Y-95515573D01*
X503568315Y-98760049D01*
G37*
G36*
X384584856Y-141289987D02*
G01*
X383334978Y-141274057D01*
X383334978Y-69233605D01*
X384584856Y-69217630D01*
X384584856Y-141289987D01*
G37*
G36*
X527909014Y-143120065D02*
G01*
X526659136Y-143104135D01*
X526659136Y-67403039D01*
X527909014Y-67387078D01*
X527909014Y-143120065D01*
G37*
G36*
X318815935Y-98505929D02*
G01*
X318815935Y-111138955D01*
X311505632Y-114383432D01*
X311505632Y-95261453D01*
X318815935Y-98505929D01*
G37*
G36*
X305370439Y-140278543D02*
G01*
X304120622Y-140262582D01*
X304116533Y-70245370D01*
X305366350Y-70229409D01*
X305370439Y-140278543D01*
G37*
G36*
X508137957Y-142867623D02*
G01*
X506888018Y-142851632D01*
X506888018Y-67655572D01*
X508137957Y-67639611D01*
X508137957Y-142867623D01*
G37*
G36*
X347261919Y-140813424D02*
G01*
X346012041Y-140797494D01*
X346012041Y-69710275D01*
X347261919Y-69694329D01*
X347261919Y-140813424D01*
G37*
D12*
X578110000Y-75330000D02*
X566116356Y-75447025D01*
X553962713Y-75565691D01*
X541641313Y-75686075D01*
X529143677Y-75808260D01*
X516460508Y-75932338D01*
X503581572Y-76058410D01*
X490495554Y-76186590D01*
X477189893Y-76317000D01*
X463650572Y-76449779D01*
X449861869Y-76585084D01*
X435806042Y-76723089D01*
X421462937Y-76863994D01*
X406809496Y-77008027D01*
X391819117Y-77155450D01*
X376460825Y-77306571D01*
X360698175Y-77461750D01*
X344487760Y-77621416D01*
X327777149Y-77786087D01*
X310501965Y-77956401D01*
X292581594Y-78133154D01*
X273912662Y-78317368D01*
X254358667Y-78510394D01*
X233732520Y-78714081D01*
X211765004Y-78931092D01*
X188042013Y-79165521D01*
X161861731Y-79424309D01*
X131835428Y-79721188D01*
X94277769Y-80092601D01*
X78551471Y-80248130D01*
X78545050Y-80248194D01*
X578140000Y-92370000D02*
X570646795Y-92404185D01*
X563091610Y-92438573D01*
X555472603Y-92473172D01*
X547787831Y-92507990D01*
X540035237Y-92543035D01*
X532212645Y-92578318D01*
X524317746Y-92613846D01*
X516348090Y-92649632D01*
X508301067Y-92685685D01*
X500173901Y-92722017D01*
X491963625Y-92758642D01*
X483667069Y-92795572D01*
X475280834Y-92832821D01*
X466801273Y-92870406D01*
X458224460Y-92908341D01*
X449546159Y-92946647D01*
X440761791Y-92985340D01*
X431866390Y-93024444D01*
X422854557Y-93063979D01*
X413720399Y-93103972D01*
X404457468Y-93144449D01*
X395058681Y-93185441D01*
X385516227Y-93226979D01*
X375821452Y-93269102D01*
X365964730Y-93311848D01*
X355935294Y-93355265D01*
X345721033Y-93399402D01*
X335308245Y-93444317D01*
X324681314Y-93490077D01*
X313822310Y-93536758D01*
X302710467Y-93584446D01*
X291321496Y-93633245D01*
X279626667Y-93683275D01*
X267591563Y-93734682D01*
X255174321Y-93787642D01*
X242323111Y-93842375D01*
X228972387Y-93899156D01*
X215037067Y-93958346D01*
X200403071Y-94020426D01*
X184910912Y-94086068D01*
X168324881Y-94156268D01*
X150268375Y-94232615D01*
X130064633Y-94317967D01*
X106228803Y-94418590D01*
X78554968Y-94535364D01*
X78554968Y-87391733D02*
X78828454Y-87389803D01*
X110176113Y-87168554D01*
X125848894Y-87057911D01*
X141520422Y-86947246D01*
X157190282Y-86836552D01*
X172858061Y-86725821D01*
X188523342Y-86615047D01*
X204185711Y-86504221D01*
X212015673Y-86448787D01*
X219844752Y-86393337D01*
X227672895Y-86337871D01*
X235500051Y-86282387D01*
X243326168Y-86226885D01*
X251151194Y-86171364D01*
X258975076Y-86115822D01*
X266797764Y-86060260D01*
X274619205Y-86004676D01*
X282439347Y-85949068D01*
X290258138Y-85893437D01*
X298075528Y-85837782D01*
X305891463Y-85782100D01*
X313705892Y-85726392D01*
X321518763Y-85670657D01*
X329330024Y-85614893D01*
X337139624Y-85559100D01*
X344947510Y-85503277D01*
X352753630Y-85447423D01*
X360557933Y-85391537D01*
X368360367Y-85335617D01*
X376160880Y-85279664D01*
X383959420Y-85223676D01*
X391755935Y-85167653D01*
X399550374Y-85111593D01*
X407342684Y-85055495D01*
X415132813Y-84999359D01*
X422920710Y-84943183D01*
X430706323Y-84886967D01*
X438489601Y-84830711D01*
X446270490Y-84774411D01*
X454048939Y-84718069D01*
X461824897Y-84661683D01*
X469598312Y-84605253D01*
X477369131Y-84548776D01*
X485137302Y-84492253D01*
X492902775Y-84435682D01*
X500665497Y-84379063D01*
X508425416Y-84322394D01*
X516182480Y-84265675D01*
X523936638Y-84208904D01*
X531687837Y-84152082D01*
X539436026Y-84095206D01*
X547181152Y-84038277D01*
X554923165Y-83981292D01*
X558792987Y-83952779D01*
X562662012Y-83924252D01*
X566530232Y-83895710D01*
X570397641Y-83867155D01*
X574264232Y-83838585D01*
X578130000Y-83810000D01*
D11*
G36*
X497362139Y-142730020D02*
G01*
X496112261Y-142714059D01*
X496112261Y-67793191D01*
X497362139Y-67777215D01*
X497362139Y-142730020D01*
G37*
G36*
X401690325Y-141508432D02*
G01*
X400440447Y-141492471D01*
X400440447Y-69015115D01*
X401690325Y-68999139D01*
X401690325Y-141508432D01*
G37*
G36*
X366462236Y-141058602D02*
G01*
X365212358Y-141042611D01*
X365212358Y-69465066D01*
X366462236Y-69449090D01*
X366462236Y-141058602D01*
G37*
D12*
X78554968Y-115965235D02*
X578130000Y-118080000D01*
D11*
G36*
X417835710Y-141714578D02*
G01*
X416585832Y-141698617D01*
X416585832Y-68808923D01*
X417835710Y-68792932D01*
X417835710Y-141714578D01*
G37*
G36*
X232715258Y-139350839D02*
G01*
X231465380Y-139334878D01*
X231465380Y-71173288D01*
X232715258Y-71157342D01*
X232715258Y-139350839D01*
G37*
D10*
X569978474Y-82672198D02*
X570041944Y-82677025D01*
X570104491Y-82684973D01*
X570166037Y-82695964D01*
X570226502Y-82709919D01*
X570285808Y-82726761D01*
X570343878Y-82746410D01*
X570400632Y-82768788D01*
X570455992Y-82793816D01*
X570509879Y-82821416D01*
X570562215Y-82851509D01*
X570612921Y-82884018D01*
X570661920Y-82918862D01*
X570709131Y-82955965D01*
X570754478Y-82995246D01*
X570797880Y-83036629D01*
X570839261Y-83080033D01*
X570878540Y-83125381D01*
X570915641Y-83172594D01*
X570950484Y-83221594D01*
X570982990Y-83272302D01*
X571013082Y-83324639D01*
X571040681Y-83378527D01*
X571065707Y-83433888D01*
X571088084Y-83490643D01*
X571107731Y-83548713D01*
X571124572Y-83608020D01*
X571138526Y-83668485D01*
X571149516Y-83730030D01*
X571157464Y-83792576D01*
X571162290Y-83856045D01*
X571163916Y-83920359D01*
X571162290Y-83984670D01*
X571157464Y-84048138D01*
X571149516Y-84110684D01*
X571138526Y-84172228D01*
X571124572Y-84232692D01*
X571107731Y-84291999D01*
X571088084Y-84350068D01*
X571065707Y-84406823D01*
X571040681Y-84462183D01*
X571013082Y-84516071D01*
X570982990Y-84568409D01*
X570950484Y-84619116D01*
X570915641Y-84668116D01*
X570878540Y-84715330D01*
X570839261Y-84760678D01*
X570797880Y-84804083D01*
X570754478Y-84845465D01*
X570709131Y-84884747D01*
X570661920Y-84921850D01*
X570612921Y-84956695D01*
X570562215Y-84989204D01*
X570509879Y-85019298D01*
X570455992Y-85046899D01*
X570400632Y-85071927D01*
X570343878Y-85094306D01*
X570285808Y-85113955D01*
X570226502Y-85130797D01*
X570166037Y-85144753D01*
X570104491Y-85155744D01*
X570041944Y-85163692D01*
X569978474Y-85168519D01*
X569914160Y-85170145D01*
X569849845Y-85168519D01*
X569786375Y-85163692D01*
X569723828Y-85155744D01*
X569662283Y-85144753D01*
X569601818Y-85130797D01*
X569542511Y-85113955D01*
X569484442Y-85094306D01*
X569427688Y-85071927D01*
X569372328Y-85046899D01*
X569318441Y-85019298D01*
X569266105Y-84989204D01*
X569215398Y-84956695D01*
X569166400Y-84921850D01*
X569119189Y-84884747D01*
X569073842Y-84845465D01*
X569030439Y-84804083D01*
X568989059Y-84760678D01*
X568949779Y-84715330D01*
X568912679Y-84668116D01*
X568877836Y-84619116D01*
X568845329Y-84568409D01*
X568815238Y-84516071D01*
X568787639Y-84462183D01*
X568762612Y-84406823D01*
X568740236Y-84350068D01*
X568720588Y-84291999D01*
X568703748Y-84232692D01*
X568689794Y-84172228D01*
X568678803Y-84110684D01*
X568670856Y-84048138D01*
X568666030Y-83984670D01*
X568664404Y-83920359D01*
X568666030Y-83856045D01*
X568670856Y-83792576D01*
X568678803Y-83730030D01*
X568689794Y-83668485D01*
X568703748Y-83608020D01*
X568720588Y-83548713D01*
X568740236Y-83490643D01*
X568762612Y-83433888D01*
X568787639Y-83378527D01*
X568815238Y-83324639D01*
X568845329Y-83272302D01*
X568877836Y-83221594D01*
X568912679Y-83172594D01*
X568949779Y-83125381D01*
X568989059Y-83080033D01*
X569030439Y-83036629D01*
X569073842Y-82995246D01*
X569119189Y-82955965D01*
X569166400Y-82918862D01*
X569215398Y-82884018D01*
X569266105Y-82851509D01*
X569318441Y-82821416D01*
X569372328Y-82793816D01*
X569427688Y-82768788D01*
X569484442Y-82746410D01*
X569542511Y-82726761D01*
X569601818Y-82709919D01*
X569662283Y-82695964D01*
X569723828Y-82684973D01*
X569786375Y-82677025D01*
X569849845Y-82672198D01*
X569914160Y-82670572D01*
X569978474Y-82672198D01*
D12*
X78552984Y-101009836D02*
X578080000Y-100770000D01*
D11*
G36*
X433075029Y-141909158D02*
G01*
X431825090Y-141893197D01*
X431825090Y-68614282D01*
X433075029Y-68598306D01*
X433075029Y-141909158D01*
G37*
G36*
X176794084Y-138636789D02*
G01*
X175544237Y-138620797D01*
X175544237Y-71887521D01*
X176794084Y-71871545D01*
X176794084Y-138636789D01*
G37*
G36*
X518308977Y-142997476D02*
G01*
X517059038Y-142981546D01*
X517059038Y-67525674D01*
X518308977Y-67509698D01*
X518308977Y-142997476D01*
G37*
G36*
X374906938Y-71049137D02*
G01*
X375023439Y-71055235D01*
X375139743Y-71066376D01*
X375255532Y-71082506D01*
X375370489Y-71103571D01*
X375484296Y-71129517D01*
X375596636Y-71160289D01*
X375707190Y-71195832D01*
X375815641Y-71236093D01*
X375921672Y-71281017D01*
X376024964Y-71330549D01*
X376125201Y-71384636D01*
X376222064Y-71443222D01*
X376315235Y-71506253D01*
X376404398Y-71573675D01*
X376489234Y-71645434D01*
X376569426Y-71721474D01*
X376644656Y-71801743D01*
X376714606Y-71886185D01*
X376778959Y-71974745D01*
X376837398Y-72067370D01*
X376889603Y-72164005D01*
X376935259Y-72264596D01*
X376991277Y-72359805D01*
X377040292Y-72458097D01*
X377082442Y-72559180D01*
X377117864Y-72662762D01*
X377146698Y-72768554D01*
X377169081Y-72876263D01*
X377185151Y-72985599D01*
X377195047Y-73096270D01*
X377198907Y-73207986D01*
X377196869Y-73320455D01*
X377189072Y-73433386D01*
X377175653Y-73546489D01*
X377156751Y-73659471D01*
X377132505Y-73772042D01*
X377103051Y-73883911D01*
X377068529Y-73994786D01*
X377029077Y-74104377D01*
X376984832Y-74212393D01*
X376935934Y-74318541D01*
X376882521Y-74422532D01*
X376824729Y-74524074D01*
X376762699Y-74622875D01*
X376696568Y-74718646D01*
X376626474Y-74811094D01*
X376552556Y-74899929D01*
X376474951Y-74984859D01*
X376393799Y-75065593D01*
X376309236Y-75141841D01*
X376221402Y-75213311D01*
X376130435Y-75279712D01*
X376036473Y-75340753D01*
X375939653Y-75396142D01*
X375840149Y-75445650D01*
X375738197Y-75489267D01*
X375634069Y-75527044D01*
X375528039Y-75559033D01*
X375420377Y-75585284D01*
X375311357Y-75605851D01*
X375201249Y-75620784D01*
X375090326Y-75630136D01*
X374978861Y-75633957D01*
X374867124Y-75632299D01*
X374755389Y-75625214D01*
X374643927Y-75612753D01*
X374533011Y-75594968D01*
X374422912Y-75571911D01*
X374313903Y-75543633D01*
X374206255Y-75510186D01*
X374100244Y-75471632D01*
X373996095Y-75428110D01*
X373894037Y-75379766D01*
X373794299Y-75326748D01*
X373697111Y-75269205D01*
X373602701Y-75207283D01*
X373511300Y-75141132D01*
X373423136Y-75070897D01*
X373338439Y-74996728D01*
X373257438Y-74918771D01*
X373180362Y-74837175D01*
X373107442Y-74752087D01*
X373038905Y-74663654D01*
X372974982Y-74572026D01*
X372915902Y-74477348D01*
X372861894Y-74379769D01*
X372813147Y-74279462D01*
X372769689Y-74176675D01*
X372731509Y-74071682D01*
X372698597Y-73964754D01*
X372670941Y-73856163D01*
X372648530Y-73746183D01*
X372631354Y-73635086D01*
X372619402Y-73523143D01*
X372612662Y-73410628D01*
X372611125Y-73297812D01*
X372614778Y-73184968D01*
X372623611Y-73072369D01*
X372637614Y-72960286D01*
X372656775Y-72848992D01*
X372681083Y-72738760D01*
X372710527Y-72629861D01*
X372745102Y-72522569D01*
X372784687Y-72417135D01*
X372829168Y-72313814D01*
X372878430Y-72212856D01*
X372932360Y-72114514D01*
X372990843Y-72019041D01*
X373053765Y-71926687D01*
X373121012Y-71837707D01*
X373192469Y-71752351D01*
X373268023Y-71670872D01*
X373347560Y-71593522D01*
X373430964Y-71520553D01*
X373518123Y-71452218D01*
X373608922Y-71388768D01*
X373703246Y-71330457D01*
X373800981Y-71277536D01*
X373901981Y-71230204D01*
X374005959Y-71188460D01*
X374112600Y-71152249D01*
X374221585Y-71121517D01*
X374332597Y-71096210D01*
X374445318Y-71076273D01*
X374559430Y-71061651D01*
X374674616Y-71052291D01*
X374790558Y-71048138D01*
X374906938Y-71049137D01*
G37*
D10*
X569978474Y-99533374D02*
X570041944Y-99538200D01*
X570104491Y-99546148D01*
X570166037Y-99557139D01*
X570226502Y-99571095D01*
X570285808Y-99587936D01*
X570343878Y-99607585D01*
X570400632Y-99629963D01*
X570455992Y-99654991D01*
X570509879Y-99682592D01*
X570562215Y-99712685D01*
X570612921Y-99745193D01*
X570661920Y-99780038D01*
X570709131Y-99817140D01*
X570754478Y-99856422D01*
X570797880Y-99897804D01*
X570839261Y-99941209D01*
X570878540Y-99986557D01*
X570915641Y-100033770D01*
X570950484Y-100082770D01*
X570982990Y-100133477D01*
X571013082Y-100185815D01*
X571040681Y-100239703D01*
X571065707Y-100295064D01*
X571088084Y-100351818D01*
X571107731Y-100409888D01*
X571124572Y-100469195D01*
X571138526Y-100529660D01*
X571149516Y-100591205D01*
X571157464Y-100653752D01*
X571162290Y-100717221D01*
X571163916Y-100781534D01*
X571162290Y-100845846D01*
X571157464Y-100909314D01*
X571149516Y-100971859D01*
X571138526Y-101033403D01*
X571124572Y-101093867D01*
X571107731Y-101153173D01*
X571088084Y-101211242D01*
X571065707Y-101267996D01*
X571040681Y-101323356D01*
X571013082Y-101377243D01*
X570982990Y-101429580D01*
X570950484Y-101480287D01*
X570915641Y-101529286D01*
X570878540Y-101576499D01*
X570839261Y-101621847D01*
X570797880Y-101665251D01*
X570754478Y-101706633D01*
X570709131Y-101745914D01*
X570661920Y-101783016D01*
X570612921Y-101817860D01*
X570562215Y-101850369D01*
X570509879Y-101880462D01*
X570455992Y-101908062D01*
X570400632Y-101933090D01*
X570343878Y-101955468D01*
X570285808Y-101975117D01*
X570226502Y-101991958D01*
X570166037Y-102005914D01*
X570104491Y-102016905D01*
X570041944Y-102024853D01*
X569978474Y-102029679D01*
X569914160Y-102031305D01*
X569849845Y-102029679D01*
X569786375Y-102024853D01*
X569723828Y-102016905D01*
X569662283Y-102005914D01*
X569601818Y-101991958D01*
X569542511Y-101975117D01*
X569484442Y-101955468D01*
X569427688Y-101933090D01*
X569372328Y-101908062D01*
X569318441Y-101880462D01*
X569266105Y-101850369D01*
X569215398Y-101817860D01*
X569166400Y-101783016D01*
X569119189Y-101745914D01*
X569073842Y-101706633D01*
X569030439Y-101665251D01*
X568989059Y-101621847D01*
X568949779Y-101576499D01*
X568912679Y-101529286D01*
X568877836Y-101480287D01*
X568845329Y-101429580D01*
X568815238Y-101377243D01*
X568787639Y-101323356D01*
X568762612Y-101267996D01*
X568740236Y-101211242D01*
X568720588Y-101153173D01*
X568703748Y-101093867D01*
X568689794Y-101033403D01*
X568678803Y-100971859D01*
X568670856Y-100909314D01*
X568666030Y-100845846D01*
X568664404Y-100781534D01*
X568666030Y-100717221D01*
X568670856Y-100653752D01*
X568678803Y-100591205D01*
X568689794Y-100529660D01*
X568703748Y-100469195D01*
X568720588Y-100409888D01*
X568740236Y-100351818D01*
X568762612Y-100295064D01*
X568787639Y-100239703D01*
X568815238Y-100185815D01*
X568845329Y-100133477D01*
X568877836Y-100082770D01*
X568912679Y-100033770D01*
X568949779Y-99986557D01*
X568989059Y-99941209D01*
X569030439Y-99897804D01*
X569073842Y-99856422D01*
X569119189Y-99817140D01*
X569166400Y-99780038D01*
X569215398Y-99745193D01*
X569266105Y-99712685D01*
X569318441Y-99682592D01*
X569372328Y-99654991D01*
X569427688Y-99629963D01*
X569484442Y-99607585D01*
X569542511Y-99587936D01*
X569601818Y-99571095D01*
X569662283Y-99557139D01*
X569723828Y-99546148D01*
X569786375Y-99538200D01*
X569849845Y-99533374D01*
X569914160Y-99531748D01*
X569978474Y-99533374D01*
D11*
G36*
X536970415Y-143235788D02*
G01*
X535720476Y-143219796D01*
X535720476Y-67287316D01*
X536970415Y-67271356D01*
X536970415Y-143235788D01*
G37*
G36*
X375059633Y-134323918D02*
G01*
X375170550Y-134333385D01*
X375280648Y-134348433D01*
X375389653Y-134369114D01*
X375497293Y-134395477D01*
X375603298Y-134427575D01*
X375707393Y-134465458D01*
X375809308Y-134509178D01*
X375908769Y-134558786D01*
X376005529Y-134614275D01*
X376099425Y-134675413D01*
X376190321Y-134741909D01*
X376278078Y-134813470D01*
X376362559Y-134889806D01*
X376443626Y-134970625D01*
X376521140Y-135055636D01*
X376594964Y-135144548D01*
X376664960Y-135237069D01*
X376730990Y-135332909D01*
X376850599Y-135533378D01*
X376952690Y-135743625D01*
X377036157Y-135961320D01*
X377070563Y-136072232D01*
X377099899Y-136184133D01*
X377124028Y-136296730D01*
X377142812Y-136409733D01*
X377156112Y-136522850D01*
X377163791Y-136635790D01*
X377165711Y-136748262D01*
X377161734Y-136859975D01*
X377151723Y-136970637D01*
X377135538Y-137079957D01*
X377113043Y-137187644D01*
X377084099Y-137293406D01*
X377048569Y-137396952D01*
X377006314Y-137497992D01*
X376957197Y-137596233D01*
X376901079Y-137691384D01*
X376855317Y-137791929D01*
X376803010Y-137888510D01*
X376744474Y-137981075D01*
X376680029Y-138069569D01*
X376609991Y-138153938D01*
X376534678Y-138234127D01*
X376454408Y-138310084D01*
X376369498Y-138381754D01*
X376280267Y-138449083D01*
X376187031Y-138512016D01*
X376090109Y-138570500D01*
X375989818Y-138624481D01*
X375780400Y-138718716D01*
X375561319Y-138794290D01*
X375335117Y-138850769D01*
X375104333Y-138887721D01*
X374871511Y-138904713D01*
X374639192Y-138901314D01*
X374409916Y-138877090D01*
X374297213Y-138857034D01*
X374186225Y-138831610D01*
X374077268Y-138800763D01*
X373970660Y-138764440D01*
X373866720Y-138722587D01*
X373765764Y-138675149D01*
X373668078Y-138622126D01*
X373573810Y-138563717D01*
X373483074Y-138500173D01*
X373395985Y-138431748D01*
X373312655Y-138358692D01*
X373233200Y-138281260D01*
X373157732Y-138199703D01*
X373086367Y-138114274D01*
X373019217Y-138025225D01*
X372956396Y-137932808D01*
X372898019Y-137837277D01*
X372844200Y-137738882D01*
X372795052Y-137637877D01*
X372750689Y-137534515D01*
X372711225Y-137429046D01*
X372676775Y-137321725D01*
X372647435Y-137212794D01*
X372623236Y-137102535D01*
X372604187Y-136991219D01*
X372590299Y-136879119D01*
X372581581Y-136766507D01*
X372578045Y-136653656D01*
X372579700Y-136540838D01*
X372586557Y-136428327D01*
X372598626Y-136316393D01*
X372615918Y-136205311D01*
X372638442Y-136095351D01*
X372666209Y-135986787D01*
X372699229Y-135879892D01*
X372737513Y-135774937D01*
X372781071Y-135672195D01*
X372829912Y-135571939D01*
X372884022Y-135474420D01*
X372943200Y-135379806D01*
X373007218Y-135288246D01*
X373075847Y-135199886D01*
X373148855Y-135114876D01*
X373226015Y-135033361D01*
X373307097Y-134955490D01*
X373391870Y-134881410D01*
X373480106Y-134811269D01*
X373571576Y-134745214D01*
X373666048Y-134683394D01*
X373763295Y-134625956D01*
X373863086Y-134573047D01*
X373965193Y-134524814D01*
X374069384Y-134481407D01*
X374175432Y-134442971D01*
X374283112Y-134409629D01*
X374392149Y-134381459D01*
X374502272Y-134358512D01*
X374613207Y-134340840D01*
X374724683Y-134328493D01*
X374836427Y-134321524D01*
X374948168Y-134319982D01*
X375059633Y-134323918D01*
G37*
D12*
X78457190Y-130251383D02*
X118585103Y-130650171D01*
X158705287Y-131048930D01*
X178760067Y-131248290D01*
X198810018Y-131447631D01*
X218854173Y-131646951D01*
X238891567Y-131846245D01*
X258921235Y-132045510D01*
X278942211Y-132244742D01*
X298953529Y-132443938D01*
X318954222Y-132643093D01*
X338943326Y-132842204D01*
X348933231Y-132941742D01*
X358919875Y-133041267D01*
X368903140Y-133140780D01*
X378882903Y-133240279D01*
X388859045Y-133339765D01*
X398831444Y-133439236D01*
X407961732Y-133530329D01*
X417088686Y-133621409D01*
X425959379Y-133709951D01*
X434826748Y-133798481D01*
X443463694Y-133884731D01*
X452097324Y-133970969D01*
X460522052Y-134055139D01*
X468943471Y-134139298D01*
X477174157Y-134221570D01*
X485401542Y-134303830D01*
X493453711Y-134384358D01*
X501502585Y-134464874D01*
X509389633Y-134543791D01*
X517273392Y-134622695D01*
X525006981Y-134700117D01*
X532737286Y-134777526D01*
X540327647Y-134853554D01*
X547914731Y-134929570D01*
X555370906Y-135004294D01*
X562823809Y-135079006D01*
X570153837Y-135152506D01*
X577480599Y-135225993D01*
X577880000Y-135230000D01*
D11*
G36*
X553595842Y-143448068D02*
G01*
X552345964Y-143432077D01*
X552345964Y-67074960D01*
X553595842Y-67059014D01*
X553595842Y-143448068D01*
G37*
D12*
X578030000Y-126660000D02*
X78554968Y-123109873D01*
D11*
G36*
X447458940Y-142092813D02*
G01*
X446209062Y-142076882D01*
X446209062Y-68430566D01*
X447458940Y-68414605D01*
X447458940Y-142092813D01*
G37*
G36*
X146315599Y-138247598D02*
G01*
X145065721Y-138231637D01*
X145065721Y-72276773D01*
X146315599Y-72260827D01*
X146315599Y-138247598D01*
G37*
D12*
X78545050Y-73140665D02*
X78688679Y-73138831D01*
X110044510Y-72738339D01*
X125720324Y-72538098D01*
X141393621Y-72337864D01*
X157063566Y-72137637D01*
X172729324Y-71937420D01*
X188390056Y-71737215D01*
X204044929Y-71537024D01*
X219693105Y-71336849D01*
X227514421Y-71236768D01*
X235333749Y-71136692D01*
X243150985Y-71036620D01*
X250966024Y-70936554D01*
X258778762Y-70836493D01*
X266589095Y-70736438D01*
X274396917Y-70636389D01*
X282202125Y-70536346D01*
X290004613Y-70436309D01*
X297804278Y-70336279D01*
X305601015Y-70236256D01*
X313394719Y-70136240D01*
X321185285Y-70036232D01*
X328972610Y-69936231D01*
X336756589Y-69836238D01*
X344537117Y-69736253D01*
X352314090Y-69636277D01*
X360087403Y-69536309D01*
X367856952Y-69436350D01*
X375622631Y-69336400D01*
X383384338Y-69236460D01*
X391141967Y-69136529D01*
X398895414Y-69036608D01*
X406644573Y-68936697D01*
X414389342Y-68836796D01*
X422129614Y-68736906D01*
X429865287Y-68637027D01*
X437596254Y-68537159D01*
X445322412Y-68437302D01*
X453043656Y-68337457D01*
X460759882Y-68237624D01*
X468470985Y-68137802D01*
X476176861Y-68037994D01*
X483877405Y-67938197D01*
X491572512Y-67838413D01*
X499262078Y-67738643D01*
X506945999Y-67638886D01*
X514624170Y-67539142D01*
X522296487Y-67439412D01*
X529962844Y-67339696D01*
X537623139Y-67239994D01*
X545277265Y-67140307D01*
X552925119Y-67040635D01*
X560566595Y-66940978D01*
X568201591Y-66841336D01*
X575830000Y-66741709D01*
D11*
G36*
X531816442Y-70067254D02*
G01*
X531890865Y-70071036D01*
X531965207Y-70078135D01*
X532039267Y-70088514D01*
X532112843Y-70102133D01*
X532185731Y-70118954D01*
X532257730Y-70138936D01*
X532328638Y-70162042D01*
X532398251Y-70188232D01*
X532466368Y-70217467D01*
X532532787Y-70249709D01*
X532597304Y-70284918D01*
X532659719Y-70323055D01*
X532719828Y-70364082D01*
X532777429Y-70407959D01*
X532832319Y-70454648D01*
X532884297Y-70504109D01*
X532933161Y-70556303D01*
X532978707Y-70611192D01*
X533020734Y-70668736D01*
X533059039Y-70728897D01*
X533093420Y-70791635D01*
X533123674Y-70856912D01*
X533159662Y-70919203D01*
X533191199Y-70983409D01*
X533218371Y-71049344D01*
X533241262Y-71116819D01*
X533259957Y-71185646D01*
X533274540Y-71255637D01*
X533285095Y-71326604D01*
X533291708Y-71398359D01*
X533294462Y-71470715D01*
X533293442Y-71543482D01*
X533288733Y-71616474D01*
X533280418Y-71689502D01*
X533268583Y-71762378D01*
X533253313Y-71834915D01*
X533234690Y-71906924D01*
X533212801Y-71978217D01*
X533187729Y-72048607D01*
X533159559Y-72117905D01*
X533128376Y-72185924D01*
X533094263Y-72252475D01*
X533057306Y-72317371D01*
X533017589Y-72380423D01*
X532975196Y-72441444D01*
X532930212Y-72500245D01*
X532882721Y-72556640D01*
X532832809Y-72610438D01*
X532780558Y-72661454D01*
X532726055Y-72709498D01*
X532669383Y-72754383D01*
X532610627Y-72795921D01*
X532549871Y-72833924D01*
X532487200Y-72868203D01*
X532422719Y-72898610D01*
X532356584Y-72925167D01*
X532288970Y-72947933D01*
X532220055Y-72966970D01*
X532150012Y-72982339D01*
X532079019Y-72994098D01*
X532007251Y-73002311D01*
X531934885Y-73007036D01*
X531862096Y-73008334D01*
X531789060Y-73006267D01*
X531715953Y-73000894D01*
X531642952Y-72992276D01*
X531570231Y-72980474D01*
X531497968Y-72965549D01*
X531426338Y-72947560D01*
X531355516Y-72926568D01*
X531285680Y-72902635D01*
X531217004Y-72875820D01*
X531149665Y-72846184D01*
X531083839Y-72813788D01*
X531019702Y-72778692D01*
X530957429Y-72740956D01*
X530897197Y-72700643D01*
X530839182Y-72657811D01*
X530783559Y-72612522D01*
X530730504Y-72564835D01*
X530680194Y-72514813D01*
X530632805Y-72462514D01*
X530588511Y-72408001D01*
X530547490Y-72351333D01*
X530509918Y-72292570D01*
X530475969Y-72231774D01*
X530445771Y-72169028D01*
X530419321Y-72104488D01*
X530396567Y-72038332D01*
X530377457Y-71970739D01*
X530361940Y-71901888D01*
X530349964Y-71831958D01*
X530341478Y-71761127D01*
X530336429Y-71689574D01*
X530334767Y-71617479D01*
X530336440Y-71545019D01*
X530341395Y-71472373D01*
X530349581Y-71399721D01*
X530360947Y-71327241D01*
X530375441Y-71255111D01*
X530393012Y-71183511D01*
X530413607Y-71112619D01*
X530437174Y-71042613D01*
X530463663Y-70973674D01*
X530493022Y-70905979D01*
X530525199Y-70839707D01*
X530560142Y-70775037D01*
X530597800Y-70712147D01*
X530638121Y-70651217D01*
X530681053Y-70592425D01*
X530726545Y-70535951D01*
X530774545Y-70481971D01*
X530825001Y-70430666D01*
X530877863Y-70382214D01*
X530933077Y-70336795D01*
X530990593Y-70294585D01*
X531050358Y-70255765D01*
X531112322Y-70220513D01*
X531176418Y-70188969D01*
X531242457Y-70161133D01*
X531310236Y-70136966D01*
X531379555Y-70116429D01*
X531450209Y-70099483D01*
X531521997Y-70086089D01*
X531594717Y-70076208D01*
X531668166Y-70069801D01*
X531742142Y-70066830D01*
X531816442Y-70067254D01*
G37*
D10*
X569978474Y-74135776D02*
X570041944Y-74140602D01*
X570104491Y-74148550D01*
X570166037Y-74159542D01*
X570226502Y-74173497D01*
X570285808Y-74190339D01*
X570343878Y-74209989D01*
X570400632Y-74232367D01*
X570455992Y-74257396D01*
X570509879Y-74284996D01*
X570562215Y-74315090D01*
X570612921Y-74347599D01*
X570661920Y-74382444D01*
X570709131Y-74419547D01*
X570754478Y-74458829D01*
X570797880Y-74500212D01*
X570839261Y-74543616D01*
X570878540Y-74588965D01*
X570915641Y-74636178D01*
X570950484Y-74685178D01*
X570982990Y-74735886D01*
X571013082Y-74788223D01*
X571040681Y-74842111D01*
X571065707Y-74897472D01*
X571088084Y-74954226D01*
X571107731Y-75012296D01*
X571124572Y-75071602D01*
X571138526Y-75132067D01*
X571149516Y-75193611D01*
X571157464Y-75256156D01*
X571162290Y-75319624D01*
X571163916Y-75383936D01*
X571162290Y-75448249D01*
X571157464Y-75511718D01*
X571149516Y-75574264D01*
X571138526Y-75635809D01*
X571124572Y-75696275D01*
X571107731Y-75755582D01*
X571088084Y-75813652D01*
X571065707Y-75870406D01*
X571040681Y-75925767D01*
X571013082Y-75979655D01*
X570982990Y-76031993D01*
X570950484Y-76082700D01*
X570915641Y-76131700D01*
X570878540Y-76178913D01*
X570839261Y-76224261D01*
X570797880Y-76267666D01*
X570754478Y-76309048D01*
X570709131Y-76348330D01*
X570661920Y-76385432D01*
X570612921Y-76420277D01*
X570562215Y-76452785D01*
X570509879Y-76482878D01*
X570455992Y-76510479D01*
X570400632Y-76535507D01*
X570343878Y-76557885D01*
X570285808Y-76577534D01*
X570226502Y-76594375D01*
X570166037Y-76608331D01*
X570104491Y-76619322D01*
X570041944Y-76627270D01*
X569978474Y-76632096D01*
X569914160Y-76633722D01*
X569849845Y-76632096D01*
X569786375Y-76627270D01*
X569723828Y-76619322D01*
X569662283Y-76608331D01*
X569601818Y-76594375D01*
X569542511Y-76577534D01*
X569484442Y-76557885D01*
X569427688Y-76535507D01*
X569372328Y-76510479D01*
X569318441Y-76482878D01*
X569266105Y-76452785D01*
X569215398Y-76420277D01*
X569166400Y-76385432D01*
X569119189Y-76348330D01*
X569073842Y-76309048D01*
X569030439Y-76267666D01*
X568989059Y-76224261D01*
X568949779Y-76178913D01*
X568912679Y-76131700D01*
X568877836Y-76082700D01*
X568845329Y-76031993D01*
X568815238Y-75979655D01*
X568787639Y-75925767D01*
X568762612Y-75870406D01*
X568740236Y-75813652D01*
X568720588Y-75755582D01*
X568703748Y-75696275D01*
X568689794Y-75635809D01*
X568678803Y-75574264D01*
X568670856Y-75511718D01*
X568666030Y-75448249D01*
X568664404Y-75383936D01*
X568666030Y-75319624D01*
X568670856Y-75256156D01*
X568678803Y-75193611D01*
X568689794Y-75132067D01*
X568703748Y-75071602D01*
X568720588Y-75012296D01*
X568740236Y-74954226D01*
X568762612Y-74897472D01*
X568787639Y-74842111D01*
X568815238Y-74788223D01*
X568845329Y-74735886D01*
X568877836Y-74685178D01*
X568912679Y-74636178D01*
X568949779Y-74588965D01*
X568989059Y-74543616D01*
X569030439Y-74500212D01*
X569073842Y-74458829D01*
X569119189Y-74419547D01*
X569166400Y-74382444D01*
X569215398Y-74347599D01*
X569266105Y-74315090D01*
X569318441Y-74284996D01*
X569372328Y-74257396D01*
X569427688Y-74232367D01*
X569484442Y-74209989D01*
X569542511Y-74190339D01*
X569601818Y-74173497D01*
X569662283Y-74159542D01*
X569723828Y-74148550D01*
X569786375Y-74140602D01*
X569849845Y-74135776D01*
X569914160Y-74134149D01*
X569978474Y-74135776D01*
D12*
X575910000Y-143790000D02*
X78359350Y-137394449D01*
D10*
X569978474Y-133890674D02*
X570041944Y-133895500D01*
X570104491Y-133903448D01*
X570166037Y-133914440D01*
X570226502Y-133928395D01*
X570285808Y-133945237D01*
X570343878Y-133964887D01*
X570400632Y-133987265D01*
X570455992Y-134012294D01*
X570509879Y-134039894D01*
X570562215Y-134069988D01*
X570612921Y-134102497D01*
X570661920Y-134137342D01*
X570709131Y-134174445D01*
X570754478Y-134213727D01*
X570797880Y-134255110D01*
X570839261Y-134298514D01*
X570878540Y-134343863D01*
X570915641Y-134391076D01*
X570950484Y-134440076D01*
X570982990Y-134490784D01*
X571013082Y-134543121D01*
X571040681Y-134597009D01*
X571065707Y-134652370D01*
X571088084Y-134709124D01*
X571107731Y-134767194D01*
X571124572Y-134826500D01*
X571138526Y-134886965D01*
X571149516Y-134948509D01*
X571157464Y-135011054D01*
X571162290Y-135074522D01*
X571163916Y-135138834D01*
X571162290Y-135203146D01*
X571157464Y-135266614D01*
X571149516Y-135329159D01*
X571138526Y-135390703D01*
X571124572Y-135451168D01*
X571107731Y-135510474D01*
X571088084Y-135568544D01*
X571065707Y-135625298D01*
X571040681Y-135680658D01*
X571013082Y-135734547D01*
X570982990Y-135786884D01*
X570950484Y-135837592D01*
X570915641Y-135886592D01*
X570878540Y-135933805D01*
X570839261Y-135979153D01*
X570797880Y-136022558D01*
X570754478Y-136063941D01*
X570709131Y-136103223D01*
X570661920Y-136140326D01*
X570612921Y-136175171D01*
X570562215Y-136207679D01*
X570509879Y-136237773D01*
X570455992Y-136265374D01*
X570400632Y-136290403D01*
X570343878Y-136312781D01*
X570285808Y-136332430D01*
X570226502Y-136349272D01*
X570166037Y-136363228D01*
X570104491Y-136374219D01*
X570041944Y-136382168D01*
X569978474Y-136386994D01*
X569914160Y-136388620D01*
X569849845Y-136386994D01*
X569786375Y-136382168D01*
X569723828Y-136374219D01*
X569662283Y-136363228D01*
X569601818Y-136349272D01*
X569542511Y-136332430D01*
X569484442Y-136312781D01*
X569427688Y-136290403D01*
X569372328Y-136265374D01*
X569318441Y-136237773D01*
X569266105Y-136207679D01*
X569215398Y-136175171D01*
X569166400Y-136140326D01*
X569119189Y-136103223D01*
X569073842Y-136063941D01*
X569030439Y-136022558D01*
X568989059Y-135979153D01*
X568949779Y-135933805D01*
X568912679Y-135886592D01*
X568877836Y-135837592D01*
X568845329Y-135786884D01*
X568815238Y-135734547D01*
X568787639Y-135680658D01*
X568762612Y-135625298D01*
X568740236Y-135568544D01*
X568720588Y-135510474D01*
X568703748Y-135451168D01*
X568689794Y-135390703D01*
X568678803Y-135329159D01*
X568670856Y-135266614D01*
X568666030Y-135203146D01*
X568664404Y-135138834D01*
X568666030Y-135074522D01*
X568670856Y-135011054D01*
X568678803Y-134948509D01*
X568689794Y-134886965D01*
X568703748Y-134826500D01*
X568720588Y-134767194D01*
X568740236Y-134709124D01*
X568762612Y-134652370D01*
X568787639Y-134597009D01*
X568815238Y-134543121D01*
X568845329Y-134490784D01*
X568877836Y-134440076D01*
X568912679Y-134391076D01*
X568949779Y-134343863D01*
X568989059Y-134298514D01*
X569030439Y-134255110D01*
X569073842Y-134213727D01*
X569119189Y-134174445D01*
X569166400Y-134137342D01*
X569215398Y-134102497D01*
X569266105Y-134069988D01*
X569318441Y-134039894D01*
X569372328Y-134012294D01*
X569427688Y-133987265D01*
X569484442Y-133964887D01*
X569542511Y-133945237D01*
X569601818Y-133928395D01*
X569662283Y-133914440D01*
X569723828Y-133903448D01*
X569786375Y-133895500D01*
X569849845Y-133890674D01*
X569914160Y-133889048D01*
X569978474Y-133890674D01*
X569978474Y-108069781D02*
X570041944Y-108074608D01*
X570104491Y-108082556D01*
X570166037Y-108093547D01*
X570226502Y-108107503D01*
X570285808Y-108124345D01*
X570343878Y-108143994D01*
X570400632Y-108166373D01*
X570455992Y-108191401D01*
X570509879Y-108219002D01*
X570562215Y-108249096D01*
X570612921Y-108281605D01*
X570661920Y-108316450D01*
X570709131Y-108353553D01*
X570754478Y-108392835D01*
X570797880Y-108434217D01*
X570839261Y-108477622D01*
X570878540Y-108522970D01*
X570915641Y-108570184D01*
X570950484Y-108619184D01*
X570982990Y-108669892D01*
X571013082Y-108722229D01*
X571040681Y-108776117D01*
X571065707Y-108831478D01*
X571088084Y-108888232D01*
X571107731Y-108946301D01*
X571124572Y-109005608D01*
X571138526Y-109066072D01*
X571149516Y-109127616D01*
X571157464Y-109190162D01*
X571162290Y-109253630D01*
X571163916Y-109317942D01*
X571162290Y-109382255D01*
X571157464Y-109445724D01*
X571149516Y-109508270D01*
X571138526Y-109569815D01*
X571124572Y-109630280D01*
X571107731Y-109689587D01*
X571088084Y-109747657D01*
X571065707Y-109804412D01*
X571040681Y-109859773D01*
X571013082Y-109913661D01*
X570982990Y-109965998D01*
X570950484Y-110016706D01*
X570915641Y-110065706D01*
X570878540Y-110112919D01*
X570839261Y-110158267D01*
X570797880Y-110201671D01*
X570754478Y-110243054D01*
X570709131Y-110282335D01*
X570661920Y-110319438D01*
X570612921Y-110354282D01*
X570562215Y-110386791D01*
X570509879Y-110416884D01*
X570455992Y-110444484D01*
X570400632Y-110469513D01*
X570343878Y-110491890D01*
X570285808Y-110511539D01*
X570226502Y-110528381D01*
X570166037Y-110542336D01*
X570104491Y-110553327D01*
X570041944Y-110561275D01*
X569978474Y-110566102D01*
X569914160Y-110567728D01*
X569849845Y-110566102D01*
X569786375Y-110561275D01*
X569723828Y-110553327D01*
X569662283Y-110542336D01*
X569601818Y-110528381D01*
X569542511Y-110511539D01*
X569484442Y-110491890D01*
X569427688Y-110469513D01*
X569372328Y-110444484D01*
X569318441Y-110416884D01*
X569266105Y-110386791D01*
X569215398Y-110354282D01*
X569166400Y-110319438D01*
X569119189Y-110282335D01*
X569073842Y-110243054D01*
X569030439Y-110201671D01*
X568989059Y-110158267D01*
X568949779Y-110112919D01*
X568912679Y-110065706D01*
X568877836Y-110016706D01*
X568845329Y-109965998D01*
X568815238Y-109913661D01*
X568787639Y-109859773D01*
X568762612Y-109804412D01*
X568740236Y-109747657D01*
X568720588Y-109689587D01*
X568703748Y-109630280D01*
X568689794Y-109569815D01*
X568678803Y-109508270D01*
X568670856Y-109445724D01*
X568666030Y-109382255D01*
X568664404Y-109317942D01*
X568666030Y-109253630D01*
X568670856Y-109190162D01*
X568678803Y-109127616D01*
X568689794Y-109066072D01*
X568703748Y-109005608D01*
X568720588Y-108946301D01*
X568740236Y-108888232D01*
X568762612Y-108831478D01*
X568787639Y-108776117D01*
X568815238Y-108722229D01*
X568845329Y-108669892D01*
X568877836Y-108619184D01*
X568912679Y-108570184D01*
X568949779Y-108522970D01*
X568989059Y-108477622D01*
X569030439Y-108434217D01*
X569073842Y-108392835D01*
X569119189Y-108353553D01*
X569166400Y-108316450D01*
X569215398Y-108281605D01*
X569266105Y-108249096D01*
X569318441Y-108219002D01*
X569372328Y-108191401D01*
X569427688Y-108166373D01*
X569484442Y-108143994D01*
X569542511Y-108124345D01*
X569601818Y-108107503D01*
X569662283Y-108093547D01*
X569723828Y-108082556D01*
X569786375Y-108074608D01*
X569849845Y-108069781D01*
X569914160Y-108068155D01*
X569978474Y-108069781D01*
D11*
G36*
X533416826Y-96586846D02*
G01*
X533416826Y-113926400D01*
X529761614Y-118379602D01*
X529761614Y-92133630D01*
X533416826Y-96586846D01*
G37*
G36*
X258344561Y-139678079D02*
G01*
X257094652Y-139662118D01*
X257094652Y-70845925D01*
X258344561Y-70829980D01*
X258344561Y-139678079D01*
G37*
G36*
X473850176Y-142429818D02*
G01*
X472600359Y-142413858D01*
X472600359Y-68093499D01*
X473850176Y-68077523D01*
X473850176Y-142429818D01*
G37*
G36*
X455195269Y-100849664D02*
G01*
X455195269Y-108934823D01*
X451540056Y-111011285D01*
X451540056Y-98773233D01*
X455195269Y-100849664D01*
G37*
G36*
X282535356Y-139986978D02*
G01*
X281285478Y-139970987D01*
X281285478Y-70536981D01*
X282535356Y-70521005D01*
X282535356Y-139986978D01*
G37*
D12*
X79594771Y-137410304D02*
X74845229Y-137349696D01*
D10*
X569978474Y-65634647D02*
X570041944Y-65639473D01*
X570104491Y-65647421D01*
X570166037Y-65658412D01*
X570226502Y-65672368D01*
X570285808Y-65689210D01*
X570343878Y-65708859D01*
X570400632Y-65731238D01*
X570455992Y-65756267D01*
X570509879Y-65783867D01*
X570562215Y-65813961D01*
X570612921Y-65846470D01*
X570661920Y-65881315D01*
X570709131Y-65918418D01*
X570754478Y-65957700D01*
X570797880Y-65999082D01*
X570839261Y-66042487D01*
X570878540Y-66087836D01*
X570915641Y-66135049D01*
X570950484Y-66184049D01*
X570982990Y-66234757D01*
X571013082Y-66287094D01*
X571040681Y-66340982D01*
X571065707Y-66396343D01*
X571088084Y-66453097D01*
X571107731Y-66511167D01*
X571124572Y-66570473D01*
X571138526Y-66630937D01*
X571149516Y-66692482D01*
X571157464Y-66755027D01*
X571162290Y-66818495D01*
X571163916Y-66882807D01*
X571162290Y-66947120D01*
X571157464Y-67010589D01*
X571149516Y-67073135D01*
X571138526Y-67134680D01*
X571124572Y-67195146D01*
X571107731Y-67254452D01*
X571088084Y-67312522D01*
X571065707Y-67369277D01*
X571040681Y-67424638D01*
X571013082Y-67478526D01*
X570982990Y-67530863D01*
X570950484Y-67581571D01*
X570915641Y-67630571D01*
X570878540Y-67677784D01*
X570839261Y-67723132D01*
X570797880Y-67766537D01*
X570754478Y-67807919D01*
X570709131Y-67847200D01*
X570661920Y-67884303D01*
X570612921Y-67919147D01*
X570562215Y-67951656D01*
X570509879Y-67981749D01*
X570455992Y-68009349D01*
X570400632Y-68034378D01*
X570343878Y-68056756D01*
X570285808Y-68076405D01*
X570226502Y-68093246D01*
X570166037Y-68107202D01*
X570104491Y-68118193D01*
X570041944Y-68126140D01*
X569978474Y-68130967D01*
X569914160Y-68132593D01*
X569849845Y-68130967D01*
X569786375Y-68126140D01*
X569723828Y-68118193D01*
X569662283Y-68107202D01*
X569601818Y-68093246D01*
X569542511Y-68076405D01*
X569484442Y-68056756D01*
X569427688Y-68034378D01*
X569372328Y-68009349D01*
X569318441Y-67981749D01*
X569266105Y-67951656D01*
X569215398Y-67919147D01*
X569166400Y-67884303D01*
X569119189Y-67847200D01*
X569073842Y-67807919D01*
X569030439Y-67766537D01*
X568989059Y-67723132D01*
X568949779Y-67677784D01*
X568912679Y-67630571D01*
X568877836Y-67581571D01*
X568845329Y-67530863D01*
X568815238Y-67478526D01*
X568787639Y-67424638D01*
X568762612Y-67369277D01*
X568740236Y-67312522D01*
X568720588Y-67254452D01*
X568703748Y-67195146D01*
X568689794Y-67134680D01*
X568678803Y-67073135D01*
X568670856Y-67010589D01*
X568666030Y-66947120D01*
X568664404Y-66882807D01*
X568666030Y-66818495D01*
X568670856Y-66755027D01*
X568678803Y-66692482D01*
X568689794Y-66630937D01*
X568703748Y-66570473D01*
X568720588Y-66511167D01*
X568740236Y-66453097D01*
X568762612Y-66396343D01*
X568787639Y-66340982D01*
X568815238Y-66287094D01*
X568845329Y-66234757D01*
X568877836Y-66184049D01*
X568912679Y-66135049D01*
X568949779Y-66087836D01*
X568989059Y-66042487D01*
X569030439Y-65999082D01*
X569073842Y-65957700D01*
X569119189Y-65918418D01*
X569166400Y-65881315D01*
X569215398Y-65846470D01*
X569266105Y-65813961D01*
X569318441Y-65783867D01*
X569372328Y-65756267D01*
X569427688Y-65731238D01*
X569484442Y-65708859D01*
X569542511Y-65689210D01*
X569601818Y-65672368D01*
X569662283Y-65658412D01*
X569723828Y-65647421D01*
X569786375Y-65639473D01*
X569849845Y-65634647D01*
X569914160Y-65633020D01*
X569978474Y-65634647D01*
D11*
G36*
X545523149Y-143344979D02*
G01*
X544273271Y-143329019D01*
X544273271Y-67178094D01*
X545523149Y-67162118D01*
X545523149Y-143344979D01*
G37*
G36*
X531901379Y-137110971D02*
G01*
X531973742Y-137115771D01*
X532045502Y-137124057D01*
X532116484Y-137135891D01*
X532186513Y-137151332D01*
X532255411Y-137170440D01*
X532323004Y-137193276D01*
X532389116Y-137219901D01*
X532453569Y-137250375D01*
X532516199Y-137284719D01*
X532576910Y-137322785D01*
X532635619Y-137364384D01*
X532692240Y-137409327D01*
X532746691Y-137457428D01*
X532798885Y-137508498D01*
X532848740Y-137562348D01*
X532896170Y-137618792D01*
X532941092Y-137677640D01*
X532983421Y-137738705D01*
X533059962Y-137866733D01*
X533125119Y-138001371D01*
X533178217Y-138141114D01*
X533200033Y-138212431D01*
X533218581Y-138284459D01*
X533233777Y-138357012D01*
X533245537Y-138429901D01*
X533253776Y-138502939D01*
X533258409Y-138575936D01*
X533259354Y-138648705D01*
X533256524Y-138721058D01*
X533249836Y-138792807D01*
X533239206Y-138863764D01*
X533224549Y-138933740D01*
X533205780Y-139002549D01*
X533182816Y-139070001D01*
X533155572Y-139135908D01*
X533123964Y-139200083D01*
X533087908Y-139262338D01*
X533057591Y-139327584D01*
X533023149Y-139390287D01*
X532984785Y-139450408D01*
X532942702Y-139507908D01*
X532897100Y-139562749D01*
X532848184Y-139614892D01*
X532796155Y-139664299D01*
X532741216Y-139710930D01*
X532683569Y-139754746D01*
X532623417Y-139795709D01*
X532560962Y-139833781D01*
X532496407Y-139868922D01*
X532429953Y-139901094D01*
X532361805Y-139930257D01*
X532221231Y-139979406D01*
X532076305Y-140016056D01*
X531928647Y-140039900D01*
X531779875Y-140050626D01*
X531631610Y-140047925D01*
X531558173Y-140041442D01*
X531485471Y-140031486D01*
X531413704Y-140018018D01*
X531343077Y-140001000D01*
X531273791Y-139980392D01*
X531206049Y-139956157D01*
X531140053Y-139928254D01*
X531076006Y-139896646D01*
X531014073Y-139861326D01*
X530954341Y-139822442D01*
X530896864Y-139780170D01*
X530841691Y-139734691D01*
X530788874Y-139686182D01*
X530738465Y-139634822D01*
X530690515Y-139580792D01*
X530645076Y-139524268D01*
X530602199Y-139465430D01*
X530561935Y-139404457D01*
X530489455Y-139276820D01*
X530428047Y-139142787D01*
X530378122Y-139003789D01*
X530340093Y-138861256D01*
X530314371Y-138716618D01*
X530301368Y-138571305D01*
X530299765Y-138498843D01*
X530301495Y-138426748D01*
X530306612Y-138355200D01*
X530315165Y-138284377D01*
X530327207Y-138214458D01*
X530342789Y-138145622D01*
X530361962Y-138078048D01*
X530384778Y-138011914D01*
X530411289Y-137947399D01*
X530441545Y-137884683D01*
X530475572Y-137823926D01*
X530513220Y-137765206D01*
X530554312Y-137708584D01*
X530598673Y-137654119D01*
X530646127Y-137601873D01*
X530696497Y-137551905D01*
X530749609Y-137504276D01*
X530805285Y-137459047D01*
X530923630Y-137376027D01*
X531050122Y-137303330D01*
X531183357Y-137241438D01*
X531321924Y-137190835D01*
X531464418Y-137152004D01*
X531609430Y-137125427D01*
X531755553Y-137111588D01*
X531828591Y-137109597D01*
X531901379Y-137110971D01*
G37*
G36*
X221819414Y-100646752D02*
G01*
X221819414Y-108731881D01*
X214509142Y-110808343D01*
X214509142Y-98570260D01*
X221819414Y-100646752D01*
G37*
G36*
X205561998Y-139004129D02*
G01*
X204312120Y-138988168D01*
X204312120Y-71520089D01*
X205561998Y-71504113D01*
X205561998Y-139004129D01*
G37*
D10*
X569978474Y-116817844D02*
X570041944Y-116822670D01*
X570104491Y-116830618D01*
X570166037Y-116841609D01*
X570226502Y-116855564D01*
X570285808Y-116872406D01*
X570343878Y-116892055D01*
X570400632Y-116914433D01*
X570455992Y-116939461D01*
X570509879Y-116967061D01*
X570562215Y-116997155D01*
X570612921Y-117029663D01*
X570661920Y-117064508D01*
X570709131Y-117101610D01*
X570754478Y-117140891D01*
X570797880Y-117182274D01*
X570839261Y-117225678D01*
X570878540Y-117271026D01*
X570915641Y-117318239D01*
X570950484Y-117367239D01*
X570982990Y-117417947D01*
X571013082Y-117470284D01*
X571040681Y-117524173D01*
X571065707Y-117579533D01*
X571088084Y-117636288D01*
X571107731Y-117694358D01*
X571124572Y-117753665D01*
X571138526Y-117814130D01*
X571149516Y-117875675D01*
X571157464Y-117938221D01*
X571162290Y-118001690D01*
X571163916Y-118066004D01*
X571162290Y-118130316D01*
X571157464Y-118193783D01*
X571149516Y-118256328D01*
X571138526Y-118317872D01*
X571124572Y-118378336D01*
X571107731Y-118437642D01*
X571088084Y-118495712D01*
X571065707Y-118552465D01*
X571040681Y-118607825D01*
X571013082Y-118661713D01*
X570982990Y-118714049D01*
X570950484Y-118764757D01*
X570915641Y-118813756D01*
X570878540Y-118860969D01*
X570839261Y-118906316D01*
X570797880Y-118949720D01*
X570754478Y-118991102D01*
X570709131Y-119030383D01*
X570661920Y-119067486D01*
X570612921Y-119102330D01*
X570562215Y-119134838D01*
X570509879Y-119164931D01*
X570455992Y-119192532D01*
X570400632Y-119217560D01*
X570343878Y-119239938D01*
X570285808Y-119259586D01*
X570226502Y-119276428D01*
X570166037Y-119290383D01*
X570104491Y-119301374D01*
X570041944Y-119309322D01*
X569978474Y-119314149D01*
X569914160Y-119315775D01*
X569849845Y-119314149D01*
X569786375Y-119309322D01*
X569723828Y-119301374D01*
X569662283Y-119290383D01*
X569601818Y-119276428D01*
X569542511Y-119259586D01*
X569484442Y-119239938D01*
X569427688Y-119217560D01*
X569372328Y-119192532D01*
X569318441Y-119164931D01*
X569266105Y-119134838D01*
X569215398Y-119102330D01*
X569166400Y-119067486D01*
X569119189Y-119030383D01*
X569073842Y-118991102D01*
X569030439Y-118949720D01*
X568989059Y-118906316D01*
X568949779Y-118860969D01*
X568912679Y-118813756D01*
X568877836Y-118764757D01*
X568845329Y-118714049D01*
X568815238Y-118661713D01*
X568787639Y-118607825D01*
X568762612Y-118552465D01*
X568740236Y-118495712D01*
X568720588Y-118437642D01*
X568703748Y-118378336D01*
X568689794Y-118317872D01*
X568678803Y-118256328D01*
X568670856Y-118193783D01*
X568666030Y-118130316D01*
X568664404Y-118066004D01*
X568666030Y-118001690D01*
X568670856Y-117938221D01*
X568678803Y-117875675D01*
X568689794Y-117814130D01*
X568703748Y-117753665D01*
X568720588Y-117694358D01*
X568740236Y-117636288D01*
X568762612Y-117579533D01*
X568787639Y-117524173D01*
X568815238Y-117470284D01*
X568845329Y-117417947D01*
X568877836Y-117367239D01*
X568912679Y-117318239D01*
X568949779Y-117271026D01*
X568989059Y-117225678D01*
X569030439Y-117182274D01*
X569073842Y-117140891D01*
X569119189Y-117101610D01*
X569166400Y-117064508D01*
X569215398Y-117029663D01*
X569266105Y-116997155D01*
X569318441Y-116967061D01*
X569372328Y-116939461D01*
X569427688Y-116914433D01*
X569484442Y-116892055D01*
X569542511Y-116872406D01*
X569601818Y-116855564D01*
X569662283Y-116841609D01*
X569723828Y-116830618D01*
X569786375Y-116822670D01*
X569849845Y-116817844D01*
X569914160Y-116816217D01*
X569978474Y-116817844D01*
D11*
G36*
X461035601Y-142266183D02*
G01*
X459785662Y-142250222D01*
X459785662Y-68257150D01*
X461035601Y-68241189D01*
X461035601Y-142266183D01*
G37*
G36*
X79438799Y-137393655D02*
G01*
X78188921Y-137377725D01*
X78188921Y-73114984D01*
X79438799Y-73114984D01*
X79438799Y-137393655D01*
G37*
G36*
X485945635Y-142584237D02*
G01*
X484695696Y-142568277D01*
X484695696Y-67939004D01*
X485945635Y-67923043D01*
X485945635Y-142584237D01*
G37*
G36*
X326920000Y-140553689D02*
G01*
X325670122Y-140537759D01*
X325670122Y-69970102D01*
X326920000Y-69954126D01*
X326920000Y-140553689D01*
G37*
D10*
X569978474Y-125354266D02*
X570041944Y-125359092D01*
X570104491Y-125367040D01*
X570166037Y-125378031D01*
X570226502Y-125391986D01*
X570285808Y-125408827D01*
X570343878Y-125428476D01*
X570400632Y-125450853D01*
X570455992Y-125475881D01*
X570509879Y-125503481D01*
X570562215Y-125533574D01*
X570612921Y-125566082D01*
X570661920Y-125600926D01*
X570709131Y-125638028D01*
X570754478Y-125677309D01*
X570797880Y-125718691D01*
X570839261Y-125762095D01*
X570878540Y-125807443D01*
X570915641Y-125854656D01*
X570950484Y-125903655D01*
X570982990Y-125954363D01*
X571013082Y-126006700D01*
X571040681Y-126060589D01*
X571065707Y-126115950D01*
X571088084Y-126172704D01*
X571107731Y-126230775D01*
X571124572Y-126290082D01*
X571138526Y-126350548D01*
X571149516Y-126412094D01*
X571157464Y-126474642D01*
X571162290Y-126538112D01*
X571163916Y-126602426D01*
X571162290Y-126666738D01*
X571157464Y-126730206D01*
X571149516Y-126792751D01*
X571138526Y-126854294D01*
X571124572Y-126914758D01*
X571107731Y-126974064D01*
X571088084Y-127032132D01*
X571065707Y-127088886D01*
X571040681Y-127144245D01*
X571013082Y-127198132D01*
X570982990Y-127250468D01*
X570950484Y-127301175D01*
X570915641Y-127350173D01*
X570878540Y-127397385D01*
X570839261Y-127442732D01*
X570797880Y-127486135D01*
X570754478Y-127527517D01*
X570709131Y-127566797D01*
X570661920Y-127603899D01*
X570612921Y-127638742D01*
X570562215Y-127671250D01*
X570509879Y-127701342D01*
X570455992Y-127728942D01*
X570400632Y-127753970D01*
X570343878Y-127776347D01*
X570285808Y-127795995D01*
X570226502Y-127812836D01*
X570166037Y-127826791D01*
X570104491Y-127837782D01*
X570041944Y-127845730D01*
X569978474Y-127850556D01*
X569914160Y-127852182D01*
X569849845Y-127850556D01*
X569786375Y-127845730D01*
X569723828Y-127837782D01*
X569662283Y-127826791D01*
X569601818Y-127812836D01*
X569542511Y-127795995D01*
X569484442Y-127776347D01*
X569427688Y-127753970D01*
X569372328Y-127728942D01*
X569318441Y-127701342D01*
X569266105Y-127671250D01*
X569215398Y-127638742D01*
X569166400Y-127603899D01*
X569119189Y-127566797D01*
X569073842Y-127527517D01*
X569030439Y-127486135D01*
X568989059Y-127442732D01*
X568949779Y-127397385D01*
X568912679Y-127350173D01*
X568877836Y-127301175D01*
X568845329Y-127250468D01*
X568815238Y-127198132D01*
X568787639Y-127144245D01*
X568762612Y-127088886D01*
X568740236Y-127032132D01*
X568720588Y-126974064D01*
X568703748Y-126914758D01*
X568689794Y-126854294D01*
X568678803Y-126792751D01*
X568670856Y-126730206D01*
X568666030Y-126666738D01*
X568664404Y-126602426D01*
X568666030Y-126538112D01*
X568670856Y-126474642D01*
X568678803Y-126412094D01*
X568689794Y-126350548D01*
X568703748Y-126290082D01*
X568720588Y-126230775D01*
X568740236Y-126172704D01*
X568762612Y-126115950D01*
X568787639Y-126060589D01*
X568815238Y-126006700D01*
X568845329Y-125954363D01*
X568877836Y-125903655D01*
X568912679Y-125854656D01*
X568949779Y-125807443D01*
X568989059Y-125762095D01*
X569030439Y-125718691D01*
X569073842Y-125677309D01*
X569119189Y-125638028D01*
X569166400Y-125600926D01*
X569215398Y-125566082D01*
X569266105Y-125533574D01*
X569318441Y-125503481D01*
X569372328Y-125475881D01*
X569427688Y-125450853D01*
X569484442Y-125428476D01*
X569542511Y-125408827D01*
X569601818Y-125391986D01*
X569662283Y-125378031D01*
X569723828Y-125367040D01*
X569786375Y-125359092D01*
X569849845Y-125354266D01*
X569914160Y-125352640D01*
X569978474Y-125354266D01*
D11*
G36*
X75939135Y-137348977D02*
G01*
X74689257Y-137333047D01*
X74689257Y-73114984D01*
X75939135Y-73114984D01*
X75939135Y-137348977D01*
G37*
D10*
X569978474Y-91208621D02*
X570041944Y-91213447D01*
X570104491Y-91221395D01*
X570166037Y-91232386D01*
X570226502Y-91246342D01*
X570285808Y-91263183D01*
X570343878Y-91282832D01*
X570400632Y-91305210D01*
X570455992Y-91330238D01*
X570509879Y-91357838D01*
X570562215Y-91387932D01*
X570612921Y-91420440D01*
X570661920Y-91455284D01*
X570709131Y-91492386D01*
X570754478Y-91531667D01*
X570797880Y-91573049D01*
X570839261Y-91616453D01*
X570878540Y-91661801D01*
X570915641Y-91709014D01*
X570950484Y-91758013D01*
X570982990Y-91808720D01*
X571013082Y-91861057D01*
X571040681Y-91914944D01*
X571065707Y-91970304D01*
X571088084Y-92027058D01*
X571107731Y-92085127D01*
X571124572Y-92144433D01*
X571138526Y-92204897D01*
X571149516Y-92266441D01*
X571157464Y-92328986D01*
X571162290Y-92392454D01*
X571163916Y-92456766D01*
X571162290Y-92521079D01*
X571157464Y-92584548D01*
X571149516Y-92647095D01*
X571138526Y-92708640D01*
X571124572Y-92769105D01*
X571107731Y-92828412D01*
X571088084Y-92886482D01*
X571065707Y-92943236D01*
X571040681Y-92998597D01*
X571013082Y-93052485D01*
X570982990Y-93104823D01*
X570950484Y-93155531D01*
X570915641Y-93204530D01*
X570878540Y-93251743D01*
X570839261Y-93297092D01*
X570797880Y-93340496D01*
X570754478Y-93381878D01*
X570709131Y-93421160D01*
X570661920Y-93458262D01*
X570612921Y-93493107D01*
X570562215Y-93525615D01*
X570509879Y-93555709D01*
X570455992Y-93583309D01*
X570400632Y-93608337D01*
X570343878Y-93630715D01*
X570285808Y-93650364D01*
X570226502Y-93667205D01*
X570166037Y-93681161D01*
X570104491Y-93692152D01*
X570041944Y-93700100D01*
X569978474Y-93704926D01*
X569914160Y-93706552D01*
X569849845Y-93704926D01*
X569786375Y-93700100D01*
X569723828Y-93692152D01*
X569662283Y-93681161D01*
X569601818Y-93667205D01*
X569542511Y-93650364D01*
X569484442Y-93630715D01*
X569427688Y-93608337D01*
X569372328Y-93583309D01*
X569318441Y-93555709D01*
X569266105Y-93525615D01*
X569215398Y-93493107D01*
X569166400Y-93458262D01*
X569119189Y-93421160D01*
X569073842Y-93381878D01*
X569030439Y-93340496D01*
X568989059Y-93297092D01*
X568949779Y-93251743D01*
X568912679Y-93204530D01*
X568877836Y-93155531D01*
X568845329Y-93104823D01*
X568815238Y-93052485D01*
X568787639Y-92998597D01*
X568762612Y-92943236D01*
X568740236Y-92886482D01*
X568720588Y-92828412D01*
X568703748Y-92769105D01*
X568689794Y-92708640D01*
X568678803Y-92647095D01*
X568670856Y-92584548D01*
X568666030Y-92521079D01*
X568664404Y-92456766D01*
X568666030Y-92392454D01*
X568670856Y-92328986D01*
X568678803Y-92266441D01*
X568689794Y-92204897D01*
X568703748Y-92144433D01*
X568720588Y-92085127D01*
X568740236Y-92027058D01*
X568762612Y-91970304D01*
X568787639Y-91914944D01*
X568815238Y-91861057D01*
X568845329Y-91808720D01*
X568877836Y-91758013D01*
X568912679Y-91709014D01*
X568949779Y-91661801D01*
X568989059Y-91616453D01*
X569030439Y-91573049D01*
X569073842Y-91531667D01*
X569119189Y-91492386D01*
X569166400Y-91455284D01*
X569215398Y-91420440D01*
X569266105Y-91387932D01*
X569318441Y-91357838D01*
X569372328Y-91330238D01*
X569427688Y-91305210D01*
X569484442Y-91282832D01*
X569542511Y-91263183D01*
X569601818Y-91246342D01*
X569662283Y-91232386D01*
X569723828Y-91221395D01*
X569786375Y-91213447D01*
X569849845Y-91208621D01*
X569914160Y-91206995D01*
X569978474Y-91208621D01*
D12*
X79620000Y-73114984D02*
X74870458Y-73175592D01*
D11*
G36*
X114024736Y-137835305D02*
G01*
X112774828Y-137819345D01*
X112774828Y-72689202D01*
X114024736Y-72673257D01*
X114024736Y-137835305D01*
G37*
D13*
%TO.C,J9*%
X27818600Y-89125312D02*
G75*
G02*
X27056600Y-89125312I-381000J0D01*
G01*
X27056600Y-89125312D02*
G75*
G02*
X27818600Y-89125312I381000J0D01*
G01*
%TO.C,J7*%
X38914800Y-103149912D02*
G75*
G02*
X38152800Y-103149912I-381000J0D01*
G01*
X38152800Y-103149912D02*
G75*
G02*
X38914800Y-103149912I381000J0D01*
G01*
%TO.C,J10*%
X47414124Y-82600000D02*
G75*
G02*
X46652124Y-82600000I-381000J0D01*
G01*
X46652124Y-82600000D02*
G75*
G02*
X47414124Y-82600000I381000J0D01*
G01*
%TO.C,J5*%
X46328600Y-109925312D02*
G75*
G02*
X45566600Y-109925312I-381000J0D01*
G01*
X45566600Y-109925312D02*
G75*
G02*
X46328600Y-109925312I381000J0D01*
G01*
%TO.C,J4*%
X33714800Y-120349912D02*
G75*
G02*
X32952800Y-120349912I-381000J0D01*
G01*
X32952800Y-120349912D02*
G75*
G02*
X33714800Y-120349912I381000J0D01*
G01*
%TO.C,J2*%
X36740200Y-136920000D02*
G75*
G02*
X35978200Y-136920000I-381000J0D01*
G01*
X35978200Y-136920000D02*
G75*
G02*
X36740200Y-136920000I381000J0D01*
G01*
%TO.C,J8*%
X51218600Y-96325312D02*
G75*
G02*
X50456600Y-96325312I-381000J0D01*
G01*
X50456600Y-96325312D02*
G75*
G02*
X51218600Y-96325312I381000J0D01*
G01*
%TO.C,J6*%
X54800200Y-110600000D02*
G75*
G02*
X54038200Y-110600000I-381000J0D01*
G01*
X54038200Y-110600000D02*
G75*
G02*
X54800200Y-110600000I381000J0D01*
G01*
%TO.C,J1*%
X33900200Y-131800000D02*
G75*
G02*
X33138200Y-131800000I-381000J0D01*
G01*
X33138200Y-131800000D02*
G75*
G02*
X33900200Y-131800000I381000J0D01*
G01*
%TD*%
%LPC*%
%TO.C,J3*%
D14*
X7505500Y-90200000D02*
G75*
G02*
X6944500Y-90200000I-280500J0D01*
G01*
X6944500Y-90200000D02*
G75*
G02*
X7505500Y-90200000I280500J0D01*
G01*
X13855500Y-90200000D02*
G75*
G02*
X13294500Y-90200000I-280500J0D01*
G01*
X13294500Y-90200000D02*
G75*
G02*
X13855500Y-90200000I280500J0D01*
G01*
%TD*%
D15*
%TO.C,J17*%
X11215000Y-75210000D03*
D16*
X11215000Y-72670000D03*
%TD*%
D15*
%TO.C,J16*%
X4400000Y-77290000D03*
D16*
X4400000Y-74750000D03*
%TD*%
D15*
%TO.C,J15*%
X3700000Y-83740000D03*
D16*
X3700000Y-86280000D03*
%TD*%
D15*
%TO.C,J14*%
X3640000Y-101480000D03*
D16*
X3640000Y-98940000D03*
X3640000Y-96400000D03*
X3640000Y-93860000D03*
X3640000Y-91320000D03*
%TD*%
D17*
%TO.C,H13*%
X572610000Y-105150000D03*
%TD*%
D18*
%TO.C,J12*%
X11800000Y-134000000D03*
D19*
X13800000Y-134000000D03*
X15800000Y-134000000D03*
X17800000Y-134000000D03*
%TD*%
D17*
%TO.C,H9*%
X569930000Y-135110000D03*
%TD*%
%TO.C,H6*%
X569920000Y-109320000D03*
%TD*%
D20*
%TO.C,J3*%
X13575000Y-90200000D03*
X7225000Y-90200000D03*
%TD*%
D21*
%TO.C,J9*%
X24918400Y-89125312D03*
X23668400Y-89125312D03*
X22418400Y-89125312D03*
X21168400Y-89125312D03*
%TD*%
D17*
%TO.C,H11*%
X572460000Y-70950000D03*
%TD*%
D22*
%TO.C,TP2*%
X52940000Y-95770000D03*
%TD*%
D17*
%TO.C,H3*%
X569920000Y-83930000D03*
%TD*%
%TO.C,H5*%
X569920000Y-100780000D03*
%TD*%
%TO.C,H7*%
X569890000Y-118060000D03*
%TD*%
D22*
%TO.C,TP4*%
X24420000Y-106380000D03*
%TD*%
D21*
%TO.C,J7*%
X36014600Y-103149912D03*
X34764600Y-103149912D03*
X33514600Y-103149912D03*
X32264600Y-103149912D03*
%TD*%
D22*
%TO.C,TP1*%
X36080000Y-88320000D03*
%TD*%
D21*
%TO.C,J10*%
X44513924Y-82600000D03*
X43263924Y-82600000D03*
X42013924Y-82600000D03*
X40763924Y-82600000D03*
%TD*%
D17*
%TO.C,H4*%
X569900000Y-92440000D03*
%TD*%
D23*
%TO.C,H23*%
X6750000Y-139980000D03*
%TD*%
D21*
%TO.C,J5*%
X43428400Y-109925312D03*
X42178400Y-109925312D03*
X40928400Y-109925312D03*
X39678400Y-109925312D03*
%TD*%
%TO.C,J4*%
X30814600Y-120349912D03*
X29564600Y-120349912D03*
X28314600Y-120349912D03*
X27064600Y-120349912D03*
%TD*%
%TO.C,J2*%
X33840000Y-136920000D03*
X32590000Y-136920000D03*
X31340000Y-136920000D03*
X30090000Y-136920000D03*
%TD*%
D18*
%TO.C,J11*%
X8000000Y-82600000D03*
D19*
X10000000Y-82600000D03*
X12000000Y-82600000D03*
X14000000Y-82600000D03*
%TD*%
D17*
%TO.C,H2*%
X569930000Y-75370000D03*
%TD*%
D21*
%TO.C,J8*%
X48318400Y-96325312D03*
X47068400Y-96325312D03*
X45818400Y-96325312D03*
X44568400Y-96325312D03*
%TD*%
%TO.C,J6*%
X51900000Y-110600000D03*
X50650000Y-110600000D03*
X49400000Y-110600000D03*
X48150000Y-110600000D03*
%TD*%
D17*
%TO.C,H8*%
X569910000Y-126580000D03*
%TD*%
D21*
%TO.C,J1*%
X31000000Y-131800000D03*
X29750000Y-131800000D03*
X28500000Y-131800000D03*
X27250000Y-131800000D03*
%TD*%
D22*
%TO.C,TP3*%
X24420000Y-108240000D03*
%TD*%
D17*
%TO.C,H12*%
X572500000Y-139540000D03*
%TD*%
%TO.C,H1*%
X569900000Y-66870000D03*
%TD*%
%TO.C,H10*%
X569930000Y-143810000D03*
%TD*%
D23*
%TO.C,H22*%
X6780000Y-70130000D03*
%TD*%
D18*
%TO.C,J13*%
X24000000Y-74200000D03*
D19*
X26000000Y-74200000D03*
X28000000Y-74200000D03*
X30000000Y-74200000D03*
%TD*%
D24*
X56399560Y-79189421D03*
X56225489Y-75762177D03*
X57870635Y-75794316D03*
X563766036Y-72808309D03*
X316784548Y-75631174D03*
X61954700Y-78835342D03*
X315591220Y-75640903D03*
X61917931Y-75099050D03*
X61944117Y-77407101D03*
X563726236Y-69300295D03*
X316744276Y-72081506D03*
X62844144Y-75536001D03*
X315551035Y-72098853D03*
X563190719Y-70572132D03*
X189559859Y-77084206D03*
X87141185Y-76839678D03*
X563187305Y-71558514D03*
X188366529Y-77093934D03*
X443800848Y-70634192D03*
X71711856Y-76067747D03*
X442607520Y-70643920D03*
X443841253Y-74195542D03*
X188326126Y-73532587D03*
X442648011Y-74212890D03*
X189519369Y-73515239D03*
X56217758Y-90079098D03*
X56372686Y-93507261D03*
X57862700Y-90120424D03*
X61929717Y-93184212D03*
X563766885Y-89959901D03*
X315580119Y-91406389D03*
X61927110Y-91755934D03*
X316773484Y-91403326D03*
X61913816Y-89447774D03*
X563746679Y-86451724D03*
X62837574Y-89889890D03*
X316753038Y-87853489D03*
X315559718Y-87864173D03*
X71702178Y-90471154D03*
X87126955Y-91329247D03*
X443815711Y-87115812D03*
X442642906Y-90688012D03*
X443836225Y-90677329D03*
X442622347Y-87118876D03*
X189542665Y-92145782D03*
X188349301Y-92148845D03*
X563204065Y-87720549D03*
X563195143Y-88706893D03*
X188328787Y-88587326D03*
X189522109Y-88576643D03*
X56193515Y-96763371D03*
X56337671Y-100192005D03*
X57838287Y-96764980D03*
X315541371Y-95363294D03*
X316743394Y-98906453D03*
X61895123Y-99842239D03*
X61891612Y-96105769D03*
X563740224Y-98282095D03*
X315550026Y-98905560D03*
X563731652Y-94773870D03*
X316734720Y-95356569D03*
X61897253Y-98413959D03*
X62813898Y-96550945D03*
X188308741Y-95664533D03*
X563184835Y-96040889D03*
X443807845Y-98601816D03*
X442605775Y-95039357D03*
X443799143Y-95040252D03*
X189510813Y-99226993D03*
X189502092Y-95657807D03*
X87098373Y-98070841D03*
X188317444Y-99226100D03*
X563172641Y-97027199D03*
X442614496Y-98608542D03*
X71676527Y-97161601D03*
X56347562Y-106854602D03*
X56217170Y-103425423D03*
X57861772Y-103478519D03*
X563754154Y-106938138D03*
X563759052Y-103429906D03*
X62838169Y-103283589D03*
X315563392Y-106608617D03*
X316761704Y-103064202D03*
X61906762Y-106571327D03*
X315568338Y-103066346D03*
X61914376Y-105143065D03*
X316756748Y-106614094D03*
X61917599Y-102834874D03*
X188335491Y-102879047D03*
X189523874Y-106446094D03*
X563191394Y-105681070D03*
X442628065Y-106799493D03*
X188330517Y-106440618D03*
X563207374Y-104694815D03*
X442633048Y-103230301D03*
X87116628Y-104896717D03*
X71698386Y-103928272D03*
X443821431Y-106797350D03*
X189528858Y-102876902D03*
X443826404Y-103235778D03*
X56295931Y-110947082D03*
X56419738Y-114376508D03*
X57940428Y-111003335D03*
X563836871Y-111925975D03*
X61979473Y-114103906D03*
X62917190Y-110817960D03*
X316828909Y-114635949D03*
X563825237Y-115434193D03*
X316840680Y-111086071D03*
X61997483Y-110367479D03*
X61989829Y-112675663D03*
X315635565Y-114628182D03*
X315647312Y-111085924D03*
X442711473Y-111493827D03*
X563264892Y-114176047D03*
X87192508Y-112477698D03*
X188415057Y-110654356D03*
X188403246Y-114215913D03*
X563282765Y-113189822D03*
X443904816Y-111501594D03*
X443893005Y-115063151D03*
X71776154Y-111479651D03*
X442699637Y-115063004D03*
X189608426Y-110654503D03*
X189596590Y-114223680D03*
X56282778Y-121700117D03*
X56167950Y-118270379D03*
X57812295Y-118330938D03*
X61871000Y-117705705D03*
X61857302Y-120013865D03*
X62789525Y-118158594D03*
X61843207Y-121442071D03*
X315497056Y-122630415D03*
X316711440Y-119091474D03*
X563683767Y-124086181D03*
X563704586Y-120578005D03*
X315518077Y-119088202D03*
X316690375Y-122641306D03*
X443752918Y-123401159D03*
X442580734Y-119828755D03*
X188287389Y-118323542D03*
X71646725Y-118843475D03*
X563147172Y-121840399D03*
X442559555Y-123397888D03*
X443774053Y-119839646D03*
X563126718Y-122826573D03*
X189480753Y-118326813D03*
X188266254Y-121885054D03*
X189459574Y-121895945D03*
X87060414Y-119881879D03*
X56271029Y-128806919D03*
X56165778Y-125376871D03*
X57809947Y-125442022D03*
X62787640Y-125283577D03*
X315512614Y-126918931D03*
X315481702Y-130461074D03*
X61832157Y-128564402D03*
X563663380Y-132609902D03*
X563693995Y-129101797D03*
X61850241Y-127136236D03*
X316705963Y-126925535D03*
X316674985Y-130475298D03*
X61870383Y-124828125D03*
X188253474Y-129360422D03*
X442572708Y-128014307D03*
X189477905Y-125805583D03*
X71642893Y-125993189D03*
X443734911Y-131589974D03*
X563109849Y-131348744D03*
X442541561Y-131583369D03*
X87053622Y-127074632D03*
X443765991Y-128028531D03*
X189446759Y-129374646D03*
X188284555Y-125798979D03*
X563133059Y-130362630D03*
X56229124Y-132601621D03*
X56325395Y-136031932D03*
X57873118Y-132671075D03*
X61908962Y-134375862D03*
X315530848Y-138364693D03*
X563745849Y-137655237D03*
X563706050Y-141163251D03*
X62851208Y-132525663D03*
X315571033Y-134822643D03*
X61935147Y-132067811D03*
X61887139Y-135803975D03*
X316764361Y-134832372D03*
X316724090Y-138382040D03*
X71704574Y-133258456D03*
X188305939Y-136930962D03*
X189499182Y-136948309D03*
X563181615Y-138914598D03*
X188346343Y-133369613D03*
X442587334Y-139819625D03*
X442627824Y-136250656D03*
X87112418Y-134380240D03*
X443780662Y-139829353D03*
X443821067Y-136268003D03*
X563155823Y-139900648D03*
X189539673Y-133379342D03*
X56236610Y-82903706D03*
X56401108Y-86331424D03*
X57881658Y-82940438D03*
X316795017Y-83500321D03*
X315601667Y-83506717D03*
X61957215Y-85992858D03*
X61950621Y-84564592D03*
X316764659Y-79950553D03*
X563783425Y-81367165D03*
X315571373Y-79964569D03*
X62855870Y-82696014D03*
X563753422Y-77859057D03*
X61930881Y-82256478D03*
X442661950Y-82433516D03*
X87149176Y-84067536D03*
X443824778Y-78858054D03*
X188342956Y-81043017D03*
X563214355Y-79129393D03*
X188373415Y-84604465D03*
X443855237Y-82419501D03*
X563208187Y-80115761D03*
X189566767Y-84598069D03*
X189536243Y-81029001D03*
X71722063Y-83252520D03*
X442631427Y-78864450D03*
%LPD*%
M02*
