G04 EAGLE Gerber RS-274X export*
G75*
%MOMM*%
%FSLAX34Y34*%
%LPD*%
%INTop Copper*%
%IPPOS*%
%AMOC8*
5,1,8,0,0,1.08239X$1,22.5*%
G01*
%ADD10P,1.649562X8X112.500000*%
%ADD11P,1.649562X8X22.500000*%
%ADD12R,1.308000X1.308000*%
%ADD13P,1.429621X8X202.500000*%
%ADD14P,1.429621X8X22.500000*%
%ADD15C,1.524000*%
%ADD16R,1.000000X1.100000*%
%ADD17C,1.308000*%
%ADD18R,1.100000X1.000000*%
%ADD19P,1.649562X8X202.500000*%
%ADD20R,3.000000X1.400000*%
%ADD21C,1.508000*%
%ADD22R,1.879600X1.879600*%
%ADD23P,3.247170X8X292.500000*%
%ADD24R,0.355600X1.460500*%
%ADD25C,0.102500*%
%ADD26R,2.000000X1.500000*%
%ADD27R,0.304800X0.990600*%
%ADD28C,2.184400*%
%ADD29C,1.879600*%
%ADD30R,4.000000X4.000000*%
%ADD31C,0.222250*%
%ADD32R,1.600000X2.400000*%
%ADD33C,0.254000*%
%ADD34C,0.609600*%
%ADD35C,1.500000*%
%ADD36C,0.812800*%
%ADD37C,0.406400*%
%ADD38C,0.756400*%
%ADD39C,0.304800*%
%ADD40C,1.016000*%
%ADD41C,0.956400*%
%ADD42C,0.508000*%
%ADD43C,0.200000*%
%ADD44C,6.096000*%
%ADD45C,0.203200*%
%ADD46C,6.350000*%


D10*
X850900Y665480D03*
X825500Y665480D03*
X850900Y690880D03*
X825500Y690880D03*
X850900Y716280D03*
X825500Y716280D03*
X850900Y741680D03*
X825500Y741680D03*
X1750060Y660400D03*
X1724660Y660400D03*
X1750060Y685800D03*
X1724660Y685800D03*
X1750060Y711200D03*
X1724660Y711200D03*
X1750060Y736600D03*
X1724660Y736600D03*
X2644140Y657860D03*
X2618740Y657860D03*
X2644140Y683260D03*
X2618740Y683260D03*
X2644140Y708660D03*
X2618740Y708660D03*
X2644140Y734060D03*
X2618740Y734060D03*
X1511300Y589280D03*
X1485900Y589280D03*
X1511300Y614680D03*
X1485900Y614680D03*
X1511300Y640080D03*
X1485900Y640080D03*
X1511300Y665480D03*
X1485900Y665480D03*
X1511300Y690880D03*
X1485900Y690880D03*
X1511300Y716280D03*
X1485900Y716280D03*
X1511300Y741680D03*
X1485900Y741680D03*
X1511300Y767080D03*
X1485900Y767080D03*
X1511300Y792480D03*
X1485900Y792480D03*
X1511300Y817880D03*
X1485900Y817880D03*
X2410460Y584200D03*
X2385060Y584200D03*
X2410460Y609600D03*
X2385060Y609600D03*
X2410460Y635000D03*
X2385060Y635000D03*
X2410460Y660400D03*
X2385060Y660400D03*
X2410460Y685800D03*
X2385060Y685800D03*
X2410460Y711200D03*
X2385060Y711200D03*
X2410460Y736600D03*
X2385060Y736600D03*
X2410460Y762000D03*
X2385060Y762000D03*
X2410460Y787400D03*
X2385060Y787400D03*
X2410460Y812800D03*
X2385060Y812800D03*
X3304540Y581660D03*
X3279140Y581660D03*
X3304540Y607060D03*
X3279140Y607060D03*
X3304540Y632460D03*
X3279140Y632460D03*
X3304540Y657860D03*
X3279140Y657860D03*
X3304540Y683260D03*
X3279140Y683260D03*
X3304540Y708660D03*
X3279140Y708660D03*
X3304540Y734060D03*
X3279140Y734060D03*
X3304540Y759460D03*
X3279140Y759460D03*
X3304540Y784860D03*
X3279140Y784860D03*
X3304540Y810260D03*
X3279140Y810260D03*
D11*
X1079246Y474472D03*
X1079246Y499872D03*
X1104646Y474472D03*
X1104646Y499872D03*
X1130046Y474472D03*
X1130046Y499872D03*
X1155446Y474472D03*
X1155446Y499872D03*
X1180846Y474472D03*
X1180846Y499872D03*
X1206246Y474472D03*
X1206246Y499872D03*
X1231646Y474472D03*
X1231646Y499872D03*
X1257046Y474472D03*
X1257046Y499872D03*
X1282446Y474472D03*
X1282446Y499872D03*
X1307846Y474472D03*
X1307846Y499872D03*
X1333246Y474472D03*
X1333246Y499872D03*
X1358646Y474472D03*
X1358646Y499872D03*
X1384046Y474472D03*
X1384046Y499872D03*
X1409446Y474472D03*
X1409446Y499872D03*
X1434846Y474472D03*
X1434846Y499872D03*
X1978152Y469646D03*
X1978152Y495046D03*
X2003552Y469646D03*
X2003552Y495046D03*
X2028952Y469646D03*
X2028952Y495046D03*
X2054352Y469646D03*
X2054352Y495046D03*
X2079752Y469646D03*
X2079752Y495046D03*
X2105152Y469646D03*
X2105152Y495046D03*
X2130552Y469646D03*
X2130552Y495046D03*
X2155952Y469646D03*
X2155952Y495046D03*
X2181352Y469646D03*
X2181352Y495046D03*
X2206752Y469646D03*
X2206752Y495046D03*
X2232152Y469646D03*
X2232152Y495046D03*
X2257552Y469646D03*
X2257552Y495046D03*
X2282952Y469646D03*
X2282952Y495046D03*
X2308352Y469646D03*
X2308352Y495046D03*
X2333752Y469646D03*
X2333752Y495046D03*
X2871978Y467106D03*
X2871978Y492506D03*
X2897378Y467106D03*
X2897378Y492506D03*
X2922778Y467106D03*
X2922778Y492506D03*
X2948178Y467106D03*
X2948178Y492506D03*
X2973578Y467106D03*
X2973578Y492506D03*
X2998978Y467106D03*
X2998978Y492506D03*
X3024378Y467106D03*
X3024378Y492506D03*
X3049778Y467106D03*
X3049778Y492506D03*
X3075178Y467106D03*
X3075178Y492506D03*
X3100578Y467106D03*
X3100578Y492506D03*
X3125978Y467106D03*
X3125978Y492506D03*
X3151378Y467106D03*
X3151378Y492506D03*
X3176778Y467106D03*
X3176778Y492506D03*
X3202178Y467106D03*
X3202178Y492506D03*
X3227578Y467106D03*
X3227578Y492506D03*
D12*
X391160Y518160D03*
X391160Y543560D03*
X391160Y594360D03*
X391160Y619760D03*
X391160Y645160D03*
D13*
X492760Y723900D03*
X480060Y704850D03*
X467360Y723900D03*
D14*
X467360Y756920D03*
X480060Y775970D03*
X492760Y756920D03*
D15*
X515620Y939800D02*
X515620Y955040D01*
X541020Y955040D02*
X541020Y939800D01*
D16*
X520700Y737480D03*
X520700Y720480D03*
X520700Y778120D03*
X520700Y761120D03*
X373380Y651120D03*
X373380Y634120D03*
X373380Y605400D03*
X373380Y588400D03*
D17*
X1638300Y749300D03*
X1612900Y749300D03*
X1587500Y749300D03*
D18*
X1589160Y782320D03*
X1606160Y782320D03*
X1641212Y782574D03*
X1624212Y782574D03*
D16*
X373380Y512200D03*
X373380Y529200D03*
D11*
X1569720Y782320D03*
D19*
X1605280Y828040D03*
X469900Y518160D03*
X469900Y543560D03*
D16*
X489340Y495300D03*
X506340Y495300D03*
X489340Y568960D03*
X506340Y568960D03*
X672220Y889000D03*
X689220Y889000D03*
D18*
X688340Y922900D03*
X688340Y905900D03*
X708660Y922900D03*
X708660Y905900D03*
X728980Y922900D03*
X728980Y905900D03*
X538480Y883040D03*
X538480Y900040D03*
D16*
X574920Y886460D03*
X557920Y886460D03*
D20*
X534800Y838200D03*
X582800Y838200D03*
D18*
X469900Y590940D03*
X469900Y607940D03*
D12*
X592300Y949960D03*
D17*
X612300Y949960D03*
X632300Y949960D03*
X652300Y949960D03*
D21*
X579120Y472440D03*
X553720Y472440D03*
X579120Y497840D03*
X553720Y497840D03*
X579120Y523240D03*
X553720Y523240D03*
X579120Y548640D03*
X553720Y548640D03*
X579120Y574040D03*
X553720Y574040D03*
X579120Y599440D03*
X553720Y599440D03*
X579120Y624840D03*
X553720Y624840D03*
X579120Y650240D03*
X553720Y650240D03*
D16*
X640960Y548640D03*
X623960Y548640D03*
X638420Y599440D03*
X621420Y599440D03*
X635880Y645160D03*
X618880Y645160D03*
D15*
X1308100Y535940D02*
X1308100Y520700D01*
X1282700Y520700D02*
X1282700Y535940D01*
X1257300Y535940D02*
X1257300Y520700D01*
X1231900Y520700D02*
X1231900Y535940D01*
X2207260Y533400D02*
X2207260Y518160D01*
X2181860Y518160D02*
X2181860Y533400D01*
X2156460Y533400D02*
X2156460Y518160D01*
X2131060Y518160D02*
X2131060Y533400D01*
X3101340Y533400D02*
X3101340Y518160D01*
X3075940Y518160D02*
X3075940Y533400D01*
X3050540Y533400D02*
X3050540Y518160D01*
X3025140Y518160D02*
X3025140Y533400D01*
D11*
X1206500Y525780D03*
X2105660Y520700D03*
X2999740Y518160D03*
X576580Y734060D03*
D19*
X576580Y759460D03*
X439420Y708660D03*
X439420Y734060D03*
D15*
X83820Y48260D02*
X68580Y48260D01*
X68580Y73660D02*
X83820Y73660D01*
X83820Y99060D02*
X68580Y99060D01*
X68580Y124460D02*
X83820Y124460D01*
X551180Y45720D02*
X566420Y45720D01*
X566420Y71120D02*
X551180Y71120D01*
X551180Y96520D02*
X566420Y96520D01*
X566420Y121920D02*
X551180Y121920D01*
X1033780Y45720D02*
X1049020Y45720D01*
X1049020Y71120D02*
X1033780Y71120D01*
X1033780Y96520D02*
X1049020Y96520D01*
X1049020Y121920D02*
X1033780Y121920D01*
X1516380Y45720D02*
X1531620Y45720D01*
X1531620Y71120D02*
X1516380Y71120D01*
X1516380Y96520D02*
X1531620Y96520D01*
X1531620Y121920D02*
X1516380Y121920D01*
X1998980Y48260D02*
X2014220Y48260D01*
X2014220Y73660D02*
X1998980Y73660D01*
X1998980Y99060D02*
X2014220Y99060D01*
X2014220Y124460D02*
X1998980Y124460D01*
X2481580Y45720D02*
X2496820Y45720D01*
X2496820Y71120D02*
X2481580Y71120D01*
X2481580Y96520D02*
X2496820Y96520D01*
X2496820Y121920D02*
X2481580Y121920D01*
X2964180Y45720D02*
X2979420Y45720D01*
X2979420Y71120D02*
X2964180Y71120D01*
X2964180Y96520D02*
X2979420Y96520D01*
X2979420Y121920D02*
X2964180Y121920D01*
X3446780Y45720D02*
X3462020Y45720D01*
X3462020Y71120D02*
X3446780Y71120D01*
X3446780Y96520D02*
X3462020Y96520D01*
X3462020Y121920D02*
X3446780Y121920D01*
D22*
X203600Y158600D03*
X228600Y158600D03*
X253600Y158600D03*
D23*
X184600Y228600D03*
X272600Y228600D03*
D22*
X686200Y158600D03*
X711200Y158600D03*
X736200Y158600D03*
D23*
X667200Y228600D03*
X755200Y228600D03*
D22*
X1168800Y158600D03*
X1193800Y158600D03*
X1218800Y158600D03*
D23*
X1149800Y228600D03*
X1237800Y228600D03*
D22*
X1651400Y158600D03*
X1676400Y158600D03*
X1701400Y158600D03*
D23*
X1632400Y228600D03*
X1720400Y228600D03*
D22*
X2134000Y161140D03*
X2159000Y161140D03*
X2184000Y161140D03*
D23*
X2115000Y231140D03*
X2203000Y231140D03*
D22*
X2616600Y158600D03*
X2641600Y158600D03*
X2666600Y158600D03*
D23*
X2597600Y228600D03*
X2685600Y228600D03*
D22*
X3099200Y158600D03*
X3124200Y158600D03*
X3149200Y158600D03*
D23*
X3080200Y228600D03*
X3168200Y228600D03*
D22*
X3584340Y158600D03*
X3609340Y158600D03*
X3634340Y158600D03*
D23*
X3565340Y228600D03*
X3653340Y228600D03*
D24*
X3402965Y245682D03*
X3396615Y245682D03*
X3390265Y245682D03*
X3383915Y245682D03*
X3377565Y245682D03*
X3371215Y245682D03*
X3364865Y245682D03*
X3358515Y245682D03*
X3358515Y191199D03*
X3364865Y191199D03*
X3371215Y191199D03*
X3377565Y191199D03*
X3383915Y191199D03*
X3390265Y191199D03*
X3396615Y191199D03*
X3402965Y191199D03*
D12*
X3970020Y93500D03*
D17*
X3970020Y73500D03*
X3970020Y53500D03*
X3970020Y33500D03*
D25*
X1909038Y115492D02*
X1894362Y115492D01*
X1894362Y118568D01*
X1909038Y118568D01*
X1909038Y115492D01*
X1909038Y116466D02*
X1894362Y116466D01*
X1894362Y117440D02*
X1909038Y117440D01*
X1909038Y118414D02*
X1894362Y118414D01*
X1894362Y108992D02*
X1909038Y108992D01*
X1894362Y108992D02*
X1894362Y112068D01*
X1909038Y112068D01*
X1909038Y108992D01*
X1909038Y109966D02*
X1894362Y109966D01*
X1894362Y110940D02*
X1909038Y110940D01*
X1909038Y111914D02*
X1894362Y111914D01*
X1894362Y102492D02*
X1909038Y102492D01*
X1894362Y102492D02*
X1894362Y105568D01*
X1909038Y105568D01*
X1909038Y102492D01*
X1909038Y103466D02*
X1894362Y103466D01*
X1894362Y104440D02*
X1909038Y104440D01*
X1909038Y105414D02*
X1894362Y105414D01*
X1894362Y95992D02*
X1909038Y95992D01*
X1894362Y95992D02*
X1894362Y99068D01*
X1909038Y99068D01*
X1909038Y95992D01*
X1909038Y96966D02*
X1894362Y96966D01*
X1894362Y97940D02*
X1909038Y97940D01*
X1909038Y98914D02*
X1894362Y98914D01*
X1894362Y89492D02*
X1909038Y89492D01*
X1894362Y89492D02*
X1894362Y92568D01*
X1909038Y92568D01*
X1909038Y89492D01*
X1909038Y90466D02*
X1894362Y90466D01*
X1894362Y91440D02*
X1909038Y91440D01*
X1909038Y92414D02*
X1894362Y92414D01*
X1894362Y82992D02*
X1909038Y82992D01*
X1894362Y82992D02*
X1894362Y86068D01*
X1909038Y86068D01*
X1909038Y82992D01*
X1909038Y83966D02*
X1894362Y83966D01*
X1894362Y84940D02*
X1909038Y84940D01*
X1909038Y85914D02*
X1894362Y85914D01*
X1894362Y76492D02*
X1909038Y76492D01*
X1894362Y76492D02*
X1894362Y79568D01*
X1909038Y79568D01*
X1909038Y76492D01*
X1909038Y77466D02*
X1894362Y77466D01*
X1894362Y78440D02*
X1909038Y78440D01*
X1909038Y79414D02*
X1894362Y79414D01*
X1894362Y69992D02*
X1909038Y69992D01*
X1894362Y69992D02*
X1894362Y73068D01*
X1909038Y73068D01*
X1909038Y69992D01*
X1909038Y70966D02*
X1894362Y70966D01*
X1894362Y71940D02*
X1909038Y71940D01*
X1909038Y72914D02*
X1894362Y72914D01*
X1894362Y63492D02*
X1909038Y63492D01*
X1894362Y63492D02*
X1894362Y66568D01*
X1909038Y66568D01*
X1909038Y63492D01*
X1909038Y64466D02*
X1894362Y64466D01*
X1894362Y65440D02*
X1909038Y65440D01*
X1909038Y66414D02*
X1894362Y66414D01*
X1894362Y56992D02*
X1909038Y56992D01*
X1894362Y56992D02*
X1894362Y60068D01*
X1909038Y60068D01*
X1909038Y56992D01*
X1909038Y57966D02*
X1894362Y57966D01*
X1894362Y58940D02*
X1909038Y58940D01*
X1909038Y59914D02*
X1894362Y59914D01*
X1894362Y50492D02*
X1909038Y50492D01*
X1894362Y50492D02*
X1894362Y53568D01*
X1909038Y53568D01*
X1909038Y50492D01*
X1909038Y51466D02*
X1894362Y51466D01*
X1894362Y52440D02*
X1909038Y52440D01*
X1909038Y53414D02*
X1894362Y53414D01*
X1894362Y43992D02*
X1909038Y43992D01*
X1894362Y43992D02*
X1894362Y47068D01*
X1909038Y47068D01*
X1909038Y43992D01*
X1909038Y44966D02*
X1894362Y44966D01*
X1894362Y45940D02*
X1909038Y45940D01*
X1909038Y46914D02*
X1894362Y46914D01*
X1951762Y43992D02*
X1966438Y43992D01*
X1951762Y43992D02*
X1951762Y47068D01*
X1966438Y47068D01*
X1966438Y43992D01*
X1966438Y44966D02*
X1951762Y44966D01*
X1951762Y45940D02*
X1966438Y45940D01*
X1966438Y46914D02*
X1951762Y46914D01*
X1951762Y50492D02*
X1966438Y50492D01*
X1951762Y50492D02*
X1951762Y53568D01*
X1966438Y53568D01*
X1966438Y50492D01*
X1966438Y51466D02*
X1951762Y51466D01*
X1951762Y52440D02*
X1966438Y52440D01*
X1966438Y53414D02*
X1951762Y53414D01*
X1951762Y56992D02*
X1966438Y56992D01*
X1951762Y56992D02*
X1951762Y60068D01*
X1966438Y60068D01*
X1966438Y56992D01*
X1966438Y57966D02*
X1951762Y57966D01*
X1951762Y58940D02*
X1966438Y58940D01*
X1966438Y59914D02*
X1951762Y59914D01*
X1951762Y63492D02*
X1966438Y63492D01*
X1951762Y63492D02*
X1951762Y66568D01*
X1966438Y66568D01*
X1966438Y63492D01*
X1966438Y64466D02*
X1951762Y64466D01*
X1951762Y65440D02*
X1966438Y65440D01*
X1966438Y66414D02*
X1951762Y66414D01*
X1951762Y69992D02*
X1966438Y69992D01*
X1951762Y69992D02*
X1951762Y73068D01*
X1966438Y73068D01*
X1966438Y69992D01*
X1966438Y70966D02*
X1951762Y70966D01*
X1951762Y71940D02*
X1966438Y71940D01*
X1966438Y72914D02*
X1951762Y72914D01*
X1951762Y76492D02*
X1966438Y76492D01*
X1951762Y76492D02*
X1951762Y79568D01*
X1966438Y79568D01*
X1966438Y76492D01*
X1966438Y77466D02*
X1951762Y77466D01*
X1951762Y78440D02*
X1966438Y78440D01*
X1966438Y79414D02*
X1951762Y79414D01*
X1951762Y82992D02*
X1966438Y82992D01*
X1951762Y82992D02*
X1951762Y86068D01*
X1966438Y86068D01*
X1966438Y82992D01*
X1966438Y83966D02*
X1951762Y83966D01*
X1951762Y84940D02*
X1966438Y84940D01*
X1966438Y85914D02*
X1951762Y85914D01*
X1951762Y89492D02*
X1966438Y89492D01*
X1951762Y89492D02*
X1951762Y92568D01*
X1966438Y92568D01*
X1966438Y89492D01*
X1966438Y90466D02*
X1951762Y90466D01*
X1951762Y91440D02*
X1966438Y91440D01*
X1966438Y92414D02*
X1951762Y92414D01*
X1951762Y95992D02*
X1966438Y95992D01*
X1951762Y95992D02*
X1951762Y99068D01*
X1966438Y99068D01*
X1966438Y95992D01*
X1966438Y96966D02*
X1951762Y96966D01*
X1951762Y97940D02*
X1966438Y97940D01*
X1966438Y98914D02*
X1951762Y98914D01*
X1951762Y102492D02*
X1966438Y102492D01*
X1951762Y102492D02*
X1951762Y105568D01*
X1966438Y105568D01*
X1966438Y102492D01*
X1966438Y103466D02*
X1951762Y103466D01*
X1951762Y104440D02*
X1966438Y104440D01*
X1966438Y105414D02*
X1951762Y105414D01*
X1951762Y108992D02*
X1966438Y108992D01*
X1951762Y108992D02*
X1951762Y112068D01*
X1966438Y112068D01*
X1966438Y108992D01*
X1966438Y109966D02*
X1951762Y109966D01*
X1951762Y110940D02*
X1966438Y110940D01*
X1966438Y111914D02*
X1951762Y111914D01*
X1951762Y115492D02*
X1966438Y115492D01*
X1951762Y115492D02*
X1951762Y118568D01*
X1966438Y118568D01*
X1966438Y115492D01*
X1966438Y116466D02*
X1951762Y116466D01*
X1951762Y117440D02*
X1966438Y117440D01*
X1966438Y118414D02*
X1951762Y118414D01*
D16*
X1936360Y134620D03*
X1919360Y134620D03*
D18*
X1866020Y38100D03*
X1883020Y38100D03*
D26*
X1960880Y132320D03*
X1960880Y162320D03*
D18*
X1892300Y138820D03*
X1892300Y155820D03*
D27*
X671830Y852678D03*
X665480Y852678D03*
X659130Y852678D03*
X652780Y852678D03*
X646430Y852678D03*
X640080Y852678D03*
X633730Y852678D03*
X671830Y798322D03*
X665480Y798322D03*
X659130Y798322D03*
X652780Y798322D03*
X646430Y798322D03*
X640080Y798322D03*
X633730Y798322D03*
D16*
X608720Y756920D03*
X625720Y756920D03*
X608720Y734060D03*
X625720Y734060D03*
X696840Y754380D03*
X679840Y754380D03*
X696840Y731520D03*
X679840Y731520D03*
D12*
X381000Y781840D03*
D17*
X381000Y761840D03*
X381000Y741840D03*
X381000Y721840D03*
D16*
X625720Y779780D03*
X608720Y779780D03*
X679840Y777240D03*
X696840Y777240D03*
D21*
X4030980Y840740D03*
X4056380Y840740D03*
X4030980Y815340D03*
X4056380Y815340D03*
X4030980Y789940D03*
X4056380Y789940D03*
X4030980Y764540D03*
X4056380Y764540D03*
X4030980Y739140D03*
X4056380Y739140D03*
X4030980Y713740D03*
X4056380Y713740D03*
X4030980Y688340D03*
X4056380Y688340D03*
X4030980Y662940D03*
X4056380Y662940D03*
X4030980Y637540D03*
X4056380Y637540D03*
X4030980Y612140D03*
X4056380Y612140D03*
D15*
X4226560Y797560D02*
X4241800Y797560D01*
X4241800Y772160D02*
X4226560Y772160D01*
X4224020Y594360D02*
X4239260Y594360D01*
X4239260Y568960D02*
X4224020Y568960D01*
X4224020Y187960D02*
X4239260Y187960D01*
X4239260Y162560D02*
X4224020Y162560D01*
X4224020Y391160D02*
X4239260Y391160D01*
X4239260Y365760D02*
X4224020Y365760D01*
D28*
X246380Y721360D03*
X296380Y746360D03*
X296380Y772360D03*
X296380Y696360D03*
X296380Y670360D03*
X246380Y571500D03*
X296380Y596500D03*
X296380Y622500D03*
X296380Y546500D03*
X296380Y520500D03*
X246380Y886460D03*
X296380Y911460D03*
X296380Y937460D03*
X296380Y861460D03*
X296380Y835460D03*
D16*
X553720Y737480D03*
X553720Y720480D03*
D18*
X663820Y774700D03*
X646820Y774700D03*
X641740Y876300D03*
X658740Y876300D03*
D16*
X553720Y778120D03*
X553720Y761120D03*
X350520Y651120D03*
X350520Y634120D03*
X350520Y605400D03*
X350520Y588400D03*
X347980Y512200D03*
X347980Y529200D03*
D18*
X1641720Y805180D03*
X1624720Y805180D03*
X1589160Y805180D03*
X1606160Y805180D03*
D16*
X702700Y873760D03*
X719700Y873760D03*
D17*
X2540000Y736600D03*
X2514600Y736600D03*
X2489200Y736600D03*
D18*
X2490860Y769620D03*
X2507860Y769620D03*
X2540880Y769620D03*
X2523880Y769620D03*
D11*
X2468880Y774700D03*
X2514600Y815340D03*
D18*
X2540880Y792480D03*
X2523880Y792480D03*
X2490860Y792480D03*
X2507860Y792480D03*
D17*
X3434080Y769620D03*
X3408680Y769620D03*
X3383280Y769620D03*
D18*
X3387480Y802640D03*
X3404480Y802640D03*
X3437500Y802640D03*
X3420500Y802640D03*
D11*
X3365500Y807720D03*
X3411220Y845820D03*
D18*
X3437500Y822960D03*
X3420500Y822960D03*
X3387480Y822960D03*
X3404480Y822960D03*
D11*
X3365500Y833120D03*
X2468880Y800100D03*
D16*
X3418840Y182000D03*
X3418840Y199000D03*
X3451860Y182000D03*
X3451860Y199000D03*
D29*
X3927094Y201168D03*
X3927094Y266192D03*
X3972306Y201168D03*
X3972306Y266192D03*
D30*
X3850200Y162560D03*
X3795200Y162560D03*
D16*
X3859920Y129540D03*
X3876920Y129540D03*
D29*
X3800094Y201168D03*
X3800094Y266192D03*
X3845306Y201168D03*
X3845306Y266192D03*
D12*
X73660Y256060D03*
D17*
X73660Y236060D03*
X73660Y216060D03*
X73660Y196060D03*
D12*
X3888740Y93500D03*
D17*
X3888740Y73500D03*
X3888740Y53500D03*
X3888740Y33500D03*
D31*
X3699034Y194786D02*
X3692366Y194786D01*
X3692366Y201454D01*
X3699034Y201454D01*
X3699034Y194786D01*
X3699034Y196898D02*
X3692366Y196898D01*
X3692366Y199010D02*
X3699034Y199010D01*
X3699034Y201122D02*
X3692366Y201122D01*
X3707606Y194786D02*
X3714274Y194786D01*
X3707606Y194786D02*
X3707606Y201454D01*
X3714274Y201454D01*
X3714274Y194786D01*
X3714274Y196898D02*
X3707606Y196898D01*
X3707606Y199010D02*
X3714274Y199010D01*
X3714274Y201122D02*
X3707606Y201122D01*
X3699034Y174466D02*
X3692366Y174466D01*
X3692366Y181134D01*
X3699034Y181134D01*
X3699034Y174466D01*
X3699034Y176578D02*
X3692366Y176578D01*
X3692366Y178690D02*
X3699034Y178690D01*
X3699034Y180802D02*
X3692366Y180802D01*
X3707606Y174466D02*
X3714274Y174466D01*
X3707606Y174466D02*
X3707606Y181134D01*
X3714274Y181134D01*
X3714274Y174466D01*
X3714274Y176578D02*
X3707606Y176578D01*
X3707606Y178690D02*
X3714274Y178690D01*
X3714274Y180802D02*
X3707606Y180802D01*
D15*
X3881120Y246380D02*
X3896360Y246380D01*
X3896360Y271780D02*
X3881120Y271780D01*
D18*
X3379860Y274320D03*
X3396860Y274320D03*
X3443360Y246380D03*
X3460360Y246380D03*
X3440820Y226060D03*
X3457820Y226060D03*
X3282560Y241300D03*
X3265560Y241300D03*
X3343520Y208280D03*
X3326520Y208280D03*
D16*
X3319780Y154060D03*
X3319780Y171060D03*
D18*
X3335900Y236220D03*
X3318900Y236220D03*
D16*
X3543300Y196460D03*
X3543300Y179460D03*
D30*
X3977200Y162560D03*
X3922200Y162560D03*
D16*
X3975980Y129540D03*
X3958980Y129540D03*
D18*
X3390900Y105800D03*
X3390900Y122800D03*
D16*
X3526400Y137160D03*
X3509400Y137160D03*
D15*
X3487420Y256540D02*
X3487420Y271780D01*
X3512820Y271780D02*
X3512820Y256540D01*
X3538220Y256540D02*
X3538220Y271780D01*
D18*
X3695700Y234560D03*
X3695700Y217560D03*
X672220Y868680D03*
X689220Y868680D03*
D11*
X601980Y810260D03*
D32*
X3474960Y193040D03*
X3504960Y193040D03*
D33*
X373380Y634120D02*
X373380Y635000D01*
X372110Y633730D01*
X370840Y632460D01*
X368380Y632460D01*
X373380Y634120D02*
X373380Y629920D01*
D34*
X383540Y619760D02*
X391160Y619760D01*
X383540Y619760D02*
X373380Y629920D01*
D33*
X373380Y605400D02*
X373380Y604520D01*
X370840Y607060D01*
X368380Y607060D01*
X373380Y605400D02*
X373380Y609600D01*
D34*
X383540Y619760D01*
D33*
X520700Y720480D02*
X523200Y723980D01*
D35*
X469900Y624840D03*
D36*
X469900Y607940D01*
D37*
X574920Y886460D02*
X574920Y900040D01*
X576580Y901700D01*
D38*
X576580Y901700D03*
D33*
X659130Y878731D02*
X659130Y876300D01*
X659130Y852678D01*
D34*
X371720Y634120D02*
X350520Y634120D01*
D37*
X371720Y634120D02*
X372110Y633730D01*
D34*
X369180Y605400D02*
X350520Y605400D01*
X369180Y605400D02*
X370840Y607060D01*
X520700Y720480D02*
X553720Y720480D01*
D33*
X663820Y774700D02*
X663820Y778900D01*
X659130Y783590D02*
X659130Y798322D01*
X659130Y783590D02*
X663820Y778900D01*
X646430Y798322D02*
X646430Y808990D01*
X647700Y810260D01*
X657860Y810260D02*
X659130Y808990D01*
X659130Y807720D01*
X659130Y798322D01*
X657860Y810260D02*
X647700Y810260D01*
D34*
X520700Y720480D02*
X505070Y704850D01*
X480060Y704850D01*
X520700Y778120D02*
X553720Y778120D01*
D37*
X663820Y774700D02*
X665480Y773040D01*
X665480Y756920D01*
X659130Y807720D02*
X661670Y810260D01*
X663928Y810260D01*
X665480Y811812D01*
D38*
X665480Y811812D03*
X657860Y838200D03*
D33*
X659130Y839470D02*
X659130Y852678D01*
X659130Y839470D02*
X657860Y838200D01*
D34*
X658740Y876300D02*
X659130Y876300D01*
D37*
X535940Y782320D02*
X530860Y777240D01*
X521580Y777240D02*
X520700Y778120D01*
X521580Y777240D02*
X530860Y777240D01*
D38*
X535940Y782320D03*
D37*
X521580Y721360D02*
X520700Y720480D01*
X521580Y721360D02*
X535940Y721360D01*
X525108Y724888D02*
X520700Y720480D01*
X525108Y724888D02*
X535940Y724888D01*
D38*
X535940Y724888D03*
D34*
X520700Y737480D02*
X503852Y734992D01*
X492760Y723900D01*
X571500Y739140D02*
X576580Y734060D01*
X522360Y739140D02*
X520700Y737480D01*
X522360Y739140D02*
X571500Y739140D01*
D33*
X646430Y866140D02*
X641858Y870712D01*
X646430Y866140D02*
X651510Y866140D01*
X653233Y864417D01*
X653233Y853131D01*
X652780Y852678D01*
D34*
X641858Y870712D02*
X641740Y870830D01*
X641740Y876300D01*
D38*
X652780Y891540D03*
D34*
X645160Y891540D01*
X642620Y889000D01*
X642620Y877180D02*
X641740Y876300D01*
X642620Y877180D02*
X642620Y889000D01*
D37*
X573160Y737480D02*
X553720Y737480D01*
X573160Y737480D02*
X576580Y734060D01*
D33*
X652780Y784860D02*
X652780Y798322D01*
X646820Y778900D02*
X646820Y774700D01*
X646820Y778900D02*
X652780Y784860D01*
D34*
X576580Y759460D02*
X574920Y761120D01*
X553720Y761120D01*
X520700Y761120D01*
X516500Y756920D01*
X492760Y756920D01*
X646820Y758580D02*
X646820Y774700D01*
X646820Y758580D02*
X645160Y756920D01*
X642620Y756920D01*
D38*
X642620Y756920D03*
D33*
X553720Y574040D02*
X566420Y561340D01*
X637540Y561340D01*
X675640Y576580D01*
X1264920Y576580D01*
X1295400Y546100D01*
X1295400Y512515D01*
X1282757Y499872D01*
X1282446Y499872D01*
D38*
X2047240Y439420D03*
D33*
X2067560Y459740D01*
X2067560Y480060D01*
X2070100Y482600D01*
X2169160Y482600D01*
X2181352Y494792D02*
X2181352Y495046D01*
X2181352Y494792D02*
X2169160Y482600D01*
X2169160Y482854D02*
X2181352Y495046D01*
X2169160Y482854D02*
X2169160Y457200D01*
X2184400Y441960D01*
X2336800Y441960D02*
X2397760Y502920D01*
X2827020Y502920D01*
X2852420Y477520D01*
X2857500Y477520D01*
X2860040Y480060D01*
X3070860Y480060D01*
X3075178Y484378D01*
X3075178Y492506D01*
X2336800Y441960D02*
X2184400Y441960D01*
X642620Y574040D02*
X579120Y574040D01*
X642620Y574040D02*
X673100Y584200D01*
X1280160Y584200D01*
X1289050Y575310D01*
X1323340Y541020D01*
X1323340Y510540D01*
X1320800Y508000D01*
X1320800Y492760D01*
X1315720Y487680D01*
X1295654Y487680D02*
X1282446Y474472D01*
X1295654Y487680D02*
X1315720Y487680D01*
X2181352Y469646D02*
X2194306Y482600D01*
X2194560Y482600D01*
X2194560Y505460D01*
X2196817Y507717D01*
X2201897Y507717D01*
X2202631Y506984D01*
X2216404Y506984D01*
X2227580Y518160D01*
X2227580Y538480D01*
X2217420Y548640D01*
X2090420Y548640D01*
X2067560Y525780D01*
X2067560Y523240D01*
D38*
X2067560Y523240D03*
X1289050Y575310D03*
X2950436Y441134D03*
D33*
X2738947Y441134D01*
X2689860Y490220D01*
X2688590Y488950D01*
D38*
X2688590Y488950D03*
X2270760Y449580D03*
D33*
X2201418Y449580D01*
X2181352Y469646D01*
X1290320Y599440D02*
X638420Y599440D01*
X1290320Y599440D02*
X1346200Y543560D01*
X1346200Y490220D01*
X1343660Y487680D01*
X1312672Y474472D02*
X1307846Y474472D01*
X1325880Y487680D02*
X1343660Y487680D01*
X1325880Y487680D02*
X1312672Y474472D01*
D38*
X1993900Y525780D03*
D33*
X2032000Y563880D01*
X2227580Y563880D01*
X2232660Y563880D01*
X2245360Y551180D01*
D38*
X2245360Y551180D03*
X2232660Y568960D03*
D33*
X2227580Y563880D01*
X566420Y586740D02*
X553720Y599440D01*
X566420Y586740D02*
X656759Y586740D01*
X675386Y592328D01*
X1284732Y592328D01*
X1336040Y541020D01*
D38*
X1336040Y541020D03*
X2090420Y434340D03*
D33*
X2082800Y426720D01*
D38*
X1358900Y523240D03*
D33*
X1805940Y426720D02*
X2082800Y426720D01*
X1805940Y426720D02*
X1686560Y546100D01*
X1381760Y546100D01*
X1358900Y523240D01*
X3100578Y492506D02*
X3119120Y511048D01*
X3119120Y546100D01*
X3116580Y548640D01*
X2270760Y548640D02*
X2268220Y546100D01*
D38*
X2268220Y546100D03*
D33*
X2270760Y548640D02*
X3116580Y548640D01*
X558800Y650240D02*
X553720Y650240D01*
X558800Y650240D02*
X571500Y637540D01*
X589280Y637540D01*
X599440Y627380D01*
X688594Y627380D01*
X694690Y621284D01*
X1459484Y621284D01*
X1473200Y635000D01*
X1480820Y635000D01*
X1485900Y640080D01*
X1498600Y652780D01*
X1529080Y652780D02*
X1541780Y640080D01*
X1541780Y614680D01*
X1554480Y601980D01*
X2334260Y601980D01*
X2364740Y632460D01*
X2382520Y632460D01*
X2385060Y635000D01*
X1529080Y652780D02*
X1498600Y652780D01*
X2385060Y635000D02*
X2397760Y647700D01*
X2565400Y584200D02*
X3218180Y584200D01*
X3266440Y632460D02*
X3279140Y632460D01*
X3266440Y632460D02*
X3218180Y584200D01*
X2501900Y647700D02*
X2397760Y647700D01*
X2501900Y647700D02*
X2565400Y584200D01*
D38*
X696214Y635508D03*
D33*
X686562Y645160D02*
X635880Y645160D01*
X686562Y645160D02*
X696214Y635508D01*
X556260Y624840D02*
X553720Y624840D01*
X556260Y624840D02*
X568960Y612140D01*
X685800Y612140D01*
X690880Y607060D01*
X1478280Y607060D01*
X1485900Y614680D01*
X1498600Y601980D01*
X1526540Y601980D01*
X1544320Y584200D01*
X2344420Y584200D01*
X2369820Y609600D01*
X2385060Y609600D01*
X2395220Y599440D01*
X2395220Y596900D01*
X3271520Y607060D02*
X3279140Y607060D01*
X2418080Y596900D02*
X2395220Y596900D01*
X2418080Y596900D02*
X2448560Y566420D01*
X3230880Y566420D01*
X3271520Y607060D01*
X3291840Y619760D02*
X3304540Y607060D01*
X2423160Y609600D02*
X2410460Y609600D01*
X3266440Y619760D02*
X3291840Y619760D01*
X3266440Y619760D02*
X3223260Y576580D01*
X2456180Y576580D01*
X2423160Y609600D01*
X2410460Y609600D02*
X2410460Y614680D01*
X2402840Y622300D01*
X2364740Y622300D01*
X2336800Y594360D01*
X1551940Y594360D01*
X1531620Y614680D01*
X1511300Y614680D01*
X1508760Y614680D01*
X1496060Y627380D01*
X1475740Y627380D01*
X1461770Y613410D01*
X693674Y613410D01*
X687324Y619760D01*
X584200Y619760D01*
X579120Y624840D01*
D39*
X559005Y523240D02*
X553720Y523240D01*
X559005Y523240D02*
X571371Y535606D01*
X654986Y535606D01*
X1180846Y500634D02*
X1180846Y499872D01*
X680720Y561340D02*
X654986Y535606D01*
X680720Y561340D02*
X1120140Y561340D01*
X1180846Y500634D01*
D33*
X2948178Y502720D02*
X2948178Y492506D01*
X2912305Y538592D02*
X2240683Y535537D01*
X2222500Y553720D01*
X2082800Y553720D01*
X2054352Y525272D01*
X2054352Y495046D01*
X2912305Y538592D02*
X2948178Y502720D01*
D39*
X607060Y495300D02*
X579120Y523240D01*
X607060Y495300D02*
X607060Y447040D01*
X619760Y434340D01*
X1158240Y434340D02*
X1183640Y459740D01*
X1183640Y471678D01*
X1180846Y474472D01*
X1158240Y434340D02*
X619760Y434340D01*
D33*
X2973578Y443738D02*
X2973578Y467106D01*
X2973578Y443738D02*
X2959100Y429260D01*
X2715260Y429260D01*
X2654300Y490220D01*
X2402840Y490220D01*
X2344420Y431800D01*
X2117598Y431800D01*
X2079752Y469646D01*
X678180Y568970D02*
X640960Y548640D01*
X1135380Y568960D02*
X1193800Y510540D01*
X1193800Y492760D01*
X1188720Y487680D01*
X1163320Y487680D01*
X1155446Y479806D01*
X1155446Y474472D01*
X1135380Y568960D02*
X678180Y568970D01*
D36*
X467360Y723900D02*
X452120Y708660D01*
X439420Y708660D01*
X439420Y693420D01*
X391160Y645160D01*
D34*
X373380Y651120D02*
X350520Y651120D01*
D36*
X373380Y651120D02*
X385200Y651120D01*
X391160Y645160D01*
D33*
X391160Y594360D02*
X373420Y594360D01*
X373403Y591820D01*
X373380Y588400D01*
D36*
X436880Y734060D02*
X439420Y734060D01*
X436880Y734060D02*
X421640Y718820D01*
X421640Y698500D01*
X406400Y683260D01*
X403860Y683260D01*
X388620Y668020D01*
X340360Y668020D01*
X332740Y660400D01*
X337860Y591780D02*
X388580Y591780D01*
X391160Y594360D01*
X332740Y596900D02*
X332740Y660400D01*
X332740Y596900D02*
X337860Y591780D01*
D34*
X458470Y775970D02*
X480060Y775970D01*
X458470Y775970D02*
X439420Y756920D01*
X439420Y734060D01*
D37*
X353940Y591820D02*
X350520Y588400D01*
X353940Y591820D02*
X373403Y591820D01*
D34*
X1589160Y750960D02*
X1589160Y782320D01*
X1589160Y750960D02*
X1587500Y749300D01*
X1589160Y782320D02*
X1589160Y805180D01*
D40*
X520700Y480940D02*
X506340Y495300D01*
X520700Y480940D02*
X520700Y457200D01*
X528320Y449580D01*
X568960Y449580D02*
X579120Y459740D01*
X579120Y472440D01*
X568960Y449580D02*
X528320Y449580D01*
D34*
X1638300Y749300D02*
X1638300Y767080D01*
X1641212Y769992D02*
X1641212Y782574D01*
X1641212Y769992D02*
X1638300Y767080D01*
X1641212Y782574D02*
X1641212Y804672D01*
X1641720Y805180D01*
X3437500Y802640D02*
X3437500Y822960D01*
X3437500Y802640D02*
X3437500Y773040D01*
X3434080Y769620D01*
X2540880Y769620D02*
X2540880Y737480D01*
X2540000Y736600D01*
X2540880Y769620D02*
X2540880Y792480D01*
D40*
X469900Y543560D02*
X391160Y543560D01*
X381000Y543560D01*
X373380Y535940D01*
D33*
X373380Y529200D01*
X372110Y534670D02*
X373380Y535940D01*
D36*
X469900Y549520D02*
X489340Y568960D01*
X469900Y549520D02*
X469900Y543560D01*
D40*
X371720Y529200D02*
X347980Y529200D01*
X371720Y529200D02*
X372110Y534670D01*
X391160Y518160D02*
X469900Y518160D01*
X391160Y518160D02*
X383540Y510540D01*
X375040Y510540D02*
X373380Y512200D01*
X375040Y510540D02*
X383540Y510540D01*
D36*
X469900Y518160D02*
X489340Y498720D01*
X489340Y495300D01*
D40*
X373380Y512200D02*
X347980Y512200D01*
D36*
X469900Y590940D02*
X493640Y590940D01*
X508000Y576580D01*
X508000Y570620D01*
X506340Y568960D01*
X546100Y497840D02*
X553720Y497840D01*
X533400Y525780D02*
X515620Y543560D01*
X533400Y525780D02*
X533400Y510540D01*
X546100Y497840D01*
D34*
X1606160Y782320D02*
X1606160Y805180D01*
X1624720Y805180D01*
X1624212Y804672D01*
X1624212Y782574D01*
X1623958Y782320D01*
X1606160Y782320D01*
X1612900Y775580D01*
X1612900Y749300D01*
X3404480Y802640D02*
X3404480Y822960D01*
X3404480Y802640D02*
X3420500Y802640D01*
X3420500Y822960D01*
X3404480Y822960D01*
X3404480Y802640D02*
X3408680Y798440D01*
X3408680Y769620D01*
X2507860Y769620D02*
X2507860Y792480D01*
X2523880Y792480D02*
X2523880Y769620D01*
X2517140Y769620D01*
X2507860Y769620D01*
X2517140Y769620D02*
X2517140Y739140D01*
X2514600Y736600D01*
D36*
X515620Y559680D02*
X506340Y568960D01*
X515620Y559680D02*
X515620Y543560D01*
D38*
X492760Y591058D03*
D34*
X676520Y922900D02*
X688340Y922900D01*
X676520Y922900D02*
X670560Y916940D01*
D38*
X670560Y916940D03*
D34*
X608720Y723900D02*
X613800Y718820D01*
X608720Y723900D02*
X608720Y734060D01*
D37*
X637540Y718820D02*
X640080Y721360D01*
D34*
X637540Y718820D02*
X613800Y718820D01*
D38*
X640080Y721360D03*
X711200Y939800D03*
D37*
X711200Y929640D01*
X708660Y927100D01*
X708660Y922900D01*
D34*
X696840Y731520D02*
X696840Y717160D01*
X688340Y708660D01*
X601980Y708660D01*
X594360Y716280D01*
X594360Y751840D01*
X599440Y756920D01*
X607060Y756920D01*
D37*
X608720Y756920D01*
D34*
X678180Y939800D02*
X711200Y939800D01*
X566420Y855980D02*
X558800Y848360D01*
X558800Y820420D01*
X571500Y807720D02*
X571500Y784860D01*
X584200Y772160D01*
X594360Y772160D01*
X607060Y759460D01*
D39*
X607060Y756920D01*
D34*
X594360Y855980D02*
X678180Y939800D01*
X594360Y855980D02*
X566420Y855980D01*
X558800Y820420D02*
X571500Y807720D01*
D41*
X767080Y937260D03*
D34*
X743340Y937260D02*
X728980Y922900D01*
X743340Y937260D02*
X767080Y937260D01*
X735720Y922900D02*
X728980Y922900D01*
X735720Y922900D02*
X741680Y916940D01*
X741680Y769620D01*
X723900Y751840D01*
X699380Y751840D01*
D37*
X696840Y754380D01*
D33*
X672220Y871220D02*
X672220Y889000D01*
X672220Y871220D02*
X665907Y864907D01*
X665480Y863600D01*
D34*
X688340Y905900D02*
X708660Y905900D01*
X728980Y905900D01*
D37*
X688340Y905900D02*
X678960Y905900D01*
X672220Y899160D01*
X672220Y889000D01*
D33*
X665480Y863600D02*
X665480Y852678D01*
X669680Y866140D02*
X672220Y868680D01*
X669680Y866140D02*
X666649Y866140D01*
X665480Y864971D02*
X665480Y852678D01*
X665480Y864971D02*
X666649Y866140D01*
D34*
X538480Y883040D02*
X538480Y841880D01*
X534800Y838200D01*
X538480Y900040D02*
X555380Y900040D01*
D37*
X556260Y899160D01*
X557920Y886460D01*
D34*
X538480Y900040D02*
X515620Y922900D01*
X515620Y947420D01*
X592300Y949960D02*
X592300Y937740D01*
X557920Y903360D01*
X557920Y886460D01*
D40*
X538480Y900040D02*
X533840Y904680D01*
X464620Y835460D02*
X296380Y835460D01*
X464620Y835460D02*
X533840Y904680D01*
D33*
X618000Y646040D02*
X618880Y645160D01*
X618000Y646040D02*
X616340Y646040D01*
X612140Y650240D01*
X579120Y650240D01*
X579120Y599440D02*
X621420Y599440D01*
X623960Y548640D02*
X579120Y548640D01*
X1231900Y528320D02*
X1231900Y520700D01*
X1219200Y508000D01*
X1219200Y486918D01*
X1231646Y474472D01*
X1257300Y525526D02*
X1257300Y528320D01*
X1257300Y525526D02*
X1231646Y499872D01*
X1282700Y520700D02*
X1282700Y528320D01*
X1282700Y520700D02*
X1270000Y508000D01*
X1270000Y482600D01*
X1261872Y474472D01*
X1257046Y474472D01*
D39*
X3081020Y505460D02*
X3101340Y525780D01*
X3081020Y505460D02*
X3055620Y505460D01*
X3049778Y499618D01*
X3049778Y492506D01*
D33*
X1206500Y500126D02*
X1206500Y525780D01*
X1206500Y500126D02*
X1206246Y499872D01*
D37*
X2105660Y495554D02*
X2105660Y520700D01*
X2105660Y495554D02*
X2105152Y495046D01*
D33*
X3377565Y269875D02*
X3377565Y245682D01*
X3377565Y269875D02*
X3376490Y270950D01*
X3368040Y279400D01*
X274320Y279400D01*
X228600Y233680D01*
X228600Y158600D01*
D39*
X3376490Y270950D02*
X3379860Y274320D01*
D33*
X3371215Y266860D02*
X3371215Y245682D01*
X746760Y271780D02*
X711200Y236220D01*
X711200Y158600D01*
X3366295Y271780D02*
X3371215Y266860D01*
X3366295Y271780D02*
X746760Y271780D01*
D39*
X3371215Y245682D02*
X3371215Y230759D01*
X3375660Y226314D01*
X3421634Y226314D01*
X3441700Y246380D02*
X3443360Y246380D01*
X3441700Y246380D02*
X3421634Y226314D01*
D33*
X3364865Y245682D02*
X3364865Y264160D01*
X1221740Y264160D01*
X1193800Y236220D01*
X1193800Y158600D01*
D39*
X3364865Y224155D02*
X3364865Y245682D01*
X3364865Y224155D02*
X3370580Y218440D01*
X3433200Y218440D01*
X3440820Y226060D01*
D33*
X3358515Y245682D02*
X3358515Y254000D01*
X1686560Y254000D02*
X1678940Y246380D01*
X1676400Y158600D01*
X3281680Y254000D02*
X3358515Y254000D01*
X3281680Y254000D02*
X1686560Y254000D01*
D36*
X3281680Y242180D02*
X3282560Y241300D01*
X3281680Y242180D02*
X3281680Y254000D01*
D33*
X3241739Y196279D02*
X3345180Y196279D01*
X3345180Y191199D02*
X3358515Y191199D01*
X3241739Y196279D02*
X3241040Y195580D01*
D38*
X3241040Y195580D03*
D36*
X3343520Y208280D02*
X3345180Y206620D01*
X3345180Y196279D01*
X3345180Y191199D01*
D33*
X3364865Y191199D02*
X3364865Y174625D01*
X3060700Y137160D02*
X3017520Y180340D01*
X2700020Y180340D01*
X2697480Y182880D01*
X2651760Y182880D01*
X2644140Y175260D01*
X2641600Y158600D01*
X3332480Y142240D02*
X3364865Y174625D01*
X3332480Y142240D02*
X3319780Y142240D01*
X3319780Y137160D02*
X3060700Y137160D01*
D36*
X3319780Y142240D02*
X3319780Y154060D01*
X3319780Y142240D02*
X3319780Y137160D01*
D33*
X3371215Y191199D02*
X3370580Y191834D01*
X3370580Y203200D01*
X3350260Y223520D01*
X3182620Y185420D02*
X3139440Y185420D01*
X3126740Y172720D01*
X3124200Y158600D01*
X3337560Y223520D02*
X3350260Y223520D01*
X3337560Y223520D02*
X3220720Y223520D01*
X3182620Y185420D01*
D36*
X3335900Y236220D02*
X3337560Y234560D01*
X3337560Y223520D01*
D33*
X3609340Y180340D02*
X3609340Y158600D01*
X3383280Y210820D02*
X3377565Y205105D01*
X3377565Y191199D01*
X3591560Y198120D02*
X3609340Y180340D01*
X3591560Y198120D02*
X3544960Y198120D01*
X3543300Y198120D02*
X3530600Y210820D01*
X3383280Y210820D01*
X3543300Y198120D02*
X3543300Y196460D01*
X3544960Y198120D01*
D39*
X3412100Y205740D02*
X3399155Y205740D01*
D38*
X3435350Y199390D03*
D39*
X3418840Y199000D02*
X3412100Y205740D01*
D37*
X3418840Y199000D02*
X3419230Y199390D01*
X3435350Y199390D01*
X3451470Y199390D01*
X3451860Y199000D01*
D36*
X3886200Y243840D02*
X3888740Y246380D01*
X3886200Y243840D02*
X3746500Y243840D01*
D38*
X3746500Y243840D03*
D36*
X3695700Y177800D02*
X3680460Y177800D01*
D38*
X3680460Y177800D03*
D36*
X3318900Y236220D02*
X3302000Y236220D01*
D38*
X3302000Y236220D03*
D36*
X3323980Y175260D02*
X3319780Y171060D01*
X3323980Y175260D02*
X3335020Y175260D01*
D38*
X3335020Y175260D03*
D36*
X3326520Y208280D02*
X3309620Y208280D01*
D38*
X3309620Y208280D03*
D36*
X3265560Y241300D02*
X3251200Y241300D01*
D38*
X3251200Y241300D03*
D39*
X3457820Y226060D02*
X3460360Y228600D01*
X3472180Y228600D01*
D38*
X3472180Y228600D03*
D39*
X3472180Y234560D02*
X3460360Y246380D01*
X3472180Y234560D02*
X3472180Y228600D01*
X3411220Y274320D02*
X3396860Y274320D01*
D38*
X3411220Y274320D03*
D33*
X3399155Y205740D02*
X3396615Y203200D01*
X3396615Y191199D01*
D36*
X3504960Y193040D02*
X3515120Y182880D01*
X3525520Y182880D01*
D38*
X3525520Y182880D03*
D42*
X3528940Y179460D02*
X3543300Y179460D01*
X3528940Y179460D02*
X3525520Y182880D01*
D33*
X3402965Y188659D02*
X3402965Y191199D01*
X3402965Y188659D02*
X3408744Y182880D01*
D38*
X3434080Y182880D03*
D39*
X3408744Y182880D01*
D37*
X3434080Y182880D02*
X3450980Y182880D01*
D33*
X3451860Y182000D01*
D37*
X3434080Y182880D02*
X3419720Y182880D01*
X3418840Y182000D01*
D38*
X3746500Y261620D03*
D36*
X3695700Y234560D02*
X3693160Y237100D01*
X3693160Y248920D01*
D38*
X3693160Y248920D03*
D36*
X3452740Y182880D02*
X3451860Y182000D01*
X3452740Y182880D02*
X3464800Y182880D01*
X3474960Y193040D01*
D33*
X1968740Y162320D02*
X1960880Y162320D01*
X1912430Y117030D02*
X1901700Y117030D01*
X1912430Y117030D02*
X1915160Y114300D01*
X1915160Y101600D01*
X1916430Y100330D01*
X1917700Y99060D01*
X1936741Y99060D02*
X1937377Y98424D01*
X1958206Y98424D01*
X1959100Y97530D01*
X1936741Y99060D02*
X1917700Y99060D01*
D39*
X1901700Y45530D02*
X1899160Y45530D01*
X1891730Y38100D01*
D36*
X1883020Y38100D01*
D38*
X1917700Y101600D03*
D33*
X1916430Y100330D01*
D34*
X1883020Y38100D02*
X1884680Y25400D01*
D38*
X1884680Y25400D03*
D34*
X1960880Y162320D02*
X1978900Y162320D01*
X1981200Y160020D01*
X1983740Y160020D01*
D38*
X1983740Y160020D03*
D36*
X3876920Y129540D02*
X3898900Y129540D01*
D38*
X3898900Y129540D03*
D36*
X3723640Y177800D02*
X3710940Y177800D01*
D38*
X3723640Y177800D03*
X3942080Y129540D03*
D40*
X3958980Y129540D01*
D43*
X1972050Y97530D02*
X1959100Y97530D01*
X1972050Y97530D02*
X1976120Y101600D01*
X1976120Y104140D01*
D38*
X1976120Y104140D03*
D33*
X1960880Y118810D02*
X1960880Y132320D01*
X1960880Y118810D02*
X1959100Y117030D01*
D42*
X1958580Y134620D02*
X1936360Y134620D01*
X1958580Y134620D02*
X1960880Y132320D01*
X1924440Y155820D02*
X1892300Y155820D01*
X1936360Y143900D02*
X1936360Y134620D01*
X1936360Y143900D02*
X1924440Y155820D01*
D40*
X1936360Y154060D02*
X1936360Y134620D01*
X1936360Y154060D02*
X1935480Y154940D01*
D38*
X1935480Y154940D03*
D40*
X1866020Y38100D02*
X1864360Y38100D01*
X1856740Y30480D01*
X1851660Y30480D01*
D38*
X1851660Y30480D03*
D36*
X3710940Y198120D02*
X3726180Y198120D01*
D38*
X3726180Y198120D03*
D43*
X3538220Y137160D02*
X3526400Y137160D01*
X3538220Y137160D02*
X3543300Y132080D01*
X3544570Y133350D01*
D38*
X3544570Y133350D03*
D43*
X3405260Y105800D02*
X3390900Y105800D01*
X3405260Y105800D02*
X3408680Y109220D01*
D38*
X3408680Y109220D03*
D33*
X1901700Y104030D02*
X1887330Y104030D01*
X1879600Y126120D02*
X1892300Y138820D01*
X1879600Y126120D02*
X1879600Y111760D01*
X1887330Y104030D01*
D37*
X1944330Y110530D02*
X1959100Y110530D01*
X1944330Y110530D02*
X1938020Y116840D01*
D38*
X1938020Y116840D03*
D33*
X3390265Y191199D02*
X3390900Y190564D01*
X3390900Y149860D01*
X3970020Y73500D02*
X3980180Y73500D01*
X3987850Y81170D01*
X3987760Y104180D01*
X3975100Y116840D01*
X3507740Y116840D01*
X3488690Y135890D01*
X3477260Y147320D01*
D38*
X1605280Y27940D03*
D39*
X1544320Y27940D01*
X1539240Y22860D01*
X66040Y22860D01*
X50800Y38100D01*
X50800Y228600D01*
X58420Y236220D01*
X73500Y236220D01*
D33*
X3390900Y149860D02*
X3398520Y142240D01*
X3403600Y147320D02*
X3477260Y147320D01*
X3403600Y147320D02*
X3398520Y142240D01*
D38*
X3398520Y142240D03*
D43*
X3508130Y135890D02*
X3509400Y137160D01*
X3508130Y135890D02*
X3488690Y135890D01*
D36*
X73660Y236060D02*
X73500Y236220D01*
D33*
X1938130Y104030D02*
X1959100Y104030D01*
X1926590Y115570D02*
X1924050Y115570D01*
X1926590Y115570D02*
X1938130Y104030D01*
D38*
X1924050Y115570D03*
D33*
X3390900Y132080D02*
X3412490Y132080D01*
X3418840Y139700D02*
X3472180Y139700D01*
X3954780Y108740D02*
X3970020Y93500D01*
X3954780Y108740D02*
X3503140Y108740D01*
X3472180Y139700D01*
D38*
X1656080Y15240D03*
D39*
X58420Y15240D01*
X40640Y33020D01*
X40640Y236220D01*
X60960Y256540D01*
X71120Y256540D01*
D33*
X3383915Y141605D02*
X3390900Y134620D01*
X3383915Y141605D02*
X3383915Y191199D01*
D38*
X3412490Y133350D03*
D33*
X3412490Y132080D01*
X3412490Y133350D02*
X3418840Y139700D01*
D43*
X3390900Y132080D02*
X3390900Y122800D01*
D36*
X73660Y256060D02*
X71600Y256060D01*
X71120Y256540D01*
D33*
X3390900Y134620D02*
X3390900Y122800D01*
D39*
X1919360Y134620D02*
X1911740Y127000D01*
X1892300Y127000D02*
X1887220Y121920D01*
X1887220Y114300D01*
X1890990Y110530D02*
X1901700Y110530D01*
X1892300Y127000D02*
X1911740Y127000D01*
X1890990Y110530D02*
X1887220Y114300D01*
D33*
X640080Y852678D02*
X633730Y852678D01*
D42*
X627380Y857758D02*
X627380Y866140D01*
D33*
X632460Y852678D02*
X640080Y852678D01*
D42*
X632460Y852678D02*
X627380Y857758D01*
D38*
X627380Y866140D03*
X822960Y873760D03*
D42*
X927100Y873760D02*
X999490Y946150D01*
X927100Y873760D02*
X822960Y873760D01*
X876300Y871220D02*
X881380Y866140D01*
X876300Y871220D02*
X825500Y871220D01*
X822960Y873760D01*
D33*
X881380Y866140D02*
X881380Y678180D01*
X868680Y665480D01*
X850900Y665480D01*
D34*
X1750060Y660400D02*
X1765300Y660400D01*
X1785620Y680720D01*
X1785620Y800100D01*
X1639570Y946150D02*
X999490Y946150D01*
D33*
X1784350Y801370D02*
X1785620Y800100D01*
D34*
X1784350Y801370D02*
X1639570Y946150D01*
X1784350Y801370D02*
X2167890Y801370D01*
X2319020Y952500D01*
X2534920Y952500D01*
X2667000Y820420D01*
X2667000Y668020D01*
X2656840Y657860D02*
X2644140Y657860D01*
X2656840Y657860D02*
X2667000Y668020D01*
D33*
X640080Y787400D02*
X640080Y798322D01*
D34*
X632460Y779780D02*
X625720Y779780D01*
D33*
X632460Y779780D02*
X640080Y787400D01*
D34*
X625720Y779780D02*
X625720Y756920D01*
X625720Y734060D01*
D33*
X665480Y789842D02*
X665480Y798322D01*
X665480Y789842D02*
X665578Y789842D01*
X678180Y777240D02*
X679840Y777240D01*
X678180Y777240D02*
X665578Y789842D01*
D34*
X679840Y777240D02*
X679840Y754380D01*
X679840Y731520D01*
D33*
X675132Y795020D02*
X671830Y798322D01*
X675132Y795020D02*
X688340Y795020D01*
D34*
X696840Y786520D01*
X696840Y777240D01*
D38*
X713740Y782320D03*
D40*
X708660Y777240D01*
X696840Y777240D01*
D33*
X633730Y798322D02*
X630428Y795020D01*
D34*
X608720Y786520D02*
X608720Y779780D01*
X617220Y795020D02*
X630428Y795020D01*
X617220Y795020D02*
X608720Y786520D01*
D38*
X584200Y792480D03*
D40*
X596020Y792480D01*
X608720Y779780D01*
D38*
X643890Y829536D03*
D33*
X643890Y826996D01*
X646571Y829677D01*
X646430Y829818D01*
X646430Y852678D01*
D34*
X381000Y741840D02*
X380840Y741680D01*
X355600Y741680D01*
X320040Y706120D01*
X320040Y528320D01*
X312220Y520500D02*
X296380Y520500D01*
X312220Y520500D02*
X320040Y528320D01*
D44*
X4179888Y928196D03*
D33*
X4179396Y928196D02*
X4107180Y855980D01*
D42*
X4179396Y928196D02*
X4179888Y928196D01*
D45*
X4107180Y855980D02*
X4038600Y855980D01*
X4030980Y848360D01*
X4030980Y840740D01*
D44*
X4179888Y847640D03*
D33*
X4063280Y847640D01*
X4056380Y840740D01*
D44*
X4179888Y767084D03*
D33*
X4118932Y828040D01*
X4041140Y828040D01*
X4030980Y817880D01*
X4030980Y815340D01*
D44*
X4179888Y686529D03*
D33*
X4109720Y815340D02*
X4056380Y815340D01*
X4109720Y815340D02*
X4130040Y795020D01*
X4130040Y734060D01*
X4177571Y686529D01*
X4179888Y686529D01*
D44*
X4179888Y605973D03*
D33*
X4030980Y789940D02*
X4043680Y802640D01*
X4107180Y802640D02*
X4122420Y787400D01*
X4122420Y663441D02*
X4179888Y605973D01*
X4107180Y802640D02*
X4043680Y802640D01*
X4122420Y787400D02*
X4122420Y663441D01*
D44*
X4179888Y525418D03*
D33*
X4104640Y789940D02*
X4056380Y789940D01*
X4104640Y789940D02*
X4114800Y779780D01*
X4114800Y584200D01*
X4173582Y525418D01*
X4179888Y525418D01*
D44*
X4179888Y444862D03*
D33*
X4030980Y764540D02*
X4043680Y777240D01*
X4099560Y777240D02*
X4107180Y769620D01*
X4107180Y517570D02*
X4179888Y444862D01*
X4099560Y777240D02*
X4043680Y777240D01*
X4107180Y769620D02*
X4107180Y517570D01*
D44*
X4179888Y364307D03*
X4179888Y283751D03*
X4179888Y203196D03*
X4179888Y122640D03*
X4179888Y42084D03*
D46*
X4284980Y784860D03*
X4284980Y581660D03*
X4284980Y378460D03*
X4284980Y175260D03*
D42*
X825500Y665480D02*
X800100Y665480D01*
D34*
X1709420Y660400D02*
X1724660Y660400D01*
X1709420Y660400D02*
X1704340Y665480D01*
X2611120Y657860D02*
X2618740Y657860D01*
X2611120Y657860D02*
X2595880Y673100D01*
D42*
X769620Y695960D02*
X769620Y805180D01*
X767080Y805180D01*
D38*
X767080Y805180D03*
X713740Y845820D03*
D42*
X769620Y695960D02*
X800100Y665480D01*
X825500Y665480D02*
X825500Y660400D01*
X835660Y650240D01*
X896620Y650240D01*
D34*
X1264920Y932180D02*
X1628140Y932180D01*
X1704340Y855980D01*
X1704340Y665480D01*
D42*
X1066800Y853440D02*
X896620Y650240D01*
X1066800Y853440D02*
X1186180Y853440D01*
X1264920Y932180D01*
X1724660Y660400D02*
X1724660Y647700D01*
D34*
X1732280Y640080D01*
X2143760Y640080D01*
X2199640Y692468D01*
X2199640Y812800D01*
X2326640Y939800D01*
X2524760Y939800D01*
X2595880Y868680D02*
X2595880Y673100D01*
X2595880Y868680D02*
X2524760Y939800D01*
D37*
X719700Y873760D02*
X719700Y851780D01*
X713740Y845820D01*
X497840Y99060D02*
X76200Y99060D01*
X497840Y99060D02*
X543560Y144780D01*
X607060Y144780D01*
X640080Y111760D01*
X777240Y111760D01*
X807720Y142240D01*
X1104900Y142240D02*
X1127760Y119380D01*
X1270000Y119380D01*
X1290320Y139700D01*
X1587500Y139700D01*
X1636020Y91180D01*
X1892344Y91180D01*
X1892362Y91162D01*
X1901568Y91162D01*
X1901700Y91030D01*
X1104900Y142240D02*
X807720Y142240D01*
D38*
X1625600Y66040D03*
D37*
X1637590Y78030D01*
X1901700Y78030D01*
D38*
X1663700Y45720D03*
D37*
X1683010Y65030D01*
X1901700Y65030D01*
X1901700Y52030D02*
X1703030Y52030D01*
X1678940Y27940D01*
X1635760Y27940D01*
X1526540Y99060D02*
X1524000Y96520D01*
X1564640Y99060D02*
X1635760Y27940D01*
X1564640Y99060D02*
X1526540Y99060D01*
X1647450Y97530D02*
X1901700Y97530D01*
X1647450Y97530D02*
X1592580Y152400D01*
X1280160Y152400D01*
X1257300Y129540D01*
X1137920Y129540D01*
X800100Y154940D02*
X767080Y121920D01*
X645160Y121920D01*
X612140Y154940D01*
X535940Y154940D01*
X505460Y124460D02*
X76200Y124460D01*
X1112520Y154940D02*
X1137920Y129540D01*
X1112520Y154940D02*
X800100Y154940D01*
X535940Y154940D02*
X505460Y124460D01*
X1620520Y83820D02*
X1621230Y84530D01*
X1901700Y84530D01*
D38*
X1620520Y83820D03*
D37*
X1661570Y71530D02*
X1901700Y71530D01*
D38*
X1643380Y53340D03*
D37*
X1661570Y71530D01*
X1551940Y121920D02*
X1524000Y121920D01*
X1551940Y121920D02*
X1638300Y35560D01*
X1671320Y35560D01*
X1694290Y58530D02*
X1901700Y58530D01*
X1694290Y58530D02*
X1671320Y35560D01*
D33*
X1947470Y84530D02*
X1959100Y84530D01*
X1947470Y84530D02*
X1940560Y91440D01*
X1930400Y91440D01*
D38*
X1930400Y91440D03*
D33*
X1930810Y71530D02*
X1959100Y71530D01*
X1930810Y71530D02*
X1930400Y71120D01*
D38*
X1930400Y71120D03*
D33*
X1958990Y58420D02*
X1959100Y58530D01*
X1958990Y58420D02*
X1945640Y58420D01*
X1940560Y53340D01*
X1940560Y48260D01*
D38*
X1940560Y48260D03*
D33*
X1959100Y45530D02*
X1966720Y45530D01*
X1989390Y22860D01*
X2026920Y22860D02*
X2039620Y35560D01*
X2039620Y109220D01*
X2024380Y124460D02*
X2006600Y124460D01*
X1989390Y22860D02*
X2026920Y22860D01*
X2039620Y109220D02*
X2024380Y124460D01*
X2550160Y139700D02*
X2583180Y106680D01*
X2804160Y106680D01*
X2837180Y139700D01*
X2997200Y139700D01*
X3045460Y91440D01*
X3449320Y91440D01*
X3454400Y96520D01*
X2550160Y139700D02*
X2245360Y139700D01*
X2230120Y124460D01*
X2103120Y124460D01*
X2087880Y139700D01*
X1993900Y139700D01*
X1986280Y132080D01*
X1986280Y101600D01*
X1975710Y91030D02*
X1959100Y91030D01*
X1975710Y91030D02*
X1986280Y101600D01*
D38*
X1938020Y81280D03*
D33*
X1940560Y78740D01*
X1958390Y78740D02*
X1959100Y78030D01*
X1958390Y78740D02*
X1940560Y78740D01*
X1939550Y65030D02*
X1959100Y65030D01*
X1939550Y65030D02*
X1930400Y55880D01*
D38*
X1930400Y55880D03*
D33*
X1959100Y52030D02*
X1972350Y52030D01*
X1993900Y30480D01*
X2021840Y30480D01*
X2032000Y40640D01*
X2032000Y91440D01*
X2024380Y99060D01*
X2006600Y99060D01*
D42*
X601980Y838200D02*
X582800Y838200D01*
X601980Y838200D02*
X612140Y838200D01*
X629920Y820420D01*
X660400Y820420D01*
X685038Y845058D02*
X688458Y845058D01*
X689220Y852678D02*
X689220Y868680D01*
X689220Y889000D01*
X685038Y845058D02*
X660400Y820420D01*
X689220Y887240D02*
X689220Y889000D01*
X689220Y887240D02*
X702700Y873760D01*
D39*
X689220Y852678D02*
X671830Y852678D01*
D34*
X601980Y838200D02*
X601980Y810260D01*
D36*
X688458Y845058D02*
X689220Y845820D01*
X689220Y852678D01*
D34*
X2473960Y769620D02*
X2490860Y769620D01*
X2473960Y769620D02*
X2468880Y774700D01*
X2490860Y769620D02*
X2490860Y792480D01*
X2490860Y769620D02*
X2490860Y738260D01*
X2489200Y736600D01*
X3387480Y802640D02*
X3387480Y822960D01*
X3387480Y802640D02*
X3387480Y773820D01*
X3383280Y769620D01*
X3387480Y802640D02*
X3370580Y802640D01*
X3365500Y807720D01*
D36*
X3850200Y162560D02*
X3859920Y151960D01*
X3859920Y129540D01*
D38*
X3794760Y134620D03*
D40*
X3795200Y134180D02*
X3795200Y162560D01*
X3794760Y134620D02*
X3795200Y134180D01*
D38*
X3891280Y162560D03*
D40*
X3922200Y162560D01*
X3977200Y162560D02*
X3977200Y130760D01*
X3975980Y129540D01*
D33*
X3383915Y245682D02*
X3383915Y262255D01*
X3385820Y264160D01*
X3413760Y264160D01*
X3418840Y269240D01*
X3487420Y269240D02*
X3487420Y264160D01*
X3487420Y269240D02*
X3418840Y269240D01*
X3390265Y245682D02*
X3390265Y237109D01*
X3395980Y231394D01*
X3408934Y231394D01*
X3436620Y259080D01*
X3467100Y259080D01*
X3484880Y241300D01*
X3505200Y241300D01*
X3512820Y248920D02*
X3512820Y264160D01*
X3512820Y248920D02*
X3505200Y241300D01*
X3396615Y245682D02*
X3396615Y257175D01*
X3398520Y259080D01*
X3423920Y259080D01*
D38*
X3423920Y259080D03*
D36*
X3695700Y217560D02*
X3695700Y198120D01*
M02*
