G04 EAGLE Gerber RS-274X export*
G75*
%MOMM*%
%FSLAX34Y34*%
%LPD*%
%INSolderpaste Top*%
%IPPOS*%
%AMOC8*
5,1,8,0,0,1.08239X$1,22.5*%
G01*
%ADD10R,1.000000X1.100000*%
%ADD11R,1.100000X1.000000*%
%ADD12R,3.000000X1.400000*%
%ADD13R,0.355600X1.460500*%
%ADD14C,0.102500*%
%ADD15R,2.000000X1.500000*%
%ADD16R,0.304800X0.990600*%
%ADD17R,1.500000X2.600000*%
%ADD18C,0.222250*%
%ADD19R,1.600000X2.400000*%


D10*
X520700Y737480D03*
X520700Y720480D03*
X520700Y778120D03*
X520700Y761120D03*
X373380Y651120D03*
X373380Y634120D03*
X373380Y605400D03*
X373380Y588400D03*
D11*
X1589160Y782320D03*
X1606160Y782320D03*
X1641212Y782574D03*
X1624212Y782574D03*
D10*
X373380Y512200D03*
X373380Y529200D03*
X489340Y495300D03*
X506340Y495300D03*
X489340Y568960D03*
X506340Y568960D03*
X672220Y889000D03*
X689220Y889000D03*
D11*
X688340Y922900D03*
X688340Y905900D03*
X708660Y922900D03*
X708660Y905900D03*
X728980Y922900D03*
X728980Y905900D03*
X538480Y883040D03*
X538480Y900040D03*
D10*
X574920Y886460D03*
X557920Y886460D03*
D12*
X534800Y838200D03*
X582800Y838200D03*
D11*
X469900Y590940D03*
X469900Y607940D03*
D10*
X640960Y548640D03*
X623960Y548640D03*
X638420Y599440D03*
X621420Y599440D03*
X635880Y645160D03*
X618880Y645160D03*
D13*
X3402965Y245682D03*
X3396615Y245682D03*
X3390265Y245682D03*
X3383915Y245682D03*
X3377565Y245682D03*
X3371215Y245682D03*
X3364865Y245682D03*
X3358515Y245682D03*
X3358515Y191199D03*
X3364865Y191199D03*
X3371215Y191199D03*
X3377565Y191199D03*
X3383915Y191199D03*
X3390265Y191199D03*
X3396615Y191199D03*
X3402965Y191199D03*
D14*
X1909038Y115492D02*
X1894362Y115492D01*
X1894362Y118568D01*
X1909038Y118568D01*
X1909038Y115492D01*
X1909038Y116466D02*
X1894362Y116466D01*
X1894362Y117440D02*
X1909038Y117440D01*
X1909038Y118414D02*
X1894362Y118414D01*
X1894362Y108992D02*
X1909038Y108992D01*
X1894362Y108992D02*
X1894362Y112068D01*
X1909038Y112068D01*
X1909038Y108992D01*
X1909038Y109966D02*
X1894362Y109966D01*
X1894362Y110940D02*
X1909038Y110940D01*
X1909038Y111914D02*
X1894362Y111914D01*
X1894362Y102492D02*
X1909038Y102492D01*
X1894362Y102492D02*
X1894362Y105568D01*
X1909038Y105568D01*
X1909038Y102492D01*
X1909038Y103466D02*
X1894362Y103466D01*
X1894362Y104440D02*
X1909038Y104440D01*
X1909038Y105414D02*
X1894362Y105414D01*
X1894362Y95992D02*
X1909038Y95992D01*
X1894362Y95992D02*
X1894362Y99068D01*
X1909038Y99068D01*
X1909038Y95992D01*
X1909038Y96966D02*
X1894362Y96966D01*
X1894362Y97940D02*
X1909038Y97940D01*
X1909038Y98914D02*
X1894362Y98914D01*
X1894362Y89492D02*
X1909038Y89492D01*
X1894362Y89492D02*
X1894362Y92568D01*
X1909038Y92568D01*
X1909038Y89492D01*
X1909038Y90466D02*
X1894362Y90466D01*
X1894362Y91440D02*
X1909038Y91440D01*
X1909038Y92414D02*
X1894362Y92414D01*
X1894362Y82992D02*
X1909038Y82992D01*
X1894362Y82992D02*
X1894362Y86068D01*
X1909038Y86068D01*
X1909038Y82992D01*
X1909038Y83966D02*
X1894362Y83966D01*
X1894362Y84940D02*
X1909038Y84940D01*
X1909038Y85914D02*
X1894362Y85914D01*
X1894362Y76492D02*
X1909038Y76492D01*
X1894362Y76492D02*
X1894362Y79568D01*
X1909038Y79568D01*
X1909038Y76492D01*
X1909038Y77466D02*
X1894362Y77466D01*
X1894362Y78440D02*
X1909038Y78440D01*
X1909038Y79414D02*
X1894362Y79414D01*
X1894362Y69992D02*
X1909038Y69992D01*
X1894362Y69992D02*
X1894362Y73068D01*
X1909038Y73068D01*
X1909038Y69992D01*
X1909038Y70966D02*
X1894362Y70966D01*
X1894362Y71940D02*
X1909038Y71940D01*
X1909038Y72914D02*
X1894362Y72914D01*
X1894362Y63492D02*
X1909038Y63492D01*
X1894362Y63492D02*
X1894362Y66568D01*
X1909038Y66568D01*
X1909038Y63492D01*
X1909038Y64466D02*
X1894362Y64466D01*
X1894362Y65440D02*
X1909038Y65440D01*
X1909038Y66414D02*
X1894362Y66414D01*
X1894362Y56992D02*
X1909038Y56992D01*
X1894362Y56992D02*
X1894362Y60068D01*
X1909038Y60068D01*
X1909038Y56992D01*
X1909038Y57966D02*
X1894362Y57966D01*
X1894362Y58940D02*
X1909038Y58940D01*
X1909038Y59914D02*
X1894362Y59914D01*
X1894362Y50492D02*
X1909038Y50492D01*
X1894362Y50492D02*
X1894362Y53568D01*
X1909038Y53568D01*
X1909038Y50492D01*
X1909038Y51466D02*
X1894362Y51466D01*
X1894362Y52440D02*
X1909038Y52440D01*
X1909038Y53414D02*
X1894362Y53414D01*
X1894362Y43992D02*
X1909038Y43992D01*
X1894362Y43992D02*
X1894362Y47068D01*
X1909038Y47068D01*
X1909038Y43992D01*
X1909038Y44966D02*
X1894362Y44966D01*
X1894362Y45940D02*
X1909038Y45940D01*
X1909038Y46914D02*
X1894362Y46914D01*
X1951762Y43992D02*
X1966438Y43992D01*
X1951762Y43992D02*
X1951762Y47068D01*
X1966438Y47068D01*
X1966438Y43992D01*
X1966438Y44966D02*
X1951762Y44966D01*
X1951762Y45940D02*
X1966438Y45940D01*
X1966438Y46914D02*
X1951762Y46914D01*
X1951762Y50492D02*
X1966438Y50492D01*
X1951762Y50492D02*
X1951762Y53568D01*
X1966438Y53568D01*
X1966438Y50492D01*
X1966438Y51466D02*
X1951762Y51466D01*
X1951762Y52440D02*
X1966438Y52440D01*
X1966438Y53414D02*
X1951762Y53414D01*
X1951762Y56992D02*
X1966438Y56992D01*
X1951762Y56992D02*
X1951762Y60068D01*
X1966438Y60068D01*
X1966438Y56992D01*
X1966438Y57966D02*
X1951762Y57966D01*
X1951762Y58940D02*
X1966438Y58940D01*
X1966438Y59914D02*
X1951762Y59914D01*
X1951762Y63492D02*
X1966438Y63492D01*
X1951762Y63492D02*
X1951762Y66568D01*
X1966438Y66568D01*
X1966438Y63492D01*
X1966438Y64466D02*
X1951762Y64466D01*
X1951762Y65440D02*
X1966438Y65440D01*
X1966438Y66414D02*
X1951762Y66414D01*
X1951762Y69992D02*
X1966438Y69992D01*
X1951762Y69992D02*
X1951762Y73068D01*
X1966438Y73068D01*
X1966438Y69992D01*
X1966438Y70966D02*
X1951762Y70966D01*
X1951762Y71940D02*
X1966438Y71940D01*
X1966438Y72914D02*
X1951762Y72914D01*
X1951762Y76492D02*
X1966438Y76492D01*
X1951762Y76492D02*
X1951762Y79568D01*
X1966438Y79568D01*
X1966438Y76492D01*
X1966438Y77466D02*
X1951762Y77466D01*
X1951762Y78440D02*
X1966438Y78440D01*
X1966438Y79414D02*
X1951762Y79414D01*
X1951762Y82992D02*
X1966438Y82992D01*
X1951762Y82992D02*
X1951762Y86068D01*
X1966438Y86068D01*
X1966438Y82992D01*
X1966438Y83966D02*
X1951762Y83966D01*
X1951762Y84940D02*
X1966438Y84940D01*
X1966438Y85914D02*
X1951762Y85914D01*
X1951762Y89492D02*
X1966438Y89492D01*
X1951762Y89492D02*
X1951762Y92568D01*
X1966438Y92568D01*
X1966438Y89492D01*
X1966438Y90466D02*
X1951762Y90466D01*
X1951762Y91440D02*
X1966438Y91440D01*
X1966438Y92414D02*
X1951762Y92414D01*
X1951762Y95992D02*
X1966438Y95992D01*
X1951762Y95992D02*
X1951762Y99068D01*
X1966438Y99068D01*
X1966438Y95992D01*
X1966438Y96966D02*
X1951762Y96966D01*
X1951762Y97940D02*
X1966438Y97940D01*
X1966438Y98914D02*
X1951762Y98914D01*
X1951762Y102492D02*
X1966438Y102492D01*
X1951762Y102492D02*
X1951762Y105568D01*
X1966438Y105568D01*
X1966438Y102492D01*
X1966438Y103466D02*
X1951762Y103466D01*
X1951762Y104440D02*
X1966438Y104440D01*
X1966438Y105414D02*
X1951762Y105414D01*
X1951762Y108992D02*
X1966438Y108992D01*
X1951762Y108992D02*
X1951762Y112068D01*
X1966438Y112068D01*
X1966438Y108992D01*
X1966438Y109966D02*
X1951762Y109966D01*
X1951762Y110940D02*
X1966438Y110940D01*
X1966438Y111914D02*
X1951762Y111914D01*
X1951762Y115492D02*
X1966438Y115492D01*
X1951762Y115492D02*
X1951762Y118568D01*
X1966438Y118568D01*
X1966438Y115492D01*
X1966438Y116466D02*
X1951762Y116466D01*
X1951762Y117440D02*
X1966438Y117440D01*
X1966438Y118414D02*
X1951762Y118414D01*
D10*
X1936360Y134620D03*
X1919360Y134620D03*
D11*
X1866020Y38100D03*
X1883020Y38100D03*
D15*
X1960880Y132320D03*
X1960880Y162320D03*
D11*
X1892300Y138820D03*
X1892300Y155820D03*
D16*
X671830Y852678D03*
X665480Y852678D03*
X659130Y852678D03*
X652780Y852678D03*
X646430Y852678D03*
X640080Y852678D03*
X633730Y852678D03*
X671830Y798322D03*
X665480Y798322D03*
X659130Y798322D03*
X652780Y798322D03*
X646430Y798322D03*
X640080Y798322D03*
X633730Y798322D03*
D10*
X608720Y756920D03*
X625720Y756920D03*
X608720Y734060D03*
X625720Y734060D03*
X696840Y754380D03*
X679840Y754380D03*
X696840Y731520D03*
X679840Y731520D03*
X625720Y779780D03*
X608720Y779780D03*
X679840Y777240D03*
X696840Y777240D03*
X553720Y737480D03*
X553720Y720480D03*
D11*
X663820Y774700D03*
X646820Y774700D03*
X641740Y876300D03*
X658740Y876300D03*
D10*
X553720Y778120D03*
X553720Y761120D03*
X350520Y651120D03*
X350520Y634120D03*
X350520Y605400D03*
X350520Y588400D03*
X347980Y512200D03*
X347980Y529200D03*
D11*
X1641720Y805180D03*
X1624720Y805180D03*
X1589160Y805180D03*
X1606160Y805180D03*
D10*
X702700Y873760D03*
X719700Y873760D03*
D11*
X2490860Y769620D03*
X2507860Y769620D03*
X2540880Y769620D03*
X2523880Y769620D03*
X2540880Y792480D03*
X2523880Y792480D03*
X2490860Y792480D03*
X2507860Y792480D03*
X3387480Y802640D03*
X3404480Y802640D03*
X3437500Y802640D03*
X3420500Y802640D03*
X3437500Y822960D03*
X3420500Y822960D03*
X3387480Y822960D03*
X3404480Y822960D03*
D10*
X3418840Y182000D03*
X3418840Y199000D03*
X3451860Y182000D03*
X3451860Y199000D03*
D17*
X3837700Y162560D03*
X3807700Y162560D03*
D10*
X3859920Y129540D03*
X3876920Y129540D03*
D18*
X3699034Y194786D02*
X3692366Y194786D01*
X3692366Y201454D01*
X3699034Y201454D01*
X3699034Y194786D01*
X3699034Y196898D02*
X3692366Y196898D01*
X3692366Y199010D02*
X3699034Y199010D01*
X3699034Y201122D02*
X3692366Y201122D01*
X3707606Y194786D02*
X3714274Y194786D01*
X3707606Y194786D02*
X3707606Y201454D01*
X3714274Y201454D01*
X3714274Y194786D01*
X3714274Y196898D02*
X3707606Y196898D01*
X3707606Y199010D02*
X3714274Y199010D01*
X3714274Y201122D02*
X3707606Y201122D01*
X3699034Y174466D02*
X3692366Y174466D01*
X3692366Y181134D01*
X3699034Y181134D01*
X3699034Y174466D01*
X3699034Y176578D02*
X3692366Y176578D01*
X3692366Y178690D02*
X3699034Y178690D01*
X3699034Y180802D02*
X3692366Y180802D01*
X3707606Y174466D02*
X3714274Y174466D01*
X3707606Y174466D02*
X3707606Y181134D01*
X3714274Y181134D01*
X3714274Y174466D01*
X3714274Y176578D02*
X3707606Y176578D01*
X3707606Y178690D02*
X3714274Y178690D01*
X3714274Y180802D02*
X3707606Y180802D01*
D11*
X3379860Y274320D03*
X3396860Y274320D03*
X3443360Y246380D03*
X3460360Y246380D03*
X3440820Y226060D03*
X3457820Y226060D03*
X3282560Y241300D03*
X3265560Y241300D03*
X3343520Y208280D03*
X3326520Y208280D03*
D10*
X3319780Y154060D03*
X3319780Y171060D03*
D11*
X3335900Y236220D03*
X3318900Y236220D03*
D10*
X3543300Y196460D03*
X3543300Y179460D03*
D17*
X3964700Y162560D03*
X3934700Y162560D03*
D10*
X3975980Y129540D03*
X3958980Y129540D03*
D11*
X3390900Y105800D03*
X3390900Y122800D03*
D10*
X3526400Y137160D03*
X3509400Y137160D03*
D11*
X3695700Y234560D03*
X3695700Y217560D03*
X672220Y868680D03*
X689220Y868680D03*
D19*
X3474960Y193040D03*
X3504960Y193040D03*
M02*
