M48
;GenerationSoftware,Autodesk,EAGLE,9.7.0*%
;CreationDate,2023-07-01T21:55:32Z*%
FMAT,2
ICI,OFF
METRIC,TZ,000.000
T5C0.800
T4C1.000
T3C1.016
T2C3.048
T1C3.175
%
G90
M71
T1
X17805Y82804
X17805Y74213
X17805Y65634
X17805Y57134
X17805Y48476
X17805Y39897
X17805Y31318
X17805Y22739
X17805Y14160
X17805Y5581
X26467Y66083
X26467Y22500
T2
X26817Y79216
X26817Y9415
X26817Y44287
X20739Y88696
X22606Y69596
X22606Y25908
X43942Y80010
X43942Y7366
X64770Y52832
X70612Y15748
X85344Y88138
X100584Y86106
X100584Y13462
X121412Y58928
X127254Y21844
X141986Y94234
T3
X130810Y55626
X81026Y15494
X75438Y33020
X87630Y5334
X75438Y21590
X137668Y8890
X144526Y55626
X141732Y74676
X132080Y17526
X5334Y67056
X26924Y59436
X26670Y17272
T4
X2794Y78232
X5334Y78232
X2794Y75692
X5334Y75692
X2794Y73152
X5334Y73152
X2794Y70612
X5334Y70612
X5334Y80772
X2794Y80772
X5334Y83312
X82550Y39624
X80010Y39624
X82550Y37084
X80010Y37084
X82550Y34544
X80010Y34544
X82550Y32004
X80010Y32004
X82550Y29464
X80010Y29464
X82550Y26924
X80010Y26924
X82550Y24384
X80010Y24384
X82550Y21844
X80010Y21844
X2794Y83312
X5334Y85852
X2794Y85852
X5334Y88392
X136652Y15240
X139192Y15240
X136652Y17780
X139192Y17780
X136652Y20320
X139192Y20320
X136652Y22860
X139192Y22860
X136652Y25400
X139192Y25400
X136652Y27940
X139192Y27940
X136652Y30480
X139192Y30480
X136652Y33020
X139192Y33020
X2794Y88392
X5334Y90932
X2794Y90932
X5334Y93472
X2794Y93472
T5
X57404Y81883
X40945Y68714
X40945Y70714
X40945Y72714
X57404Y79883
X57429Y61849
X57429Y63849
X40945Y50654
X40945Y52654
X40945Y54654
X57429Y41561
X57429Y43561
X57429Y45561
X40919Y32519
X40919Y34519
X40919Y36519
X57404Y23375
X57404Y25375
X57404Y27375
X40919Y14434
X40919Y16434
X40919Y18434
X57429Y5214
X57429Y7214
X57429Y9214
X57404Y77883
X40970Y90849
X40970Y88849
X40970Y86849
X55702Y88833
X55702Y86833
X72136Y79867
X72136Y77867
X55677Y70698
X55677Y68698
X72161Y61833
X72161Y59833
X55677Y52638
X55677Y50638
X72161Y43545
X72161Y41545
X55651Y34503
X55651Y32503
X72136Y25359
X72136Y23359
X128803Y11130
X128803Y13130
X112293Y20228
X112293Y22228
X128778Y29264
X128778Y31264
X112293Y38503
X112293Y40503
X128803Y47641
X128803Y49641
X112319Y56734
X112319Y58734
X128803Y66024
X128803Y68024
X112319Y74984
X112319Y76984
X128778Y84249
X128778Y86249
X112344Y93310
X112344Y95310
X97612Y93326
X97612Y95326
X97612Y97326
X114046Y84265
X114046Y86265
X114046Y88265
X97587Y75000
X97587Y77000
X97587Y79000
X114071Y66040
X114071Y68040
X114071Y70040
X97587Y56750
X97587Y58750
X97587Y60750
X114071Y47657
X114071Y49657
X114071Y51657
X97561Y38519
X97561Y40519
X97561Y42519
X114046Y29280
X114046Y31280
X114046Y33280
X97561Y20244
X97561Y22244
X97561Y24244
X114071Y11310
X114071Y13310
X114071Y15310
X55651Y16418
X55651Y14418
X72161Y7198
X72161Y5198
X57429Y59849
M30