M48
;GenerationSoftware,Autodesk,EAGLE,9.6.2*%
;CreationDate,2021-01-03T22:07:24Z*%
FMAT,2
ICI,OFF
METRIC,TZ,000.000
T27C0.350
T26C0.500
T25C0.550
T24C0.650
T23C0.700
T22C0.800
T21C0.813
T20C0.889
T19C0.900
T18C1.000
T17C1.016
T16C1.200
T15C1.600
T14C1.651
T13C1.800
T12C1.854
T11C2.032
T10C2.200
T9C2.550
T8C3.048
T7C3.175
T6C3.277
T5C3.302
T4C3.500
T3C3.556
T2C3.683
T1C5.080
%
G90
M71
T1
X141732Y21844
X129032Y21844
X117602Y21844
X106172Y21844
X94742Y21844
X83312Y21844
T2
X243662Y52299
X268224Y8941
X268199Y33198
X267919Y52324
X13462Y226771
X13487Y202514
X238455Y185674
X214198Y185649
X253492Y201625
X253517Y177368
T3
X38481Y37592
X6731Y37592
X12446Y141478
X12446Y126492
T4
X71934Y225008
X40334Y225008
X71934Y195308
X40334Y195308
T5
X33020Y171018
X33020Y155143
T6
X16891Y39497
X28321Y39497
T7
X200025Y156362
X163500Y46457
X232283Y89789
X163449Y94615
X56324Y14637
X65056Y14637
X73787Y14637
X82518Y14637
X5842Y112776
X91249Y14637
X99981Y14637
X108712Y14637
X117443Y14637
X126174Y14637
X134906Y14637
X143637Y14637
X152368Y14637
X82423Y46228
X102616Y173736
X202946Y173736
X268834Y151536
X200101Y108179
X152146Y31877
X166751Y32004
X82423Y108204
X268859Y107188
X208915Y156210
X89281Y50800
X232791Y45720
X55118Y32131
X208407Y22098
X241935Y12700
X190881Y29718
X166751Y12192
X151257Y89535
X82423Y94361
X144399Y111252
X235585Y134620
X205105Y70866
X116205Y71628
X5588Y54356
X72136Y53848
X71882Y113284
X67310Y26543
T8
X138176Y233934
X180340Y203962
X129032Y200406
X48514Y197104
X76708Y213614
X35306Y213868
X47879Y231648
X176530Y233172
X55118Y178816
X34844Y160122
X73198Y160879
X31034Y130909
X82344Y127345
X162855Y124054
X163505Y158585
X35306Y203708
X176068Y130650
X157480Y198882
X167640Y222758
X186690Y215138
X134620Y213614
X110998Y213106
X95504Y200914
X101092Y209804
X128524Y234696
X69342Y127762
X70358Y178816
X55118Y23876
X152146Y23622
T9
X76634Y177292
X91514Y177292
T10
X267906Y82008
X25650Y174464
X15050Y174464
X257306Y82008
T11
X215825Y238404
X138176Y27940
X234367Y238658
X215571Y214020
X234875Y214020
X252401Y238658
X141224Y27940
X144272Y27940
X132334Y27940
X129286Y27940
X126238Y27940
X120650Y27940
X117602Y27940
X114554Y27940
X108712Y27940
X105664Y27940
X102616Y27940
X98044Y27940
X94996Y27940
X91694Y27940
X86614Y27940
X83566Y27940
X80518Y27940
T12
X149496Y231902
X158861Y231902
X186579Y232410
X195944Y232410
T13
X117206Y232156
X105806Y232156
T14
X30480Y35611
X14732Y35611
T15
X256956Y78908
X268256Y78908
X256956Y85208
X268256Y85208
X256956Y72608
X75949Y172452
X92199Y172452
X14700Y165064
X26000Y165064
X14700Y177664
X26000Y177664
X14700Y171364
X26000Y171364
X268256Y72608
T16
X193762Y224910
X191262Y224910
X188762Y224910
X156678Y224402
X154178Y224402
X151678Y224402
T17
X130556Y143764
X206705Y47727
X130556Y141224
X118618Y108966
X118618Y111506
X115062Y101346
X109474Y102870
X238252Y114554
X201676Y52832
X14224Y110490
X120650Y52578
X250698Y116332
X253238Y116332
X255778Y116332
X258318Y116332
X212852Y53848
X215392Y53848
X217932Y53848
X220472Y53848
X103886Y45720
X101346Y45720
X98806Y45720
X96266Y45720
X106934Y151892
X99568Y149352
X100330Y141478
X31496Y107188
X32766Y110490
X97790Y139446
X97536Y143764
X97536Y146304
X35814Y113792
X72136Y107442
X69596Y107442
X66802Y94996
X59436Y94742
X56896Y90678
X113005Y49987
X113005Y47447
X110465Y49987
X110465Y47447
X107925Y49987
X107925Y47447
X266192Y143764
X268732Y143764
X266192Y141224
X268732Y141224
X266192Y138684
X268732Y138684
X266192Y136144
X268732Y136144
X266192Y133604
X268732Y133604
X266192Y131064
X268732Y131064
X266192Y128524
X268732Y128524
X266192Y125984
X268732Y125984
X266192Y123444
X268732Y123444
X266192Y120904
X268732Y120904
X229616Y82042
X232156Y82042
X229616Y79502
X232156Y79502
X229616Y76962
X232156Y76962
X107442Y172974
X107442Y175514
X229616Y74422
X232156Y74422
X229616Y71882
X232156Y71882
X229616Y69342
X232156Y69342
X229616Y66802
X232156Y66802
X115545Y47447
X232156Y64262
X229616Y61722
X232156Y61722
X229616Y59182
X232156Y59182
X148590Y81788
X151130Y81788
X148590Y79248
X151130Y79248
X148590Y76708
X151130Y76708
X148590Y74168
X151130Y74168
X148590Y71628
X151130Y71628
X148590Y69088
X151130Y69088
X148590Y66548
X151130Y66548
X148590Y64008
X151130Y64008
X148590Y61468
X151130Y61468
X250190Y11430
X247650Y11430
X250190Y13970
X247650Y13970
X250190Y16510
X247650Y16510
X14224Y113030
X17018Y94234
X14478Y94234
X61722Y54864
X64770Y78740
X250190Y19050
X247650Y19050
X250190Y21590
X247650Y21590
X250190Y24130
X247650Y24130
X250190Y26670
X247650Y26670
X250190Y29210
X247650Y29210
X250190Y31750
X247650Y31750
X250190Y34290
X247650Y34290
X63500Y81280
X58928Y54864
X72898Y78486
X61214Y82804
X148590Y58928
X151130Y58928
X200152Y136144
X53340Y54864
X53848Y75438
X53848Y77978
X50800Y54864
X61722Y73660
X61214Y79502
X46228Y54864
X41148Y71628
X39624Y77724
X43688Y54864
X49276Y68834
X49276Y74422
X28956Y61214
X29972Y69088
X29972Y75184
X26416Y61214
X38354Y68580
X38100Y74168
X18034Y61468
X16002Y67310
X16002Y74930
X15494Y61468
X27686Y70358
X27686Y72898
X11176Y56642
X5842Y68834
X6096Y74422
X11176Y54102
X16002Y69850
X16002Y72390
X202692Y136144
X200152Y133604
X202692Y133604
X200152Y131064
X202692Y131064
X200152Y128524
X202692Y128524
X163576Y74422
X93980Y112522
X91440Y112522
X166116Y74422
X163576Y71882
X166116Y71882
X163576Y69342
X166116Y69342
X163576Y66802
X229616Y64262
X61214Y159512
X61214Y154432
X122631Y210337
X116129Y210337
X122631Y214859
X116129Y214859
X66996Y141656
X118821Y199161
X112319Y199161
X118821Y203683
X112319Y203683
X86309Y195605
X79807Y195605
X166116Y66802
X82550Y74168
X85090Y74168
X86309Y200127
X79807Y200127
X249682Y47194
X262382Y46178
X88849Y214909
X82347Y214909
X88849Y219431
X82347Y219431
X99771Y214909
X93269Y214909
X99771Y219431
X93269Y219431
X94183Y207543
X87681Y207543
X94183Y212065
X87681Y212065
X263094Y27178
X94183Y222529
X262078Y14478
X87681Y222529
X94183Y227051
X87681Y227051
X199847Y209067
X193345Y209067
X199847Y213589
X193345Y213589
X179527Y209829
X173025Y209829
X82550Y71628
X179527Y214351
X173025Y214351
X160985Y205003
X154483Y205003
X160985Y209525
X154483Y209525
X144729Y196875
X254204Y234696
X253188Y221996
X138227Y196875
X144729Y201397
X138227Y201397
X261036Y111989
X220218Y180544
X232918Y179528
X261036Y109449
X258496Y111989
X258496Y109449
X255956Y111989
X258622Y183388
X259638Y196088
X255956Y109449
X253416Y111989
X253416Y109449
X250876Y111989
X18592Y208534
X19608Y221234
X250876Y109449
X248336Y111989
X248336Y109449
X245796Y111989
X236678Y210058
X235662Y197358
X245796Y109449
X243256Y111989
X243256Y109449
X240716Y111989
X217374Y210058
X216358Y197358
X240716Y109449
X238176Y111989
X238176Y109449
X235636Y111989
X236170Y234696
X235154Y221996
X235636Y109449
X233096Y111989
X233096Y109449
X230556Y111989
X18796Y143764
X18796Y138684
X18796Y141224
X18542Y131826
X18542Y126746
X18542Y129286
X140774Y161445
X140774Y158905
X138234Y161445
X138234Y158905
X135694Y161445
X135694Y158905
X133154Y161445
X133154Y158905
X130614Y161445
X130614Y158905
X128074Y161445
X128074Y158905
X125534Y161445
X125534Y158905
X122994Y161445
X122994Y158905
X120454Y161445
X120454Y158905
X117914Y161445
X117914Y158905
X115374Y161445
X115374Y158905
X112834Y161445
X112834Y158905
X84836Y152400
X85090Y71628
X84836Y149860
X82296Y152400
X82296Y149860
X79756Y152400
X79756Y149860
X77216Y152400
X77216Y149860
X74676Y152400
X74676Y149860
X59882Y225804
X57342Y225804
X54802Y225804
X52262Y225804
X82550Y69088
X85090Y69088
X82550Y66548
X85090Y66548
X115545Y49987
X118085Y47447
X118085Y49987
X120625Y47447
X145542Y102616
X145542Y100076
X123444Y101854
X125984Y101854
X230556Y109449
X179832Y22352
X191770Y12700
X23622Y104394
X23622Y101854
X120625Y49987
X179832Y19812
X217424Y13208
X214884Y13208
X123165Y47447
X123165Y49987
X125705Y47447
X125705Y49987
X78232Y20574
X78232Y23114
X89662Y20574
X89662Y23114
X136652Y20574
X136652Y23114
X101092Y20574
X101092Y23114
X128245Y47447
X128245Y49987
X130785Y47447
X130785Y49987
X208534Y26416
X205994Y26416
X133325Y47447
X25908Y153924
X25908Y151384
X53848Y169926
X56388Y169926
X58928Y169926
X61468Y169926
X228016Y111989
X228016Y109449
X225476Y111989
X225476Y109449
X224485Y50267
X224485Y47727
X221945Y50267
X64008Y169926
X66548Y169926
X69088Y169926
X71628Y169926
X58115Y231165
X51613Y231165
X58115Y235687
X51613Y235687
X133325Y49987
X135865Y47447
X135865Y49987
X138405Y47447
X138405Y49987
X140945Y47447
X140945Y49987
X65218Y136322
X217628Y234442
X216612Y221742
X221945Y47727
X219405Y50267
X219405Y47727
X216865Y50267
X216865Y47727
X214325Y50267
X214325Y47727
X211785Y50267
X211785Y47727
X209245Y50267
X209245Y47727
X206705Y50267
X204165Y50267
X204165Y47727
X201625Y50267
X201625Y47727
X199085Y50267
X199085Y47727
X196545Y50267
X196545Y47727
X194005Y50267
X194005Y47727
X191465Y50267
X191465Y47727
X188925Y50267
X188925Y47727
X143485Y49987
X143485Y47447
X66996Y144196
X72076Y134290
X74616Y134290
T18
X36830Y57150
X36830Y54610
X34290Y57150
X34290Y54610
X31750Y57150
X31750Y54610
X29210Y57150
X29210Y54610
X98552Y231972
X98552Y234512
X96012Y231972
X96012Y234512
X93472Y231972
X93472Y234512
X90932Y231972
X90932Y234512
X88392Y231972
X88392Y234512
X85852Y231972
X85852Y234512
X83312Y231972
X83312Y234512
X80772Y231972
X110236Y4826
X110236Y2286
X107696Y4826
X107696Y2286
X105156Y4826
X105156Y2286
X102616Y4826
X102616Y2286
X100076Y4826
X100076Y2286
X97536Y4826
X97536Y2286
X94996Y4826
X94996Y2286
X92456Y4826
X92456Y2286
X89916Y4826
X89916Y2286
X87376Y4826
X87376Y2286
X80772Y234512
X78232Y231972
X78232Y234512
X75692Y231972
X75692Y234512
X73152Y231972
X73152Y234512
X70612Y231972
X70612Y234512
X114006Y239156
X109006Y239156
X109006Y224656
X111506Y224656
X114006Y224656
X136698Y222922
X136698Y225462
X134158Y222922
X134158Y225462
X131618Y222922
X131618Y225462
X129078Y222922
X129078Y225462
X126538Y222922
X126538Y225462
X26670Y57150
X26670Y54610
X24130Y57150
X24130Y54610
X21590Y57150
X21590Y54610
X19050Y57150
X19050Y54610
X113538Y176022
X113538Y173482
X116078Y176022
X116078Y173482
X118618Y176022
X118618Y173482
X121158Y176022
X121158Y173482
X123698Y176022
X123698Y173482
X126238Y176022
X126238Y173482
X128778Y176022
X128778Y173482
X174752Y101600
X174752Y104140
X177292Y101600
X177292Y104140
X179832Y101600
X179832Y104140
X182372Y101600
X182372Y104140
X184912Y101600
X184912Y104140
X187452Y101600
X187452Y104140
X189992Y101600
X189992Y104140
X192532Y101600
X192532Y104140
X132080Y126238
X132080Y128778
X134620Y126238
X134620Y128778
X137160Y126238
X137160Y128778
X139700Y126238
X139700Y128778
X142240Y126238
X142240Y128778
X144780Y126238
X144780Y128778
X147320Y126238
X147320Y128778
X149860Y126238
X149860Y128778
X131318Y173482
X131318Y176022
T19
X218948Y101092
X214468Y109636
X117348Y97282
X87644Y174992
X91186Y141732
X88646Y135382
X124714Y96520
X49454Y157988
X80504Y172452
X81524Y174992
X82544Y172452
X83564Y174992
X120650Y180074
X84584Y172452
X85604Y174992
X86624Y172452
T20
X27051Y30607
X25781Y33147
X24511Y30607
X23241Y33147
X21971Y30607
X20701Y33147
X19431Y30607
X18161Y33147
T21
X115824Y106934
X113284Y106934
X115062Y111506
X113792Y113411
X112522Y111506
X114554Y108839
T22
X105426Y124968
X103426Y124968
X164846Y102362
X164846Y104902
X164846Y107442
X211598Y30988
X168656Y24590
X168656Y22590
X168656Y20590
X168656Y18590
X29670Y112014
X27670Y112014
X25670Y112014
X23670Y112014
X46688Y123190
X44688Y123190
X42688Y123190
X40688Y123190
X34496Y123190
X32496Y123190
X30496Y123190
X28496Y123190
X12446Y20368
X12446Y22368
X12446Y24368
X12446Y26368
X7160Y14478
X9160Y14478
X11160Y14478
X13160Y14478
X5588Y20368
X5588Y22368
X5588Y24368
X5588Y26368
X18082Y14478
X20082Y14478
X22082Y14478
X24082Y14478
X107426Y124968
X30734Y18494
X30734Y16494
X30734Y14494
X30734Y12494
X37592Y18494
X37592Y16494
X37592Y14494
X37592Y12494
X219914Y231092
X219914Y229092
X219914Y227092
X219914Y225092
X213598Y30988
X215598Y30988
X197660Y30988
X199660Y30988
X201660Y30988
X203660Y30988
X62992Y93932
X62992Y91932
X238456Y231346
X238456Y229346
X238456Y227346
X238456Y225346
X219660Y206708
X219660Y204708
X219660Y202708
X219660Y200708
X238964Y206708
X238964Y204708
X238964Y202708
X238964Y200708
X16306Y211884
X16306Y213884
X16306Y215884
X16306Y217884
X256336Y186738
X256336Y188738
X256336Y190738
X256336Y192738
X223568Y182830
X225568Y182830
X227568Y182830
X229568Y182830
X256490Y231346
X109426Y124968
X89456Y124968
X91456Y124968
X93456Y124968
X95456Y124968
X209598Y30988
X256490Y229346
X256490Y227346
X256490Y225346
X265380Y23828
X62992Y89932
X265380Y21828
X62992Y87932
X56436Y112268
X58436Y112268
X60436Y112268
X62436Y112268
X245920Y65278
X247920Y65278
X249920Y65278
X251920Y65278
X105870Y113538
X103870Y113538
X265380Y19828
X265380Y17828
X101870Y113538
X99870Y113538
X19510Y152400
X17510Y152400
X44196Y154940
X46736Y154940
X49276Y154940
X15510Y152400
X13510Y152400
X253032Y49480
X255032Y49480
X257032Y49480
X259032Y49480
X62230Y107140
X135890Y109474
X62230Y105140
X62230Y103140
X62230Y101140
X122888Y125984
X120888Y125984
X118888Y125984
X116888Y125984
X133350Y109474
X130810Y109474
X125730Y109474
X153162Y141938
X153162Y139938
X153162Y137938
X153162Y135938
X160020Y141938
X160020Y139938
X160020Y137938
X160020Y135938
X166878Y141938
X166878Y139938
X166878Y137938
X166878Y135938
X173736Y141938
X173736Y139938
X173736Y137938
X173736Y135938
X180594Y141938
X180594Y139938
X180594Y137938
X180594Y135938
X123190Y109474
T23
X43688Y173994
X48488Y170894
X43688Y167894
T24
X214376Y25400
X242006Y26042
X185420Y21590
X184404Y33528
X221742Y31750
X234950Y30226
X239547Y26193
X235712Y17526
X229108Y27178
X216916Y18334
X222758Y24638
X175514Y33528
X229362Y28956
X231826Y28042
X232918Y29195
X233172Y30480
X218694Y33020
X228854Y30734
X234442Y18542
X239522Y15240
X16510Y101092
X240030Y32004
X232766Y18466
X234950Y13716
X10668Y103632
X227437Y30080
X238760Y18000
X183896Y30226
X232664Y14478
X243840Y20828
X213868Y19812
X228106Y13450
X233680Y22352
X191770Y21336
T25
X36830Y24892
X232644Y34290
X36576Y23114
X54042Y136576
X36830Y26416
X36068Y30226
X12918Y98393
X19558Y27686
X24638Y27686
X36322Y27940
X9652Y32004
X20985Y19478
X233680Y20066
X219456Y11176
X225806Y26924
X224282Y26090
X138684Y137160
X17280Y25662
X31242Y24384
X27178Y22098
X22860Y24130
X36322Y33274
X146812Y146232
X142588Y138665
X62484Y150114
X46422Y134290
X44898Y139878
X28944Y24396
X41148Y27432
X115570Y135382
X105664Y140462
X108204Y138684
X108712Y136652
X106680Y137160
X124714Y130484
X113792Y135382
T26
X107950Y114300
X52070Y90678
X52117Y95250
X48514Y104648
X47498Y105410
X199136Y92710
X186436Y97282
T27
X28448Y98694
X30749Y93995
X45466Y88646
X46736Y87884
X52727Y105258
X73152Y103378
X200406Y100330
X197104Y56642
X66548Y105156
X58420Y98044
X58928Y92456
X56642Y85344
X34290Y84582
X36322Y93980
X35814Y110998
X49784Y109982
X42931Y109007
X28956Y108712
X24892Y98552
X30988Y96266
X34798Y92202
X44450Y83569
X49276Y83566
X53848Y85598
X56388Y94488
X56388Y100584
X55880Y106680
X48006Y111506
X41168Y111514
X33528Y107950
X34798Y103378
X72644Y96012
X66040Y100330
X49530Y103378
X65786Y98298
X54102Y107442
X64516Y102616
X36830Y96520
X26924Y87376
X30998Y91625
X25654Y100584
X51816Y97790
X39624Y89662
X38608Y88392
X37592Y105156
X39624Y83566
X34468Y88516
X31242Y83820
X14478Y81026
X36576Y82296
X36576Y88392
X37592Y89662
X203454Y181356
X198628Y186299
X194310Y181356
X189484Y185928
X185420Y180848
X180594Y185674
X177038Y180848
X172212Y185928
X168148Y180848
X163068Y185674
X159258Y181356
X154178Y185420
X150876Y181102
X146050Y185674
X141732Y181356
X136906Y185928
X133350Y181610
X128016Y185420
X34798Y90678
X124206Y181102
X119634Y185674
X116078Y181356
X110744Y185420
X106426Y180848
X104394Y183134
X112268Y178816
X108458Y176784
X198120Y180594
X189484Y180848
X179324Y179324
X169926Y179578
X160528Y179578
X154432Y180340
X146050Y180340
X136652Y180340
X125476Y180086
X119634Y181102
X107696Y180848
X104394Y178308
X105156Y180086
X201930Y186182
X193802Y186182
X185166Y186182
X176784Y186182
X167640Y186299
X159004Y186182
X150368Y186045
X141732Y185928
X133096Y185928
X124206Y186182
X115316Y185928
X106680Y185928
X113030Y184658
X113538Y185928
X96520Y108458
X118872Y93472
X104140Y107696
X237694Y205486
X4318Y87122
X10160Y72332
X103056Y96561
X104140Y94234
X101995Y106426
X103886Y102108
X103886Y99822
X148590Y46990
X178816Y57404
X180594Y50038
X228600Y101092
X178562Y49276
X179578Y60452
X188722Y95250
X205994Y52578
X192532Y107950
X201930Y90170
X199390Y98806
X182880Y87630
X199390Y89662
X179578Y77724
X187198Y107950
X188468Y59690
X183134Y91186
X191262Y92964
X173228Y60452
X204724Y105156
X203454Y98298
X245374Y69860
X247650Y76962
X248412Y74676
X243840Y75184
X246837Y73406
X249682Y74676
X251206Y85194
X244856Y82042
X251460Y72390
X84836Y59944
X109220Y96774
X157226Y69596
X111760Y88392
X98044Y105410
X149352Y113030
X105664Y111506
X105664Y90678
X20980Y75448
X33782Y72898
X108712Y89408
X101346Y90678
X103632Y109982
X51054Y111252
X50546Y105410
X254254Y48210
X250952Y44400
X249936Y52020
X264110Y22606
X260300Y25908
X267920Y26924
X255220Y230124
X251410Y233426
X259030Y234442
X224790Y181560
X221488Y177750
X220472Y185370
X257606Y187960
X261416Y184658
X253796Y183642
X17576Y213106
X21386Y209804
X13766Y208788
X233884Y208788
X241504Y209804
X218390Y205486
X214580Y208788
X222200Y209804
X237186Y230124
X233376Y233426
X240996Y234442
X114002Y142008
X116230Y144980
X115214Y144272
X115037Y143002
X107021Y147407
X113792Y146812
X103378Y152400
X101854Y156662
X109449Y147574
X109474Y146050
X131561Y137425
X131561Y136155
X130810Y135128
X129540Y134620
X89916Y132080
X90402Y156740
X90932Y130810
X92202Y130810
X92837Y156845
X103632Y156662
X100584Y152400
X98806Y132080
X106680Y135156
X105526Y131202
X104637Y129805
X77724Y146050
X58166Y163830
X69088Y156464
X120650Y148844
X120650Y147320
X122174Y149352
X91694Y154686
X120333Y145244
X97790Y150876
X134620Y143256
X139700Y151638
X88646Y160528
X149098Y149606
X83566Y164592
X147574Y150622
X92202Y158750
X80264Y218948
X81026Y227076
X65786Y226568
X173736Y223266
X152146Y214122
X78486Y236982
X144018Y219710
X76962Y236982
X130302Y215646
X122682Y233934
X114808Y195834
X84074Y207772
X80518Y209296
X105664Y203200
X145034Y230632
X53594Y228600
X198882Y225044
X182626Y222504
X163830Y217678
X147828Y209804
X130302Y205740
X126746Y195834
X89662Y195326
X80264Y223266
X104422Y136652
X104510Y134990
X218644Y229870
X214834Y233172
X222454Y234188
X23083Y25691
X16256Y18288
X17555Y18825
X85725Y167259
X91948Y164084
X88646Y168148
X76962Y164183
X74676Y168148
X55880Y130048
X123317Y141605
X116078Y140716
X127508Y141732
X113030Y145288
X117856Y134366
X110744Y147320
X116840Y147574
X145542Y160020
X112014Y130302
X103378Y134366
X78232Y140716
X44704Y72644
X57658Y72390
X69243Y73152
X9398Y85852
X27432Y89662
X91186Y159766
X84582Y156972
X52578Y132842
X188214Y34544
X224282Y34544
X177546Y27432
X225044Y29972
X204724Y21082
X199136Y22098
X120142Y96520
X56388Y159766
X80264Y161290
X81280Y167640
X96774Y129540
X111772Y146558
X116078Y141986
X100330Y133350
X104902Y143510
X101346Y148336
X110490Y154432
X114046Y153924
X117856Y150622
X121158Y133604
X111252Y126238
X110490Y128524
X110490Y135636
X79248Y138176
X67310Y72898
X30988Y80010
X31750Y75578
X70612Y58420
X71882Y72390
X66294Y56134
X70612Y72136
X66291Y67310
X65786Y60452
X52567Y76697
X55927Y72415
X58928Y72390
X61722Y71120
X58928Y70612
X59690Y57658
X55626Y64516
X61468Y65532
X59169Y67297
X53086Y62484
X56134Y59436
X55626Y66802
X40640Y79756
X45974Y79502
X43434Y72898
X42672Y79248
X46482Y72898
X50038Y71628
X46736Y70866
X52070Y65024
X47498Y62738
X43180Y67310
X35814Y79248
X35560Y72898
X38608Y75946
X34544Y71882
X39116Y61722
X34798Y61214
X26924Y65786
X30988Y63754
X34798Y70104
X33020Y70612
X36830Y68151
X19177Y74574
X25146Y74168
X21093Y72633
X25400Y77978
X23220Y72777
X19914Y75463
X21082Y80518
X18288Y76962
X23114Y59690
X22992Y70947
X20117Y63627
X20320Y71628
X20066Y62484
X21336Y64770
X18034Y63246
X8382Y70612
X7620Y76454
X10668Y83312
X11176Y78486
X14732Y59690
X13208Y67310
X52324Y78740
X23457Y65761
X26154Y65108
X65254Y71716
X69078Y78636
X68588Y64369
X60397Y63757
X57821Y78598
X44505Y80267
X44704Y64174
X34798Y63754
X32766Y78740
X21572Y77894
X25146Y81026
X10201Y81751
X10026Y78134
X11176Y59690
X12446Y89154
X9906Y64262
X8016Y62484
X6956Y65688
X10163Y69850
X21720Y70104
X44958Y70358
X57658Y70358
X69342Y70104
X33136Y71766
X8382Y92964
X43688Y87884
X40386Y60452
X26924Y63294
X107696Y182880
X121920Y183642
X130556Y183642
X139192Y183388
X148082Y183388
X184404Y50038
X182626Y57912
X179578Y46990
X175514Y45720
X175895Y48641
X175006Y57658
X195072Y101346
X103886Y148336
M30