M48
; DRILL file {KiCad 9.0.4} date 2026-03-22T15:23:53-0400
; FORMAT={-:-/ absolute / metric / decimal}
; #@! TF.CreationDate,2026-03-22T15:23:53-04:00
; #@! TF.GenerationSoftware,Kicad,Pcbnew,9.0.4
; #@! TF.FileFunction,Plated,1,2,PTH
FMAT,2
METRIC
; #@! TA.AperFunction,Plated,PTH,ViaDrill
T1C0.102
; #@! TA.AperFunction,Plated,PTH,ViaDrill
T2C0.152
; #@! TA.AperFunction,Plated,PTH,ViaDrill
T3C0.200
; #@! TA.AperFunction,Plated,PTH,ViaDrill
T4C0.203
; #@! TA.AperFunction,Plated,PTH,ViaDrill
T5C0.300
; #@! TA.AperFunction,Plated,PTH,ComponentDrill
T6C1.000
%
G90
G05
T1
X-224.448Y211.594
X-224.152Y154.518
X-223.773Y210.944
X-223.477Y153.868
X-223.098Y210.269
X-222.921Y117.845
X-222.802Y153.193
X-222.448Y209.669
X-222.152Y152.593
X-221.673Y203.044
X-221.553Y117.345
X-221.437Y112.745
X-221.377Y145.968
X-221.298Y202.644
X-221.002Y145.568
X-220.971Y112.32
X-220.948Y202.269
X-220.913Y116.97
X-220.884Y119.62
X-220.768Y116.62
X-220.652Y145.193
X-220.593Y116.295
X-220.535Y111.945
X-220.523Y201.944
X-220.447Y119.945
X-220.447Y115.945
X-220.239Y175.766
X-220.227Y144.868
X-220.186Y111.445
X-220.148Y201.569
X-220.069Y120.295
X-220.011Y115.595
X-219.852Y144.493
X-219.836Y110.945
X-219.798Y201.244
X-219.662Y120.645
X-219.604Y115.22
X-219.502Y144.168
X-219.448Y200.869
X-219.167Y121.095
X-219.167Y114.845
X-219.152Y143.793
X-219.073Y200.494
X-218.963Y114.47
X-218.871Y175.266
X-218.777Y143.418
X-218.755Y170.666
X-218.643Y110.37
X-218.614Y121.52
X-218.289Y170.241
X-218.231Y174.891
X-218.202Y177.541
X-218.09Y114.095
X-218.085Y174.541
X-217.911Y174.216
X-217.853Y169.866
X-217.765Y177.866
X-217.765Y173.866
X-217.741Y113.72
X-217.503Y169.366
X-217.387Y178.216
X-217.348Y210.582
X-217.329Y173.516
X-217.323Y209.944
X-217.273Y209.294
X-217.248Y211.219
X-217.154Y168.866
X-217.052Y153.506
X-217.027Y152.868
X-216.98Y178.566
X-216.977Y152.218
X-216.952Y154.143
X-216.921Y173.141
X-216.485Y179.016
X-216.485Y172.766
X-216.281Y172.391
X-215.961Y168.291
X-215.932Y179.441
X-215.408Y172.016
X-215.059Y171.641
X-100.264Y109.67
X-99.857Y109.345
X-99.741Y122.195
X-99.421Y109.02
X-99.304Y122.52
X-99.048Y209.969
X-98.998Y194.894
X-98.984Y108.695
X-98.839Y122.82
X-98.752Y152.893
X-98.702Y137.818
X-98.648Y210.294
X-98.648Y194.569
X-98.577Y108.37
X-98.402Y123.17
X-98.352Y153.218
X-98.352Y137.493
X-98.273Y210.619
X-98.273Y194.219
X-98.227Y108.045
X-97.995Y123.47
X-97.977Y153.543
X-97.977Y137.143
X-97.923Y210.919
X-97.898Y193.919
X-97.627Y153.843
X-97.602Y136.843
X-97.587Y123.82
X-97.582Y167.591
X-97.175Y167.266
X-97.059Y180.116
X-96.976Y108.045
X-96.945Y123.796
X-96.738Y166.941
X-96.622Y180.441
X-96.442Y108.359
X-96.302Y166.616
X-96.242Y123.489
X-96.156Y180.741
X-96.082Y108.699
X-95.902Y123.159
X-95.895Y166.291
X-95.722Y109.009
X-95.72Y181.091
X-95.562Y122.839
X-95.548Y193.894
X-95.545Y165.966
X-95.523Y210.919
X-95.352Y109.329
X-95.313Y181.391
X-95.252Y136.818
X-95.227Y153.843
X-95.222Y122.529
X-95.198Y194.219
X-95.173Y210.619
X-94.962Y109.659
X-94.905Y181.741
X-94.902Y137.143
X-94.877Y153.543
X-94.873Y194.519
X-94.862Y122.179
X-94.773Y210.294
X-94.577Y137.443
X-94.523Y194.844
X-94.477Y153.218
X-94.373Y209.944
X-94.294Y165.966
X-94.263Y181.717
X-94.227Y137.768
X-94.077Y152.868
X-93.76Y166.28
X-93.56Y181.41
X-93.4Y166.62
X-93.22Y181.08
X-93.04Y166.93
X-92.88Y180.76
X-92.67Y167.25
X-92.54Y180.45
X-92.28Y167.58
X-92.18Y180.1
X28.445Y123.795
X28.451Y104.52
X28.752Y210.269
X28.794Y124.12
X28.823Y104.82
X29.048Y153.193
X29.127Y210.594
X29.143Y124.445
X29.177Y194.569
X29.423Y153.518
X29.428Y105.16
X29.473Y137.493
X29.502Y210.919
X29.522Y124.77
X29.552Y194.244
X29.798Y153.843
X29.848Y137.168
X29.852Y211.244
X29.9Y125.095
X29.902Y193.894
X30.034Y105.49
X30.148Y154.168
X30.198Y136.818
X30.252Y193.569
X30.278Y125.42
X30.548Y136.493
X30.641Y105.79
X30.959Y106.435
X31.127Y181.716
X31.133Y162.441
X31.268Y125.395
X31.476Y182.041
X31.505Y162.741
X31.7Y106.431
X31.825Y182.366
X31.927Y193.569
X32.008Y125.079
X32.11Y163.081
X32.127Y211.269
X32.128Y105.789
X32.204Y182.691
X32.223Y136.493
X32.277Y193.894
X32.368Y124.789
X32.423Y154.193
X32.458Y105.449
X32.527Y210.919
X32.573Y136.818
X32.582Y183.016
X32.602Y194.219
X32.716Y163.411
X32.718Y124.449
X32.818Y105.139
X32.823Y153.843
X32.877Y210.619
X32.898Y137.143
X32.96Y183.341
X32.977Y194.544
X33.078Y124.129
X33.173Y153.543
X33.208Y104.829
X33.227Y210.294
X33.273Y137.468
X33.323Y163.711
X33.458Y123.799
X33.523Y153.218
X33.578Y104.499
X33.641Y164.356
X33.95Y183.316
X34.382Y164.352
X34.69Y183.0
X34.81Y163.71
X35.05Y182.71
X35.14Y163.37
X35.4Y182.37
X35.5Y163.06
X35.76Y182.05
X35.89Y162.75
X36.14Y181.72
X36.26Y162.42
X155.495Y123.145
X155.892Y105.139
X155.903Y123.445
X156.31Y105.47
X156.339Y123.795
X156.718Y105.795
X156.776Y124.12
X157.183Y106.12
X157.241Y124.42
X157.402Y195.194
X157.427Y209.644
X157.62Y106.42
X157.698Y138.118
X157.707Y124.77
X157.723Y152.568
X157.777Y194.869
X157.802Y209.969
X158.056Y106.745
X158.073Y137.793
X158.098Y152.893
X158.177Y181.066
X158.227Y194.544
X158.352Y210.294
X158.523Y137.468
X158.556Y163.066
X158.585Y181.366
X158.648Y153.218
X158.652Y194.244
X158.698Y106.749
X158.877Y210.619
X158.948Y137.168
X158.958Y124.77
X158.992Y163.391
X159.018Y106.429
X159.021Y181.716
X159.173Y153.543
X159.258Y124.459
X159.388Y106.109
X159.4Y163.716
X159.458Y182.041
X159.618Y124.139
X159.652Y210.619
X159.728Y105.789
X159.865Y164.041
X159.877Y194.219
X159.923Y182.341
X159.948Y153.543
X159.952Y210.294
X159.978Y123.799
X160.158Y105.479
X160.173Y137.143
X160.202Y194.544
X160.248Y153.218
X160.302Y164.341
X160.308Y123.489
X160.327Y209.969
X160.389Y182.691
X160.498Y137.468
X160.566Y105.133
X160.577Y194.869
X160.588Y123.169
X160.623Y152.893
X160.677Y209.644
X160.738Y164.666
X160.873Y137.793
X160.973Y152.568
X160.977Y195.194
X161.273Y138.118
X161.38Y164.67
X161.64Y182.691
X161.7Y164.35
X161.94Y182.38
X162.07Y164.03
X162.3Y182.06
X162.41Y163.71
X162.66Y181.72
X162.84Y163.4
X162.99Y181.41
X163.23Y163.06
X163.27Y181.09
X259.528Y117.42
X259.673Y118.07
X259.756Y118.696
X259.906Y117.695
X260.023Y118.345
X260.11Y118.995
X260.802Y203.869
X260.852Y204.519
X261.002Y205.169
X261.098Y146.793
X261.143Y204.82
X261.148Y147.443
X261.152Y204.169
X261.256Y205.454
X261.298Y148.093
X261.439Y147.744
X261.448Y147.093
X261.553Y148.378
X262.21Y175.341
X262.356Y175.991
X262.438Y176.617
X262.588Y175.616
X262.705Y176.266
X262.792Y176.916
X275.597Y114.124
X275.695Y113.485
X275.784Y112.836
X276.199Y113.861
X276.26Y113.22
X276.377Y112.595
X276.554Y200.613
X276.602Y200.235
X276.85Y143.537
X276.898Y143.159
X278.279Y172.045
X278.377Y171.406
X278.466Y170.757
X278.881Y171.783
X278.942Y171.141
X279.059Y170.516
X285.252Y107.095
X285.477Y195.544
X285.66Y107.395
X285.773Y138.468
X285.827Y195.269
X286.096Y107.745
X286.123Y138.193
X286.177Y194.894
X286.473Y137.818
X286.475Y108.095
X286.527Y194.544
X286.823Y137.468
X286.902Y194.294
X286.905Y108.375
X287.198Y137.218
X287.26Y108.67
X287.277Y193.969
X287.522Y108.97
X287.527Y193.619
X287.573Y136.893
X287.823Y136.543
X287.871Y109.27
X287.934Y165.016
X288.279Y109.545
X288.342Y165.316
X288.57Y109.82
X288.778Y165.666
X289.006Y110.12
X289.157Y166.016
X289.587Y166.296
X289.942Y166.591
X290.204Y166.891
X290.553Y167.191
X290.961Y167.466
X291.252Y167.741
X291.688Y168.041
T2
X-226.489Y-66.13
X-226.194Y-66.884
X-225.982Y-77.718
X-225.686Y-78.472
X-225.535Y-90.375
X-225.349Y-85.91
X-224.985Y-102.451
X-224.864Y-67.251
X-224.799Y-97.985
X-224.421Y-63.616
X-224.357Y-78.839
X-224.147Y-91.096
X-223.914Y-75.204
X-223.683Y-64.872
X-223.597Y-103.172
X-223.175Y-76.46
X-222.915Y-87.081
X-222.543Y-90.716
X-222.465Y-64.306
X-222.365Y-99.156
X-222.035Y-87.932
X-221.993Y-102.791
X-221.978Y-75.861
X-221.631Y-87.573
X-221.485Y-100.007
X-221.186Y-89.431
X-221.081Y-99.648
X-220.61Y-101.589
X-220.595Y-89.736
X-220.138Y-101.792
X-217.762Y-65.522
X-217.349Y-88.124
X-217.349Y-88.862
X-217.254Y-77.11
X-216.8Y-100.199
X-216.8Y-100.938
X-216.041Y-65.865
X-215.534Y-77.453
X-215.219Y-89.228
X-214.537Y-101.323
X-98.689Y-89.74
X-98.276Y-87.262
X-98.007Y-101.814
X-97.989Y-66.549
X-97.855Y-89.985
X-97.726Y-99.337
X-97.694Y-63.562
X-97.566Y-86.694
X-97.546Y-63.112
X-97.482Y-78.137
X-97.396Y-66.876
X-97.311Y-87.027
X-97.305Y-102.06
X-97.187Y-75.15
X-97.039Y-74.7
X-97.017Y-98.769
X-97.013Y-90.341
X-96.889Y-78.464
X-96.761Y-99.102
X-96.752Y-63.225
X-96.752Y-66.831
X-96.463Y-102.417
X-96.425Y-89.743
X-96.369Y-86.69
X-96.267Y-90.409
X-96.245Y-74.813
X-96.245Y-78.419
X-96.119Y-87.308
X-96.069Y-63.447
X-96.069Y-66.549
X-95.875Y-101.819
X-95.819Y-98.766
X-95.765Y-86.939
X-95.644Y-102.484
X-95.57Y-99.383
X-95.562Y-75.036
X-95.562Y-78.137
X-95.539Y-102.13
X-95.44Y-90.074
X-95.215Y-99.014
X28.886Y-67.254
X28.915Y-66.586
X29.315Y-89.685
X29.393Y-78.842
X29.422Y-78.174
X29.681Y-101.814
X29.752Y-90.057
X29.87Y-67.257
X29.92Y-66.549
X30.283Y-90.711
X30.301Y-102.132
X30.378Y-78.845
X30.427Y-78.137
X30.833Y-102.786
X31.169Y-90.727
X31.206Y-89.99
X31.317Y-85.614
X31.545Y-63.447
X31.719Y-102.803
X31.782Y-102.046
X31.867Y-97.689
X32.026Y-89.705
X32.052Y-75.036
X32.283Y-63.112
X32.505Y-86.891
X32.55Y-101.742
X32.617Y-86.347
X32.791Y-74.7
X32.871Y-99.031
X33.027Y-63.133
X33.117Y-63.544
X33.166Y-98.423
X33.214Y-86.637
X33.534Y-74.721
X33.55Y-86.954
X33.663Y-75.15
X33.731Y-98.744
X34.099Y-99.029
X34.396Y-85.621
X34.913Y-97.678
X155.761Y-62.442
X156.269Y-74.03
X156.449Y-89.772
X156.502Y-62.445
X156.613Y-66.479
X156.999Y-101.847
X157.009Y-74.033
X157.04Y-90.046
X157.12Y-78.067
X157.188Y-85.916
X157.257Y-63.112
X157.261Y-66.831
X157.587Y-87.224
X157.59Y-102.121
X157.737Y-97.992
X157.749Y-90.359
X157.765Y-74.7
X157.768Y-78.419
X157.838Y-86.587
X157.977Y-66.8
X158.079Y-85.909
X158.124Y-63.112
X158.192Y-90.04
X158.273Y-99.354
X158.299Y-102.434
X158.387Y-98.662
X158.42Y-66.465
X158.484Y-78.388
X158.628Y-97.985
X158.631Y-74.701
X158.665Y-90.409
X158.701Y-89.685
X158.742Y-102.115
X158.824Y-86.577
X158.927Y-78.053
X159.214Y-102.484
X159.277Y-101.792
X159.374Y-98.653
X159.879Y-87.214
X160.341Y-99.354
X255.204Y-88.475
X255.753Y-100.551
X258.856Y-64.892
X259.608Y-88.303
X259.731Y-76.426
X260.044Y-64.522
X260.157Y-100.378
X260.348Y-76.105
X260.428Y-87.987
X260.977Y-100.062
X275.49Y-65.467
X275.881Y-88.932
X275.997Y-77.055
X276.431Y-101.007
X278.897Y-89.213
X279.446Y-101.289
X279.769Y-65.713
X280.276Y-77.301
X281.375Y-89.47
X281.924Y-101.545
X282.851Y-63.115
X283.358Y-74.703
X283.561Y-87.241
X283.561Y-89.785
X283.807Y-66.242
X284.11Y-99.316
X284.11Y-101.861
X284.358Y-86.604
X284.908Y-98.679
X285.276Y-85.914
X285.344Y-62.448
X285.351Y-67.218
X285.387Y-77.678
X285.392Y-89.889
X285.735Y-90.683
X285.826Y-97.989
X285.851Y-74.036
X285.859Y-78.806
X285.942Y-101.965
X286.284Y-102.758
X286.328Y-63.839
X286.421Y-66.241
X286.544Y-90.359
X286.712Y-87.304
X286.836Y-75.427
X286.929Y-77.829
X287.094Y-102.434
X287.168Y-91.024
X287.261Y-99.379
X287.718Y-103.099
X287.995Y-98.075
X289.199Y-85.783
X290.176Y-62.426
X292.068Y-85.531
X292.515Y-97.572
X292.544Y-98.293
X292.547Y-74.692
X292.547Y-77.893
X293.135Y-98.389
X293.285Y-73.796
X293.285Y-74.634
X293.873Y-100.02
X293.873Y-104.094
X293.876Y-74.634
X293.933Y-98.008
X293.933Y-100.858
T3
X-226.599Y85.458
X-226.459Y-8.491
X-226.304Y83.172
X-226.164Y-9.634
X-225.89Y-23.149
X-225.699Y61.168
X-225.618Y33.799
X-225.594Y-24.292
X-225.522Y-39.252
X-225.432Y47.332
X-225.404Y58.882
X-225.336Y-32.486
X-224.974Y82.06
X-224.933Y-54.612
X-224.834Y-10.19
X-224.747Y-47.846
X-224.732Y8.191
X-224.546Y21.723
X-224.531Y93.077
X-224.391Y-4.682
X-224.265Y-24.848
X-224.23Y31.615
X-224.133Y-40.345
X-224.074Y57.77
X-223.822Y-19.34
X-223.793Y89.268
X-223.653Y-6.586
X-223.631Y68.787
X-223.545Y-55.704
X-223.344Y6.006
X-223.084Y-21.244
X-222.998Y43.783
X-222.902Y-34.26
X-222.893Y64.978
X-222.626Y32.767
X-222.53Y-39.768
X-222.528Y90.498
X-222.388Y-5.971
X-222.313Y-49.62
X-222.118Y41.205
X-222.112Y18.175
X-222.021Y-35.55
X-221.941Y-55.128
X-221.819Y-20.629
X-221.74Y7.158
X-221.714Y42.291
X-221.628Y66.208
X-221.618Y-35.006
X-221.433Y-50.909
X-221.232Y15.596
X-221.058Y36.838
X-221.029Y-50.366
X-220.961Y-37.733
X-220.828Y16.683
X-220.77Y35.492
X-220.674Y-38.406
X-220.373Y-53.093
X-220.172Y11.23
X-220.085Y-53.766
X-219.884Y9.884
X-216.151Y86.26
X-216.011Y-8.09
X-215.442Y-22.748
X-215.251Y61.97
X-215.17Y37.217
X-215.074Y-37.543
X-214.485Y-52.903
X-214.284Y11.609
X-98.773Y35.726
X-98.676Y-38.289
X-98.359Y43.235
X-98.263Y-34.535
X-98.099Y84.188
X-97.959Y-9.126
X-97.955Y-53.647
X-97.938Y34.983
X-97.842Y-38.66
X-97.804Y93.24
X-97.753Y10.121
X-97.674Y-49.894
X-97.664Y-4.6
X-97.473Y17.626
X-97.394Y43.947
X-97.39Y-23.784
X-97.298Y-34.178
X-97.253Y-54.02
X-97.199Y59.898
X-97.095Y-19.258
X-97.052Y9.375
X-96.904Y68.95
X-96.709Y-49.538
X-96.508Y35.715
X-96.508Y18.338
X-96.412Y-38.295
X-96.203Y43.096
X-96.179Y93.586
X-96.179Y84.188
X-96.106Y-34.604
X-96.049Y44.204
X-96.039Y-4.427
X-96.039Y-9.126
X-95.823Y-53.654
X-95.752Y-34.045
X-95.622Y10.106
X-95.523Y34.714
X-95.518Y-49.964
X-95.487Y-54.126
X-95.47Y-19.085
X-95.47Y-23.784
X-95.427Y-38.795
X-95.316Y17.487
X-95.286Y9.163
X-95.279Y69.296
X-95.279Y59.898
X-95.163Y-49.405
X-94.962Y18.605
X28.776Y82.05
X28.805Y84.075
X28.916Y-10.195
X28.945Y-9.183
X29.048Y35.73
X29.144Y-38.287
X29.485Y-24.853
X29.514Y-23.841
X29.668Y34.764
X29.676Y57.76
X29.705Y59.785
X29.733Y-53.647
X29.76Y82.043
X29.765Y-38.77
X29.81Y84.188
X29.9Y-10.199
X29.934Y10.121
X29.95Y-9.126
X30.2Y32.783
X30.296Y-39.76
X30.353Y-54.13
X30.469Y-24.857
X30.519Y-23.784
X30.554Y9.156
X30.66Y57.753
X30.71Y59.898
X30.885Y-55.12
X31.086Y32.732
X31.086Y7.175
X31.183Y-39.786
X31.234Y48.229
X31.261Y34.772
X31.33Y-32.038
X31.357Y-38.766
X31.435Y93.586
X31.575Y-4.427
X31.771Y-55.146
X31.919Y-47.397
X31.946Y-54.126
X31.972Y7.124
X32.031Y35.679
X32.12Y22.62
X32.128Y-38.313
X32.144Y-19.085
X32.147Y9.164
X32.173Y94.602
X32.238Y44.162
X32.313Y-3.919
X32.335Y-34.071
X32.335Y69.296
X32.533Y46.006
X32.63Y-33.149
X32.716Y-53.672
X32.882Y-18.577
X32.917Y94.54
X32.918Y10.07
X32.923Y-49.431
X33.056Y93.46
X33.057Y-3.95
X33.073Y70.312
X33.124Y18.554
X33.196Y-4.49
X33.218Y-48.509
X33.327Y45.247
X33.42Y20.397
X33.423Y-33.528
X33.466Y44.167
X33.563Y-34.068
X33.626Y-18.608
X33.766Y-19.148
X33.817Y70.25
X33.956Y69.17
X34.012Y-48.888
X34.152Y-49.428
X34.213Y19.638
X34.353Y18.558
X34.454Y47.99
X34.55Y-32.157
X35.139Y-47.517
X35.34Y22.382
X155.651Y96.634
X155.791Y-2.903
X156.36Y-17.561
X156.366Y35.628
X156.392Y96.624
X156.463Y-38.338
X156.503Y83.984
X156.532Y-2.908
X156.551Y72.344
X156.643Y-9.02
X156.957Y34.798
X157.051Y-53.698
X157.053Y-38.753
X157.101Y-17.566
X157.104Y47.312
X157.201Y-32.496
X157.212Y-23.678
X157.252Y10.02
X157.292Y72.334
X157.403Y59.6
X157.503Y43.35
X157.6Y-34.477
X157.642Y-54.113
X157.79Y-47.856
X157.843Y9.19
X157.991Y21.704
X157.995Y47.332
X158.092Y-32.486
X158.109Y34.815
X158.188Y-49.837
X158.205Y-38.744
X158.39Y17.741
X158.45Y-8.999
X158.457Y83.984
X158.611Y35.628
X158.68Y-47.846
X158.708Y-38.338
X158.794Y-54.104
X158.881Y21.724
X158.995Y9.207
X159.019Y-23.657
X159.296Y-53.698
X159.337Y59.653
X159.497Y10.02
X159.796Y43.38
X159.892Y-34.462
X160.481Y-49.822
X160.682Y17.772
X255.12Y39.557
X255.217Y-36.373
X255.805Y-51.733
X256.007Y13.949
X258.746Y89.209
X258.886Y-6.615
X259.524Y40.079
X259.621Y-36.112
X259.823Y-21.192
X260.014Y65.082
X260.209Y-51.472
X260.41Y14.471
X278.813Y37.321
X278.91Y-37.492
X279.498Y-52.851
X279.659Y86.72
X279.7Y11.712
X279.799Y-7.86
X280.368Y-22.518
X280.559Y62.43
X281.291Y36.542
X281.388Y-37.881
X281.977Y-53.241
X282.178Y10.934
X282.741Y94.593
X282.881Y-3.923
X283.45Y-18.582
X283.477Y43.299
X283.477Y35.588
X283.574Y-34.503
X283.574Y-38.358
X283.641Y70.303
X284.162Y-49.862
X284.162Y-53.718
X284.275Y45.229
X284.364Y17.69
X284.364Y9.979
X284.372Y-33.537
X284.406Y-23.32
X284.773Y83.996
X284.911Y-8.72
X284.96Y-48.897
X285.161Y19.621
X285.193Y47.319
X285.241Y82.16
X285.289Y-32.492
X285.309Y35.272
X285.381Y-10.14
X285.405Y-38.516
X285.651Y59.856
X285.651Y32.867
X285.748Y-39.718
X285.878Y-47.852
X285.951Y-24.798
X285.994Y-53.876
X286.079Y21.711
X286.141Y57.87
X286.195Y9.664
X286.218Y92.4
X286.311Y85.12
X286.336Y-55.078
X286.358Y-5.02
X286.451Y-8.66
X286.461Y33.85
X286.538Y7.258
X286.558Y-39.227
X286.628Y43.107
X286.725Y-34.598
X286.927Y-19.678
X287.02Y-23.318
X287.085Y31.834
X287.118Y68.11
X287.146Y-54.587
X287.181Y-40.235
X287.211Y60.83
X287.313Y-49.958
X287.347Y8.242
X287.515Y17.498
X287.77Y-55.595
X287.971Y6.226
X288.047Y-47.983
X288.248Y21.45
X288.794Y48.268
X288.89Y-32.018
X291.964Y96.786
X291.985Y48.48
X292.082Y-32.42
X292.104Y-3.081
X292.164Y211.394
X292.561Y126.974
X292.567Y-47.221
X292.591Y124.353
X292.596Y-48.313
X292.639Y-18.35
X292.639Y-22.795
X292.768Y22.974
X292.798Y20.789
X292.829Y70.766
X292.829Y61.876
X293.026Y155.157
X293.055Y152.798
X293.182Y124.536
X293.187Y-48.237
X293.377Y-17.207
X293.377Y-18.477
X293.388Y20.942
X293.568Y73.052
X293.568Y70.512
X293.646Y152.962
X293.968Y-18.477
X294.159Y70.512
T4
X-217.872Y87.3
X-217.732Y-7.57
X-217.433Y40.622
X-217.433Y38.384
X-217.336Y-35.841
X-217.336Y-36.96
X-217.162Y-22.228
X-216.972Y63.01
X-216.748Y-51.201
X-216.748Y-52.32
X-216.546Y15.013
X-216.546Y12.775
X-97.656Y94.602
X-97.65Y44.955
X-97.553Y-33.674
X-97.516Y-3.919
X-97.506Y83.196
X-97.366Y-9.622
X-97.096Y33.903
X-97.0Y-39.201
X-96.965Y-49.034
X-96.947Y-18.577
X-96.862Y94.26
X-96.862Y83.332
X-96.797Y-24.28
X-96.764Y19.346
X-96.756Y70.312
X-96.722Y-4.09
X-96.722Y-9.554
X-96.606Y58.906
X-96.452Y44.967
X-96.411Y-54.56
X-96.356Y-33.669
X-96.35Y33.699
X-96.254Y-39.303
X-96.21Y8.294
X-96.153Y-18.748
X-96.153Y-24.212
X-95.962Y69.97
X-95.962Y59.042
X-95.767Y-49.028
X-95.592Y-54.662
X-95.566Y19.358
X-95.39Y8.091
X157.147Y94.602
X157.151Y83.332
X157.287Y-3.919
X157.291Y-9.554
X157.666Y33.85
X157.754Y45.28
X157.762Y-39.227
X157.851Y-33.512
X157.856Y-18.577
X157.86Y-24.212
X157.867Y83.426
X158.007Y-9.507
X158.014Y94.601
X158.047Y70.312
X158.051Y59.042
X158.154Y-3.919
X158.351Y-54.587
X158.439Y-48.872
X158.552Y8.242
X158.576Y-24.165
X158.581Y33.698
X158.641Y19.672
X158.678Y-39.303
X158.723Y-18.578
X158.741Y45.308
X158.767Y59.136
X158.837Y-33.498
X158.914Y70.311
X159.267Y-54.663
X159.426Y-48.858
X159.468Y8.089
X159.627Y19.7
X259.934Y90.33
X260.074Y-6.055
X260.344Y41.037
X260.44Y-20.706
X260.441Y-35.633
X260.631Y66.055
X261.029Y-50.993
X261.23Y15.429
X275.38Y87.467
X275.52Y-7.487
X275.798Y38.174
X275.894Y-37.065
X276.089Y-22.145
X276.28Y63.177
X276.483Y-52.425
X276.684Y12.566
X285.234Y96.613
X285.374Y-2.913
X285.943Y-17.571
X286.134Y72.323
T5
X289.177Y210.519
X289.792Y122.02
X290.775Y152.151
X292.474Y179.941
X293.92Y118.074
X293.92Y103.261
X293.926Y-50.929
X293.926Y-57.101
X293.979Y125.389
X293.979Y115.026
X293.985Y-47.881
X293.985Y-52.199
X294.127Y15.557
X294.127Y3.212
X294.186Y21.653
X294.186Y13.017
X294.384Y147.147
X294.384Y133.815
X294.443Y153.73
X294.443Y144.403
X297.24Y180.41
T6
X297.383Y-62.579
X297.383Y-65.119
X297.383Y-67.659
X297.795Y-86.0
X297.795Y-88.54
X297.795Y-91.08
X299.741Y-4.706
X299.741Y-7.246
X299.741Y-9.786
X299.761Y-74.083
X299.761Y-76.623
X299.761Y-79.163
X299.923Y-62.579
X299.923Y-65.119
X299.923Y-67.659
X300.335Y-86.0
X300.335Y-88.54
X300.335Y-91.08
X300.648Y-33.944
X300.648Y-36.484
X300.648Y-39.024
X300.853Y-98.157
X300.853Y-100.697
X300.853Y-103.237
X301.235Y-18.934
X301.235Y-21.474
X301.235Y-24.014
X302.281Y-4.706
X302.281Y-7.246
X302.281Y-9.786
X302.301Y-74.083
X302.301Y-76.623
X302.301Y-79.163
X302.32Y90.6
X302.32Y88.06
X302.32Y85.52
X302.386Y-49.234
X302.386Y-51.774
X302.386Y-54.314
X302.437Y40.294
X302.437Y37.754
X302.437Y35.214
X302.873Y205.124
X302.873Y202.584
X302.873Y200.044
X303.188Y-33.944
X303.188Y-36.484
X303.188Y-39.024
X303.316Y66.105
X303.316Y63.565
X303.316Y61.025
X303.393Y-98.157
X303.393Y-100.697
X303.393Y-103.237
X303.775Y-18.934
X303.775Y-21.474
X303.775Y-24.014
X303.879Y119.81
X303.879Y117.27
X303.879Y114.73
X303.964Y16.471
X303.964Y13.931
X303.964Y11.391
X304.221Y149.244
X304.221Y146.704
X304.221Y144.164
X304.86Y90.6
X304.86Y88.06
X304.86Y85.52
X304.926Y-49.234
X304.926Y-51.774
X304.926Y-54.314
X304.977Y40.294
X304.977Y37.754
X304.977Y35.214
X305.413Y205.124
X305.413Y202.584
X305.413Y200.044
X305.856Y66.105
X305.856Y63.565
X305.856Y61.025
X306.419Y119.81
X306.419Y117.27
X306.419Y114.73
X306.504Y16.471
X306.504Y13.931
X306.504Y11.391
X306.761Y149.244
X306.761Y146.704
X306.761Y144.164
X307.85Y176.231
X307.85Y173.691
X307.85Y171.151
X310.39Y176.231
X310.39Y173.691
X310.39Y171.151
M30
