G04 EAGLE Gerber RS-274X export*
G75*
%MOMM*%
%FSLAX34Y34*%
%LPD*%
%INCarbon Ink*%
%IPPOS*%
%AMOC8*
5,1,8,0,0,1.08239X$1,22.5*%
G01*

G36*
X5538520Y2171D02*
X5538520Y2171D01*
X5538571Y2173D01*
X5538603Y2191D01*
X5538639Y2199D01*
X5538678Y2232D01*
X5538723Y2256D01*
X5538744Y2286D01*
X5538772Y2309D01*
X5538793Y2356D01*
X5538823Y2398D01*
X5538831Y2440D01*
X5538843Y2468D01*
X5538842Y2498D01*
X5538850Y2540D01*
X5538850Y111760D01*
X5538839Y111810D01*
X5538837Y111861D01*
X5538819Y111893D01*
X5538811Y111929D01*
X5538778Y111968D01*
X5538754Y112013D01*
X5538724Y112034D01*
X5538701Y112062D01*
X5538654Y112083D01*
X5538612Y112113D01*
X5538570Y112121D01*
X5538542Y112133D01*
X5538512Y112132D01*
X5538470Y112140D01*
X77470Y112140D01*
X77420Y112129D01*
X77369Y112127D01*
X77337Y112109D01*
X77301Y112101D01*
X77262Y112068D01*
X77217Y112044D01*
X77196Y112014D01*
X77168Y111991D01*
X77147Y111944D01*
X77117Y111902D01*
X77109Y111860D01*
X77097Y111832D01*
X77098Y111802D01*
X77090Y111760D01*
X77090Y2540D01*
X77101Y2490D01*
X77103Y2439D01*
X77121Y2407D01*
X77129Y2371D01*
X77162Y2332D01*
X77186Y2287D01*
X77216Y2266D01*
X77239Y2238D01*
X77286Y2217D01*
X77328Y2187D01*
X77370Y2179D01*
X77398Y2167D01*
X77428Y2168D01*
X77470Y2160D01*
X5538470Y2160D01*
X5538520Y2171D01*
G37*
M02*
