G04 EAGLE Gerber RS-274X export*
G75*
%MOMM*%
%FSLAX34Y34*%
%LPD*%
%IN*%
%IPPOS*%
%AMOC8*
5,1,8,0,0,1.08239X$1,22.5*%
G01*
%ADD10C,0.254000*%


D10*
X0Y12193D02*
X0Y12167D01*
X27Y11613D01*
X101Y11064D01*
X223Y10524D01*
X392Y9996D01*
X606Y9486D01*
X864Y8995D01*
X1163Y8529D01*
X1503Y8091D01*
X1878Y7684D01*
X2288Y7312D01*
X2729Y6976D01*
X3198Y6681D01*
X3690Y6427D01*
X4203Y6217D01*
X4732Y6053D01*
X5273Y5935D01*
X5823Y5865D01*
X75937Y22D01*
X76464Y0D01*
X5623560Y0D01*
X5624113Y24D01*
X5624663Y96D01*
X5625204Y216D01*
X5625732Y383D01*
X5626244Y595D01*
X5626735Y851D01*
X5627202Y1148D01*
X5627642Y1486D01*
X5628050Y1860D01*
X5628424Y2268D01*
X5628762Y2708D01*
X5629059Y3175D01*
X5629315Y3666D01*
X5629527Y4178D01*
X5629694Y4707D01*
X5629814Y5247D01*
X5629886Y5797D01*
X5629910Y6350D01*
X5629910Y107950D01*
X5629886Y108503D01*
X5629814Y109053D01*
X5629694Y109594D01*
X5629527Y110122D01*
X5629315Y110634D01*
X5629059Y111125D01*
X5628762Y111592D01*
X5628424Y112032D01*
X5628050Y112440D01*
X5627642Y112814D01*
X5627202Y113152D01*
X5626735Y113449D01*
X5626244Y113705D01*
X5625732Y113917D01*
X5625204Y114084D01*
X5624663Y114204D01*
X5624113Y114276D01*
X5623560Y114300D01*
X77730Y114300D01*
X77211Y114279D01*
X5831Y108428D01*
X5797Y108425D01*
X5247Y108353D01*
X4707Y108233D01*
X4178Y108066D01*
X3666Y107854D01*
X3175Y107598D01*
X2708Y107301D01*
X2268Y106964D01*
X1860Y106589D01*
X1486Y106181D01*
X1148Y105741D01*
X851Y105274D01*
X595Y104783D01*
X383Y104271D01*
X216Y103743D01*
X96Y103202D01*
X24Y102653D01*
X0Y102099D01*
X0Y12193D01*
X5600700Y56606D02*
X5600622Y55520D01*
X5600467Y54442D01*
X5600236Y53379D01*
X5599929Y52334D01*
X5599549Y51314D01*
X5599097Y50324D01*
X5598575Y49369D01*
X5597986Y48453D01*
X5597334Y47581D01*
X5596621Y46759D01*
X5595851Y45989D01*
X5595029Y45276D01*
X5594157Y44624D01*
X5593241Y44035D01*
X5592286Y43513D01*
X5591296Y43061D01*
X5590276Y42681D01*
X5589231Y42374D01*
X5588168Y42143D01*
X5587090Y41988D01*
X5586004Y41910D01*
X5584916Y41910D01*
X5583830Y41988D01*
X5582752Y42143D01*
X5581689Y42374D01*
X5580644Y42681D01*
X5579624Y43061D01*
X5578634Y43513D01*
X5577679Y44035D01*
X5576763Y44624D01*
X5575891Y45276D01*
X5575069Y45989D01*
X5574299Y46759D01*
X5573586Y47581D01*
X5572934Y48453D01*
X5572345Y49369D01*
X5571823Y50324D01*
X5571371Y51314D01*
X5570991Y52334D01*
X5570684Y53379D01*
X5570453Y54442D01*
X5570298Y55520D01*
X5570220Y56606D01*
X5570220Y57694D01*
X5570298Y58780D01*
X5570453Y59858D01*
X5570684Y60921D01*
X5570991Y61966D01*
X5571371Y62986D01*
X5571823Y63976D01*
X5572345Y64931D01*
X5572934Y65847D01*
X5573586Y66719D01*
X5574299Y67541D01*
X5575069Y68311D01*
X5575891Y69024D01*
X5576763Y69676D01*
X5577679Y70265D01*
X5578634Y70787D01*
X5579624Y71239D01*
X5580644Y71619D01*
X5581689Y71926D01*
X5582752Y72157D01*
X5583830Y72312D01*
X5584916Y72390D01*
X5586004Y72390D01*
X5587090Y72312D01*
X5588168Y72157D01*
X5589231Y71926D01*
X5590276Y71619D01*
X5591296Y71239D01*
X5592286Y70787D01*
X5593241Y70265D01*
X5594157Y69676D01*
X5595029Y69024D01*
X5595851Y68311D01*
X5596621Y67541D01*
X5597334Y66719D01*
X5597986Y65847D01*
X5598575Y64931D01*
X5599097Y63976D01*
X5599549Y62986D01*
X5599929Y61966D01*
X5600236Y60921D01*
X5600467Y59858D01*
X5600622Y58780D01*
X5600700Y57694D01*
X5600700Y56606D01*
X48260Y56606D02*
X48182Y55520D01*
X48027Y54442D01*
X47796Y53379D01*
X47489Y52334D01*
X47109Y51314D01*
X46657Y50324D01*
X46135Y49369D01*
X45546Y48453D01*
X44894Y47581D01*
X44181Y46759D01*
X43411Y45989D01*
X42589Y45276D01*
X41717Y44624D01*
X40801Y44035D01*
X39846Y43513D01*
X38856Y43061D01*
X37836Y42681D01*
X36791Y42374D01*
X35728Y42143D01*
X34650Y41988D01*
X33564Y41910D01*
X32476Y41910D01*
X31390Y41988D01*
X30312Y42143D01*
X29249Y42374D01*
X28204Y42681D01*
X27184Y43061D01*
X26194Y43513D01*
X25239Y44035D01*
X24323Y44624D01*
X23451Y45276D01*
X22629Y45989D01*
X21859Y46759D01*
X21146Y47581D01*
X20494Y48453D01*
X19905Y49369D01*
X19383Y50324D01*
X18931Y51314D01*
X18551Y52334D01*
X18244Y53379D01*
X18013Y54442D01*
X17858Y55520D01*
X17780Y56606D01*
X17780Y57694D01*
X17858Y58780D01*
X18013Y59858D01*
X18244Y60921D01*
X18551Y61966D01*
X18931Y62986D01*
X19383Y63976D01*
X19905Y64931D01*
X20494Y65847D01*
X21146Y66719D01*
X21859Y67541D01*
X22629Y68311D01*
X23451Y69024D01*
X24323Y69676D01*
X25239Y70265D01*
X26194Y70787D01*
X27184Y71239D01*
X28204Y71619D01*
X29249Y71926D01*
X30312Y72157D01*
X31390Y72312D01*
X32476Y72390D01*
X33564Y72390D01*
X34650Y72312D01*
X35728Y72157D01*
X36791Y71926D01*
X37836Y71619D01*
X38856Y71239D01*
X39846Y70787D01*
X40801Y70265D01*
X41717Y69676D01*
X42589Y69024D01*
X43411Y68311D01*
X44181Y67541D01*
X44894Y66719D01*
X45546Y65847D01*
X46135Y64931D01*
X46657Y63976D01*
X47109Y62986D01*
X47489Y61966D01*
X47796Y60921D01*
X48027Y59858D01*
X48182Y58780D01*
X48260Y57694D01*
X48260Y56606D01*
X5593080Y88526D02*
X5593007Y87781D01*
X5592861Y87046D01*
X5592643Y86330D01*
X5592357Y85638D01*
X5592004Y84978D01*
X5591588Y84355D01*
X5591113Y83777D01*
X5590583Y83247D01*
X5590005Y82772D01*
X5589382Y82356D01*
X5588722Y82003D01*
X5588030Y81717D01*
X5587314Y81499D01*
X5586579Y81353D01*
X5585834Y81280D01*
X5585086Y81280D01*
X5584341Y81353D01*
X5583606Y81499D01*
X5582890Y81717D01*
X5582198Y82003D01*
X5581538Y82356D01*
X5580915Y82772D01*
X5580337Y83247D01*
X5579807Y83777D01*
X5579332Y84355D01*
X5578916Y84978D01*
X5578563Y85638D01*
X5578277Y86330D01*
X5578059Y87046D01*
X5577913Y87781D01*
X5577840Y88526D01*
X5577840Y89274D01*
X5577913Y90019D01*
X5578059Y90754D01*
X5578277Y91470D01*
X5578563Y92162D01*
X5578916Y92822D01*
X5579332Y93445D01*
X5579807Y94023D01*
X5580337Y94553D01*
X5580915Y95028D01*
X5581538Y95444D01*
X5582198Y95797D01*
X5582890Y96083D01*
X5583606Y96301D01*
X5584341Y96447D01*
X5585086Y96520D01*
X5585834Y96520D01*
X5586579Y96447D01*
X5587314Y96301D01*
X5588030Y96083D01*
X5588722Y95797D01*
X5589382Y95444D01*
X5590005Y95028D01*
X5590583Y94553D01*
X5591113Y94023D01*
X5591588Y93445D01*
X5592004Y92822D01*
X5592357Y92162D01*
X5592643Y91470D01*
X5592861Y90754D01*
X5593007Y90019D01*
X5593080Y89274D01*
X5593080Y88526D01*
X5593080Y25026D02*
X5593007Y24281D01*
X5592861Y23546D01*
X5592643Y22830D01*
X5592357Y22138D01*
X5592004Y21478D01*
X5591588Y20855D01*
X5591113Y20277D01*
X5590583Y19747D01*
X5590005Y19272D01*
X5589382Y18856D01*
X5588722Y18503D01*
X5588030Y18217D01*
X5587314Y17999D01*
X5586579Y17853D01*
X5585834Y17780D01*
X5585086Y17780D01*
X5584341Y17853D01*
X5583606Y17999D01*
X5582890Y18217D01*
X5582198Y18503D01*
X5581538Y18856D01*
X5580915Y19272D01*
X5580337Y19747D01*
X5579807Y20277D01*
X5579332Y20855D01*
X5578916Y21478D01*
X5578563Y22138D01*
X5578277Y22830D01*
X5578059Y23546D01*
X5577913Y24281D01*
X5577840Y25026D01*
X5577840Y25774D01*
X5577913Y26519D01*
X5578059Y27254D01*
X5578277Y27970D01*
X5578563Y28662D01*
X5578916Y29322D01*
X5579332Y29945D01*
X5579807Y30523D01*
X5580337Y31053D01*
X5580915Y31528D01*
X5581538Y31944D01*
X5582198Y32297D01*
X5582890Y32583D01*
X5583606Y32801D01*
X5584341Y32947D01*
X5585086Y33020D01*
X5585834Y33020D01*
X5586579Y32947D01*
X5587314Y32801D01*
X5588030Y32583D01*
X5588722Y32297D01*
X5589382Y31944D01*
X5590005Y31528D01*
X5590583Y31053D01*
X5591113Y30523D01*
X5591588Y29945D01*
X5592004Y29322D01*
X5592357Y28662D01*
X5592643Y27970D01*
X5592861Y27254D01*
X5593007Y26519D01*
X5593080Y25774D01*
X5593080Y25026D01*
X40640Y88526D02*
X40567Y87781D01*
X40421Y87046D01*
X40203Y86330D01*
X39917Y85638D01*
X39564Y84978D01*
X39148Y84355D01*
X38673Y83777D01*
X38143Y83247D01*
X37565Y82772D01*
X36942Y82356D01*
X36282Y82003D01*
X35590Y81717D01*
X34874Y81499D01*
X34139Y81353D01*
X33394Y81280D01*
X32646Y81280D01*
X31901Y81353D01*
X31166Y81499D01*
X30450Y81717D01*
X29758Y82003D01*
X29098Y82356D01*
X28475Y82772D01*
X27897Y83247D01*
X27367Y83777D01*
X26892Y84355D01*
X26476Y84978D01*
X26123Y85638D01*
X25837Y86330D01*
X25619Y87046D01*
X25473Y87781D01*
X25400Y88526D01*
X25400Y89274D01*
X25473Y90019D01*
X25619Y90754D01*
X25837Y91470D01*
X26123Y92162D01*
X26476Y92822D01*
X26892Y93445D01*
X27367Y94023D01*
X27897Y94553D01*
X28475Y95028D01*
X29098Y95444D01*
X29758Y95797D01*
X30450Y96083D01*
X31166Y96301D01*
X31901Y96447D01*
X32646Y96520D01*
X33394Y96520D01*
X34139Y96447D01*
X34874Y96301D01*
X35590Y96083D01*
X36282Y95797D01*
X36942Y95444D01*
X37565Y95028D01*
X38143Y94553D01*
X38673Y94023D01*
X39148Y93445D01*
X39564Y92822D01*
X39917Y92162D01*
X40203Y91470D01*
X40421Y90754D01*
X40567Y90019D01*
X40640Y89274D01*
X40640Y88526D01*
X40640Y25026D02*
X40567Y24281D01*
X40421Y23546D01*
X40203Y22830D01*
X39917Y22138D01*
X39564Y21478D01*
X39148Y20855D01*
X38673Y20277D01*
X38143Y19747D01*
X37565Y19272D01*
X36942Y18856D01*
X36282Y18503D01*
X35590Y18217D01*
X34874Y17999D01*
X34139Y17853D01*
X33394Y17780D01*
X32646Y17780D01*
X31901Y17853D01*
X31166Y17999D01*
X30450Y18217D01*
X29758Y18503D01*
X29098Y18856D01*
X28475Y19272D01*
X27897Y19747D01*
X27367Y20277D01*
X26892Y20855D01*
X26476Y21478D01*
X26123Y22138D01*
X25837Y22830D01*
X25619Y23546D01*
X25473Y24281D01*
X25400Y25026D01*
X25400Y25774D01*
X25473Y26519D01*
X25619Y27254D01*
X25837Y27970D01*
X26123Y28662D01*
X26476Y29322D01*
X26892Y29945D01*
X27367Y30523D01*
X27897Y31053D01*
X28475Y31528D01*
X29098Y31944D01*
X29758Y32297D01*
X30450Y32583D01*
X31166Y32801D01*
X31901Y32947D01*
X32646Y33020D01*
X33394Y33020D01*
X34139Y32947D01*
X34874Y32801D01*
X35590Y32583D01*
X36282Y32297D01*
X36942Y31944D01*
X37565Y31528D01*
X38143Y31053D01*
X38673Y30523D01*
X39148Y29945D01*
X39564Y29322D01*
X39917Y28662D01*
X40203Y27970D01*
X40421Y27254D01*
X40567Y26519D01*
X40640Y25774D01*
X40640Y25026D01*
M02*
