G04 EAGLE Gerber RS-274X export*
G75*
%MOMM*%
%FSLAX34Y34*%
%LPD*%
%INTop Copper*%
%IPPOS*%
%AMOC8*
5,1,8,0,0,1.08239X$1,22.5*%
G01*
G04 Define Apertures*
%ADD10C,1.508000*%
%ADD11P,1.64956X8X22.5*%
%ADD12C,1.422400*%
%ADD13C,4.191000*%
%ADD14C,0.203200*%
%ADD15C,0.152400*%
%ADD16C,1.270000*%
G36*
X1438146Y25207D02*
X1437997Y25192D01*
X984928Y25192D01*
X984780Y25207D01*
X976826Y26789D01*
X976551Y26903D01*
X969809Y31408D01*
X969598Y31618D01*
X965093Y38361D01*
X964979Y38636D01*
X963397Y46589D01*
X963382Y46738D01*
X963382Y191998D01*
X963429Y192262D01*
X963589Y192520D01*
X963836Y192695D01*
X964132Y192760D01*
X964430Y192705D01*
X964683Y192537D01*
X967269Y189951D01*
X972684Y187709D01*
X974863Y187709D01*
X975154Y187651D01*
X977473Y186690D01*
X977521Y186690D01*
X977794Y186639D01*
X977839Y186622D01*
X980425Y186690D01*
X980445Y186690D01*
X1084924Y186690D01*
X1085210Y186634D01*
X1085463Y186467D01*
X1111053Y160877D01*
X1116188Y158750D01*
X1131468Y158750D01*
X1131737Y158701D01*
X1131994Y158540D01*
X1132168Y158291D01*
X1132230Y157994D01*
X1132172Y157696D01*
X1131062Y155016D01*
X1131062Y153858D01*
X1150366Y153858D01*
X1150366Y155016D01*
X1149256Y157696D01*
X1149198Y157964D01*
X1149249Y158263D01*
X1149412Y158518D01*
X1149662Y158690D01*
X1149960Y158750D01*
X1154678Y158750D01*
X1154964Y158694D01*
X1155217Y158527D01*
X1161286Y152458D01*
X1161449Y152216D01*
X1161509Y151919D01*
X1161509Y133643D01*
X1161453Y133357D01*
X1161286Y133104D01*
X1155471Y127289D01*
X1155229Y127126D01*
X1154932Y127066D01*
X1149804Y127066D01*
X1149535Y127115D01*
X1149278Y127276D01*
X1149105Y127525D01*
X1149042Y127822D01*
X1149100Y128120D01*
X1150366Y131176D01*
X1150366Y132334D01*
X1131062Y132334D01*
X1131062Y131176D01*
X1132531Y127629D01*
X1133122Y127038D01*
X1133278Y126813D01*
X1133345Y126517D01*
X1133292Y126219D01*
X1133127Y125964D01*
X1132875Y125795D01*
X1132369Y125585D01*
X1128225Y121441D01*
X1125982Y116026D01*
X1125982Y110166D01*
X1128225Y104751D01*
X1132369Y100607D01*
X1137784Y98364D01*
X1143644Y98364D01*
X1145344Y99068D01*
X1145636Y99126D01*
X1163813Y99126D01*
X1168947Y101253D01*
X1187322Y119628D01*
X1189449Y124762D01*
X1189449Y160800D01*
X1187322Y165934D01*
X1168693Y184563D01*
X1163559Y186690D01*
X1127623Y186690D01*
X1127365Y186735D01*
X1127106Y186892D01*
X1126928Y187138D01*
X1126861Y187434D01*
X1126914Y187732D01*
X1127080Y187987D01*
X1127331Y188156D01*
X1131279Y189791D01*
X1135423Y193935D01*
X1137666Y199350D01*
X1137666Y205211D01*
X1135423Y210626D01*
X1134307Y211742D01*
X1134149Y211972D01*
X1134084Y212268D01*
X1134140Y212566D01*
X1134307Y212819D01*
X1135423Y213935D01*
X1137666Y219350D01*
X1137666Y225211D01*
X1135423Y230626D01*
X1131279Y234770D01*
X1125864Y237013D01*
X1120004Y237013D01*
X1114589Y234770D01*
X1112551Y232732D01*
X1112331Y232579D01*
X1112036Y232509D01*
X1111737Y232560D01*
X1111482Y232723D01*
X1111310Y232973D01*
X1111250Y233270D01*
X1111250Y247898D01*
X1111306Y248184D01*
X1111473Y248437D01*
X1140882Y277846D01*
X1141124Y278009D01*
X1141421Y278069D01*
X1143390Y278069D01*
X1148805Y280312D01*
X1152949Y284456D01*
X1155192Y289871D01*
X1155192Y295731D01*
X1152949Y301146D01*
X1148805Y305290D01*
X1148299Y305500D01*
X1148069Y305648D01*
X1147894Y305896D01*
X1147829Y306192D01*
X1147884Y306490D01*
X1148052Y306743D01*
X1148643Y307334D01*
X1150112Y310881D01*
X1150112Y312039D01*
X1130808Y312039D01*
X1130808Y310881D01*
X1131285Y309730D01*
X1131343Y309462D01*
X1131292Y309163D01*
X1131128Y308908D01*
X1130878Y308736D01*
X1130581Y308676D01*
X1126176Y308676D01*
X1125890Y308732D01*
X1125637Y308899D01*
X1111473Y323063D01*
X1111310Y323305D01*
X1111250Y323602D01*
X1111250Y374044D01*
X1111297Y374307D01*
X1111456Y374565D01*
X1111704Y374740D01*
X1112000Y374806D01*
X1112298Y374750D01*
X1112551Y374582D01*
X1114589Y372544D01*
X1120004Y370302D01*
X1125864Y370302D01*
X1131279Y372544D01*
X1135423Y376688D01*
X1137666Y382103D01*
X1137666Y387964D01*
X1135423Y393379D01*
X1134307Y394495D01*
X1134149Y394725D01*
X1134084Y395021D01*
X1134140Y395319D01*
X1134307Y395572D01*
X1135423Y396688D01*
X1137666Y402103D01*
X1137666Y407964D01*
X1135423Y413379D01*
X1131279Y417523D01*
X1125864Y419766D01*
X1120004Y419766D01*
X1114589Y417523D01*
X1112551Y415485D01*
X1112331Y415332D01*
X1112036Y415262D01*
X1111737Y415313D01*
X1111482Y415476D01*
X1111310Y415726D01*
X1111250Y416023D01*
X1111250Y427034D01*
X1111306Y427320D01*
X1111473Y427573D01*
X1147112Y463212D01*
X1147359Y463377D01*
X1149059Y464081D01*
X1153203Y468225D01*
X1155446Y473640D01*
X1155446Y479500D01*
X1153203Y484915D01*
X1149059Y489059D01*
X1148553Y489269D01*
X1148323Y489417D01*
X1148148Y489665D01*
X1148083Y489961D01*
X1148138Y490259D01*
X1148306Y490512D01*
X1148897Y491103D01*
X1150366Y494650D01*
X1150366Y495808D01*
X1131062Y495808D01*
X1131062Y494650D01*
X1132531Y491103D01*
X1133122Y490512D01*
X1133278Y490287D01*
X1133345Y489991D01*
X1133292Y489693D01*
X1133127Y489438D01*
X1132875Y489269D01*
X1132369Y489059D01*
X1128225Y484915D01*
X1127682Y483605D01*
X1127534Y483375D01*
X1127286Y483199D01*
X1126990Y483134D01*
X1126692Y483190D01*
X1126439Y483357D01*
X1114013Y495783D01*
X1113850Y496025D01*
X1113790Y496322D01*
X1113790Y554149D01*
X1113839Y554418D01*
X1114000Y554674D01*
X1114249Y554848D01*
X1114546Y554911D01*
X1114844Y554853D01*
X1120258Y552610D01*
X1126118Y552610D01*
X1131533Y554853D01*
X1135677Y558997D01*
X1137920Y564412D01*
X1137920Y570272D01*
X1135677Y575687D01*
X1134561Y576803D01*
X1134403Y577034D01*
X1134338Y577330D01*
X1134394Y577628D01*
X1134561Y577881D01*
X1135677Y578997D01*
X1137920Y584412D01*
X1137920Y590272D01*
X1135677Y595687D01*
X1131533Y599831D01*
X1126118Y602074D01*
X1120258Y602074D01*
X1114844Y599831D01*
X1114576Y599774D01*
X1114277Y599825D01*
X1114022Y599988D01*
X1113850Y600238D01*
X1113790Y600535D01*
X1113790Y612553D01*
X1113842Y612831D01*
X1114007Y613085D01*
X1147241Y647094D01*
X1147495Y647265D01*
X1149059Y647913D01*
X1153203Y652057D01*
X1155446Y657472D01*
X1155446Y663333D01*
X1153203Y668748D01*
X1149059Y672892D01*
X1148553Y673101D01*
X1148323Y673250D01*
X1148148Y673497D01*
X1148083Y673793D01*
X1148138Y674091D01*
X1148306Y674344D01*
X1148897Y674935D01*
X1150366Y678483D01*
X1150366Y679641D01*
X1131062Y679641D01*
X1131062Y678483D01*
X1132531Y674935D01*
X1133122Y674344D01*
X1133278Y674119D01*
X1133345Y673824D01*
X1133292Y673525D01*
X1133127Y673271D01*
X1132875Y673101D01*
X1132369Y672892D01*
X1128225Y668748D01*
X1127464Y666910D01*
X1127305Y666669D01*
X1115097Y654177D01*
X1114871Y654018D01*
X1114576Y653948D01*
X1114277Y653999D01*
X1114022Y654162D01*
X1113850Y654412D01*
X1113790Y654709D01*
X1113790Y736648D01*
X1113839Y736917D01*
X1114000Y737173D01*
X1114249Y737347D01*
X1114546Y737410D01*
X1114844Y737352D01*
X1120258Y735109D01*
X1126118Y735109D01*
X1131533Y737352D01*
X1135677Y741496D01*
X1137920Y746911D01*
X1137920Y752771D01*
X1135677Y758186D01*
X1134561Y759302D01*
X1134403Y759533D01*
X1134338Y759829D01*
X1134394Y760127D01*
X1134561Y760380D01*
X1135677Y761496D01*
X1137920Y766911D01*
X1137920Y772771D01*
X1135677Y778186D01*
X1131533Y782330D01*
X1126118Y784573D01*
X1120258Y784573D01*
X1114844Y782330D01*
X1114576Y782273D01*
X1114277Y782324D01*
X1114022Y782487D01*
X1113850Y782737D01*
X1113790Y783034D01*
X1113790Y793048D01*
X1113846Y793334D01*
X1114013Y793587D01*
X1137429Y817003D01*
X1137601Y817132D01*
X1138203Y817463D01*
X1139429Y818996D01*
X1139485Y819059D01*
X1140873Y820447D01*
X1141136Y821082D01*
X1141245Y821266D01*
X1146946Y828392D01*
X1147243Y828617D01*
X1147541Y828678D01*
X1193406Y828678D01*
X1198541Y830804D01*
X1250163Y882427D01*
X1250405Y882590D01*
X1250702Y882650D01*
X1332478Y882650D01*
X1332764Y882594D01*
X1333017Y882427D01*
X1403127Y812317D01*
X1403290Y812075D01*
X1403350Y811778D01*
X1403350Y754658D01*
X1403294Y754372D01*
X1403127Y754119D01*
X1402080Y753073D01*
X1402080Y740447D01*
X1411007Y731520D01*
X1423633Y731520D01*
X1432560Y740447D01*
X1432560Y753073D01*
X1431513Y754119D01*
X1431350Y754361D01*
X1431290Y754658D01*
X1431290Y820659D01*
X1429163Y825793D01*
X1346493Y908463D01*
X1341359Y910590D01*
X1241821Y910590D01*
X1236687Y908463D01*
X1185064Y856841D01*
X1184823Y856678D01*
X1184525Y856618D01*
X1149550Y856618D01*
X1149281Y856667D01*
X1149024Y856828D01*
X1148851Y857077D01*
X1148788Y857373D01*
X1148846Y857671D01*
X1150112Y860728D01*
X1150112Y861886D01*
X1130808Y861886D01*
X1130808Y860728D01*
X1132277Y857180D01*
X1132868Y856589D01*
X1133024Y856364D01*
X1133091Y856069D01*
X1133038Y855770D01*
X1132873Y855516D01*
X1132621Y855346D01*
X1132115Y855137D01*
X1127971Y850992D01*
X1127875Y850761D01*
X1127727Y850532D01*
X1127479Y850356D01*
X1127183Y850291D01*
X1126885Y850347D01*
X1126632Y850514D01*
X1038199Y938948D01*
X1038161Y938989D01*
X1036699Y940683D01*
X1036335Y940866D01*
X1036139Y941008D01*
X1035851Y941295D01*
X1033784Y942152D01*
X1033733Y942175D01*
X1031734Y943181D01*
X1031328Y943210D01*
X1031093Y943266D01*
X1030717Y943422D01*
X1028479Y943422D01*
X1028423Y943424D01*
X990239Y946232D01*
X990026Y946279D01*
X989770Y946440D01*
X989596Y946689D01*
X989533Y946986D01*
X989591Y947283D01*
X990854Y950332D01*
X990854Y956192D01*
X988611Y961607D01*
X984675Y965543D01*
X984470Y965919D01*
X984465Y966222D01*
X984579Y966503D01*
X984794Y966717D01*
X985075Y966831D01*
X1367503Y1037847D01*
X1367642Y1037860D01*
X1439560Y1037860D01*
X1439709Y1037845D01*
X1446698Y1036455D01*
X1446973Y1036341D01*
X1452899Y1032382D01*
X1453109Y1032171D01*
X1457069Y1026246D01*
X1457182Y1025971D01*
X1458573Y1018981D01*
X1458587Y1018832D01*
X1458587Y45782D01*
X1458573Y45633D01*
X1457064Y38046D01*
X1456950Y37771D01*
X1452652Y31338D01*
X1452441Y31128D01*
X1446009Y26830D01*
X1445734Y26716D01*
X1438146Y25207D01*
G37*
%LPC*%
G36*
X1120512Y918370D02*
X1126372Y918370D01*
X1131787Y920613D01*
X1135931Y924757D01*
X1138174Y930172D01*
X1138174Y936032D01*
X1135931Y941447D01*
X1134815Y942563D01*
X1134657Y942794D01*
X1134592Y943090D01*
X1134648Y943388D01*
X1134815Y943641D01*
X1135931Y944757D01*
X1138174Y950172D01*
X1138174Y956032D01*
X1135931Y961447D01*
X1131787Y965591D01*
X1126372Y967834D01*
X1120512Y967834D01*
X1115097Y965591D01*
X1110953Y961447D01*
X1108710Y956032D01*
X1108710Y950172D01*
X1110953Y944757D01*
X1112069Y943641D01*
X1112227Y943410D01*
X1112292Y943114D01*
X1112236Y942816D01*
X1112069Y942563D01*
X1110953Y941447D01*
X1108710Y936032D01*
X1108710Y930172D01*
X1110953Y924757D01*
X1115097Y920613D01*
X1120512Y918370D01*
G37*
G36*
X1416516Y916940D02*
X1423204Y916940D01*
X1429664Y918671D01*
X1435456Y922015D01*
X1440185Y926744D01*
X1443529Y932536D01*
X1445260Y938996D01*
X1445260Y945684D01*
X1443529Y952144D01*
X1440185Y957936D01*
X1435456Y962665D01*
X1429664Y966009D01*
X1423204Y967740D01*
X1416516Y967740D01*
X1410056Y966009D01*
X1404264Y962665D01*
X1399535Y957936D01*
X1396191Y952144D01*
X1394460Y945684D01*
X1394460Y938996D01*
X1396191Y932536D01*
X1399535Y926744D01*
X1404264Y922015D01*
X1410056Y918671D01*
X1416516Y916940D01*
G37*
G36*
X1141222Y883410D02*
X1150112Y883410D01*
X1150112Y884567D01*
X1148643Y888115D01*
X1145927Y890830D01*
X1142380Y892300D01*
X1141222Y892300D01*
X1141222Y883410D01*
G37*
G36*
X1130808Y883410D02*
X1139698Y883410D01*
X1139698Y892300D01*
X1138540Y892300D01*
X1134993Y890830D01*
X1132277Y888115D01*
X1130808Y884567D01*
X1130808Y883410D01*
G37*
G36*
X1130808Y863410D02*
X1150112Y863410D01*
X1150112Y864567D01*
X1148643Y868115D01*
X1145927Y870830D01*
X1143239Y871944D01*
X1143014Y872088D01*
X1142837Y872334D01*
X1142769Y872629D01*
X1142822Y872928D01*
X1142988Y873182D01*
X1143239Y873352D01*
X1145927Y874465D01*
X1148643Y877180D01*
X1150112Y880728D01*
X1150112Y881886D01*
X1130808Y881886D01*
X1130808Y880728D01*
X1132277Y877180D01*
X1134993Y874465D01*
X1137681Y873352D01*
X1137906Y873207D01*
X1138083Y872961D01*
X1138151Y872666D01*
X1138098Y872367D01*
X1137932Y872113D01*
X1137681Y871944D01*
X1134993Y870830D01*
X1132277Y868115D01*
X1130808Y864567D01*
X1130808Y863410D01*
G37*
G36*
X1284850Y827756D02*
X1290710Y827756D01*
X1296125Y829998D01*
X1300269Y834142D01*
X1302512Y839557D01*
X1302512Y845418D01*
X1300269Y850833D01*
X1299153Y851949D01*
X1298995Y852179D01*
X1298930Y852475D01*
X1298986Y852773D01*
X1299153Y853026D01*
X1300269Y854142D01*
X1302512Y859557D01*
X1302512Y865418D01*
X1300269Y870833D01*
X1296125Y874977D01*
X1290710Y877220D01*
X1284850Y877220D01*
X1279435Y874977D01*
X1275291Y870833D01*
X1273048Y865418D01*
X1273048Y859557D01*
X1275291Y854142D01*
X1276407Y853026D01*
X1276565Y852796D01*
X1276630Y852500D01*
X1276574Y852202D01*
X1276407Y851949D01*
X1275291Y850833D01*
X1273048Y845418D01*
X1273048Y839557D01*
X1275291Y834142D01*
X1279435Y829998D01*
X1284850Y827756D01*
G37*
G36*
X1131062Y701165D02*
X1139952Y701165D01*
X1139952Y710055D01*
X1138794Y710055D01*
X1135247Y708585D01*
X1132531Y705870D01*
X1131062Y702322D01*
X1131062Y701165D01*
G37*
G36*
X1141476Y701165D02*
X1150366Y701165D01*
X1150366Y702322D01*
X1148897Y705870D01*
X1146181Y708585D01*
X1142634Y710055D01*
X1141476Y710055D01*
X1141476Y701165D01*
G37*
G36*
X1131062Y681165D02*
X1150366Y681165D01*
X1150366Y682322D01*
X1148897Y685870D01*
X1146181Y688585D01*
X1143493Y689699D01*
X1143268Y689843D01*
X1143091Y690089D01*
X1143023Y690384D01*
X1143076Y690683D01*
X1143242Y690937D01*
X1143493Y691107D01*
X1146181Y692220D01*
X1148897Y694935D01*
X1150366Y698483D01*
X1150366Y699641D01*
X1131062Y699641D01*
X1131062Y698483D01*
X1132531Y694935D01*
X1135247Y692220D01*
X1137935Y691107D01*
X1138160Y690962D01*
X1138337Y690716D01*
X1138405Y690421D01*
X1138352Y690122D01*
X1138186Y689868D01*
X1137935Y689699D01*
X1135247Y688585D01*
X1132531Y685870D01*
X1131062Y682322D01*
X1131062Y681165D01*
G37*
G36*
X1285104Y645511D02*
X1290964Y645511D01*
X1296379Y647753D01*
X1300523Y651897D01*
X1302766Y657312D01*
X1302766Y663173D01*
X1300523Y668588D01*
X1299407Y669704D01*
X1299249Y669934D01*
X1299184Y670230D01*
X1299240Y670528D01*
X1299407Y670781D01*
X1300523Y671897D01*
X1302766Y677312D01*
X1302766Y683173D01*
X1300523Y688588D01*
X1296379Y692732D01*
X1290964Y694975D01*
X1285104Y694975D01*
X1279689Y692732D01*
X1275545Y688588D01*
X1273302Y683173D01*
X1273302Y677312D01*
X1275545Y671897D01*
X1276661Y670781D01*
X1276819Y670551D01*
X1276884Y670255D01*
X1276828Y669957D01*
X1276661Y669704D01*
X1275545Y668588D01*
X1273302Y663173D01*
X1273302Y657312D01*
X1275545Y651897D01*
X1279689Y647753D01*
X1285104Y645511D01*
G37*
G36*
X1210776Y563880D02*
X1217464Y563880D01*
X1223924Y565611D01*
X1229716Y568955D01*
X1234445Y573684D01*
X1237789Y579476D01*
X1239520Y585936D01*
X1239520Y592624D01*
X1237789Y599084D01*
X1234445Y604876D01*
X1229716Y609605D01*
X1223924Y612949D01*
X1217464Y614680D01*
X1210776Y614680D01*
X1204316Y612949D01*
X1198524Y609605D01*
X1193795Y604876D01*
X1190451Y599084D01*
X1188720Y592624D01*
X1188720Y585936D01*
X1190451Y579476D01*
X1193795Y573684D01*
X1198524Y568955D01*
X1204316Y565611D01*
X1210776Y563880D01*
G37*
G36*
X1435100Y557022D02*
X1444498Y557022D01*
X1444498Y566420D01*
X1441052Y566420D01*
X1435100Y560468D01*
X1435100Y557022D01*
G37*
G36*
X1297940Y557022D02*
X1307338Y557022D01*
X1307338Y566420D01*
X1303892Y566420D01*
X1297940Y560468D01*
X1297940Y557022D01*
G37*
G36*
X1446022Y557022D02*
X1455420Y557022D01*
X1455420Y560468D01*
X1449468Y566420D01*
X1446022Y566420D01*
X1446022Y557022D01*
G37*
G36*
X1308862Y557022D02*
X1318260Y557022D01*
X1318260Y560468D01*
X1312308Y566420D01*
X1308862Y566420D01*
X1308862Y557022D01*
G37*
G36*
X1446022Y546100D02*
X1449468Y546100D01*
X1455420Y552052D01*
X1455420Y555498D01*
X1446022Y555498D01*
X1446022Y546100D01*
G37*
G36*
X1441052Y546100D02*
X1444498Y546100D01*
X1444498Y555498D01*
X1435100Y555498D01*
X1435100Y552052D01*
X1441052Y546100D01*
G37*
G36*
X1308862Y546100D02*
X1312308Y546100D01*
X1318260Y552052D01*
X1318260Y555498D01*
X1308862Y555498D01*
X1308862Y546100D01*
G37*
G36*
X1303892Y546100D02*
X1307338Y546100D01*
X1307338Y555498D01*
X1297940Y555498D01*
X1297940Y552052D01*
X1303892Y546100D01*
G37*
G36*
X1141476Y517332D02*
X1150366Y517332D01*
X1150366Y518490D01*
X1148897Y522037D01*
X1146181Y524753D01*
X1142634Y526222D01*
X1141476Y526222D01*
X1141476Y517332D01*
G37*
G36*
X1131062Y517332D02*
X1139952Y517332D01*
X1139952Y526222D01*
X1138794Y526222D01*
X1135247Y524753D01*
X1132531Y522037D01*
X1131062Y518490D01*
X1131062Y517332D01*
G37*
G36*
X1131062Y497332D02*
X1150366Y497332D01*
X1150366Y498490D01*
X1148897Y502037D01*
X1146181Y504753D01*
X1143493Y505866D01*
X1143268Y506010D01*
X1143091Y506256D01*
X1143023Y506552D01*
X1143076Y506850D01*
X1143242Y507105D01*
X1143493Y507274D01*
X1146181Y508387D01*
X1148897Y511103D01*
X1150366Y514650D01*
X1150366Y515808D01*
X1131062Y515808D01*
X1131062Y514650D01*
X1132531Y511103D01*
X1135247Y508387D01*
X1137935Y507274D01*
X1138160Y507130D01*
X1138337Y506884D01*
X1138405Y506588D01*
X1138352Y506290D01*
X1138186Y506036D01*
X1137935Y505866D01*
X1135247Y504753D01*
X1132531Y502037D01*
X1131062Y498490D01*
X1131062Y497332D01*
G37*
G36*
X1285104Y461678D02*
X1290964Y461678D01*
X1296379Y463921D01*
X1300523Y468065D01*
X1302766Y473480D01*
X1302766Y479340D01*
X1300523Y484755D01*
X1299407Y485871D01*
X1299249Y486102D01*
X1299184Y486398D01*
X1299240Y486696D01*
X1299407Y486949D01*
X1300523Y488065D01*
X1302766Y493480D01*
X1302766Y499340D01*
X1300523Y504755D01*
X1296379Y508899D01*
X1290964Y511142D01*
X1285104Y511142D01*
X1279689Y508899D01*
X1275545Y504755D01*
X1273302Y499340D01*
X1273302Y493480D01*
X1275545Y488065D01*
X1276661Y486949D01*
X1276819Y486718D01*
X1276884Y486422D01*
X1276828Y486124D01*
X1276661Y485871D01*
X1275545Y484755D01*
X1273302Y479340D01*
X1273302Y473480D01*
X1275545Y468065D01*
X1279689Y463921D01*
X1285104Y461678D01*
G37*
G36*
X1363504Y137240D02*
X1369536Y137240D01*
X1375107Y139548D01*
X1379372Y143813D01*
X1381265Y148383D01*
X1381409Y148609D01*
X1381655Y148786D01*
X1381951Y148853D01*
X1382250Y148800D01*
X1382504Y148635D01*
X1382673Y148383D01*
X1383375Y146690D01*
X1386210Y143855D01*
X1389915Y142320D01*
X1391158Y142320D01*
X1391158Y162480D01*
X1389915Y162480D01*
X1386210Y160945D01*
X1383375Y158110D01*
X1382673Y156417D01*
X1382529Y156191D01*
X1382283Y156014D01*
X1381988Y155947D01*
X1381689Y156000D01*
X1381435Y156165D01*
X1381265Y156417D01*
X1379372Y160987D01*
X1375798Y164561D01*
X1375640Y164792D01*
X1375575Y165088D01*
X1375631Y165386D01*
X1375798Y165639D01*
X1379372Y169213D01*
X1381265Y173783D01*
X1381409Y174009D01*
X1381655Y174186D01*
X1381951Y174253D01*
X1382250Y174200D01*
X1382504Y174035D01*
X1382673Y173783D01*
X1383375Y172090D01*
X1386210Y169255D01*
X1389915Y167720D01*
X1391158Y167720D01*
X1391158Y178562D01*
X1402000Y178562D01*
X1402000Y179805D01*
X1400465Y183510D01*
X1397630Y186345D01*
X1395937Y187047D01*
X1395711Y187191D01*
X1395534Y187437D01*
X1395467Y187733D01*
X1395520Y188031D01*
X1395685Y188285D01*
X1395937Y188455D01*
X1400507Y190348D01*
X1404772Y194613D01*
X1407080Y200184D01*
X1407080Y206216D01*
X1404772Y211787D01*
X1401198Y215361D01*
X1401040Y215592D01*
X1400975Y215888D01*
X1401031Y216186D01*
X1401198Y216439D01*
X1404772Y220013D01*
X1407080Y225584D01*
X1407080Y231616D01*
X1404772Y237187D01*
X1401198Y240761D01*
X1401040Y240992D01*
X1400975Y241288D01*
X1401031Y241586D01*
X1401198Y241839D01*
X1404772Y245413D01*
X1407080Y250984D01*
X1407080Y257016D01*
X1404772Y262587D01*
X1401198Y266161D01*
X1401040Y266392D01*
X1400975Y266688D01*
X1401031Y266986D01*
X1401198Y267239D01*
X1404772Y270813D01*
X1407080Y276384D01*
X1407080Y282416D01*
X1404772Y287987D01*
X1401198Y291561D01*
X1401040Y291792D01*
X1400975Y292088D01*
X1401031Y292386D01*
X1401198Y292639D01*
X1404772Y296213D01*
X1407080Y301784D01*
X1407080Y307816D01*
X1404772Y313387D01*
X1401198Y316961D01*
X1401040Y317192D01*
X1400975Y317488D01*
X1401031Y317786D01*
X1401198Y318039D01*
X1404772Y321613D01*
X1407080Y327184D01*
X1407080Y333216D01*
X1404772Y338787D01*
X1400507Y343052D01*
X1394936Y345360D01*
X1388904Y345360D01*
X1383333Y343052D01*
X1379759Y339478D01*
X1379528Y339320D01*
X1379232Y339255D01*
X1378934Y339311D01*
X1378681Y339478D01*
X1375107Y343052D01*
X1369536Y345360D01*
X1363504Y345360D01*
X1357933Y343052D01*
X1353668Y338787D01*
X1351360Y333216D01*
X1351360Y327184D01*
X1353668Y321613D01*
X1357242Y318039D01*
X1357400Y317808D01*
X1357465Y317512D01*
X1357409Y317214D01*
X1357242Y316961D01*
X1353668Y313387D01*
X1351360Y307816D01*
X1351360Y301784D01*
X1353668Y296213D01*
X1357242Y292639D01*
X1357400Y292408D01*
X1357465Y292112D01*
X1357409Y291814D01*
X1357242Y291561D01*
X1353668Y287987D01*
X1351360Y282416D01*
X1351360Y276384D01*
X1353668Y270813D01*
X1357242Y267239D01*
X1357400Y267008D01*
X1357465Y266712D01*
X1357409Y266414D01*
X1357242Y266161D01*
X1353668Y262587D01*
X1351360Y257016D01*
X1351360Y250984D01*
X1353668Y245413D01*
X1357242Y241839D01*
X1357400Y241608D01*
X1357465Y241312D01*
X1357409Y241014D01*
X1357242Y240761D01*
X1353668Y237187D01*
X1351360Y231616D01*
X1351360Y225584D01*
X1353668Y220013D01*
X1357242Y216439D01*
X1357400Y216208D01*
X1357465Y215912D01*
X1357409Y215614D01*
X1357242Y215361D01*
X1353668Y211787D01*
X1351360Y206216D01*
X1351360Y200184D01*
X1353668Y194613D01*
X1357242Y191039D01*
X1357400Y190808D01*
X1357465Y190512D01*
X1357409Y190214D01*
X1357242Y189961D01*
X1353668Y186387D01*
X1351360Y180816D01*
X1351360Y174784D01*
X1353668Y169213D01*
X1357242Y165639D01*
X1357400Y165408D01*
X1357465Y165112D01*
X1357409Y164814D01*
X1357242Y164561D01*
X1353668Y160987D01*
X1351360Y155416D01*
X1351360Y149384D01*
X1353668Y143813D01*
X1357933Y139548D01*
X1363504Y137240D01*
G37*
G36*
X1130808Y333563D02*
X1139698Y333563D01*
X1139698Y342453D01*
X1138540Y342453D01*
X1134993Y340984D01*
X1132277Y338268D01*
X1130808Y334721D01*
X1130808Y333563D01*
G37*
G36*
X1141222Y333563D02*
X1150112Y333563D01*
X1150112Y334721D01*
X1148643Y338268D01*
X1145927Y340984D01*
X1142380Y342453D01*
X1141222Y342453D01*
X1141222Y333563D01*
G37*
G36*
X1130808Y313563D02*
X1150112Y313563D01*
X1150112Y314721D01*
X1148643Y318268D01*
X1145927Y320984D01*
X1143239Y322097D01*
X1143014Y322241D01*
X1142837Y322487D01*
X1142769Y322783D01*
X1142822Y323081D01*
X1142988Y323336D01*
X1143239Y323505D01*
X1145927Y324618D01*
X1148643Y327334D01*
X1150112Y330881D01*
X1150112Y332039D01*
X1130808Y332039D01*
X1130808Y330881D01*
X1132277Y327334D01*
X1134993Y324618D01*
X1137681Y323505D01*
X1137906Y323361D01*
X1138083Y323115D01*
X1138151Y322819D01*
X1138098Y322521D01*
X1137932Y322267D01*
X1137681Y322097D01*
X1134993Y320984D01*
X1132277Y318268D01*
X1130808Y314721D01*
X1130808Y313563D01*
G37*
G36*
X1284850Y277909D02*
X1290710Y277909D01*
X1296125Y280152D01*
X1300269Y284296D01*
X1302512Y289711D01*
X1302512Y295571D01*
X1300269Y300986D01*
X1299153Y302102D01*
X1298995Y302333D01*
X1298930Y302629D01*
X1298986Y302927D01*
X1299153Y303180D01*
X1300269Y304296D01*
X1302512Y309711D01*
X1302512Y315571D01*
X1300269Y320986D01*
X1296125Y325130D01*
X1290710Y327373D01*
X1284850Y327373D01*
X1279435Y325130D01*
X1275291Y320986D01*
X1273048Y315571D01*
X1273048Y309711D01*
X1275291Y304296D01*
X1276407Y303180D01*
X1276565Y302949D01*
X1276630Y302653D01*
X1276574Y302355D01*
X1276407Y302102D01*
X1275291Y300986D01*
X1273048Y295571D01*
X1273048Y289711D01*
X1275291Y284296D01*
X1279435Y280152D01*
X1284850Y277909D01*
G37*
G36*
X1269196Y193040D02*
X1275884Y193040D01*
X1282344Y194771D01*
X1288136Y198115D01*
X1292865Y202844D01*
X1296209Y208636D01*
X1297940Y215096D01*
X1297940Y221784D01*
X1296209Y228244D01*
X1292865Y234036D01*
X1288136Y238765D01*
X1282344Y242109D01*
X1275884Y243840D01*
X1269196Y243840D01*
X1262736Y242109D01*
X1256944Y238765D01*
X1252215Y234036D01*
X1248871Y228244D01*
X1247140Y221784D01*
X1247140Y215096D01*
X1248871Y208636D01*
X1252215Y202844D01*
X1256944Y198115D01*
X1262736Y194771D01*
X1269196Y193040D01*
G37*
G36*
X1314487Y160020D02*
X1327113Y160020D01*
X1336040Y168947D01*
X1336040Y181573D01*
X1327113Y190500D01*
X1314487Y190500D01*
X1305560Y181573D01*
X1305560Y168947D01*
X1314487Y160020D01*
G37*
G36*
X1392682Y167720D02*
X1393925Y167720D01*
X1397630Y169255D01*
X1400465Y172090D01*
X1402000Y175795D01*
X1402000Y177038D01*
X1392682Y177038D01*
X1392682Y167720D01*
G37*
G36*
X1392682Y153162D02*
X1402000Y153162D01*
X1402000Y154405D01*
X1400465Y158110D01*
X1397630Y160945D01*
X1393925Y162480D01*
X1392682Y162480D01*
X1392682Y153162D01*
G37*
G36*
X1002496Y109220D02*
X1009184Y109220D01*
X1015644Y110951D01*
X1021436Y114295D01*
X1026165Y119024D01*
X1029509Y124816D01*
X1031240Y131276D01*
X1031240Y137964D01*
X1029509Y144424D01*
X1026165Y150216D01*
X1021436Y154945D01*
X1015644Y158289D01*
X1009184Y160020D01*
X1002496Y160020D01*
X996036Y158289D01*
X990244Y154945D01*
X985515Y150216D01*
X982171Y144424D01*
X980440Y137964D01*
X980440Y131276D01*
X982171Y124816D01*
X985515Y119024D01*
X990244Y114295D01*
X996036Y110951D01*
X1002496Y109220D01*
G37*
G36*
X1131062Y133858D02*
X1150366Y133858D01*
X1150366Y135016D01*
X1148897Y138563D01*
X1146181Y141279D01*
X1143493Y142392D01*
X1143268Y142536D01*
X1143091Y142782D01*
X1143023Y143078D01*
X1143076Y143376D01*
X1143242Y143631D01*
X1143493Y143800D01*
X1146181Y144913D01*
X1148897Y147629D01*
X1150366Y151176D01*
X1150366Y152334D01*
X1131062Y152334D01*
X1131062Y151176D01*
X1132531Y147629D01*
X1135247Y144913D01*
X1137935Y143800D01*
X1138160Y143656D01*
X1138337Y143410D01*
X1138405Y143114D01*
X1138352Y142816D01*
X1138186Y142562D01*
X1137935Y142392D01*
X1135247Y141279D01*
X1132531Y138563D01*
X1131062Y135016D01*
X1131062Y133858D01*
G37*
G36*
X1392682Y142320D02*
X1393925Y142320D01*
X1397630Y143855D01*
X1400465Y146690D01*
X1402000Y150395D01*
X1402000Y151638D01*
X1392682Y151638D01*
X1392682Y142320D01*
G37*
G36*
X1285104Y96570D02*
X1290964Y96570D01*
X1296379Y98813D01*
X1300523Y102957D01*
X1302766Y108372D01*
X1302766Y114233D01*
X1300523Y119647D01*
X1299407Y120764D01*
X1299249Y120994D01*
X1299184Y121290D01*
X1299240Y121588D01*
X1299407Y121841D01*
X1300523Y122957D01*
X1302766Y128372D01*
X1302766Y134233D01*
X1300523Y139647D01*
X1296379Y143792D01*
X1290964Y146034D01*
X1285104Y146034D01*
X1279689Y143792D01*
X1275545Y139647D01*
X1273302Y134233D01*
X1273302Y128372D01*
X1275545Y122957D01*
X1276661Y121841D01*
X1276819Y121611D01*
X1276884Y121315D01*
X1276828Y121016D01*
X1276661Y120764D01*
X1275545Y119647D01*
X1273302Y114233D01*
X1273302Y108372D01*
X1275545Y102957D01*
X1279689Y98813D01*
X1285104Y96570D01*
G37*
G36*
X1370367Y73660D02*
X1382993Y73660D01*
X1391920Y82587D01*
X1391920Y95213D01*
X1382993Y104140D01*
X1370367Y104140D01*
X1361440Y95213D01*
X1361440Y82587D01*
X1370367Y73660D01*
G37*
%LPD*%
G36*
X964464Y759498D02*
X964169Y759428D01*
X963870Y759479D01*
X963614Y759642D01*
X963443Y759892D01*
X963382Y760189D01*
X963382Y923328D01*
X963429Y923591D01*
X963589Y923849D01*
X963836Y924025D01*
X964132Y924090D01*
X964430Y924034D01*
X964683Y923867D01*
X967777Y920773D01*
X973192Y918530D01*
X979052Y918530D01*
X979929Y918893D01*
X980276Y918949D01*
X1021450Y915921D01*
X1021680Y915868D01*
X1021933Y915700D01*
X1108735Y828899D01*
X1108893Y828668D01*
X1108958Y828372D01*
X1108902Y828074D01*
X1108735Y827821D01*
X1087977Y807063D01*
X1085850Y801929D01*
X1085850Y764032D01*
X1085799Y763757D01*
X1085635Y763502D01*
X1085385Y763330D01*
X1085088Y763270D01*
X984627Y763270D01*
X984363Y763317D01*
X984105Y763476D01*
X983930Y763724D01*
X983865Y764020D01*
X983920Y764318D01*
X984030Y764483D01*
X985520Y768081D01*
X985520Y769239D01*
X966216Y769239D01*
X966216Y768081D01*
X967685Y764534D01*
X968276Y763943D01*
X968432Y763718D01*
X968499Y763422D01*
X968446Y763124D01*
X968281Y762869D01*
X968029Y762700D01*
X967523Y762490D01*
X964683Y759651D01*
X964464Y759498D01*
G37*
%LPC*%
G36*
X1002496Y835660D02*
X1009184Y835660D01*
X1015644Y837391D01*
X1021436Y840735D01*
X1026165Y845464D01*
X1029509Y851256D01*
X1031240Y857716D01*
X1031240Y864404D01*
X1029509Y870864D01*
X1026165Y876656D01*
X1021436Y881385D01*
X1015644Y884729D01*
X1009184Y886460D01*
X1002496Y886460D01*
X996036Y884729D01*
X990244Y881385D01*
X985515Y876656D01*
X982171Y870864D01*
X980440Y864404D01*
X980440Y857716D01*
X982171Y851256D01*
X985515Y845464D01*
X990244Y840735D01*
X996036Y837391D01*
X1002496Y835660D01*
G37*
G36*
X976630Y790763D02*
X985520Y790763D01*
X985520Y791921D01*
X984051Y795468D01*
X981335Y798184D01*
X977788Y799653D01*
X976630Y799653D01*
X976630Y790763D01*
G37*
G36*
X966216Y790763D02*
X975106Y790763D01*
X975106Y799653D01*
X973948Y799653D01*
X970401Y798184D01*
X967685Y795468D01*
X966216Y791921D01*
X966216Y790763D01*
G37*
G36*
X966216Y770763D02*
X985520Y770763D01*
X985520Y771921D01*
X984051Y775468D01*
X981335Y778184D01*
X978647Y779297D01*
X978422Y779441D01*
X978245Y779687D01*
X978177Y779983D01*
X978230Y780281D01*
X978396Y780536D01*
X978647Y780705D01*
X981335Y781818D01*
X984051Y784534D01*
X985520Y788081D01*
X985520Y789239D01*
X966216Y789239D01*
X966216Y788081D01*
X967685Y784534D01*
X970401Y781818D01*
X973089Y780705D01*
X973314Y780561D01*
X973491Y780315D01*
X973559Y780019D01*
X973506Y779721D01*
X973340Y779467D01*
X973089Y779297D01*
X970401Y778184D01*
X967685Y775468D01*
X966216Y771921D01*
X966216Y770763D01*
G37*
%LPD*%
G36*
X964464Y576999D02*
X964169Y576929D01*
X963870Y576980D01*
X963614Y577143D01*
X963443Y577393D01*
X963382Y577690D01*
X963382Y739813D01*
X963429Y740076D01*
X963589Y740334D01*
X963836Y740510D01*
X964132Y740575D01*
X964430Y740519D01*
X964683Y740352D01*
X967523Y737512D01*
X972938Y735269D01*
X976530Y735269D01*
X976632Y735262D01*
X977952Y735084D01*
X978559Y735244D01*
X978753Y735269D01*
X978798Y735269D01*
X978806Y735272D01*
X979097Y735330D01*
X1085088Y735330D01*
X1085363Y735279D01*
X1085618Y735115D01*
X1085790Y734865D01*
X1085850Y734568D01*
X1085850Y621398D01*
X1085818Y621234D01*
X1085850Y618481D01*
X1085850Y618472D01*
X1085850Y581152D01*
X1085799Y580877D01*
X1085635Y580622D01*
X1085385Y580450D01*
X1085088Y580390D01*
X984246Y580390D01*
X983982Y580437D01*
X983724Y580596D01*
X983549Y580844D01*
X983484Y581140D01*
X983539Y581438D01*
X983707Y581691D01*
X984051Y582035D01*
X985520Y585582D01*
X985520Y586740D01*
X966216Y586740D01*
X966216Y585582D01*
X967685Y582035D01*
X968276Y581444D01*
X968432Y581219D01*
X968499Y580923D01*
X968446Y580625D01*
X968281Y580370D01*
X968029Y580201D01*
X967523Y579991D01*
X964683Y577152D01*
X964464Y576999D01*
G37*
%LPC*%
G36*
X966216Y608264D02*
X975106Y608264D01*
X975106Y617154D01*
X973948Y617154D01*
X970401Y615685D01*
X967685Y612969D01*
X966216Y609422D01*
X966216Y608264D01*
G37*
G36*
X976630Y608264D02*
X985520Y608264D01*
X985520Y609422D01*
X984051Y612969D01*
X981335Y615685D01*
X977788Y617154D01*
X976630Y617154D01*
X976630Y608264D01*
G37*
G36*
X966216Y588264D02*
X985520Y588264D01*
X985520Y589422D01*
X984051Y592969D01*
X981335Y595685D01*
X978647Y596798D01*
X978422Y596942D01*
X978245Y597188D01*
X978177Y597484D01*
X978230Y597782D01*
X978396Y598037D01*
X978647Y598206D01*
X981335Y599319D01*
X984051Y602035D01*
X985520Y605582D01*
X985520Y606740D01*
X966216Y606740D01*
X966216Y605582D01*
X967685Y602035D01*
X970401Y599319D01*
X973089Y598206D01*
X973314Y598062D01*
X973491Y597816D01*
X973559Y597520D01*
X973506Y597222D01*
X973340Y596968D01*
X973089Y596798D01*
X970401Y595685D01*
X967685Y592969D01*
X966216Y589422D01*
X966216Y588264D01*
G37*
%LPD*%
G36*
X964464Y394944D02*
X964169Y394874D01*
X963870Y394925D01*
X963614Y395088D01*
X963443Y395339D01*
X963382Y395636D01*
X963382Y557314D01*
X963429Y557577D01*
X963589Y557835D01*
X963836Y558011D01*
X964132Y558076D01*
X964430Y558020D01*
X964683Y557853D01*
X967523Y555013D01*
X972938Y552770D01*
X973247Y552770D01*
X973539Y552712D01*
X974171Y552450D01*
X1085088Y552450D01*
X1085363Y552399D01*
X1085618Y552235D01*
X1085790Y551985D01*
X1085850Y551688D01*
X1085850Y487441D01*
X1087977Y482307D01*
X1106797Y463487D01*
X1106955Y463256D01*
X1107020Y462960D01*
X1106964Y462662D01*
X1106797Y462409D01*
X1085437Y441049D01*
X1083310Y435915D01*
X1083310Y400812D01*
X1083259Y400537D01*
X1083095Y400282D01*
X1082845Y400110D01*
X1082548Y400050D01*
X985071Y400050D01*
X984802Y400099D01*
X984545Y400260D01*
X984372Y400509D01*
X984309Y400806D01*
X984367Y401104D01*
X985266Y403274D01*
X985266Y404432D01*
X965962Y404432D01*
X965962Y403274D01*
X967431Y399726D01*
X967998Y399159D01*
X968154Y398935D01*
X968221Y398639D01*
X968168Y398340D01*
X968002Y398086D01*
X967751Y397917D01*
X967703Y397897D01*
X967568Y397807D01*
X967269Y397683D01*
X964683Y395097D01*
X964464Y394944D01*
G37*
%LPC*%
G36*
X976376Y425956D02*
X985266Y425956D01*
X985266Y427113D01*
X983797Y430661D01*
X981081Y433376D01*
X977534Y434846D01*
X976376Y434846D01*
X976376Y425956D01*
G37*
G36*
X965962Y425956D02*
X974852Y425956D01*
X974852Y434846D01*
X973694Y434846D01*
X970147Y433376D01*
X967431Y430661D01*
X965962Y427113D01*
X965962Y425956D01*
G37*
G36*
X965962Y405956D02*
X985266Y405956D01*
X985266Y407113D01*
X983797Y410661D01*
X981081Y413376D01*
X978393Y414490D01*
X978168Y414634D01*
X977991Y414880D01*
X977923Y415175D01*
X977976Y415474D01*
X978142Y415728D01*
X978393Y415898D01*
X981081Y417011D01*
X983797Y419726D01*
X985266Y423274D01*
X985266Y424432D01*
X965962Y424432D01*
X965962Y423274D01*
X967431Y419726D01*
X970147Y417011D01*
X972835Y415898D01*
X973060Y415753D01*
X973237Y415507D01*
X973305Y415212D01*
X973252Y414913D01*
X973086Y414659D01*
X972835Y414490D01*
X970147Y413376D01*
X967431Y410661D01*
X965962Y407113D01*
X965962Y405956D01*
G37*
%LPD*%
G36*
X964464Y212191D02*
X964169Y212121D01*
X963870Y212172D01*
X963614Y212335D01*
X963443Y212586D01*
X963382Y212883D01*
X963382Y374751D01*
X963429Y375015D01*
X963589Y375273D01*
X963836Y375448D01*
X964132Y375513D01*
X964430Y375458D01*
X964683Y375290D01*
X967269Y372704D01*
X972684Y370462D01*
X978544Y370462D01*
X982384Y372052D01*
X982676Y372110D01*
X1082548Y372110D01*
X1082823Y372059D01*
X1083078Y371895D01*
X1083250Y371645D01*
X1083310Y371348D01*
X1083310Y314721D01*
X1085437Y309587D01*
X1108735Y286289D01*
X1108893Y286058D01*
X1108958Y285762D01*
X1108902Y285464D01*
X1108735Y285211D01*
X1085437Y261913D01*
X1083310Y256779D01*
X1083310Y215392D01*
X1083259Y215117D01*
X1083095Y214862D01*
X1082845Y214690D01*
X1082548Y214630D01*
X984574Y214630D01*
X984288Y214686D01*
X984036Y214853D01*
X983959Y214930D01*
X983453Y215139D01*
X983223Y215288D01*
X983048Y215535D01*
X982983Y215831D01*
X983038Y216129D01*
X983206Y216382D01*
X983797Y216973D01*
X985266Y220521D01*
X985266Y221679D01*
X965962Y221679D01*
X965962Y220521D01*
X967431Y216973D01*
X968022Y216382D01*
X968178Y216157D01*
X968245Y215862D01*
X968192Y215563D01*
X968027Y215309D01*
X967775Y215139D01*
X967269Y214930D01*
X964683Y212344D01*
X964464Y212191D01*
G37*
%LPC*%
G36*
X965962Y243203D02*
X974852Y243203D01*
X974852Y252093D01*
X973694Y252093D01*
X970147Y250623D01*
X967431Y247908D01*
X965962Y244360D01*
X965962Y243203D01*
G37*
G36*
X976376Y243203D02*
X985266Y243203D01*
X985266Y244360D01*
X983797Y247908D01*
X981081Y250623D01*
X977534Y252093D01*
X976376Y252093D01*
X976376Y243203D01*
G37*
G36*
X965962Y223203D02*
X985266Y223203D01*
X985266Y224360D01*
X983797Y227908D01*
X981081Y230623D01*
X978393Y231737D01*
X978168Y231881D01*
X977991Y232127D01*
X977923Y232422D01*
X977976Y232721D01*
X978142Y232975D01*
X978393Y233145D01*
X981081Y234258D01*
X983797Y236973D01*
X985266Y240521D01*
X985266Y241679D01*
X965962Y241679D01*
X965962Y240521D01*
X967431Y236973D01*
X970147Y234258D01*
X972835Y233145D01*
X973060Y233000D01*
X973237Y232754D01*
X973305Y232459D01*
X973252Y232160D01*
X973086Y231906D01*
X972835Y231737D01*
X970147Y230623D01*
X967431Y227908D01*
X965962Y224360D01*
X965962Y223203D01*
G37*
%LPD*%
G36*
X868564Y67813D02*
X866087Y67310D01*
X795817Y67310D01*
X793434Y67774D01*
X791327Y69170D01*
X757213Y103283D01*
X752079Y105410D01*
X650001Y105410D01*
X644867Y103283D01*
X636189Y94605D01*
X634314Y93309D01*
X631850Y92747D01*
X629362Y93191D01*
X627244Y94570D01*
X625832Y96665D01*
X623442Y102434D01*
X602273Y123603D01*
X597139Y125730D01*
X574230Y125730D01*
X572036Y126121D01*
X569886Y127449D01*
X568424Y129510D01*
X567881Y131979D01*
X568345Y134463D01*
X568588Y134830D01*
X571246Y141248D01*
X571246Y147108D01*
X569324Y151748D01*
X568841Y154127D01*
X569324Y156608D01*
X571246Y161248D01*
X571246Y167108D01*
X569003Y172523D01*
X564859Y176667D01*
X559444Y178910D01*
X553323Y178910D01*
X551764Y178561D01*
X549266Y178945D01*
X547116Y180273D01*
X545654Y182334D01*
X545111Y184803D01*
X545575Y187287D01*
X546971Y189394D01*
X575429Y217852D01*
X577489Y219229D01*
X582385Y221257D01*
X586529Y225401D01*
X588772Y230816D01*
X588772Y236676D01*
X586529Y242091D01*
X584672Y243948D01*
X583335Y245915D01*
X582812Y248388D01*
X583295Y250869D01*
X583692Y251826D01*
X583692Y252984D01*
X573278Y252984D01*
X573278Y254508D01*
X583692Y254508D01*
X583692Y255666D01*
X582223Y259213D01*
X582180Y259256D01*
X580863Y261176D01*
X580321Y263645D01*
X580784Y266129D01*
X582180Y268236D01*
X582223Y268279D01*
X583692Y271826D01*
X583692Y272984D01*
X564388Y272984D01*
X564388Y271826D01*
X565857Y268279D01*
X565900Y268236D01*
X567217Y266316D01*
X567759Y263847D01*
X567296Y261363D01*
X565900Y259256D01*
X565857Y259213D01*
X564247Y255326D01*
X563012Y253411D01*
X560950Y251949D01*
X558482Y251407D01*
X555997Y251870D01*
X553891Y253266D01*
X546690Y260467D01*
X545333Y262480D01*
X544830Y264957D01*
X544830Y304416D01*
X545239Y306658D01*
X546584Y308798D01*
X548657Y310244D01*
X551129Y310766D01*
X553554Y310294D01*
X559444Y310294D01*
X564859Y312537D01*
X569003Y316681D01*
X571246Y322096D01*
X571246Y327956D01*
X569324Y332596D01*
X568841Y334975D01*
X569324Y337456D01*
X571246Y342096D01*
X571246Y347956D01*
X569003Y353371D01*
X564859Y357515D01*
X559444Y359758D01*
X553529Y359758D01*
X551334Y360149D01*
X549184Y361477D01*
X547722Y363538D01*
X547180Y366007D01*
X547643Y368491D01*
X549039Y370598D01*
X579906Y401466D01*
X581966Y402842D01*
X582639Y403121D01*
X586783Y407265D01*
X589026Y412680D01*
X589026Y418540D01*
X586783Y423955D01*
X584926Y425812D01*
X583589Y427779D01*
X583066Y430252D01*
X583549Y432733D01*
X583946Y433690D01*
X583946Y434848D01*
X564642Y434848D01*
X564642Y433105D01*
X564251Y430910D01*
X562923Y428760D01*
X560862Y427298D01*
X558393Y426756D01*
X555909Y427219D01*
X553802Y428615D01*
X549230Y433187D01*
X547873Y435200D01*
X547370Y437677D01*
X547370Y485300D01*
X547797Y487589D01*
X549159Y489718D01*
X551243Y491147D01*
X553720Y491650D01*
X559698Y491650D01*
X565113Y493893D01*
X569257Y498037D01*
X571500Y503452D01*
X571500Y509312D01*
X569578Y513952D01*
X569095Y516331D01*
X569578Y518812D01*
X571500Y523452D01*
X571500Y529312D01*
X569257Y534727D01*
X565113Y538871D01*
X559698Y541114D01*
X553720Y541114D01*
X551431Y541541D01*
X549302Y542903D01*
X547873Y544987D01*
X547370Y547464D01*
X547370Y549179D01*
X547834Y551562D01*
X549230Y553669D01*
X579906Y584346D01*
X581966Y585722D01*
X582639Y586001D01*
X586783Y590145D01*
X589026Y595560D01*
X589026Y601420D01*
X586783Y606835D01*
X584926Y608692D01*
X583589Y610659D01*
X583066Y613132D01*
X583549Y615613D01*
X583946Y616570D01*
X583946Y617728D01*
X564642Y617728D01*
X564642Y616570D01*
X565039Y615613D01*
X565521Y613284D01*
X565058Y610799D01*
X563662Y608692D01*
X561805Y606835D01*
X561526Y606162D01*
X560150Y604102D01*
X558210Y602163D01*
X556382Y600888D01*
X553922Y600306D01*
X551431Y600730D01*
X549302Y602092D01*
X547873Y604176D01*
X547370Y606653D01*
X547370Y665894D01*
X547797Y668183D01*
X549159Y670312D01*
X551243Y671741D01*
X553720Y672244D01*
X559698Y672244D01*
X565113Y674487D01*
X569257Y678631D01*
X571500Y684046D01*
X571500Y689906D01*
X569578Y694546D01*
X569095Y696925D01*
X569578Y699406D01*
X571500Y704046D01*
X571500Y709906D01*
X569257Y715321D01*
X565113Y719465D01*
X559698Y721708D01*
X553720Y721708D01*
X551431Y722135D01*
X549302Y723497D01*
X547873Y725581D01*
X547370Y728058D01*
X547370Y729773D01*
X547834Y732156D01*
X549230Y734263D01*
X579652Y764686D01*
X581712Y766062D01*
X582385Y766341D01*
X586529Y770485D01*
X588772Y775900D01*
X588772Y781760D01*
X586529Y787175D01*
X584672Y789032D01*
X583335Y790999D01*
X582812Y793472D01*
X583295Y795953D01*
X583692Y796910D01*
X583692Y798068D01*
X564007Y798068D01*
X564007Y798572D01*
X563997Y798514D01*
X562669Y796364D01*
X560608Y794902D01*
X558139Y794360D01*
X555655Y794823D01*
X553548Y796219D01*
X469431Y880335D01*
X464297Y882462D01*
X425704Y882462D01*
X423415Y882889D01*
X421286Y884251D01*
X419857Y886335D01*
X419574Y887730D01*
X408940Y887730D01*
X408940Y889254D01*
X419354Y889254D01*
X419354Y890412D01*
X417885Y893959D01*
X417842Y894002D01*
X416525Y895922D01*
X415983Y898391D01*
X416446Y900875D01*
X417842Y902982D01*
X417885Y903025D01*
X419354Y906572D01*
X419354Y907730D01*
X408940Y907730D01*
X408940Y909254D01*
X419354Y909254D01*
X419354Y910412D01*
X418597Y912240D01*
X418117Y914468D01*
X418540Y916959D01*
X419902Y919088D01*
X421987Y920517D01*
X424463Y921020D01*
X867683Y921020D01*
X868922Y920898D01*
X875862Y919518D01*
X878151Y918569D01*
X884034Y914639D01*
X885786Y912887D01*
X889717Y907003D01*
X890665Y904714D01*
X892045Y897775D01*
X892167Y896536D01*
X892167Y74355D01*
X891776Y72161D01*
X890448Y70011D01*
X888387Y68549D01*
X885919Y68006D01*
X883434Y68470D01*
X883268Y68580D01*
X869702Y68580D01*
X868564Y67813D01*
G37*
%LPC*%
G36*
X850096Y855980D02*
X856784Y855980D01*
X863244Y857711D01*
X869036Y861055D01*
X873765Y865784D01*
X877109Y871576D01*
X878840Y878036D01*
X878840Y884724D01*
X877109Y891184D01*
X873765Y896976D01*
X869036Y901705D01*
X863244Y905049D01*
X856784Y906780D01*
X850096Y906780D01*
X843636Y905049D01*
X837844Y901705D01*
X833115Y896976D01*
X829771Y891184D01*
X828040Y884724D01*
X828040Y878036D01*
X829771Y871576D01*
X833115Y865784D01*
X837844Y861055D01*
X843636Y857711D01*
X850096Y855980D01*
G37*
G36*
X554092Y853600D02*
X559952Y853600D01*
X565367Y855843D01*
X569511Y859987D01*
X571754Y865402D01*
X571754Y871262D01*
X569832Y875902D01*
X569349Y878281D01*
X569832Y880762D01*
X571754Y885402D01*
X571754Y891262D01*
X569511Y896677D01*
X565367Y900821D01*
X559952Y903064D01*
X554092Y903064D01*
X548677Y900821D01*
X544533Y896677D01*
X542290Y891262D01*
X542290Y885402D01*
X544212Y880762D01*
X544695Y878383D01*
X544212Y875902D01*
X542290Y871262D01*
X542290Y865402D01*
X544533Y859987D01*
X548677Y855843D01*
X554092Y853600D01*
G37*
G36*
X564388Y819592D02*
X573278Y819592D01*
X573278Y828482D01*
X572120Y828482D01*
X568573Y827013D01*
X565857Y824297D01*
X564388Y820750D01*
X564388Y819592D01*
G37*
G36*
X574802Y819592D02*
X583692Y819592D01*
X583692Y820750D01*
X582223Y824297D01*
X579507Y827013D01*
X575960Y828482D01*
X574802Y828482D01*
X574802Y819592D01*
G37*
G36*
X564189Y799592D02*
X583692Y799592D01*
X583692Y800750D01*
X582223Y804297D01*
X582180Y804340D01*
X580863Y806260D01*
X580321Y808729D01*
X580784Y811213D01*
X582180Y813320D01*
X582223Y813363D01*
X583692Y816910D01*
X583692Y818068D01*
X564388Y818068D01*
X564388Y816910D01*
X565857Y813363D01*
X565900Y813320D01*
X567217Y811400D01*
X567759Y808931D01*
X567296Y806447D01*
X565900Y804340D01*
X565857Y804297D01*
X564388Y800750D01*
X564388Y800709D01*
X564189Y799592D01*
G37*
G36*
X718430Y763938D02*
X724290Y763938D01*
X729705Y766181D01*
X733849Y770325D01*
X736092Y775740D01*
X736092Y781600D01*
X734170Y786240D01*
X733687Y788619D01*
X734170Y791100D01*
X736092Y795740D01*
X736092Y801600D01*
X733849Y807015D01*
X729705Y811159D01*
X724290Y813402D01*
X718430Y813402D01*
X713015Y811159D01*
X708871Y807015D01*
X706628Y801600D01*
X706628Y795740D01*
X708550Y791100D01*
X709033Y788721D01*
X708550Y786240D01*
X706628Y781600D01*
X706628Y775740D01*
X708871Y770325D01*
X713015Y766181D01*
X718430Y763938D01*
G37*
G36*
X575056Y639252D02*
X583946Y639252D01*
X583946Y640410D01*
X582477Y643957D01*
X579761Y646673D01*
X576214Y648142D01*
X575056Y648142D01*
X575056Y639252D01*
G37*
G36*
X564642Y639252D02*
X573532Y639252D01*
X573532Y648142D01*
X572374Y648142D01*
X568827Y646673D01*
X566111Y643957D01*
X564642Y640410D01*
X564642Y639252D01*
G37*
G36*
X564642Y619252D02*
X583946Y619252D01*
X583946Y620410D01*
X582477Y623957D01*
X582434Y624000D01*
X581117Y625920D01*
X580575Y628389D01*
X581038Y630873D01*
X582434Y632980D01*
X582477Y633023D01*
X583946Y636570D01*
X583946Y637728D01*
X564642Y637728D01*
X564642Y636570D01*
X566111Y633023D01*
X566154Y632980D01*
X567471Y631060D01*
X568013Y628591D01*
X567550Y626107D01*
X566154Y624000D01*
X566111Y623957D01*
X564642Y620410D01*
X564642Y619252D01*
G37*
G36*
X718684Y583598D02*
X724544Y583598D01*
X729959Y585841D01*
X734103Y589985D01*
X736346Y595400D01*
X736346Y601260D01*
X734424Y605900D01*
X733941Y608279D01*
X734424Y610760D01*
X736346Y615400D01*
X736346Y621260D01*
X734103Y626675D01*
X729959Y630819D01*
X724544Y633062D01*
X718684Y633062D01*
X713269Y630819D01*
X709125Y626675D01*
X706882Y621260D01*
X706882Y615400D01*
X708804Y610760D01*
X709287Y608381D01*
X708804Y605900D01*
X706882Y601260D01*
X706882Y595400D01*
X709125Y589985D01*
X713269Y585841D01*
X718684Y583598D01*
G37*
G36*
X644356Y502920D02*
X651044Y502920D01*
X657504Y504651D01*
X663296Y507995D01*
X668025Y512724D01*
X671369Y518516D01*
X673100Y524976D01*
X673100Y531664D01*
X671369Y538124D01*
X668025Y543916D01*
X663296Y548645D01*
X657504Y551989D01*
X651044Y553720D01*
X644356Y553720D01*
X637896Y551989D01*
X632104Y548645D01*
X627375Y543916D01*
X624031Y538124D01*
X622300Y531664D01*
X622300Y524976D01*
X624031Y518516D01*
X627375Y512724D01*
X632104Y507995D01*
X637896Y504651D01*
X644356Y502920D01*
G37*
G36*
X564642Y456372D02*
X573532Y456372D01*
X573532Y465262D01*
X572374Y465262D01*
X568827Y463793D01*
X566111Y461077D01*
X564642Y457530D01*
X564642Y456372D01*
G37*
G36*
X575056Y456372D02*
X583946Y456372D01*
X583946Y457530D01*
X582477Y461077D01*
X579761Y463793D01*
X576214Y465262D01*
X575056Y465262D01*
X575056Y456372D01*
G37*
G36*
X564642Y436372D02*
X583946Y436372D01*
X583946Y437530D01*
X582477Y441077D01*
X582434Y441120D01*
X581117Y443040D01*
X580575Y445509D01*
X581038Y447993D01*
X582434Y450100D01*
X582477Y450143D01*
X583946Y453690D01*
X583946Y454848D01*
X564642Y454848D01*
X564642Y453690D01*
X566111Y450143D01*
X566154Y450100D01*
X567471Y448180D01*
X568013Y445711D01*
X567550Y443227D01*
X566154Y441120D01*
X566111Y441077D01*
X564642Y437530D01*
X564642Y436372D01*
G37*
G36*
X718684Y400718D02*
X724544Y400718D01*
X729959Y402961D01*
X734103Y407105D01*
X736346Y412520D01*
X736346Y418380D01*
X734424Y423020D01*
X733941Y425399D01*
X734424Y427880D01*
X736346Y432520D01*
X736346Y438380D01*
X734103Y443795D01*
X729959Y447939D01*
X724544Y450182D01*
X718684Y450182D01*
X713269Y447939D01*
X709125Y443795D01*
X706882Y438380D01*
X706882Y432520D01*
X708804Y427880D01*
X709287Y425501D01*
X708804Y423020D01*
X706882Y418380D01*
X706882Y412520D01*
X709125Y407105D01*
X713269Y402961D01*
X718684Y400718D01*
G37*
G36*
X797084Y203280D02*
X803116Y203280D01*
X808687Y205588D01*
X811984Y208885D01*
X813951Y210222D01*
X816424Y210745D01*
X818905Y210261D01*
X823495Y208360D01*
X824738Y208360D01*
X824738Y219202D01*
X835580Y219202D01*
X835580Y220445D01*
X834045Y224150D01*
X831545Y226650D01*
X830229Y228570D01*
X829686Y231039D01*
X830150Y233523D01*
X831545Y235630D01*
X834045Y238130D01*
X835580Y241835D01*
X835580Y243078D01*
X824738Y243078D01*
X824738Y244602D01*
X835580Y244602D01*
X835580Y245845D01*
X833679Y250435D01*
X833196Y252764D01*
X833659Y255249D01*
X835055Y257356D01*
X838352Y260653D01*
X840660Y266224D01*
X840660Y272256D01*
X838171Y278265D01*
X837413Y279370D01*
X836871Y281839D01*
X837334Y284323D01*
X838139Y285539D01*
X840660Y291624D01*
X840660Y297656D01*
X838171Y303665D01*
X837413Y304770D01*
X836871Y307239D01*
X837334Y309723D01*
X838139Y310939D01*
X840660Y317024D01*
X840660Y323056D01*
X838171Y329065D01*
X837413Y330170D01*
X836871Y332639D01*
X837334Y335123D01*
X838139Y336339D01*
X840660Y342424D01*
X840660Y348456D01*
X838171Y354465D01*
X837413Y355570D01*
X836871Y358039D01*
X837334Y360523D01*
X838139Y361739D01*
X840660Y367824D01*
X840660Y373856D01*
X838171Y379865D01*
X837413Y380970D01*
X836871Y383439D01*
X837334Y385923D01*
X838139Y387139D01*
X840660Y393224D01*
X840660Y399256D01*
X838352Y404827D01*
X834087Y409092D01*
X828516Y411400D01*
X822484Y411400D01*
X816475Y408911D01*
X815370Y408153D01*
X812901Y407611D01*
X810417Y408074D01*
X809201Y408879D01*
X803116Y411400D01*
X797084Y411400D01*
X791513Y409092D01*
X787248Y404827D01*
X784940Y399256D01*
X784940Y393224D01*
X787429Y387215D01*
X788187Y386110D01*
X788729Y383641D01*
X788266Y381157D01*
X787461Y379941D01*
X784940Y373856D01*
X784940Y367824D01*
X787429Y361815D01*
X788187Y360710D01*
X788729Y358241D01*
X788266Y355757D01*
X787461Y354541D01*
X784940Y348456D01*
X784940Y342424D01*
X787429Y336415D01*
X788187Y335310D01*
X788729Y332841D01*
X788266Y330357D01*
X787461Y329141D01*
X784940Y323056D01*
X784940Y317024D01*
X787429Y311015D01*
X788187Y309910D01*
X788729Y307441D01*
X788266Y304957D01*
X787461Y303741D01*
X784940Y297656D01*
X784940Y291624D01*
X787429Y285615D01*
X788187Y284510D01*
X788729Y282041D01*
X788266Y279557D01*
X787461Y278341D01*
X784940Y272256D01*
X784940Y266224D01*
X787429Y260215D01*
X788187Y259110D01*
X788729Y256641D01*
X788266Y254157D01*
X787461Y252941D01*
X784940Y246856D01*
X784940Y240824D01*
X787429Y234815D01*
X788187Y233710D01*
X788729Y231241D01*
X788266Y228757D01*
X787461Y227541D01*
X784940Y221456D01*
X784940Y215424D01*
X787248Y209853D01*
X791513Y205588D01*
X797084Y203280D01*
G37*
G36*
X744220Y330962D02*
X753618Y330962D01*
X753618Y340360D01*
X750172Y340360D01*
X744220Y334408D01*
X744220Y330962D01*
G37*
G36*
X755142Y330962D02*
X764540Y330962D01*
X764540Y334408D01*
X758588Y340360D01*
X755142Y340360D01*
X755142Y330962D01*
G37*
G36*
X750172Y320040D02*
X753618Y320040D01*
X753618Y329438D01*
X744220Y329438D01*
X744220Y325992D01*
X750172Y320040D01*
G37*
G36*
X755142Y320040D02*
X758588Y320040D01*
X764540Y325992D01*
X764540Y329438D01*
X755142Y329438D01*
X755142Y320040D01*
G37*
G36*
X564388Y274508D02*
X573278Y274508D01*
X573278Y283398D01*
X572120Y283398D01*
X568573Y281929D01*
X565857Y279213D01*
X564388Y275666D01*
X564388Y274508D01*
G37*
G36*
X574802Y274508D02*
X583692Y274508D01*
X583692Y275666D01*
X582223Y279213D01*
X579507Y281929D01*
X575960Y283398D01*
X574802Y283398D01*
X574802Y274508D01*
G37*
G36*
X748067Y200660D02*
X760693Y200660D01*
X769620Y209587D01*
X769620Y222213D01*
X760693Y231140D01*
X748067Y231140D01*
X746932Y230005D01*
X745104Y228730D01*
X742644Y228148D01*
X740153Y228572D01*
X738024Y229934D01*
X736595Y232018D01*
X736092Y234495D01*
X736092Y236516D01*
X734170Y241156D01*
X733687Y243535D01*
X734170Y246016D01*
X736092Y250656D01*
X736092Y256516D01*
X733849Y261931D01*
X729705Y266075D01*
X724290Y268318D01*
X718430Y268318D01*
X713015Y266075D01*
X708871Y261931D01*
X706628Y256516D01*
X706628Y250656D01*
X708550Y246016D01*
X709033Y243637D01*
X708550Y241156D01*
X706628Y236516D01*
X706628Y230656D01*
X708871Y225241D01*
X713015Y221097D01*
X718430Y218854D01*
X724290Y218854D01*
X730360Y221368D01*
X732588Y221848D01*
X735079Y221425D01*
X737208Y220063D01*
X738637Y217978D01*
X739140Y215501D01*
X739140Y209587D01*
X748067Y200660D01*
G37*
G36*
X826262Y208360D02*
X827505Y208360D01*
X831210Y209895D01*
X834045Y212730D01*
X835580Y216435D01*
X835580Y217678D01*
X826262Y217678D01*
X826262Y208360D01*
G37*
G36*
X702776Y132080D02*
X709464Y132080D01*
X715924Y133811D01*
X721716Y137155D01*
X726445Y141884D01*
X729789Y147676D01*
X731520Y154136D01*
X731520Y160824D01*
X729789Y167284D01*
X726445Y173076D01*
X721716Y177805D01*
X715924Y181149D01*
X709464Y182880D01*
X702776Y182880D01*
X696316Y181149D01*
X690524Y177805D01*
X685795Y173076D01*
X682451Y167284D01*
X680720Y160824D01*
X680720Y154136D01*
X682451Y147676D01*
X685795Y141884D01*
X690524Y137155D01*
X696316Y133811D01*
X702776Y132080D01*
G37*
G36*
X803947Y139700D02*
X816573Y139700D01*
X825500Y148627D01*
X825500Y161253D01*
X816573Y170180D01*
X803947Y170180D01*
X795020Y161253D01*
X795020Y148627D01*
X803947Y139700D01*
G37*
%LPD*%
G36*
X515557Y702813D02*
X513080Y702310D01*
X425450Y702310D01*
X423161Y702737D01*
X421032Y704099D01*
X419603Y706183D01*
X419481Y706784D01*
X419481Y706374D01*
X408686Y706374D01*
X408686Y707898D01*
X419255Y707898D01*
X419100Y708660D01*
X419100Y709056D01*
X417631Y712603D01*
X417588Y712646D01*
X416271Y714566D01*
X415729Y717035D01*
X416192Y719519D01*
X417588Y721626D01*
X417631Y721669D01*
X419100Y725216D01*
X419100Y726374D01*
X408686Y726374D01*
X408686Y736788D01*
X407528Y736788D01*
X405743Y736048D01*
X403515Y735568D01*
X401023Y735992D01*
X398895Y737354D01*
X397465Y739438D01*
X396962Y741915D01*
X396962Y848320D01*
X397371Y850561D01*
X398716Y852701D01*
X400789Y854147D01*
X403262Y854669D01*
X405742Y854186D01*
X406772Y853760D01*
X412632Y853760D01*
X413305Y854039D01*
X415735Y854522D01*
X453101Y854522D01*
X455484Y854058D01*
X457591Y852662D01*
X538363Y771890D01*
X539680Y769970D01*
X540222Y767501D01*
X539759Y765017D01*
X538363Y762910D01*
X521557Y746103D01*
X519430Y740969D01*
X519430Y708660D01*
X519003Y706371D01*
X517641Y704242D01*
X515557Y702813D01*
G37*
%LPC*%
G36*
X436076Y774700D02*
X442764Y774700D01*
X449224Y776431D01*
X455016Y779775D01*
X459745Y784504D01*
X463089Y790296D01*
X464820Y796756D01*
X464820Y803444D01*
X463089Y809904D01*
X459745Y815696D01*
X455016Y820425D01*
X449224Y823769D01*
X442764Y825500D01*
X436076Y825500D01*
X429616Y823769D01*
X423824Y820425D01*
X419095Y815696D01*
X415751Y809904D01*
X414020Y803444D01*
X414020Y796756D01*
X415751Y790296D01*
X419095Y784504D01*
X423824Y779775D01*
X429616Y776431D01*
X436076Y774700D01*
G37*
G36*
X410210Y727898D02*
X419100Y727898D01*
X419100Y729056D01*
X417631Y732603D01*
X414915Y735319D01*
X411368Y736788D01*
X410210Y736788D01*
X410210Y727898D01*
G37*
%LPD*%
G36*
X515557Y519933D02*
X513080Y519430D01*
X425450Y519430D01*
X423161Y519857D01*
X421032Y521219D01*
X419603Y523303D01*
X419100Y525780D01*
X408686Y525780D01*
X408686Y527304D01*
X419100Y527304D01*
X419100Y528462D01*
X417631Y532009D01*
X417588Y532052D01*
X416271Y533972D01*
X415729Y536441D01*
X416192Y538925D01*
X417588Y541032D01*
X417631Y541075D01*
X419100Y544622D01*
X419100Y545780D01*
X408686Y545780D01*
X408686Y556194D01*
X407528Y556194D01*
X405743Y555454D01*
X403515Y554974D01*
X401023Y555398D01*
X398895Y556760D01*
X397465Y558844D01*
X396962Y561321D01*
X396962Y666858D01*
X397371Y669100D01*
X398716Y671240D01*
X400789Y672686D01*
X403262Y673208D01*
X405743Y672725D01*
X406518Y672404D01*
X412378Y672404D01*
X415958Y673887D01*
X418388Y674370D01*
X513080Y674370D01*
X515369Y673943D01*
X517498Y672581D01*
X518927Y670497D01*
X519430Y668020D01*
X519430Y525780D01*
X519003Y523491D01*
X517641Y521362D01*
X515557Y519933D01*
G37*
%LPC*%
G36*
X410210Y547304D02*
X419100Y547304D01*
X419100Y548462D01*
X417631Y552009D01*
X414915Y554725D01*
X411368Y556194D01*
X410210Y556194D01*
X410210Y547304D01*
G37*
%LPD*%
G36*
X513017Y339593D02*
X510540Y339090D01*
X425196Y339090D01*
X422907Y339517D01*
X420778Y340879D01*
X419349Y342963D01*
X419052Y344424D01*
X408432Y344424D01*
X408432Y345948D01*
X418846Y345948D01*
X418846Y347106D01*
X417377Y350653D01*
X417334Y350696D01*
X416017Y352616D01*
X415475Y355085D01*
X415938Y357569D01*
X417334Y359676D01*
X417377Y359719D01*
X418846Y363266D01*
X418846Y364424D01*
X408432Y364424D01*
X408432Y374838D01*
X407274Y374838D01*
X405743Y374204D01*
X403515Y373723D01*
X401023Y374147D01*
X398895Y375509D01*
X397465Y377594D01*
X396962Y380070D01*
X396962Y486264D01*
X397371Y488506D01*
X398716Y490646D01*
X400789Y492092D01*
X403262Y492614D01*
X405743Y492131D01*
X407259Y491503D01*
X407324Y491490D01*
X513080Y491490D01*
X515369Y491063D01*
X517498Y489701D01*
X518927Y487617D01*
X519430Y485140D01*
X519430Y426481D01*
X521557Y421347D01*
X536425Y406478D01*
X537742Y404558D01*
X538284Y402089D01*
X537821Y399605D01*
X536425Y397498D01*
X519017Y380089D01*
X516890Y374955D01*
X516890Y345440D01*
X516463Y343151D01*
X515101Y341022D01*
X513017Y339593D01*
G37*
%LPC*%
G36*
X409956Y365948D02*
X418846Y365948D01*
X418846Y367106D01*
X417377Y370653D01*
X414661Y373369D01*
X411114Y374838D01*
X409956Y374838D01*
X409956Y365948D01*
G37*
%LPD*%
G36*
X513017Y154173D02*
X510540Y153670D01*
X424726Y153670D01*
X422484Y154079D01*
X420344Y155424D01*
X418899Y157497D01*
X418376Y159969D01*
X418846Y162382D01*
X418846Y163576D01*
X408432Y163576D01*
X408432Y165100D01*
X418846Y165100D01*
X418846Y166258D01*
X417377Y169805D01*
X417334Y169848D01*
X416017Y171768D01*
X415475Y174237D01*
X415938Y176721D01*
X417334Y178828D01*
X417377Y178871D01*
X418846Y182418D01*
X418846Y183576D01*
X408432Y183576D01*
X408432Y193990D01*
X407274Y193990D01*
X405743Y193356D01*
X403515Y192875D01*
X401023Y193299D01*
X398895Y194661D01*
X397465Y196746D01*
X396962Y199222D01*
X396962Y304803D01*
X397371Y307045D01*
X398716Y309185D01*
X400789Y310630D01*
X403262Y311153D01*
X405743Y310670D01*
X406264Y310454D01*
X412124Y310454D01*
X412638Y310667D01*
X415068Y311150D01*
X510540Y311150D01*
X512829Y310723D01*
X514958Y309361D01*
X516387Y307277D01*
X516890Y304800D01*
X516890Y253761D01*
X519017Y248627D01*
X538363Y229280D01*
X539680Y227360D01*
X540222Y224891D01*
X539759Y222407D01*
X538363Y220300D01*
X519017Y200953D01*
X516890Y195819D01*
X516890Y160020D01*
X516463Y157731D01*
X515101Y155602D01*
X513017Y154173D01*
G37*
%LPC*%
G36*
X409956Y185100D02*
X418846Y185100D01*
X418846Y186258D01*
X417377Y189805D01*
X414661Y192521D01*
X411114Y193990D01*
X409956Y193990D01*
X409956Y185100D01*
G37*
%LPD*%
G36*
X421075Y43733D02*
X418598Y43230D01*
X417552Y43230D01*
X416314Y43352D01*
X410864Y44436D01*
X408575Y45385D01*
X403955Y48471D01*
X402203Y50223D01*
X399117Y54843D01*
X398168Y57132D01*
X397085Y62582D01*
X396962Y63820D01*
X396962Y122063D01*
X397371Y124305D01*
X398716Y126445D01*
X400789Y127890D01*
X403262Y128413D01*
X405743Y127930D01*
X411053Y125730D01*
X519903Y125730D01*
X522286Y125266D01*
X524393Y123870D01*
X548347Y99917D01*
X553481Y97790D01*
X558292Y97790D01*
X560581Y97363D01*
X562710Y96001D01*
X564139Y93917D01*
X564346Y92898D01*
X575056Y92898D01*
X575056Y91374D01*
X564642Y91374D01*
X564642Y90216D01*
X566111Y86669D01*
X566154Y86626D01*
X567471Y84706D01*
X568013Y82237D01*
X567550Y79753D01*
X566154Y77646D01*
X566111Y77603D01*
X564642Y74056D01*
X564642Y72898D01*
X583946Y72898D01*
X583946Y74056D01*
X582477Y77603D01*
X582434Y77646D01*
X581117Y79566D01*
X580575Y82035D01*
X581038Y84519D01*
X582434Y86626D01*
X582477Y86669D01*
X583883Y90064D01*
X585119Y91978D01*
X587180Y93441D01*
X589648Y93983D01*
X592133Y93519D01*
X594240Y92124D01*
X595769Y90594D01*
X597126Y88581D01*
X597629Y86104D01*
X597629Y72456D01*
X597202Y70167D01*
X595840Y68038D01*
X593756Y66609D01*
X591279Y66106D01*
X590296Y66106D01*
X588007Y66533D01*
X585878Y67895D01*
X584449Y69979D01*
X584166Y71374D01*
X564642Y71374D01*
X564642Y70216D01*
X565039Y69259D01*
X565521Y66930D01*
X565058Y64445D01*
X563662Y62338D01*
X561805Y60481D01*
X559562Y55066D01*
X559562Y49580D01*
X559135Y47291D01*
X557773Y45162D01*
X555689Y43733D01*
X553212Y43230D01*
X460242Y43230D01*
X458047Y43622D01*
X455897Y44949D01*
X454435Y47011D01*
X453893Y49479D01*
X454356Y51964D01*
X455752Y54071D01*
X459745Y58064D01*
X463089Y63856D01*
X464820Y70316D01*
X464820Y77004D01*
X463089Y83464D01*
X459745Y89256D01*
X455016Y93985D01*
X449224Y97329D01*
X442764Y99060D01*
X436076Y99060D01*
X429616Y97329D01*
X423824Y93985D01*
X419095Y89256D01*
X415751Y83464D01*
X414020Y77004D01*
X414020Y70316D01*
X415751Y63856D01*
X419095Y58064D01*
X423088Y54071D01*
X424363Y52242D01*
X424945Y49783D01*
X424521Y47291D01*
X423159Y45162D01*
X421075Y43733D01*
G37*
D10*
X27940Y934720D03*
X53340Y934720D03*
X27940Y909320D03*
X53340Y909320D03*
X27940Y883920D03*
X53340Y883920D03*
X27940Y858520D03*
X53340Y858520D03*
X27940Y833120D03*
X53340Y833120D03*
X27940Y807720D03*
X53340Y807720D03*
X27940Y782320D03*
X53340Y782320D03*
X27940Y756920D03*
X53340Y756920D03*
X27940Y731520D03*
X53340Y731520D03*
X27940Y706120D03*
X53340Y706120D03*
D11*
X266700Y172720D03*
X269240Y594360D03*
X53340Y670560D03*
D10*
X825500Y396240D03*
X800100Y396240D03*
X825500Y370840D03*
X800100Y370840D03*
X825500Y345440D03*
X800100Y345440D03*
X825500Y320040D03*
X800100Y320040D03*
X825500Y294640D03*
X800100Y294640D03*
X825500Y269240D03*
X800100Y269240D03*
X825500Y243840D03*
X800100Y243840D03*
X825500Y218440D03*
X800100Y218440D03*
D12*
X721614Y51976D03*
X721614Y71976D03*
X556514Y144178D03*
X556514Y164178D03*
X721360Y233586D03*
X721360Y253586D03*
X556514Y325026D03*
X556514Y345026D03*
X721614Y415450D03*
X721614Y435450D03*
X556768Y506382D03*
X556768Y526382D03*
X721614Y598330D03*
X721614Y618330D03*
X556768Y686976D03*
X556768Y706976D03*
X721360Y778670D03*
X721360Y798670D03*
X557022Y868332D03*
X557022Y888332D03*
X409702Y868492D03*
X409702Y888492D03*
X409702Y908492D03*
X574040Y778830D03*
X574040Y798830D03*
X574040Y818830D03*
X409448Y687136D03*
X409448Y707136D03*
X409448Y727136D03*
X574294Y598490D03*
X574294Y618490D03*
X574294Y638490D03*
X409448Y506542D03*
X409448Y526542D03*
X409448Y546542D03*
X574294Y415610D03*
X574294Y435610D03*
X574294Y455610D03*
X409194Y325186D03*
X409194Y345186D03*
X409194Y365186D03*
X574040Y233746D03*
X574040Y253746D03*
X574040Y273746D03*
X409194Y144338D03*
X409194Y164338D03*
X409194Y184338D03*
X574294Y52136D03*
X574294Y72136D03*
X574294Y92136D03*
D11*
X810260Y154940D03*
X754380Y330200D03*
X876300Y53340D03*
X754380Y215900D03*
D10*
X1391920Y330200D03*
X1366520Y330200D03*
X1391920Y304800D03*
X1366520Y304800D03*
X1391920Y279400D03*
X1366520Y279400D03*
X1391920Y254000D03*
X1366520Y254000D03*
X1391920Y228600D03*
X1366520Y228600D03*
X1391920Y203200D03*
X1366520Y203200D03*
X1391920Y177800D03*
X1366520Y177800D03*
X1391920Y152400D03*
X1366520Y152400D03*
D12*
X1288034Y111302D03*
X1288034Y131302D03*
X1122934Y202281D03*
X1122934Y222281D03*
X1287780Y292641D03*
X1287780Y312641D03*
X1122934Y385034D03*
X1122934Y405034D03*
X1288034Y476410D03*
X1288034Y496410D03*
X1123188Y567342D03*
X1123188Y587342D03*
X1288034Y660243D03*
X1288034Y680243D03*
X1123188Y749841D03*
X1123188Y769841D03*
X1287780Y842488D03*
X1287780Y862488D03*
X1123442Y933102D03*
X1123442Y953102D03*
X976122Y933262D03*
X976122Y953262D03*
X976122Y973262D03*
X1140460Y842648D03*
X1140460Y862648D03*
X1140460Y882648D03*
X975868Y750001D03*
X975868Y770001D03*
X975868Y790001D03*
X1140714Y660403D03*
X1140714Y680403D03*
X1140714Y700403D03*
X975868Y567502D03*
X975868Y587502D03*
X975868Y607502D03*
X1140714Y476570D03*
X1140714Y496570D03*
X1140714Y516570D03*
X975614Y385194D03*
X975614Y405194D03*
X975614Y425194D03*
X1140460Y292801D03*
X1140460Y312801D03*
X1140460Y332801D03*
X975614Y202441D03*
X975614Y222441D03*
X975614Y242441D03*
X1140714Y113096D03*
X1140714Y133096D03*
X1140714Y153096D03*
D11*
X1376680Y88900D03*
X1445260Y556260D03*
X1417320Y746760D03*
X1320800Y175260D03*
X1308100Y556260D03*
D13*
X178054Y828040D03*
D14*
X45720Y952500D02*
X27940Y934720D01*
X45720Y952500D02*
X83820Y952500D01*
X177749Y858571D01*
X178054Y828040D01*
D13*
X178054Y742128D03*
D14*
X86360Y934720D02*
X53340Y934720D01*
X86360Y934720D02*
X139700Y881380D01*
X139700Y785679D01*
X178054Y742128D01*
D13*
X178054Y656337D03*
D15*
X27940Y909320D02*
X40640Y922020D01*
X86360Y922020D01*
X132080Y876300D01*
X132080Y702311D01*
X178054Y656337D01*
D13*
X178054Y571342D03*
D14*
X178054Y576326D01*
X124460Y629920D01*
X84487Y909320D02*
X53340Y909320D01*
X84487Y909320D02*
X124460Y869347D01*
X124460Y629920D01*
D13*
X178054Y484756D03*
D15*
X27940Y883920D02*
X40640Y896620D01*
X83820Y896620D01*
X116840Y863600D01*
X116840Y546100D01*
X178054Y484886D02*
X178054Y484756D01*
X178054Y484886D02*
X116840Y546100D01*
D13*
X178054Y398966D03*
D15*
X109220Y467800D01*
X84128Y883920D02*
X53340Y883920D01*
X84128Y883920D02*
X109220Y858828D01*
X109220Y467800D01*
D13*
X178054Y313175D03*
D15*
X27940Y858520D02*
X40640Y871220D01*
X81280Y871220D01*
X101600Y850900D01*
X101600Y389629D01*
X178054Y313175D01*
D13*
X178054Y227386D03*
D15*
X78740Y858520D02*
X53340Y858520D01*
X78740Y858520D02*
X93980Y843280D01*
X93980Y309880D01*
X176475Y227386D01*
X178054Y227386D01*
D13*
X178054Y141596D03*
D15*
X27940Y833120D02*
X40640Y845820D01*
X76200Y845820D01*
X86360Y835660D01*
X86360Y231140D01*
X175904Y141596D01*
X178054Y141596D01*
D13*
X178054Y55806D03*
D15*
X73660Y833120D02*
X53340Y833120D01*
X73660Y833120D02*
X78740Y828040D01*
X78740Y154940D01*
X177874Y55806D01*
X178054Y55806D01*
D13*
X264668Y660830D03*
X264668Y224998D03*
D16*
X787400Y53340D02*
X876300Y53340D01*
X787400Y53340D02*
X749300Y91440D01*
X652780Y91440D01*
X613476Y52136D01*
X574294Y52136D01*
X611599Y52136D01*
X611599Y94521D01*
X594360Y111760D01*
X556260Y111760D01*
X530860Y137160D01*
X530860Y139700D01*
X530860Y193040D01*
X530860Y139700D02*
X413832Y139700D01*
X409194Y144338D01*
X553654Y233746D02*
X571566Y233746D01*
X553654Y233746D02*
X530860Y256540D01*
X530860Y325120D01*
X530860Y372176D01*
X560672Y401988D01*
X574294Y415610D01*
X530860Y325120D02*
X409260Y325120D01*
X409194Y325186D01*
X533400Y429260D02*
X560672Y401988D01*
X533400Y429260D02*
X533400Y505460D01*
X533400Y557596D01*
X574294Y598490D01*
X533400Y505460D02*
X410530Y505460D01*
X409448Y506542D01*
X533400Y557596D02*
X533400Y688340D01*
X533400Y738190D01*
X562610Y767400D02*
X574040Y778830D01*
X562610Y767400D02*
X533400Y738190D01*
X533400Y688340D02*
X410652Y688340D01*
X409448Y687136D01*
X562610Y767400D02*
X461518Y868492D01*
X409702Y868492D01*
X571566Y233746D02*
X574040Y233746D01*
X571566Y233746D02*
X530860Y193040D01*
X1175479Y158021D02*
X1175479Y127541D01*
X1161034Y113096D01*
X1140714Y113096D01*
X1175479Y158021D02*
X1160780Y172720D01*
X1097280Y200660D02*
X1097280Y254000D01*
X1136081Y292801D02*
X1137986Y294706D01*
X1140460Y292801D01*
X1097280Y200660D02*
X980252Y200660D01*
X975614Y202441D01*
X1120074Y294706D02*
X1137986Y294706D01*
X1120074Y294706D02*
X1097280Y317500D01*
X1097280Y386080D01*
X1097280Y433136D01*
X1127092Y462948D01*
X1140714Y476570D01*
X1097280Y386080D02*
X975680Y386080D01*
X975614Y385194D01*
X1099820Y490220D02*
X1127092Y462948D01*
X1099820Y490220D02*
X1099820Y566420D01*
X1099820Y618556D01*
X1140714Y660403D01*
X1099820Y566420D02*
X976950Y566420D01*
X975868Y567502D01*
X1099820Y618556D02*
X1099820Y749300D01*
X1099820Y799150D01*
X1129030Y828360D02*
X1140460Y842648D01*
X1129030Y828360D02*
X1099820Y799150D01*
X1099820Y749300D02*
X977072Y749300D01*
X975868Y750001D01*
X1129030Y828360D02*
X1027938Y929452D01*
X976122Y933262D01*
X1118967Y172720D02*
X1160780Y172720D01*
X1118967Y172720D02*
X1097280Y194407D01*
X1097280Y200660D01*
X1140460Y842648D02*
X1190628Y842648D01*
X1244600Y896620D01*
X1338580Y896620D01*
X1417320Y817880D01*
X1417320Y746760D01*
X1140460Y292801D02*
X1136081Y292801D01*
X1097280Y254000D01*
M02*
