G04 EAGLE Gerber RS-274X export*
G75*
%MOMM*%
%FSLAX34Y34*%
%LPD*%
%INBottom Copper*%
%IPPOS*%
%AMOC8*
5,1,8,0,0,1.08239X$1,22.5*%
G01*
G04 Define Apertures*
%ADD10C,1.508000*%
%ADD11P,1.64956X8X22.5*%
%ADD12C,1.422400*%
%ADD13R,2.794000X0.939800*%
%ADD14R,7.239000X6.832600*%
%ADD15R,1.600000X1.800000*%
%ADD16R,1.800000X1.600000*%
%ADD17R,0.939800X2.794000*%
%ADD18R,6.832600X7.239000*%
%ADD19C,4.191000*%
%ADD20C,0.812800*%
%ADD21C,1.270000*%
%ADD22C,1.016000*%
%ADD23C,2.540000*%
G36*
X1438146Y25207D02*
X1437997Y25192D01*
X984928Y25192D01*
X984780Y25207D01*
X976826Y26789D01*
X976551Y26903D01*
X969809Y31408D01*
X969598Y31618D01*
X965093Y38361D01*
X964979Y38636D01*
X963397Y46589D01*
X963382Y46738D01*
X963382Y191998D01*
X963429Y192262D01*
X963589Y192520D01*
X963836Y192695D01*
X964132Y192760D01*
X964430Y192705D01*
X964683Y192537D01*
X967269Y189951D01*
X972684Y187709D01*
X978544Y187709D01*
X983959Y189951D01*
X988103Y194095D01*
X990346Y199510D01*
X990346Y205371D01*
X988103Y210786D01*
X983959Y214930D01*
X983453Y215139D01*
X983223Y215288D01*
X983048Y215535D01*
X982983Y215831D01*
X983038Y216129D01*
X983206Y216382D01*
X983797Y216973D01*
X985266Y220521D01*
X985266Y221679D01*
X965962Y221679D01*
X965962Y220521D01*
X967431Y216973D01*
X968022Y216382D01*
X968178Y216157D01*
X968245Y215862D01*
X968192Y215563D01*
X968027Y215309D01*
X967775Y215139D01*
X967269Y214930D01*
X964683Y212344D01*
X964464Y212191D01*
X964169Y212121D01*
X963870Y212172D01*
X963614Y212335D01*
X963443Y212586D01*
X963382Y212883D01*
X963382Y374751D01*
X963429Y375015D01*
X963589Y375273D01*
X963836Y375448D01*
X964132Y375513D01*
X964430Y375458D01*
X964683Y375290D01*
X967269Y372704D01*
X972684Y370462D01*
X978544Y370462D01*
X983959Y372704D01*
X988103Y376848D01*
X990346Y382263D01*
X990346Y388124D01*
X988103Y393539D01*
X983959Y397683D01*
X983453Y397892D01*
X983223Y398041D01*
X983048Y398288D01*
X982983Y398584D01*
X983038Y398882D01*
X983206Y399135D01*
X983797Y399726D01*
X985266Y403274D01*
X985266Y404432D01*
X965962Y404432D01*
X965962Y403274D01*
X967431Y399726D01*
X968022Y399135D01*
X968178Y398910D01*
X968245Y398615D01*
X968192Y398316D01*
X968027Y398062D01*
X967775Y397892D01*
X967269Y397683D01*
X964683Y395097D01*
X964464Y394944D01*
X964169Y394874D01*
X963870Y394925D01*
X963614Y395088D01*
X963443Y395339D01*
X963382Y395636D01*
X963382Y557314D01*
X963429Y557577D01*
X963589Y557835D01*
X963836Y558011D01*
X964132Y558076D01*
X964430Y558020D01*
X964683Y557853D01*
X967523Y555013D01*
X972938Y552770D01*
X978798Y552770D01*
X984213Y555013D01*
X988357Y559157D01*
X990600Y564572D01*
X990600Y570432D01*
X988357Y575847D01*
X984213Y579991D01*
X983707Y580201D01*
X983477Y580349D01*
X983302Y580597D01*
X983237Y580893D01*
X983292Y581191D01*
X983460Y581444D01*
X984051Y582035D01*
X985520Y585582D01*
X985520Y586740D01*
X966216Y586740D01*
X966216Y585582D01*
X967685Y582035D01*
X968276Y581444D01*
X968432Y581219D01*
X968499Y580923D01*
X968446Y580625D01*
X968281Y580370D01*
X968029Y580201D01*
X967523Y579991D01*
X964683Y577152D01*
X964464Y576999D01*
X964169Y576929D01*
X963870Y576980D01*
X963614Y577143D01*
X963443Y577393D01*
X963382Y577690D01*
X963382Y739813D01*
X963429Y740076D01*
X963589Y740334D01*
X963836Y740510D01*
X964132Y740575D01*
X964430Y740519D01*
X964683Y740352D01*
X967523Y737512D01*
X972938Y735269D01*
X978798Y735269D01*
X984213Y737512D01*
X988357Y741656D01*
X990600Y747071D01*
X990600Y752931D01*
X988357Y758346D01*
X984213Y762490D01*
X983707Y762700D01*
X983477Y762848D01*
X983302Y763096D01*
X983237Y763392D01*
X983292Y763690D01*
X983460Y763943D01*
X984051Y764534D01*
X985520Y768081D01*
X985520Y769239D01*
X966216Y769239D01*
X966216Y768081D01*
X967685Y764534D01*
X968276Y763943D01*
X968432Y763718D01*
X968499Y763422D01*
X968446Y763124D01*
X968281Y762869D01*
X968029Y762700D01*
X967523Y762490D01*
X964683Y759651D01*
X964464Y759498D01*
X964169Y759428D01*
X963870Y759479D01*
X963614Y759642D01*
X963443Y759892D01*
X963382Y760189D01*
X963382Y923328D01*
X963429Y923591D01*
X963589Y923849D01*
X963836Y924025D01*
X964132Y924090D01*
X964430Y924034D01*
X964683Y923867D01*
X967777Y920773D01*
X973192Y918530D01*
X979052Y918530D01*
X984467Y920773D01*
X988611Y924917D01*
X990854Y930332D01*
X990854Y936192D01*
X988611Y941607D01*
X987495Y942723D01*
X987337Y942954D01*
X987272Y943250D01*
X987328Y943548D01*
X987495Y943801D01*
X988611Y944917D01*
X990854Y950332D01*
X990854Y956192D01*
X988611Y961607D01*
X984467Y965751D01*
X983961Y965961D01*
X983731Y966109D01*
X983556Y966357D01*
X983491Y966653D01*
X983546Y966951D01*
X983714Y967204D01*
X984305Y967795D01*
X985774Y971342D01*
X985774Y972500D01*
X966470Y972500D01*
X966470Y971342D01*
X967939Y967795D01*
X968530Y967204D01*
X968686Y966979D01*
X968753Y966683D01*
X968700Y966385D01*
X968535Y966130D01*
X968283Y965961D01*
X967777Y965751D01*
X964683Y962658D01*
X964464Y962505D01*
X964169Y962435D01*
X963870Y962486D01*
X963614Y962649D01*
X963443Y962899D01*
X963382Y963196D01*
X963382Y1013182D01*
X963392Y1013302D01*
X964562Y1020692D01*
X964636Y1020919D01*
X968033Y1027586D01*
X968173Y1027778D01*
X973464Y1033069D01*
X973657Y1033209D01*
X980324Y1036606D01*
X980551Y1036680D01*
X987941Y1037851D01*
X988060Y1037860D01*
X1439560Y1037860D01*
X1439709Y1037845D01*
X1446698Y1036455D01*
X1446973Y1036341D01*
X1452899Y1032382D01*
X1453109Y1032171D01*
X1457069Y1026246D01*
X1457182Y1025971D01*
X1458573Y1018981D01*
X1458587Y1018832D01*
X1458587Y416029D01*
X1458541Y415766D01*
X1458381Y415508D01*
X1458134Y415332D01*
X1457838Y415267D01*
X1457540Y415323D01*
X1457287Y415490D01*
X1433910Y438866D01*
X1426442Y441960D01*
X1424022Y441960D01*
X1423758Y442007D01*
X1423500Y442166D01*
X1423325Y442414D01*
X1423260Y442710D01*
X1423315Y443008D01*
X1423483Y443261D01*
X1425067Y444845D01*
X1425067Y481330D01*
X1351661Y481330D01*
X1351661Y444845D01*
X1353245Y443261D01*
X1353398Y443041D01*
X1353468Y442746D01*
X1353417Y442447D01*
X1353254Y442192D01*
X1353004Y442020D01*
X1352706Y441960D01*
X1349852Y441960D01*
X1349567Y442016D01*
X1349314Y442183D01*
X1346423Y445074D01*
X1346260Y445315D01*
X1346200Y445612D01*
X1346200Y514508D01*
X1346256Y514794D01*
X1346423Y515046D01*
X1350360Y518983D01*
X1350580Y519136D01*
X1350875Y519206D01*
X1351174Y519155D01*
X1351429Y518992D01*
X1351601Y518742D01*
X1351661Y518445D01*
X1351661Y482854D01*
X1425067Y482854D01*
X1425067Y519339D01*
X1424568Y519838D01*
X1424405Y520080D01*
X1424345Y520377D01*
X1424345Y534016D01*
X1424308Y534778D01*
X1424199Y535515D01*
X1424019Y536236D01*
X1423770Y536937D01*
X1423655Y537180D01*
X1423583Y537504D01*
X1423583Y543645D01*
X1423641Y543937D01*
X1423964Y544717D01*
X1423964Y571898D01*
X1424015Y572173D01*
X1424179Y572428D01*
X1424429Y572600D01*
X1424726Y572660D01*
X1425536Y572660D01*
X1428336Y573820D01*
X1430480Y575964D01*
X1431640Y578764D01*
X1431640Y599796D01*
X1430480Y602596D01*
X1430213Y602863D01*
X1430050Y603105D01*
X1429990Y603402D01*
X1429990Y737562D01*
X1430046Y737848D01*
X1430213Y738101D01*
X1432560Y740447D01*
X1432560Y753073D01*
X1423633Y762000D01*
X1411007Y762000D01*
X1402080Y753073D01*
X1402080Y748463D01*
X1402050Y748312D01*
X1402050Y603402D01*
X1401994Y603116D01*
X1401827Y602863D01*
X1401560Y602596D01*
X1400400Y599796D01*
X1400400Y591634D01*
X1400342Y591343D01*
X1398564Y587050D01*
X1398564Y544717D01*
X1398887Y543937D01*
X1398945Y543645D01*
X1398945Y542417D01*
X1398894Y542142D01*
X1398730Y541887D01*
X1398480Y541715D01*
X1398183Y541655D01*
X1378545Y541655D01*
X1378270Y541706D01*
X1378015Y541870D01*
X1377843Y542120D01*
X1377783Y542417D01*
X1377783Y543645D01*
X1377841Y543937D01*
X1378164Y544717D01*
X1378164Y549769D01*
X1377841Y550549D01*
X1377783Y550841D01*
X1377783Y562729D01*
X1376623Y565529D01*
X1374479Y567673D01*
X1371679Y568833D01*
X1367282Y568833D01*
X1367007Y568884D01*
X1366752Y569048D01*
X1366580Y569298D01*
X1366520Y569595D01*
X1366520Y577866D01*
X1364587Y582534D01*
X1358263Y588857D01*
X1358100Y589099D01*
X1358040Y589396D01*
X1358040Y597256D01*
X1356880Y600056D01*
X1354736Y602200D01*
X1351936Y603360D01*
X1332904Y603360D01*
X1330104Y602200D01*
X1327960Y600056D01*
X1326800Y597256D01*
X1326800Y576224D01*
X1327960Y573424D01*
X1330104Y571280D01*
X1332904Y570120D01*
X1340358Y570120D01*
X1340633Y570069D01*
X1340888Y569905D01*
X1341060Y569655D01*
X1341120Y569358D01*
X1341120Y567532D01*
X1341064Y567247D01*
X1340897Y566994D01*
X1308654Y534750D01*
X1305560Y527282D01*
X1305560Y432838D01*
X1308654Y425370D01*
X1329610Y404414D01*
X1337078Y401320D01*
X1413668Y401320D01*
X1413954Y401264D01*
X1414206Y401097D01*
X1422177Y393126D01*
X1422340Y392885D01*
X1422400Y392588D01*
X1422400Y153512D01*
X1422344Y153227D01*
X1422177Y152974D01*
X1378646Y109443D01*
X1378405Y109280D01*
X1378108Y109220D01*
X1372638Y109220D01*
X1365170Y106126D01*
X1359454Y100410D01*
X1356360Y92942D01*
X1356360Y84858D01*
X1359454Y77390D01*
X1365170Y71674D01*
X1372638Y68580D01*
X1390882Y68580D01*
X1398350Y71674D01*
X1457287Y130610D01*
X1457506Y130763D01*
X1457801Y130833D01*
X1458100Y130782D01*
X1458356Y130618D01*
X1458527Y130368D01*
X1458587Y130071D01*
X1458587Y45782D01*
X1458573Y45633D01*
X1457064Y38046D01*
X1456950Y37771D01*
X1452652Y31338D01*
X1452441Y31128D01*
X1446009Y26830D01*
X1445734Y26716D01*
X1438146Y25207D01*
G37*
%LPC*%
G36*
X976884Y974024D02*
X985774Y974024D01*
X985774Y975182D01*
X984305Y978729D01*
X981589Y981445D01*
X978042Y982914D01*
X976884Y982914D01*
X976884Y974024D01*
G37*
G36*
X966470Y974024D02*
X975360Y974024D01*
X975360Y982914D01*
X974202Y982914D01*
X970655Y981445D01*
X967939Y978729D01*
X966470Y975182D01*
X966470Y974024D01*
G37*
G36*
X1120512Y918370D02*
X1126372Y918370D01*
X1131787Y920613D01*
X1135931Y924757D01*
X1138174Y930172D01*
X1138174Y936032D01*
X1135931Y941447D01*
X1134815Y942563D01*
X1134657Y942794D01*
X1134592Y943090D01*
X1134648Y943388D01*
X1134815Y943641D01*
X1135931Y944757D01*
X1138174Y950172D01*
X1138174Y956032D01*
X1135931Y961447D01*
X1131787Y965591D01*
X1126372Y967834D01*
X1120512Y967834D01*
X1115097Y965591D01*
X1110953Y961447D01*
X1108710Y956032D01*
X1108710Y950172D01*
X1110953Y944757D01*
X1112069Y943641D01*
X1112227Y943410D01*
X1112292Y943114D01*
X1112236Y942816D01*
X1112069Y942563D01*
X1110953Y941447D01*
X1108710Y936032D01*
X1108710Y930172D01*
X1110953Y924757D01*
X1115097Y920613D01*
X1120512Y918370D01*
G37*
G36*
X1416516Y916940D02*
X1423204Y916940D01*
X1429664Y918671D01*
X1435456Y922015D01*
X1440185Y926744D01*
X1443529Y932536D01*
X1445260Y938996D01*
X1445260Y945684D01*
X1443529Y952144D01*
X1440185Y957936D01*
X1435456Y962665D01*
X1429664Y966009D01*
X1423204Y967740D01*
X1416516Y967740D01*
X1410056Y966009D01*
X1404264Y962665D01*
X1399535Y957936D01*
X1396191Y952144D01*
X1394460Y945684D01*
X1394460Y938996D01*
X1396191Y932536D01*
X1399535Y926744D01*
X1404264Y922015D01*
X1410056Y918671D01*
X1416516Y916940D01*
G37*
G36*
X1141222Y883410D02*
X1150112Y883410D01*
X1150112Y884567D01*
X1148643Y888115D01*
X1145927Y890830D01*
X1142380Y892300D01*
X1141222Y892300D01*
X1141222Y883410D01*
G37*
G36*
X1130808Y883410D02*
X1139698Y883410D01*
X1139698Y892300D01*
X1138540Y892300D01*
X1134993Y890830D01*
X1132277Y888115D01*
X1130808Y884567D01*
X1130808Y883410D01*
G37*
G36*
X1002496Y835660D02*
X1009184Y835660D01*
X1015644Y837391D01*
X1021436Y840735D01*
X1026165Y845464D01*
X1029509Y851256D01*
X1031240Y857716D01*
X1031240Y864404D01*
X1029509Y870864D01*
X1026165Y876656D01*
X1021436Y881385D01*
X1015644Y884729D01*
X1009184Y886460D01*
X1002496Y886460D01*
X996036Y884729D01*
X990244Y881385D01*
X985515Y876656D01*
X982171Y870864D01*
X980440Y864404D01*
X980440Y857716D01*
X982171Y851256D01*
X985515Y845464D01*
X990244Y840735D01*
X996036Y837391D01*
X1002496Y835660D01*
G37*
G36*
X1130808Y863410D02*
X1150112Y863410D01*
X1150112Y864567D01*
X1148643Y868115D01*
X1145927Y870830D01*
X1143239Y871944D01*
X1143014Y872088D01*
X1142837Y872334D01*
X1142769Y872629D01*
X1142822Y872928D01*
X1142988Y873182D01*
X1143239Y873352D01*
X1145927Y874465D01*
X1148643Y877180D01*
X1150112Y880728D01*
X1150112Y881886D01*
X1130808Y881886D01*
X1130808Y880728D01*
X1132277Y877180D01*
X1134993Y874465D01*
X1137681Y873352D01*
X1137906Y873207D01*
X1138083Y872961D01*
X1138151Y872666D01*
X1138098Y872367D01*
X1137932Y872113D01*
X1137681Y871944D01*
X1134993Y870830D01*
X1132277Y868115D01*
X1130808Y864567D01*
X1130808Y863410D01*
G37*
G36*
X1284850Y827756D02*
X1290710Y827756D01*
X1296125Y829998D01*
X1300269Y834142D01*
X1302512Y839557D01*
X1302512Y845418D01*
X1300269Y850833D01*
X1299153Y851949D01*
X1298995Y852179D01*
X1298930Y852475D01*
X1298986Y852773D01*
X1299153Y853026D01*
X1300269Y854142D01*
X1302512Y859557D01*
X1302512Y865418D01*
X1300269Y870833D01*
X1296125Y874977D01*
X1290710Y877220D01*
X1284850Y877220D01*
X1279435Y874977D01*
X1275291Y870833D01*
X1273048Y865418D01*
X1273048Y859557D01*
X1275291Y854142D01*
X1276407Y853026D01*
X1276565Y852796D01*
X1276630Y852500D01*
X1276574Y852202D01*
X1276407Y851949D01*
X1275291Y850833D01*
X1273048Y845418D01*
X1273048Y839557D01*
X1275291Y834142D01*
X1279435Y829998D01*
X1284850Y827756D01*
G37*
G36*
X1137530Y827916D02*
X1143390Y827916D01*
X1148805Y830158D01*
X1152949Y834302D01*
X1155192Y839717D01*
X1155192Y845578D01*
X1152949Y850993D01*
X1148805Y855137D01*
X1148299Y855346D01*
X1148069Y855495D01*
X1147894Y855742D01*
X1147829Y856038D01*
X1147884Y856336D01*
X1148052Y856589D01*
X1148643Y857180D01*
X1150112Y860728D01*
X1150112Y861886D01*
X1130808Y861886D01*
X1130808Y860728D01*
X1132277Y857180D01*
X1132868Y856589D01*
X1133024Y856364D01*
X1133091Y856069D01*
X1133038Y855770D01*
X1132873Y855516D01*
X1132621Y855346D01*
X1132115Y855137D01*
X1127971Y850993D01*
X1125728Y845578D01*
X1125728Y839717D01*
X1127971Y834302D01*
X1132115Y830158D01*
X1137530Y827916D01*
G37*
G36*
X976630Y790763D02*
X985520Y790763D01*
X985520Y791921D01*
X984051Y795468D01*
X981335Y798184D01*
X977788Y799653D01*
X976630Y799653D01*
X976630Y790763D01*
G37*
G36*
X966216Y790763D02*
X975106Y790763D01*
X975106Y799653D01*
X973948Y799653D01*
X970401Y798184D01*
X967685Y795468D01*
X966216Y791921D01*
X966216Y790763D01*
G37*
G36*
X966216Y770763D02*
X985520Y770763D01*
X985520Y771921D01*
X984051Y775468D01*
X981335Y778184D01*
X978647Y779297D01*
X978422Y779441D01*
X978245Y779687D01*
X978177Y779983D01*
X978230Y780281D01*
X978396Y780536D01*
X978647Y780705D01*
X981335Y781818D01*
X984051Y784534D01*
X985520Y788081D01*
X985520Y789239D01*
X966216Y789239D01*
X966216Y788081D01*
X967685Y784534D01*
X970401Y781818D01*
X973089Y780705D01*
X973314Y780561D01*
X973491Y780315D01*
X973559Y780019D01*
X973506Y779721D01*
X973340Y779467D01*
X973089Y779297D01*
X970401Y778184D01*
X967685Y775468D01*
X966216Y771921D01*
X966216Y770763D01*
G37*
G36*
X1120258Y735109D02*
X1126118Y735109D01*
X1131533Y737352D01*
X1135677Y741496D01*
X1137920Y746911D01*
X1137920Y752771D01*
X1135677Y758186D01*
X1134561Y759302D01*
X1134403Y759533D01*
X1134338Y759829D01*
X1134394Y760127D01*
X1134561Y760380D01*
X1135677Y761496D01*
X1137920Y766911D01*
X1137920Y772771D01*
X1135677Y778186D01*
X1131533Y782330D01*
X1126118Y784573D01*
X1120258Y784573D01*
X1114843Y782330D01*
X1110699Y778186D01*
X1108456Y772771D01*
X1108456Y766911D01*
X1110699Y761496D01*
X1111815Y760380D01*
X1111973Y760149D01*
X1112038Y759853D01*
X1111982Y759555D01*
X1111815Y759302D01*
X1110699Y758186D01*
X1108456Y752771D01*
X1108456Y746911D01*
X1110699Y741496D01*
X1114843Y737352D01*
X1120258Y735109D01*
G37*
G36*
X1141476Y701165D02*
X1150366Y701165D01*
X1150366Y702322D01*
X1148897Y705870D01*
X1146181Y708585D01*
X1142634Y710055D01*
X1141476Y710055D01*
X1141476Y701165D01*
G37*
G36*
X1131062Y701165D02*
X1139952Y701165D01*
X1139952Y710055D01*
X1138794Y710055D01*
X1135247Y708585D01*
X1132531Y705870D01*
X1131062Y702322D01*
X1131062Y701165D01*
G37*
G36*
X1131062Y681165D02*
X1150366Y681165D01*
X1150366Y682322D01*
X1148897Y685870D01*
X1146181Y688585D01*
X1143493Y689699D01*
X1143268Y689843D01*
X1143091Y690089D01*
X1143023Y690384D01*
X1143076Y690683D01*
X1143242Y690937D01*
X1143493Y691107D01*
X1146181Y692220D01*
X1148897Y694935D01*
X1150366Y698483D01*
X1150366Y699641D01*
X1131062Y699641D01*
X1131062Y698483D01*
X1132531Y694935D01*
X1135247Y692220D01*
X1137935Y691107D01*
X1138160Y690962D01*
X1138337Y690716D01*
X1138405Y690421D01*
X1138352Y690122D01*
X1138186Y689868D01*
X1137935Y689699D01*
X1135247Y688585D01*
X1132531Y685870D01*
X1131062Y682322D01*
X1131062Y681165D01*
G37*
G36*
X1285104Y645511D02*
X1290964Y645511D01*
X1296379Y647753D01*
X1300523Y651897D01*
X1302766Y657312D01*
X1302766Y663173D01*
X1300523Y668588D01*
X1299407Y669704D01*
X1299249Y669934D01*
X1299184Y670230D01*
X1299240Y670528D01*
X1299407Y670781D01*
X1300523Y671897D01*
X1302766Y677312D01*
X1302766Y683173D01*
X1300523Y688588D01*
X1296379Y692732D01*
X1290964Y694975D01*
X1285104Y694975D01*
X1279689Y692732D01*
X1275545Y688588D01*
X1273302Y683173D01*
X1273302Y677312D01*
X1275545Y671897D01*
X1276661Y670781D01*
X1276819Y670551D01*
X1276884Y670255D01*
X1276828Y669957D01*
X1276661Y669704D01*
X1275545Y668588D01*
X1273302Y663173D01*
X1273302Y657312D01*
X1275545Y651897D01*
X1279689Y647753D01*
X1285104Y645511D01*
G37*
G36*
X1137784Y645671D02*
X1143644Y645671D01*
X1149059Y647913D01*
X1153203Y652057D01*
X1155446Y657472D01*
X1155446Y663333D01*
X1153203Y668748D01*
X1149059Y672892D01*
X1148553Y673101D01*
X1148323Y673250D01*
X1148148Y673497D01*
X1148083Y673793D01*
X1148138Y674091D01*
X1148306Y674344D01*
X1148897Y674935D01*
X1150366Y678483D01*
X1150366Y679641D01*
X1131062Y679641D01*
X1131062Y678483D01*
X1132531Y674935D01*
X1133122Y674344D01*
X1133278Y674119D01*
X1133345Y673824D01*
X1133292Y673525D01*
X1133127Y673271D01*
X1132875Y673101D01*
X1132369Y672892D01*
X1128225Y668748D01*
X1125982Y663333D01*
X1125982Y657472D01*
X1128225Y652057D01*
X1132369Y647913D01*
X1137784Y645671D01*
G37*
G36*
X976630Y608264D02*
X985520Y608264D01*
X985520Y609422D01*
X984051Y612969D01*
X981335Y615685D01*
X977788Y617154D01*
X976630Y617154D01*
X976630Y608264D01*
G37*
G36*
X966216Y608264D02*
X975106Y608264D01*
X975106Y617154D01*
X973948Y617154D01*
X970401Y615685D01*
X967685Y612969D01*
X966216Y609422D01*
X966216Y608264D01*
G37*
G36*
X1210776Y563880D02*
X1217464Y563880D01*
X1223924Y565611D01*
X1229716Y568955D01*
X1234445Y573684D01*
X1237789Y579476D01*
X1239520Y585936D01*
X1239520Y592624D01*
X1237789Y599084D01*
X1234445Y604876D01*
X1229716Y609605D01*
X1223924Y612949D01*
X1217464Y614680D01*
X1210776Y614680D01*
X1204316Y612949D01*
X1198524Y609605D01*
X1193795Y604876D01*
X1190451Y599084D01*
X1188720Y592624D01*
X1188720Y585936D01*
X1190451Y579476D01*
X1193795Y573684D01*
X1198524Y568955D01*
X1204316Y565611D01*
X1210776Y563880D01*
G37*
G36*
X966216Y588264D02*
X985520Y588264D01*
X985520Y589422D01*
X984051Y592969D01*
X981335Y595685D01*
X978647Y596798D01*
X978422Y596942D01*
X978245Y597188D01*
X978177Y597484D01*
X978230Y597782D01*
X978396Y598037D01*
X978647Y598206D01*
X981335Y599319D01*
X984051Y602035D01*
X985520Y605582D01*
X985520Y606740D01*
X966216Y606740D01*
X966216Y605582D01*
X967685Y602035D01*
X970401Y599319D01*
X973089Y598206D01*
X973314Y598062D01*
X973491Y597816D01*
X973559Y597520D01*
X973506Y597222D01*
X973340Y596968D01*
X973089Y596798D01*
X970401Y595685D01*
X967685Y592969D01*
X966216Y589422D01*
X966216Y588264D01*
G37*
G36*
X1120258Y552610D02*
X1126118Y552610D01*
X1131533Y554853D01*
X1135677Y558997D01*
X1137920Y564412D01*
X1137920Y570272D01*
X1135677Y575687D01*
X1134561Y576803D01*
X1134403Y577034D01*
X1134338Y577330D01*
X1134394Y577628D01*
X1134561Y577881D01*
X1135677Y578997D01*
X1137920Y584412D01*
X1137920Y590272D01*
X1135677Y595687D01*
X1131533Y599831D01*
X1126118Y602074D01*
X1120258Y602074D01*
X1114843Y599831D01*
X1110699Y595687D01*
X1108456Y590272D01*
X1108456Y584412D01*
X1110699Y578997D01*
X1111815Y577881D01*
X1111973Y577650D01*
X1112038Y577354D01*
X1111982Y577056D01*
X1111815Y576803D01*
X1110699Y575687D01*
X1108456Y570272D01*
X1108456Y564412D01*
X1110699Y558997D01*
X1114843Y554853D01*
X1120258Y552610D01*
G37*
G36*
X1433480Y590042D02*
X1443258Y590042D01*
X1443258Y600820D01*
X1434968Y600820D01*
X1433480Y599332D01*
X1433480Y590042D01*
G37*
G36*
X1444782Y590042D02*
X1454560Y590042D01*
X1454560Y599332D01*
X1453072Y600820D01*
X1444782Y600820D01*
X1444782Y590042D01*
G37*
G36*
X1315182Y587502D02*
X1324960Y587502D01*
X1324960Y596792D01*
X1323472Y598280D01*
X1315182Y598280D01*
X1315182Y587502D01*
G37*
G36*
X1303880Y587502D02*
X1313658Y587502D01*
X1313658Y598280D01*
X1305368Y598280D01*
X1303880Y596792D01*
X1303880Y587502D01*
G37*
G36*
X1434968Y577740D02*
X1443258Y577740D01*
X1443258Y588518D01*
X1433480Y588518D01*
X1433480Y579228D01*
X1434968Y577740D01*
G37*
G36*
X1444782Y577740D02*
X1453072Y577740D01*
X1454560Y579228D01*
X1454560Y588518D01*
X1444782Y588518D01*
X1444782Y577740D01*
G37*
G36*
X1315182Y575200D02*
X1323472Y575200D01*
X1324960Y576688D01*
X1324960Y585978D01*
X1315182Y585978D01*
X1315182Y575200D01*
G37*
G36*
X1305368Y575200D02*
X1313658Y575200D01*
X1313658Y585978D01*
X1303880Y585978D01*
X1303880Y576688D01*
X1305368Y575200D01*
G37*
G36*
X1435100Y557022D02*
X1444498Y557022D01*
X1444498Y566420D01*
X1441052Y566420D01*
X1435100Y560468D01*
X1435100Y557022D01*
G37*
G36*
X1297940Y557022D02*
X1307338Y557022D01*
X1307338Y566420D01*
X1303892Y566420D01*
X1297940Y560468D01*
X1297940Y557022D01*
G37*
G36*
X1308862Y557022D02*
X1318260Y557022D01*
X1318260Y560468D01*
X1312308Y566420D01*
X1308862Y566420D01*
X1308862Y557022D01*
G37*
G36*
X1446022Y557022D02*
X1455420Y557022D01*
X1455420Y560468D01*
X1449468Y566420D01*
X1446022Y566420D01*
X1446022Y557022D01*
G37*
G36*
X1446022Y546100D02*
X1449468Y546100D01*
X1455420Y552052D01*
X1455420Y555498D01*
X1446022Y555498D01*
X1446022Y546100D01*
G37*
G36*
X1441052Y546100D02*
X1444498Y546100D01*
X1444498Y555498D01*
X1435100Y555498D01*
X1435100Y552052D01*
X1441052Y546100D01*
G37*
G36*
X1308862Y546100D02*
X1312308Y546100D01*
X1318260Y552052D01*
X1318260Y555498D01*
X1308862Y555498D01*
X1308862Y546100D01*
G37*
G36*
X1303892Y546100D02*
X1307338Y546100D01*
X1307338Y555498D01*
X1297940Y555498D01*
X1297940Y552052D01*
X1303892Y546100D01*
G37*
G36*
X1141476Y517332D02*
X1150366Y517332D01*
X1150366Y518490D01*
X1148897Y522037D01*
X1146181Y524753D01*
X1142634Y526222D01*
X1141476Y526222D01*
X1141476Y517332D01*
G37*
G36*
X1131062Y517332D02*
X1139952Y517332D01*
X1139952Y526222D01*
X1138794Y526222D01*
X1135247Y524753D01*
X1132531Y522037D01*
X1131062Y518490D01*
X1131062Y517332D01*
G37*
G36*
X1131062Y497332D02*
X1150366Y497332D01*
X1150366Y498490D01*
X1148897Y502037D01*
X1146181Y504753D01*
X1143493Y505866D01*
X1143268Y506010D01*
X1143091Y506256D01*
X1143023Y506552D01*
X1143076Y506850D01*
X1143242Y507105D01*
X1143493Y507274D01*
X1146181Y508387D01*
X1148897Y511103D01*
X1150366Y514650D01*
X1150366Y515808D01*
X1131062Y515808D01*
X1131062Y514650D01*
X1132531Y511103D01*
X1135247Y508387D01*
X1137935Y507274D01*
X1138160Y507130D01*
X1138337Y506884D01*
X1138405Y506588D01*
X1138352Y506290D01*
X1138186Y506036D01*
X1137935Y505866D01*
X1135247Y504753D01*
X1132531Y502037D01*
X1131062Y498490D01*
X1131062Y497332D01*
G37*
G36*
X1285104Y461678D02*
X1290964Y461678D01*
X1296379Y463921D01*
X1300523Y468065D01*
X1302766Y473480D01*
X1302766Y479340D01*
X1300523Y484755D01*
X1299407Y485871D01*
X1299249Y486102D01*
X1299184Y486398D01*
X1299240Y486696D01*
X1299407Y486949D01*
X1300523Y488065D01*
X1302766Y493480D01*
X1302766Y499340D01*
X1300523Y504755D01*
X1296379Y508899D01*
X1290964Y511142D01*
X1285104Y511142D01*
X1279689Y508899D01*
X1275545Y504755D01*
X1273302Y499340D01*
X1273302Y493480D01*
X1275545Y488065D01*
X1276661Y486949D01*
X1276819Y486718D01*
X1276884Y486422D01*
X1276828Y486124D01*
X1276661Y485871D01*
X1275545Y484755D01*
X1273302Y479340D01*
X1273302Y473480D01*
X1275545Y468065D01*
X1279689Y463921D01*
X1285104Y461678D01*
G37*
G36*
X1137784Y461838D02*
X1143644Y461838D01*
X1149059Y464081D01*
X1153203Y468225D01*
X1155446Y473640D01*
X1155446Y479500D01*
X1153203Y484915D01*
X1149059Y489059D01*
X1148553Y489269D01*
X1148323Y489417D01*
X1148148Y489665D01*
X1148083Y489961D01*
X1148138Y490259D01*
X1148306Y490512D01*
X1148897Y491103D01*
X1150366Y494650D01*
X1150366Y495808D01*
X1131062Y495808D01*
X1131062Y494650D01*
X1132531Y491103D01*
X1133122Y490512D01*
X1133278Y490287D01*
X1133345Y489991D01*
X1133292Y489693D01*
X1133127Y489438D01*
X1132875Y489269D01*
X1132369Y489059D01*
X1128225Y484915D01*
X1125982Y479500D01*
X1125982Y473640D01*
X1128225Y468225D01*
X1132369Y464081D01*
X1137784Y461838D01*
G37*
G36*
X965962Y425956D02*
X974852Y425956D01*
X974852Y434846D01*
X973694Y434846D01*
X970147Y433376D01*
X967431Y430661D01*
X965962Y427113D01*
X965962Y425956D01*
G37*
G36*
X976376Y425956D02*
X985266Y425956D01*
X985266Y427113D01*
X983797Y430661D01*
X981081Y433376D01*
X977534Y434846D01*
X976376Y434846D01*
X976376Y425956D01*
G37*
G36*
X965962Y405956D02*
X985266Y405956D01*
X985266Y407113D01*
X983797Y410661D01*
X981081Y413376D01*
X978393Y414490D01*
X978168Y414634D01*
X977991Y414880D01*
X977923Y415175D01*
X977976Y415474D01*
X978142Y415728D01*
X978393Y415898D01*
X981081Y417011D01*
X983797Y419726D01*
X985266Y423274D01*
X985266Y424432D01*
X965962Y424432D01*
X965962Y423274D01*
X967431Y419726D01*
X970147Y417011D01*
X972835Y415898D01*
X973060Y415753D01*
X973237Y415507D01*
X973305Y415212D01*
X973252Y414913D01*
X973086Y414659D01*
X972835Y414490D01*
X970147Y413376D01*
X967431Y410661D01*
X965962Y407113D01*
X965962Y405956D01*
G37*
G36*
X1120004Y370302D02*
X1125864Y370302D01*
X1131279Y372544D01*
X1135423Y376688D01*
X1137666Y382103D01*
X1137666Y387964D01*
X1135423Y393379D01*
X1134307Y394495D01*
X1134149Y394725D01*
X1134084Y395021D01*
X1134140Y395319D01*
X1134307Y395572D01*
X1135423Y396688D01*
X1137666Y402103D01*
X1137666Y407964D01*
X1135423Y413379D01*
X1131279Y417523D01*
X1125864Y419766D01*
X1120004Y419766D01*
X1114589Y417523D01*
X1110445Y413379D01*
X1108202Y407964D01*
X1108202Y402103D01*
X1110445Y396688D01*
X1111561Y395572D01*
X1111719Y395342D01*
X1111784Y395046D01*
X1111728Y394748D01*
X1111561Y394495D01*
X1110445Y393379D01*
X1108202Y387964D01*
X1108202Y382103D01*
X1110445Y376688D01*
X1114589Y372544D01*
X1120004Y370302D01*
G37*
G36*
X1363504Y137240D02*
X1369536Y137240D01*
X1375107Y139548D01*
X1379372Y143813D01*
X1381265Y148383D01*
X1381409Y148609D01*
X1381655Y148786D01*
X1381951Y148853D01*
X1382250Y148800D01*
X1382504Y148635D01*
X1382673Y148383D01*
X1383375Y146690D01*
X1386210Y143855D01*
X1389915Y142320D01*
X1391158Y142320D01*
X1391158Y162480D01*
X1389915Y162480D01*
X1386210Y160945D01*
X1383375Y158110D01*
X1382673Y156417D01*
X1382529Y156191D01*
X1382283Y156014D01*
X1381988Y155947D01*
X1381689Y156000D01*
X1381435Y156165D01*
X1381265Y156417D01*
X1379372Y160987D01*
X1375798Y164561D01*
X1375640Y164792D01*
X1375575Y165088D01*
X1375631Y165386D01*
X1375798Y165639D01*
X1379372Y169213D01*
X1381265Y173783D01*
X1381409Y174009D01*
X1381655Y174186D01*
X1381951Y174253D01*
X1382250Y174200D01*
X1382504Y174035D01*
X1382673Y173783D01*
X1383375Y172090D01*
X1386210Y169255D01*
X1389915Y167720D01*
X1391158Y167720D01*
X1391158Y178562D01*
X1402000Y178562D01*
X1402000Y179805D01*
X1400465Y183510D01*
X1397630Y186345D01*
X1395937Y187047D01*
X1395711Y187191D01*
X1395534Y187437D01*
X1395467Y187733D01*
X1395520Y188031D01*
X1395685Y188285D01*
X1395937Y188455D01*
X1400507Y190348D01*
X1404772Y194613D01*
X1407080Y200184D01*
X1407080Y206216D01*
X1404772Y211787D01*
X1401198Y215361D01*
X1401040Y215592D01*
X1400975Y215888D01*
X1401031Y216186D01*
X1401198Y216439D01*
X1404772Y220013D01*
X1407080Y225584D01*
X1407080Y231616D01*
X1404772Y237187D01*
X1401198Y240761D01*
X1401040Y240992D01*
X1400975Y241288D01*
X1401031Y241586D01*
X1401198Y241839D01*
X1404772Y245413D01*
X1407080Y250984D01*
X1407080Y257016D01*
X1404772Y262587D01*
X1401198Y266161D01*
X1401040Y266392D01*
X1400975Y266688D01*
X1401031Y266986D01*
X1401198Y267239D01*
X1404772Y270813D01*
X1407080Y276384D01*
X1407080Y282416D01*
X1404772Y287987D01*
X1401198Y291561D01*
X1401040Y291792D01*
X1400975Y292088D01*
X1401031Y292386D01*
X1401198Y292639D01*
X1404772Y296213D01*
X1407080Y301784D01*
X1407080Y307816D01*
X1404772Y313387D01*
X1401198Y316961D01*
X1401040Y317192D01*
X1400975Y317488D01*
X1401031Y317786D01*
X1401198Y318039D01*
X1404772Y321613D01*
X1407080Y327184D01*
X1407080Y333216D01*
X1404772Y338787D01*
X1400507Y343052D01*
X1394936Y345360D01*
X1388904Y345360D01*
X1383333Y343052D01*
X1379759Y339478D01*
X1379528Y339320D01*
X1379232Y339255D01*
X1378934Y339311D01*
X1378681Y339478D01*
X1375107Y343052D01*
X1369536Y345360D01*
X1363504Y345360D01*
X1357933Y343052D01*
X1353668Y338787D01*
X1351360Y333216D01*
X1351360Y327184D01*
X1353668Y321613D01*
X1357242Y318039D01*
X1357400Y317808D01*
X1357465Y317512D01*
X1357409Y317214D01*
X1357242Y316961D01*
X1353668Y313387D01*
X1351360Y307816D01*
X1351360Y301784D01*
X1353668Y296213D01*
X1357242Y292639D01*
X1357400Y292408D01*
X1357465Y292112D01*
X1357409Y291814D01*
X1357242Y291561D01*
X1353668Y287987D01*
X1351360Y282416D01*
X1351360Y276384D01*
X1353668Y270813D01*
X1357242Y267239D01*
X1357400Y267008D01*
X1357465Y266712D01*
X1357409Y266414D01*
X1357242Y266161D01*
X1353668Y262587D01*
X1351360Y257016D01*
X1351360Y250984D01*
X1353668Y245413D01*
X1357242Y241839D01*
X1357400Y241608D01*
X1357465Y241312D01*
X1357409Y241014D01*
X1357242Y240761D01*
X1353668Y237187D01*
X1351360Y231616D01*
X1351360Y225584D01*
X1353668Y220013D01*
X1357242Y216439D01*
X1357400Y216208D01*
X1357465Y215912D01*
X1357409Y215614D01*
X1357242Y215361D01*
X1353668Y211787D01*
X1351360Y206216D01*
X1351360Y200184D01*
X1353668Y194613D01*
X1357242Y191039D01*
X1357400Y190808D01*
X1357465Y190512D01*
X1357409Y190214D01*
X1357242Y189961D01*
X1353668Y186387D01*
X1351360Y180816D01*
X1351360Y174784D01*
X1353668Y169213D01*
X1357242Y165639D01*
X1357400Y165408D01*
X1357465Y165112D01*
X1357409Y164814D01*
X1357242Y164561D01*
X1353668Y160987D01*
X1351360Y155416D01*
X1351360Y149384D01*
X1353668Y143813D01*
X1357933Y139548D01*
X1363504Y137240D01*
G37*
G36*
X1130808Y333563D02*
X1139698Y333563D01*
X1139698Y342453D01*
X1138540Y342453D01*
X1134993Y340984D01*
X1132277Y338268D01*
X1130808Y334721D01*
X1130808Y333563D01*
G37*
G36*
X1141222Y333563D02*
X1150112Y333563D01*
X1150112Y334721D01*
X1148643Y338268D01*
X1145927Y340984D01*
X1142380Y342453D01*
X1141222Y342453D01*
X1141222Y333563D01*
G37*
G36*
X1130808Y313563D02*
X1150112Y313563D01*
X1150112Y314721D01*
X1148643Y318268D01*
X1145927Y320984D01*
X1143239Y322097D01*
X1143014Y322241D01*
X1142837Y322487D01*
X1142769Y322783D01*
X1142822Y323081D01*
X1142988Y323336D01*
X1143239Y323505D01*
X1145927Y324618D01*
X1148643Y327334D01*
X1150112Y330881D01*
X1150112Y332039D01*
X1130808Y332039D01*
X1130808Y330881D01*
X1132277Y327334D01*
X1134993Y324618D01*
X1137681Y323505D01*
X1137906Y323361D01*
X1138083Y323115D01*
X1138151Y322819D01*
X1138098Y322521D01*
X1137932Y322267D01*
X1137681Y322097D01*
X1134993Y320984D01*
X1132277Y318268D01*
X1130808Y314721D01*
X1130808Y313563D01*
G37*
G36*
X1284850Y277909D02*
X1290710Y277909D01*
X1296125Y280152D01*
X1300269Y284296D01*
X1302512Y289711D01*
X1302512Y295571D01*
X1300269Y300986D01*
X1299153Y302102D01*
X1298995Y302333D01*
X1298930Y302629D01*
X1298986Y302927D01*
X1299153Y303180D01*
X1300269Y304296D01*
X1302512Y309711D01*
X1302512Y315571D01*
X1300269Y320986D01*
X1296125Y325130D01*
X1290710Y327373D01*
X1284850Y327373D01*
X1279435Y325130D01*
X1275291Y320986D01*
X1273048Y315571D01*
X1273048Y309711D01*
X1275291Y304296D01*
X1276407Y303180D01*
X1276565Y302949D01*
X1276630Y302653D01*
X1276574Y302355D01*
X1276407Y302102D01*
X1275291Y300986D01*
X1273048Y295571D01*
X1273048Y289711D01*
X1275291Y284296D01*
X1279435Y280152D01*
X1284850Y277909D01*
G37*
G36*
X1137530Y278069D02*
X1143390Y278069D01*
X1148805Y280312D01*
X1152949Y284456D01*
X1155192Y289871D01*
X1155192Y295731D01*
X1152949Y301146D01*
X1148805Y305290D01*
X1148299Y305500D01*
X1148069Y305648D01*
X1147894Y305896D01*
X1147829Y306192D01*
X1147884Y306490D01*
X1148052Y306743D01*
X1148643Y307334D01*
X1150112Y310881D01*
X1150112Y312039D01*
X1130808Y312039D01*
X1130808Y310881D01*
X1132277Y307334D01*
X1132868Y306743D01*
X1133024Y306518D01*
X1133091Y306222D01*
X1133038Y305924D01*
X1132873Y305669D01*
X1132621Y305500D01*
X1132115Y305290D01*
X1127971Y301146D01*
X1125728Y295731D01*
X1125728Y289871D01*
X1127971Y284456D01*
X1132115Y280312D01*
X1137530Y278069D01*
G37*
G36*
X976376Y243203D02*
X985266Y243203D01*
X985266Y244360D01*
X983797Y247908D01*
X981081Y250623D01*
X977534Y252093D01*
X976376Y252093D01*
X976376Y243203D01*
G37*
G36*
X965962Y243203D02*
X974852Y243203D01*
X974852Y252093D01*
X973694Y252093D01*
X970147Y250623D01*
X967431Y247908D01*
X965962Y244360D01*
X965962Y243203D01*
G37*
G36*
X1269196Y193040D02*
X1275884Y193040D01*
X1282344Y194771D01*
X1288136Y198115D01*
X1292865Y202844D01*
X1296209Y208636D01*
X1297940Y215096D01*
X1297940Y221784D01*
X1296209Y228244D01*
X1292865Y234036D01*
X1288136Y238765D01*
X1282344Y242109D01*
X1275884Y243840D01*
X1269196Y243840D01*
X1262736Y242109D01*
X1256944Y238765D01*
X1252215Y234036D01*
X1248871Y228244D01*
X1247140Y221784D01*
X1247140Y215096D01*
X1248871Y208636D01*
X1252215Y202844D01*
X1256944Y198115D01*
X1262736Y194771D01*
X1269196Y193040D01*
G37*
G36*
X965962Y223203D02*
X985266Y223203D01*
X985266Y224360D01*
X983797Y227908D01*
X981081Y230623D01*
X978393Y231737D01*
X978168Y231881D01*
X977991Y232127D01*
X977923Y232422D01*
X977976Y232721D01*
X978142Y232975D01*
X978393Y233145D01*
X981081Y234258D01*
X983797Y236973D01*
X985266Y240521D01*
X985266Y241679D01*
X965962Y241679D01*
X965962Y240521D01*
X967431Y236973D01*
X970147Y234258D01*
X972835Y233145D01*
X973060Y233000D01*
X973237Y232754D01*
X973305Y232459D01*
X973252Y232160D01*
X973086Y231906D01*
X972835Y231737D01*
X970147Y230623D01*
X967431Y227908D01*
X965962Y224360D01*
X965962Y223203D01*
G37*
G36*
X1120004Y187549D02*
X1125864Y187549D01*
X1131279Y189791D01*
X1135423Y193935D01*
X1137666Y199350D01*
X1137666Y205211D01*
X1135423Y210626D01*
X1134307Y211742D01*
X1134149Y211972D01*
X1134084Y212268D01*
X1134140Y212566D01*
X1134307Y212819D01*
X1135423Y213935D01*
X1137666Y219350D01*
X1137666Y225211D01*
X1135423Y230626D01*
X1131279Y234770D01*
X1125864Y237013D01*
X1120004Y237013D01*
X1114589Y234770D01*
X1110445Y230626D01*
X1108202Y225211D01*
X1108202Y219350D01*
X1110445Y213935D01*
X1111561Y212819D01*
X1111719Y212589D01*
X1111784Y212293D01*
X1111728Y211995D01*
X1111561Y211742D01*
X1110445Y210626D01*
X1108202Y205211D01*
X1108202Y199350D01*
X1110445Y193935D01*
X1114589Y189791D01*
X1120004Y187549D01*
G37*
G36*
X1314487Y160020D02*
X1327113Y160020D01*
X1336040Y168947D01*
X1336040Y181573D01*
X1327113Y190500D01*
X1314487Y190500D01*
X1305560Y181573D01*
X1305560Y168947D01*
X1314487Y160020D01*
G37*
G36*
X1392682Y167720D02*
X1393925Y167720D01*
X1397630Y169255D01*
X1400465Y172090D01*
X1402000Y175795D01*
X1402000Y177038D01*
X1392682Y177038D01*
X1392682Y167720D01*
G37*
G36*
X1131062Y153858D02*
X1139952Y153858D01*
X1139952Y162748D01*
X1138794Y162748D01*
X1135247Y161279D01*
X1132531Y158563D01*
X1131062Y155016D01*
X1131062Y153858D01*
G37*
G36*
X1141476Y153858D02*
X1150366Y153858D01*
X1150366Y155016D01*
X1148897Y158563D01*
X1146181Y161279D01*
X1142634Y162748D01*
X1141476Y162748D01*
X1141476Y153858D01*
G37*
G36*
X1392682Y153162D02*
X1402000Y153162D01*
X1402000Y154405D01*
X1400465Y158110D01*
X1397630Y160945D01*
X1393925Y162480D01*
X1392682Y162480D01*
X1392682Y153162D01*
G37*
G36*
X1002496Y109220D02*
X1009184Y109220D01*
X1015644Y110951D01*
X1021436Y114295D01*
X1026165Y119024D01*
X1029509Y124816D01*
X1031240Y131276D01*
X1031240Y137964D01*
X1029509Y144424D01*
X1026165Y150216D01*
X1021436Y154945D01*
X1015644Y158289D01*
X1009184Y160020D01*
X1002496Y160020D01*
X996036Y158289D01*
X990244Y154945D01*
X985515Y150216D01*
X982171Y144424D01*
X980440Y137964D01*
X980440Y131276D01*
X982171Y124816D01*
X985515Y119024D01*
X990244Y114295D01*
X996036Y110951D01*
X1002496Y109220D01*
G37*
G36*
X1131062Y133858D02*
X1150366Y133858D01*
X1150366Y135016D01*
X1148897Y138563D01*
X1146181Y141279D01*
X1143493Y142392D01*
X1143268Y142536D01*
X1143091Y142782D01*
X1143023Y143078D01*
X1143076Y143376D01*
X1143242Y143631D01*
X1143493Y143800D01*
X1146181Y144913D01*
X1148897Y147629D01*
X1150366Y151176D01*
X1150366Y152334D01*
X1131062Y152334D01*
X1131062Y151176D01*
X1132531Y147629D01*
X1135247Y144913D01*
X1137935Y143800D01*
X1138160Y143656D01*
X1138337Y143410D01*
X1138405Y143114D01*
X1138352Y142816D01*
X1138186Y142562D01*
X1137935Y142392D01*
X1135247Y141279D01*
X1132531Y138563D01*
X1131062Y135016D01*
X1131062Y133858D01*
G37*
G36*
X1392682Y142320D02*
X1393925Y142320D01*
X1397630Y143855D01*
X1400465Y146690D01*
X1402000Y150395D01*
X1402000Y151638D01*
X1392682Y151638D01*
X1392682Y142320D01*
G37*
G36*
X1285104Y96570D02*
X1290964Y96570D01*
X1296379Y98813D01*
X1300523Y102957D01*
X1302766Y108372D01*
X1302766Y114233D01*
X1300523Y119647D01*
X1299407Y120764D01*
X1299249Y120994D01*
X1299184Y121290D01*
X1299240Y121588D01*
X1299407Y121841D01*
X1300523Y122957D01*
X1302766Y128372D01*
X1302766Y134233D01*
X1300523Y139647D01*
X1296379Y143792D01*
X1290964Y146034D01*
X1285104Y146034D01*
X1279689Y143792D01*
X1275545Y139647D01*
X1273302Y134233D01*
X1273302Y128372D01*
X1275545Y122957D01*
X1276661Y121841D01*
X1276819Y121611D01*
X1276884Y121315D01*
X1276828Y121016D01*
X1276661Y120764D01*
X1275545Y119647D01*
X1273302Y114233D01*
X1273302Y108372D01*
X1275545Y102957D01*
X1279689Y98813D01*
X1285104Y96570D01*
G37*
G36*
X1137784Y98364D02*
X1143644Y98364D01*
X1149059Y100607D01*
X1153203Y104751D01*
X1155446Y110166D01*
X1155446Y116026D01*
X1153203Y121441D01*
X1149059Y125585D01*
X1148553Y125795D01*
X1148323Y125943D01*
X1148148Y126191D01*
X1148083Y126487D01*
X1148138Y126785D01*
X1148306Y127038D01*
X1148897Y127629D01*
X1150366Y131176D01*
X1150366Y132334D01*
X1131062Y132334D01*
X1131062Y131176D01*
X1132531Y127629D01*
X1133122Y127038D01*
X1133278Y126813D01*
X1133345Y126517D01*
X1133292Y126219D01*
X1133127Y125964D01*
X1132875Y125795D01*
X1132369Y125585D01*
X1128225Y121441D01*
X1125982Y116026D01*
X1125982Y110166D01*
X1128225Y104751D01*
X1132369Y100607D01*
X1137784Y98364D01*
G37*
%LPD*%
G36*
X421075Y43733D02*
X418598Y43230D01*
X417552Y43230D01*
X416314Y43352D01*
X410864Y44436D01*
X408575Y45385D01*
X403955Y48471D01*
X402203Y50223D01*
X399117Y54843D01*
X398168Y57132D01*
X397085Y62582D01*
X396962Y63820D01*
X396962Y126705D01*
X397371Y128946D01*
X398716Y131086D01*
X400789Y132532D01*
X403262Y133054D01*
X405743Y132571D01*
X406769Y132146D01*
X411619Y132146D01*
X416100Y134002D01*
X419530Y137432D01*
X421386Y141913D01*
X421386Y146763D01*
X419530Y151244D01*
X418774Y152000D01*
X417437Y153967D01*
X416914Y156440D01*
X417397Y158921D01*
X418846Y162418D01*
X418846Y163576D01*
X408432Y163576D01*
X408432Y165100D01*
X418846Y165100D01*
X418846Y166258D01*
X417377Y169805D01*
X417334Y169848D01*
X416017Y171768D01*
X415475Y174237D01*
X415938Y176721D01*
X417334Y178828D01*
X417377Y178871D01*
X418846Y182418D01*
X418846Y183576D01*
X408432Y183576D01*
X408432Y193990D01*
X407274Y193990D01*
X405743Y193356D01*
X403515Y192875D01*
X401023Y193299D01*
X398895Y194661D01*
X397465Y196746D01*
X396962Y199222D01*
X396962Y307553D01*
X397371Y309794D01*
X398716Y311934D01*
X400789Y313380D01*
X403262Y313902D01*
X405743Y313419D01*
X406769Y312994D01*
X411619Y312994D01*
X416100Y314850D01*
X419530Y318280D01*
X421386Y322761D01*
X421386Y327611D01*
X419530Y332092D01*
X418774Y332848D01*
X417437Y334815D01*
X416914Y337288D01*
X417397Y339769D01*
X418846Y343266D01*
X418846Y344424D01*
X408432Y344424D01*
X408432Y345948D01*
X418846Y345948D01*
X418846Y347106D01*
X417377Y350653D01*
X417334Y350696D01*
X416017Y352616D01*
X415475Y355085D01*
X415938Y357569D01*
X417334Y359676D01*
X417377Y359719D01*
X418846Y363266D01*
X418846Y364424D01*
X408432Y364424D01*
X408432Y374838D01*
X407274Y374838D01*
X405743Y374204D01*
X403515Y373723D01*
X401023Y374147D01*
X398895Y375509D01*
X397465Y377594D01*
X396962Y380070D01*
X396962Y489014D01*
X397371Y491256D01*
X398716Y493395D01*
X400789Y494841D01*
X403262Y495364D01*
X405743Y494880D01*
X407023Y494350D01*
X411873Y494350D01*
X416354Y496206D01*
X419784Y499636D01*
X421640Y504117D01*
X421640Y508967D01*
X419784Y513448D01*
X419028Y514204D01*
X417691Y516171D01*
X417168Y518644D01*
X417651Y521125D01*
X419100Y524622D01*
X419100Y525780D01*
X408686Y525780D01*
X408686Y527304D01*
X419100Y527304D01*
X419100Y528462D01*
X417631Y532009D01*
X417588Y532052D01*
X416271Y533972D01*
X415729Y536441D01*
X416192Y538925D01*
X417588Y541032D01*
X417631Y541075D01*
X419100Y544622D01*
X419100Y545780D01*
X408686Y545780D01*
X408686Y556194D01*
X407528Y556194D01*
X405743Y555454D01*
X403515Y554974D01*
X401023Y555398D01*
X398895Y556760D01*
X397465Y558844D01*
X396962Y561321D01*
X396962Y669608D01*
X397371Y671850D01*
X398716Y673989D01*
X400789Y675435D01*
X403262Y675958D01*
X405743Y675474D01*
X407023Y674944D01*
X411873Y674944D01*
X416354Y676800D01*
X419784Y680230D01*
X421640Y684711D01*
X421640Y689561D01*
X419784Y694042D01*
X419028Y694798D01*
X417691Y696765D01*
X417168Y699238D01*
X417651Y701719D01*
X419100Y705216D01*
X419100Y706374D01*
X408686Y706374D01*
X408686Y707898D01*
X419100Y707898D01*
X419100Y709056D01*
X417631Y712603D01*
X417588Y712646D01*
X416271Y714566D01*
X415729Y717035D01*
X416192Y719519D01*
X417588Y721626D01*
X417631Y721669D01*
X419100Y725216D01*
X419100Y726374D01*
X408686Y726374D01*
X408686Y736788D01*
X407528Y736788D01*
X405743Y736048D01*
X403515Y735568D01*
X401023Y735992D01*
X398895Y737354D01*
X397465Y739438D01*
X396962Y741915D01*
X396962Y851069D01*
X397371Y853311D01*
X398716Y855450D01*
X400789Y856896D01*
X403262Y857419D01*
X405742Y856936D01*
X407277Y856300D01*
X412127Y856300D01*
X416608Y858156D01*
X420038Y861586D01*
X421894Y866067D01*
X421894Y870917D01*
X420038Y875398D01*
X419282Y876154D01*
X417945Y878121D01*
X417422Y880594D01*
X417905Y883075D01*
X419354Y886572D01*
X419354Y887730D01*
X408940Y887730D01*
X408940Y889254D01*
X419354Y889254D01*
X419354Y890412D01*
X417885Y893959D01*
X417842Y894002D01*
X416525Y895922D01*
X415983Y898391D01*
X416446Y900875D01*
X417842Y902982D01*
X417885Y903025D01*
X419354Y906572D01*
X419354Y907730D01*
X408940Y907730D01*
X408940Y909254D01*
X419354Y909254D01*
X419354Y910412D01*
X418597Y912240D01*
X418117Y914468D01*
X418540Y916959D01*
X419902Y919088D01*
X421987Y920517D01*
X424463Y921020D01*
X867683Y921020D01*
X868922Y920898D01*
X875862Y919518D01*
X878151Y918569D01*
X884034Y914639D01*
X885786Y912887D01*
X889717Y907003D01*
X890665Y904714D01*
X892045Y897775D01*
X892167Y896536D01*
X892167Y122330D01*
X891741Y120041D01*
X890379Y117912D01*
X888294Y116483D01*
X885817Y115980D01*
X877062Y115980D01*
X877062Y104678D01*
X875538Y104678D01*
X875538Y115980D01*
X866243Y115980D01*
X865018Y115726D01*
X862534Y116190D01*
X862418Y116266D01*
X859191Y117603D01*
X857374Y117942D01*
X855245Y119304D01*
X853816Y121388D01*
X853313Y123865D01*
X853313Y137050D01*
X853740Y139339D01*
X855102Y141468D01*
X857186Y142897D01*
X859663Y143400D01*
X864138Y143400D01*
X864138Y166480D01*
X856395Y166480D01*
X855471Y166097D01*
X853142Y165615D01*
X850657Y166078D01*
X848550Y167474D01*
X847778Y168247D01*
X845910Y169020D01*
X827890Y169020D01*
X826022Y168247D01*
X824958Y167182D01*
X823038Y165866D01*
X820569Y165323D01*
X818085Y165787D01*
X815978Y167182D01*
X815521Y167640D01*
X805000Y167640D01*
X797560Y160201D01*
X797560Y149680D01*
X805733Y141506D01*
X807090Y139493D01*
X807593Y137016D01*
X807593Y135942D01*
X809615Y131060D01*
X809970Y130551D01*
X810552Y128091D01*
X810128Y125600D01*
X808766Y123471D01*
X806682Y122042D01*
X804205Y121539D01*
X780034Y121539D01*
X780034Y84074D01*
X740260Y84074D01*
X740146Y83431D01*
X738818Y81281D01*
X736757Y79819D01*
X734288Y79276D01*
X731804Y79740D01*
X729697Y81135D01*
X728520Y82312D01*
X724039Y84168D01*
X719189Y84168D01*
X714708Y82312D01*
X711278Y78882D01*
X709422Y74401D01*
X709422Y69551D01*
X711553Y64406D01*
X712036Y62027D01*
X711553Y59546D01*
X709422Y54401D01*
X709422Y49580D01*
X708995Y47291D01*
X707633Y45162D01*
X705549Y43733D01*
X703072Y43230D01*
X592836Y43230D01*
X590547Y43657D01*
X588418Y45019D01*
X586989Y47104D01*
X586486Y49580D01*
X586486Y54561D01*
X584630Y59042D01*
X583874Y59798D01*
X582537Y61765D01*
X582014Y64238D01*
X582497Y66719D01*
X583946Y70216D01*
X583946Y71374D01*
X564642Y71374D01*
X564642Y70216D01*
X566091Y66719D01*
X566573Y64390D01*
X566110Y61905D01*
X564714Y59798D01*
X563958Y59042D01*
X562102Y54561D01*
X562102Y49580D01*
X561675Y47291D01*
X560313Y45162D01*
X558229Y43733D01*
X555752Y43230D01*
X460242Y43230D01*
X458047Y43622D01*
X455897Y44949D01*
X454435Y47011D01*
X453893Y49479D01*
X454356Y51964D01*
X455752Y54071D01*
X459745Y58064D01*
X463089Y63856D01*
X464820Y70316D01*
X464820Y77004D01*
X463089Y83464D01*
X459745Y89256D01*
X455016Y93985D01*
X449224Y97329D01*
X442764Y99060D01*
X436076Y99060D01*
X429616Y97329D01*
X423824Y93985D01*
X419095Y89256D01*
X415751Y83464D01*
X414020Y77004D01*
X414020Y70316D01*
X415751Y63856D01*
X419095Y58064D01*
X423088Y54071D01*
X424363Y52242D01*
X424945Y49783D01*
X424521Y47291D01*
X423159Y45162D01*
X421075Y43733D01*
G37*
%LPC*%
G36*
X850096Y855980D02*
X856784Y855980D01*
X863244Y857711D01*
X869036Y861055D01*
X873765Y865784D01*
X877109Y871576D01*
X878840Y878036D01*
X878840Y884724D01*
X877109Y891184D01*
X873765Y896976D01*
X869036Y901705D01*
X863244Y905049D01*
X856784Y906780D01*
X850096Y906780D01*
X843636Y905049D01*
X837844Y901705D01*
X833115Y896976D01*
X829771Y891184D01*
X828040Y884724D01*
X828040Y878036D01*
X829771Y871576D01*
X833115Y865784D01*
X837844Y861055D01*
X843636Y857711D01*
X850096Y855980D01*
G37*
G36*
X554597Y856140D02*
X559447Y856140D01*
X563928Y857996D01*
X567358Y861426D01*
X569214Y865907D01*
X569214Y870757D01*
X567083Y875902D01*
X566600Y878281D01*
X567083Y880762D01*
X569214Y885907D01*
X569214Y890757D01*
X567358Y895238D01*
X563928Y898668D01*
X559447Y900524D01*
X554597Y900524D01*
X550116Y898668D01*
X546686Y895238D01*
X544830Y890757D01*
X544830Y885907D01*
X546961Y880762D01*
X547444Y878383D01*
X546961Y875902D01*
X544830Y870757D01*
X544830Y865907D01*
X546686Y861426D01*
X550116Y857996D01*
X554597Y856140D01*
G37*
G36*
X564388Y819592D02*
X573278Y819592D01*
X573278Y828482D01*
X572120Y828482D01*
X568573Y827013D01*
X565857Y824297D01*
X564388Y820750D01*
X564388Y819592D01*
G37*
G36*
X574802Y819592D02*
X583692Y819592D01*
X583692Y820750D01*
X582223Y824297D01*
X579507Y827013D01*
X575960Y828482D01*
X574802Y828482D01*
X574802Y819592D01*
G37*
G36*
X436076Y774700D02*
X442764Y774700D01*
X449224Y776431D01*
X455016Y779775D01*
X459745Y784504D01*
X463089Y790296D01*
X464820Y796756D01*
X464820Y803444D01*
X463089Y809904D01*
X459745Y815696D01*
X455016Y820425D01*
X449224Y823769D01*
X442764Y825500D01*
X436076Y825500D01*
X429616Y823769D01*
X423824Y820425D01*
X419095Y815696D01*
X415751Y809904D01*
X414020Y803444D01*
X414020Y796756D01*
X415751Y790296D01*
X419095Y784504D01*
X423824Y779775D01*
X429616Y776431D01*
X436076Y774700D01*
G37*
G36*
X564388Y799592D02*
X583692Y799592D01*
X583692Y800750D01*
X582223Y804297D01*
X582180Y804340D01*
X580863Y806260D01*
X580321Y808729D01*
X580784Y811213D01*
X582180Y813320D01*
X582223Y813363D01*
X583692Y816910D01*
X583692Y818068D01*
X564388Y818068D01*
X564388Y816910D01*
X565857Y813363D01*
X565900Y813320D01*
X567217Y811400D01*
X567759Y808931D01*
X567296Y806447D01*
X565900Y804340D01*
X565857Y804297D01*
X564388Y800750D01*
X564388Y799592D01*
G37*
G36*
X718935Y766478D02*
X723785Y766478D01*
X728266Y768334D01*
X731696Y771764D01*
X733552Y776245D01*
X733552Y781095D01*
X731421Y786240D01*
X730938Y788619D01*
X731421Y791100D01*
X733552Y796245D01*
X733552Y801095D01*
X731696Y805576D01*
X728266Y809006D01*
X723785Y810862D01*
X718935Y810862D01*
X714454Y809006D01*
X711024Y805576D01*
X709168Y801095D01*
X709168Y796245D01*
X711299Y791100D01*
X711782Y788721D01*
X711299Y786240D01*
X709168Y781095D01*
X709168Y776245D01*
X711024Y771764D01*
X714454Y768334D01*
X718935Y766478D01*
G37*
G36*
X571615Y766638D02*
X576465Y766638D01*
X580946Y768494D01*
X584376Y771924D01*
X586232Y776405D01*
X586232Y781255D01*
X584376Y785736D01*
X583620Y786492D01*
X582283Y788459D01*
X581760Y790932D01*
X582243Y793413D01*
X583692Y796910D01*
X583692Y798068D01*
X564388Y798068D01*
X564388Y796910D01*
X565837Y793413D01*
X566319Y791084D01*
X565856Y788599D01*
X564460Y786492D01*
X563704Y785736D01*
X561848Y781255D01*
X561848Y776405D01*
X563704Y771924D01*
X567134Y768494D01*
X571615Y766638D01*
G37*
G36*
X410210Y727898D02*
X419100Y727898D01*
X419100Y729056D01*
X417631Y732603D01*
X414915Y735319D01*
X411368Y736788D01*
X410210Y736788D01*
X410210Y727898D01*
G37*
G36*
X554343Y674784D02*
X559193Y674784D01*
X563674Y676640D01*
X567104Y680070D01*
X568960Y684551D01*
X568960Y689401D01*
X566829Y694546D01*
X566346Y696925D01*
X566829Y699406D01*
X568960Y704551D01*
X568960Y709401D01*
X567104Y713882D01*
X563674Y717312D01*
X559193Y719168D01*
X554343Y719168D01*
X549862Y717312D01*
X546432Y713882D01*
X544576Y709401D01*
X544576Y704551D01*
X546707Y699406D01*
X547190Y697027D01*
X546707Y694546D01*
X544576Y689401D01*
X544576Y684551D01*
X546432Y680070D01*
X549862Y676640D01*
X554343Y674784D01*
G37*
G36*
X575056Y639252D02*
X583946Y639252D01*
X583946Y640410D01*
X582477Y643957D01*
X579761Y646673D01*
X576214Y648142D01*
X575056Y648142D01*
X575056Y639252D01*
G37*
G36*
X564642Y639252D02*
X573532Y639252D01*
X573532Y648142D01*
X572374Y648142D01*
X568827Y646673D01*
X566111Y643957D01*
X564642Y640410D01*
X564642Y639252D01*
G37*
G36*
X564642Y619252D02*
X583946Y619252D01*
X583946Y620410D01*
X582477Y623957D01*
X582434Y624000D01*
X581117Y625920D01*
X580575Y628389D01*
X581038Y630873D01*
X582434Y632980D01*
X582477Y633023D01*
X583946Y636570D01*
X583946Y637728D01*
X564642Y637728D01*
X564642Y636570D01*
X566111Y633023D01*
X566154Y632980D01*
X567471Y631060D01*
X568013Y628591D01*
X567550Y626107D01*
X566154Y624000D01*
X566111Y623957D01*
X564642Y620410D01*
X564642Y619252D01*
G37*
G36*
X719189Y586138D02*
X724039Y586138D01*
X728520Y587994D01*
X731950Y591424D01*
X733806Y595905D01*
X733806Y600755D01*
X731675Y605900D01*
X731192Y608279D01*
X731675Y610760D01*
X733806Y615905D01*
X733806Y620755D01*
X731950Y625236D01*
X728520Y628666D01*
X724039Y630522D01*
X719189Y630522D01*
X714708Y628666D01*
X711278Y625236D01*
X709422Y620755D01*
X709422Y615905D01*
X711553Y610760D01*
X712036Y608381D01*
X711553Y605900D01*
X709422Y600755D01*
X709422Y595905D01*
X711278Y591424D01*
X714708Y587994D01*
X719189Y586138D01*
G37*
G36*
X571869Y586298D02*
X576719Y586298D01*
X581200Y588154D01*
X584630Y591584D01*
X586486Y596065D01*
X586486Y600915D01*
X584630Y605396D01*
X583874Y606152D01*
X582537Y608119D01*
X582014Y610592D01*
X582497Y613073D01*
X583946Y616570D01*
X583946Y617728D01*
X564642Y617728D01*
X564642Y616570D01*
X566091Y613073D01*
X566573Y610744D01*
X566110Y608259D01*
X564714Y606152D01*
X563958Y605396D01*
X562102Y600915D01*
X562102Y596065D01*
X563958Y591584D01*
X567388Y588154D01*
X571869Y586298D01*
G37*
G36*
X410210Y547304D02*
X419100Y547304D01*
X419100Y548462D01*
X417631Y552009D01*
X414915Y554725D01*
X411368Y556194D01*
X410210Y556194D01*
X410210Y547304D01*
G37*
G36*
X644356Y502920D02*
X651044Y502920D01*
X657504Y504651D01*
X663296Y507995D01*
X668025Y512724D01*
X671369Y518516D01*
X673100Y524976D01*
X673100Y531664D01*
X671369Y538124D01*
X668025Y543916D01*
X663296Y548645D01*
X657504Y551989D01*
X651044Y553720D01*
X644356Y553720D01*
X637896Y551989D01*
X632104Y548645D01*
X627375Y543916D01*
X624031Y538124D01*
X622300Y531664D01*
X622300Y524976D01*
X624031Y518516D01*
X627375Y512724D01*
X632104Y507995D01*
X637896Y504651D01*
X644356Y502920D01*
G37*
G36*
X554343Y494190D02*
X559193Y494190D01*
X563674Y496046D01*
X567104Y499476D01*
X568960Y503957D01*
X568960Y508807D01*
X566829Y513952D01*
X566346Y516331D01*
X566829Y518812D01*
X568960Y523957D01*
X568960Y528807D01*
X567104Y533288D01*
X563674Y536718D01*
X559193Y538574D01*
X554343Y538574D01*
X549862Y536718D01*
X546432Y533288D01*
X544576Y528807D01*
X544576Y523957D01*
X546707Y518812D01*
X547190Y516433D01*
X546707Y513952D01*
X544576Y508807D01*
X544576Y503957D01*
X546432Y499476D01*
X549862Y496046D01*
X554343Y494190D01*
G37*
G36*
X564642Y456372D02*
X573532Y456372D01*
X573532Y465262D01*
X572374Y465262D01*
X568827Y463793D01*
X566111Y461077D01*
X564642Y457530D01*
X564642Y456372D01*
G37*
G36*
X575056Y456372D02*
X583946Y456372D01*
X583946Y457530D01*
X582477Y461077D01*
X579761Y463793D01*
X576214Y465262D01*
X575056Y465262D01*
X575056Y456372D01*
G37*
G36*
X564642Y436372D02*
X583946Y436372D01*
X583946Y437530D01*
X582477Y441077D01*
X582434Y441120D01*
X581117Y443040D01*
X580575Y445509D01*
X581038Y447993D01*
X582434Y450100D01*
X582477Y450143D01*
X583946Y453690D01*
X583946Y454848D01*
X564642Y454848D01*
X564642Y453690D01*
X566111Y450143D01*
X566154Y450100D01*
X567471Y448180D01*
X568013Y445711D01*
X567550Y443227D01*
X566154Y441120D01*
X566111Y441077D01*
X564642Y437530D01*
X564642Y436372D01*
G37*
G36*
X719189Y403258D02*
X724039Y403258D01*
X728520Y405114D01*
X731950Y408544D01*
X733806Y413025D01*
X733806Y417875D01*
X731675Y423020D01*
X731192Y425399D01*
X731675Y427880D01*
X733806Y433025D01*
X733806Y437875D01*
X731950Y442356D01*
X728520Y445786D01*
X724039Y447642D01*
X719189Y447642D01*
X714708Y445786D01*
X711278Y442356D01*
X709422Y437875D01*
X709422Y433025D01*
X711553Y427880D01*
X712036Y425501D01*
X711553Y423020D01*
X709422Y417875D01*
X709422Y413025D01*
X711278Y408544D01*
X714708Y405114D01*
X719189Y403258D01*
G37*
G36*
X571869Y403418D02*
X576719Y403418D01*
X581200Y405274D01*
X584630Y408704D01*
X586486Y413185D01*
X586486Y418035D01*
X584630Y422516D01*
X583874Y423272D01*
X582537Y425239D01*
X582014Y427712D01*
X582497Y430193D01*
X583946Y433690D01*
X583946Y434848D01*
X564642Y434848D01*
X564642Y433690D01*
X566091Y430193D01*
X566573Y427864D01*
X566110Y425379D01*
X564714Y423272D01*
X563958Y422516D01*
X562102Y418035D01*
X562102Y413185D01*
X563958Y408704D01*
X567388Y405274D01*
X571869Y403418D01*
G37*
G36*
X797590Y205820D02*
X802610Y205820D01*
X807249Y207741D01*
X810106Y210599D01*
X812026Y211915D01*
X814495Y212458D01*
X816979Y211994D01*
X819086Y210599D01*
X819790Y209895D01*
X823495Y208360D01*
X824738Y208360D01*
X824738Y219202D01*
X835580Y219202D01*
X835580Y220445D01*
X834045Y224150D01*
X831545Y226650D01*
X830229Y228570D01*
X829686Y231039D01*
X830150Y233523D01*
X831545Y235630D01*
X834045Y238130D01*
X835580Y241835D01*
X835580Y243078D01*
X824738Y243078D01*
X824738Y244602D01*
X835580Y244602D01*
X835580Y245845D01*
X834045Y249550D01*
X833341Y250254D01*
X832025Y252174D01*
X831482Y254643D01*
X831946Y257127D01*
X833341Y259234D01*
X836199Y262091D01*
X838120Y266730D01*
X838120Y271750D01*
X836199Y276389D01*
X835138Y277450D01*
X833821Y279370D01*
X833278Y281839D01*
X833742Y284323D01*
X835138Y286430D01*
X836199Y287491D01*
X838120Y292130D01*
X838120Y297150D01*
X836199Y301789D01*
X835138Y302850D01*
X833821Y304770D01*
X833278Y307239D01*
X833742Y309723D01*
X835138Y311830D01*
X836199Y312891D01*
X838120Y317530D01*
X838120Y322550D01*
X836199Y327189D01*
X835138Y328250D01*
X833821Y330170D01*
X833278Y332639D01*
X833742Y335123D01*
X835138Y337230D01*
X836199Y338291D01*
X838120Y342930D01*
X838120Y347950D01*
X836199Y352589D01*
X835138Y353650D01*
X833821Y355570D01*
X833278Y358039D01*
X833742Y360523D01*
X835138Y362630D01*
X836199Y363691D01*
X838120Y368330D01*
X838120Y373350D01*
X836199Y377989D01*
X835138Y379050D01*
X833821Y380970D01*
X833278Y383439D01*
X833742Y385923D01*
X835138Y388030D01*
X836199Y389091D01*
X838120Y393730D01*
X838120Y398750D01*
X836199Y403389D01*
X832649Y406939D01*
X828010Y408860D01*
X822990Y408860D01*
X818351Y406939D01*
X817290Y405878D01*
X815370Y404561D01*
X812901Y404018D01*
X810417Y404482D01*
X808310Y405878D01*
X807249Y406939D01*
X802610Y408860D01*
X797590Y408860D01*
X792951Y406939D01*
X789401Y403389D01*
X787480Y398750D01*
X787480Y393730D01*
X789401Y389091D01*
X790462Y388030D01*
X791779Y386110D01*
X792322Y383641D01*
X791858Y381157D01*
X790462Y379050D01*
X789401Y377989D01*
X787480Y373350D01*
X787480Y368330D01*
X789401Y363691D01*
X790462Y362630D01*
X791779Y360710D01*
X792322Y358241D01*
X791858Y355757D01*
X790462Y353650D01*
X789401Y352589D01*
X787480Y347950D01*
X787480Y342930D01*
X789401Y338291D01*
X790462Y337230D01*
X791779Y335310D01*
X792322Y332841D01*
X791858Y330357D01*
X790462Y328250D01*
X789401Y327189D01*
X787480Y322550D01*
X787480Y317530D01*
X789401Y312891D01*
X790462Y311830D01*
X791779Y309910D01*
X792322Y307441D01*
X791858Y304957D01*
X790462Y302850D01*
X789401Y301789D01*
X787480Y297150D01*
X787480Y292130D01*
X789401Y287491D01*
X790462Y286430D01*
X791779Y284510D01*
X792322Y282041D01*
X791858Y279557D01*
X790462Y277450D01*
X789401Y276389D01*
X787480Y271750D01*
X787480Y266730D01*
X789401Y262091D01*
X790462Y261030D01*
X791779Y259110D01*
X792322Y256641D01*
X791858Y254157D01*
X790462Y252050D01*
X789401Y250989D01*
X787480Y246350D01*
X787480Y241330D01*
X789401Y236691D01*
X790462Y235630D01*
X791779Y233710D01*
X792322Y231241D01*
X791858Y228757D01*
X790462Y226650D01*
X789401Y225589D01*
X787480Y220950D01*
X787480Y215930D01*
X789401Y211291D01*
X792951Y207741D01*
X797590Y205820D01*
G37*
G36*
X409956Y365948D02*
X418846Y365948D01*
X418846Y367106D01*
X417377Y370653D01*
X414661Y373369D01*
X411114Y374838D01*
X409956Y374838D01*
X409956Y365948D01*
G37*
G36*
X554089Y312834D02*
X558939Y312834D01*
X563420Y314690D01*
X566850Y318120D01*
X568706Y322601D01*
X568706Y327451D01*
X566575Y332596D01*
X566092Y334975D01*
X566575Y337456D01*
X568706Y342601D01*
X568706Y347451D01*
X566850Y351932D01*
X563420Y355362D01*
X558939Y357218D01*
X554089Y357218D01*
X549608Y355362D01*
X546178Y351932D01*
X544322Y347451D01*
X544322Y342601D01*
X546453Y337456D01*
X546936Y335077D01*
X546453Y332596D01*
X544322Y327451D01*
X544322Y322601D01*
X546178Y318120D01*
X549608Y314690D01*
X554089Y312834D01*
G37*
G36*
X744220Y330962D02*
X753618Y330962D01*
X753618Y340360D01*
X750172Y340360D01*
X744220Y334408D01*
X744220Y330962D01*
G37*
G36*
X755142Y330962D02*
X764540Y330962D01*
X764540Y334408D01*
X758588Y340360D01*
X755142Y340360D01*
X755142Y330962D01*
G37*
G36*
X750172Y320040D02*
X753618Y320040D01*
X753618Y329438D01*
X744220Y329438D01*
X744220Y325992D01*
X750172Y320040D01*
G37*
G36*
X755142Y320040D02*
X758588Y320040D01*
X764540Y325992D01*
X764540Y329438D01*
X755142Y329438D01*
X755142Y320040D01*
G37*
G36*
X574802Y274508D02*
X583692Y274508D01*
X583692Y275666D01*
X582223Y279213D01*
X579507Y281929D01*
X575960Y283398D01*
X574802Y283398D01*
X574802Y274508D01*
G37*
G36*
X564388Y274508D02*
X573278Y274508D01*
X573278Y283398D01*
X572120Y283398D01*
X568573Y281929D01*
X565857Y279213D01*
X564388Y275666D01*
X564388Y274508D01*
G37*
G36*
X564388Y254508D02*
X583692Y254508D01*
X583692Y255666D01*
X582223Y259213D01*
X582180Y259256D01*
X580863Y261176D01*
X580321Y263645D01*
X580784Y266129D01*
X582180Y268236D01*
X582223Y268279D01*
X583692Y271826D01*
X583692Y272984D01*
X564388Y272984D01*
X564388Y271826D01*
X565857Y268279D01*
X565900Y268236D01*
X567217Y266316D01*
X567759Y263847D01*
X567296Y261363D01*
X565900Y259256D01*
X565857Y259213D01*
X564388Y255666D01*
X564388Y254508D01*
G37*
G36*
X718935Y221394D02*
X723785Y221394D01*
X728266Y223250D01*
X730840Y225824D01*
X732516Y226993D01*
X732467Y227227D01*
X732950Y229707D01*
X733552Y231161D01*
X733552Y236011D01*
X731421Y241156D01*
X730938Y243535D01*
X731421Y246016D01*
X733552Y251161D01*
X733552Y256011D01*
X731696Y260492D01*
X728266Y263922D01*
X723785Y265778D01*
X718935Y265778D01*
X714454Y263922D01*
X711024Y260492D01*
X709168Y256011D01*
X709168Y251161D01*
X711299Y246016D01*
X711782Y243637D01*
X711299Y241156D01*
X709168Y236011D01*
X709168Y231161D01*
X711024Y226680D01*
X714454Y223250D01*
X718935Y221394D01*
G37*
G36*
X571615Y221554D02*
X576465Y221554D01*
X580946Y223410D01*
X584376Y226840D01*
X586232Y231321D01*
X586232Y236171D01*
X584376Y240652D01*
X583620Y241408D01*
X582283Y243375D01*
X581760Y245848D01*
X582243Y248329D01*
X583692Y251826D01*
X583692Y252984D01*
X564388Y252984D01*
X564388Y251826D01*
X565837Y248329D01*
X566319Y246000D01*
X565856Y243515D01*
X564460Y241408D01*
X563704Y240652D01*
X561848Y236171D01*
X561848Y231321D01*
X563704Y226840D01*
X567134Y223410D01*
X571615Y221554D01*
G37*
G36*
X749120Y203200D02*
X759641Y203200D01*
X767080Y210640D01*
X767080Y221161D01*
X759641Y228600D01*
X749120Y228600D01*
X743307Y222787D01*
X741625Y221604D01*
X741680Y221334D01*
X741680Y210640D01*
X749120Y203200D01*
G37*
G36*
X826262Y208360D02*
X827505Y208360D01*
X831210Y209895D01*
X834045Y212730D01*
X835580Y216435D01*
X835580Y217678D01*
X826262Y217678D01*
X826262Y208360D01*
G37*
G36*
X409956Y185100D02*
X418846Y185100D01*
X418846Y186258D01*
X417377Y189805D01*
X414661Y192521D01*
X411114Y193990D01*
X409956Y193990D01*
X409956Y185100D01*
G37*
G36*
X702776Y132080D02*
X709464Y132080D01*
X715924Y133811D01*
X721716Y137155D01*
X726445Y141884D01*
X729789Y147676D01*
X731520Y154136D01*
X731520Y160824D01*
X729789Y167284D01*
X726445Y173076D01*
X721716Y177805D01*
X715924Y181149D01*
X709464Y182880D01*
X702776Y182880D01*
X696316Y181149D01*
X690524Y177805D01*
X685795Y173076D01*
X682451Y167284D01*
X680720Y160824D01*
X680720Y154136D01*
X682451Y147676D01*
X685795Y141884D01*
X690524Y137155D01*
X696316Y133811D01*
X702776Y132080D01*
G37*
G36*
X554089Y131986D02*
X558939Y131986D01*
X563420Y133842D01*
X566850Y137272D01*
X568706Y141753D01*
X568706Y146603D01*
X566575Y151748D01*
X566092Y154127D01*
X566575Y156608D01*
X568706Y161753D01*
X568706Y166603D01*
X566850Y171084D01*
X563420Y174514D01*
X558939Y176370D01*
X554089Y176370D01*
X549608Y174514D01*
X546178Y171084D01*
X544322Y166603D01*
X544322Y161753D01*
X546453Y156608D01*
X546936Y154229D01*
X546453Y151748D01*
X544322Y146603D01*
X544322Y141753D01*
X546178Y137272D01*
X549608Y133842D01*
X554089Y131986D01*
G37*
G36*
X865662Y155702D02*
X875440Y155702D01*
X875440Y164445D01*
X875053Y165379D01*
X874339Y166093D01*
X873405Y166480D01*
X865662Y166480D01*
X865662Y155702D01*
G37*
G36*
X865662Y143400D02*
X873405Y143400D01*
X874339Y143787D01*
X875053Y144501D01*
X875440Y145435D01*
X875440Y154178D01*
X865662Y154178D01*
X865662Y143400D01*
G37*
G36*
X740532Y85598D02*
X778510Y85598D01*
X778510Y121539D01*
X742572Y121539D01*
X741638Y121152D01*
X740924Y120438D01*
X740537Y119504D01*
X740537Y85625D01*
X740532Y85598D01*
G37*
G36*
X575056Y92898D02*
X583946Y92898D01*
X583946Y94056D01*
X582477Y97603D01*
X579761Y100319D01*
X576214Y101788D01*
X575056Y101788D01*
X575056Y92898D01*
G37*
G36*
X564642Y92898D02*
X573532Y92898D01*
X573532Y101788D01*
X572374Y101788D01*
X568827Y100319D01*
X566111Y97603D01*
X564642Y94056D01*
X564642Y92898D01*
G37*
G36*
X564642Y72898D02*
X583946Y72898D01*
X583946Y74056D01*
X582477Y77603D01*
X582434Y77646D01*
X581117Y79566D01*
X580575Y82035D01*
X581038Y84519D01*
X582434Y86626D01*
X582477Y86669D01*
X583946Y90216D01*
X583946Y91374D01*
X564642Y91374D01*
X564642Y90216D01*
X566111Y86669D01*
X566154Y86626D01*
X567471Y84706D01*
X568013Y82237D01*
X567550Y79753D01*
X566154Y77646D01*
X566111Y77603D01*
X564642Y74056D01*
X564642Y72898D01*
G37*
%LPD*%
D10*
X27940Y934720D03*
X53340Y934720D03*
X27940Y909320D03*
X53340Y909320D03*
X27940Y883920D03*
X53340Y883920D03*
X27940Y858520D03*
X53340Y858520D03*
X27940Y833120D03*
X53340Y833120D03*
X27940Y807720D03*
X53340Y807720D03*
X27940Y782320D03*
X53340Y782320D03*
X27940Y756920D03*
X53340Y756920D03*
X27940Y731520D03*
X53340Y731520D03*
X27940Y706120D03*
X53340Y706120D03*
D11*
X266700Y172720D03*
X269240Y594360D03*
X53340Y670560D03*
D10*
X825500Y396240D03*
X800100Y396240D03*
X825500Y370840D03*
X800100Y370840D03*
X825500Y345440D03*
X800100Y345440D03*
X825500Y320040D03*
X800100Y320040D03*
X825500Y294640D03*
X800100Y294640D03*
X825500Y269240D03*
X800100Y269240D03*
X825500Y243840D03*
X800100Y243840D03*
X825500Y218440D03*
X800100Y218440D03*
D12*
X721614Y51976D03*
X721614Y71976D03*
X556514Y144178D03*
X556514Y164178D03*
X721360Y233586D03*
X721360Y253586D03*
X556514Y325026D03*
X556514Y345026D03*
X721614Y415450D03*
X721614Y435450D03*
X556768Y506382D03*
X556768Y526382D03*
X721614Y598330D03*
X721614Y618330D03*
X556768Y686976D03*
X556768Y706976D03*
X721360Y778670D03*
X721360Y798670D03*
X557022Y868332D03*
X557022Y888332D03*
X409702Y868492D03*
X409702Y888492D03*
X409702Y908492D03*
X574040Y778830D03*
X574040Y798830D03*
X574040Y818830D03*
X409448Y687136D03*
X409448Y707136D03*
X409448Y727136D03*
X574294Y598490D03*
X574294Y618490D03*
X574294Y638490D03*
X409448Y506542D03*
X409448Y526542D03*
X409448Y546542D03*
X574294Y415610D03*
X574294Y435610D03*
X574294Y455610D03*
X409194Y325186D03*
X409194Y345186D03*
X409194Y365186D03*
X574040Y233746D03*
X574040Y253746D03*
X574040Y273746D03*
X409194Y144338D03*
X409194Y164338D03*
X409194Y184338D03*
X574294Y52136D03*
X574294Y72136D03*
X574294Y92136D03*
D11*
X810260Y154940D03*
D13*
X844423Y107736D03*
D14*
X779272Y84836D03*
D13*
X844423Y61936D03*
D15*
X836900Y154940D03*
X864900Y154940D03*
D16*
X876300Y77440D03*
X876300Y105440D03*
D11*
X754380Y330200D03*
X876300Y53340D03*
X754380Y215900D03*
D10*
X1391920Y330200D03*
X1366520Y330200D03*
X1391920Y304800D03*
X1366520Y304800D03*
X1391920Y279400D03*
X1366520Y279400D03*
X1391920Y254000D03*
X1366520Y254000D03*
X1391920Y228600D03*
X1366520Y228600D03*
X1391920Y203200D03*
X1366520Y203200D03*
X1391920Y177800D03*
X1366520Y177800D03*
X1391920Y152400D03*
X1366520Y152400D03*
D12*
X1288034Y111302D03*
X1288034Y131302D03*
X1122934Y202281D03*
X1122934Y222281D03*
X1287780Y292641D03*
X1287780Y312641D03*
X1122934Y385034D03*
X1122934Y405034D03*
X1288034Y476410D03*
X1288034Y496410D03*
X1123188Y567342D03*
X1123188Y587342D03*
X1288034Y660243D03*
X1288034Y680243D03*
X1123188Y749841D03*
X1123188Y769841D03*
X1287780Y842488D03*
X1287780Y862488D03*
X1123442Y933102D03*
X1123442Y953102D03*
X976122Y933262D03*
X976122Y953262D03*
X976122Y973262D03*
X1140460Y842648D03*
X1140460Y862648D03*
X1140460Y882648D03*
X975868Y750001D03*
X975868Y770001D03*
X975868Y790001D03*
X1140714Y660403D03*
X1140714Y680403D03*
X1140714Y700403D03*
X975868Y567502D03*
X975868Y587502D03*
X975868Y607502D03*
X1140714Y476570D03*
X1140714Y496570D03*
X1140714Y516570D03*
X975614Y385194D03*
X975614Y405194D03*
X975614Y425194D03*
X1140460Y292801D03*
X1140460Y312801D03*
X1140460Y332801D03*
X975614Y202441D03*
X975614Y222441D03*
X975614Y242441D03*
X1140714Y113096D03*
X1140714Y133096D03*
X1140714Y153096D03*
D11*
X1376680Y88900D03*
D17*
X1365464Y547243D03*
D18*
X1388364Y482092D03*
D17*
X1411264Y547243D03*
D15*
X1342420Y586740D03*
X1314420Y586740D03*
X1416020Y589280D03*
X1444020Y589280D03*
D11*
X1445260Y556260D03*
X1417320Y746760D03*
X1320800Y175260D03*
X1308100Y556260D03*
D19*
X178054Y828040D03*
X178054Y742128D03*
X178054Y656337D03*
X178054Y571342D03*
X178054Y484756D03*
X178054Y398966D03*
X178054Y313175D03*
X178054Y227386D03*
X178054Y141596D03*
X178054Y55806D03*
D20*
X27940Y660400D02*
X27940Y706120D01*
X27940Y660400D02*
X99060Y589280D01*
X99060Y137160D01*
X137160Y99060D01*
X208280Y99060D01*
X266700Y157480D01*
X266700Y172720D01*
X73660Y731520D02*
X53340Y731520D01*
X73660Y731520D02*
X127000Y678180D01*
X127000Y561340D01*
X160020Y528320D01*
X208280Y528320D01*
X269240Y589280D01*
X269240Y594360D01*
D19*
X264668Y660830D03*
X264668Y224998D03*
D21*
X53340Y670560D02*
X53340Y706120D01*
X876300Y77440D02*
X876300Y53340D01*
X868092Y53340D01*
X862036Y59396D01*
X846963Y59396D01*
X844423Y61936D01*
X841883Y149960D02*
X836900Y154940D01*
X841883Y149960D02*
X841883Y106680D01*
X819023Y146177D02*
X810260Y154940D01*
X819023Y146177D02*
X819023Y138216D01*
X844423Y109220D02*
X844423Y107736D01*
X844423Y112816D02*
X819023Y138216D01*
X844423Y109220D02*
X841883Y106680D01*
X844423Y109220D02*
X844423Y112816D01*
D22*
X1411264Y547243D02*
X1411264Y584524D01*
X1416020Y589280D01*
D21*
X1416020Y745460D01*
X1417320Y746760D01*
D23*
X1386840Y88900D02*
X1376680Y88900D01*
X1386840Y88900D02*
X1442720Y144780D01*
X1442720Y401320D01*
X1422400Y421640D01*
X1341120Y421640D01*
X1325880Y436880D01*
X1325880Y523240D01*
X1353820Y551180D01*
D22*
X1353820Y575340D01*
X1342420Y586740D01*
X1353820Y551180D02*
X1361527Y551180D01*
X1365464Y547243D01*
M02*
