G04 EAGLE Gerber RS-274X export*
G75*
%MOMM*%
%FSLAX34Y34*%
%LPD*%
%INCopper Layer 2*%
%IPPOS*%
%AMOC8*
5,1,8,0,0,1.08239X$1,22.5*%
G01*
G04 Define Apertures*
%ADD10C,1.508000*%
%ADD11C,1.524000*%
%ADD12C,1.308000*%
%ADD13C,4.191000*%
%ADD14C,0.609600*%
%ADD15C,0.812800*%
G36*
X215303Y57372D02*
X215035Y57314D01*
X214736Y57365D01*
X214481Y57528D01*
X214309Y57778D01*
X214249Y58076D01*
X214249Y60571D01*
X211782Y69777D01*
X207017Y78031D01*
X200278Y84770D01*
X192025Y89535D01*
X182819Y92001D01*
X173289Y92001D01*
X164083Y89535D01*
X155830Y84770D01*
X149091Y78031D01*
X144326Y69777D01*
X141859Y60571D01*
X141859Y59122D01*
X141765Y58755D01*
X141569Y58524D01*
X141298Y58387D01*
X140995Y58367D01*
X140709Y58467D01*
X140120Y58815D01*
X139043Y58969D01*
X138859Y59020D01*
X137854Y59436D01*
X135829Y59436D01*
X135722Y59444D01*
X133718Y59730D01*
X132664Y59460D01*
X132475Y59436D01*
X123687Y59436D01*
X123415Y59486D01*
X123159Y59648D01*
X69830Y110844D01*
X69656Y111096D01*
X69596Y111393D01*
X69596Y605214D01*
X67121Y611188D01*
X16479Y661830D01*
X16316Y662072D01*
X16256Y662369D01*
X16256Y685162D01*
X16305Y685431D01*
X16466Y685688D01*
X16715Y685862D01*
X17012Y685924D01*
X17310Y685866D01*
X23409Y683340D01*
X32471Y683340D01*
X32484Y683345D01*
X32746Y683403D01*
X33045Y683354D01*
X33302Y683193D01*
X33475Y682944D01*
X33538Y682648D01*
X33480Y682350D01*
X30480Y675107D01*
X30480Y666013D01*
X33960Y657611D01*
X40391Y651180D01*
X48793Y647700D01*
X57887Y647700D01*
X66289Y651180D01*
X72720Y657611D01*
X76200Y666013D01*
X76200Y675107D01*
X72720Y683509D01*
X68371Y687858D01*
X68213Y688088D01*
X68148Y688384D01*
X68204Y688683D01*
X68371Y688935D01*
X72652Y693216D01*
X76120Y701589D01*
X76120Y710651D01*
X72857Y718528D01*
X72799Y718814D01*
X72857Y719112D01*
X76120Y726989D01*
X76120Y736051D01*
X72652Y744424D01*
X66244Y750832D01*
X63094Y752137D01*
X62860Y752289D01*
X62686Y752538D01*
X62624Y752835D01*
X62682Y753132D01*
X63420Y754915D01*
X63420Y756158D01*
X43260Y756158D01*
X43260Y754915D01*
X43998Y753132D01*
X44056Y752859D01*
X44003Y752560D01*
X43838Y752306D01*
X43586Y752137D01*
X40932Y751037D01*
X40646Y750979D01*
X40348Y751037D01*
X37694Y752137D01*
X37460Y752289D01*
X37286Y752538D01*
X37224Y752835D01*
X37282Y753132D01*
X38020Y754915D01*
X38020Y756158D01*
X17860Y756158D01*
X17860Y754915D01*
X18598Y753132D01*
X18656Y752859D01*
X18603Y752560D01*
X18438Y752306D01*
X18186Y752137D01*
X17310Y751774D01*
X17042Y751716D01*
X16743Y751767D01*
X16488Y751930D01*
X16316Y752180D01*
X16256Y752478D01*
X16256Y786762D01*
X16305Y787031D01*
X16466Y787288D01*
X16715Y787462D01*
X17012Y787524D01*
X17310Y787466D01*
X18186Y787103D01*
X18420Y786951D01*
X18594Y786702D01*
X18656Y786405D01*
X18598Y786108D01*
X17860Y784325D01*
X17860Y783082D01*
X38020Y783082D01*
X38020Y784325D01*
X37282Y786108D01*
X37224Y786381D01*
X37277Y786680D01*
X37442Y786934D01*
X37694Y787103D01*
X40348Y788203D01*
X40634Y788261D01*
X40932Y788203D01*
X43586Y787103D01*
X43820Y786951D01*
X43994Y786702D01*
X44056Y786405D01*
X43998Y786108D01*
X43260Y784325D01*
X43260Y783082D01*
X63420Y783082D01*
X63420Y784325D01*
X62682Y786108D01*
X62624Y786381D01*
X62677Y786680D01*
X62842Y786934D01*
X63094Y787103D01*
X66244Y788408D01*
X72652Y794816D01*
X76120Y803189D01*
X76120Y812251D01*
X72857Y820128D01*
X72799Y820414D01*
X72857Y820712D01*
X76120Y828589D01*
X76120Y837651D01*
X72857Y845528D01*
X72799Y845814D01*
X72857Y846112D01*
X76120Y853989D01*
X76120Y863051D01*
X72857Y870928D01*
X72799Y871214D01*
X72857Y871512D01*
X76120Y879389D01*
X76120Y888451D01*
X72857Y896328D01*
X72799Y896614D01*
X72857Y896912D01*
X76120Y904789D01*
X76120Y913851D01*
X72857Y921728D01*
X72799Y922014D01*
X72857Y922312D01*
X76120Y930189D01*
X76120Y939251D01*
X72652Y947624D01*
X66244Y954032D01*
X57871Y957500D01*
X48809Y957500D01*
X40932Y954237D01*
X40646Y954179D01*
X40348Y954237D01*
X32471Y957500D01*
X23409Y957500D01*
X17310Y954974D01*
X17042Y954916D01*
X16743Y954967D01*
X16488Y955130D01*
X16316Y955380D01*
X16256Y955678D01*
X16256Y968502D01*
X16307Y968777D01*
X16471Y969032D01*
X16721Y969204D01*
X17018Y969264D01*
X79311Y969264D01*
X79597Y969208D01*
X79850Y969041D01*
X135572Y913319D01*
X141546Y910844D01*
X186331Y910844D01*
X186595Y910797D01*
X186853Y910638D01*
X187028Y910390D01*
X187093Y910094D01*
X187038Y909796D01*
X186870Y909543D01*
X183001Y905674D01*
X178988Y898724D01*
X176911Y890972D01*
X176911Y882946D01*
X178988Y875194D01*
X183001Y868244D01*
X186533Y864712D01*
X186635Y864585D01*
X186745Y864303D01*
X186736Y864000D01*
X186609Y863724D01*
X186385Y863519D01*
X186099Y863419D01*
X185797Y863437D01*
X182819Y864235D01*
X173289Y864235D01*
X164083Y861768D01*
X155830Y857003D01*
X149091Y850264D01*
X144326Y842011D01*
X141859Y832805D01*
X141859Y823275D01*
X144326Y814069D01*
X149091Y805816D01*
X155830Y799077D01*
X164083Y794312D01*
X173289Y791845D01*
X182819Y791845D01*
X192025Y794312D01*
X200278Y799077D01*
X207017Y805816D01*
X211782Y814069D01*
X214249Y823275D01*
X214249Y832805D01*
X211782Y842011D01*
X207017Y850264D01*
X201871Y855411D01*
X201769Y855537D01*
X201659Y855820D01*
X201668Y856123D01*
X201794Y856399D01*
X202018Y856603D01*
X202304Y856704D01*
X202607Y856686D01*
X203378Y856479D01*
X211404Y856479D01*
X219156Y858556D01*
X226106Y862569D01*
X231781Y868244D01*
X235794Y875194D01*
X237871Y882946D01*
X237871Y890972D01*
X235794Y898724D01*
X231781Y905674D01*
X227912Y909543D01*
X227759Y909763D01*
X227689Y910058D01*
X227740Y910357D01*
X227903Y910612D01*
X228154Y910784D01*
X228451Y910844D01*
X297942Y910844D01*
X298217Y910793D01*
X298472Y910629D01*
X298644Y910379D01*
X298704Y910082D01*
X298704Y801774D01*
X298619Y801425D01*
X298430Y801188D01*
X298163Y801044D01*
X297861Y801016D01*
X297572Y801108D01*
X297341Y801305D01*
X297206Y801576D01*
X296576Y803927D01*
X292563Y810878D01*
X286888Y816553D01*
X279938Y820565D01*
X272186Y822643D01*
X264160Y822643D01*
X256408Y820565D01*
X249458Y816553D01*
X243783Y810878D01*
X239770Y803927D01*
X237693Y796175D01*
X237693Y788150D01*
X239770Y780398D01*
X243783Y773447D01*
X249458Y767772D01*
X256408Y763760D01*
X264160Y761683D01*
X272186Y761683D01*
X279938Y763760D01*
X286888Y767772D01*
X292563Y773447D01*
X296576Y780398D01*
X297206Y782749D01*
X297378Y783064D01*
X297623Y783243D01*
X297918Y783313D01*
X298217Y783262D01*
X298472Y783099D01*
X298644Y782849D01*
X298704Y782551D01*
X298704Y452481D01*
X298619Y452132D01*
X298430Y451896D01*
X298163Y451752D01*
X297861Y451724D01*
X297572Y451815D01*
X297341Y452013D01*
X297206Y452284D01*
X296576Y454635D01*
X292563Y461585D01*
X286888Y467260D01*
X279938Y471273D01*
X272186Y473350D01*
X264160Y473350D01*
X256408Y471273D01*
X249458Y467260D01*
X243783Y461585D01*
X239770Y454635D01*
X237693Y446883D01*
X237693Y438857D01*
X239770Y431105D01*
X243783Y424155D01*
X249458Y418480D01*
X256408Y414467D01*
X264160Y412390D01*
X272186Y412390D01*
X279938Y414467D01*
X286888Y418480D01*
X292563Y424155D01*
X296576Y431105D01*
X297206Y433456D01*
X297378Y433771D01*
X297623Y433951D01*
X297918Y434021D01*
X298217Y433970D01*
X298472Y433806D01*
X298644Y433556D01*
X298704Y433259D01*
X298704Y103763D01*
X298619Y103414D01*
X298430Y103178D01*
X298163Y103034D01*
X297861Y103005D01*
X297572Y103097D01*
X297341Y103294D01*
X297206Y103566D01*
X296576Y105917D01*
X292563Y112867D01*
X286888Y118542D01*
X279938Y122555D01*
X272186Y124632D01*
X264160Y124632D01*
X256408Y122555D01*
X249458Y118542D01*
X243783Y112867D01*
X239770Y105917D01*
X237693Y98165D01*
X237693Y90139D01*
X239770Y82387D01*
X243783Y75437D01*
X249458Y69762D01*
X256408Y65749D01*
X264160Y63672D01*
X272186Y63672D01*
X279938Y65749D01*
X286888Y69762D01*
X292563Y75437D01*
X296576Y82387D01*
X297206Y84738D01*
X297378Y85053D01*
X297623Y85233D01*
X297918Y85303D01*
X298217Y85252D01*
X298472Y85088D01*
X298644Y84838D01*
X298704Y84541D01*
X298704Y65469D01*
X298648Y65183D01*
X298481Y64930D01*
X293210Y59659D01*
X292968Y59496D01*
X292671Y59436D01*
X225665Y59436D01*
X225476Y59460D01*
X224422Y59730D01*
X222418Y59444D01*
X222311Y59436D01*
X220286Y59436D01*
X219281Y59020D01*
X219097Y58969D01*
X218020Y58815D01*
X216278Y57784D01*
X216182Y57736D01*
X215303Y57372D01*
G37*
%LPC*%
G36*
X54102Y772240D02*
X55345Y772240D01*
X59050Y773775D01*
X61885Y776610D01*
X63420Y780315D01*
X63420Y781558D01*
X54102Y781558D01*
X54102Y772240D01*
G37*
G36*
X51335Y772240D02*
X52578Y772240D01*
X52578Y781558D01*
X43260Y781558D01*
X43260Y780315D01*
X44795Y776610D01*
X47630Y773775D01*
X51335Y772240D01*
G37*
G36*
X28702Y772240D02*
X29945Y772240D01*
X33650Y773775D01*
X36485Y776610D01*
X38020Y780315D01*
X38020Y781558D01*
X28702Y781558D01*
X28702Y772240D01*
G37*
G36*
X25935Y772240D02*
X27178Y772240D01*
X27178Y781558D01*
X17860Y781558D01*
X17860Y780315D01*
X19395Y776610D01*
X22230Y773775D01*
X25935Y772240D01*
G37*
G36*
X173289Y620142D02*
X182819Y620142D01*
X192025Y622608D01*
X200278Y627374D01*
X207017Y634113D01*
X211782Y642366D01*
X214249Y651572D01*
X214249Y661102D01*
X212670Y666993D01*
X212648Y667260D01*
X212735Y667550D01*
X212928Y667784D01*
X213198Y667923D01*
X213500Y667947D01*
X213788Y667850D01*
X214295Y667557D01*
X222047Y665480D01*
X230073Y665480D01*
X237825Y667557D01*
X244775Y671570D01*
X250450Y677245D01*
X254463Y684195D01*
X256540Y691947D01*
X256540Y699973D01*
X254463Y707725D01*
X250450Y714675D01*
X244775Y720350D01*
X237825Y724363D01*
X230073Y726440D01*
X222047Y726440D01*
X214295Y724363D01*
X209703Y721712D01*
X209554Y721646D01*
X209253Y721613D01*
X208962Y721700D01*
X208729Y721893D01*
X208589Y722163D01*
X208566Y722465D01*
X208662Y722753D01*
X211782Y728157D01*
X214249Y737362D01*
X214249Y746893D01*
X211782Y756098D01*
X207017Y764352D01*
X200278Y771091D01*
X192025Y775856D01*
X182819Y778323D01*
X173289Y778323D01*
X164083Y775856D01*
X155830Y771091D01*
X149091Y764352D01*
X144326Y756098D01*
X141859Y746893D01*
X141859Y737362D01*
X144326Y728157D01*
X149091Y719903D01*
X155830Y713164D01*
X164083Y708399D01*
X173289Y705933D01*
X182819Y705933D01*
X192025Y708399D01*
X198595Y712192D01*
X198743Y712258D01*
X199045Y712291D01*
X199335Y712204D01*
X199569Y712011D01*
X199708Y711741D01*
X199732Y711439D01*
X199636Y711151D01*
X197657Y707725D01*
X195580Y699973D01*
X195580Y691947D01*
X196351Y689069D01*
X196374Y688803D01*
X196287Y688512D01*
X196093Y688279D01*
X195824Y688139D01*
X195522Y688116D01*
X195234Y688212D01*
X192025Y690065D01*
X182819Y692532D01*
X173289Y692532D01*
X164083Y690065D01*
X155830Y685300D01*
X149091Y678561D01*
X144326Y670308D01*
X141859Y661102D01*
X141859Y651572D01*
X144326Y642366D01*
X149091Y634113D01*
X155830Y627374D01*
X164083Y622608D01*
X173289Y620142D01*
G37*
G36*
X28702Y757682D02*
X38020Y757682D01*
X38020Y758925D01*
X36485Y762630D01*
X33650Y765465D01*
X29945Y767000D01*
X28702Y767000D01*
X28702Y757682D01*
G37*
G36*
X54102Y757682D02*
X63420Y757682D01*
X63420Y758925D01*
X61885Y762630D01*
X59050Y765465D01*
X55345Y767000D01*
X54102Y767000D01*
X54102Y757682D01*
G37*
G36*
X17860Y757682D02*
X27178Y757682D01*
X27178Y767000D01*
X25935Y767000D01*
X22230Y765465D01*
X19395Y762630D01*
X17860Y758925D01*
X17860Y757682D01*
G37*
G36*
X43260Y757682D02*
X52578Y757682D01*
X52578Y767000D01*
X51335Y767000D01*
X47630Y765465D01*
X44795Y762630D01*
X43260Y758925D01*
X43260Y757682D01*
G37*
G36*
X264693Y571500D02*
X273787Y571500D01*
X282189Y574980D01*
X288620Y581411D01*
X292100Y589813D01*
X292100Y598907D01*
X288620Y607309D01*
X282189Y613740D01*
X273787Y617220D01*
X264693Y617220D01*
X256291Y613740D01*
X249860Y607309D01*
X246380Y598907D01*
X246380Y589813D01*
X249860Y581411D01*
X256291Y574980D01*
X264693Y571500D01*
G37*
G36*
X173289Y535147D02*
X182819Y535147D01*
X192025Y537614D01*
X200278Y542379D01*
X207017Y549118D01*
X211782Y557371D01*
X214249Y566577D01*
X214249Y576107D01*
X211782Y585313D01*
X207017Y593566D01*
X200278Y600305D01*
X192025Y605070D01*
X182819Y607537D01*
X173289Y607537D01*
X164083Y605070D01*
X155830Y600305D01*
X149091Y593566D01*
X144326Y585313D01*
X141859Y576107D01*
X141859Y566577D01*
X144326Y557371D01*
X149091Y549118D01*
X155830Y542379D01*
X164083Y537614D01*
X173289Y535147D01*
G37*
G36*
X173289Y448561D02*
X182819Y448561D01*
X192025Y451027D01*
X200278Y455793D01*
X207017Y462532D01*
X211782Y470785D01*
X214249Y479991D01*
X214249Y489521D01*
X211782Y498727D01*
X207017Y506980D01*
X200278Y513719D01*
X192025Y518484D01*
X182819Y520951D01*
X173289Y520951D01*
X164083Y518484D01*
X155830Y513719D01*
X149091Y506980D01*
X144326Y498727D01*
X141859Y489521D01*
X141859Y479991D01*
X144326Y470785D01*
X149091Y462532D01*
X155830Y455793D01*
X164083Y451027D01*
X173289Y448561D01*
G37*
G36*
X173289Y362771D02*
X182819Y362771D01*
X192025Y365237D01*
X200278Y370002D01*
X207017Y376741D01*
X211782Y384995D01*
X214249Y394200D01*
X214249Y403731D01*
X211782Y412936D01*
X207017Y421190D01*
X200278Y427929D01*
X192025Y432694D01*
X182819Y435161D01*
X173289Y435161D01*
X164083Y432694D01*
X155830Y427929D01*
X149091Y421190D01*
X144326Y412936D01*
X141859Y403731D01*
X141859Y394200D01*
X144326Y384995D01*
X149091Y376741D01*
X155830Y370002D01*
X164083Y365237D01*
X173289Y362771D01*
G37*
G36*
X173289Y276980D02*
X182819Y276980D01*
X192025Y279447D01*
X200278Y284212D01*
X207017Y290951D01*
X211782Y299205D01*
X214249Y308410D01*
X214249Y317941D01*
X211782Y327146D01*
X207017Y335400D01*
X200278Y342139D01*
X192025Y346904D01*
X182819Y349370D01*
X173289Y349370D01*
X164083Y346904D01*
X155830Y342139D01*
X149091Y335400D01*
X144326Y327146D01*
X141859Y317941D01*
X141859Y308410D01*
X144326Y299205D01*
X149091Y290951D01*
X155830Y284212D01*
X164083Y279447D01*
X173289Y276980D01*
G37*
G36*
X173289Y191191D02*
X182819Y191191D01*
X192025Y193657D01*
X200278Y198422D01*
X207017Y205161D01*
X211782Y213415D01*
X214249Y222620D01*
X214249Y229696D01*
X214269Y229870D01*
X214396Y230146D01*
X214620Y230350D01*
X214906Y230451D01*
X215208Y230433D01*
X222047Y228600D01*
X230073Y228600D01*
X237825Y230677D01*
X244775Y234690D01*
X250450Y240365D01*
X254463Y247315D01*
X256540Y255067D01*
X256540Y263093D01*
X254463Y270845D01*
X250450Y277795D01*
X244775Y283470D01*
X237825Y287483D01*
X230073Y289560D01*
X222047Y289560D01*
X214295Y287483D01*
X207345Y283470D01*
X201670Y277795D01*
X197657Y270845D01*
X195580Y263093D01*
X195580Y260381D01*
X195490Y260021D01*
X195296Y259788D01*
X195027Y259648D01*
X194725Y259625D01*
X194437Y259721D01*
X192025Y261114D01*
X182819Y263581D01*
X173289Y263581D01*
X164083Y261114D01*
X155830Y256349D01*
X149091Y249610D01*
X144326Y241356D01*
X141859Y232151D01*
X141859Y222620D01*
X144326Y213415D01*
X149091Y205161D01*
X155830Y198422D01*
X164083Y193657D01*
X173289Y191191D01*
G37*
G36*
X262153Y149860D02*
X271247Y149860D01*
X279649Y153340D01*
X286080Y159771D01*
X289560Y168173D01*
X289560Y177267D01*
X286080Y185669D01*
X279649Y192100D01*
X271247Y195580D01*
X262153Y195580D01*
X253751Y192100D01*
X247320Y185669D01*
X243840Y177267D01*
X243840Y168173D01*
X247320Y159771D01*
X253751Y153340D01*
X262153Y149860D01*
G37*
G36*
X173289Y105401D02*
X182819Y105401D01*
X192025Y107867D01*
X200278Y112633D01*
X207017Y119372D01*
X211782Y127625D01*
X214249Y136831D01*
X214249Y146361D01*
X211782Y155567D01*
X207017Y163820D01*
X200278Y170559D01*
X192025Y175324D01*
X182819Y177791D01*
X173289Y177791D01*
X164083Y175324D01*
X155830Y170559D01*
X149091Y163820D01*
X144326Y155567D01*
X141859Y146361D01*
X141859Y136831D01*
X144326Y127625D01*
X149091Y119372D01*
X155830Y112633D01*
X164083Y107867D01*
X173289Y105401D01*
G37*
%LPD*%
D10*
X27940Y934720D03*
X53340Y934720D03*
X27940Y909320D03*
X53340Y909320D03*
X27940Y883920D03*
X53340Y883920D03*
X27940Y858520D03*
X53340Y858520D03*
X27940Y833120D03*
X53340Y833120D03*
X27940Y807720D03*
X53340Y807720D03*
X27940Y782320D03*
X53340Y782320D03*
X27940Y756920D03*
X53340Y756920D03*
X27940Y731520D03*
X53340Y731520D03*
X27940Y706120D03*
X53340Y706120D03*
D11*
X266700Y172720D03*
X269240Y594360D03*
X53340Y670560D03*
D10*
X825500Y396240D03*
X800100Y396240D03*
X825500Y370840D03*
X800100Y370840D03*
X825500Y345440D03*
X800100Y345440D03*
X825500Y320040D03*
X800100Y320040D03*
X825500Y294640D03*
X800100Y294640D03*
X825500Y269240D03*
X800100Y269240D03*
X825500Y243840D03*
X800100Y243840D03*
X825500Y218440D03*
X800100Y218440D03*
D12*
X721614Y51976D03*
X721614Y71976D03*
X556514Y144178D03*
X556514Y164178D03*
X721360Y233586D03*
X721360Y253586D03*
X556514Y325026D03*
X556514Y345026D03*
X721614Y415450D03*
X721614Y435450D03*
X556768Y506382D03*
X556768Y526382D03*
X721614Y598330D03*
X721614Y618330D03*
X556768Y686976D03*
X556768Y706976D03*
X721360Y778670D03*
X721360Y798670D03*
X557022Y868332D03*
X557022Y888332D03*
X409702Y868492D03*
X409702Y888492D03*
X409702Y908492D03*
X574040Y778830D03*
X574040Y798830D03*
X574040Y818830D03*
X409448Y687136D03*
X409448Y707136D03*
X409448Y727136D03*
X574294Y598490D03*
X574294Y618490D03*
X574294Y638490D03*
X409448Y506542D03*
X409448Y526542D03*
X409448Y546542D03*
X574294Y415610D03*
X574294Y435610D03*
X574294Y455610D03*
X409194Y325186D03*
X409194Y345186D03*
X409194Y365186D03*
X574040Y233746D03*
X574040Y253746D03*
X574040Y273746D03*
X409194Y144338D03*
X409194Y164338D03*
X409194Y184338D03*
X574294Y52136D03*
X574294Y72136D03*
X574294Y92136D03*
D11*
X810260Y154940D03*
X754380Y330200D03*
X876300Y53340D03*
X754380Y215900D03*
D10*
X1391920Y330200D03*
X1366520Y330200D03*
X1391920Y304800D03*
X1366520Y304800D03*
X1391920Y279400D03*
X1366520Y279400D03*
X1391920Y254000D03*
X1366520Y254000D03*
X1391920Y228600D03*
X1366520Y228600D03*
X1391920Y203200D03*
X1366520Y203200D03*
X1391920Y177800D03*
X1366520Y177800D03*
X1391920Y152400D03*
X1366520Y152400D03*
D12*
X1288034Y111302D03*
X1288034Y131302D03*
X1122934Y202281D03*
X1122934Y222281D03*
X1287780Y292641D03*
X1287780Y312641D03*
X1122934Y385034D03*
X1122934Y405034D03*
X1288034Y476410D03*
X1288034Y496410D03*
X1123188Y567342D03*
X1123188Y587342D03*
X1288034Y660243D03*
X1288034Y680243D03*
X1123188Y749841D03*
X1123188Y769841D03*
X1287780Y842488D03*
X1287780Y862488D03*
X1123442Y933102D03*
X1123442Y953102D03*
X976122Y933262D03*
X976122Y953262D03*
X976122Y973262D03*
X1140460Y842648D03*
X1140460Y862648D03*
X1140460Y882648D03*
X975868Y750001D03*
X975868Y770001D03*
X975868Y790001D03*
X1140714Y660403D03*
X1140714Y680403D03*
X1140714Y700403D03*
X975868Y567502D03*
X975868Y587502D03*
X975868Y607502D03*
X1140714Y476570D03*
X1140714Y496570D03*
X1140714Y516570D03*
X975614Y385194D03*
X975614Y405194D03*
X975614Y425194D03*
X1140460Y292801D03*
X1140460Y312801D03*
X1140460Y332801D03*
X975614Y202441D03*
X975614Y222441D03*
X975614Y242441D03*
X1140714Y113096D03*
X1140714Y133096D03*
X1140714Y153096D03*
D11*
X1376680Y88900D03*
X1445260Y556260D03*
X1417320Y746760D03*
X1320800Y175260D03*
X1308100Y556260D03*
D13*
X178054Y828040D03*
X178054Y742128D03*
X178054Y656337D03*
X178054Y571342D03*
X178054Y484756D03*
X178054Y398966D03*
X178054Y313175D03*
X178054Y227386D03*
X178054Y141596D03*
X178054Y55806D03*
X264668Y660830D03*
X264668Y224998D03*
D14*
X556514Y164178D02*
X621378Y164178D01*
X655320Y198120D01*
X833120Y198120D01*
X845820Y210820D01*
X845820Y284480D01*
X835660Y294640D01*
X825500Y294640D01*
X556514Y345026D02*
X543146Y345026D01*
X530860Y332740D01*
X530860Y142240D01*
X553720Y119380D01*
X800100Y119380D01*
X863600Y182880D01*
X863600Y294640D01*
X838200Y320040D01*
X825500Y320040D01*
X556768Y526382D02*
X556768Y548132D01*
X535940Y568960D01*
X535940Y711200D01*
X551180Y726440D01*
X774700Y726440D01*
X861060Y640080D01*
X861060Y365760D01*
X840740Y345440D01*
X825500Y345440D01*
X766224Y706976D02*
X556768Y706976D01*
X766224Y706976D02*
X845820Y627380D01*
X845820Y381000D01*
X835660Y370840D01*
X825500Y370840D01*
D15*
X800100Y215900D02*
X754380Y215900D01*
X800100Y215900D02*
X800100Y218440D01*
D14*
X1402080Y129540D02*
X1412240Y139700D01*
X1402080Y129540D02*
X1358900Y129540D01*
X1333500Y154940D01*
X1210595Y154940D01*
X1143254Y222281D01*
X1122934Y222281D01*
X1391920Y228600D02*
X1412240Y208280D01*
X1412240Y139700D01*
X1122934Y405034D02*
X1109566Y405986D01*
X1097280Y393700D01*
X1242060Y86983D02*
X1242060Y86360D01*
X1297940Y86360D01*
X1328420Y116840D01*
X1414780Y116840D01*
X1430020Y132080D01*
X1430020Y219710D01*
X1402588Y254000D01*
X1391920Y254000D01*
X1097280Y198120D02*
X1097280Y393700D01*
X1097280Y198120D02*
X1120140Y175260D01*
X1153101Y175260D01*
X1242060Y86983D01*
X1123188Y587342D02*
X1123188Y609092D01*
X1102360Y629920D01*
X1341120Y787400D02*
X1427480Y701040D01*
X1427480Y304800D01*
X1402080Y279400D01*
X1391920Y279400D01*
X1102360Y629920D02*
X1102360Y775937D01*
X1113823Y787400D01*
X1341120Y787400D01*
X1332644Y767936D02*
X1123188Y769841D01*
X1332644Y767936D02*
X1412240Y688340D01*
X1412240Y320040D01*
X1397000Y304800D01*
X1391920Y304800D01*
D15*
X1341120Y175260D02*
X1320800Y175260D01*
X1341120Y175260D02*
X1363980Y152400D01*
X1366520Y152400D01*
M02*
