G04 EAGLE Gerber RS-274X export*
G75*
%MOMM*%
%FSLAX34Y34*%
%LPD*%
%INSilkscreen Top*%
%IPPOS*%
%AMOC8*
5,1,8,0,0,1.08239X$1,22.5*%
G01*
G04 Define Apertures*
%ADD10C,0.203200*%
%ADD11C,0.101600*%
%ADD12C,0.152400*%
%ADD13C,0.127000*%
%ADD14R,0.508000X0.508000*%
D10*
X82640Y983920D02*
X82640Y928150D01*
X82640Y890490D01*
X82640Y750350D01*
X82640Y712690D01*
X82640Y656920D01*
X-1360Y656920D01*
X-1360Y710240D01*
X1640Y710240D01*
X1640Y725030D01*
X-1360Y725030D01*
X-1360Y801590D01*
X14140Y801590D01*
X14140Y839250D01*
X-1360Y839250D01*
X-1360Y801590D01*
X-1360Y839250D02*
X-1360Y913440D01*
X-1360Y928230D02*
X-1360Y983920D01*
X82640Y983920D01*
X73390Y972670D02*
X73390Y928220D01*
X73390Y890470D02*
X73390Y750370D01*
X73390Y712620D02*
X73390Y668170D01*
X7890Y668170D01*
X7890Y801590D01*
X7890Y839250D02*
X7890Y972670D01*
X73390Y972670D01*
X1640Y913440D02*
X-1360Y913440D01*
X1640Y913440D02*
X1640Y928230D01*
X-1360Y928230D01*
X67140Y928150D02*
X82640Y928150D01*
X67140Y928150D02*
X67140Y890490D01*
X82640Y890490D01*
X82640Y750350D02*
X67140Y750350D01*
X67140Y712690D01*
X82640Y712690D01*
D11*
X98552Y801342D02*
X86868Y809131D01*
X86868Y801342D02*
X98552Y809131D01*
X92061Y813421D02*
X92061Y817316D01*
X92063Y817415D01*
X92069Y817515D01*
X92078Y817614D01*
X92091Y817712D01*
X92108Y817810D01*
X92129Y817908D01*
X92154Y818004D01*
X92182Y818099D01*
X92214Y818193D01*
X92249Y818286D01*
X92288Y818378D01*
X92331Y818468D01*
X92376Y818556D01*
X92426Y818643D01*
X92478Y818727D01*
X92534Y818810D01*
X92592Y818890D01*
X92654Y818968D01*
X92719Y819043D01*
X92787Y819116D01*
X92857Y819186D01*
X92930Y819254D01*
X93005Y819319D01*
X93083Y819381D01*
X93163Y819439D01*
X93246Y819495D01*
X93330Y819547D01*
X93417Y819597D01*
X93505Y819642D01*
X93595Y819685D01*
X93687Y819724D01*
X93780Y819759D01*
X93874Y819791D01*
X93969Y819819D01*
X94065Y819844D01*
X94163Y819865D01*
X94261Y819882D01*
X94359Y819895D01*
X94458Y819904D01*
X94558Y819910D01*
X94657Y819912D01*
X95306Y819912D01*
X95419Y819910D01*
X95532Y819904D01*
X95645Y819894D01*
X95758Y819880D01*
X95870Y819863D01*
X95981Y819841D01*
X96091Y819816D01*
X96201Y819786D01*
X96309Y819753D01*
X96416Y819716D01*
X96522Y819676D01*
X96626Y819631D01*
X96729Y819583D01*
X96830Y819532D01*
X96929Y819477D01*
X97026Y819419D01*
X97121Y819357D01*
X97214Y819292D01*
X97304Y819224D01*
X97392Y819153D01*
X97478Y819078D01*
X97561Y819001D01*
X97641Y818921D01*
X97718Y818838D01*
X97793Y818752D01*
X97864Y818664D01*
X97932Y818574D01*
X97997Y818481D01*
X98059Y818386D01*
X98117Y818289D01*
X98172Y818190D01*
X98223Y818089D01*
X98271Y817986D01*
X98316Y817882D01*
X98356Y817776D01*
X98393Y817669D01*
X98426Y817561D01*
X98456Y817451D01*
X98481Y817341D01*
X98503Y817230D01*
X98520Y817118D01*
X98534Y817005D01*
X98544Y816892D01*
X98550Y816779D01*
X98552Y816666D01*
X98550Y816553D01*
X98544Y816440D01*
X98534Y816327D01*
X98520Y816214D01*
X98503Y816102D01*
X98481Y815991D01*
X98456Y815881D01*
X98426Y815771D01*
X98393Y815663D01*
X98356Y815556D01*
X98316Y815450D01*
X98271Y815346D01*
X98223Y815243D01*
X98172Y815142D01*
X98117Y815043D01*
X98059Y814946D01*
X97997Y814851D01*
X97932Y814758D01*
X97864Y814668D01*
X97793Y814580D01*
X97718Y814494D01*
X97641Y814411D01*
X97561Y814331D01*
X97478Y814254D01*
X97392Y814179D01*
X97304Y814108D01*
X97214Y814040D01*
X97121Y813975D01*
X97026Y813913D01*
X96929Y813855D01*
X96830Y813800D01*
X96729Y813749D01*
X96626Y813701D01*
X96522Y813656D01*
X96416Y813616D01*
X96309Y813579D01*
X96201Y813546D01*
X96091Y813516D01*
X95981Y813491D01*
X95870Y813469D01*
X95758Y813452D01*
X95645Y813438D01*
X95532Y813428D01*
X95419Y813422D01*
X95306Y813420D01*
X95306Y813421D02*
X92061Y813421D01*
X91918Y813423D01*
X91775Y813429D01*
X91632Y813439D01*
X91490Y813453D01*
X91348Y813470D01*
X91206Y813492D01*
X91065Y813517D01*
X90925Y813547D01*
X90786Y813580D01*
X90648Y813617D01*
X90511Y813658D01*
X90375Y813702D01*
X90240Y813751D01*
X90107Y813803D01*
X89975Y813858D01*
X89845Y813918D01*
X89716Y813981D01*
X89589Y814047D01*
X89465Y814117D01*
X89342Y814190D01*
X89221Y814267D01*
X89102Y814346D01*
X88986Y814430D01*
X88871Y814516D01*
X88760Y814605D01*
X88651Y814698D01*
X88544Y814793D01*
X88440Y814892D01*
X88339Y814993D01*
X88240Y815097D01*
X88145Y815203D01*
X88052Y815313D01*
X87963Y815424D01*
X87877Y815538D01*
X87794Y815655D01*
X87714Y815774D01*
X87637Y815895D01*
X87564Y816017D01*
X87494Y816142D01*
X87428Y816269D01*
X87365Y816398D01*
X87305Y816528D01*
X87250Y816660D01*
X87198Y816793D01*
X87149Y816928D01*
X87105Y817064D01*
X87064Y817201D01*
X87027Y817339D01*
X86994Y817478D01*
X86964Y817618D01*
X86939Y817759D01*
X86917Y817901D01*
X86900Y818043D01*
X86886Y818185D01*
X86876Y818328D01*
X86870Y818471D01*
X86868Y818614D01*
D12*
X260350Y185420D02*
X273050Y185420D01*
X279400Y179070D01*
X279400Y166370D01*
X273050Y160020D01*
X254000Y166370D02*
X254000Y179070D01*
X260350Y185420D01*
X254000Y166370D02*
X260350Y160020D01*
X273050Y160020D01*
D13*
X245237Y138303D02*
X245235Y138403D01*
X245229Y138502D01*
X245219Y138602D01*
X245206Y138700D01*
X245188Y138799D01*
X245167Y138896D01*
X245142Y138992D01*
X245113Y139088D01*
X245080Y139182D01*
X245044Y139275D01*
X245004Y139366D01*
X244960Y139456D01*
X244913Y139544D01*
X244863Y139630D01*
X244809Y139714D01*
X244752Y139796D01*
X244692Y139875D01*
X244628Y139953D01*
X244562Y140027D01*
X244493Y140099D01*
X244421Y140168D01*
X244347Y140234D01*
X244269Y140298D01*
X244190Y140358D01*
X244108Y140415D01*
X244024Y140469D01*
X243938Y140519D01*
X243850Y140566D01*
X243760Y140610D01*
X243669Y140650D01*
X243576Y140686D01*
X243482Y140719D01*
X243386Y140748D01*
X243290Y140773D01*
X243193Y140794D01*
X243094Y140812D01*
X242996Y140825D01*
X242896Y140835D01*
X242797Y140841D01*
X242697Y140843D01*
X245237Y138303D02*
X245235Y138162D01*
X245230Y138021D01*
X245220Y137880D01*
X245207Y137739D01*
X245191Y137599D01*
X245170Y137459D01*
X245146Y137320D01*
X245118Y137181D01*
X245087Y137044D01*
X245052Y136907D01*
X245014Y136771D01*
X244972Y136636D01*
X244926Y136503D01*
X244877Y136370D01*
X244824Y136239D01*
X244768Y136110D01*
X244709Y135981D01*
X244646Y135855D01*
X244580Y135730D01*
X244511Y135607D01*
X244438Y135486D01*
X244362Y135367D01*
X244283Y135249D01*
X244202Y135134D01*
X244117Y135022D01*
X244029Y134911D01*
X243938Y134803D01*
X243845Y134697D01*
X243748Y134594D01*
X243649Y134493D01*
X236347Y134811D02*
X236247Y134813D01*
X236148Y134819D01*
X236048Y134829D01*
X235950Y134842D01*
X235851Y134860D01*
X235754Y134881D01*
X235658Y134906D01*
X235562Y134935D01*
X235468Y134968D01*
X235375Y135004D01*
X235284Y135044D01*
X235194Y135088D01*
X235106Y135135D01*
X235020Y135185D01*
X234936Y135239D01*
X234854Y135296D01*
X234775Y135356D01*
X234697Y135420D01*
X234623Y135486D01*
X234551Y135555D01*
X234482Y135627D01*
X234416Y135701D01*
X234352Y135779D01*
X234292Y135858D01*
X234235Y135940D01*
X234181Y136024D01*
X234131Y136110D01*
X234084Y136198D01*
X234040Y136288D01*
X234000Y136379D01*
X233964Y136472D01*
X233931Y136566D01*
X233902Y136662D01*
X233877Y136758D01*
X233856Y136855D01*
X233838Y136954D01*
X233825Y137052D01*
X233815Y137152D01*
X233809Y137251D01*
X233807Y137351D01*
X233809Y137484D01*
X233814Y137617D01*
X233824Y137750D01*
X233837Y137883D01*
X233854Y138015D01*
X233874Y138147D01*
X233898Y138278D01*
X233926Y138408D01*
X233957Y138538D01*
X233992Y138666D01*
X234031Y138794D01*
X234073Y138920D01*
X234119Y139045D01*
X234168Y139169D01*
X234220Y139292D01*
X234276Y139413D01*
X234336Y139532D01*
X234398Y139650D01*
X234464Y139765D01*
X234533Y139879D01*
X234606Y139991D01*
X234681Y140101D01*
X234760Y140209D01*
X238570Y136080D02*
X238518Y135996D01*
X238463Y135913D01*
X238404Y135833D01*
X238343Y135755D01*
X238279Y135680D01*
X238211Y135607D01*
X238141Y135536D01*
X238069Y135469D01*
X237994Y135404D01*
X237916Y135342D01*
X237836Y135283D01*
X237754Y135227D01*
X237670Y135175D01*
X237584Y135126D01*
X237496Y135080D01*
X237406Y135037D01*
X237315Y134998D01*
X237222Y134963D01*
X237128Y134931D01*
X237033Y134903D01*
X236937Y134878D01*
X236840Y134858D01*
X236742Y134840D01*
X236644Y134827D01*
X236545Y134818D01*
X236446Y134812D01*
X236347Y134810D01*
X240474Y139573D02*
X240526Y139657D01*
X240581Y139740D01*
X240640Y139820D01*
X240701Y139898D01*
X240765Y139973D01*
X240833Y140046D01*
X240903Y140117D01*
X240975Y140184D01*
X241050Y140249D01*
X241128Y140311D01*
X241208Y140370D01*
X241290Y140426D01*
X241374Y140478D01*
X241460Y140527D01*
X241548Y140573D01*
X241638Y140616D01*
X241729Y140655D01*
X241822Y140690D01*
X241916Y140722D01*
X242011Y140750D01*
X242107Y140775D01*
X242204Y140795D01*
X242302Y140813D01*
X242400Y140826D01*
X242499Y140835D01*
X242598Y140841D01*
X242697Y140843D01*
X240475Y139573D02*
X238570Y136081D01*
X245237Y145948D02*
X245237Y151028D01*
X245237Y145948D02*
X233807Y145948D01*
X233807Y151028D01*
X238887Y149758D02*
X238887Y145948D01*
X233807Y155829D02*
X245237Y155829D01*
X245237Y162179D02*
X233807Y155829D01*
X233807Y162179D02*
X245237Y162179D01*
X245237Y171069D02*
X245235Y171169D01*
X245229Y171268D01*
X245219Y171368D01*
X245206Y171466D01*
X245188Y171565D01*
X245167Y171662D01*
X245142Y171758D01*
X245113Y171854D01*
X245080Y171948D01*
X245044Y172041D01*
X245004Y172132D01*
X244960Y172222D01*
X244913Y172310D01*
X244863Y172396D01*
X244809Y172480D01*
X244752Y172562D01*
X244692Y172641D01*
X244628Y172719D01*
X244562Y172793D01*
X244493Y172865D01*
X244421Y172934D01*
X244347Y173000D01*
X244269Y173064D01*
X244190Y173124D01*
X244108Y173181D01*
X244024Y173235D01*
X243938Y173285D01*
X243850Y173332D01*
X243760Y173376D01*
X243669Y173416D01*
X243576Y173452D01*
X243482Y173485D01*
X243386Y173514D01*
X243290Y173539D01*
X243193Y173560D01*
X243094Y173578D01*
X242996Y173591D01*
X242896Y173601D01*
X242797Y173607D01*
X242697Y173609D01*
X245237Y171069D02*
X245235Y170928D01*
X245230Y170787D01*
X245220Y170646D01*
X245207Y170505D01*
X245191Y170365D01*
X245170Y170225D01*
X245146Y170086D01*
X245118Y169947D01*
X245087Y169810D01*
X245052Y169673D01*
X245014Y169537D01*
X244972Y169402D01*
X244926Y169269D01*
X244877Y169136D01*
X244824Y169005D01*
X244768Y168876D01*
X244709Y168747D01*
X244646Y168621D01*
X244580Y168496D01*
X244511Y168373D01*
X244438Y168252D01*
X244362Y168133D01*
X244283Y168015D01*
X244202Y167900D01*
X244117Y167788D01*
X244029Y167677D01*
X243938Y167569D01*
X243845Y167463D01*
X243748Y167360D01*
X243649Y167259D01*
X236347Y167576D02*
X236247Y167578D01*
X236148Y167584D01*
X236048Y167594D01*
X235950Y167607D01*
X235851Y167625D01*
X235754Y167646D01*
X235658Y167671D01*
X235562Y167700D01*
X235468Y167733D01*
X235375Y167769D01*
X235284Y167809D01*
X235194Y167853D01*
X235106Y167900D01*
X235020Y167950D01*
X234936Y168004D01*
X234854Y168061D01*
X234775Y168121D01*
X234697Y168185D01*
X234623Y168251D01*
X234551Y168320D01*
X234482Y168392D01*
X234416Y168466D01*
X234352Y168544D01*
X234292Y168623D01*
X234235Y168705D01*
X234181Y168789D01*
X234131Y168875D01*
X234084Y168963D01*
X234040Y169053D01*
X234000Y169144D01*
X233964Y169237D01*
X233931Y169331D01*
X233902Y169427D01*
X233877Y169523D01*
X233856Y169620D01*
X233838Y169719D01*
X233825Y169817D01*
X233815Y169917D01*
X233809Y170016D01*
X233807Y170116D01*
X233809Y170249D01*
X233814Y170382D01*
X233824Y170515D01*
X233837Y170648D01*
X233854Y170780D01*
X233874Y170912D01*
X233898Y171043D01*
X233926Y171173D01*
X233957Y171303D01*
X233992Y171431D01*
X234031Y171559D01*
X234073Y171685D01*
X234119Y171810D01*
X234168Y171934D01*
X234220Y172057D01*
X234276Y172178D01*
X234336Y172297D01*
X234398Y172415D01*
X234464Y172530D01*
X234533Y172644D01*
X234606Y172756D01*
X234681Y172866D01*
X234760Y172974D01*
X238570Y168846D02*
X238518Y168762D01*
X238463Y168679D01*
X238404Y168599D01*
X238343Y168521D01*
X238279Y168446D01*
X238211Y168373D01*
X238141Y168302D01*
X238069Y168235D01*
X237994Y168170D01*
X237916Y168108D01*
X237836Y168049D01*
X237754Y167993D01*
X237670Y167941D01*
X237584Y167892D01*
X237496Y167846D01*
X237406Y167803D01*
X237315Y167764D01*
X237222Y167729D01*
X237128Y167697D01*
X237033Y167669D01*
X236937Y167644D01*
X236840Y167624D01*
X236742Y167606D01*
X236644Y167593D01*
X236545Y167584D01*
X236446Y167578D01*
X236347Y167576D01*
X240474Y172339D02*
X240526Y172423D01*
X240581Y172506D01*
X240640Y172586D01*
X240701Y172664D01*
X240765Y172739D01*
X240833Y172812D01*
X240903Y172883D01*
X240975Y172950D01*
X241050Y173015D01*
X241128Y173077D01*
X241208Y173136D01*
X241290Y173192D01*
X241374Y173244D01*
X241460Y173293D01*
X241548Y173339D01*
X241638Y173382D01*
X241729Y173421D01*
X241822Y173456D01*
X241916Y173488D01*
X242011Y173516D01*
X242107Y173541D01*
X242204Y173561D01*
X242302Y173579D01*
X242400Y173592D01*
X242499Y173601D01*
X242598Y173607D01*
X242697Y173609D01*
X240475Y172339D02*
X238570Y168846D01*
X245237Y178714D02*
X245237Y183794D01*
X245237Y178714D02*
X233807Y178714D01*
X233807Y183794D01*
X238887Y182524D02*
X238887Y178714D01*
X233807Y191706D02*
X233809Y191810D01*
X233815Y191915D01*
X233824Y192019D01*
X233837Y192122D01*
X233855Y192225D01*
X233875Y192327D01*
X233900Y192429D01*
X233928Y192529D01*
X233960Y192629D01*
X233996Y192727D01*
X234035Y192824D01*
X234077Y192919D01*
X234123Y193013D01*
X234173Y193105D01*
X234225Y193195D01*
X234281Y193283D01*
X234341Y193369D01*
X234403Y193453D01*
X234468Y193534D01*
X234536Y193613D01*
X234608Y193690D01*
X234681Y193763D01*
X234758Y193835D01*
X234837Y193903D01*
X234918Y193968D01*
X235002Y194030D01*
X235088Y194090D01*
X235176Y194146D01*
X235266Y194198D01*
X235358Y194248D01*
X235452Y194294D01*
X235547Y194336D01*
X235644Y194375D01*
X235742Y194411D01*
X235842Y194443D01*
X235942Y194471D01*
X236044Y194496D01*
X236146Y194516D01*
X236249Y194534D01*
X236352Y194547D01*
X236456Y194556D01*
X236561Y194562D01*
X236665Y194564D01*
X233807Y191706D02*
X233809Y191588D01*
X233815Y191469D01*
X233824Y191351D01*
X233837Y191234D01*
X233855Y191117D01*
X233875Y191000D01*
X233900Y190884D01*
X233928Y190769D01*
X233961Y190656D01*
X233996Y190543D01*
X234036Y190431D01*
X234078Y190321D01*
X234125Y190212D01*
X234175Y190104D01*
X234228Y189999D01*
X234285Y189895D01*
X234345Y189793D01*
X234408Y189693D01*
X234475Y189595D01*
X234544Y189499D01*
X234617Y189406D01*
X234693Y189315D01*
X234771Y189226D01*
X234853Y189140D01*
X234937Y189057D01*
X235023Y188976D01*
X235113Y188899D01*
X235204Y188824D01*
X235298Y188752D01*
X235395Y188683D01*
X235493Y188618D01*
X235594Y188555D01*
X235697Y188496D01*
X235801Y188440D01*
X235907Y188388D01*
X236015Y188339D01*
X236124Y188294D01*
X236235Y188252D01*
X236347Y188214D01*
X238887Y193612D02*
X238812Y193688D01*
X238733Y193763D01*
X238652Y193834D01*
X238568Y193903D01*
X238482Y193968D01*
X238394Y194030D01*
X238304Y194090D01*
X238212Y194146D01*
X238117Y194199D01*
X238021Y194248D01*
X237923Y194294D01*
X237824Y194337D01*
X237723Y194376D01*
X237621Y194411D01*
X237518Y194443D01*
X237414Y194471D01*
X237309Y194496D01*
X237202Y194517D01*
X237096Y194534D01*
X236989Y194547D01*
X236881Y194556D01*
X236773Y194562D01*
X236665Y194564D01*
X238887Y193611D02*
X245237Y188214D01*
X245237Y194564D01*
D12*
X262890Y607060D02*
X275590Y607060D01*
X281940Y600710D01*
X281940Y588010D01*
X275590Y581660D01*
X256540Y588010D02*
X256540Y600710D01*
X262890Y607060D01*
X256540Y588010D02*
X262890Y581660D01*
X275590Y581660D01*
D13*
X247777Y559943D02*
X247775Y560043D01*
X247769Y560142D01*
X247759Y560242D01*
X247746Y560340D01*
X247728Y560439D01*
X247707Y560536D01*
X247682Y560632D01*
X247653Y560728D01*
X247620Y560822D01*
X247584Y560915D01*
X247544Y561006D01*
X247500Y561096D01*
X247453Y561184D01*
X247403Y561270D01*
X247349Y561354D01*
X247292Y561436D01*
X247232Y561515D01*
X247168Y561593D01*
X247102Y561667D01*
X247033Y561739D01*
X246961Y561808D01*
X246887Y561874D01*
X246809Y561938D01*
X246730Y561998D01*
X246648Y562055D01*
X246564Y562109D01*
X246478Y562159D01*
X246390Y562206D01*
X246300Y562250D01*
X246209Y562290D01*
X246116Y562326D01*
X246022Y562359D01*
X245926Y562388D01*
X245830Y562413D01*
X245733Y562434D01*
X245634Y562452D01*
X245536Y562465D01*
X245436Y562475D01*
X245337Y562481D01*
X245237Y562483D01*
X247777Y559943D02*
X247775Y559802D01*
X247770Y559661D01*
X247760Y559520D01*
X247747Y559379D01*
X247731Y559239D01*
X247710Y559099D01*
X247686Y558960D01*
X247658Y558821D01*
X247627Y558684D01*
X247592Y558547D01*
X247554Y558411D01*
X247512Y558276D01*
X247466Y558143D01*
X247417Y558010D01*
X247364Y557879D01*
X247308Y557750D01*
X247249Y557621D01*
X247186Y557495D01*
X247120Y557370D01*
X247051Y557247D01*
X246978Y557126D01*
X246902Y557007D01*
X246823Y556889D01*
X246742Y556774D01*
X246657Y556662D01*
X246569Y556551D01*
X246478Y556443D01*
X246385Y556337D01*
X246288Y556234D01*
X246189Y556133D01*
X238887Y556451D02*
X238787Y556453D01*
X238688Y556459D01*
X238588Y556469D01*
X238490Y556482D01*
X238391Y556500D01*
X238294Y556521D01*
X238198Y556546D01*
X238102Y556575D01*
X238008Y556608D01*
X237915Y556644D01*
X237824Y556684D01*
X237734Y556728D01*
X237646Y556775D01*
X237560Y556825D01*
X237476Y556879D01*
X237394Y556936D01*
X237315Y556996D01*
X237237Y557060D01*
X237163Y557126D01*
X237091Y557195D01*
X237022Y557267D01*
X236956Y557341D01*
X236892Y557419D01*
X236832Y557498D01*
X236775Y557580D01*
X236721Y557664D01*
X236671Y557750D01*
X236624Y557838D01*
X236580Y557928D01*
X236540Y558019D01*
X236504Y558112D01*
X236471Y558206D01*
X236442Y558302D01*
X236417Y558398D01*
X236396Y558495D01*
X236378Y558594D01*
X236365Y558692D01*
X236355Y558792D01*
X236349Y558891D01*
X236347Y558991D01*
X236349Y559124D01*
X236354Y559257D01*
X236364Y559390D01*
X236377Y559523D01*
X236394Y559655D01*
X236414Y559787D01*
X236438Y559918D01*
X236466Y560048D01*
X236497Y560178D01*
X236532Y560306D01*
X236571Y560434D01*
X236613Y560560D01*
X236659Y560685D01*
X236708Y560809D01*
X236760Y560932D01*
X236816Y561053D01*
X236876Y561172D01*
X236938Y561290D01*
X237004Y561405D01*
X237073Y561519D01*
X237146Y561631D01*
X237221Y561741D01*
X237300Y561849D01*
X241110Y557720D02*
X241058Y557636D01*
X241003Y557553D01*
X240944Y557473D01*
X240883Y557395D01*
X240819Y557320D01*
X240751Y557247D01*
X240681Y557176D01*
X240609Y557109D01*
X240534Y557044D01*
X240456Y556982D01*
X240376Y556923D01*
X240294Y556867D01*
X240210Y556815D01*
X240124Y556766D01*
X240036Y556720D01*
X239946Y556677D01*
X239855Y556638D01*
X239762Y556603D01*
X239668Y556571D01*
X239573Y556543D01*
X239477Y556518D01*
X239380Y556498D01*
X239282Y556480D01*
X239184Y556467D01*
X239085Y556458D01*
X238986Y556452D01*
X238887Y556450D01*
X243014Y561213D02*
X243066Y561297D01*
X243121Y561380D01*
X243180Y561460D01*
X243241Y561538D01*
X243305Y561613D01*
X243373Y561686D01*
X243443Y561757D01*
X243515Y561824D01*
X243590Y561889D01*
X243668Y561951D01*
X243748Y562010D01*
X243830Y562066D01*
X243914Y562118D01*
X244000Y562167D01*
X244088Y562213D01*
X244178Y562256D01*
X244269Y562295D01*
X244362Y562330D01*
X244456Y562362D01*
X244551Y562390D01*
X244647Y562415D01*
X244744Y562435D01*
X244842Y562453D01*
X244940Y562466D01*
X245039Y562475D01*
X245138Y562481D01*
X245237Y562483D01*
X243015Y561213D02*
X241110Y557721D01*
X247777Y567588D02*
X247777Y572668D01*
X247777Y567588D02*
X236347Y567588D01*
X236347Y572668D01*
X241427Y571398D02*
X241427Y567588D01*
X236347Y577469D02*
X247777Y577469D01*
X247777Y583819D02*
X236347Y577469D01*
X236347Y583819D02*
X247777Y583819D01*
X247777Y592709D02*
X247775Y592809D01*
X247769Y592908D01*
X247759Y593008D01*
X247746Y593106D01*
X247728Y593205D01*
X247707Y593302D01*
X247682Y593398D01*
X247653Y593494D01*
X247620Y593588D01*
X247584Y593681D01*
X247544Y593772D01*
X247500Y593862D01*
X247453Y593950D01*
X247403Y594036D01*
X247349Y594120D01*
X247292Y594202D01*
X247232Y594281D01*
X247168Y594359D01*
X247102Y594433D01*
X247033Y594505D01*
X246961Y594574D01*
X246887Y594640D01*
X246809Y594704D01*
X246730Y594764D01*
X246648Y594821D01*
X246564Y594875D01*
X246478Y594925D01*
X246390Y594972D01*
X246300Y595016D01*
X246209Y595056D01*
X246116Y595092D01*
X246022Y595125D01*
X245926Y595154D01*
X245830Y595179D01*
X245733Y595200D01*
X245634Y595218D01*
X245536Y595231D01*
X245436Y595241D01*
X245337Y595247D01*
X245237Y595249D01*
X247777Y592709D02*
X247775Y592568D01*
X247770Y592427D01*
X247760Y592286D01*
X247747Y592145D01*
X247731Y592005D01*
X247710Y591865D01*
X247686Y591726D01*
X247658Y591587D01*
X247627Y591450D01*
X247592Y591313D01*
X247554Y591177D01*
X247512Y591042D01*
X247466Y590909D01*
X247417Y590776D01*
X247364Y590645D01*
X247308Y590516D01*
X247249Y590387D01*
X247186Y590261D01*
X247120Y590136D01*
X247051Y590013D01*
X246978Y589892D01*
X246902Y589773D01*
X246823Y589655D01*
X246742Y589540D01*
X246657Y589428D01*
X246569Y589317D01*
X246478Y589209D01*
X246385Y589103D01*
X246288Y589000D01*
X246189Y588899D01*
X238887Y589216D02*
X238787Y589218D01*
X238688Y589224D01*
X238588Y589234D01*
X238490Y589247D01*
X238391Y589265D01*
X238294Y589286D01*
X238198Y589311D01*
X238102Y589340D01*
X238008Y589373D01*
X237915Y589409D01*
X237824Y589449D01*
X237734Y589493D01*
X237646Y589540D01*
X237560Y589590D01*
X237476Y589644D01*
X237394Y589701D01*
X237315Y589761D01*
X237237Y589825D01*
X237163Y589891D01*
X237091Y589960D01*
X237022Y590032D01*
X236956Y590106D01*
X236892Y590184D01*
X236832Y590263D01*
X236775Y590345D01*
X236721Y590429D01*
X236671Y590515D01*
X236624Y590603D01*
X236580Y590693D01*
X236540Y590784D01*
X236504Y590877D01*
X236471Y590971D01*
X236442Y591067D01*
X236417Y591163D01*
X236396Y591260D01*
X236378Y591359D01*
X236365Y591457D01*
X236355Y591557D01*
X236349Y591656D01*
X236347Y591756D01*
X236349Y591889D01*
X236354Y592022D01*
X236364Y592155D01*
X236377Y592288D01*
X236394Y592420D01*
X236414Y592552D01*
X236438Y592683D01*
X236466Y592813D01*
X236497Y592943D01*
X236532Y593071D01*
X236571Y593199D01*
X236613Y593325D01*
X236659Y593450D01*
X236708Y593574D01*
X236760Y593697D01*
X236816Y593818D01*
X236876Y593937D01*
X236938Y594055D01*
X237004Y594170D01*
X237073Y594284D01*
X237146Y594396D01*
X237221Y594506D01*
X237300Y594614D01*
X241110Y590486D02*
X241058Y590402D01*
X241003Y590319D01*
X240944Y590239D01*
X240883Y590161D01*
X240819Y590086D01*
X240751Y590013D01*
X240681Y589942D01*
X240609Y589875D01*
X240534Y589810D01*
X240456Y589748D01*
X240376Y589689D01*
X240294Y589633D01*
X240210Y589581D01*
X240124Y589532D01*
X240036Y589486D01*
X239946Y589443D01*
X239855Y589404D01*
X239762Y589369D01*
X239668Y589337D01*
X239573Y589309D01*
X239477Y589284D01*
X239380Y589264D01*
X239282Y589246D01*
X239184Y589233D01*
X239085Y589224D01*
X238986Y589218D01*
X238887Y589216D01*
X243014Y593979D02*
X243066Y594063D01*
X243121Y594146D01*
X243180Y594226D01*
X243241Y594304D01*
X243305Y594379D01*
X243373Y594452D01*
X243443Y594523D01*
X243515Y594590D01*
X243590Y594655D01*
X243668Y594717D01*
X243748Y594776D01*
X243830Y594832D01*
X243914Y594884D01*
X244000Y594933D01*
X244088Y594979D01*
X244178Y595022D01*
X244269Y595061D01*
X244362Y595096D01*
X244456Y595128D01*
X244551Y595156D01*
X244647Y595181D01*
X244744Y595201D01*
X244842Y595219D01*
X244940Y595232D01*
X245039Y595241D01*
X245138Y595247D01*
X245237Y595249D01*
X243015Y593979D02*
X241110Y590486D01*
X247777Y600354D02*
X247777Y605434D01*
X247777Y600354D02*
X236347Y600354D01*
X236347Y605434D01*
X241427Y604164D02*
X241427Y600354D01*
X238887Y609854D02*
X236347Y613029D01*
X247777Y613029D01*
X247777Y609854D02*
X247777Y616204D01*
D12*
X59690Y683260D02*
X46990Y683260D01*
X59690Y683260D02*
X66040Y676910D01*
X66040Y664210D01*
X59690Y657860D01*
X40640Y664210D02*
X40640Y676910D01*
X46990Y683260D01*
X40640Y664210D02*
X46990Y657860D01*
X59690Y657860D01*
D13*
X37973Y650113D02*
X30353Y638683D01*
X37973Y638683D02*
X30353Y650113D01*
X44831Y650113D02*
X44831Y638683D01*
X41656Y650113D02*
X48006Y650113D01*
X52788Y650113D02*
X52788Y638683D01*
X52788Y650113D02*
X55963Y650113D01*
X56074Y650111D01*
X56184Y650105D01*
X56295Y650096D01*
X56405Y650082D01*
X56514Y650065D01*
X56623Y650044D01*
X56731Y650019D01*
X56838Y649990D01*
X56944Y649958D01*
X57049Y649922D01*
X57152Y649882D01*
X57254Y649839D01*
X57355Y649792D01*
X57454Y649741D01*
X57551Y649688D01*
X57645Y649631D01*
X57738Y649570D01*
X57829Y649507D01*
X57918Y649440D01*
X58004Y649370D01*
X58087Y649297D01*
X58169Y649222D01*
X58247Y649144D01*
X58322Y649062D01*
X58395Y648979D01*
X58465Y648893D01*
X58532Y648804D01*
X58595Y648713D01*
X58656Y648620D01*
X58713Y648525D01*
X58766Y648429D01*
X58817Y648330D01*
X58864Y648229D01*
X58907Y648127D01*
X58947Y648024D01*
X58983Y647919D01*
X59015Y647813D01*
X59044Y647706D01*
X59069Y647598D01*
X59090Y647489D01*
X59107Y647380D01*
X59121Y647270D01*
X59130Y647159D01*
X59136Y647049D01*
X59138Y646938D01*
X59136Y646827D01*
X59130Y646717D01*
X59121Y646606D01*
X59107Y646496D01*
X59090Y646387D01*
X59069Y646278D01*
X59044Y646170D01*
X59015Y646063D01*
X58983Y645957D01*
X58947Y645852D01*
X58907Y645749D01*
X58864Y645647D01*
X58817Y645546D01*
X58766Y645447D01*
X58713Y645351D01*
X58656Y645256D01*
X58595Y645163D01*
X58532Y645072D01*
X58465Y644983D01*
X58395Y644897D01*
X58322Y644814D01*
X58247Y644732D01*
X58169Y644654D01*
X58087Y644579D01*
X58004Y644506D01*
X57918Y644436D01*
X57829Y644369D01*
X57738Y644306D01*
X57645Y644245D01*
X57550Y644188D01*
X57454Y644135D01*
X57355Y644084D01*
X57254Y644037D01*
X57152Y643994D01*
X57049Y643954D01*
X56944Y643918D01*
X56838Y643886D01*
X56731Y643857D01*
X56623Y643832D01*
X56514Y643811D01*
X56405Y643794D01*
X56295Y643780D01*
X56184Y643771D01*
X56074Y643765D01*
X55963Y643763D01*
X52788Y643763D01*
X56598Y643763D02*
X59138Y638683D01*
X63500Y638683D02*
X67310Y650113D01*
X71120Y638683D01*
X70167Y641541D02*
X64452Y641541D01*
X75057Y637413D02*
X80137Y637413D01*
X85280Y638683D02*
X85280Y650113D01*
X88455Y650113D01*
X88566Y650111D01*
X88676Y650105D01*
X88787Y650096D01*
X88897Y650082D01*
X89006Y650065D01*
X89115Y650044D01*
X89223Y650019D01*
X89330Y649990D01*
X89436Y649958D01*
X89541Y649922D01*
X89644Y649882D01*
X89746Y649839D01*
X89847Y649792D01*
X89946Y649741D01*
X90043Y649688D01*
X90137Y649631D01*
X90230Y649570D01*
X90321Y649507D01*
X90410Y649440D01*
X90496Y649370D01*
X90579Y649297D01*
X90661Y649222D01*
X90739Y649144D01*
X90814Y649062D01*
X90887Y648979D01*
X90957Y648893D01*
X91024Y648804D01*
X91087Y648713D01*
X91148Y648620D01*
X91205Y648525D01*
X91258Y648429D01*
X91309Y648330D01*
X91356Y648229D01*
X91399Y648127D01*
X91439Y648024D01*
X91475Y647919D01*
X91507Y647813D01*
X91536Y647706D01*
X91561Y647598D01*
X91582Y647489D01*
X91599Y647380D01*
X91613Y647270D01*
X91622Y647159D01*
X91628Y647049D01*
X91630Y646938D01*
X91628Y646827D01*
X91622Y646717D01*
X91613Y646606D01*
X91599Y646496D01*
X91582Y646387D01*
X91561Y646278D01*
X91536Y646170D01*
X91507Y646063D01*
X91475Y645957D01*
X91439Y645852D01*
X91399Y645749D01*
X91356Y645647D01*
X91309Y645546D01*
X91258Y645447D01*
X91205Y645351D01*
X91148Y645256D01*
X91087Y645163D01*
X91024Y645072D01*
X90957Y644983D01*
X90887Y644897D01*
X90814Y644814D01*
X90739Y644732D01*
X90661Y644654D01*
X90579Y644579D01*
X90496Y644506D01*
X90410Y644436D01*
X90321Y644369D01*
X90230Y644306D01*
X90137Y644245D01*
X90042Y644188D01*
X89946Y644135D01*
X89847Y644084D01*
X89746Y644037D01*
X89644Y643994D01*
X89541Y643954D01*
X89436Y643918D01*
X89330Y643886D01*
X89223Y643857D01*
X89115Y643832D01*
X89006Y643811D01*
X88897Y643794D01*
X88787Y643780D01*
X88676Y643771D01*
X88566Y643765D01*
X88455Y643763D01*
X85280Y643763D01*
X97028Y638683D02*
X97028Y650113D01*
X95758Y638683D02*
X98298Y638683D01*
X98298Y650113D02*
X95758Y650113D01*
X103378Y650113D02*
X103378Y638683D01*
X109728Y638683D02*
X103378Y650113D01*
X109728Y650113D02*
X109728Y638683D01*
D14*
X721614Y51976D03*
X721614Y71976D03*
X556514Y144178D03*
X556514Y164178D03*
X721360Y233586D03*
X721360Y253586D03*
X556514Y325026D03*
X556514Y345026D03*
X721614Y415450D03*
X721614Y435450D03*
X556768Y506382D03*
X556768Y526382D03*
X721614Y598330D03*
X721614Y618330D03*
X556768Y686976D03*
X556768Y706976D03*
X721360Y778670D03*
X721360Y798670D03*
X557022Y868332D03*
X557022Y888332D03*
X409702Y868492D03*
X409702Y888492D03*
X409702Y908492D03*
X574040Y778830D03*
X574040Y798830D03*
X574040Y818830D03*
X409448Y687136D03*
X409448Y707136D03*
X409448Y727136D03*
X574294Y598490D03*
X574294Y618490D03*
X574294Y638490D03*
X409448Y506542D03*
X409448Y526542D03*
X409448Y546542D03*
X574294Y415610D03*
X574294Y435610D03*
X574294Y455610D03*
X409194Y325186D03*
X409194Y345186D03*
X409194Y365186D03*
X574040Y233746D03*
X574040Y253746D03*
X574040Y273746D03*
X409194Y144338D03*
X409194Y164338D03*
X409194Y184338D03*
X574294Y52136D03*
X574294Y72136D03*
X574294Y92136D03*
D12*
X803910Y167640D02*
X816610Y167640D01*
X822960Y161290D01*
X822960Y148590D01*
X816610Y142240D01*
X797560Y148590D02*
X797560Y161290D01*
X803910Y167640D01*
X797560Y148590D02*
X803910Y142240D01*
X816610Y142240D01*
D13*
X765937Y158877D02*
X762762Y156337D01*
X765937Y158877D02*
X765937Y147447D01*
X762762Y147447D02*
X769112Y147447D01*
X780543Y156020D02*
X780541Y156124D01*
X780535Y156229D01*
X780526Y156333D01*
X780513Y156436D01*
X780495Y156539D01*
X780475Y156641D01*
X780450Y156743D01*
X780422Y156843D01*
X780390Y156943D01*
X780354Y157041D01*
X780315Y157138D01*
X780273Y157233D01*
X780227Y157327D01*
X780177Y157419D01*
X780125Y157509D01*
X780069Y157597D01*
X780009Y157683D01*
X779947Y157767D01*
X779882Y157848D01*
X779814Y157927D01*
X779742Y158004D01*
X779669Y158077D01*
X779592Y158149D01*
X779513Y158217D01*
X779432Y158282D01*
X779348Y158344D01*
X779262Y158404D01*
X779174Y158460D01*
X779084Y158512D01*
X778992Y158562D01*
X778898Y158608D01*
X778803Y158650D01*
X778706Y158689D01*
X778608Y158725D01*
X778508Y158757D01*
X778408Y158785D01*
X778306Y158810D01*
X778204Y158830D01*
X778101Y158848D01*
X777998Y158861D01*
X777894Y158870D01*
X777789Y158876D01*
X777685Y158878D01*
X777685Y158877D02*
X777567Y158875D01*
X777448Y158869D01*
X777330Y158860D01*
X777213Y158847D01*
X777096Y158829D01*
X776979Y158809D01*
X776863Y158784D01*
X776748Y158756D01*
X776635Y158723D01*
X776522Y158688D01*
X776410Y158648D01*
X776300Y158606D01*
X776191Y158559D01*
X776083Y158509D01*
X775978Y158456D01*
X775874Y158399D01*
X775772Y158339D01*
X775672Y158276D01*
X775574Y158209D01*
X775478Y158140D01*
X775385Y158067D01*
X775294Y157991D01*
X775205Y157913D01*
X775119Y157831D01*
X775036Y157747D01*
X774955Y157661D01*
X774878Y157571D01*
X774803Y157480D01*
X774731Y157386D01*
X774662Y157289D01*
X774597Y157191D01*
X774534Y157090D01*
X774475Y156987D01*
X774419Y156883D01*
X774367Y156777D01*
X774318Y156669D01*
X774273Y156560D01*
X774231Y156449D01*
X774193Y156337D01*
X779590Y153798D02*
X779666Y153873D01*
X779741Y153952D01*
X779812Y154033D01*
X779881Y154117D01*
X779946Y154203D01*
X780008Y154291D01*
X780068Y154381D01*
X780124Y154473D01*
X780177Y154568D01*
X780226Y154664D01*
X780272Y154762D01*
X780315Y154861D01*
X780354Y154962D01*
X780389Y155064D01*
X780421Y155167D01*
X780449Y155271D01*
X780474Y155376D01*
X780495Y155483D01*
X780512Y155589D01*
X780525Y155696D01*
X780534Y155804D01*
X780540Y155912D01*
X780542Y156020D01*
X779590Y153797D02*
X774192Y147447D01*
X780542Y147447D01*
X788797Y147447D02*
X784987Y158877D01*
X792607Y158877D02*
X788797Y147447D01*
D12*
X760730Y342900D02*
X748030Y342900D01*
X760730Y342900D02*
X767080Y336550D01*
X767080Y323850D01*
X760730Y317500D01*
X741680Y323850D02*
X741680Y336550D01*
X748030Y342900D01*
X741680Y323850D02*
X748030Y317500D01*
X760730Y317500D01*
D13*
X737997Y319913D02*
X726567Y323723D01*
X737997Y327533D01*
X735140Y326581D02*
X735140Y320866D01*
X731647Y336804D02*
X731647Y338709D01*
X737997Y338709D01*
X737997Y334899D01*
X737995Y334799D01*
X737989Y334700D01*
X737979Y334600D01*
X737966Y334502D01*
X737948Y334403D01*
X737927Y334306D01*
X737902Y334210D01*
X737873Y334114D01*
X737840Y334020D01*
X737804Y333927D01*
X737764Y333836D01*
X737720Y333746D01*
X737673Y333658D01*
X737623Y333572D01*
X737569Y333488D01*
X737512Y333406D01*
X737452Y333327D01*
X737388Y333249D01*
X737322Y333175D01*
X737253Y333103D01*
X737181Y333034D01*
X737107Y332968D01*
X737029Y332904D01*
X736950Y332844D01*
X736868Y332787D01*
X736784Y332733D01*
X736698Y332683D01*
X736610Y332636D01*
X736520Y332592D01*
X736429Y332552D01*
X736336Y332516D01*
X736242Y332483D01*
X736146Y332454D01*
X736050Y332429D01*
X735953Y332408D01*
X735854Y332390D01*
X735756Y332377D01*
X735656Y332367D01*
X735557Y332361D01*
X735457Y332359D01*
X729107Y332359D01*
X729007Y332361D01*
X728908Y332367D01*
X728808Y332377D01*
X728710Y332390D01*
X728611Y332408D01*
X728514Y332429D01*
X728418Y332454D01*
X728322Y332483D01*
X728228Y332516D01*
X728135Y332552D01*
X728044Y332592D01*
X727954Y332636D01*
X727866Y332683D01*
X727780Y332733D01*
X727696Y332787D01*
X727614Y332844D01*
X727535Y332904D01*
X727457Y332968D01*
X727383Y333034D01*
X727311Y333103D01*
X727242Y333175D01*
X727176Y333249D01*
X727112Y333327D01*
X727052Y333406D01*
X726995Y333488D01*
X726941Y333572D01*
X726891Y333658D01*
X726844Y333746D01*
X726800Y333836D01*
X726760Y333927D01*
X726724Y334020D01*
X726691Y334114D01*
X726662Y334210D01*
X726637Y334306D01*
X726616Y334403D01*
X726598Y334502D01*
X726585Y334600D01*
X726575Y334700D01*
X726569Y334799D01*
X726567Y334899D01*
X726567Y338709D01*
X726567Y344551D02*
X737997Y344551D01*
X737997Y350901D02*
X726567Y344551D01*
X726567Y350901D02*
X737997Y350901D01*
X737997Y356743D02*
X726567Y356743D01*
X726567Y359918D01*
X726569Y360029D01*
X726575Y360139D01*
X726584Y360250D01*
X726598Y360360D01*
X726615Y360469D01*
X726636Y360578D01*
X726661Y360686D01*
X726690Y360793D01*
X726722Y360899D01*
X726758Y361004D01*
X726798Y361107D01*
X726841Y361209D01*
X726888Y361310D01*
X726939Y361409D01*
X726992Y361506D01*
X727049Y361600D01*
X727110Y361693D01*
X727173Y361784D01*
X727240Y361873D01*
X727310Y361959D01*
X727383Y362042D01*
X727458Y362124D01*
X727536Y362202D01*
X727618Y362277D01*
X727701Y362350D01*
X727787Y362420D01*
X727876Y362487D01*
X727967Y362550D01*
X728060Y362611D01*
X728155Y362668D01*
X728251Y362721D01*
X728350Y362772D01*
X728451Y362819D01*
X728553Y362862D01*
X728656Y362902D01*
X728761Y362938D01*
X728867Y362970D01*
X728974Y362999D01*
X729082Y363024D01*
X729191Y363045D01*
X729300Y363062D01*
X729410Y363076D01*
X729521Y363085D01*
X729631Y363091D01*
X729742Y363093D01*
X734822Y363093D01*
X734933Y363091D01*
X735043Y363085D01*
X735154Y363076D01*
X735264Y363062D01*
X735373Y363045D01*
X735482Y363024D01*
X735590Y362999D01*
X735697Y362970D01*
X735803Y362938D01*
X735908Y362902D01*
X736011Y362862D01*
X736113Y362819D01*
X736214Y362772D01*
X736313Y362721D01*
X736410Y362668D01*
X736504Y362611D01*
X736597Y362550D01*
X736688Y362487D01*
X736777Y362420D01*
X736863Y362350D01*
X736946Y362277D01*
X737028Y362202D01*
X737106Y362124D01*
X737181Y362042D01*
X737254Y361959D01*
X737324Y361873D01*
X737391Y361784D01*
X737454Y361693D01*
X737515Y361600D01*
X737572Y361506D01*
X737625Y361409D01*
X737676Y361310D01*
X737723Y361209D01*
X737766Y361107D01*
X737806Y361004D01*
X737842Y360899D01*
X737874Y360793D01*
X737903Y360686D01*
X737928Y360578D01*
X737949Y360469D01*
X737966Y360360D01*
X737980Y360250D01*
X737989Y360139D01*
X737995Y360029D01*
X737997Y359918D01*
X737997Y356743D01*
D12*
X869950Y66040D02*
X882650Y66040D01*
X889000Y59690D01*
X889000Y46990D01*
X882650Y40640D01*
X863600Y46990D02*
X863600Y59690D01*
X869950Y66040D01*
X863600Y46990D02*
X869950Y40640D01*
X882650Y40640D01*
D13*
X835025Y45847D02*
X831215Y45847D01*
X831115Y45849D01*
X831016Y45855D01*
X830916Y45865D01*
X830818Y45878D01*
X830719Y45896D01*
X830622Y45917D01*
X830526Y45942D01*
X830430Y45971D01*
X830336Y46004D01*
X830243Y46040D01*
X830152Y46080D01*
X830062Y46124D01*
X829974Y46171D01*
X829888Y46221D01*
X829804Y46275D01*
X829722Y46332D01*
X829643Y46392D01*
X829565Y46456D01*
X829491Y46522D01*
X829419Y46591D01*
X829350Y46663D01*
X829284Y46737D01*
X829220Y46815D01*
X829160Y46894D01*
X829103Y46976D01*
X829049Y47060D01*
X828999Y47146D01*
X828952Y47234D01*
X828908Y47324D01*
X828868Y47415D01*
X828832Y47508D01*
X828799Y47602D01*
X828770Y47698D01*
X828745Y47794D01*
X828724Y47891D01*
X828706Y47990D01*
X828693Y48088D01*
X828683Y48188D01*
X828677Y48287D01*
X828675Y48387D01*
X828675Y49022D01*
X828677Y49133D01*
X828683Y49243D01*
X828692Y49354D01*
X828706Y49464D01*
X828723Y49573D01*
X828744Y49682D01*
X828769Y49790D01*
X828798Y49897D01*
X828830Y50003D01*
X828866Y50108D01*
X828906Y50211D01*
X828949Y50313D01*
X828996Y50414D01*
X829047Y50513D01*
X829100Y50609D01*
X829157Y50704D01*
X829218Y50797D01*
X829281Y50888D01*
X829348Y50977D01*
X829418Y51063D01*
X829491Y51146D01*
X829566Y51228D01*
X829644Y51306D01*
X829726Y51381D01*
X829809Y51454D01*
X829895Y51524D01*
X829984Y51591D01*
X830075Y51654D01*
X830168Y51715D01*
X830263Y51772D01*
X830359Y51825D01*
X830458Y51876D01*
X830559Y51923D01*
X830661Y51966D01*
X830764Y52006D01*
X830869Y52042D01*
X830975Y52074D01*
X831082Y52103D01*
X831190Y52128D01*
X831299Y52149D01*
X831408Y52166D01*
X831518Y52180D01*
X831629Y52189D01*
X831739Y52195D01*
X831850Y52197D01*
X831961Y52195D01*
X832071Y52189D01*
X832182Y52180D01*
X832292Y52166D01*
X832401Y52149D01*
X832510Y52128D01*
X832618Y52103D01*
X832725Y52074D01*
X832831Y52042D01*
X832936Y52006D01*
X833039Y51966D01*
X833141Y51923D01*
X833242Y51876D01*
X833341Y51825D01*
X833438Y51772D01*
X833532Y51715D01*
X833625Y51654D01*
X833716Y51591D01*
X833805Y51524D01*
X833891Y51454D01*
X833974Y51381D01*
X834056Y51306D01*
X834134Y51228D01*
X834209Y51146D01*
X834282Y51063D01*
X834352Y50977D01*
X834419Y50888D01*
X834482Y50797D01*
X834543Y50704D01*
X834600Y50610D01*
X834653Y50513D01*
X834704Y50414D01*
X834751Y50313D01*
X834794Y50211D01*
X834834Y50108D01*
X834870Y50003D01*
X834902Y49897D01*
X834931Y49790D01*
X834956Y49682D01*
X834977Y49573D01*
X834994Y49464D01*
X835008Y49354D01*
X835017Y49243D01*
X835023Y49133D01*
X835025Y49022D01*
X835025Y45847D01*
X835023Y45707D01*
X835017Y45567D01*
X835008Y45427D01*
X834994Y45288D01*
X834977Y45149D01*
X834956Y45011D01*
X834931Y44873D01*
X834902Y44736D01*
X834870Y44600D01*
X834833Y44465D01*
X834793Y44331D01*
X834750Y44198D01*
X834702Y44066D01*
X834652Y43935D01*
X834597Y43806D01*
X834539Y43679D01*
X834478Y43553D01*
X834413Y43429D01*
X834344Y43307D01*
X834273Y43187D01*
X834198Y43069D01*
X834120Y42952D01*
X834038Y42838D01*
X833954Y42727D01*
X833866Y42618D01*
X833776Y42511D01*
X833682Y42406D01*
X833586Y42305D01*
X833487Y42206D01*
X833386Y42110D01*
X833281Y42016D01*
X833174Y41926D01*
X833065Y41838D01*
X832954Y41754D01*
X832840Y41672D01*
X832723Y41594D01*
X832605Y41519D01*
X832485Y41448D01*
X832363Y41379D01*
X832239Y41314D01*
X832113Y41253D01*
X831986Y41195D01*
X831857Y41140D01*
X831726Y41090D01*
X831594Y41042D01*
X831461Y40999D01*
X831327Y40959D01*
X831192Y40922D01*
X831056Y40890D01*
X830919Y40861D01*
X830781Y40836D01*
X830643Y40815D01*
X830504Y40798D01*
X830365Y40784D01*
X830225Y40775D01*
X830085Y40769D01*
X829945Y40767D01*
X843280Y40767D02*
X839470Y52197D01*
X847090Y52197D02*
X843280Y40767D01*
X851027Y39497D02*
X856107Y39497D01*
D12*
X760730Y228600D02*
X748030Y228600D01*
X760730Y228600D02*
X767080Y222250D01*
X767080Y209550D01*
X760730Y203200D01*
X741680Y209550D02*
X741680Y222250D01*
X748030Y228600D01*
X741680Y209550D02*
X748030Y203200D01*
X760730Y203200D01*
D14*
X1288034Y111302D03*
X1288034Y131302D03*
X1122934Y202281D03*
X1122934Y222281D03*
X1287780Y292641D03*
X1287780Y312641D03*
X1122934Y385034D03*
X1122934Y405034D03*
X1288034Y476410D03*
X1288034Y496410D03*
X1123188Y567342D03*
X1123188Y587342D03*
X1288034Y660243D03*
X1288034Y680243D03*
X1123188Y749841D03*
X1123188Y769841D03*
X1287780Y842488D03*
X1287780Y862488D03*
X1123442Y933102D03*
X1123442Y953102D03*
X976122Y933262D03*
X976122Y953262D03*
X976122Y973262D03*
X1140460Y842648D03*
X1140460Y862648D03*
X1140460Y882648D03*
X975868Y750001D03*
X975868Y770001D03*
X975868Y790001D03*
X1140714Y660403D03*
X1140714Y680403D03*
X1140714Y700403D03*
X975868Y567502D03*
X975868Y587502D03*
X975868Y607502D03*
X1140714Y476570D03*
X1140714Y496570D03*
X1140714Y516570D03*
X975614Y385194D03*
X975614Y405194D03*
X975614Y425194D03*
X1140460Y292801D03*
X1140460Y312801D03*
X1140460Y332801D03*
X975614Y202441D03*
X975614Y222441D03*
X975614Y242441D03*
X1140714Y113096D03*
X1140714Y133096D03*
X1140714Y153096D03*
D12*
X1370330Y101600D02*
X1383030Y101600D01*
X1389380Y95250D01*
X1389380Y82550D01*
X1383030Y76200D01*
X1363980Y82550D02*
X1363980Y95250D01*
X1370330Y101600D01*
X1363980Y82550D02*
X1370330Y76200D01*
X1383030Y76200D01*
D13*
X1397127Y92837D02*
X1400302Y95377D01*
X1400302Y83947D01*
X1397127Y83947D02*
X1403477Y83947D01*
X1414908Y92520D02*
X1414906Y92624D01*
X1414900Y92729D01*
X1414891Y92833D01*
X1414878Y92936D01*
X1414860Y93039D01*
X1414840Y93141D01*
X1414815Y93243D01*
X1414787Y93343D01*
X1414755Y93443D01*
X1414719Y93541D01*
X1414680Y93638D01*
X1414638Y93733D01*
X1414592Y93827D01*
X1414542Y93919D01*
X1414490Y94009D01*
X1414434Y94097D01*
X1414374Y94183D01*
X1414312Y94267D01*
X1414247Y94348D01*
X1414179Y94427D01*
X1414107Y94504D01*
X1414034Y94577D01*
X1413957Y94649D01*
X1413878Y94717D01*
X1413797Y94782D01*
X1413713Y94844D01*
X1413627Y94904D01*
X1413539Y94960D01*
X1413449Y95012D01*
X1413357Y95062D01*
X1413263Y95108D01*
X1413168Y95150D01*
X1413071Y95189D01*
X1412973Y95225D01*
X1412873Y95257D01*
X1412773Y95285D01*
X1412671Y95310D01*
X1412569Y95330D01*
X1412466Y95348D01*
X1412363Y95361D01*
X1412259Y95370D01*
X1412154Y95376D01*
X1412050Y95378D01*
X1412050Y95377D02*
X1411932Y95375D01*
X1411813Y95369D01*
X1411695Y95360D01*
X1411578Y95347D01*
X1411461Y95329D01*
X1411344Y95309D01*
X1411228Y95284D01*
X1411113Y95256D01*
X1411000Y95223D01*
X1410887Y95188D01*
X1410775Y95148D01*
X1410665Y95106D01*
X1410556Y95059D01*
X1410448Y95009D01*
X1410343Y94956D01*
X1410239Y94899D01*
X1410137Y94839D01*
X1410037Y94776D01*
X1409939Y94709D01*
X1409843Y94640D01*
X1409750Y94567D01*
X1409659Y94491D01*
X1409570Y94413D01*
X1409484Y94331D01*
X1409401Y94247D01*
X1409320Y94161D01*
X1409243Y94071D01*
X1409168Y93980D01*
X1409096Y93886D01*
X1409027Y93789D01*
X1408962Y93691D01*
X1408899Y93590D01*
X1408840Y93487D01*
X1408784Y93383D01*
X1408732Y93277D01*
X1408683Y93169D01*
X1408638Y93060D01*
X1408596Y92949D01*
X1408558Y92837D01*
X1413955Y90298D02*
X1414031Y90373D01*
X1414106Y90452D01*
X1414177Y90533D01*
X1414246Y90617D01*
X1414311Y90703D01*
X1414373Y90791D01*
X1414433Y90881D01*
X1414489Y90973D01*
X1414542Y91068D01*
X1414591Y91164D01*
X1414637Y91262D01*
X1414680Y91361D01*
X1414719Y91462D01*
X1414754Y91564D01*
X1414786Y91667D01*
X1414814Y91771D01*
X1414839Y91876D01*
X1414860Y91983D01*
X1414877Y92089D01*
X1414890Y92196D01*
X1414899Y92304D01*
X1414905Y92412D01*
X1414907Y92520D01*
X1413955Y90297D02*
X1408557Y83947D01*
X1414907Y83947D01*
X1423162Y83947D02*
X1419352Y95377D01*
X1426972Y95377D02*
X1423162Y83947D01*
X1431417Y92837D02*
X1434592Y95377D01*
X1434592Y83947D01*
X1431417Y83947D02*
X1437767Y83947D01*
D12*
X1438910Y568960D02*
X1451610Y568960D01*
X1457960Y562610D01*
X1457960Y549910D01*
X1451610Y543560D01*
X1432560Y549910D02*
X1432560Y562610D01*
X1438910Y568960D01*
X1432560Y549910D02*
X1438910Y543560D01*
X1451610Y543560D01*
D13*
X1440307Y483743D02*
X1451737Y479933D01*
X1451737Y487553D02*
X1440307Y483743D01*
X1448880Y486601D02*
X1448880Y480886D01*
X1445387Y496824D02*
X1445387Y498729D01*
X1451737Y498729D01*
X1451737Y494919D01*
X1451735Y494819D01*
X1451729Y494720D01*
X1451719Y494620D01*
X1451706Y494522D01*
X1451688Y494423D01*
X1451667Y494326D01*
X1451642Y494230D01*
X1451613Y494134D01*
X1451580Y494040D01*
X1451544Y493947D01*
X1451504Y493856D01*
X1451460Y493766D01*
X1451413Y493678D01*
X1451363Y493592D01*
X1451309Y493508D01*
X1451252Y493426D01*
X1451192Y493347D01*
X1451128Y493269D01*
X1451062Y493195D01*
X1450993Y493123D01*
X1450921Y493054D01*
X1450847Y492988D01*
X1450769Y492924D01*
X1450690Y492864D01*
X1450608Y492807D01*
X1450524Y492753D01*
X1450438Y492703D01*
X1450350Y492656D01*
X1450260Y492612D01*
X1450169Y492572D01*
X1450076Y492536D01*
X1449982Y492503D01*
X1449886Y492474D01*
X1449790Y492449D01*
X1449693Y492428D01*
X1449594Y492410D01*
X1449496Y492397D01*
X1449396Y492387D01*
X1449297Y492381D01*
X1449197Y492379D01*
X1442847Y492379D01*
X1442747Y492381D01*
X1442648Y492387D01*
X1442548Y492397D01*
X1442450Y492410D01*
X1442351Y492428D01*
X1442254Y492449D01*
X1442158Y492474D01*
X1442062Y492503D01*
X1441968Y492536D01*
X1441875Y492572D01*
X1441784Y492612D01*
X1441694Y492656D01*
X1441606Y492703D01*
X1441520Y492753D01*
X1441436Y492807D01*
X1441354Y492864D01*
X1441275Y492924D01*
X1441197Y492988D01*
X1441123Y493054D01*
X1441051Y493123D01*
X1440982Y493195D01*
X1440916Y493269D01*
X1440852Y493347D01*
X1440792Y493426D01*
X1440735Y493508D01*
X1440681Y493592D01*
X1440631Y493678D01*
X1440584Y493766D01*
X1440540Y493856D01*
X1440500Y493947D01*
X1440464Y494040D01*
X1440431Y494134D01*
X1440402Y494230D01*
X1440377Y494326D01*
X1440356Y494423D01*
X1440338Y494522D01*
X1440325Y494620D01*
X1440315Y494720D01*
X1440309Y494819D01*
X1440307Y494919D01*
X1440307Y498729D01*
X1440307Y504571D02*
X1451737Y504571D01*
X1451737Y510921D02*
X1440307Y504571D01*
X1440307Y510921D02*
X1451737Y510921D01*
X1451737Y516763D02*
X1440307Y516763D01*
X1440307Y519938D01*
X1440309Y520049D01*
X1440315Y520159D01*
X1440324Y520270D01*
X1440338Y520380D01*
X1440355Y520489D01*
X1440376Y520598D01*
X1440401Y520706D01*
X1440430Y520813D01*
X1440462Y520919D01*
X1440498Y521024D01*
X1440538Y521127D01*
X1440581Y521229D01*
X1440628Y521330D01*
X1440679Y521429D01*
X1440732Y521526D01*
X1440789Y521620D01*
X1440850Y521713D01*
X1440913Y521804D01*
X1440980Y521893D01*
X1441050Y521979D01*
X1441123Y522062D01*
X1441198Y522144D01*
X1441276Y522222D01*
X1441358Y522297D01*
X1441441Y522370D01*
X1441527Y522440D01*
X1441616Y522507D01*
X1441707Y522570D01*
X1441800Y522631D01*
X1441895Y522688D01*
X1441991Y522741D01*
X1442090Y522792D01*
X1442191Y522839D01*
X1442293Y522882D01*
X1442396Y522922D01*
X1442501Y522958D01*
X1442607Y522990D01*
X1442714Y523019D01*
X1442822Y523044D01*
X1442931Y523065D01*
X1443040Y523082D01*
X1443150Y523096D01*
X1443261Y523105D01*
X1443371Y523111D01*
X1443482Y523113D01*
X1448562Y523113D01*
X1448673Y523111D01*
X1448783Y523105D01*
X1448894Y523096D01*
X1449004Y523082D01*
X1449113Y523065D01*
X1449222Y523044D01*
X1449330Y523019D01*
X1449437Y522990D01*
X1449543Y522958D01*
X1449648Y522922D01*
X1449751Y522882D01*
X1449853Y522839D01*
X1449954Y522792D01*
X1450053Y522741D01*
X1450150Y522688D01*
X1450244Y522631D01*
X1450337Y522570D01*
X1450428Y522507D01*
X1450517Y522440D01*
X1450603Y522370D01*
X1450686Y522297D01*
X1450768Y522222D01*
X1450846Y522144D01*
X1450921Y522062D01*
X1450994Y521979D01*
X1451064Y521893D01*
X1451131Y521804D01*
X1451194Y521713D01*
X1451255Y521620D01*
X1451312Y521526D01*
X1451365Y521429D01*
X1451416Y521330D01*
X1451463Y521229D01*
X1451506Y521127D01*
X1451546Y521024D01*
X1451582Y520919D01*
X1451614Y520813D01*
X1451643Y520706D01*
X1451668Y520598D01*
X1451689Y520489D01*
X1451706Y520380D01*
X1451720Y520270D01*
X1451729Y520159D01*
X1451735Y520049D01*
X1451737Y519938D01*
X1451737Y516763D01*
X1449197Y528574D02*
X1440307Y531114D01*
X1449197Y528574D02*
X1449197Y534924D01*
X1446657Y533019D02*
X1451737Y533019D01*
D12*
X1423670Y759460D02*
X1410970Y759460D01*
X1423670Y759460D02*
X1430020Y753110D01*
X1430020Y740410D01*
X1423670Y734060D01*
X1404620Y740410D02*
X1404620Y753110D01*
X1410970Y759460D01*
X1404620Y740410D02*
X1410970Y734060D01*
X1423670Y734060D01*
D13*
X1414653Y694563D02*
X1414653Y690753D01*
X1414651Y690653D01*
X1414645Y690554D01*
X1414635Y690454D01*
X1414622Y690356D01*
X1414604Y690257D01*
X1414583Y690160D01*
X1414558Y690064D01*
X1414529Y689968D01*
X1414496Y689874D01*
X1414460Y689781D01*
X1414420Y689690D01*
X1414376Y689600D01*
X1414329Y689512D01*
X1414279Y689426D01*
X1414225Y689342D01*
X1414168Y689260D01*
X1414108Y689181D01*
X1414044Y689103D01*
X1413978Y689029D01*
X1413909Y688957D01*
X1413837Y688888D01*
X1413763Y688822D01*
X1413685Y688758D01*
X1413606Y688698D01*
X1413524Y688641D01*
X1413440Y688587D01*
X1413354Y688537D01*
X1413266Y688490D01*
X1413176Y688446D01*
X1413085Y688406D01*
X1412992Y688370D01*
X1412898Y688337D01*
X1412802Y688308D01*
X1412706Y688283D01*
X1412609Y688262D01*
X1412510Y688244D01*
X1412412Y688231D01*
X1412312Y688221D01*
X1412213Y688215D01*
X1412113Y688213D01*
X1411478Y688213D01*
X1411367Y688215D01*
X1411257Y688221D01*
X1411146Y688230D01*
X1411036Y688244D01*
X1410927Y688261D01*
X1410818Y688282D01*
X1410710Y688307D01*
X1410603Y688336D01*
X1410497Y688368D01*
X1410392Y688404D01*
X1410289Y688444D01*
X1410187Y688487D01*
X1410086Y688534D01*
X1409987Y688585D01*
X1409891Y688638D01*
X1409796Y688695D01*
X1409703Y688756D01*
X1409612Y688819D01*
X1409523Y688886D01*
X1409437Y688956D01*
X1409354Y689029D01*
X1409272Y689104D01*
X1409194Y689182D01*
X1409119Y689264D01*
X1409046Y689347D01*
X1408976Y689433D01*
X1408909Y689522D01*
X1408846Y689613D01*
X1408785Y689706D01*
X1408728Y689801D01*
X1408675Y689897D01*
X1408624Y689996D01*
X1408577Y690097D01*
X1408534Y690199D01*
X1408494Y690302D01*
X1408458Y690407D01*
X1408426Y690513D01*
X1408397Y690620D01*
X1408372Y690728D01*
X1408351Y690837D01*
X1408334Y690946D01*
X1408320Y691056D01*
X1408311Y691167D01*
X1408305Y691277D01*
X1408303Y691388D01*
X1408305Y691499D01*
X1408311Y691609D01*
X1408320Y691720D01*
X1408334Y691830D01*
X1408351Y691939D01*
X1408372Y692048D01*
X1408397Y692156D01*
X1408426Y692263D01*
X1408458Y692369D01*
X1408494Y692474D01*
X1408534Y692577D01*
X1408577Y692679D01*
X1408624Y692780D01*
X1408675Y692879D01*
X1408728Y692976D01*
X1408785Y693070D01*
X1408846Y693163D01*
X1408909Y693254D01*
X1408976Y693343D01*
X1409046Y693429D01*
X1409119Y693512D01*
X1409194Y693594D01*
X1409272Y693672D01*
X1409354Y693747D01*
X1409437Y693820D01*
X1409523Y693890D01*
X1409612Y693957D01*
X1409703Y694020D01*
X1409796Y694081D01*
X1409891Y694138D01*
X1409987Y694191D01*
X1410086Y694242D01*
X1410187Y694289D01*
X1410289Y694332D01*
X1410392Y694372D01*
X1410497Y694408D01*
X1410603Y694440D01*
X1410710Y694469D01*
X1410818Y694494D01*
X1410927Y694515D01*
X1411036Y694532D01*
X1411146Y694546D01*
X1411257Y694555D01*
X1411367Y694561D01*
X1411478Y694563D01*
X1414653Y694563D01*
X1414793Y694561D01*
X1414933Y694555D01*
X1415073Y694546D01*
X1415212Y694532D01*
X1415351Y694515D01*
X1415489Y694494D01*
X1415627Y694469D01*
X1415764Y694440D01*
X1415900Y694408D01*
X1416035Y694371D01*
X1416169Y694331D01*
X1416302Y694288D01*
X1416434Y694240D01*
X1416565Y694190D01*
X1416694Y694135D01*
X1416821Y694077D01*
X1416947Y694016D01*
X1417071Y693951D01*
X1417193Y693882D01*
X1417313Y693811D01*
X1417431Y693736D01*
X1417548Y693658D01*
X1417662Y693576D01*
X1417773Y693492D01*
X1417882Y693404D01*
X1417989Y693314D01*
X1418094Y693220D01*
X1418195Y693124D01*
X1418294Y693025D01*
X1418390Y692924D01*
X1418484Y692819D01*
X1418574Y692712D01*
X1418662Y692603D01*
X1418746Y692492D01*
X1418828Y692378D01*
X1418906Y692261D01*
X1418981Y692143D01*
X1419052Y692023D01*
X1419121Y691901D01*
X1419186Y691777D01*
X1419247Y691651D01*
X1419305Y691524D01*
X1419360Y691395D01*
X1419410Y691264D01*
X1419458Y691132D01*
X1419501Y690999D01*
X1419541Y690865D01*
X1419578Y690730D01*
X1419610Y690594D01*
X1419639Y690457D01*
X1419664Y690319D01*
X1419685Y690181D01*
X1419702Y690042D01*
X1419716Y689903D01*
X1419725Y689763D01*
X1419731Y689623D01*
X1419733Y689483D01*
X1419733Y702818D02*
X1408303Y699008D01*
X1408303Y706628D02*
X1419733Y702818D01*
X1421003Y710565D02*
X1421003Y715645D01*
X1410843Y720217D02*
X1408303Y723392D01*
X1419733Y723392D01*
X1419733Y720217D02*
X1419733Y726567D01*
D12*
X1327150Y187960D02*
X1314450Y187960D01*
X1327150Y187960D02*
X1333500Y181610D01*
X1333500Y168910D01*
X1327150Y162560D01*
X1308100Y168910D02*
X1308100Y181610D01*
X1314450Y187960D01*
X1308100Y168910D02*
X1314450Y162560D01*
X1327150Y162560D01*
X1314450Y568960D02*
X1301750Y568960D01*
X1314450Y568960D02*
X1320800Y562610D01*
X1320800Y549910D01*
X1314450Y543560D01*
X1295400Y549910D02*
X1295400Y562610D01*
X1301750Y568960D01*
X1295400Y549910D02*
X1301750Y543560D01*
X1314450Y543560D01*
D13*
X1303147Y481203D02*
X1314577Y477393D01*
X1314577Y485013D02*
X1303147Y481203D01*
X1311720Y484061D02*
X1311720Y478346D01*
X1308227Y494284D02*
X1308227Y496189D01*
X1314577Y496189D01*
X1314577Y492379D01*
X1314575Y492279D01*
X1314569Y492180D01*
X1314559Y492080D01*
X1314546Y491982D01*
X1314528Y491883D01*
X1314507Y491786D01*
X1314482Y491690D01*
X1314453Y491594D01*
X1314420Y491500D01*
X1314384Y491407D01*
X1314344Y491316D01*
X1314300Y491226D01*
X1314253Y491138D01*
X1314203Y491052D01*
X1314149Y490968D01*
X1314092Y490886D01*
X1314032Y490807D01*
X1313968Y490729D01*
X1313902Y490655D01*
X1313833Y490583D01*
X1313761Y490514D01*
X1313687Y490448D01*
X1313609Y490384D01*
X1313530Y490324D01*
X1313448Y490267D01*
X1313364Y490213D01*
X1313278Y490163D01*
X1313190Y490116D01*
X1313100Y490072D01*
X1313009Y490032D01*
X1312916Y489996D01*
X1312822Y489963D01*
X1312726Y489934D01*
X1312630Y489909D01*
X1312533Y489888D01*
X1312434Y489870D01*
X1312336Y489857D01*
X1312236Y489847D01*
X1312137Y489841D01*
X1312037Y489839D01*
X1305687Y489839D01*
X1305587Y489841D01*
X1305488Y489847D01*
X1305388Y489857D01*
X1305290Y489870D01*
X1305191Y489888D01*
X1305094Y489909D01*
X1304998Y489934D01*
X1304902Y489963D01*
X1304808Y489996D01*
X1304715Y490032D01*
X1304624Y490072D01*
X1304534Y490116D01*
X1304446Y490163D01*
X1304360Y490213D01*
X1304276Y490267D01*
X1304194Y490324D01*
X1304115Y490384D01*
X1304037Y490448D01*
X1303963Y490514D01*
X1303891Y490583D01*
X1303822Y490655D01*
X1303756Y490729D01*
X1303692Y490807D01*
X1303632Y490886D01*
X1303575Y490968D01*
X1303521Y491052D01*
X1303471Y491138D01*
X1303424Y491226D01*
X1303380Y491316D01*
X1303340Y491407D01*
X1303304Y491500D01*
X1303271Y491594D01*
X1303242Y491690D01*
X1303217Y491786D01*
X1303196Y491883D01*
X1303178Y491982D01*
X1303165Y492080D01*
X1303155Y492180D01*
X1303149Y492279D01*
X1303147Y492379D01*
X1303147Y496189D01*
X1303147Y502031D02*
X1314577Y502031D01*
X1314577Y508381D02*
X1303147Y502031D01*
X1303147Y508381D02*
X1314577Y508381D01*
X1314577Y514223D02*
X1303147Y514223D01*
X1303147Y517398D01*
X1303149Y517509D01*
X1303155Y517619D01*
X1303164Y517730D01*
X1303178Y517840D01*
X1303195Y517949D01*
X1303216Y518058D01*
X1303241Y518166D01*
X1303270Y518273D01*
X1303302Y518379D01*
X1303338Y518484D01*
X1303378Y518587D01*
X1303421Y518689D01*
X1303468Y518790D01*
X1303519Y518889D01*
X1303572Y518986D01*
X1303629Y519080D01*
X1303690Y519173D01*
X1303753Y519264D01*
X1303820Y519353D01*
X1303890Y519439D01*
X1303963Y519522D01*
X1304038Y519604D01*
X1304116Y519682D01*
X1304198Y519757D01*
X1304281Y519830D01*
X1304367Y519900D01*
X1304456Y519967D01*
X1304547Y520030D01*
X1304640Y520091D01*
X1304735Y520148D01*
X1304831Y520201D01*
X1304930Y520252D01*
X1305031Y520299D01*
X1305133Y520342D01*
X1305236Y520382D01*
X1305341Y520418D01*
X1305447Y520450D01*
X1305554Y520479D01*
X1305662Y520504D01*
X1305771Y520525D01*
X1305880Y520542D01*
X1305990Y520556D01*
X1306101Y520565D01*
X1306211Y520571D01*
X1306322Y520573D01*
X1311402Y520573D01*
X1311513Y520571D01*
X1311623Y520565D01*
X1311734Y520556D01*
X1311844Y520542D01*
X1311953Y520525D01*
X1312062Y520504D01*
X1312170Y520479D01*
X1312277Y520450D01*
X1312383Y520418D01*
X1312488Y520382D01*
X1312591Y520342D01*
X1312693Y520299D01*
X1312794Y520252D01*
X1312893Y520201D01*
X1312990Y520148D01*
X1313084Y520091D01*
X1313177Y520030D01*
X1313268Y519967D01*
X1313357Y519900D01*
X1313443Y519830D01*
X1313526Y519757D01*
X1313608Y519682D01*
X1313686Y519604D01*
X1313761Y519522D01*
X1313834Y519439D01*
X1313904Y519353D01*
X1313971Y519264D01*
X1314034Y519173D01*
X1314095Y519080D01*
X1314152Y518986D01*
X1314205Y518889D01*
X1314256Y518790D01*
X1314303Y518689D01*
X1314346Y518587D01*
X1314386Y518484D01*
X1314422Y518379D01*
X1314454Y518273D01*
X1314483Y518166D01*
X1314508Y518058D01*
X1314529Y517949D01*
X1314546Y517840D01*
X1314560Y517730D01*
X1314569Y517619D01*
X1314575Y517509D01*
X1314577Y517398D01*
X1314577Y514223D01*
X1314577Y526034D02*
X1314577Y529844D01*
X1314575Y529944D01*
X1314569Y530043D01*
X1314559Y530143D01*
X1314546Y530241D01*
X1314528Y530340D01*
X1314507Y530437D01*
X1314482Y530533D01*
X1314453Y530629D01*
X1314420Y530723D01*
X1314384Y530816D01*
X1314344Y530907D01*
X1314300Y530997D01*
X1314253Y531085D01*
X1314203Y531171D01*
X1314149Y531255D01*
X1314092Y531337D01*
X1314032Y531416D01*
X1313968Y531494D01*
X1313902Y531568D01*
X1313833Y531640D01*
X1313761Y531709D01*
X1313687Y531775D01*
X1313609Y531839D01*
X1313530Y531899D01*
X1313448Y531956D01*
X1313364Y532010D01*
X1313278Y532060D01*
X1313190Y532107D01*
X1313100Y532151D01*
X1313009Y532191D01*
X1312916Y532227D01*
X1312822Y532260D01*
X1312726Y532289D01*
X1312630Y532314D01*
X1312533Y532335D01*
X1312434Y532353D01*
X1312336Y532366D01*
X1312236Y532376D01*
X1312137Y532382D01*
X1312037Y532384D01*
X1310767Y532384D01*
X1310667Y532382D01*
X1310568Y532376D01*
X1310468Y532366D01*
X1310370Y532353D01*
X1310271Y532335D01*
X1310174Y532314D01*
X1310078Y532289D01*
X1309982Y532260D01*
X1309888Y532227D01*
X1309795Y532191D01*
X1309704Y532151D01*
X1309614Y532107D01*
X1309526Y532060D01*
X1309440Y532010D01*
X1309356Y531956D01*
X1309274Y531899D01*
X1309195Y531839D01*
X1309117Y531775D01*
X1309043Y531709D01*
X1308971Y531640D01*
X1308902Y531568D01*
X1308836Y531494D01*
X1308772Y531416D01*
X1308712Y531337D01*
X1308655Y531255D01*
X1308601Y531171D01*
X1308551Y531085D01*
X1308504Y530997D01*
X1308460Y530907D01*
X1308420Y530816D01*
X1308384Y530723D01*
X1308351Y530629D01*
X1308322Y530533D01*
X1308297Y530437D01*
X1308276Y530340D01*
X1308258Y530241D01*
X1308245Y530143D01*
X1308235Y530043D01*
X1308229Y529944D01*
X1308227Y529844D01*
X1308227Y526034D01*
X1303147Y526034D01*
X1303147Y532384D01*
M02*
