M48
;GenerationSoftware,Autodesk,EAGLE,9.6.2*%
;CreationDate,2023-01-16T01:56:02Z*%
FMAT,2
ICI,OFF
METRIC,TZ,000.000
T5C0.350
T4C0.800
T3C1.000
T2C1.016
T1C3.175
%
G90
M71
T1
X95250Y50038
X191770Y50038
X288290Y50038
X3505Y3531
X109423Y3785
X290525Y5055
X10414Y44069
X288290Y37338
X95250Y37338
T2
X32029Y48057
X181356Y34925
X36551Y48057
X32029Y54559
X36551Y54559
X203200Y24511
X205740Y24257
X208280Y24511
X210820Y24257
X213360Y24511
X215900Y24257
X218440Y24511
X220980Y24257
X223520Y24511
X226060Y24257
X228600Y24511
X231140Y24257
X233680Y24511
X236220Y24257
X238760Y24511
X241300Y24257
X243840Y24511
X246380Y24257
X248920Y24511
X251460Y24257
X251460Y3937
X248920Y4191
X246380Y3937
X243840Y4191
X241300Y3937
X238760Y4191
X236220Y3937
X233680Y4191
X231140Y3937
X228600Y4191
X226060Y3937
X223520Y4191
X220980Y3937
X218440Y4191
X215900Y3937
X213360Y4191
X210820Y3937
X208280Y4191
X205740Y3937
X203200Y4191
X251460Y6477
X248920Y6731
X246380Y6477
X243840Y6731
X241300Y6477
X238760Y6731
X236220Y6477
X233680Y6731
X231140Y6477
X228600Y6731
X226060Y6477
X168656Y35179
X87884Y48133
X85344Y48387
X82804Y48133
X80264Y48387
X77724Y48133
X75184Y48387
X72644Y48133
X70104Y48387
X67564Y48133
X65024Y48387
X62484Y48133
X59944Y48387
X57404Y48133
X54864Y48387
X52324Y48133
X49784Y48387
X47244Y48133
X44704Y48387
X42164Y48133
X39624Y48387
X39624Y33147
X42164Y32893
X44704Y33147
X47244Y32893
X49784Y33147
X52324Y32893
X54864Y33147
X57404Y32893
X59944Y33147
X62484Y32893
X65024Y33147
X67564Y32893
X70104Y33147
X72644Y32893
X75184Y33147
X77724Y32893
X80264Y33147
X82804Y32893
X85344Y33147
X87884Y32893
X39624Y30607
X42164Y30353
X44704Y30607
X47244Y30353
X49784Y30607
X52324Y30353
X54864Y30607
X57404Y30353
X59944Y30607
X62484Y30353
X65024Y30607
X67564Y30353
X70104Y30607
X72644Y30353
X75184Y30607
X77724Y30353
X80264Y30607
X82804Y30353
X85344Y30607
X87884Y30353
X87884Y50673
X85344Y50927
X82804Y50673
X80264Y50927
X77724Y50673
X75184Y50927
X72644Y50673
X70104Y50927
X67564Y50673
X65024Y50927
X62484Y50673
X59944Y50927
X57404Y50673
X54864Y50927
X52324Y50673
X49784Y50927
X47244Y50673
X44704Y50927
X42164Y50673
X39624Y50927
X223520Y6731
X220980Y6477
X218440Y6731
X215900Y6477
X213360Y6731
X210820Y6477
X208280Y6731
X9652Y52070
X9652Y49530
X205740Y6477
X203200Y6731
X203200Y21971
X205740Y21717
X208280Y21971
X210820Y21717
X213360Y21971
X215900Y21717
X218440Y21971
X220980Y21717
X223520Y21971
X226060Y21717
X228600Y21971
X231140Y21717
X233680Y21971
X236220Y21717
X238760Y21971
X241300Y21717
X243840Y21971
X246380Y21717
X87884Y21463
X85344Y21717
X82804Y21463
X80264Y21717
X77724Y21463
X75184Y21717
X72644Y21463
X70104Y21717
X67564Y21463
X65024Y21717
X62484Y21463
X59944Y21717
X57404Y21463
X54864Y21717
X52324Y21463
X49784Y21717
X47244Y21463
X44704Y21717
X42164Y21463
X39624Y21717
X39624Y6477
X42164Y6223
X44704Y6477
X47244Y6223
X49784Y6477
X52324Y6223
X54864Y6477
X57404Y6223
X59944Y6477
X62484Y6223
X65024Y6477
X67564Y6223
X70104Y6477
X72644Y6223
X75184Y6477
X77724Y6223
X80264Y6477
X82804Y6223
X85344Y6477
X87884Y6223
X39624Y3937
X42164Y3683
X44704Y3937
X47244Y3683
X49784Y3937
X52324Y3683
X54864Y3937
X57404Y3683
X59944Y3937
X62484Y3683
X65024Y3937
X67564Y3683
X70104Y3937
X72644Y3683
X75184Y3937
X77724Y3683
X80264Y3937
X82804Y3683
X85344Y3937
X87884Y3683
X87884Y24003
X85344Y24257
X82804Y24003
X80264Y24257
X77724Y24003
X75184Y24257
X72644Y24003
X70104Y24257
X67564Y24003
X65024Y24257
X62484Y24003
X59944Y24257
X57404Y24003
X54864Y24257
X52324Y24003
X49784Y24257
X47244Y24003
X44704Y24257
X42164Y24003
X39624Y24257
X181356Y50165
X178816Y50419
X176276Y50165
X173736Y50419
X171196Y50165
X168656Y50419
X166116Y50165
X163576Y50419
X161036Y50165
X158496Y50419
X155956Y50165
X153416Y50419
X150876Y50165
X148336Y50419
X145796Y50165
X143256Y50419
X140716Y50165
X138176Y50419
X135636Y50165
X133096Y50419
X133096Y35179
X135636Y34925
X138176Y35179
X140716Y34925
X143256Y35179
X145796Y34925
X148336Y35179
X150876Y34925
X153416Y35179
X155956Y34925
X158496Y35179
X161036Y34925
X163576Y35179
X166116Y34925
X248920Y21971
X171196Y34925
X173736Y35179
X176276Y34925
X178816Y35179
X251460Y21717
X133096Y32639
X135636Y32385
X138176Y32639
X140716Y32385
X143256Y32639
X145796Y32385
X148336Y32639
X150876Y32385
X153416Y32639
X155956Y32385
X158496Y32639
X161036Y32385
X163576Y32639
X166116Y32385
X168656Y32639
X171196Y32385
X173736Y32639
X176276Y32385
X178816Y32639
X181356Y32385
X181356Y52705
X178816Y52959
X176276Y52705
X173736Y52959
X171196Y52705
X168656Y52959
X166116Y52705
X163576Y52959
X161036Y52705
X158496Y52959
X155956Y52705
X153416Y52959
X150876Y52705
X148336Y52959
X145796Y52705
X143256Y52959
X140716Y52705
X138176Y52959
X135636Y52705
X133096Y52959
X181356Y22733
X178816Y22987
X176276Y22733
X173736Y22987
X171196Y22733
X168656Y22987
X166116Y22733
X163576Y22987
X161036Y22733
X158496Y22987
X155956Y22733
X153416Y22987
X150876Y22733
X148336Y22987
X145796Y22733
X143256Y22987
X140716Y22733
X138176Y22987
X135636Y22733
X133096Y22987
X133096Y7747
X135636Y7493
X138176Y7747
X140716Y7493
X143256Y7747
X145796Y7493
X148336Y7747
X150876Y7493
X153416Y7747
X155956Y7493
X158496Y7747
X161036Y7493
X163576Y7747
X166116Y7493
X168656Y7747
X171196Y7493
X173736Y7747
X176276Y7493
X178816Y7747
X181356Y7493
X133096Y5207
X135636Y4953
X138176Y5207
X140716Y4953
X143256Y5207
X145796Y4953
X148336Y5207
X150876Y4953
X153416Y5207
X155956Y4953
X158496Y5207
X161036Y4953
X163576Y5207
X166116Y4953
X168656Y5207
X171196Y4953
X173736Y5207
X176276Y4953
X178816Y5207
X181356Y4953
X181356Y25273
X178816Y25527
X176276Y25273
X173736Y25527
X171196Y25273
X168656Y25527
X166116Y25273
X163576Y25527
X161036Y25273
X158496Y25527
X155956Y25273
X153416Y25527
X150876Y25273
X148336Y25527
X145796Y25273
X143256Y25527
X140716Y25273
X138176Y25527
X135636Y25273
X133096Y25527
X251460Y49911
X248920Y50165
X246380Y49911
X243840Y50165
X241300Y49911
X238760Y50165
X236220Y49911
X233680Y50165
X231140Y49911
X228600Y50165
X226060Y49911
X223520Y50165
X220980Y49911
X218440Y50165
X215900Y49911
X213360Y50165
X210820Y49911
X208280Y50165
X205740Y49911
X203200Y50165
X203200Y34925
X205740Y34671
X208280Y34925
X210820Y34671
X213360Y34925
X215900Y34671
X218440Y34925
X220980Y34671
X223520Y34925
X226060Y34671
X228600Y34925
X231140Y34671
X233680Y34925
X236220Y34671
X238760Y34925
X241300Y34671
X243840Y34925
X246380Y34671
X248920Y34925
X251460Y34671
X203200Y32385
X205740Y32131
X208280Y32385
X210820Y32131
X213360Y32385
X215900Y32131
X218440Y32385
X220980Y32131
X223520Y32385
X226060Y32131
X228600Y32385
X231140Y32131
X233680Y32385
X236220Y32131
X238760Y32385
X241300Y32131
X243840Y32385
X246380Y32131
X248920Y32385
X251460Y32131
X251460Y52451
X248920Y52705
X246380Y52451
X243840Y52705
X241300Y52451
X238760Y52705
X236220Y52451
X233680Y52705
X231140Y52451
X228600Y52705
X226060Y52451
X223520Y52705
X220980Y52451
X218440Y52705
X215900Y52451
X213360Y52705
X210820Y52451
X208280Y52705
X205740Y52451
X203200Y52705
T3
X19431Y12827
X37338Y26416
X30480Y7620
X30480Y5080
X27940Y7620
X27940Y5080
X25400Y7620
X25400Y5080
X22860Y7620
X22860Y5080
X20320Y7620
X20320Y5080
X17780Y7620
X17780Y5080
X15240Y7620
X15240Y5080
X12700Y7620
X12700Y5080
X25400Y28466
X22860Y28466
X20320Y28466
X17780Y28466
X12700Y28466
X10160Y28466
X7620Y28466
X29972Y12954
T4
X4572Y48308
X4572Y50308
X4572Y52308
X4572Y54308
T5
X90170Y30734
X115570Y44958
X102616Y41148
X113538Y51562
X216408Y27178
X158496Y41402
X94361Y27559
X110490Y51308
X72644Y40132
X107696Y52070
X75184Y41148
X90678Y44450
X70612Y36830
X64516Y41148
X106426Y25908
X143256Y10668
X58928Y39878
X155956Y20828
X186897Y10969
X186690Y8890
X15494Y44196
X34036Y39370
X131064Y41402
X133858Y12446
X200152Y12446
X206248Y39624
X38354Y44450
X215392Y16764
X145034Y18542
X51054Y17780
X33782Y23368
X215392Y45466
X145161Y46101
X50673Y43561
X202184Y42926
X131572Y44958
X38862Y41910
X201064Y16129
X131074Y16520
X38100Y14478
X32766Y43180
X91440Y31496
X97790Y27686
X135636Y29718
X235204Y28956
X229616Y29718
X93472Y21590
X175768Y17117
X122682Y52070
X67310Y10411
X102108Y42926
X70231Y38735
X71374Y25654
X63500Y37846
M30